<svg width="553" height="222" viewBox="0 0 553 222" fill="none" xmlns="http://www.w3.org/2000/svg">
<rect x="53.5" y="156.5" width="499" height="47" rx="1.5" fill="white"/>
<path d="M68.6 186V184.848H63.656V175.328H62.328V186H68.6ZM71.9161 186.096C73.3881 186.096 74.3161 185.536 74.9401 184.672C74.9241 185.072 74.9881 185.728 75.0841 186H76.2681C76.1401 185.504 76.0921 184.96 76.0921 184.464V180.88C76.0921 178.896 75.2281 177.968 72.9881 177.968C71.1161 177.968 69.8841 178.736 69.5961 180.176L70.7481 180.304C71.0041 179.296 71.6761 178.944 72.9561 178.944C74.2841 178.944 74.7961 179.408 74.8921 180.272C74.9241 180.464 74.9241 180.736 74.9241 181.008C74.3001 181.024 73.7721 181.024 73.1321 181.104C70.9721 181.36 69.4041 182.208 69.4041 183.92C69.4041 185.36 70.5241 186.096 71.9161 186.096ZM72.2841 185.184C71.2281 185.184 70.7001 184.704 70.7001 183.792C70.7001 182.8 71.5801 182.112 73.2921 181.888C73.7881 181.824 74.3641 181.824 74.9241 181.824V183.456C74.5881 184.272 73.7881 185.184 72.2841 185.184ZM82.0976 186.112C83.8896 186.112 85.1856 184.752 85.1856 182.032C85.1856 179.392 84.0816 177.968 82.1936 177.968C81.0576 177.968 80.0496 178.752 79.6496 179.616V175.328H78.4656V186H79.1536L79.5536 184.688C80.0656 185.584 80.9136 186.112 82.0976 186.112ZM81.8576 185.216C80.5936 185.216 79.6656 184.272 79.6656 182.624V180.72C80.0976 179.808 80.7536 178.96 81.9056 178.96C83.2336 178.96 83.9056 180 83.9056 182.064C83.9056 184.272 83.2016 185.216 81.8576 185.216ZM90.0209 186.128C91.5889 186.128 92.8049 185.312 93.3489 183.792L92.2609 183.632C91.8129 184.8 90.9969 185.184 90.1329 185.184C88.5969 185.184 87.7009 184.176 87.6689 182.192H93.4929C93.4769 182.016 93.4929 181.84 93.4769 181.664C93.3169 179.472 92.1169 177.968 90.0529 177.968C88.0209 177.968 86.4049 179.52 86.4049 182.192C86.4049 184.544 87.8609 186.128 90.0209 186.128ZM87.7169 181.344C87.8129 179.856 88.7889 178.912 90.0529 178.912C91.3169 178.912 92.1009 179.824 92.2289 181.344H87.7169ZM96.4956 186V175.328H95.2476V186H96.4956ZM105.95 186V176.464H109.006V175.328H101.566V176.464H104.622V186H105.95ZM111.958 186.128C113.526 186.128 114.742 185.312 115.286 183.792L114.198 183.632C113.75 184.8 112.934 185.184 112.07 185.184C110.534 185.184 109.638 184.176 109.606 182.192H115.43C115.414 182.016 115.43 181.84 115.414 181.664C115.254 179.472 114.054 177.968 111.99 177.968C109.958 177.968 108.342 179.52 108.342 182.192C108.342 184.544 109.798 186.128 111.958 186.128ZM109.654 181.344C109.75 179.856 110.726 178.912 111.99 178.912C113.254 178.912 114.038 179.824 114.166 181.344H109.654ZM117.221 186L119.221 183.056L119.381 182.768L119.557 183.056L121.621 186H122.997L120.069 181.744L122.517 178.112H121.317L119.669 180.528L119.461 180.848L119.253 180.528L117.605 178.112H116.197L118.773 181.872L116.005 186H117.221ZM126.392 186.112C126.824 186.112 127.304 186.064 127.736 185.984V185.008C127.448 185.056 126.984 185.104 126.616 185.104C125.944 185.088 125.512 184.72 125.512 183.888V179.104H127.288V178.112H125.512V176.048H124.376L124.312 178.112H123.016V179.104H124.296V183.824C124.296 185.456 125.064 186.112 126.392 186.112Z" fill="#666666"/>
<rect x="53.5" y="156.5" width="499" height="47" rx="1.5" stroke="#E9E9E9"/>
<path d="M54.992 219V215.196H58.712V219H59.708V210.996H58.712V214.308H54.992V210.996H53.996V219H54.992ZM63.8672 219.096C65.0432 219.096 65.9552 218.484 66.3632 217.344L65.5472 217.224C65.2112 218.1 64.5992 218.388 63.9512 218.388C62.7992 218.388 62.1272 217.632 62.1032 216.144H66.4712C66.4592 216.012 66.4712 215.88 66.4592 215.748C66.3392 214.104 65.4392 212.976 63.8912 212.976C62.3672 212.976 61.1552 214.14 61.1552 216.144C61.1552 217.908 62.2472 219.096 63.8672 219.096ZM62.1392 215.508C62.2112 214.392 62.9432 213.684 63.8912 213.684C64.8392 213.684 65.4272 214.368 65.5232 215.508H62.1392ZM68.7233 219V210.996H67.7873V219H68.7233ZM73.3126 219.084C74.5006 219.084 75.5686 218.04 75.5686 216.036C75.5686 213.9 74.6566 212.976 73.3366 212.976C72.3886 212.976 71.7886 213.552 71.4286 214.128V213.084H70.5406V221.004H71.4646V218.22C71.8246 218.652 72.4486 219.084 73.3126 219.084ZM73.0606 218.4C72.2086 218.4 71.7766 217.872 71.4646 217.428V214.932C71.8846 214.104 72.4366 213.744 73.1206 213.744C74.1406 213.744 74.5966 214.476 74.5966 216.06C74.5966 217.764 73.9966 218.4 73.0606 218.4ZM79.1953 219.096C80.3713 219.096 81.2833 218.484 81.6913 217.344L80.8753 217.224C80.5393 218.1 79.9273 218.388 79.2793 218.388C78.1273 218.388 77.4553 217.632 77.4313 216.144H81.7993C81.7873 216.012 81.7993 215.88 81.7873 215.748C81.6673 214.104 80.7673 212.976 79.2193 212.976C77.6953 212.976 76.4833 214.14 76.4833 216.144C76.4833 217.908 77.5753 219.096 79.1953 219.096ZM77.4673 215.508C77.5393 214.392 78.2713 213.684 79.2193 213.684C80.1673 213.684 80.7553 214.368 80.8513 215.508H77.4673ZM84.0274 219V215.136C84.5194 214.308 85.2154 213.828 85.9114 213.828C85.9834 213.828 86.1034 213.828 86.1754 213.84V212.988C86.0794 212.976 86.0074 212.976 85.8994 212.976C85.0594 212.976 84.3634 213.66 83.9794 214.356V213.084H83.0914V219H84.0274ZM91.5326 219.084C91.8566 219.084 92.2166 219.048 92.5406 218.988V218.256C92.3246 218.292 91.9766 218.328 91.7006 218.328C91.1966 218.316 90.8726 218.04 90.8726 217.416V213.828H92.2046V213.084H90.8726V211.536H90.0206L89.9726 213.084H89.0006V213.828H89.9606V217.368C89.9606 218.592 90.5366 219.084 91.5326 219.084ZM95.836 219.096C97.012 219.096 97.924 218.484 98.332 217.344L97.516 217.224C97.18 218.1 96.568 218.388 95.92 218.388C94.768 218.388 94.096 217.632 94.072 216.144H98.44C98.428 216.012 98.44 215.88 98.428 215.748C98.308 214.104 97.408 212.976 95.86 212.976C94.336 212.976 93.124 214.14 93.124 216.144C93.124 217.908 94.216 219.096 95.836 219.096ZM94.108 215.508C94.18 214.392 94.912 213.684 95.86 213.684C96.808 213.684 97.396 214.368 97.492 215.508H94.108ZM99.7828 219L101.283 216.792L101.403 216.576L101.535 216.792L103.083 219H104.115L101.919 215.808L103.755 213.084H102.855L101.619 214.896L101.463 215.136L101.307 214.896L100.071 213.084H99.0148L100.947 215.904L98.8708 219H99.7828ZM106.661 219.084C106.985 219.084 107.345 219.048 107.669 218.988V218.256C107.453 218.292 107.105 218.328 106.829 218.328C106.325 218.316 106.001 218.04 106.001 217.416V213.828H107.333V213.084H106.001V211.536H105.149L105.101 213.084H104.129V213.828H105.089V217.368C105.089 218.592 105.665 219.084 106.661 219.084ZM113.275 219.096C114.139 219.096 114.739 218.748 115.207 218.1V219H116.083V210.996H115.183V213.888C114.907 213.492 114.343 212.976 113.443 212.976C111.931 212.976 111.019 214.308 111.019 216.06C111.019 217.992 111.847 219.096 113.275 219.096ZM113.527 218.388C112.543 218.388 111.991 217.704 111.991 216.06C111.991 214.548 112.519 213.708 113.587 213.708C114.463 213.708 114.871 214.212 115.171 214.776V217.188C114.919 217.848 114.415 218.388 113.527 218.388ZM118.904 212.04V210.984H117.884V212.04H118.904ZM118.868 219V213.084H117.932V219H118.868ZM122.557 219.096C123.997 219.096 124.933 218.364 124.933 217.272C124.933 216.096 123.901 215.76 122.689 215.52C121.741 215.316 121.033 215.196 121.033 214.548C121.033 214.008 121.573 213.684 122.365 213.684C123.169 213.684 123.709 214.044 123.937 214.668L124.765 214.488C124.465 213.564 123.697 212.976 122.365 212.976C121.045 212.976 120.169 213.636 120.169 214.608C120.169 215.772 121.189 216.084 122.401 216.312C123.277 216.504 124.069 216.648 124.069 217.356C124.069 217.98 123.493 218.4 122.557 218.4C121.537 218.4 120.877 217.932 120.685 217.236L119.845 217.404C120.133 218.484 121.057 219.096 122.557 219.096ZM128.965 219.084C130.153 219.084 131.221 218.04 131.221 216.036C131.221 213.9 130.309 212.976 128.989 212.976C128.041 212.976 127.441 213.552 127.081 214.128V213.084H126.193V221.004H127.117V218.22C127.477 218.652 128.101 219.084 128.965 219.084ZM128.713 218.4C127.861 218.4 127.429 217.872 127.117 217.428V214.932C127.537 214.104 128.089 213.744 128.773 213.744C129.793 213.744 130.249 214.476 130.249 216.06C130.249 217.764 129.649 218.4 128.713 218.4ZM133.54 219V210.996H132.604V219H133.54ZM136.773 219.072C137.877 219.072 138.573 218.652 139.041 218.004C139.029 218.304 139.077 218.796 139.149 219H140.037C139.941 218.628 139.905 218.22 139.905 217.848V215.16C139.905 213.672 139.257 212.976 137.577 212.976C136.173 212.976 135.249 213.552 135.033 214.632L135.897 214.728C136.089 213.972 136.593 213.708 137.553 213.708C138.549 213.708 138.933 214.056 139.005 214.704C139.029 214.848 139.029 215.052 139.029 215.256C138.561 215.268 138.165 215.268 137.685 215.328C136.065 215.52 134.889 216.156 134.889 217.44C134.889 218.52 135.729 219.072 136.773 219.072ZM137.049 218.388C136.257 218.388 135.861 218.028 135.861 217.344C135.861 216.6 136.521 216.084 137.805 215.916C138.177 215.868 138.609 215.868 139.029 215.868V217.092C138.777 217.704 138.177 218.388 137.049 218.388ZM141.147 221.076C142.599 221.076 143.283 220.464 143.643 219.42L145.899 213.084H145.071L143.703 216.948L143.463 217.704L143.223 216.948L141.759 213.084H140.751L142.695 218.136C143.199 219.456 142.443 220.32 141.123 220.32L141.147 221.076ZM148.655 219.096C150.095 219.096 151.031 218.364 151.031 217.272C151.031 216.096 149.999 215.76 148.787 215.52C147.839 215.316 147.131 215.196 147.131 214.548C147.131 214.008 147.671 213.684 148.463 213.684C149.267 213.684 149.807 214.044 150.035 214.668L150.863 214.488C150.563 213.564 149.795 212.976 148.463 212.976C147.143 212.976 146.267 213.636 146.267 214.608C146.267 215.772 147.287 216.084 148.499 216.312C149.375 216.504 150.167 216.648 150.167 217.356C150.167 217.98 149.591 218.4 148.655 218.4C147.635 218.4 146.975 217.932 146.783 217.236L145.943 217.404C146.231 218.484 147.155 219.096 148.655 219.096ZM155.992 219V214.956C156.484 214.248 157.072 213.756 157.9 213.756C158.5 213.756 158.86 214.092 158.86 214.812V219H159.796V214.74C159.796 213.768 159.364 212.976 158.164 212.976C157.06 212.976 156.34 213.636 155.956 214.248V210.996H155.056V219H155.992ZM163.84 219.096C165.016 219.096 165.928 218.484 166.336 217.344L165.52 217.224C165.184 218.1 164.572 218.388 163.924 218.388C162.772 218.388 162.1 217.632 162.076 216.144H166.444C166.432 216.012 166.444 215.88 166.432 215.748C166.312 214.104 165.412 212.976 163.864 212.976C162.34 212.976 161.128 214.14 161.128 216.144C161.128 217.908 162.22 219.096 163.84 219.096ZM162.112 215.508C162.184 214.392 162.916 213.684 163.864 213.684C164.812 213.684 165.4 214.368 165.496 215.508H162.112ZM168.672 219V215.136C169.164 214.308 169.86 213.828 170.556 213.828C170.628 213.828 170.748 213.828 170.82 213.84V212.988C170.724 212.976 170.652 212.976 170.544 212.976C169.704 212.976 169.008 213.66 168.624 214.356V213.084H167.736V219H168.672ZM173.906 219.096C175.082 219.096 175.994 218.484 176.402 217.344L175.586 217.224C175.25 218.1 174.638 218.388 173.99 218.388C172.838 218.388 172.166 217.632 172.142 216.144H176.51C176.498 216.012 176.51 215.88 176.498 215.748C176.378 214.104 175.478 212.976 173.93 212.976C172.406 212.976 171.194 214.14 171.194 216.144C171.194 217.908 172.286 219.096 173.906 219.096ZM172.178 215.508C172.25 214.392 172.982 213.684 173.93 213.684C174.878 213.684 175.466 214.368 175.562 215.508H172.178Z" fill="#666666"/>
<rect x="53.5" y="52.5" width="499" height="47" rx="1.5" fill="white"/>
<path d="M66.7 70.5V69.636H62.992V62.496H61.996V70.5H66.7ZM69.1871 70.572C70.2911 70.572 70.9871 70.152 71.4551 69.504C71.4431 69.804 71.4911 70.296 71.5631 70.5H72.4511C72.3551 70.128 72.3191 69.72 72.3191 69.348V66.66C72.3191 65.172 71.6711 64.476 69.9911 64.476C68.5871 64.476 67.6631 65.052 67.4471 66.132L68.3111 66.228C68.5031 65.472 69.0071 65.208 69.9671 65.208C70.9631 65.208 71.3471 65.556 71.4191 66.204C71.4431 66.348 71.4431 66.552 71.4431 66.756C70.9751 66.768 70.5791 66.768 70.0991 66.828C68.4791 67.02 67.3031 67.656 67.3031 68.94C67.3031 70.02 68.1431 70.572 69.1871 70.572ZM69.4631 69.888C68.6711 69.888 68.2751 69.528 68.2751 68.844C68.2751 68.1 68.9351 67.584 70.2191 67.416C70.5911 67.368 71.0231 67.368 71.4431 67.368V68.592C71.1911 69.204 70.5911 69.888 69.4631 69.888ZM76.8232 70.584C78.1672 70.584 79.1392 69.564 79.1392 67.524C79.1392 65.544 78.3112 64.476 76.8952 64.476C76.0432 64.476 75.2872 65.064 74.9872 65.712V62.496H74.0992V70.5H74.6152L74.9152 69.516C75.2992 70.188 75.9352 70.584 76.8232 70.584ZM76.6432 69.912C75.6952 69.912 74.9992 69.204 74.9992 67.968V66.54C75.3232 65.856 75.8152 65.22 76.6792 65.22C77.6752 65.22 78.1792 66 78.1792 67.548C78.1792 69.204 77.6512 69.912 76.6432 69.912ZM82.7657 70.596C83.9417 70.596 84.8537 69.984 85.2617 68.844L84.4457 68.724C84.1097 69.6 83.4977 69.888 82.8497 69.888C81.6977 69.888 81.0257 69.132 81.0017 67.644H85.3697C85.3577 67.512 85.3697 67.38 85.3577 67.248C85.2377 65.604 84.3377 64.476 82.7897 64.476C81.2657 64.476 80.0537 65.64 80.0537 67.644C80.0537 69.408 81.1457 70.596 82.7657 70.596ZM81.0377 67.008C81.1097 65.892 81.8417 65.184 82.7897 65.184C83.7377 65.184 84.3257 65.868 84.4217 67.008H81.0377ZM87.6217 70.5V62.496H86.6857V70.5H87.6217ZM94.7127 70.5V63.348H97.0047V62.496H91.4247V63.348H93.7167V70.5H94.7127ZM99.2188 70.596C100.395 70.596 101.307 69.984 101.715 68.844L100.899 68.724C100.563 69.6 99.9508 69.888 99.3028 69.888C98.1508 69.888 97.4788 69.132 97.4548 67.644H101.823C101.811 67.512 101.823 67.38 101.811 67.248C101.691 65.604 100.791 64.476 99.2428 64.476C97.7188 64.476 96.5068 65.64 96.5068 67.644C96.5068 69.408 97.5988 70.596 99.2188 70.596ZM97.4908 67.008C97.5628 65.892 98.2948 65.184 99.2428 65.184C100.191 65.184 100.779 65.868 100.875 67.008H97.4908ZM103.166 70.5L104.666 68.292L104.786 68.076L104.918 68.292L106.466 70.5H107.498L105.302 67.308L107.138 64.584H106.238L105.002 66.396L104.846 66.636L104.69 66.396L103.454 64.584H102.398L104.33 67.404L102.254 70.5H103.166ZM110.044 70.584C110.368 70.584 110.728 70.548 111.052 70.488V69.756C110.836 69.792 110.488 69.828 110.212 69.828C109.708 69.816 109.384 69.54 109.384 68.916V65.328H110.716V64.584H109.384V63.036H108.532L108.484 64.584H107.512V65.328H108.472V68.868C108.472 70.092 109.048 70.584 110.044 70.584Z" fill="#EA0017"/>
<path d="M65.592 89.676C68.024 89.676 69.464 88.492 69.464 86.604C69.464 84.812 68.248 84.06 66.008 83.468C63.816 82.892 63.032 82.492 63.032 81.308C63.032 80.396 63.912 79.724 65.256 79.724C66.6 79.724 67.624 80.428 67.944 81.628L69.176 81.244C68.664 79.58 67.272 78.62 65.272 78.62C63.208 78.62 61.704 79.724 61.704 81.452C61.704 83.34 63.192 84.044 65.16 84.54C66.92 85.004 68.152 85.388 68.152 86.716C68.152 87.932 67.176 88.588 65.608 88.588C63.736 88.588 62.824 87.82 62.328 86.524L61.192 86.972C61.896 88.748 63.272 89.676 65.592 89.676ZM74.3802 89.628C75.9483 89.628 77.1643 88.812 77.7083 87.292L76.6203 87.132C76.1723 88.3 75.3563 88.684 74.4923 88.684C72.9563 88.684 72.0603 87.676 72.0283 85.692H77.8523C77.8363 85.516 77.8523 85.34 77.8363 85.164C77.6763 82.972 76.4763 81.468 74.4123 81.468C72.3803 81.468 70.7643 83.02 70.7643 85.692C70.7643 88.044 72.2203 89.628 74.3802 89.628ZM72.0763 84.844C72.1723 83.356 73.1483 82.412 74.4123 82.412C75.6763 82.412 76.4603 83.324 76.5883 84.844H72.0763ZM80.855 89.5V78.828H79.607V89.5H80.855ZM86.3021 89.628C87.8701 89.628 89.0861 88.812 89.6301 87.292L88.5421 87.132C88.0941 88.3 87.2781 88.684 86.4141 88.684C84.8781 88.684 83.9821 87.676 83.9501 85.692H89.7741C89.7581 85.516 89.7741 85.34 89.7581 85.164C89.5981 82.972 88.3981 81.468 86.3341 81.468C84.3021 81.468 82.6861 83.02 82.6861 85.692C82.6861 88.044 84.1421 89.628 86.3021 89.628ZM83.9981 84.844C84.0941 83.356 85.0701 82.412 86.3341 82.412C87.5981 82.412 88.3821 83.324 88.5101 84.844H83.9981ZM94.2809 89.628C95.8489 89.628 97.0169 88.716 97.2889 86.94L96.2009 86.828C95.9609 88.14 95.3529 88.7 94.3129 88.7C93.1289 88.7 92.2009 87.724 92.2009 85.548C92.2009 83.58 92.9689 82.46 94.2329 82.46C95.3209 82.46 95.9449 83.164 96.1369 84.46L97.3049 84.316C96.9529 82.38 95.8969 81.468 94.2169 81.468C92.2169 81.468 90.8889 83.228 90.8889 85.516C90.8889 88.156 92.3449 89.628 94.2809 89.628ZM101.158 89.612C101.59 89.612 102.07 89.564 102.502 89.484V88.508C102.214 88.556 101.75 88.604 101.382 88.604C100.71 88.588 100.278 88.22 100.278 87.388V82.604H102.054V81.612H100.278V79.548H99.142L99.078 81.612H97.782V82.604H99.062V87.324C99.062 88.956 99.83 89.612 101.158 89.612ZM106.896 89.628C108.464 89.628 109.68 88.812 110.224 87.292L109.136 87.132C108.688 88.3 107.872 88.684 107.008 88.684C105.472 88.684 104.576 87.676 104.544 85.692H110.368C110.352 85.516 110.368 85.34 110.352 85.164C110.192 82.972 108.992 81.468 106.928 81.468C104.896 81.468 103.28 83.02 103.28 85.692C103.28 88.044 104.736 89.628 106.896 89.628ZM104.592 84.844C104.688 83.356 105.664 82.412 106.928 82.412C108.192 82.412 108.976 83.324 109.104 84.844H104.592ZM114.507 89.628C115.659 89.628 116.459 89.164 117.083 88.3V89.5H118.251V78.828H117.051V82.684C116.683 82.156 115.931 81.468 114.731 81.468C112.715 81.468 111.499 83.244 111.499 85.58C111.499 88.156 112.603 89.628 114.507 89.628ZM114.843 88.684C113.531 88.684 112.795 87.772 112.795 85.58C112.795 83.564 113.499 82.444 114.923 82.444C116.091 82.444 116.635 83.116 117.035 83.868V87.084C116.699 87.964 116.027 88.684 114.843 88.684ZM127.716 89.5V79.964H130.772V78.828H123.332V79.964H126.388V89.5H127.716ZM133.724 89.628C135.292 89.628 136.508 88.812 137.052 87.292L135.964 87.132C135.516 88.3 134.7 88.684 133.836 88.684C132.3 88.684 131.404 87.676 131.372 85.692H137.196C137.18 85.516 137.196 85.34 137.18 85.164C137.02 82.972 135.82 81.468 133.756 81.468C131.724 81.468 130.108 83.02 130.108 85.692C130.108 88.044 131.564 89.628 133.724 89.628ZM131.42 84.844C131.516 83.356 132.492 82.412 133.756 82.412C135.02 82.412 135.804 83.324 135.932 84.844H131.42ZM138.987 89.5L140.987 86.556L141.147 86.268L141.323 86.556L143.387 89.5H144.763L141.835 85.244L144.283 81.612H143.083L141.435 84.028L141.227 84.348L141.019 84.028L139.371 81.612H137.963L140.539 85.372L137.771 89.5H138.987ZM148.158 89.612C148.59 89.612 149.07 89.564 149.502 89.484V88.508C149.214 88.556 148.75 88.604 148.382 88.604C147.71 88.588 147.278 88.22 147.278 87.388V82.604H149.054V81.612H147.278V79.548H146.142L146.078 81.612H144.782V82.604H146.062V87.324C146.062 88.956 146.83 89.612 148.158 89.612Z" fill="#111111"/>
<rect x="53.5" y="52.5" width="499" height="47" rx="1.5" stroke="#EA0017"/>
<path d="M54.992 115V111.196H58.712V115H59.708V106.996H58.712V110.308H54.992V106.996H53.996V115H54.992ZM63.8672 115.096C65.0432 115.096 65.9552 114.484 66.3632 113.344L65.5472 113.224C65.2112 114.1 64.5992 114.388 63.9512 114.388C62.7992 114.388 62.1272 113.632 62.1032 112.144H66.4712C66.4592 112.012 66.4712 111.88 66.4592 111.748C66.3392 110.104 65.4392 108.976 63.8912 108.976C62.3672 108.976 61.1552 110.14 61.1552 112.144C61.1552 113.908 62.2472 115.096 63.8672 115.096ZM62.1392 111.508C62.2112 110.392 62.9432 109.684 63.8912 109.684C64.8392 109.684 65.4272 110.368 65.5232 111.508H62.1392ZM68.7233 115V106.996H67.7873V115H68.7233ZM73.3126 115.084C74.5006 115.084 75.5686 114.04 75.5686 112.036C75.5686 109.9 74.6566 108.976 73.3366 108.976C72.3886 108.976 71.7886 109.552 71.4286 110.128V109.084H70.5406V117.004H71.4646V114.22C71.8246 114.652 72.4486 115.084 73.3126 115.084ZM73.0606 114.4C72.2086 114.4 71.7766 113.872 71.4646 113.428V110.932C71.8846 110.104 72.4366 109.744 73.1206 109.744C74.1406 109.744 74.5966 110.476 74.5966 112.06C74.5966 113.764 73.9966 114.4 73.0606 114.4ZM79.1953 115.096C80.3713 115.096 81.2833 114.484 81.6913 113.344L80.8753 113.224C80.5393 114.1 79.9273 114.388 79.2793 114.388C78.1273 114.388 77.4553 113.632 77.4313 112.144H81.7993C81.7873 112.012 81.7993 111.88 81.7873 111.748C81.6673 110.104 80.7673 108.976 79.2193 108.976C77.6953 108.976 76.4833 110.14 76.4833 112.144C76.4833 113.908 77.5753 115.096 79.1953 115.096ZM77.4673 111.508C77.5393 110.392 78.2713 109.684 79.2193 109.684C80.1673 109.684 80.7553 110.368 80.8513 111.508H77.4673ZM84.0274 115V111.136C84.5194 110.308 85.2154 109.828 85.9114 109.828C85.9834 109.828 86.1034 109.828 86.1754 109.84V108.988C86.0794 108.976 86.0074 108.976 85.8994 108.976C85.0594 108.976 84.3634 109.66 83.9794 110.356V109.084H83.0914V115H84.0274ZM91.5326 115.084C91.8566 115.084 92.2166 115.048 92.5406 114.988V114.256C92.3246 114.292 91.9766 114.328 91.7006 114.328C91.1966 114.316 90.8726 114.04 90.8726 113.416V109.828H92.2046V109.084H90.8726V107.536H90.0206L89.9726 109.084H89.0006V109.828H89.9606V113.368C89.9606 114.592 90.5366 115.084 91.5326 115.084ZM95.836 115.096C97.012 115.096 97.924 114.484 98.332 113.344L97.516 113.224C97.18 114.1 96.568 114.388 95.92 114.388C94.768 114.388 94.096 113.632 94.072 112.144H98.44C98.428 112.012 98.44 111.88 98.428 111.748C98.308 110.104 97.408 108.976 95.86 108.976C94.336 108.976 93.124 110.14 93.124 112.144C93.124 113.908 94.216 115.096 95.836 115.096ZM94.108 111.508C94.18 110.392 94.912 109.684 95.86 109.684C96.808 109.684 97.396 110.368 97.492 111.508H94.108ZM99.7828 115L101.283 112.792L101.403 112.576L101.535 112.792L103.083 115H104.115L101.919 111.808L103.755 109.084H102.855L101.619 110.896L101.463 111.136L101.307 110.896L100.071 109.084H99.0148L100.947 111.904L98.8708 115H99.7828ZM106.661 115.084C106.985 115.084 107.345 115.048 107.669 114.988V114.256C107.453 114.292 107.105 114.328 106.829 114.328C106.325 114.316 106.001 114.04 106.001 113.416V109.828H107.333V109.084H106.001V107.536H105.149L105.101 109.084H104.129V109.828H105.089V113.368C105.089 114.592 105.665 115.084 106.661 115.084ZM113.275 115.096C114.139 115.096 114.739 114.748 115.207 114.1V115H116.083V106.996H115.183V109.888C114.907 109.492 114.343 108.976 113.443 108.976C111.931 108.976 111.019 110.308 111.019 112.06C111.019 113.992 111.847 115.096 113.275 115.096ZM113.527 114.388C112.543 114.388 111.991 113.704 111.991 112.06C111.991 110.548 112.519 109.708 113.587 109.708C114.463 109.708 114.871 110.212 115.171 110.776V113.188C114.919 113.848 114.415 114.388 113.527 114.388ZM118.904 108.04V106.984H117.884V108.04H118.904ZM118.868 115V109.084H117.932V115H118.868ZM122.557 115.096C123.997 115.096 124.933 114.364 124.933 113.272C124.933 112.096 123.901 111.76 122.689 111.52C121.741 111.316 121.033 111.196 121.033 110.548C121.033 110.008 121.573 109.684 122.365 109.684C123.169 109.684 123.709 110.044 123.937 110.668L124.765 110.488C124.465 109.564 123.697 108.976 122.365 108.976C121.045 108.976 120.169 109.636 120.169 110.608C120.169 111.772 121.189 112.084 122.401 112.312C123.277 112.504 124.069 112.648 124.069 113.356C124.069 113.98 123.493 114.4 122.557 114.4C121.537 114.4 120.877 113.932 120.685 113.236L119.845 113.404C120.133 114.484 121.057 115.096 122.557 115.096ZM128.965 115.084C130.153 115.084 131.221 114.04 131.221 112.036C131.221 109.9 130.309 108.976 128.989 108.976C128.041 108.976 127.441 109.552 127.081 110.128V109.084H126.193V117.004H127.117V114.22C127.477 114.652 128.101 115.084 128.965 115.084ZM128.713 114.4C127.861 114.4 127.429 113.872 127.117 113.428V110.932C127.537 110.104 128.089 109.744 128.773 109.744C129.793 109.744 130.249 110.476 130.249 112.06C130.249 113.764 129.649 114.4 128.713 114.4ZM133.54 115V106.996H132.604V115H133.54ZM136.773 115.072C137.877 115.072 138.573 114.652 139.041 114.004C139.029 114.304 139.077 114.796 139.149 115H140.037C139.941 114.628 139.905 114.22 139.905 113.848V111.16C139.905 109.672 139.257 108.976 137.577 108.976C136.173 108.976 135.249 109.552 135.033 110.632L135.897 110.728C136.089 109.972 136.593 109.708 137.553 109.708C138.549 109.708 138.933 110.056 139.005 110.704C139.029 110.848 139.029 111.052 139.029 111.256C138.561 111.268 138.165 111.268 137.685 111.328C136.065 111.52 134.889 112.156 134.889 113.44C134.889 114.52 135.729 115.072 136.773 115.072ZM137.049 114.388C136.257 114.388 135.861 114.028 135.861 113.344C135.861 112.6 136.521 112.084 137.805 111.916C138.177 111.868 138.609 111.868 139.029 111.868V113.092C138.777 113.704 138.177 114.388 137.049 114.388ZM141.147 117.076C142.599 117.076 143.283 116.464 143.643 115.42L145.899 109.084H145.071L143.703 112.948L143.463 113.704L143.223 112.948L141.759 109.084H140.751L142.695 114.136C143.199 115.456 142.443 116.32 141.123 116.32L141.147 117.076ZM148.655 115.096C150.095 115.096 151.031 114.364 151.031 113.272C151.031 112.096 149.999 111.76 148.787 111.52C147.839 111.316 147.131 111.196 147.131 110.548C147.131 110.008 147.671 109.684 148.463 109.684C149.267 109.684 149.807 110.044 150.035 110.668L150.863 110.488C150.563 109.564 149.795 108.976 148.463 108.976C147.143 108.976 146.267 109.636 146.267 110.608C146.267 111.772 147.287 112.084 148.499 112.312C149.375 112.504 150.167 112.648 150.167 113.356C150.167 113.98 149.591 114.4 148.655 114.4C147.635 114.4 146.975 113.932 146.783 113.236L145.943 113.404C146.231 114.484 147.155 115.096 148.655 115.096ZM155.992 115V110.956C156.484 110.248 157.072 109.756 157.9 109.756C158.5 109.756 158.86 110.092 158.86 110.812V115H159.796V110.74C159.796 109.768 159.364 108.976 158.164 108.976C157.06 108.976 156.34 109.636 155.956 110.248V106.996H155.056V115H155.992ZM163.84 115.096C165.016 115.096 165.928 114.484 166.336 113.344L165.52 113.224C165.184 114.1 164.572 114.388 163.924 114.388C162.772 114.388 162.1 113.632 162.076 112.144H166.444C166.432 112.012 166.444 111.88 166.432 111.748C166.312 110.104 165.412 108.976 163.864 108.976C162.34 108.976 161.128 110.14 161.128 112.144C161.128 113.908 162.22 115.096 163.84 115.096ZM162.112 111.508C162.184 110.392 162.916 109.684 163.864 109.684C164.812 109.684 165.4 110.368 165.496 111.508H162.112ZM168.672 115V111.136C169.164 110.308 169.86 109.828 170.556 109.828C170.628 109.828 170.748 109.828 170.82 109.84V108.988C170.724 108.976 170.652 108.976 170.544 108.976C169.704 108.976 169.008 109.66 168.624 110.356V109.084H167.736V115H168.672ZM173.906 115.096C175.082 115.096 175.994 114.484 176.402 113.344L175.586 113.224C175.25 114.1 174.638 114.388 173.99 114.388C172.838 114.388 172.166 113.632 172.142 112.144H176.51C176.498 112.012 176.51 111.88 176.498 111.748C176.378 110.104 175.478 108.976 173.93 108.976C172.406 108.976 171.194 110.14 171.194 112.144C171.194 113.908 172.286 115.096 173.906 115.096ZM172.178 111.508C172.25 110.392 172.982 109.684 173.93 109.684C174.878 109.684 175.466 110.368 175.562 111.508H172.178Z" fill="#666666"/>
<path d="M59.168 134V133.172H54.992V130.244H58.028V129.428H54.992V126.86H59.06V125.996H53.996V134H59.168ZM61.1758 134V130.136C61.6678 129.308 62.3638 128.828 63.0598 128.828C63.1318 128.828 63.2518 128.828 63.3238 128.84V127.988C63.2278 127.976 63.1558 127.976 63.0478 127.976C62.2078 127.976 61.5118 128.66 61.1278 129.356V128.084H60.2398V134H61.1758ZM65.1954 134V130.136C65.6874 129.308 66.3834 128.828 67.0794 128.828C67.1514 128.828 67.2714 128.828 67.3434 128.84V127.988C67.2474 127.976 67.1754 127.976 67.0674 127.976C66.2274 127.976 65.5314 128.66 65.1474 129.356V128.084H64.2594V134H65.1954ZM70.4749 134.096C71.9389 134.096 73.1509 132.884 73.1509 131.024C73.1509 129.2 72.0949 127.976 70.4749 127.976C69.0229 127.976 67.8229 129.164 67.8229 131.012C67.8229 132.884 68.9509 134.096 70.4749 134.096ZM70.4629 133.4C69.4669 133.4 68.8069 132.512 68.8069 131.024C68.8069 129.5 69.5269 128.708 70.4629 128.708C71.4469 128.708 72.1669 129.476 72.1669 131.012C72.1669 132.608 71.4349 133.4 70.4629 133.4ZM75.4258 134V130.136C75.9178 129.308 76.6138 128.828 77.3098 128.828C77.3818 128.828 77.5018 128.828 77.5738 128.84V127.988C77.4778 127.976 77.4058 127.976 77.2978 127.976C76.4578 127.976 75.7618 128.66 75.3778 129.356V128.084H74.4898V134H75.4258ZM83.783 134V126.848H86.075V125.996H80.495V126.848H82.787V134H83.783ZM88.2891 134.096C89.4651 134.096 90.3771 133.484 90.7851 132.344L89.9691 132.224C89.6331 133.1 89.0211 133.388 88.3731 133.388C87.2211 133.388 86.5491 132.632 86.5251 131.144H90.8931C90.8811 131.012 90.8931 130.88 90.8811 130.748C90.7611 129.104 89.8611 127.976 88.3131 127.976C86.7891 127.976 85.5771 129.14 85.5771 131.144C85.5771 132.908 86.6691 134.096 88.2891 134.096ZM86.5611 130.508C86.6331 129.392 87.3651 128.684 88.3131 128.684C89.2611 128.684 89.8491 129.368 89.9451 130.508H86.5611ZM92.236 134L93.736 131.792L93.856 131.576L93.988 131.792L95.536 134H96.568L94.372 130.808L96.208 128.084H95.308L94.072 129.896L93.916 130.136L93.76 129.896L92.524 128.084H91.468L93.4 130.904L91.324 134H92.236ZM99.1146 134.084C99.4386 134.084 99.7986 134.048 100.123 133.988V133.256C99.9066 133.292 99.5586 133.328 99.2826 133.328C98.7786 133.316 98.4546 133.04 98.4546 132.416V128.828H99.7866V128.084H98.4546V126.536H97.6026L97.5546 128.084H96.5826V128.828H97.5426V132.368C97.5426 133.592 98.1186 134.084 99.1146 134.084ZM104.012 134H106.832C108.92 134 110.276 132.26 110.276 129.98C110.276 128.684 109.88 127.532 109.088 126.824C108.488 126.272 107.66 125.996 106.7 125.996H104.012V134ZM105.008 126.848H106.64C108.212 126.848 109.268 128.06 109.268 130.004C109.268 132.008 108.176 133.184 106.64 133.184H105.008V126.848ZM112.681 127.04V125.984H111.661V127.04H112.681ZM112.645 134V128.084H111.709V134H112.645ZM116.335 134.096C117.775 134.096 118.711 133.364 118.711 132.272C118.711 131.096 117.679 130.76 116.467 130.52C115.519 130.316 114.811 130.196 114.811 129.548C114.811 129.008 115.351 128.684 116.143 128.684C116.947 128.684 117.487 129.044 117.715 129.668L118.543 129.488C118.243 128.564 117.475 127.976 116.143 127.976C114.823 127.976 113.947 128.636 113.947 129.608C113.947 130.772 114.967 131.084 116.179 131.312C117.055 131.504 117.847 131.648 117.847 132.356C117.847 132.98 117.271 133.4 116.335 133.4C115.315 133.4 114.655 132.932 114.463 132.236L113.623 132.404C113.911 133.484 114.835 134.096 116.335 134.096ZM122.742 134.084C123.93 134.084 124.998 133.04 124.998 131.036C124.998 128.9 124.086 127.976 122.766 127.976C121.818 127.976 121.218 128.552 120.858 129.128V128.084H119.97V136.004H120.894V133.22C121.254 133.652 121.878 134.084 122.742 134.084ZM122.49 133.4C121.638 133.4 121.206 132.872 120.894 132.428V129.932C121.314 129.104 121.866 128.744 122.55 128.744C123.57 128.744 124.026 129.476 124.026 131.06C124.026 132.764 123.426 133.4 122.49 133.4ZM127.317 134V125.996H126.381V134H127.317ZM130.55 134.072C131.654 134.072 132.35 133.652 132.818 133.004C132.806 133.304 132.854 133.796 132.926 134H133.814C133.718 133.628 133.682 133.22 133.682 132.848V130.16C133.682 128.672 133.034 127.976 131.354 127.976C129.95 127.976 129.026 128.552 128.81 129.632L129.674 129.728C129.866 128.972 130.37 128.708 131.33 128.708C132.326 128.708 132.71 129.056 132.782 129.704C132.806 129.848 132.806 130.052 132.806 130.256C132.338 130.268 131.942 130.268 131.462 130.328C129.842 130.52 128.666 131.156 128.666 132.44C128.666 133.52 129.506 134.072 130.55 134.072ZM130.826 133.388C130.034 133.388 129.638 133.028 129.638 132.344C129.638 131.6 130.298 131.084 131.582 130.916C131.954 130.868 132.386 130.868 132.806 130.868V132.092C132.554 132.704 131.954 133.388 130.826 133.388ZM134.924 136.076C136.376 136.076 137.06 135.464 137.42 134.42L139.676 128.084H138.848L137.48 131.948L137.24 132.704L137 131.948L135.536 128.084H134.528L136.472 133.136C136.976 134.456 136.22 135.32 134.9 135.32L134.924 136.076ZM142.432 134.096C143.872 134.096 144.808 133.364 144.808 132.272C144.808 131.096 143.776 130.76 142.564 130.52C141.616 130.316 140.908 130.196 140.908 129.548C140.908 129.008 141.448 128.684 142.24 128.684C143.044 128.684 143.584 129.044 143.812 129.668L144.64 129.488C144.34 128.564 143.572 127.976 142.24 127.976C140.92 127.976 140.044 128.636 140.044 129.608C140.044 130.772 141.064 131.084 142.276 131.312C143.152 131.504 143.944 131.648 143.944 132.356C143.944 132.98 143.368 133.4 142.432 133.4C141.412 133.4 140.752 132.932 140.56 132.236L139.72 132.404C140.008 133.484 140.932 134.096 142.432 134.096ZM149.77 134V129.956C150.262 129.248 150.85 128.756 151.678 128.756C152.278 128.756 152.638 129.092 152.638 129.812V134H153.574V129.74C153.574 128.768 153.142 127.976 151.942 127.976C150.838 127.976 150.118 128.636 149.734 129.248V125.996H148.834V134H149.77ZM157.617 134.096C158.793 134.096 159.705 133.484 160.113 132.344L159.297 132.224C158.961 133.1 158.349 133.388 157.701 133.388C156.549 133.388 155.877 132.632 155.853 131.144H160.221C160.209 131.012 160.221 130.88 160.209 130.748C160.089 129.104 159.189 127.976 157.641 127.976C156.117 127.976 154.905 129.14 154.905 131.144C154.905 132.908 155.997 134.096 157.617 134.096ZM155.889 130.508C155.961 129.392 156.693 128.684 157.641 128.684C158.589 128.684 159.177 129.368 159.273 130.508H155.889ZM162.449 134V130.136C162.941 129.308 163.637 128.828 164.333 128.828C164.405 128.828 164.525 128.828 164.597 128.84V127.988C164.501 127.976 164.429 127.976 164.321 127.976C163.481 127.976 162.785 128.66 162.401 129.356V128.084H161.513V134H162.449ZM167.684 134.096C168.86 134.096 169.772 133.484 170.18 132.344L169.364 132.224C169.028 133.1 168.416 133.388 167.768 133.388C166.616 133.388 165.944 132.632 165.92 131.144H170.288C170.276 131.012 170.288 130.88 170.276 130.748C170.156 129.104 169.256 127.976 167.708 127.976C166.184 127.976 164.972 129.14 164.972 131.144C164.972 132.908 166.064 134.096 167.684 134.096ZM165.956 130.508C166.028 129.392 166.76 128.684 167.708 128.684C168.656 128.684 169.244 129.368 169.34 130.508H165.956Z" fill="#EA0017"/>
<rect x="192" width="29" height="28" rx="14" fill="#94538C"/>
<path d="M209.316 20.5V18.016H211.08V15.874H209.316V8.296H206.778L201.378 15.928V18.016H206.652V20.5H209.316ZM206.67 11.482V15.874H203.538L206.67 11.482Z" fill="white"/>
<line x1="207" y1="28" x2="207" y2="52" stroke="#94538C"/>
<rect x="69" y="11" width="29" height="28" rx="14" fill="#94538C"/>
<path d="M87.374 31.5V29.304H84.836V19.296H82.73C81.992 20.214 80.894 21.204 79.688 21.6V23.904C80.696 23.49 81.542 22.968 82.064 22.59V29.304H79.418V31.5H87.374Z" fill="white"/>
<line x1="84" y1="39" x2="84" y2="63" stroke="#94538C"/>
<rect x="8" y="168" width="29" height="28" rx="14" fill="#94538C"/>
<path d="M26.374 188.5V186.304H23.836V176.296H21.73C20.992 177.214 19.894 178.204 18.688 178.6V180.904C19.696 180.49 20.542 179.968 21.064 179.59V186.304H18.418V188.5H26.374Z" fill="white"/>
<line x1="37" y1="181.5" x2="61" y2="181.5" stroke="#94538C"/>
<line x1="180" y1="131.5" x2="204" y2="131.5" stroke="#94538C"/>
<rect x="204" y="118" width="29" height="28" rx="14" fill="#94538C"/>
<path d="M222.684 138.5V136.286H217.122C220.488 133.982 222.558 132.47 222.558 130.058C222.558 127.736 220.884 126.278 218.364 126.278C215.952 126.278 214.062 127.502 213.612 130.31L216.096 130.76C216.258 129.266 216.96 128.528 218.058 128.528C219.12 128.528 219.696 129.212 219.696 130.166C219.696 131.894 218.4 133.01 213.63 136.592V138.5H222.684Z" fill="white"/>
<rect y="95" width="29" height="28" rx="14" fill="#94538C"/>
<path d="M14.364 115.716C17.424 115.716 19.134 114.276 19.134 112.098C19.134 110.604 18.306 109.596 16.776 109.218C18.018 108.858 18.738 107.868 18.738 106.482C18.738 104.7 17.118 103.278 14.454 103.278C12.186 103.278 10.278 104.286 9.702 106.482L11.988 106.95C12.24 105.924 13.068 105.42 14.184 105.42C15.39 105.42 15.984 105.978 15.984 106.842C15.984 107.76 15.318 108.282 14.004 108.282H12.726V110.37H14.04C15.444 110.37 16.29 110.856 16.29 111.99C16.29 112.926 15.642 113.574 14.202 113.574C12.942 113.574 12.132 113.016 11.88 111.792L9.342 112.314C9.738 114.546 11.646 115.716 14.364 115.716Z" fill="white"/>
<line x1="29" y1="108.5" x2="53" y2="108.5" stroke="#94538C"/>
</svg>
