<svg width="502" height="213" viewBox="0 0 502 213" fill="none" xmlns="http://www.w3.org/2000/svg">
<rect x="1.5" y="144.5" width="499" height="31" rx="1.5" fill="white"/>
<path d="M13.592 166.176C16.024 166.176 17.464 164.992 17.464 163.104C17.464 161.312 16.248 160.56 14.008 159.968C11.816 159.392 11.032 158.992 11.032 157.808C11.032 156.896 11.912 156.224 13.256 156.224C14.6 156.224 15.624 156.928 15.944 158.128L17.176 157.744C16.664 156.08 15.272 155.12 13.272 155.12C11.208 155.12 9.704 156.224 9.704 157.952C9.704 159.84 11.192 160.544 13.16 161.04C14.92 161.504 16.152 161.888 16.152 163.216C16.152 164.432 15.176 165.088 13.608 165.088C11.736 165.088 10.824 164.32 10.328 163.024L9.192 163.472C9.896 165.248 11.272 166.176 13.592 166.176ZM22.3802 166.128C23.9483 166.128 25.1643 165.312 25.7083 163.792L24.6203 163.632C24.1723 164.8 23.3563 165.184 22.4923 165.184C20.9563 165.184 20.0603 164.176 20.0283 162.192H25.8523C25.8363 162.016 25.8523 161.84 25.8363 161.664C25.6763 159.472 24.4763 157.968 22.4123 157.968C20.3803 157.968 18.7643 159.52 18.7643 162.192C18.7643 164.544 20.2203 166.128 22.3802 166.128ZM20.0763 161.344C20.1723 159.856 21.1483 158.912 22.4123 158.912C23.6763 158.912 24.4603 159.824 24.5883 161.344H20.0763ZM28.855 166V155.328H27.607V166H28.855ZM34.3021 166.128C35.8701 166.128 37.0861 165.312 37.6301 163.792L36.5421 163.632C36.0941 164.8 35.2781 165.184 34.4141 165.184C32.8781 165.184 31.9821 164.176 31.9501 162.192H37.7741C37.7581 162.016 37.7741 161.84 37.7581 161.664C37.5981 159.472 36.3981 157.968 34.3341 157.968C32.3021 157.968 30.6861 159.52 30.6861 162.192C30.6861 164.544 32.1421 166.128 34.3021 166.128ZM31.9981 161.344C32.0941 159.856 33.0701 158.912 34.3341 158.912C35.5981 158.912 36.3821 159.824 36.5101 161.344H31.9981ZM42.2809 166.128C43.8489 166.128 45.0169 165.216 45.2889 163.44L44.2009 163.328C43.9609 164.64 43.3529 165.2 42.3129 165.2C41.1289 165.2 40.2009 164.224 40.2009 162.048C40.2009 160.08 40.9689 158.96 42.2329 158.96C43.3209 158.96 43.9449 159.664 44.1369 160.96L45.3049 160.816C44.9529 158.88 43.8969 157.968 42.2169 157.968C40.2169 157.968 38.8889 159.728 38.8889 162.016C38.8889 164.656 40.3449 166.128 42.2809 166.128ZM49.158 166.112C49.59 166.112 50.07 166.064 50.502 165.984V165.008C50.214 165.056 49.75 165.104 49.382 165.104C48.71 165.088 48.278 164.72 48.278 163.888V159.104H50.054V158.112H48.278V156.048H47.142L47.078 158.112H45.782V159.104H47.062V163.824C47.062 165.456 47.83 166.112 49.158 166.112ZM54.8959 166.128C56.4639 166.128 57.6799 165.312 58.2239 163.792L57.1359 163.632C56.6879 164.8 55.8719 165.184 55.0079 165.184C53.4719 165.184 52.5759 164.176 52.5439 162.192H58.3679C58.3519 162.016 58.3679 161.84 58.3519 161.664C58.1919 159.472 56.9919 157.968 54.9279 157.968C52.8959 157.968 51.2799 159.52 51.2799 162.192C51.2799 164.544 52.7359 166.128 54.8959 166.128ZM52.5919 161.344C52.6879 159.856 53.6639 158.912 54.9279 158.912C56.1919 158.912 56.9759 159.824 57.1039 161.344H52.5919ZM62.5066 166.128C63.6586 166.128 64.4586 165.664 65.0826 164.8V166H66.2506V155.328H65.0506V159.184C64.6826 158.656 63.9306 157.968 62.7306 157.968C60.7146 157.968 59.4986 159.744 59.4986 162.08C59.4986 164.656 60.6026 166.128 62.5066 166.128ZM62.8426 165.184C61.5306 165.184 60.7946 164.272 60.7946 162.08C60.7946 160.064 61.4986 158.944 62.9226 158.944C64.0906 158.944 64.6346 159.616 65.0346 160.368V163.584C64.6986 164.464 64.0266 165.184 62.8426 165.184ZM75.7159 166V156.464H78.7719V155.328H71.3319V156.464H74.3879V166H75.7159ZM81.724 166.128C83.292 166.128 84.508 165.312 85.052 163.792L83.964 163.632C83.516 164.8 82.7 165.184 81.836 165.184C80.3 165.184 79.404 164.176 79.372 162.192H85.196C85.18 162.016 85.196 161.84 85.18 161.664C85.02 159.472 83.82 157.968 81.756 157.968C79.724 157.968 78.108 159.52 78.108 162.192C78.108 164.544 79.564 166.128 81.724 166.128ZM79.42 161.344C79.516 159.856 80.492 158.912 81.756 158.912C83.02 158.912 83.804 159.824 83.932 161.344H79.42ZM86.9865 166L88.9865 163.056L89.1465 162.768L89.3225 163.056L91.3865 166H92.7625L89.8345 161.744L92.2825 158.112H91.0825L89.4345 160.528L89.2265 160.848L89.0185 160.528L87.3705 158.112H85.9625L88.5385 161.872L85.7705 166H86.9865ZM96.158 166.112C96.59 166.112 97.07 166.064 97.502 165.984V165.008C97.214 165.056 96.75 165.104 96.382 165.104C95.71 165.088 95.278 164.72 95.278 163.888V159.104H97.054V158.112H95.278V156.048H94.142L94.078 158.112H92.782V159.104H94.062V163.824C94.062 165.456 94.83 166.112 96.158 166.112Z" fill="#111111"/>
<rect x="1.5" y="144.5" width="499" height="31" rx="1.5" stroke="#EA0017"/>
<path d="M2.992 191V187.196H6.712V191H7.708V182.996H6.712V186.308H2.992V182.996H1.996V191H2.992ZM11.8672 191.096C13.0432 191.096 13.9552 190.484 14.3632 189.344L13.5472 189.224C13.2112 190.1 12.5992 190.388 11.9512 190.388C10.7992 190.388 10.1272 189.632 10.1032 188.144H14.4712C14.4592 188.012 14.4712 187.88 14.4592 187.748C14.3392 186.104 13.4392 184.976 11.8912 184.976C10.3672 184.976 9.15522 186.14 9.15522 188.144C9.15522 189.908 10.2472 191.096 11.8672 191.096ZM10.1392 187.508C10.2112 186.392 10.9432 185.684 11.8912 185.684C12.8392 185.684 13.4272 186.368 13.5232 187.508H10.1392ZM16.7233 191V182.996H15.7873V191H16.7233ZM21.3126 191.084C22.5006 191.084 23.5686 190.04 23.5686 188.036C23.5686 185.9 22.6566 184.976 21.3366 184.976C20.3886 184.976 19.7886 185.552 19.4286 186.128V185.084H18.5406V193.004H19.4646V190.22C19.8246 190.652 20.4486 191.084 21.3126 191.084ZM21.0606 190.4C20.2086 190.4 19.7766 189.872 19.4646 189.428V186.932C19.8846 186.104 20.4366 185.744 21.1206 185.744C22.1406 185.744 22.5966 186.476 22.5966 188.06C22.5966 189.764 21.9966 190.4 21.0606 190.4ZM27.1953 191.096C28.3713 191.096 29.2833 190.484 29.6913 189.344L28.8753 189.224C28.5393 190.1 27.9273 190.388 27.2793 190.388C26.1273 190.388 25.4553 189.632 25.4313 188.144H29.7993C29.7873 188.012 29.7993 187.88 29.7873 187.748C29.6673 186.104 28.7673 184.976 27.2193 184.976C25.6953 184.976 24.4833 186.14 24.4833 188.144C24.4833 189.908 25.5753 191.096 27.1953 191.096ZM25.4673 187.508C25.5393 186.392 26.2713 185.684 27.2193 185.684C28.1673 185.684 28.7553 186.368 28.8513 187.508H25.4673ZM32.0274 191V187.136C32.5194 186.308 33.2154 185.828 33.9114 185.828C33.9834 185.828 34.1034 185.828 34.1754 185.84V184.988C34.0794 184.976 34.0074 184.976 33.8994 184.976C33.0594 184.976 32.3634 185.66 31.9794 186.356V185.084H31.0914V191H32.0274ZM39.5326 191.084C39.8566 191.084 40.2166 191.048 40.5406 190.988V190.256C40.3246 190.292 39.9766 190.328 39.7006 190.328C39.1966 190.316 38.8726 190.04 38.8726 189.416V185.828H40.2046V185.084H38.8726V183.536H38.0206L37.9726 185.084H37.0006V185.828H37.9606V189.368C37.9606 190.592 38.5366 191.084 39.5326 191.084ZM43.836 191.096C45.012 191.096 45.924 190.484 46.332 189.344L45.516 189.224C45.18 190.1 44.568 190.388 43.92 190.388C42.768 190.388 42.096 189.632 42.072 188.144H46.44C46.428 188.012 46.44 187.88 46.428 187.748C46.308 186.104 45.408 184.976 43.86 184.976C42.336 184.976 41.124 186.14 41.124 188.144C41.124 189.908 42.216 191.096 43.836 191.096ZM42.108 187.508C42.18 186.392 42.912 185.684 43.86 185.684C44.808 185.684 45.396 186.368 45.492 187.508H42.108ZM47.7828 191L49.2828 188.792L49.4028 188.576L49.5348 188.792L51.0828 191H52.1148L49.9188 187.808L51.7548 185.084H50.8548L49.6188 186.896L49.4628 187.136L49.3068 186.896L48.0708 185.084H47.0148L48.9468 187.904L46.8708 191H47.7828ZM54.6615 191.084C54.9855 191.084 55.3455 191.048 55.6695 190.988V190.256C55.4535 190.292 55.1055 190.328 54.8295 190.328C54.3255 190.316 54.0015 190.04 54.0015 189.416V185.828H55.3335V185.084H54.0015V183.536H53.1495L53.1015 185.084H52.1295V185.828H53.0895V189.368C53.0895 190.592 53.6655 191.084 54.6615 191.084ZM61.2745 191.096C62.1385 191.096 62.7385 190.748 63.2065 190.1V191H64.0825V182.996H63.1825V185.888C62.9065 185.492 62.3425 184.976 61.4425 184.976C59.9305 184.976 59.0185 186.308 59.0185 188.06C59.0185 189.992 59.8465 191.096 61.2745 191.096ZM61.5265 190.388C60.5425 190.388 59.9905 189.704 59.9905 188.06C59.9905 186.548 60.5185 185.708 61.5865 185.708C62.4625 185.708 62.8705 186.212 63.1705 186.776V189.188C62.9185 189.848 62.4145 190.388 61.5265 190.388ZM66.9038 184.04V182.984H65.8838V184.04H66.9038ZM66.8678 191V185.084H65.9318V191H66.8678ZM70.5572 191.096C71.9972 191.096 72.9332 190.364 72.9332 189.272C72.9332 188.096 71.9012 187.76 70.6892 187.52C69.7412 187.316 69.0332 187.196 69.0332 186.548C69.0332 186.008 69.5732 185.684 70.3652 185.684C71.1692 185.684 71.7092 186.044 71.9372 186.668L72.7652 186.488C72.4652 185.564 71.6972 184.976 70.3652 184.976C69.0452 184.976 68.1692 185.636 68.1692 186.608C68.1692 187.772 69.1892 188.084 70.4012 188.312C71.2772 188.504 72.0692 188.648 72.0692 189.356C72.0692 189.98 71.4932 190.4 70.5572 190.4C69.5372 190.4 68.8772 189.932 68.6852 189.236L67.8452 189.404C68.1332 190.484 69.0572 191.096 70.5572 191.096ZM76.965 191.084C78.153 191.084 79.221 190.04 79.221 188.036C79.221 185.9 78.309 184.976 76.989 184.976C76.041 184.976 75.441 185.552 75.081 186.128V185.084H74.193V193.004H75.117V190.22C75.477 190.652 76.101 191.084 76.965 191.084ZM76.713 190.4C75.861 190.4 75.429 189.872 75.117 189.428V186.932C75.537 186.104 76.089 185.744 76.773 185.744C77.793 185.744 78.249 186.476 78.249 188.06C78.249 189.764 77.649 190.4 76.713 190.4ZM81.5397 191V182.996H80.6037V191H81.5397ZM84.773 191.072C85.877 191.072 86.573 190.652 87.041 190.004C87.029 190.304 87.077 190.796 87.149 191H88.037C87.941 190.628 87.905 190.22 87.905 189.848V187.16C87.905 185.672 87.257 184.976 85.577 184.976C84.173 184.976 83.249 185.552 83.033 186.632L83.897 186.728C84.089 185.972 84.593 185.708 85.553 185.708C86.549 185.708 86.933 186.056 87.005 186.704C87.029 186.848 87.029 187.052 87.029 187.256C86.561 187.268 86.165 187.268 85.685 187.328C84.065 187.52 82.889 188.156 82.889 189.44C82.889 190.52 83.729 191.072 84.773 191.072ZM85.049 190.388C84.257 190.388 83.861 190.028 83.861 189.344C83.861 188.6 84.521 188.084 85.805 187.916C86.177 187.868 86.609 187.868 87.029 187.868V189.092C86.777 189.704 86.177 190.388 85.049 190.388ZM89.1466 193.076C90.5986 193.076 91.2826 192.464 91.6426 191.42L93.8986 185.084H93.0706L91.7026 188.948L91.4626 189.704L91.2226 188.948L89.7586 185.084H88.7506L90.6946 190.136C91.1986 191.456 90.4426 192.32 89.1226 192.32L89.1466 193.076ZM96.6548 191.096C98.0948 191.096 99.0308 190.364 99.0308 189.272C99.0308 188.096 97.9988 187.76 96.7868 187.52C95.8388 187.316 95.1308 187.196 95.1308 186.548C95.1308 186.008 95.6708 185.684 96.4628 185.684C97.2668 185.684 97.8068 186.044 98.0348 186.668L98.8628 186.488C98.5628 185.564 97.7948 184.976 96.4628 184.976C95.1428 184.976 94.2668 185.636 94.2668 186.608C94.2668 187.772 95.2868 188.084 96.4988 188.312C97.3748 188.504 98.1668 188.648 98.1668 189.356C98.1668 189.98 97.5908 190.4 96.6548 190.4C95.6348 190.4 94.9748 189.932 94.7828 189.236L93.9428 189.404C94.2308 190.484 95.1548 191.096 96.6548 191.096ZM103.992 191V186.956C104.484 186.248 105.072 185.756 105.9 185.756C106.5 185.756 106.86 186.092 106.86 186.812V191H107.796V186.74C107.796 185.768 107.364 184.976 106.164 184.976C105.06 184.976 104.34 185.636 103.956 186.248V182.996H103.056V191H103.992ZM111.84 191.096C113.016 191.096 113.928 190.484 114.336 189.344L113.52 189.224C113.184 190.1 112.572 190.388 111.924 190.388C110.772 190.388 110.1 189.632 110.076 188.144H114.444C114.432 188.012 114.444 187.88 114.432 187.748C114.312 186.104 113.412 184.976 111.864 184.976C110.34 184.976 109.128 186.14 109.128 188.144C109.128 189.908 110.22 191.096 111.84 191.096ZM110.112 187.508C110.184 186.392 110.916 185.684 111.864 185.684C112.812 185.684 113.4 186.368 113.496 187.508H110.112ZM116.672 191V187.136C117.164 186.308 117.86 185.828 118.556 185.828C118.628 185.828 118.748 185.828 118.82 185.84V184.988C118.724 184.976 118.652 184.976 118.544 184.976C117.704 184.976 117.008 185.66 116.624 186.356V185.084H115.736V191H116.672ZM121.906 191.096C123.082 191.096 123.994 190.484 124.402 189.344L123.586 189.224C123.25 190.1 122.638 190.388 121.99 190.388C120.838 190.388 120.166 189.632 120.142 188.144H124.51C124.498 188.012 124.51 187.88 124.498 187.748C124.378 186.104 123.478 184.976 121.93 184.976C120.406 184.976 119.194 186.14 119.194 188.144C119.194 189.908 120.286 191.096 121.906 191.096ZM120.178 187.508C120.25 186.392 120.982 185.684 121.93 185.684C122.878 185.684 123.466 186.368 123.562 187.508H120.178Z" fill="#666666"/>
<path d="M7.168 210V209.172H2.992V206.244H6.028V205.428H2.992V202.86H7.06V201.996H1.996V210H7.168ZM9.17584 210V206.136C9.66784 205.308 10.3638 204.828 11.0598 204.828C11.1318 204.828 11.2518 204.828 11.3238 204.84V203.988C11.2278 203.976 11.1558 203.976 11.0478 203.976C10.2078 203.976 9.51184 204.66 9.12784 205.356V204.084H8.23984V210H9.17584ZM13.1954 210V206.136C13.6874 205.308 14.3834 204.828 15.0794 204.828C15.1514 204.828 15.2714 204.828 15.3434 204.84V203.988C15.2474 203.976 15.1754 203.976 15.0674 203.976C14.2274 203.976 13.5314 204.66 13.1474 205.356V204.084H12.2594V210H13.1954ZM18.4749 210.096C19.9389 210.096 21.1509 208.884 21.1509 207.024C21.1509 205.2 20.0949 203.976 18.4749 203.976C17.0229 203.976 15.8229 205.164 15.8229 207.012C15.8229 208.884 16.9509 210.096 18.4749 210.096ZM18.4629 209.4C17.4669 209.4 16.8069 208.512 16.8069 207.024C16.8069 205.5 17.5269 204.708 18.4629 204.708C19.4469 204.708 20.1669 205.476 20.1669 207.012C20.1669 208.608 19.4349 209.4 18.4629 209.4ZM23.4258 210V206.136C23.9178 205.308 24.6138 204.828 25.3098 204.828C25.3818 204.828 25.5018 204.828 25.5738 204.84V203.988C25.4778 203.976 25.4058 203.976 25.2978 203.976C24.4578 203.976 23.7618 204.66 23.3778 205.356V204.084H22.4898V210H23.4258ZM31.783 210V202.848H34.075V201.996H28.495V202.848H30.787V210H31.783ZM36.2891 210.096C37.4651 210.096 38.3771 209.484 38.7851 208.344L37.9691 208.224C37.6331 209.1 37.0211 209.388 36.3731 209.388C35.2211 209.388 34.5491 208.632 34.5251 207.144H38.8931C38.8811 207.012 38.8931 206.88 38.8811 206.748C38.7611 205.104 37.8611 203.976 36.3131 203.976C34.7891 203.976 33.5771 205.14 33.5771 207.144C33.5771 208.908 34.6691 210.096 36.2891 210.096ZM34.5611 206.508C34.6331 205.392 35.3651 204.684 36.3131 204.684C37.2611 204.684 37.8491 205.368 37.9451 206.508H34.5611ZM40.236 210L41.736 207.792L41.856 207.576L41.988 207.792L43.536 210H44.568L42.372 206.808L44.208 204.084H43.308L42.072 205.896L41.916 206.136L41.76 205.896L40.524 204.084H39.468L41.4 206.904L39.324 210H40.236ZM47.1146 210.084C47.4386 210.084 47.7986 210.048 48.1226 209.988V209.256C47.9066 209.292 47.5586 209.328 47.2826 209.328C46.7786 209.316 46.4546 209.04 46.4546 208.416V204.828H47.7866V204.084H46.4546V202.536H45.6026L45.5546 204.084H44.5826V204.828H45.5426V208.368C45.5426 209.592 46.1186 210.084 47.1146 210.084ZM52.0116 210H54.8316C56.9196 210 58.2756 208.26 58.2756 205.98C58.2756 204.684 57.8796 203.532 57.0876 202.824C56.4876 202.272 55.6596 201.996 54.6996 201.996H52.0116V210ZM53.0076 202.848H54.6396C56.2116 202.848 57.2676 204.06 57.2676 206.004C57.2676 208.008 56.1756 209.184 54.6396 209.184H53.0076V202.848ZM60.6812 203.04V201.984H59.6612V203.04H60.6812ZM60.6452 210V204.084H59.7092V210H60.6452ZM64.3345 210.096C65.7745 210.096 66.7105 209.364 66.7105 208.272C66.7105 207.096 65.6785 206.76 64.4665 206.52C63.5185 206.316 62.8105 206.196 62.8105 205.548C62.8105 205.008 63.3505 204.684 64.1425 204.684C64.9465 204.684 65.4865 205.044 65.7145 205.668L66.5425 205.488C66.2425 204.564 65.4745 203.976 64.1425 203.976C62.8225 203.976 61.9465 204.636 61.9465 205.608C61.9465 206.772 62.9665 207.084 64.1785 207.312C65.0545 207.504 65.8465 207.648 65.8465 208.356C65.8465 208.98 65.2705 209.4 64.3345 209.4C63.3145 209.4 62.6545 208.932 62.4625 208.236L61.6225 208.404C61.9105 209.484 62.8345 210.096 64.3345 210.096ZM70.7423 210.084C71.9303 210.084 72.9983 209.04 72.9983 207.036C72.9983 204.9 72.0863 203.976 70.7663 203.976C69.8183 203.976 69.2183 204.552 68.8583 205.128V204.084H67.9703V212.004H68.8943V209.22C69.2543 209.652 69.8783 210.084 70.7423 210.084ZM70.4903 209.4C69.6383 209.4 69.2063 208.872 68.8943 208.428V205.932C69.3143 205.104 69.8663 204.744 70.5503 204.744C71.5703 204.744 72.0263 205.476 72.0263 207.06C72.0263 208.764 71.4263 209.4 70.4903 209.4ZM75.317 210V201.996H74.381V210H75.317ZM78.5504 210.072C79.6544 210.072 80.3504 209.652 80.8184 209.004C80.8064 209.304 80.8544 209.796 80.9264 210H81.8144C81.7184 209.628 81.6824 209.22 81.6824 208.848V206.16C81.6824 204.672 81.0344 203.976 79.3544 203.976C77.9504 203.976 77.0264 204.552 76.8104 205.632L77.6744 205.728C77.8664 204.972 78.3704 204.708 79.3304 204.708C80.3264 204.708 80.7104 205.056 80.7824 205.704C80.8064 205.848 80.8064 206.052 80.8064 206.256C80.3384 206.268 79.9424 206.268 79.4624 206.328C77.8424 206.52 76.6664 207.156 76.6664 208.44C76.6664 209.52 77.5064 210.072 78.5504 210.072ZM78.8264 209.388C78.0344 209.388 77.6384 209.028 77.6384 208.344C77.6384 207.6 78.2984 207.084 79.5824 206.916C79.9544 206.868 80.3864 206.868 80.8064 206.868V208.092C80.5544 208.704 79.9544 209.388 78.8264 209.388ZM82.9239 212.076C84.3759 212.076 85.0599 211.464 85.4199 210.42L87.6759 204.084H86.8479L85.4799 207.948L85.2399 208.704L84.9999 207.948L83.5359 204.084H82.5279L84.4719 209.136C84.9759 210.456 84.2199 211.32 82.8999 211.32L82.9239 212.076ZM90.4322 210.096C91.8722 210.096 92.8082 209.364 92.8082 208.272C92.8082 207.096 91.7762 206.76 90.5642 206.52C89.6162 206.316 88.9082 206.196 88.9082 205.548C88.9082 205.008 89.4482 204.684 90.2402 204.684C91.0442 204.684 91.5842 205.044 91.8122 205.668L92.6402 205.488C92.3402 204.564 91.5722 203.976 90.2402 203.976C88.9202 203.976 88.0442 204.636 88.0442 205.608C88.0442 206.772 89.0642 207.084 90.2762 207.312C91.1522 207.504 91.9442 207.648 91.9442 208.356C91.9442 208.98 91.3682 209.4 90.4322 209.4C89.4122 209.4 88.7522 208.932 88.5602 208.236L87.7202 208.404C88.0082 209.484 88.9322 210.096 90.4322 210.096ZM97.7696 210V205.956C98.2616 205.248 98.8496 204.756 99.6776 204.756C100.278 204.756 100.638 205.092 100.638 205.812V210H101.574V205.74C101.574 204.768 101.142 203.976 99.9416 203.976C98.8376 203.976 98.1176 204.636 97.7336 205.248V201.996H96.8336V210H97.7696ZM105.617 210.096C106.793 210.096 107.705 209.484 108.113 208.344L107.297 208.224C106.961 209.1 106.349 209.388 105.701 209.388C104.549 209.388 103.877 208.632 103.853 207.144H108.221C108.209 207.012 108.221 206.88 108.209 206.748C108.089 205.104 107.189 203.976 105.641 203.976C104.117 203.976 102.905 205.14 102.905 207.144C102.905 208.908 103.997 210.096 105.617 210.096ZM103.889 206.508C103.961 205.392 104.693 204.684 105.641 204.684C106.589 204.684 107.177 205.368 107.273 206.508H103.889ZM110.449 210V206.136C110.941 205.308 111.637 204.828 112.333 204.828C112.405 204.828 112.525 204.828 112.597 204.84V203.988C112.501 203.976 112.429 203.976 112.321 203.976C111.481 203.976 110.785 204.66 110.401 205.356V204.084H109.513V210H110.449ZM115.684 210.096C116.86 210.096 117.772 209.484 118.18 208.344L117.364 208.224C117.028 209.1 116.416 209.388 115.768 209.388C114.616 209.388 113.944 208.632 113.92 207.144H118.288C118.276 207.012 118.288 206.88 118.276 206.748C118.156 205.104 117.256 203.976 115.708 203.976C114.184 203.976 112.972 205.14 112.972 207.144C112.972 208.908 114.064 210.096 115.684 210.096ZM113.956 206.508C114.028 205.392 114.76 204.684 115.708 204.684C116.656 204.684 117.244 205.368 117.34 206.508H113.956Z" fill="#EA0017"/>
<rect x="1.5" y="4.5" width="499" height="47" rx="1.5" fill="white"/>
<path d="M14.7 22V21.136H10.992V13.996H9.996V22H14.7ZM17.1871 22.072C18.2911 22.072 18.9871 21.652 19.4551 21.004C19.4431 21.304 19.4911 21.796 19.5631 22H20.4511C20.3551 21.628 20.3191 21.22 20.3191 20.848V18.16C20.3191 16.672 19.6711 15.976 17.9911 15.976C16.5871 15.976 15.6631 16.552 15.4471 17.632L16.3111 17.728C16.5031 16.972 17.0071 16.708 17.9671 16.708C18.9631 16.708 19.3471 17.056 19.4191 17.704C19.4431 17.848 19.4431 18.052 19.4431 18.256C18.9751 18.268 18.5791 18.268 18.0991 18.328C16.4791 18.52 15.3031 19.156 15.3031 20.44C15.3031 21.52 16.1431 22.072 17.1871 22.072ZM17.4631 21.388C16.6711 21.388 16.2751 21.028 16.2751 20.344C16.2751 19.6 16.9351 19.084 18.2191 18.916C18.5911 18.868 19.0231 18.868 19.4431 18.868V20.092C19.1911 20.704 18.5911 21.388 17.4631 21.388ZM24.8232 22.084C26.1672 22.084 27.1392 21.064 27.1392 19.024C27.1392 17.044 26.3112 15.976 24.8952 15.976C24.0432 15.976 23.2872 16.564 22.9872 17.212V13.996H22.0992V22H22.6152L22.9152 21.016C23.2992 21.688 23.9352 22.084 24.8232 22.084ZM24.6432 21.412C23.6952 21.412 22.9992 20.704 22.9992 19.468V18.04C23.3232 17.356 23.8152 16.72 24.6792 16.72C25.6752 16.72 26.1792 17.5 26.1792 19.048C26.1792 20.704 25.6512 21.412 24.6432 21.412ZM30.7657 22.096C31.9417 22.096 32.8537 21.484 33.2617 20.344L32.4457 20.224C32.1097 21.1 31.4977 21.388 30.8497 21.388C29.6977 21.388 29.0257 20.632 29.0017 19.144H33.3697C33.3577 19.012 33.3697 18.88 33.3577 18.748C33.2377 17.104 32.3377 15.976 30.7897 15.976C29.2657 15.976 28.0537 17.14 28.0537 19.144C28.0537 20.908 29.1457 22.096 30.7657 22.096ZM29.0377 18.508C29.1097 17.392 29.8417 16.684 30.7897 16.684C31.7377 16.684 32.3257 17.368 32.4217 18.508H29.0377ZM35.6217 22V13.996H34.6857V22H35.6217ZM42.7127 22V14.848H45.0047V13.996H39.4247V14.848H41.7167V22H42.7127ZM47.2188 22.096C48.3948 22.096 49.3068 21.484 49.7148 20.344L48.8988 20.224C48.5628 21.1 47.9508 21.388 47.3028 21.388C46.1508 21.388 45.4788 20.632 45.4548 19.144H49.8228C49.8108 19.012 49.8228 18.88 49.8108 18.748C49.6908 17.104 48.7908 15.976 47.2428 15.976C45.7188 15.976 44.5068 17.14 44.5068 19.144C44.5068 20.908 45.5988 22.096 47.2188 22.096ZM45.4908 18.508C45.5628 17.392 46.2948 16.684 47.2428 16.684C48.1908 16.684 48.7788 17.368 48.8748 18.508H45.4908ZM51.1657 22L52.6657 19.792L52.7857 19.576L52.9177 19.792L54.4657 22H55.4977L53.3017 18.808L55.1377 16.084H54.2377L53.0017 17.896L52.8457 18.136L52.6897 17.896L51.4537 16.084H50.3977L52.3297 18.904L50.2537 22H51.1657ZM58.0443 22.084C58.3683 22.084 58.7283 22.048 59.0523 21.988V21.256C58.8363 21.292 58.4883 21.328 58.2123 21.328C57.7083 21.316 57.3843 21.04 57.3843 20.416V16.828H58.7163V16.084H57.3843V14.536H56.5323L56.4843 16.084H55.5123V16.828H56.4723V20.368C56.4723 21.592 57.0483 22.084 58.0443 22.084Z" fill="#EA0017"/>
<path d="M13.592 40.176C16.024 40.176 17.464 38.992 17.464 37.104C17.464 35.312 16.248 34.56 14.008 33.968C11.816 33.392 11.032 32.992 11.032 31.808C11.032 30.896 11.912 30.224 13.256 30.224C14.6 30.224 15.624 30.928 15.944 32.128L17.176 31.744C16.664 30.08 15.272 29.12 13.272 29.12C11.208 29.12 9.704 30.224 9.704 31.952C9.704 33.84 11.192 34.544 13.16 35.04C14.92 35.504 16.152 35.888 16.152 37.216C16.152 38.432 15.176 39.088 13.608 39.088C11.736 39.088 10.824 38.32 10.328 37.024L9.192 37.472C9.896 39.248 11.272 40.176 13.592 40.176ZM22.3802 40.128C23.9483 40.128 25.1643 39.312 25.7083 37.792L24.6203 37.632C24.1723 38.8 23.3563 39.184 22.4923 39.184C20.9563 39.184 20.0603 38.176 20.0283 36.192H25.8523C25.8363 36.016 25.8523 35.84 25.8363 35.664C25.6763 33.472 24.4763 31.968 22.4123 31.968C20.3803 31.968 18.7643 33.52 18.7643 36.192C18.7643 38.544 20.2203 40.128 22.3802 40.128ZM20.0763 35.344C20.1723 33.856 21.1483 32.912 22.4123 32.912C23.6763 32.912 24.4603 33.824 24.5883 35.344H20.0763ZM28.855 40V29.328H27.607V40H28.855ZM34.3021 40.128C35.8701 40.128 37.0861 39.312 37.6301 37.792L36.5421 37.632C36.0941 38.8 35.2781 39.184 34.4141 39.184C32.8781 39.184 31.9821 38.176 31.9501 36.192H37.7741C37.7581 36.016 37.7741 35.84 37.7581 35.664C37.5981 33.472 36.3981 31.968 34.3341 31.968C32.3021 31.968 30.6861 33.52 30.6861 36.192C30.6861 38.544 32.1421 40.128 34.3021 40.128ZM31.9981 35.344C32.0941 33.856 33.0701 32.912 34.3341 32.912C35.5981 32.912 36.3821 33.824 36.5101 35.344H31.9981ZM42.2809 40.128C43.8489 40.128 45.0169 39.216 45.2889 37.44L44.2009 37.328C43.9609 38.64 43.3529 39.2 42.3129 39.2C41.1289 39.2 40.2009 38.224 40.2009 36.048C40.2009 34.08 40.9689 32.96 42.2329 32.96C43.3209 32.96 43.9449 33.664 44.1369 34.96L45.3049 34.816C44.9529 32.88 43.8969 31.968 42.2169 31.968C40.2169 31.968 38.8889 33.728 38.8889 36.016C38.8889 38.656 40.3449 40.128 42.2809 40.128ZM49.158 40.112C49.59 40.112 50.07 40.064 50.502 39.984V39.008C50.214 39.056 49.75 39.104 49.382 39.104C48.71 39.088 48.278 38.72 48.278 37.888V33.104H50.054V32.112H48.278V30.048H47.142L47.078 32.112H45.782V33.104H47.062V37.824C47.062 39.456 47.83 40.112 49.158 40.112ZM54.8959 40.128C56.4639 40.128 57.6799 39.312 58.2239 37.792L57.1359 37.632C56.6879 38.8 55.8719 39.184 55.0079 39.184C53.4719 39.184 52.5759 38.176 52.5439 36.192H58.3679C58.3519 36.016 58.3679 35.84 58.3519 35.664C58.1919 33.472 56.9919 31.968 54.9279 31.968C52.8959 31.968 51.2799 33.52 51.2799 36.192C51.2799 38.544 52.7359 40.128 54.8959 40.128ZM52.5919 35.344C52.6879 33.856 53.6639 32.912 54.9279 32.912C56.1919 32.912 56.9759 33.824 57.1039 35.344H52.5919ZM62.5066 40.128C63.6586 40.128 64.4586 39.664 65.0826 38.8V40H66.2506V29.328H65.0506V33.184C64.6826 32.656 63.9306 31.968 62.7306 31.968C60.7146 31.968 59.4986 33.744 59.4986 36.08C59.4986 38.656 60.6026 40.128 62.5066 40.128ZM62.8426 39.184C61.5306 39.184 60.7946 38.272 60.7946 36.08C60.7946 34.064 61.4986 32.944 62.9226 32.944C64.0906 32.944 64.6346 33.616 65.0346 34.368V37.584C64.6986 38.464 64.0266 39.184 62.8426 39.184ZM75.7159 40V30.464H78.7719V29.328H71.3319V30.464H74.3879V40H75.7159ZM81.724 40.128C83.292 40.128 84.508 39.312 85.052 37.792L83.964 37.632C83.516 38.8 82.7 39.184 81.836 39.184C80.3 39.184 79.404 38.176 79.372 36.192H85.196C85.18 36.016 85.196 35.84 85.18 35.664C85.02 33.472 83.82 31.968 81.756 31.968C79.724 31.968 78.108 33.52 78.108 36.192C78.108 38.544 79.564 40.128 81.724 40.128ZM79.42 35.344C79.516 33.856 80.492 32.912 81.756 32.912C83.02 32.912 83.804 33.824 83.932 35.344H79.42ZM86.9865 40L88.9865 37.056L89.1465 36.768L89.3225 37.056L91.3865 40H92.7625L89.8345 35.744L92.2825 32.112H91.0825L89.4345 34.528L89.2265 34.848L89.0185 34.528L87.3705 32.112H85.9625L88.5385 35.872L85.7705 40H86.9865ZM96.158 40.112C96.59 40.112 97.07 40.064 97.502 39.984V39.008C97.214 39.056 96.75 39.104 96.382 39.104C95.71 39.088 95.278 38.72 95.278 37.888V33.104H97.054V32.112H95.278V30.048H94.142L94.078 32.112H92.782V33.104H94.062V37.824C94.062 39.456 94.83 40.112 96.158 40.112Z" fill="#111111"/>
<rect x="1.5" y="4.5" width="499" height="47" rx="1.5" stroke="#EA0017"/>
<path d="M2.992 68V64.196H6.712V68H7.708V59.996H6.712V63.308H2.992V59.996H1.996V68H2.992ZM11.8672 68.096C13.0432 68.096 13.9552 67.484 14.3632 66.344L13.5472 66.224C13.2112 67.1 12.5992 67.388 11.9512 67.388C10.7992 67.388 10.1272 66.632 10.1032 65.144H14.4712C14.4592 65.012 14.4712 64.88 14.4592 64.748C14.3392 63.104 13.4392 61.976 11.8912 61.976C10.3672 61.976 9.15522 63.14 9.15522 65.144C9.15522 66.908 10.2472 68.096 11.8672 68.096ZM10.1392 64.508C10.2112 63.392 10.9432 62.684 11.8912 62.684C12.8392 62.684 13.4272 63.368 13.5232 64.508H10.1392ZM16.7233 68V59.996H15.7873V68H16.7233ZM21.3126 68.084C22.5006 68.084 23.5686 67.04 23.5686 65.036C23.5686 62.9 22.6566 61.976 21.3366 61.976C20.3886 61.976 19.7886 62.552 19.4286 63.128V62.084H18.5406V70.004H19.4646V67.22C19.8246 67.652 20.4486 68.084 21.3126 68.084ZM21.0606 67.4C20.2086 67.4 19.7766 66.872 19.4646 66.428V63.932C19.8846 63.104 20.4366 62.744 21.1206 62.744C22.1406 62.744 22.5966 63.476 22.5966 65.06C22.5966 66.764 21.9966 67.4 21.0606 67.4ZM27.1953 68.096C28.3713 68.096 29.2833 67.484 29.6913 66.344L28.8753 66.224C28.5393 67.1 27.9273 67.388 27.2793 67.388C26.1273 67.388 25.4553 66.632 25.4313 65.144H29.7993C29.7873 65.012 29.7993 64.88 29.7873 64.748C29.6673 63.104 28.7673 61.976 27.2193 61.976C25.6953 61.976 24.4833 63.14 24.4833 65.144C24.4833 66.908 25.5753 68.096 27.1953 68.096ZM25.4673 64.508C25.5393 63.392 26.2713 62.684 27.2193 62.684C28.1673 62.684 28.7553 63.368 28.8513 64.508H25.4673ZM32.0274 68V64.136C32.5194 63.308 33.2154 62.828 33.9114 62.828C33.9834 62.828 34.1034 62.828 34.1754 62.84V61.988C34.0794 61.976 34.0074 61.976 33.8994 61.976C33.0594 61.976 32.3634 62.66 31.9794 63.356V62.084H31.0914V68H32.0274ZM39.5326 68.084C39.8566 68.084 40.2166 68.048 40.5406 67.988V67.256C40.3246 67.292 39.9766 67.328 39.7006 67.328C39.1966 67.316 38.8726 67.04 38.8726 66.416V62.828H40.2046V62.084H38.8726V60.536H38.0206L37.9726 62.084H37.0006V62.828H37.9606V66.368C37.9606 67.592 38.5366 68.084 39.5326 68.084ZM43.836 68.096C45.012 68.096 45.924 67.484 46.332 66.344L45.516 66.224C45.18 67.1 44.568 67.388 43.92 67.388C42.768 67.388 42.096 66.632 42.072 65.144H46.44C46.428 65.012 46.44 64.88 46.428 64.748C46.308 63.104 45.408 61.976 43.86 61.976C42.336 61.976 41.124 63.14 41.124 65.144C41.124 66.908 42.216 68.096 43.836 68.096ZM42.108 64.508C42.18 63.392 42.912 62.684 43.86 62.684C44.808 62.684 45.396 63.368 45.492 64.508H42.108ZM47.7828 68L49.2828 65.792L49.4028 65.576L49.5348 65.792L51.0828 68H52.1148L49.9188 64.808L51.7548 62.084H50.8548L49.6188 63.896L49.4628 64.136L49.3068 63.896L48.0708 62.084H47.0148L48.9468 64.904L46.8708 68H47.7828ZM54.6615 68.084C54.9855 68.084 55.3455 68.048 55.6695 67.988V67.256C55.4535 67.292 55.1055 67.328 54.8295 67.328C54.3255 67.316 54.0015 67.04 54.0015 66.416V62.828H55.3335V62.084H54.0015V60.536H53.1495L53.1015 62.084H52.1295V62.828H53.0895V66.368C53.0895 67.592 53.6655 68.084 54.6615 68.084ZM61.2745 68.096C62.1385 68.096 62.7385 67.748 63.2065 67.1V68H64.0825V59.996H63.1825V62.888C62.9065 62.492 62.3425 61.976 61.4425 61.976C59.9305 61.976 59.0185 63.308 59.0185 65.06C59.0185 66.992 59.8465 68.096 61.2745 68.096ZM61.5265 67.388C60.5425 67.388 59.9905 66.704 59.9905 65.06C59.9905 63.548 60.5185 62.708 61.5865 62.708C62.4625 62.708 62.8705 63.212 63.1705 63.776V66.188C62.9185 66.848 62.4145 67.388 61.5265 67.388ZM66.9038 61.04V59.984H65.8838V61.04H66.9038ZM66.8678 68V62.084H65.9318V68H66.8678ZM70.5572 68.096C71.9972 68.096 72.9332 67.364 72.9332 66.272C72.9332 65.096 71.9012 64.76 70.6892 64.52C69.7412 64.316 69.0332 64.196 69.0332 63.548C69.0332 63.008 69.5732 62.684 70.3652 62.684C71.1692 62.684 71.7092 63.044 71.9372 63.668L72.7652 63.488C72.4652 62.564 71.6972 61.976 70.3652 61.976C69.0452 61.976 68.1692 62.636 68.1692 63.608C68.1692 64.772 69.1892 65.084 70.4012 65.312C71.2772 65.504 72.0692 65.648 72.0692 66.356C72.0692 66.98 71.4932 67.4 70.5572 67.4C69.5372 67.4 68.8772 66.932 68.6852 66.236L67.8452 66.404C68.1332 67.484 69.0572 68.096 70.5572 68.096ZM76.965 68.084C78.153 68.084 79.221 67.04 79.221 65.036C79.221 62.9 78.309 61.976 76.989 61.976C76.041 61.976 75.441 62.552 75.081 63.128V62.084H74.193V70.004H75.117V67.22C75.477 67.652 76.101 68.084 76.965 68.084ZM76.713 67.4C75.861 67.4 75.429 66.872 75.117 66.428V63.932C75.537 63.104 76.089 62.744 76.773 62.744C77.793 62.744 78.249 63.476 78.249 65.06C78.249 66.764 77.649 67.4 76.713 67.4ZM81.5397 68V59.996H80.6037V68H81.5397ZM84.773 68.072C85.877 68.072 86.573 67.652 87.041 67.004C87.029 67.304 87.077 67.796 87.149 68H88.037C87.941 67.628 87.905 67.22 87.905 66.848V64.16C87.905 62.672 87.257 61.976 85.577 61.976C84.173 61.976 83.249 62.552 83.033 63.632L83.897 63.728C84.089 62.972 84.593 62.708 85.553 62.708C86.549 62.708 86.933 63.056 87.005 63.704C87.029 63.848 87.029 64.052 87.029 64.256C86.561 64.268 86.165 64.268 85.685 64.328C84.065 64.52 82.889 65.156 82.889 66.44C82.889 67.52 83.729 68.072 84.773 68.072ZM85.049 67.388C84.257 67.388 83.861 67.028 83.861 66.344C83.861 65.6 84.521 65.084 85.805 64.916C86.177 64.868 86.609 64.868 87.029 64.868V66.092C86.777 66.704 86.177 67.388 85.049 67.388ZM89.1466 70.076C90.5986 70.076 91.2826 69.464 91.6426 68.42L93.8986 62.084H93.0706L91.7026 65.948L91.4626 66.704L91.2226 65.948L89.7586 62.084H88.7506L90.6946 67.136C91.1986 68.456 90.4426 69.32 89.1226 69.32L89.1466 70.076ZM96.6548 68.096C98.0948 68.096 99.0308 67.364 99.0308 66.272C99.0308 65.096 97.9988 64.76 96.7868 64.52C95.8388 64.316 95.1308 64.196 95.1308 63.548C95.1308 63.008 95.6708 62.684 96.4628 62.684C97.2668 62.684 97.8068 63.044 98.0348 63.668L98.8628 63.488C98.5628 62.564 97.7948 61.976 96.4628 61.976C95.1428 61.976 94.2668 62.636 94.2668 63.608C94.2668 64.772 95.2868 65.084 96.4988 65.312C97.3748 65.504 98.1668 65.648 98.1668 66.356C98.1668 66.98 97.5908 67.4 96.6548 67.4C95.6348 67.4 94.9748 66.932 94.7828 66.236L93.9428 66.404C94.2308 67.484 95.1548 68.096 96.6548 68.096ZM103.992 68V63.956C104.484 63.248 105.072 62.756 105.9 62.756C106.5 62.756 106.86 63.092 106.86 63.812V68H107.796V63.74C107.796 62.768 107.364 61.976 106.164 61.976C105.06 61.976 104.34 62.636 103.956 63.248V59.996H103.056V68H103.992ZM111.84 68.096C113.016 68.096 113.928 67.484 114.336 66.344L113.52 66.224C113.184 67.1 112.572 67.388 111.924 67.388C110.772 67.388 110.1 66.632 110.076 65.144H114.444C114.432 65.012 114.444 64.88 114.432 64.748C114.312 63.104 113.412 61.976 111.864 61.976C110.34 61.976 109.128 63.14 109.128 65.144C109.128 66.908 110.22 68.096 111.84 68.096ZM110.112 64.508C110.184 63.392 110.916 62.684 111.864 62.684C112.812 62.684 113.4 63.368 113.496 64.508H110.112ZM116.672 68V64.136C117.164 63.308 117.86 62.828 118.556 62.828C118.628 62.828 118.748 62.828 118.82 62.84V61.988C118.724 61.976 118.652 61.976 118.544 61.976C117.704 61.976 117.008 62.66 116.624 63.356V62.084H115.736V68H116.672ZM121.906 68.096C123.082 68.096 123.994 67.484 124.402 66.344L123.586 66.224C123.25 67.1 122.638 67.388 121.99 67.388C120.838 67.388 120.166 66.632 120.142 65.144H124.51C124.498 65.012 124.51 64.88 124.498 64.748C124.378 63.104 123.478 61.976 121.93 61.976C120.406 61.976 119.194 63.14 119.194 65.144C119.194 66.908 120.286 68.096 121.906 68.096ZM120.178 64.508C120.25 63.392 120.982 62.684 121.93 62.684C122.878 62.684 123.466 63.368 123.562 64.508H120.178Z" fill="#666666"/>
<path d="M7.168 87V86.172H2.992V83.244H6.028V82.428H2.992V79.86H7.06V78.996H1.996V87H7.168ZM9.17584 87V83.136C9.66784 82.308 10.3638 81.828 11.0598 81.828C11.1318 81.828 11.2518 81.828 11.3238 81.84V80.988C11.2278 80.976 11.1558 80.976 11.0478 80.976C10.2078 80.976 9.51184 81.66 9.12784 82.356V81.084H8.23984V87H9.17584ZM13.1954 87V83.136C13.6874 82.308 14.3834 81.828 15.0794 81.828C15.1514 81.828 15.2714 81.828 15.3434 81.84V80.988C15.2474 80.976 15.1754 80.976 15.0674 80.976C14.2274 80.976 13.5314 81.66 13.1474 82.356V81.084H12.2594V87H13.1954ZM18.4749 87.096C19.9389 87.096 21.1509 85.884 21.1509 84.024C21.1509 82.2 20.0949 80.976 18.4749 80.976C17.0229 80.976 15.8229 82.164 15.8229 84.012C15.8229 85.884 16.9509 87.096 18.4749 87.096ZM18.4629 86.4C17.4669 86.4 16.8069 85.512 16.8069 84.024C16.8069 82.5 17.5269 81.708 18.4629 81.708C19.4469 81.708 20.1669 82.476 20.1669 84.012C20.1669 85.608 19.4349 86.4 18.4629 86.4ZM23.4258 87V83.136C23.9178 82.308 24.6138 81.828 25.3098 81.828C25.3818 81.828 25.5018 81.828 25.5738 81.84V80.988C25.4778 80.976 25.4058 80.976 25.2978 80.976C24.4578 80.976 23.7618 81.66 23.3778 82.356V81.084H22.4898V87H23.4258ZM31.783 87V79.848H34.075V78.996H28.495V79.848H30.787V87H31.783ZM36.2891 87.096C37.4651 87.096 38.3771 86.484 38.7851 85.344L37.9691 85.224C37.6331 86.1 37.0211 86.388 36.3731 86.388C35.2211 86.388 34.5491 85.632 34.5251 84.144H38.8931C38.8811 84.012 38.8931 83.88 38.8811 83.748C38.7611 82.104 37.8611 80.976 36.3131 80.976C34.7891 80.976 33.5771 82.14 33.5771 84.144C33.5771 85.908 34.6691 87.096 36.2891 87.096ZM34.5611 83.508C34.6331 82.392 35.3651 81.684 36.3131 81.684C37.2611 81.684 37.8491 82.368 37.9451 83.508H34.5611ZM40.236 87L41.736 84.792L41.856 84.576L41.988 84.792L43.536 87H44.568L42.372 83.808L44.208 81.084H43.308L42.072 82.896L41.916 83.136L41.76 82.896L40.524 81.084H39.468L41.4 83.904L39.324 87H40.236ZM47.1146 87.084C47.4386 87.084 47.7986 87.048 48.1226 86.988V86.256C47.9066 86.292 47.5586 86.328 47.2826 86.328C46.7786 86.316 46.4546 86.04 46.4546 85.416V81.828H47.7866V81.084H46.4546V79.536H45.6026L45.5546 81.084H44.5826V81.828H45.5426V85.368C45.5426 86.592 46.1186 87.084 47.1146 87.084ZM52.0116 87H54.8316C56.9196 87 58.2756 85.26 58.2756 82.98C58.2756 81.684 57.8796 80.532 57.0876 79.824C56.4876 79.272 55.6596 78.996 54.6996 78.996H52.0116V87ZM53.0076 79.848H54.6396C56.2116 79.848 57.2676 81.06 57.2676 83.004C57.2676 85.008 56.1756 86.184 54.6396 86.184H53.0076V79.848ZM60.6812 80.04V78.984H59.6612V80.04H60.6812ZM60.6452 87V81.084H59.7092V87H60.6452ZM64.3345 87.096C65.7745 87.096 66.7105 86.364 66.7105 85.272C66.7105 84.096 65.6785 83.76 64.4665 83.52C63.5185 83.316 62.8105 83.196 62.8105 82.548C62.8105 82.008 63.3505 81.684 64.1425 81.684C64.9465 81.684 65.4865 82.044 65.7145 82.668L66.5425 82.488C66.2425 81.564 65.4745 80.976 64.1425 80.976C62.8225 80.976 61.9465 81.636 61.9465 82.608C61.9465 83.772 62.9665 84.084 64.1785 84.312C65.0545 84.504 65.8465 84.648 65.8465 85.356C65.8465 85.98 65.2705 86.4 64.3345 86.4C63.3145 86.4 62.6545 85.932 62.4625 85.236L61.6225 85.404C61.9105 86.484 62.8345 87.096 64.3345 87.096ZM70.7423 87.084C71.9303 87.084 72.9983 86.04 72.9983 84.036C72.9983 81.9 72.0863 80.976 70.7663 80.976C69.8183 80.976 69.2183 81.552 68.8583 82.128V81.084H67.9703V89.004H68.8943V86.22C69.2543 86.652 69.8783 87.084 70.7423 87.084ZM70.4903 86.4C69.6383 86.4 69.2063 85.872 68.8943 85.428V82.932C69.3143 82.104 69.8663 81.744 70.5503 81.744C71.5703 81.744 72.0263 82.476 72.0263 84.06C72.0263 85.764 71.4263 86.4 70.4903 86.4ZM75.317 87V78.996H74.381V87H75.317ZM78.5504 87.072C79.6544 87.072 80.3504 86.652 80.8184 86.004C80.8064 86.304 80.8544 86.796 80.9264 87H81.8144C81.7184 86.628 81.6824 86.22 81.6824 85.848V83.16C81.6824 81.672 81.0344 80.976 79.3544 80.976C77.9504 80.976 77.0264 81.552 76.8104 82.632L77.6744 82.728C77.8664 81.972 78.3704 81.708 79.3304 81.708C80.3264 81.708 80.7104 82.056 80.7824 82.704C80.8064 82.848 80.8064 83.052 80.8064 83.256C80.3384 83.268 79.9424 83.268 79.4624 83.328C77.8424 83.52 76.6664 84.156 76.6664 85.44C76.6664 86.52 77.5064 87.072 78.5504 87.072ZM78.8264 86.388C78.0344 86.388 77.6384 86.028 77.6384 85.344C77.6384 84.6 78.2984 84.084 79.5824 83.916C79.9544 83.868 80.3864 83.868 80.8064 83.868V85.092C80.5544 85.704 79.9544 86.388 78.8264 86.388ZM82.9239 89.076C84.3759 89.076 85.0599 88.464 85.4199 87.42L87.6759 81.084H86.8479L85.4799 84.948L85.2399 85.704L84.9999 84.948L83.5359 81.084H82.5279L84.4719 86.136C84.9759 87.456 84.2199 88.32 82.8999 88.32L82.9239 89.076ZM90.4322 87.096C91.8722 87.096 92.8082 86.364 92.8082 85.272C92.8082 84.096 91.7762 83.76 90.5642 83.52C89.6162 83.316 88.9082 83.196 88.9082 82.548C88.9082 82.008 89.4482 81.684 90.2402 81.684C91.0442 81.684 91.5842 82.044 91.8122 82.668L92.6402 82.488C92.3402 81.564 91.5722 80.976 90.2402 80.976C88.9202 80.976 88.0442 81.636 88.0442 82.608C88.0442 83.772 89.0642 84.084 90.2762 84.312C91.1522 84.504 91.9442 84.648 91.9442 85.356C91.9442 85.98 91.3682 86.4 90.4322 86.4C89.4122 86.4 88.7522 85.932 88.5602 85.236L87.7202 85.404C88.0082 86.484 88.9322 87.096 90.4322 87.096ZM97.7696 87V82.956C98.2616 82.248 98.8496 81.756 99.6776 81.756C100.278 81.756 100.638 82.092 100.638 82.812V87H101.574V82.74C101.574 81.768 101.142 80.976 99.9416 80.976C98.8376 80.976 98.1176 81.636 97.7336 82.248V78.996H96.8336V87H97.7696ZM105.617 87.096C106.793 87.096 107.705 86.484 108.113 85.344L107.297 85.224C106.961 86.1 106.349 86.388 105.701 86.388C104.549 86.388 103.877 85.632 103.853 84.144H108.221C108.209 84.012 108.221 83.88 108.209 83.748C108.089 82.104 107.189 80.976 105.641 80.976C104.117 80.976 102.905 82.14 102.905 84.144C102.905 85.908 103.997 87.096 105.617 87.096ZM103.889 83.508C103.961 82.392 104.693 81.684 105.641 81.684C106.589 81.684 107.177 82.368 107.273 83.508H103.889ZM110.449 87V83.136C110.941 82.308 111.637 81.828 112.333 81.828C112.405 81.828 112.525 81.828 112.597 81.84V80.988C112.501 80.976 112.429 80.976 112.321 80.976C111.481 80.976 110.785 81.66 110.401 82.356V81.084H109.513V87H110.449ZM115.684 87.096C116.86 87.096 117.772 86.484 118.18 85.344L117.364 85.224C117.028 86.1 116.416 86.388 115.768 86.388C114.616 86.388 113.944 85.632 113.92 84.144H118.288C118.276 84.012 118.288 83.88 118.276 83.748C118.156 82.104 117.256 80.976 115.708 80.976C114.184 80.976 112.972 82.14 112.972 84.144C112.972 85.908 114.064 87.096 115.684 87.096ZM113.956 83.508C114.028 82.392 114.76 81.684 115.708 81.684C116.656 81.684 117.244 82.368 117.34 83.508H113.956Z" fill="#EA0017"/>
<rect width="492" height="8" transform="translate(9 4)" fill="#4CAEE5" fill-opacity="0.1"/>
<path d="M501 4L9 4" stroke="#4CAEE5" stroke-width="0.5"/>
<path d="M501 12L9 12" stroke="#4CAEE5" stroke-width="0.5"/>
<path d="M255.345 12L254.191 10L256.5 10L255.345 12Z" fill="#4CAEE5"/>
<path d="M255.345 4L254.191 6H256.5L255.345 4Z" fill="#4CAEE5"/>
<rect x="250" width="10" height="16" rx="1" fill="#4CAEE5"/>
<path d="M257.578 6.73633C257.578 6.34961 257.51 6.00977 257.373 5.7168C257.24 5.41992 257.055 5.16992 256.816 4.9668C256.574 4.76367 256.289 4.61133 255.961 4.50977C255.633 4.4043 255.275 4.35156 254.889 4.35156C254.502 4.35156 254.145 4.4043 253.816 4.50977C253.492 4.61133 253.213 4.76367 252.979 4.9668C252.74 5.16992 252.555 5.41992 252.422 5.7168C252.289 6.00977 252.223 6.34961 252.223 6.73633C252.223 6.94727 252.25 7.14844 252.305 7.33984C252.363 7.53125 252.445 7.70703 252.551 7.86719C252.648 8.01953 252.768 8.1582 252.908 8.2832C253.053 8.4082 253.213 8.51562 253.389 8.60547C253.182 8.70312 252.994 8.82227 252.826 8.96289C252.662 9.09961 252.521 9.25391 252.404 9.42578C252.287 9.60156 252.195 9.79492 252.129 10.0059C252.066 10.2129 252.035 10.4336 252.035 10.668C252.035 11.0703 252.107 11.4238 252.252 11.7285C252.4 12.0332 252.604 12.2871 252.861 12.4902C253.119 12.6973 253.422 12.8535 253.77 12.959C254.121 13.0645 254.5 13.1172 254.906 13.1172C255.309 13.1172 255.684 13.0645 256.031 12.959C256.379 12.8535 256.682 12.6973 256.939 12.4902C257.193 12.2871 257.393 12.0332 257.537 11.7285C257.686 11.4238 257.76 11.0703 257.76 10.668C257.76 10.3633 257.707 10.082 257.602 9.82422C257.496 9.56641 257.35 9.33984 257.162 9.14453C257.061 9.03516 256.945 8.9375 256.816 8.85156C256.688 8.76172 256.551 8.68164 256.406 8.61133C256.566 8.5293 256.711 8.43359 256.84 8.32422C256.973 8.21094 257.088 8.08984 257.186 7.96094C257.311 7.78906 257.406 7.60156 257.473 7.39844C257.543 7.19141 257.578 6.9707 257.578 6.73633ZM256.125 10.5566C256.125 10.752 256.094 10.9277 256.031 11.084C255.973 11.2363 255.891 11.3672 255.785 11.4766C255.676 11.5859 255.547 11.6699 255.398 11.7285C255.25 11.7832 255.086 11.8105 254.906 11.8105C254.723 11.8105 254.557 11.7852 254.408 11.7344C254.26 11.6797 254.133 11.6016 254.027 11.5C253.914 11.3945 253.826 11.2617 253.764 11.1016C253.701 10.9414 253.67 10.7598 253.67 10.5566C253.67 10.3613 253.699 10.1855 253.758 10.0293C253.816 9.87305 253.898 9.73828 254.004 9.625C254.109 9.51562 254.236 9.43164 254.385 9.37305C254.537 9.31445 254.707 9.28516 254.895 9.28516C255.082 9.28516 255.25 9.31445 255.398 9.37305C255.551 9.43164 255.682 9.51562 255.791 9.625C255.896 9.73828 255.979 9.87305 256.037 10.0293C256.096 10.1855 256.125 10.3613 256.125 10.5566ZM255.955 6.8125C255.955 6.98438 255.93 7.14258 255.879 7.28711C255.832 7.42773 255.764 7.54883 255.674 7.65039C255.584 7.75195 255.475 7.83203 255.346 7.89062C255.217 7.94531 255.07 7.97266 254.906 7.97266C254.742 7.97266 254.594 7.94531 254.461 7.89062C254.332 7.83203 254.223 7.75195 254.133 7.65039C254.039 7.54883 253.969 7.42773 253.922 7.28711C253.875 7.14258 253.852 6.98438 253.852 6.8125C253.852 6.63672 253.873 6.47852 253.916 6.33789C253.963 6.19336 254.031 6.07227 254.121 5.97461C254.207 5.87695 254.314 5.80273 254.443 5.75195C254.572 5.69727 254.721 5.66992 254.889 5.66992C255.053 5.66992 255.199 5.69727 255.328 5.75195C255.461 5.80664 255.574 5.88281 255.668 5.98047C255.758 6.08203 255.828 6.20312 255.879 6.34375C255.93 6.48438 255.955 6.64062 255.955 6.8125Z" fill="white"/>
<rect width="8" height="48" transform="translate(1 4)" fill="#4CAEE5" fill-opacity="0.1"/>
<path d="M1 4V52" stroke="#4CAEE5" stroke-width="0.5"/>
<path d="M9 4V52" stroke="#4CAEE5" stroke-width="0.5"/>
<path d="M9 27.6547L7 28.8094L7 26.5L9 27.6547Z" fill="#4CAEE5"/>
<path d="M1 27.6547L3 28.8094L3 26.5L1 27.6547Z" fill="#4CAEE5"/>
<rect y="20" width="10" height="16" rx="1" fill="#4CAEE5"/>
<path d="M7.57812 26.7363C7.57812 26.3496 7.50977 26.0098 7.37305 25.7168C7.24023 25.4199 7.05469 25.1699 6.81641 24.9668C6.57422 24.7637 6.28906 24.6113 5.96094 24.5098C5.63281 24.4043 5.27539 24.3516 4.88867 24.3516C4.50195 24.3516 4.14453 24.4043 3.81641 24.5098C3.49219 24.6113 3.21289 24.7637 2.97852 24.9668C2.74023 25.1699 2.55469 25.4199 2.42188 25.7168C2.28906 26.0098 2.22266 26.3496 2.22266 26.7363C2.22266 26.9473 2.25 27.1484 2.30469 27.3398C2.36328 27.5312 2.44531 27.707 2.55078 27.8672C2.64844 28.0195 2.76758 28.1582 2.9082 28.2832C3.05273 28.4082 3.21289 28.5156 3.38867 28.6055C3.18164 28.7031 2.99414 28.8223 2.82617 28.9629C2.66211 29.0996 2.52148 29.2539 2.4043 29.4258C2.28711 29.6016 2.19531 29.7949 2.12891 30.0059C2.06641 30.2129 2.03516 30.4336 2.03516 30.668C2.03516 31.0703 2.10742 31.4238 2.25195 31.7285C2.40039 32.0332 2.60352 32.2871 2.86133 32.4902C3.11914 32.6973 3.42188 32.8535 3.76953 32.959C4.12109 33.0645 4.5 33.1172 4.90625 33.1172C5.30859 33.1172 5.68359 33.0645 6.03125 32.959C6.37891 32.8535 6.68164 32.6973 6.93945 32.4902C7.19336 32.2871 7.39258 32.0332 7.53711 31.7285C7.68555 31.4238 7.75977 31.0703 7.75977 30.668C7.75977 30.3633 7.70703 30.082 7.60156 29.8242C7.49609 29.5664 7.34961 29.3398 7.16211 29.1445C7.06055 29.0352 6.94531 28.9375 6.81641 28.8516C6.6875 28.7617 6.55078 28.6816 6.40625 28.6113C6.56641 28.5293 6.71094 28.4336 6.83984 28.3242C6.97266 28.2109 7.08789 28.0898 7.18555 27.9609C7.31055 27.7891 7.40625 27.6016 7.47266 27.3984C7.54297 27.1914 7.57812 26.9707 7.57812 26.7363ZM6.125 30.5566C6.125 30.752 6.09375 30.9277 6.03125 31.084C5.97266 31.2363 5.89062 31.3672 5.78516 31.4766C5.67578 31.5859 5.54688 31.6699 5.39844 31.7285C5.25 31.7832 5.08594 31.8105 4.90625 31.8105C4.72266 31.8105 4.55664 31.7852 4.4082 31.7344C4.25977 31.6797 4.13281 31.6016 4.02734 31.5C3.91406 31.3945 3.82617 31.2617 3.76367 31.1016C3.70117 30.9414 3.66992 30.7598 3.66992 30.5566C3.66992 30.3613 3.69922 30.1855 3.75781 30.0293C3.81641 29.873 3.89844 29.7383 4.00391 29.625C4.10938 29.5156 4.23633 29.4316 4.38477 29.373C4.53711 29.3145 4.70703 29.2852 4.89453 29.2852C5.08203 29.2852 5.25 29.3145 5.39844 29.373C5.55078 29.4316 5.68164 29.5156 5.79102 29.625C5.89648 29.7383 5.97852 29.873 6.03711 30.0293C6.0957 30.1855 6.125 30.3613 6.125 30.5566ZM5.95508 26.8125C5.95508 26.9844 5.92969 27.1426 5.87891 27.2871C5.83203 27.4277 5.76367 27.5488 5.67383 27.6504C5.58398 27.752 5.47461 27.832 5.3457 27.8906C5.2168 27.9453 5.07031 27.9727 4.90625 27.9727C4.74219 27.9727 4.59375 27.9453 4.46094 27.8906C4.33203 27.832 4.22266 27.752 4.13281 27.6504C4.03906 27.5488 3.96875 27.4277 3.92188 27.2871C3.875 27.1426 3.85156 26.9844 3.85156 26.8125C3.85156 26.6367 3.87305 26.4785 3.91602 26.3379C3.96289 26.1934 4.03125 26.0723 4.12109 25.9746C4.20703 25.877 4.31445 25.8027 4.44336 25.752C4.57227 25.6973 4.7207 25.6699 4.88867 25.6699C5.05273 25.6699 5.19922 25.6973 5.32812 25.752C5.46094 25.8066 5.57422 25.8828 5.66797 25.9805C5.75781 26.082 5.82812 26.2031 5.87891 26.3438C5.92969 26.4844 5.95508 26.6406 5.95508 26.8125Z" fill="white"/>
<rect width="16" height="32" transform="translate(485 12)" fill="#4CAEE5" fill-opacity="0.1"/>
<path d="M485 12V44" stroke="#4CAEE5" stroke-width="0.5"/>
<path d="M501 12V44" stroke="#4CAEE5" stroke-width="0.5"/>
<path d="M501 27.6547L499 28.8094L499 26.5L501 27.6547Z" fill="#4CAEE5"/>
<path d="M485 27.6547L487 28.8094L487 26.5L485 27.6547Z" fill="#4CAEE5"/>
<rect x="484.5" y="20" width="17" height="16" rx="1" fill="#4CAEE5"/>
<path d="M490.609 33V24.4688H490.521L486.807 25.8105V27.2285L488.963 26.4551V33H490.609ZM498.15 24.3984H497.934C497.227 24.3984 496.604 24.5176 496.064 24.7559C495.525 24.9902 495.074 25.3164 494.711 25.7344C494.348 26.1562 494.074 26.6562 493.891 27.2344C493.707 27.8086 493.615 28.4336 493.615 29.1094V29.7363C493.615 30.2246 493.684 30.6758 493.82 31.0898C493.961 31.5 494.16 31.8555 494.418 32.1562C494.672 32.457 494.982 32.6934 495.35 32.8652C495.717 33.0332 496.129 33.1172 496.586 33.1172C497.023 33.1172 497.418 33.043 497.77 32.8945C498.121 32.7422 498.42 32.5352 498.666 32.2734C498.912 32.0117 499.102 31.7031 499.234 31.3477C499.367 30.9922 499.434 30.6074 499.434 30.1934C499.434 29.8066 499.383 29.4395 499.281 29.0918C499.184 28.7402 499.033 28.4316 498.83 28.166C498.627 27.9043 498.373 27.6973 498.068 27.5449C497.768 27.3887 497.414 27.3105 497.008 27.3105C496.809 27.3105 496.623 27.334 496.451 27.3809C496.279 27.4277 496.121 27.4883 495.977 27.5625C495.828 27.6406 495.695 27.7285 495.578 27.8262C495.461 27.9199 495.357 28.0156 495.268 28.1133C495.303 27.7578 495.387 27.4355 495.52 27.1465C495.656 26.8574 495.842 26.6094 496.076 26.4023C496.307 26.1953 496.586 26.0352 496.914 25.9219C497.246 25.8086 497.627 25.752 498.057 25.752H498.15V24.3984ZM496.533 28.6172C496.736 28.6172 496.916 28.6582 497.072 28.7402C497.232 28.8184 497.367 28.9277 497.477 29.0684C497.586 29.2129 497.67 29.3828 497.729 29.5781C497.787 29.7734 497.816 29.9863 497.816 30.2168C497.816 30.4473 497.787 30.6602 497.729 30.8555C497.67 31.0469 497.586 31.2129 497.477 31.3535C497.367 31.4941 497.234 31.6055 497.078 31.6875C496.922 31.7656 496.748 31.8047 496.557 31.8047C496.369 31.8047 496.195 31.7656 496.035 31.6875C495.875 31.6094 495.736 31.4922 495.619 31.3359C495.502 31.1836 495.41 30.9902 495.344 30.7559C495.281 30.5215 495.25 30.248 495.25 29.9355V29.4551C495.305 29.3379 495.371 29.2305 495.449 29.1328C495.531 29.0352 495.621 28.9492 495.719 28.875C495.832 28.793 495.957 28.7305 496.094 28.6875C496.23 28.6406 496.377 28.6172 496.533 28.6172Z" fill="white"/>
<rect width="484" height="4" transform="translate(1 52)" fill="#4CAEE5" fill-opacity="0.1"/>
<path d="M485 52L1 52" stroke="#4CAEE5" stroke-width="0.5"/>
<path d="M485 56L1 56" stroke="#4CAEE5" stroke-width="0.5"/>
<rect width="500" height="4" transform="translate(1 71)" fill="#4CAEE5" fill-opacity="0.1"/>
<path d="M501 71L1 71" stroke="#4CAEE5" stroke-width="0.5"/>
<path d="M501 75L1 75" stroke="#4CAEE5" stroke-width="0.5"/>
<path d="M251.345 75L250.191 73L252.5 73L251.345 75Z" fill="#4CAEE5"/>
<path d="M251.345 71L250.191 73H252.5L251.345 71Z" fill="#4CAEE5"/>
<rect x="246" y="65" width="10" height="16" rx="1" fill="#4CAEE5"/>
<path d="M252.98 74.8301V69.4688H251.328L247.742 75.1289L247.807 76.1484H251.352V78H252.98V76.1484H253.971V74.8301H252.98ZM249.342 74.8301L251.193 71.9414L251.352 71.6602V74.8301H249.342Z" fill="white"/>
<rect width="492" height="8" transform="translate(9 44)" fill="#4CAEE5" fill-opacity="0.1"/>
<path d="M501 44L9 44" stroke="#4CAEE5" stroke-width="0.5"/>
<path d="M501 52L9 52" stroke="#4CAEE5" stroke-width="0.5"/>
<path d="M255.345 52L254.191 50L256.5 50L255.345 52Z" fill="#4CAEE5"/>
<path d="M255.345 44L254.191 46H256.5L255.345 44Z" fill="#4CAEE5"/>
<rect x="250" y="40" width="10" height="16" rx="1" fill="#4CAEE5"/>
<path d="M257.578 46.7363C257.578 46.3496 257.51 46.0098 257.373 45.7168C257.24 45.4199 257.055 45.1699 256.816 44.9668C256.574 44.7637 256.289 44.6113 255.961 44.5098C255.633 44.4043 255.275 44.3516 254.889 44.3516C254.502 44.3516 254.145 44.4043 253.816 44.5098C253.492 44.6113 253.213 44.7637 252.979 44.9668C252.74 45.1699 252.555 45.4199 252.422 45.7168C252.289 46.0098 252.223 46.3496 252.223 46.7363C252.223 46.9473 252.25 47.1484 252.305 47.3398C252.363 47.5312 252.445 47.707 252.551 47.8672C252.648 48.0195 252.768 48.1582 252.908 48.2832C253.053 48.4082 253.213 48.5156 253.389 48.6055C253.182 48.7031 252.994 48.8223 252.826 48.9629C252.662 49.0996 252.521 49.2539 252.404 49.4258C252.287 49.6016 252.195 49.7949 252.129 50.0059C252.066 50.2129 252.035 50.4336 252.035 50.668C252.035 51.0703 252.107 51.4238 252.252 51.7285C252.4 52.0332 252.604 52.2871 252.861 52.4902C253.119 52.6973 253.422 52.8535 253.77 52.959C254.121 53.0645 254.5 53.1172 254.906 53.1172C255.309 53.1172 255.684 53.0645 256.031 52.959C256.379 52.8535 256.682 52.6973 256.939 52.4902C257.193 52.2871 257.393 52.0332 257.537 51.7285C257.686 51.4238 257.76 51.0703 257.76 50.668C257.76 50.3633 257.707 50.082 257.602 49.8242C257.496 49.5664 257.35 49.3398 257.162 49.1445C257.061 49.0352 256.945 48.9375 256.816 48.8516C256.688 48.7617 256.551 48.6816 256.406 48.6113C256.566 48.5293 256.711 48.4336 256.84 48.3242C256.973 48.2109 257.088 48.0898 257.186 47.9609C257.311 47.7891 257.406 47.6016 257.473 47.3984C257.543 47.1914 257.578 46.9707 257.578 46.7363ZM256.125 50.5566C256.125 50.752 256.094 50.9277 256.031 51.084C255.973 51.2363 255.891 51.3672 255.785 51.4766C255.676 51.5859 255.547 51.6699 255.398 51.7285C255.25 51.7832 255.086 51.8105 254.906 51.8105C254.723 51.8105 254.557 51.7852 254.408 51.7344C254.26 51.6797 254.133 51.6016 254.027 51.5C253.914 51.3945 253.826 51.2617 253.764 51.1016C253.701 50.9414 253.67 50.7598 253.67 50.5566C253.67 50.3613 253.699 50.1855 253.758 50.0293C253.816 49.873 253.898 49.7383 254.004 49.625C254.109 49.5156 254.236 49.4316 254.385 49.373C254.537 49.3145 254.707 49.2852 254.895 49.2852C255.082 49.2852 255.25 49.3145 255.398 49.373C255.551 49.4316 255.682 49.5156 255.791 49.625C255.896 49.7383 255.979 49.873 256.037 50.0293C256.096 50.1855 256.125 50.3613 256.125 50.5566ZM255.955 46.8125C255.955 46.9844 255.93 47.1426 255.879 47.2871C255.832 47.4277 255.764 47.5488 255.674 47.6504C255.584 47.752 255.475 47.832 255.346 47.8906C255.217 47.9453 255.07 47.9727 254.906 47.9727C254.742 47.9727 254.594 47.9453 254.461 47.8906C254.332 47.832 254.223 47.752 254.133 47.6504C254.039 47.5488 253.969 47.4277 253.922 47.2871C253.875 47.1426 253.852 46.9844 253.852 46.8125C253.852 46.6367 253.873 46.4785 253.916 46.3379C253.963 46.1934 254.031 46.0723 254.121 45.9746C254.207 45.877 254.314 45.8027 254.443 45.752C254.572 45.6973 254.721 45.6699 254.889 45.6699C255.053 45.6699 255.199 45.6973 255.328 45.752C255.461 45.8066 255.574 45.8828 255.668 45.9805C255.758 46.082 255.828 46.2031 255.879 46.3438C255.93 46.4844 255.955 46.6406 255.955 46.8125Z" fill="white"/>
<rect x="230" y="45" width="10" height="16" rx="1" fill="#4CAEE5"/>
<path d="M236.98 54.8301V49.4688H235.328L231.742 55.1289L231.807 56.1484H235.352V58H236.98V56.1484H237.971V54.8301H236.98ZM233.342 54.8301L235.193 51.9414L235.352 51.6602V54.8301H233.342Z" fill="white"/>
<rect width="492" height="8" transform="translate(9 145)" fill="#4CAEE5" fill-opacity="0.1"/>
<path d="M501 145L9 145" stroke="#4CAEE5" stroke-width="0.5"/>
<path d="M501 153L9 153" stroke="#4CAEE5" stroke-width="0.5"/>
<path d="M255.345 153L254.191 151L256.5 151L255.345 153Z" fill="#4CAEE5"/>
<path d="M255.345 145L254.191 147H256.5L255.345 145Z" fill="#4CAEE5"/>
<rect x="250" y="141" width="10" height="16" rx="1" fill="#4CAEE5"/>
<path d="M257.578 147.736C257.578 147.35 257.51 147.01 257.373 146.717C257.24 146.42 257.055 146.17 256.816 145.967C256.574 145.764 256.289 145.611 255.961 145.51C255.633 145.404 255.275 145.352 254.889 145.352C254.502 145.352 254.145 145.404 253.816 145.51C253.492 145.611 253.213 145.764 252.979 145.967C252.74 146.17 252.555 146.42 252.422 146.717C252.289 147.01 252.223 147.35 252.223 147.736C252.223 147.947 252.25 148.148 252.305 148.34C252.363 148.531 252.445 148.707 252.551 148.867C252.648 149.02 252.768 149.158 252.908 149.283C253.053 149.408 253.213 149.516 253.389 149.605C253.182 149.703 252.994 149.822 252.826 149.963C252.662 150.1 252.521 150.254 252.404 150.426C252.287 150.602 252.195 150.795 252.129 151.006C252.066 151.213 252.035 151.434 252.035 151.668C252.035 152.07 252.107 152.424 252.252 152.729C252.4 153.033 252.604 153.287 252.861 153.49C253.119 153.697 253.422 153.854 253.77 153.959C254.121 154.064 254.5 154.117 254.906 154.117C255.309 154.117 255.684 154.064 256.031 153.959C256.379 153.854 256.682 153.697 256.939 153.49C257.193 153.287 257.393 153.033 257.537 152.729C257.686 152.424 257.76 152.07 257.76 151.668C257.76 151.363 257.707 151.082 257.602 150.824C257.496 150.566 257.35 150.34 257.162 150.145C257.061 150.035 256.945 149.938 256.816 149.852C256.688 149.762 256.551 149.682 256.406 149.611C256.566 149.529 256.711 149.434 256.84 149.324C256.973 149.211 257.088 149.09 257.186 148.961C257.311 148.789 257.406 148.602 257.473 148.398C257.543 148.191 257.578 147.971 257.578 147.736ZM256.125 151.557C256.125 151.752 256.094 151.928 256.031 152.084C255.973 152.236 255.891 152.367 255.785 152.477C255.676 152.586 255.547 152.67 255.398 152.729C255.25 152.783 255.086 152.811 254.906 152.811C254.723 152.811 254.557 152.785 254.408 152.734C254.26 152.68 254.133 152.602 254.027 152.5C253.914 152.395 253.826 152.262 253.764 152.102C253.701 151.941 253.67 151.76 253.67 151.557C253.67 151.361 253.699 151.186 253.758 151.029C253.816 150.873 253.898 150.738 254.004 150.625C254.109 150.516 254.236 150.432 254.385 150.373C254.537 150.314 254.707 150.285 254.895 150.285C255.082 150.285 255.25 150.314 255.398 150.373C255.551 150.432 255.682 150.516 255.791 150.625C255.896 150.738 255.979 150.873 256.037 151.029C256.096 151.186 256.125 151.361 256.125 151.557ZM255.955 147.812C255.955 147.984 255.93 148.143 255.879 148.287C255.832 148.428 255.764 148.549 255.674 148.65C255.584 148.752 255.475 148.832 255.346 148.891C255.217 148.945 255.07 148.973 254.906 148.973C254.742 148.973 254.594 148.945 254.461 148.891C254.332 148.832 254.223 148.752 254.133 148.65C254.039 148.549 253.969 148.428 253.922 148.287C253.875 148.143 253.852 147.984 253.852 147.812C253.852 147.637 253.873 147.479 253.916 147.338C253.963 147.193 254.031 147.072 254.121 146.975C254.207 146.877 254.314 146.803 254.443 146.752C254.572 146.697 254.721 146.67 254.889 146.67C255.053 146.67 255.199 146.697 255.328 146.752C255.461 146.807 255.574 146.883 255.668 146.98C255.758 147.082 255.828 147.203 255.879 147.344C255.93 147.484 255.955 147.641 255.955 147.812Z" fill="white"/>
<rect width="8" height="32" transform="translate(1 144)" fill="#4CAEE5" fill-opacity="0.1"/>
<path d="M1 144V176" stroke="#4CAEE5" stroke-width="0.5"/>
<path d="M9 144V176" stroke="#4CAEE5" stroke-width="0.5"/>
<path d="M9 159.655L7 160.809L7 158.5L9 159.655Z" fill="#4CAEE5"/>
<path d="M1 159.655L3 160.809L3 158.5L1 159.655Z" fill="#4CAEE5"/>
<rect y="152" width="10" height="16" rx="1" fill="#4CAEE5"/>
<path d="M7.57812 158.736C7.57812 158.35 7.50977 158.01 7.37305 157.717C7.24023 157.42 7.05469 157.17 6.81641 156.967C6.57422 156.764 6.28906 156.611 5.96094 156.51C5.63281 156.404 5.27539 156.352 4.88867 156.352C4.50195 156.352 4.14453 156.404 3.81641 156.51C3.49219 156.611 3.21289 156.764 2.97852 156.967C2.74023 157.17 2.55469 157.42 2.42188 157.717C2.28906 158.01 2.22266 158.35 2.22266 158.736C2.22266 158.947 2.25 159.148 2.30469 159.34C2.36328 159.531 2.44531 159.707 2.55078 159.867C2.64844 160.02 2.76758 160.158 2.9082 160.283C3.05273 160.408 3.21289 160.516 3.38867 160.605C3.18164 160.703 2.99414 160.822 2.82617 160.963C2.66211 161.1 2.52148 161.254 2.4043 161.426C2.28711 161.602 2.19531 161.795 2.12891 162.006C2.06641 162.213 2.03516 162.434 2.03516 162.668C2.03516 163.07 2.10742 163.424 2.25195 163.729C2.40039 164.033 2.60352 164.287 2.86133 164.49C3.11914 164.697 3.42188 164.854 3.76953 164.959C4.12109 165.064 4.5 165.117 4.90625 165.117C5.30859 165.117 5.68359 165.064 6.03125 164.959C6.37891 164.854 6.68164 164.697 6.93945 164.49C7.19336 164.287 7.39258 164.033 7.53711 163.729C7.68555 163.424 7.75977 163.07 7.75977 162.668C7.75977 162.363 7.70703 162.082 7.60156 161.824C7.49609 161.566 7.34961 161.34 7.16211 161.145C7.06055 161.035 6.94531 160.938 6.81641 160.852C6.6875 160.762 6.55078 160.682 6.40625 160.611C6.56641 160.529 6.71094 160.434 6.83984 160.324C6.97266 160.211 7.08789 160.09 7.18555 159.961C7.31055 159.789 7.40625 159.602 7.47266 159.398C7.54297 159.191 7.57812 158.971 7.57812 158.736ZM6.125 162.557C6.125 162.752 6.09375 162.928 6.03125 163.084C5.97266 163.236 5.89062 163.367 5.78516 163.477C5.67578 163.586 5.54688 163.67 5.39844 163.729C5.25 163.783 5.08594 163.811 4.90625 163.811C4.72266 163.811 4.55664 163.785 4.4082 163.734C4.25977 163.68 4.13281 163.602 4.02734 163.5C3.91406 163.395 3.82617 163.262 3.76367 163.102C3.70117 162.941 3.66992 162.76 3.66992 162.557C3.66992 162.361 3.69922 162.186 3.75781 162.029C3.81641 161.873 3.89844 161.738 4.00391 161.625C4.10938 161.516 4.23633 161.432 4.38477 161.373C4.53711 161.314 4.70703 161.285 4.89453 161.285C5.08203 161.285 5.25 161.314 5.39844 161.373C5.55078 161.432 5.68164 161.516 5.79102 161.625C5.89648 161.738 5.97852 161.873 6.03711 162.029C6.0957 162.186 6.125 162.361 6.125 162.557ZM5.95508 158.812C5.95508 158.984 5.92969 159.143 5.87891 159.287C5.83203 159.428 5.76367 159.549 5.67383 159.65C5.58398 159.752 5.47461 159.832 5.3457 159.891C5.2168 159.945 5.07031 159.973 4.90625 159.973C4.74219 159.973 4.59375 159.945 4.46094 159.891C4.33203 159.832 4.22266 159.752 4.13281 159.65C4.03906 159.549 3.96875 159.428 3.92188 159.287C3.875 159.143 3.85156 158.984 3.85156 158.812C3.85156 158.637 3.87305 158.479 3.91602 158.338C3.96289 158.193 4.03125 158.072 4.12109 157.975C4.20703 157.877 4.31445 157.803 4.44336 157.752C4.57227 157.697 4.7207 157.67 4.88867 157.67C5.05273 157.67 5.19922 157.697 5.32812 157.752C5.46094 157.807 5.57422 157.883 5.66797 157.98C5.75781 158.082 5.82812 158.203 5.87891 158.344C5.92969 158.484 5.95508 158.641 5.95508 158.812Z" fill="white"/>
<rect width="16" height="22" transform="translate(485 149)" fill="#4CAEE5" fill-opacity="0.1"/>
<path d="M485 149V171" stroke="#4CAEE5" stroke-width="0.5"/>
<path d="M501 149V171" stroke="#4CAEE5" stroke-width="0.5"/>
<path d="M501 159.655L499 160.809L499 158.5L501 159.655Z" fill="#4CAEE5"/>
<path d="M485 159.655L487 160.809L487 158.5L485 159.655Z" fill="#4CAEE5"/>
<rect x="484.5" y="152" width="17" height="16" rx="1" fill="#4CAEE5"/>
<path d="M490.609 165V156.469H490.521L486.807 157.811V159.229L488.963 158.455V165H490.609ZM498.15 156.398H497.934C497.227 156.398 496.604 156.518 496.064 156.756C495.525 156.99 495.074 157.316 494.711 157.734C494.348 158.156 494.074 158.656 493.891 159.234C493.707 159.809 493.615 160.434 493.615 161.109V161.736C493.615 162.225 493.684 162.676 493.82 163.09C493.961 163.5 494.16 163.855 494.418 164.156C494.672 164.457 494.982 164.693 495.35 164.865C495.717 165.033 496.129 165.117 496.586 165.117C497.023 165.117 497.418 165.043 497.77 164.895C498.121 164.742 498.42 164.535 498.666 164.273C498.912 164.012 499.102 163.703 499.234 163.348C499.367 162.992 499.434 162.607 499.434 162.193C499.434 161.807 499.383 161.439 499.281 161.092C499.184 160.74 499.033 160.432 498.83 160.166C498.627 159.904 498.373 159.697 498.068 159.545C497.768 159.389 497.414 159.311 497.008 159.311C496.809 159.311 496.623 159.334 496.451 159.381C496.279 159.428 496.121 159.488 495.977 159.562C495.828 159.641 495.695 159.729 495.578 159.826C495.461 159.92 495.357 160.016 495.268 160.113C495.303 159.758 495.387 159.436 495.52 159.146C495.656 158.857 495.842 158.609 496.076 158.402C496.307 158.195 496.586 158.035 496.914 157.922C497.246 157.809 497.627 157.752 498.057 157.752H498.15V156.398ZM496.533 160.617C496.736 160.617 496.916 160.658 497.072 160.74C497.232 160.818 497.367 160.928 497.477 161.068C497.586 161.213 497.67 161.383 497.729 161.578C497.787 161.773 497.816 161.986 497.816 162.217C497.816 162.447 497.787 162.66 497.729 162.855C497.67 163.047 497.586 163.213 497.477 163.354C497.367 163.494 497.234 163.605 497.078 163.688C496.922 163.766 496.748 163.805 496.557 163.805C496.369 163.805 496.195 163.766 496.035 163.688C495.875 163.609 495.736 163.492 495.619 163.336C495.502 163.184 495.41 162.99 495.344 162.756C495.281 162.521 495.25 162.248 495.25 161.936V161.455C495.305 161.338 495.371 161.23 495.449 161.133C495.531 161.035 495.621 160.949 495.719 160.875C495.832 160.793 495.957 160.73 496.094 160.688C496.23 160.641 496.377 160.617 496.533 160.617Z" fill="white"/>
<rect width="484" height="4" transform="translate(1 176)" fill="#4CAEE5" fill-opacity="0.1"/>
<path d="M485 176L1 176" stroke="#4CAEE5" stroke-width="0.5"/>
<path d="M485 180L1 180" stroke="#4CAEE5" stroke-width="0.5"/>
<rect width="500" height="4" transform="translate(1 195)" fill="#4CAEE5" fill-opacity="0.1"/>
<path d="M501 195L1 195" stroke="#4CAEE5" stroke-width="0.5"/>
<path d="M501 199L1 199" stroke="#4CAEE5" stroke-width="0.5"/>
<path d="M251.345 199L250.191 197L252.5 197L251.345 199Z" fill="#4CAEE5"/>
<path d="M251.345 195L250.191 197H252.5L251.345 195Z" fill="#4CAEE5"/>
<rect x="246" y="189" width="10" height="16" rx="1" fill="#4CAEE5"/>
<path d="M252.98 198.83V193.469H251.328L247.742 199.129L247.807 200.148H251.352V202H252.98V200.148H253.971V198.83H252.98ZM249.342 198.83L251.193 195.941L251.352 195.66V198.83H249.342Z" fill="white"/>
<rect width="492" height="8" transform="translate(9 168)" fill="#4CAEE5" fill-opacity="0.1"/>
<path d="M501 168L9 168" stroke="#4CAEE5" stroke-width="0.5"/>
<path d="M501 176L9 176" stroke="#4CAEE5" stroke-width="0.5"/>
<path d="M255.345 176L254.191 174L256.5 174L255.345 176Z" fill="#4CAEE5"/>
<path d="M255.345 168L254.191 170H256.5L255.345 168Z" fill="#4CAEE5"/>
<rect x="250" y="164" width="10" height="16" rx="1" fill="#4CAEE5"/>
<path d="M257.578 170.736C257.578 170.35 257.51 170.01 257.373 169.717C257.24 169.42 257.055 169.17 256.816 168.967C256.574 168.764 256.289 168.611 255.961 168.51C255.633 168.404 255.275 168.352 254.889 168.352C254.502 168.352 254.145 168.404 253.816 168.51C253.492 168.611 253.213 168.764 252.979 168.967C252.74 169.17 252.555 169.42 252.422 169.717C252.289 170.01 252.223 170.35 252.223 170.736C252.223 170.947 252.25 171.148 252.305 171.34C252.363 171.531 252.445 171.707 252.551 171.867C252.648 172.02 252.768 172.158 252.908 172.283C253.053 172.408 253.213 172.516 253.389 172.605C253.182 172.703 252.994 172.822 252.826 172.963C252.662 173.1 252.521 173.254 252.404 173.426C252.287 173.602 252.195 173.795 252.129 174.006C252.066 174.213 252.035 174.434 252.035 174.668C252.035 175.07 252.107 175.424 252.252 175.729C252.4 176.033 252.604 176.287 252.861 176.49C253.119 176.697 253.422 176.854 253.77 176.959C254.121 177.064 254.5 177.117 254.906 177.117C255.309 177.117 255.684 177.064 256.031 176.959C256.379 176.854 256.682 176.697 256.939 176.49C257.193 176.287 257.393 176.033 257.537 175.729C257.686 175.424 257.76 175.07 257.76 174.668C257.76 174.363 257.707 174.082 257.602 173.824C257.496 173.566 257.35 173.34 257.162 173.145C257.061 173.035 256.945 172.938 256.816 172.852C256.688 172.762 256.551 172.682 256.406 172.611C256.566 172.529 256.711 172.434 256.84 172.324C256.973 172.211 257.088 172.09 257.186 171.961C257.311 171.789 257.406 171.602 257.473 171.398C257.543 171.191 257.578 170.971 257.578 170.736ZM256.125 174.557C256.125 174.752 256.094 174.928 256.031 175.084C255.973 175.236 255.891 175.367 255.785 175.477C255.676 175.586 255.547 175.67 255.398 175.729C255.25 175.783 255.086 175.811 254.906 175.811C254.723 175.811 254.557 175.785 254.408 175.734C254.26 175.68 254.133 175.602 254.027 175.5C253.914 175.395 253.826 175.262 253.764 175.102C253.701 174.941 253.67 174.76 253.67 174.557C253.67 174.361 253.699 174.186 253.758 174.029C253.816 173.873 253.898 173.738 254.004 173.625C254.109 173.516 254.236 173.432 254.385 173.373C254.537 173.314 254.707 173.285 254.895 173.285C255.082 173.285 255.25 173.314 255.398 173.373C255.551 173.432 255.682 173.516 255.791 173.625C255.896 173.738 255.979 173.873 256.037 174.029C256.096 174.186 256.125 174.361 256.125 174.557ZM255.955 170.812C255.955 170.984 255.93 171.143 255.879 171.287C255.832 171.428 255.764 171.549 255.674 171.65C255.584 171.752 255.475 171.832 255.346 171.891C255.217 171.945 255.07 171.973 254.906 171.973C254.742 171.973 254.594 171.945 254.461 171.891C254.332 171.832 254.223 171.752 254.133 171.65C254.039 171.549 253.969 171.428 253.922 171.287C253.875 171.143 253.852 170.984 253.852 170.812C253.852 170.637 253.873 170.479 253.916 170.338C253.963 170.193 254.031 170.072 254.121 169.975C254.207 169.877 254.314 169.803 254.443 169.752C254.572 169.697 254.721 169.67 254.889 169.67C255.053 169.67 255.199 169.697 255.328 169.752C255.461 169.807 255.574 169.883 255.668 169.98C255.758 170.082 255.828 170.203 255.879 170.344C255.93 170.484 255.955 170.641 255.955 170.812Z" fill="white"/>
<rect x="224" y="170" width="10" height="16" rx="1" fill="#4CAEE5"/>
<path d="M230.98 179.83V174.469H229.328L225.742 180.129L225.807 181.148H229.352V183H230.98V181.148H231.971V179.83H230.98ZM227.342 179.83L229.193 176.941L229.352 176.66V179.83H227.342Z" fill="white"/>
</svg>
