<svg width="603" height="248" viewBox="0 0 603 248" fill="none" xmlns="http://www.w3.org/2000/svg">
<rect x="51.5" y="42.5" width="499" height="47" rx="1.5" fill="white"/>
<path d="M64.7 60.5V59.636H60.992V52.496H59.996V60.5H64.7ZM67.1871 60.572C68.2911 60.572 68.9871 60.152 69.4551 59.504C69.4431 59.804 69.4911 60.296 69.5631 60.5H70.4511C70.3551 60.128 70.3191 59.72 70.3191 59.348V56.66C70.3191 55.172 69.6711 54.476 67.9911 54.476C66.5871 54.476 65.6631 55.052 65.4471 56.132L66.3111 56.228C66.5031 55.472 67.0071 55.208 67.9671 55.208C68.9631 55.208 69.3471 55.556 69.4191 56.204C69.4431 56.348 69.4431 56.552 69.4431 56.756C68.9751 56.768 68.5791 56.768 68.0991 56.828C66.4791 57.02 65.3031 57.656 65.3031 58.94C65.3031 60.02 66.1431 60.572 67.1871 60.572ZM67.4631 59.888C66.6711 59.888 66.2751 59.528 66.2751 58.844C66.2751 58.1 66.9351 57.584 68.2191 57.416C68.5911 57.368 69.0231 57.368 69.4431 57.368V58.592C69.1911 59.204 68.5911 59.888 67.4631 59.888ZM74.8232 60.584C76.1672 60.584 77.1392 59.564 77.1392 57.524C77.1392 55.544 76.3112 54.476 74.8952 54.476C74.0432 54.476 73.2872 55.064 72.9872 55.712V52.496H72.0992V60.5H72.6152L72.9152 59.516C73.2992 60.188 73.9352 60.584 74.8232 60.584ZM74.6432 59.912C73.6952 59.912 72.9992 59.204 72.9992 57.968V56.54C73.3232 55.856 73.8152 55.22 74.6792 55.22C75.6752 55.22 76.1792 56 76.1792 57.548C76.1792 59.204 75.6512 59.912 74.6432 59.912ZM80.7657 60.596C81.9417 60.596 82.8537 59.984 83.2617 58.844L82.4457 58.724C82.1097 59.6 81.4977 59.888 80.8497 59.888C79.6977 59.888 79.0257 59.132 79.0017 57.644H83.3697C83.3577 57.512 83.3697 57.38 83.3577 57.248C83.2377 55.604 82.3377 54.476 80.7897 54.476C79.2657 54.476 78.0537 55.64 78.0537 57.644C78.0537 59.408 79.1457 60.596 80.7657 60.596ZM79.0377 57.008C79.1097 55.892 79.8417 55.184 80.7897 55.184C81.7377 55.184 82.3257 55.868 82.4217 57.008H79.0377ZM85.6217 60.5V52.496H84.6857V60.5H85.6217ZM92.7127 60.5V53.348H95.0047V52.496H89.4247V53.348H91.7167V60.5H92.7127ZM97.2188 60.596C98.3948 60.596 99.3068 59.984 99.7148 58.844L98.8988 58.724C98.5628 59.6 97.9508 59.888 97.3028 59.888C96.1508 59.888 95.4788 59.132 95.4548 57.644H99.8228C99.8108 57.512 99.8228 57.38 99.8108 57.248C99.6908 55.604 98.7908 54.476 97.2428 54.476C95.7188 54.476 94.5068 55.64 94.5068 57.644C94.5068 59.408 95.5988 60.596 97.2188 60.596ZM95.4908 57.008C95.5628 55.892 96.2948 55.184 97.2428 55.184C98.1908 55.184 98.7788 55.868 98.8748 57.008H95.4908ZM101.166 60.5L102.666 58.292L102.786 58.076L102.918 58.292L104.466 60.5H105.498L103.302 57.308L105.138 54.584H104.238L103.002 56.396L102.846 56.636L102.69 56.396L101.454 54.584H100.398L102.33 57.404L100.254 60.5H101.166ZM108.044 60.584C108.368 60.584 108.728 60.548 109.052 60.488V59.756C108.836 59.792 108.488 59.828 108.212 59.828C107.708 59.816 107.384 59.54 107.384 58.916V55.328H108.716V54.584H107.384V53.036H106.532L106.484 54.584H105.512V55.328H106.472V58.868C106.472 60.092 107.048 60.584 108.044 60.584Z" fill="#3D73D5"/>
<path d="M61.672 79.5V68.828H60.344V79.5H61.672ZM65.4636 79.5V74.092C66.1196 73.148 66.9516 72.508 67.9596 72.508C68.8556 72.508 69.2716 72.956 69.2716 73.9V79.5H70.5196V73.916C70.5196 72.3 69.7996 71.468 68.3276 71.468C66.9196 71.468 65.9436 72.396 65.3996 73.18V71.612H64.2156V79.5H65.4636ZM76.5835 79.612C78.1675 79.612 79.5915 78.22 79.5915 75.548C79.5915 72.7 78.3755 71.468 76.6155 71.468C75.3515 71.468 74.5515 72.236 74.0715 73.004V71.612H72.8875V82.172H74.1195V78.46C74.5995 79.036 75.4315 79.612 76.5835 79.612ZM76.2475 78.7C75.1115 78.7 74.5355 77.996 74.1195 77.404V74.076C74.6795 72.972 75.4155 72.492 76.3275 72.492C77.6875 72.492 78.2955 73.468 78.2955 75.58C78.2955 77.852 77.4955 78.7 76.2475 78.7ZM83.8031 79.628C84.8591 79.628 85.8191 79.164 86.4431 78.156V79.5H87.5951V71.612H86.3631V77.212C85.8351 78.172 85.0671 78.684 84.1871 78.684C83.0831 78.684 82.6191 78.188 82.6191 76.94V71.612H81.3711V76.908C81.3711 78.892 82.3791 79.628 83.8031 79.628ZM92.1893 79.612C92.6213 79.612 93.1013 79.564 93.5333 79.484V78.508C93.2453 78.556 92.7812 78.604 92.4133 78.604C91.7413 78.588 91.3093 78.22 91.3093 77.388V72.604H93.0853V71.612H91.3093V69.548H90.1733L90.1093 71.612H88.8133V72.604H90.0933V77.324C90.0933 78.956 90.8613 79.612 92.1893 79.612ZM100.799 79.612C101.231 79.612 101.711 79.564 102.143 79.484V78.508C101.855 78.556 101.391 78.604 101.023 78.604C100.351 78.588 99.9186 78.22 99.9186 77.388V72.604H101.695V71.612H99.9186V69.548H98.7826L98.7186 71.612H97.4226V72.604H98.7026V77.324C98.7026 78.956 99.4706 79.612 100.799 79.612ZM106.536 79.628C108.105 79.628 109.321 78.812 109.865 77.292L108.777 77.132C108.329 78.3 107.513 78.684 106.649 78.684C105.113 78.684 104.217 77.676 104.185 75.692H110.009C109.993 75.516 110.009 75.34 109.993 75.164C109.833 72.972 108.633 71.468 106.569 71.468C104.537 71.468 102.921 73.02 102.921 75.692C102.921 78.044 104.377 79.628 106.536 79.628ZM104.233 74.844C104.329 73.356 105.305 72.412 106.569 72.412C107.833 72.412 108.617 73.324 108.745 74.844H104.233ZM111.799 79.5L113.799 76.556L113.959 76.268L114.135 76.556L116.199 79.5H117.575L114.647 75.244L117.095 71.612H115.895L114.247 74.028L114.039 74.348L113.831 74.028L112.183 71.612H110.775L113.351 75.372L110.583 79.5H111.799ZM120.971 79.612C121.403 79.612 121.883 79.564 122.315 79.484V78.508C122.027 78.556 121.562 78.604 121.195 78.604C120.523 78.588 120.091 78.22 120.091 77.388V72.604H121.867V71.612H120.091V69.548H118.955L118.891 71.612H117.595V72.604H118.875V77.324C118.875 78.956 119.643 79.612 120.971 79.612Z" fill="#111111"/>
<rect x="51.5" y="42.5" width="499" height="47" rx="1.5" stroke="#3D73D5"/>
<path d="M52.992 105V101.196H56.712V105H57.708V96.996H56.712V100.308H52.992V96.996H51.996V105H52.992ZM61.8672 105.096C63.0432 105.096 63.9552 104.484 64.3632 103.344L63.5472 103.224C63.2112 104.1 62.5992 104.388 61.9512 104.388C60.7992 104.388 60.1272 103.632 60.1032 102.144H64.4712C64.4592 102.012 64.4712 101.88 64.4592 101.748C64.3392 100.104 63.4392 98.976 61.8912 98.976C60.3672 98.976 59.1552 100.14 59.1552 102.144C59.1552 103.908 60.2472 105.096 61.8672 105.096ZM60.1392 101.508C60.2112 100.392 60.9432 99.684 61.8912 99.684C62.8392 99.684 63.4272 100.368 63.5232 101.508H60.1392ZM66.7233 105V96.996H65.7873V105H66.7233ZM71.3126 105.084C72.5006 105.084 73.5686 104.04 73.5686 102.036C73.5686 99.9 72.6566 98.976 71.3366 98.976C70.3886 98.976 69.7886 99.552 69.4286 100.128V99.084H68.5406V107.004H69.4646V104.22C69.8246 104.652 70.4486 105.084 71.3126 105.084ZM71.0606 104.4C70.2086 104.4 69.7766 103.872 69.4646 103.428V100.932C69.8846 100.104 70.4366 99.744 71.1206 99.744C72.1406 99.744 72.5966 100.476 72.5966 102.06C72.5966 103.764 71.9966 104.4 71.0606 104.4ZM77.1953 105.096C78.3713 105.096 79.2833 104.484 79.6913 103.344L78.8753 103.224C78.5393 104.1 77.9273 104.388 77.2793 104.388C76.1273 104.388 75.4553 103.632 75.4313 102.144H79.7993C79.7873 102.012 79.7993 101.88 79.7873 101.748C79.6673 100.104 78.7673 98.976 77.2193 98.976C75.6953 98.976 74.4833 100.14 74.4833 102.144C74.4833 103.908 75.5753 105.096 77.1953 105.096ZM75.4673 101.508C75.5393 100.392 76.2713 99.684 77.2193 99.684C78.1673 99.684 78.7553 100.368 78.8513 101.508H75.4673ZM82.0274 105V101.136C82.5194 100.308 83.2154 99.828 83.9114 99.828C83.9834 99.828 84.1034 99.828 84.1754 99.84V98.988C84.0794 98.976 84.0074 98.976 83.8994 98.976C83.0594 98.976 82.3634 99.66 81.9794 100.356V99.084H81.0914V105H82.0274ZM89.5326 105.084C89.8566 105.084 90.2166 105.048 90.5406 104.988V104.256C90.3246 104.292 89.9766 104.328 89.7006 104.328C89.1966 104.316 88.8726 104.04 88.8726 103.416V99.828H90.2046V99.084H88.8726V97.536H88.0206L87.9726 99.084H87.0006V99.828H87.9606V103.368C87.9606 104.592 88.5366 105.084 89.5326 105.084ZM93.836 105.096C95.012 105.096 95.924 104.484 96.332 103.344L95.516 103.224C95.18 104.1 94.568 104.388 93.92 104.388C92.768 104.388 92.096 103.632 92.072 102.144H96.44C96.428 102.012 96.44 101.88 96.428 101.748C96.308 100.104 95.408 98.976 93.86 98.976C92.336 98.976 91.124 100.14 91.124 102.144C91.124 103.908 92.216 105.096 93.836 105.096ZM92.108 101.508C92.18 100.392 92.912 99.684 93.86 99.684C94.808 99.684 95.396 100.368 95.492 101.508H92.108ZM97.7828 105L99.2828 102.792L99.4028 102.576L99.5348 102.792L101.083 105H102.115L99.9188 101.808L101.755 99.084H100.855L99.6188 100.896L99.4628 101.136L99.3068 100.896L98.0708 99.084H97.0148L98.9468 101.904L96.8708 105H97.7828ZM104.661 105.084C104.985 105.084 105.345 105.048 105.669 104.988V104.256C105.453 104.292 105.105 104.328 104.829 104.328C104.325 104.316 104.001 104.04 104.001 103.416V99.828H105.333V99.084H104.001V97.536H103.149L103.101 99.084H102.129V99.828H103.089V103.368C103.089 104.592 103.665 105.084 104.661 105.084ZM111.275 105.096C112.139 105.096 112.739 104.748 113.207 104.1V105H114.083V96.996H113.183V99.888C112.907 99.492 112.343 98.976 111.443 98.976C109.931 98.976 109.019 100.308 109.019 102.06C109.019 103.992 109.847 105.096 111.275 105.096ZM111.527 104.388C110.543 104.388 109.991 103.704 109.991 102.06C109.991 100.548 110.519 99.708 111.587 99.708C112.463 99.708 112.871 100.212 113.171 100.776V103.188C112.919 103.848 112.415 104.388 111.527 104.388ZM116.904 98.04V96.984H115.884V98.04H116.904ZM116.868 105V99.084H115.932V105H116.868ZM120.557 105.096C121.997 105.096 122.933 104.364 122.933 103.272C122.933 102.096 121.901 101.76 120.689 101.52C119.741 101.316 119.033 101.196 119.033 100.548C119.033 100.008 119.573 99.684 120.365 99.684C121.169 99.684 121.709 100.044 121.937 100.668L122.765 100.488C122.465 99.564 121.697 98.976 120.365 98.976C119.045 98.976 118.169 99.636 118.169 100.608C118.169 101.772 119.189 102.084 120.401 102.312C121.277 102.504 122.069 102.648 122.069 103.356C122.069 103.98 121.493 104.4 120.557 104.4C119.537 104.4 118.877 103.932 118.685 103.236L117.845 103.404C118.133 104.484 119.057 105.096 120.557 105.096ZM126.965 105.084C128.153 105.084 129.221 104.04 129.221 102.036C129.221 99.9 128.309 98.976 126.989 98.976C126.041 98.976 125.441 99.552 125.081 100.128V99.084H124.193V107.004H125.117V104.22C125.477 104.652 126.101 105.084 126.965 105.084ZM126.713 104.4C125.861 104.4 125.429 103.872 125.117 103.428V100.932C125.537 100.104 126.089 99.744 126.773 99.744C127.793 99.744 128.249 100.476 128.249 102.06C128.249 103.764 127.649 104.4 126.713 104.4ZM131.54 105V96.996H130.604V105H131.54ZM134.773 105.072C135.877 105.072 136.573 104.652 137.041 104.004C137.029 104.304 137.077 104.796 137.149 105H138.037C137.941 104.628 137.905 104.22 137.905 103.848V101.16C137.905 99.672 137.257 98.976 135.577 98.976C134.173 98.976 133.249 99.552 133.033 100.632L133.897 100.728C134.089 99.972 134.593 99.708 135.553 99.708C136.549 99.708 136.933 100.056 137.005 100.704C137.029 100.848 137.029 101.052 137.029 101.256C136.561 101.268 136.165 101.268 135.685 101.328C134.065 101.52 132.889 102.156 132.889 103.44C132.889 104.52 133.729 105.072 134.773 105.072ZM135.049 104.388C134.257 104.388 133.861 104.028 133.861 103.344C133.861 102.6 134.521 102.084 135.805 101.916C136.177 101.868 136.609 101.868 137.029 101.868V103.092C136.777 103.704 136.177 104.388 135.049 104.388ZM139.147 107.076C140.599 107.076 141.283 106.464 141.643 105.42L143.899 99.084H143.071L141.703 102.948L141.463 103.704L141.223 102.948L139.759 99.084H138.751L140.695 104.136C141.199 105.456 140.443 106.32 139.123 106.32L139.147 107.076ZM146.655 105.096C148.095 105.096 149.031 104.364 149.031 103.272C149.031 102.096 147.999 101.76 146.787 101.52C145.839 101.316 145.131 101.196 145.131 100.548C145.131 100.008 145.671 99.684 146.463 99.684C147.267 99.684 147.807 100.044 148.035 100.668L148.863 100.488C148.563 99.564 147.795 98.976 146.463 98.976C145.143 98.976 144.267 99.636 144.267 100.608C144.267 101.772 145.287 102.084 146.499 102.312C147.375 102.504 148.167 102.648 148.167 103.356C148.167 103.98 147.591 104.4 146.655 104.4C145.635 104.4 144.975 103.932 144.783 103.236L143.943 103.404C144.231 104.484 145.155 105.096 146.655 105.096ZM153.992 105V100.956C154.484 100.248 155.072 99.756 155.9 99.756C156.5 99.756 156.86 100.092 156.86 100.812V105H157.796V100.74C157.796 99.768 157.364 98.976 156.164 98.976C155.06 98.976 154.34 99.636 153.956 100.248V96.996H153.056V105H153.992ZM161.84 105.096C163.016 105.096 163.928 104.484 164.336 103.344L163.52 103.224C163.184 104.1 162.572 104.388 161.924 104.388C160.772 104.388 160.1 103.632 160.076 102.144H164.444C164.432 102.012 164.444 101.88 164.432 101.748C164.312 100.104 163.412 98.976 161.864 98.976C160.34 98.976 159.128 100.14 159.128 102.144C159.128 103.908 160.22 105.096 161.84 105.096ZM160.112 101.508C160.184 100.392 160.916 99.684 161.864 99.684C162.812 99.684 163.4 100.368 163.496 101.508H160.112ZM166.672 105V101.136C167.164 100.308 167.86 99.828 168.556 99.828C168.628 99.828 168.748 99.828 168.82 99.84V98.988C168.724 98.976 168.652 98.976 168.544 98.976C167.704 98.976 167.008 99.66 166.624 100.356V99.084H165.736V105H166.672ZM171.906 105.096C173.082 105.096 173.994 104.484 174.402 103.344L173.586 103.224C173.25 104.1 172.638 104.388 171.99 104.388C170.838 104.388 170.166 103.632 170.142 102.144H174.51C174.498 102.012 174.51 101.88 174.498 101.748C174.378 100.104 173.478 98.976 171.93 98.976C170.406 98.976 169.194 100.14 169.194 102.144C169.194 103.908 170.286 105.096 171.906 105.096ZM170.178 101.508C170.25 100.392 170.982 99.684 171.93 99.684C172.878 99.684 173.466 100.368 173.562 101.508H170.178Z" fill="#666666"/>
<rect x="51.5" y="198.5" width="499" height="31" rx="1.5" fill="white"/>
<path d="M61.672 220V209.328H60.344V220H61.672ZM65.4636 220V214.592C66.1196 213.648 66.9516 213.008 67.9596 213.008C68.8556 213.008 69.2716 213.456 69.2716 214.4V220H70.5196V214.416C70.5196 212.8 69.7996 211.968 68.3276 211.968C66.9196 211.968 65.9436 212.896 65.3996 213.68V212.112H64.2156V220H65.4636ZM76.5835 220.112C78.1675 220.112 79.5915 218.72 79.5915 216.048C79.5915 213.2 78.3755 211.968 76.6155 211.968C75.3515 211.968 74.5515 212.736 74.0715 213.504V212.112H72.8875V222.672H74.1195V218.96C74.5995 219.536 75.4315 220.112 76.5835 220.112ZM76.2475 219.2C75.1115 219.2 74.5355 218.496 74.1195 217.904V214.576C74.6795 213.472 75.4155 212.992 76.3275 212.992C77.6875 212.992 78.2955 213.968 78.2955 216.08C78.2955 218.352 77.4955 219.2 76.2475 219.2ZM83.8031 220.128C84.8591 220.128 85.8191 219.664 86.4431 218.656V220H87.5951V212.112H86.3631V217.712C85.8351 218.672 85.0671 219.184 84.1871 219.184C83.0831 219.184 82.6191 218.688 82.6191 217.44V212.112H81.3711V217.408C81.3711 219.392 82.3791 220.128 83.8031 220.128ZM92.1893 220.112C92.6213 220.112 93.1013 220.064 93.5333 219.984V219.008C93.2453 219.056 92.7812 219.104 92.4133 219.104C91.7413 219.088 91.3093 218.72 91.3093 217.888V213.104H93.0853V212.112H91.3093V210.048H90.1733L90.1093 212.112H88.8133V213.104H90.0933V217.824C90.0933 219.456 90.8613 220.112 92.1893 220.112ZM100.799 220.112C101.231 220.112 101.711 220.064 102.143 219.984V219.008C101.855 219.056 101.391 219.104 101.023 219.104C100.351 219.088 99.9186 218.72 99.9186 217.888V213.104H101.695V212.112H99.9186V210.048H98.7826L98.7186 212.112H97.4226V213.104H98.7026V217.824C98.7026 219.456 99.4706 220.112 100.799 220.112ZM106.536 220.128C108.105 220.128 109.321 219.312 109.865 217.792L108.777 217.632C108.329 218.8 107.513 219.184 106.649 219.184C105.113 219.184 104.217 218.176 104.185 216.192H110.009C109.993 216.016 110.009 215.84 109.993 215.664C109.833 213.472 108.633 211.968 106.569 211.968C104.537 211.968 102.921 213.52 102.921 216.192C102.921 218.544 104.377 220.128 106.536 220.128ZM104.233 215.344C104.329 213.856 105.305 212.912 106.569 212.912C107.833 212.912 108.617 213.824 108.745 215.344H104.233ZM111.799 220L113.799 217.056L113.959 216.768L114.135 217.056L116.199 220H117.575L114.647 215.744L117.095 212.112H115.895L114.247 214.528L114.039 214.848L113.831 214.528L112.183 212.112H110.775L113.351 215.872L110.583 220H111.799ZM120.971 220.112C121.403 220.112 121.883 220.064 122.315 219.984V219.008C122.027 219.056 121.562 219.104 121.195 219.104C120.523 219.088 120.091 218.72 120.091 217.888V213.104H121.867V212.112H120.091V210.048H118.955L118.891 212.112H117.595V213.104H118.875V217.824C118.875 219.456 119.643 220.112 120.971 220.112Z" fill="#111111"/>
<rect x="51.5" y="198.5" width="499" height="31" rx="1.5" stroke="#3D73D5"/>
<path d="M52.992 245V241.196H56.712V245H57.708V236.996H56.712V240.308H52.992V236.996H51.996V245H52.992ZM61.8672 245.096C63.0432 245.096 63.9552 244.484 64.3632 243.344L63.5472 243.224C63.2112 244.1 62.5992 244.388 61.9512 244.388C60.7992 244.388 60.1272 243.632 60.1032 242.144H64.4712C64.4592 242.012 64.4712 241.88 64.4592 241.748C64.3392 240.104 63.4392 238.976 61.8912 238.976C60.3672 238.976 59.1552 240.14 59.1552 242.144C59.1552 243.908 60.2472 245.096 61.8672 245.096ZM60.1392 241.508C60.2112 240.392 60.9432 239.684 61.8912 239.684C62.8392 239.684 63.4272 240.368 63.5232 241.508H60.1392ZM66.7233 245V236.996H65.7873V245H66.7233ZM71.3126 245.084C72.5006 245.084 73.5686 244.04 73.5686 242.036C73.5686 239.9 72.6566 238.976 71.3366 238.976C70.3886 238.976 69.7886 239.552 69.4286 240.128V239.084H68.5406V247.004H69.4646V244.22C69.8246 244.652 70.4486 245.084 71.3126 245.084ZM71.0606 244.4C70.2086 244.4 69.7766 243.872 69.4646 243.428V240.932C69.8846 240.104 70.4366 239.744 71.1206 239.744C72.1406 239.744 72.5966 240.476 72.5966 242.06C72.5966 243.764 71.9966 244.4 71.0606 244.4ZM77.1953 245.096C78.3713 245.096 79.2833 244.484 79.6913 243.344L78.8753 243.224C78.5393 244.1 77.9273 244.388 77.2793 244.388C76.1273 244.388 75.4553 243.632 75.4313 242.144H79.7993C79.7873 242.012 79.7993 241.88 79.7873 241.748C79.6673 240.104 78.7673 238.976 77.2193 238.976C75.6953 238.976 74.4833 240.14 74.4833 242.144C74.4833 243.908 75.5753 245.096 77.1953 245.096ZM75.4673 241.508C75.5393 240.392 76.2713 239.684 77.2193 239.684C78.1673 239.684 78.7553 240.368 78.8513 241.508H75.4673ZM82.0274 245V241.136C82.5194 240.308 83.2154 239.828 83.9114 239.828C83.9834 239.828 84.1034 239.828 84.1754 239.84V238.988C84.0794 238.976 84.0074 238.976 83.8994 238.976C83.0594 238.976 82.3634 239.66 81.9794 240.356V239.084H81.0914V245H82.0274ZM89.5326 245.084C89.8566 245.084 90.2166 245.048 90.5406 244.988V244.256C90.3246 244.292 89.9766 244.328 89.7006 244.328C89.1966 244.316 88.8726 244.04 88.8726 243.416V239.828H90.2046V239.084H88.8726V237.536H88.0206L87.9726 239.084H87.0006V239.828H87.9606V243.368C87.9606 244.592 88.5366 245.084 89.5326 245.084ZM93.836 245.096C95.012 245.096 95.924 244.484 96.332 243.344L95.516 243.224C95.18 244.1 94.568 244.388 93.92 244.388C92.768 244.388 92.096 243.632 92.072 242.144H96.44C96.428 242.012 96.44 241.88 96.428 241.748C96.308 240.104 95.408 238.976 93.86 238.976C92.336 238.976 91.124 240.14 91.124 242.144C91.124 243.908 92.216 245.096 93.836 245.096ZM92.108 241.508C92.18 240.392 92.912 239.684 93.86 239.684C94.808 239.684 95.396 240.368 95.492 241.508H92.108ZM97.7828 245L99.2828 242.792L99.4028 242.576L99.5348 242.792L101.083 245H102.115L99.9188 241.808L101.755 239.084H100.855L99.6188 240.896L99.4628 241.136L99.3068 240.896L98.0708 239.084H97.0148L98.9468 241.904L96.8708 245H97.7828ZM104.661 245.084C104.985 245.084 105.345 245.048 105.669 244.988V244.256C105.453 244.292 105.105 244.328 104.829 244.328C104.325 244.316 104.001 244.04 104.001 243.416V239.828H105.333V239.084H104.001V237.536H103.149L103.101 239.084H102.129V239.828H103.089V243.368C103.089 244.592 103.665 245.084 104.661 245.084ZM111.275 245.096C112.139 245.096 112.739 244.748 113.207 244.1V245H114.083V236.996H113.183V239.888C112.907 239.492 112.343 238.976 111.443 238.976C109.931 238.976 109.019 240.308 109.019 242.06C109.019 243.992 109.847 245.096 111.275 245.096ZM111.527 244.388C110.543 244.388 109.991 243.704 109.991 242.06C109.991 240.548 110.519 239.708 111.587 239.708C112.463 239.708 112.871 240.212 113.171 240.776V243.188C112.919 243.848 112.415 244.388 111.527 244.388ZM116.904 238.04V236.984H115.884V238.04H116.904ZM116.868 245V239.084H115.932V245H116.868ZM120.557 245.096C121.997 245.096 122.933 244.364 122.933 243.272C122.933 242.096 121.901 241.76 120.689 241.52C119.741 241.316 119.033 241.196 119.033 240.548C119.033 240.008 119.573 239.684 120.365 239.684C121.169 239.684 121.709 240.044 121.937 240.668L122.765 240.488C122.465 239.564 121.697 238.976 120.365 238.976C119.045 238.976 118.169 239.636 118.169 240.608C118.169 241.772 119.189 242.084 120.401 242.312C121.277 242.504 122.069 242.648 122.069 243.356C122.069 243.98 121.493 244.4 120.557 244.4C119.537 244.4 118.877 243.932 118.685 243.236L117.845 243.404C118.133 244.484 119.057 245.096 120.557 245.096ZM126.965 245.084C128.153 245.084 129.221 244.04 129.221 242.036C129.221 239.9 128.309 238.976 126.989 238.976C126.041 238.976 125.441 239.552 125.081 240.128V239.084H124.193V247.004H125.117V244.22C125.477 244.652 126.101 245.084 126.965 245.084ZM126.713 244.4C125.861 244.4 125.429 243.872 125.117 243.428V240.932C125.537 240.104 126.089 239.744 126.773 239.744C127.793 239.744 128.249 240.476 128.249 242.06C128.249 243.764 127.649 244.4 126.713 244.4ZM131.54 245V236.996H130.604V245H131.54ZM134.773 245.072C135.877 245.072 136.573 244.652 137.041 244.004C137.029 244.304 137.077 244.796 137.149 245H138.037C137.941 244.628 137.905 244.22 137.905 243.848V241.16C137.905 239.672 137.257 238.976 135.577 238.976C134.173 238.976 133.249 239.552 133.033 240.632L133.897 240.728C134.089 239.972 134.593 239.708 135.553 239.708C136.549 239.708 136.933 240.056 137.005 240.704C137.029 240.848 137.029 241.052 137.029 241.256C136.561 241.268 136.165 241.268 135.685 241.328C134.065 241.52 132.889 242.156 132.889 243.44C132.889 244.52 133.729 245.072 134.773 245.072ZM135.049 244.388C134.257 244.388 133.861 244.028 133.861 243.344C133.861 242.6 134.521 242.084 135.805 241.916C136.177 241.868 136.609 241.868 137.029 241.868V243.092C136.777 243.704 136.177 244.388 135.049 244.388ZM139.147 247.076C140.599 247.076 141.283 246.464 141.643 245.42L143.899 239.084H143.071L141.703 242.948L141.463 243.704L141.223 242.948L139.759 239.084H138.751L140.695 244.136C141.199 245.456 140.443 246.32 139.123 246.32L139.147 247.076ZM146.655 245.096C148.095 245.096 149.031 244.364 149.031 243.272C149.031 242.096 147.999 241.76 146.787 241.52C145.839 241.316 145.131 241.196 145.131 240.548C145.131 240.008 145.671 239.684 146.463 239.684C147.267 239.684 147.807 240.044 148.035 240.668L148.863 240.488C148.563 239.564 147.795 238.976 146.463 238.976C145.143 238.976 144.267 239.636 144.267 240.608C144.267 241.772 145.287 242.084 146.499 242.312C147.375 242.504 148.167 242.648 148.167 243.356C148.167 243.98 147.591 244.4 146.655 244.4C145.635 244.4 144.975 243.932 144.783 243.236L143.943 243.404C144.231 244.484 145.155 245.096 146.655 245.096ZM153.992 245V240.956C154.484 240.248 155.072 239.756 155.9 239.756C156.5 239.756 156.86 240.092 156.86 240.812V245H157.796V240.74C157.796 239.768 157.364 238.976 156.164 238.976C155.06 238.976 154.34 239.636 153.956 240.248V236.996H153.056V245H153.992ZM161.84 245.096C163.016 245.096 163.928 244.484 164.336 243.344L163.52 243.224C163.184 244.1 162.572 244.388 161.924 244.388C160.772 244.388 160.1 243.632 160.076 242.144H164.444C164.432 242.012 164.444 241.88 164.432 241.748C164.312 240.104 163.412 238.976 161.864 238.976C160.34 238.976 159.128 240.14 159.128 242.144C159.128 243.908 160.22 245.096 161.84 245.096ZM160.112 241.508C160.184 240.392 160.916 239.684 161.864 239.684C162.812 239.684 163.4 240.368 163.496 241.508H160.112ZM166.672 245V241.136C167.164 240.308 167.86 239.828 168.556 239.828C168.628 239.828 168.748 239.828 168.82 239.84V238.988C168.724 238.976 168.652 238.976 168.544 238.976C167.704 238.976 167.008 239.66 166.624 240.356V239.084H165.736V245H166.672ZM171.906 245.096C173.082 245.096 173.994 244.484 174.402 243.344L173.586 243.224C173.25 244.1 172.638 244.388 171.99 244.388C170.838 244.388 170.166 243.632 170.142 242.144H174.51C174.498 242.012 174.51 241.88 174.498 241.748C174.378 240.104 173.478 238.976 171.93 238.976C170.406 238.976 169.194 240.14 169.194 242.144C169.194 243.908 170.286 245.096 171.906 245.096ZM170.178 241.508C170.25 240.392 170.982 239.684 171.93 239.684C172.878 239.684 173.466 240.368 173.562 241.508H170.178Z" fill="#666666"/>
<path d="M18.5 42V90" stroke="#1745E8"/>
<rect y="58.5" width="38" height="18" rx="3" fill="#1745E8"/>
<path d="M6.4794 70.2216H9.97017V71.5H11.4403V70.2216H12.3423V68.9893H11.4403V64.2273H9.51562L6.4794 69.0107V70.2216ZM9.99858 68.9893H8.0277V68.9325L9.94176 65.9034H9.99858V68.9893ZM16.0799 71.5994C17.7205 71.5994 18.8995 70.7223 18.9031 69.5433C18.8995 68.6342 18.1999 67.892 17.3263 67.7464V67.6967C18.0863 67.5405 18.6296 66.8835 18.6332 66.0845C18.6296 64.9588 17.5501 64.1278 16.0799 64.1278C14.6062 64.1278 13.5266 64.9588 13.5302 66.0845C13.5266 66.88 14.0629 67.5405 14.837 67.6967V67.7464C13.9492 67.892 13.2567 68.6342 13.2603 69.5433C13.2567 70.7223 14.4393 71.5994 16.0799 71.5994ZM16.0799 70.4702C15.3484 70.4702 14.8583 70.0369 14.8583 69.4226C14.8583 68.794 15.3732 68.3395 16.0799 68.3395C16.783 68.3395 17.3015 68.794 17.3015 69.4226C17.3015 70.0405 16.8079 70.4702 16.0799 70.4702ZM16.0799 67.2209C15.4656 67.2209 15.0288 66.8196 15.0288 66.2443C15.0288 65.6761 15.4585 65.2855 16.0799 65.2855C16.6978 65.2855 17.131 65.6797 17.131 66.2443C17.131 66.8196 16.6907 67.2209 16.0799 67.2209ZM19.9924 73.5455H21.5051V70.6264H21.5513C21.7608 71.081 22.2189 71.5888 23.0996 71.5888C24.3425 71.5888 25.312 70.6051 25.312 68.7798C25.312 66.9048 24.2999 65.9744 23.1032 65.9744C22.1905 65.9744 21.7537 66.5178 21.5513 66.9616H21.4838V66.0455H19.9924V73.5455ZM21.4732 68.7727C21.4732 67.7997 21.8851 67.1783 22.6202 67.1783C23.3695 67.1783 23.7672 67.8281 23.7672 68.7727C23.7672 69.7244 23.3624 70.3849 22.6202 70.3849C21.8922 70.3849 21.4732 69.7457 21.4732 68.7727ZM27.3796 66.0455H25.8171L27.3796 68.7727L25.7603 71.5H27.3228L28.381 69.6143L29.457 71.5H31.0018L29.3789 68.7727L30.9592 66.0455H29.4073L28.381 67.9524L27.3796 66.0455Z" fill="white"/>
<line x1="15" y1="42.5" x2="22" y2="42.5" stroke="#1745E8"/>
<line x1="15" y1="89.5" x2="22" y2="89.5" stroke="#1745E8"/>
<path d="M51 9.5H551" stroke="#1745E8"/>
<rect x="278.5" width="45" height="18" rx="3" fill="#1745E8"/>
<path d="M287.746 13.0994C289.365 13.0994 290.466 12.0447 290.462 10.5746C290.466 9.18253 289.493 8.18111 288.183 8.18111C287.543 8.18111 286.993 8.44744 286.737 8.80611H286.695L286.883 6.98438H290.061V5.72727H285.615L285.271 9.5625L286.638 9.80753C286.862 9.50568 287.295 9.31747 287.724 9.31747C288.456 9.32102 288.982 9.85014 288.982 10.6136C288.982 11.37 288.467 11.892 287.746 11.892C287.135 11.892 286.641 11.5085 286.606 10.9439H285.114C285.143 12.201 286.24 13.0994 287.746 13.0994ZM294.386 13.1598C296.215 13.1598 297.32 11.7678 297.323 9.37074C297.327 6.99148 296.208 5.62784 294.386 5.62784C292.561 5.62784 291.453 6.98793 291.45 9.37074C291.442 11.7607 292.554 13.1562 294.386 13.1598ZM294.386 11.8849C293.552 11.8849 293.012 11.0469 293.016 9.37074C293.019 7.71946 293.555 6.88849 294.386 6.88849C295.214 6.88849 295.754 7.71946 295.754 9.37074C295.757 11.0469 295.217 11.8849 294.386 11.8849ZM301.271 13.1598C303.1 13.1598 304.204 11.7678 304.208 9.37074C304.211 6.99148 303.093 5.62784 301.271 5.62784C299.446 5.62784 298.338 6.98793 298.334 9.37074C298.327 11.7607 299.439 13.1562 301.271 13.1598ZM301.271 11.8849C300.437 11.8849 299.897 11.0469 299.9 9.37074C299.904 7.71946 300.44 6.88849 301.271 6.88849C302.099 6.88849 302.638 7.71946 302.638 9.37074C302.642 11.0469 302.102 11.8849 301.271 11.8849ZM305.319 15.0455H306.831V12.1264H306.877C307.087 12.581 307.545 13.0888 308.426 13.0888C309.669 13.0888 310.638 12.1051 310.638 10.2798C310.638 8.40483 309.626 7.47443 308.429 7.47443C307.517 7.47443 307.08 8.01776 306.877 8.46165H306.81V7.54545H305.319V15.0455ZM306.799 10.2727C306.799 9.29972 307.211 8.67827 307.946 8.67827C308.696 8.67827 309.093 9.32812 309.093 10.2727C309.093 11.2244 308.689 11.8849 307.946 11.8849C307.218 11.8849 306.799 11.2457 306.799 10.2727ZM312.706 7.54545H311.143L312.706 10.2727L311.086 13H312.649L313.707 11.1143L314.783 13H316.328L314.705 10.2727L316.285 7.54545H314.733L313.707 9.45241L312.706 7.54545Z" fill="white"/>
<line x1="51.5" y1="13" x2="51.5" y2="6" stroke="#1745E8"/>
<line x1="550.5" y1="13" x2="550.5" y2="6" stroke="#1745E8"/>
<path d="M51 165.5H551" stroke="#1745E8"/>
<rect x="278.5" y="156" width="45" height="18" rx="3" fill="#1745E8"/>
<path d="M287.746 169.099C289.365 169.099 290.466 168.045 290.462 166.575C290.466 165.183 289.493 164.181 288.183 164.181C287.543 164.181 286.993 164.447 286.737 164.806H286.695L286.883 162.984H290.061V161.727H285.615L285.271 165.562L286.638 165.808C286.862 165.506 287.295 165.317 287.724 165.317C288.456 165.321 288.982 165.85 288.982 166.614C288.982 167.37 288.467 167.892 287.746 167.892C287.135 167.892 286.641 167.509 286.606 166.944H285.114C285.143 168.201 286.24 169.099 287.746 169.099ZM294.386 169.16C296.215 169.16 297.32 167.768 297.323 165.371C297.327 162.991 296.208 161.628 294.386 161.628C292.561 161.628 291.453 162.988 291.45 165.371C291.442 167.761 292.554 169.156 294.386 169.16ZM294.386 167.885C293.552 167.885 293.012 167.047 293.016 165.371C293.019 163.719 293.555 162.888 294.386 162.888C295.214 162.888 295.754 163.719 295.754 165.371C295.757 167.047 295.217 167.885 294.386 167.885ZM301.271 169.16C303.1 169.16 304.204 167.768 304.208 165.371C304.211 162.991 303.093 161.628 301.271 161.628C299.446 161.628 298.338 162.988 298.334 165.371C298.327 167.761 299.439 169.156 301.271 169.16ZM301.271 167.885C300.437 167.885 299.897 167.047 299.9 165.371C299.904 163.719 300.44 162.888 301.271 162.888C302.099 162.888 302.638 163.719 302.638 165.371C302.642 167.047 302.102 167.885 301.271 167.885ZM305.319 171.045H306.831V168.126H306.877C307.087 168.581 307.545 169.089 308.426 169.089C309.669 169.089 310.638 168.105 310.638 166.28C310.638 164.405 309.626 163.474 308.429 163.474C307.517 163.474 307.08 164.018 306.877 164.462H306.81V163.545H305.319V171.045ZM306.799 166.273C306.799 165.3 307.211 164.678 307.946 164.678C308.696 164.678 309.093 165.328 309.093 166.273C309.093 167.224 308.689 167.885 307.946 167.885C307.218 167.885 306.799 167.246 306.799 166.273ZM312.706 163.545H311.143L312.706 166.273L311.086 169H312.649L313.707 167.114L314.783 169H316.328L314.705 166.273L316.285 163.545H314.733L313.707 165.452L312.706 163.545Z" fill="white"/>
<line x1="51.5" y1="169" x2="51.5" y2="162" stroke="#1745E8"/>
<line x1="550.5" y1="169" x2="550.5" y2="162" stroke="#1745E8"/>
<path d="M583.5 198V230" stroke="#1745E8"/>
<rect x="565.5" y="206.5" width="37" height="18" rx="3" fill="#1745E8"/>
<path d="M574.778 219.599C576.411 219.599 577.58 218.701 577.576 217.458C577.58 216.553 577.004 215.906 575.935 215.771V215.714C576.749 215.569 577.31 214.994 577.306 214.177C577.31 213.03 576.305 212.128 574.799 212.128C573.308 212.128 572.185 213.001 572.164 214.259H573.638C573.656 213.705 574.163 213.346 574.792 213.346C575.413 213.346 575.829 213.722 575.825 214.269C575.829 214.841 575.342 215.228 574.643 215.228H573.964V216.357H574.643C575.467 216.357 575.982 216.769 575.978 217.355C575.982 217.934 575.484 218.332 574.781 218.332C574.103 218.332 573.595 217.977 573.567 217.444H572.018C572.043 218.715 573.18 219.599 574.778 219.599ZM578.681 219.5H583.866V218.243H580.812V218.193L581.874 217.153C583.369 215.789 583.77 215.107 583.77 214.28C583.77 213.019 582.74 212.128 581.181 212.128C579.654 212.128 578.607 213.04 578.61 214.468H580.07C580.066 213.772 580.507 213.346 581.171 213.346C581.81 213.346 582.286 213.744 582.286 214.383C582.286 214.962 581.931 215.359 581.27 215.995L578.681 218.392V219.5ZM584.994 221.545H586.507V218.626H586.553C586.763 219.081 587.221 219.589 588.102 219.589C589.344 219.589 590.314 218.605 590.314 216.78C590.314 214.905 589.302 213.974 588.105 213.974C587.192 213.974 586.756 214.518 586.553 214.962H586.486V214.045H584.994V221.545ZM586.475 216.773C586.475 215.8 586.887 215.178 587.622 215.178C588.371 215.178 588.769 215.828 588.769 216.773C588.769 217.724 588.364 218.385 587.622 218.385C586.894 218.385 586.475 217.746 586.475 216.773ZM592.382 214.045H590.819L592.382 216.773L590.762 219.5H592.325L593.383 217.614L594.459 219.5H596.004L594.381 216.773L595.961 214.045H594.409L593.383 215.952L592.382 214.045Z" fill="white"/>
<line x1="580" y1="198.5" x2="587" y2="198.5" stroke="#1745E8"/>
<line x1="580" y1="229.5" x2="587" y2="229.5" stroke="#1745E8"/>
<path d="M18.5 198V230" stroke="#1745E8"/>
<rect x="0.5" y="206.5" width="37" height="18" rx="3" fill="#1745E8"/>
<path d="M9.7777 219.599C11.4112 219.599 12.5795 218.701 12.576 217.458C12.5795 216.553 12.0043 215.906 10.9354 215.771V215.714C11.7486 215.569 12.3097 214.994 12.3061 214.177C12.3097 213.03 11.3047 212.128 9.79901 212.128C8.30753 212.128 7.18537 213.001 7.16406 214.259H8.63778C8.65554 213.705 9.16335 213.346 9.7919 213.346C10.4134 213.346 10.8288 213.722 10.8253 214.269C10.8288 214.841 10.3423 215.228 9.64276 215.228H8.96449V216.357H9.64276C10.4666 216.357 10.9815 216.769 10.978 217.355C10.9815 217.934 10.4844 218.332 9.78125 218.332C9.10298 218.332 8.59517 217.977 8.56676 217.444H7.01847C7.04332 218.715 8.17969 219.599 9.7777 219.599ZM13.6813 219.5H18.8659V218.243H15.812V218.193L16.8738 217.153C18.3688 215.789 18.7701 215.107 18.7701 214.28C18.7701 213.019 17.7402 212.128 16.1813 212.128C14.6543 212.128 13.6067 213.04 13.6103 214.468H15.0698C15.0662 213.772 15.5066 213.346 16.1706 213.346C16.8098 213.346 17.2857 213.744 17.2857 214.383C17.2857 214.962 16.9306 215.359 16.2701 215.995L13.6813 218.392V219.5ZM19.9943 221.545H21.5071V218.626H21.5533C21.7628 219.081 22.2209 219.589 23.1016 219.589C24.3445 219.589 25.3139 218.605 25.3139 216.78C25.3139 214.905 24.3018 213.974 23.1051 213.974C22.1925 213.974 21.7557 214.518 21.5533 214.962H21.4858V214.045H19.9943V221.545ZM21.4751 216.773C21.4751 215.8 21.8871 215.178 22.6222 215.178C23.3714 215.178 23.7692 215.828 23.7692 216.773C23.7692 217.724 23.3643 218.385 22.6222 218.385C21.8942 218.385 21.4751 217.746 21.4751 216.773ZM27.3816 214.045H25.8191L27.3816 216.773L25.7623 219.5H27.3248L28.383 217.614L29.459 219.5H31.0037L29.3809 216.773L30.9611 214.045H29.4093L28.383 215.952L27.3816 214.045Z" fill="white"/>
<line x1="15" y1="198.5" x2="22" y2="198.5" stroke="#1745E8"/>
<line x1="15" y1="229.5" x2="22" y2="229.5" stroke="#1745E8"/>
</svg>
