<svg width="36" height="36" viewBox="0 0 36 36" fill="none" xmlns="http://www.w3.org/2000/svg">
<g clip-path="url(#clip0)">
<path d="M14.364 0.353994C10.9186 1.04802 7.7538 2.74096 5.26419 5.22168C2.77457 7.7024 1.07033 10.8611 0.363975 14.304C-2.23603 27.452 9.62397 37.254 18.564 35.869C21.464 35.419 22.881 32.03 21.552 29.421C21.1803 28.6926 21.0026 27.8806 21.0362 27.0635C21.0698 26.2464 21.3134 25.4518 21.7436 24.7563C22.1739 24.0608 22.7761 23.488 23.4922 23.0931C24.2084 22.6982 25.0142 22.4946 25.832 22.502H31.432C32.6447 22.4933 33.8049 22.0061 34.6602 21.1463C35.5155 20.2865 35.9966 19.1237 35.999 17.911C35.9858 15.2457 35.3813 12.6166 34.2292 10.2132C33.077 7.80983 31.4059 5.69204 29.3363 4.01257C27.2668 2.33309 24.8503 1.13379 22.2612 0.501125C19.6721 -0.131537 16.9749 -0.181789 14.364 0.353994V0.353994ZM6.74897 22.502C6.30397 22.502 5.86895 22.37 5.49894 22.1228C5.12893 21.8756 4.84054 21.5242 4.67025 21.113C4.49995 20.7019 4.45539 20.2495 4.54221 19.813C4.62902 19.3766 4.84332 18.9757 5.15798 18.661C5.47265 18.3463 5.87356 18.132 6.31002 18.0452C6.74648 17.9584 7.19888 18.003 7.61001 18.1733C8.02115 18.3436 8.37255 18.632 8.61978 19.002C8.86701 19.372 8.99897 19.807 8.99897 20.252C8.99924 20.5475 8.94122 20.8402 8.82824 21.1133C8.71526 21.3864 8.54954 21.6346 8.34055 21.8436C8.13157 22.0526 7.88343 22.2183 7.61032 22.3313C7.33722 22.4442 7.04452 22.5023 6.74897 22.502V22.502ZM8.99897 13.502C8.55397 13.502 8.11895 13.37 7.74894 13.1228C7.37893 12.8756 7.09054 12.5242 6.92025 12.113C6.74995 11.7019 6.70539 11.2495 6.79221 10.813C6.87902 10.3766 7.09332 9.97567 7.40798 9.661C7.72265 9.34634 8.12356 9.13204 8.56002 9.04523C8.99648 8.95841 9.44888 9.00297 9.86001 9.17327C10.2711 9.34356 10.6225 9.63195 10.8698 10.002C11.117 10.372 11.249 10.807 11.249 11.252C11.2492 11.5475 11.1912 11.8402 11.0782 12.1133C10.9653 12.3864 10.7995 12.6346 10.5906 12.8436C10.3816 13.0526 10.1334 13.2183 9.86032 13.3313C9.58722 13.4442 9.29452 13.5023 8.99897 13.502ZM17.999 9.00199C17.554 9.00199 17.119 8.87003 16.7489 8.6228C16.3789 8.37557 16.0905 8.02417 15.9202 7.61303C15.7499 7.2019 15.7054 6.7495 15.7922 6.31304C15.879 5.87658 16.0933 5.47567 16.408 5.161C16.7227 4.84634 17.1236 4.63204 17.56 4.54523C17.9965 4.45841 18.4489 4.50297 18.86 4.67326C19.2711 4.84356 19.6225 5.13195 19.8698 5.50196C20.117 5.87197 20.249 6.30699 20.249 6.75199C20.2492 7.04754 20.1912 7.34024 20.0782 7.61334C19.9653 7.88644 19.7995 8.13459 19.5906 8.34357C19.3816 8.55255 19.1334 8.71828 18.8603 8.83126C18.5872 8.94424 18.2945 9.00226 17.999 9.00199V9.00199ZM26.999 13.502C26.554 13.502 26.119 13.37 25.7489 13.1228C25.3789 12.8756 25.0905 12.5242 24.9202 12.113C24.7499 11.7019 24.7054 11.2495 24.7922 10.813C24.879 10.3766 25.0933 9.97567 25.408 9.661C25.7227 9.34634 26.1236 9.13204 26.56 9.04523C26.9965 8.95841 27.4489 9.00297 27.86 9.17327C28.2711 9.34356 28.6225 9.63195 28.8698 10.002C29.117 10.372 29.249 10.807 29.249 11.252C29.2492 11.5475 29.1912 11.8402 29.0782 12.1133C28.9653 12.3864 28.7995 12.6346 28.5906 12.8436C28.3816 13.0526 28.1334 13.2183 27.8603 13.3313C27.5872 13.4442 27.2945 13.5023 26.999 13.502Z" fill="white"/>
</g>
<defs>
<clipPath id="clip0">
<rect width="35.999" height="35.999" fill="white"/>
</clipPath>
</defs>
</svg>
