<svg width="40" height="35" viewBox="0 0 40 35" fill="none" xmlns="http://www.w3.org/2000/svg">
<path fill-rule="evenodd" clip-rule="evenodd" d="M18.1505 10.4486L16.3097 8.58879L14.8989 10.0181V21.4914L18.1118 24.3414L18.1462 24.3112V10.4486H18.1505ZM10.7312 10.8791L8.43441 8.58879L6.92473 10.1473V21.5258L9.71183 23.9453L10.7312 22.7829V10.8791ZM36.2796 5.07148L40 8.51561V23.0498L34.2409 27.4583C33.6817 26.7566 32.9935 26.1581 32.172 25.9214V32.8742L32.1032 32.9086L30.2968 31.2038L26.4817 34.7771L26.4129 34.7426V25.7535C25.0802 26.0954 23.8996 26.8726 23.0581 27.962L22.7957 27.7941C23.0237 25.2196 24.2753 23.3167 26.4129 22.5849V16.0626H25.7247C25.3148 16.052 24.9145 16.1872 24.5948 16.4441C24.2751 16.7011 24.0567 17.0632 23.9785 17.466H23.5871C23.4137 16.9729 23.3349 16.4515 23.3548 15.9291C23.3548 14.2931 24.4387 13.0532 26.2151 13.0532H26.4129V9.44552L25.2301 8.37784L24.3097 9.31206L23.8495 8.87724L27.5011 5.06717L30.5935 7.94302V11.2149L31.5484 10.1817V6.3372H32.172V9.5101L36.2839 5.06717L36.2796 5.07148ZM31.5484 10.8189L30.5935 11.822V30.6355L31.5484 31.5396V10.8146V10.8189ZM6.49462 0L6.7871 0.26692C5.70753 0.796455 4.82151 1.45945 4.82151 2.88446C4.82151 5.07578 6.92043 4.51181 6.92043 7.96024V9.28623L10.757 5.20924L14.7957 9.22165L18.6021 5.20494L22.2753 8.85571V21.1254L15.5269 27.4282L10.9677 23.4459L7.48387 27.4282L2.76129 23.3167V16.816H1.83656C1.01935 16.816 0.623656 17.311 0.490323 17.9783H0.163441C0.0989247 17.7114 0 17.2465 0 16.7169C0 15.8559 0.36129 13.6 2.75269 13.6V8.55866C2.75269 6.59981 1.47527 6.50079 1.47527 4.81317C1.47527 2.91459 3.24731 1.16239 6.49892 0H6.49462ZM33.9097 8.24869L32.172 10.1171V22.2491C33.7204 22.4471 34.8688 22.9809 35.8237 24.0185L35.8538 23.984V10.0525L33.9183 8.24438L33.9097 8.24869Z" fill="white"/>
</svg>
