<svg width="645" height="360" viewBox="0 0 645 360" fill="none" xmlns="http://www.w3.org/2000/svg">
<g clip-path="url(#clip0)">
<rect width="589" height="360" transform="translate(56)" fill="white"/>
<rect opacity="0.25" x="56" width="1440" height="1024" fill="#2A2A2A"/>
<g filter="url(#filter0_d)">
<rect x="56" y="177" width="589" height="183" fill="white"/>
</g>
</g>
<path d="M23.5 177V360" stroke="#1745E8"/>
<g clip-path="url(#clip1)">
<rect y="352" width="166" height="18" rx="3" transform="rotate(-90 0 352)" fill="#1745E8"/>
<path d="M13.0888 343.386C13.0888 342.506 12.581 342.048 12.1264 341.838L12.1264 341.774L13 341.774L13 340.283L5.72727 340.283L5.72727 341.792L8.46165 341.792L8.46165 341.838C8.01776 342.04 7.47443 342.477 7.47443 343.39C7.47443 344.587 8.40483 345.599 10.2798 345.599C12.1051 345.599 13.0888 344.629 13.0888 343.386ZM11.8849 342.907C11.8849 343.649 11.2244 344.054 10.2727 344.054C9.32813 344.054 8.67827 343.656 8.67827 342.907C8.67827 342.172 9.29972 341.76 10.2727 341.76C11.2457 341.76 11.8849 342.179 11.8849 342.907ZM13.1065 336.553C13.1065 335.204 12.4496 334.295 11.4375 334.081L11.3452 335.481C11.7607 335.633 11.9773 336.024 11.9773 336.528C11.9773 337.285 11.4766 337.764 10.6634 337.764L10.6598 337.764L10.6598 334.05L10.2443 334.05C8.39063 334.05 7.47443 335.172 7.47443 336.613C7.47443 338.219 8.61435 339.259 10.2976 339.259C12.027 339.259 13.1065 338.233 13.1065 336.553ZM9.7223 337.764C9.10085 337.732 8.60369 337.26 8.60369 336.589C8.60369 335.932 9.07244 335.477 9.7223 335.474L9.7223 337.764ZM7.54545 330.129L7.54545 331.212L7.17969 331.212C6.81037 331.212 6.59375 331.063 6.59375 330.619C6.59375 330.438 6.63281 330.253 6.67188 330.133L5.53551 329.866C5.47869 330.055 5.38636 330.47 5.38636 330.935C5.38636 331.961 5.9652 332.725 7.15128 332.725L7.54545 332.725L7.54545 333.496L8.68182 333.496L8.68182 332.725L13 332.725L13 331.212L8.68182 331.212L8.68182 330.129L7.54545 330.129ZM13.103 327.845C13.103 327.039 12.7514 326.517 12.2436 326.25L12.2436 326.208L13 326.208L13 324.773L9.32102 324.773C8.02131 324.773 7.47443 325.874 7.47443 327.088C7.47443 328.395 8.09943 329.255 9.09375 329.464L9.20739 328.065C8.84517 327.962 8.57884 327.639 8.57884 327.096C8.57884 326.581 8.83807 326.286 9.28551 326.286L9.30682 326.286C9.65838 326.286 9.70455 326.659 9.79688 327.607C9.89631 328.686 10.2585 329.656 11.4766 329.656C12.5561 329.656 13.103 328.885 13.103 327.845ZM12.0589 327.412C12.0589 327.877 11.8423 328.211 11.4268 328.211C11.0007 328.211 10.7912 327.859 10.7166 327.326C10.6705 326.996 10.5923 326.456 10.4716 326.275L11.0504 326.275C11.6222 326.275 12.0589 326.748 12.0589 327.412ZM10.6776 320.102C11.4091 320.098 11.7926 320.599 11.7926 321.142C11.7926 321.714 11.3913 322.083 10.7486 322.087L7.54545 322.087L7.54545 323.599L11.0185 323.599C12.2933 323.596 13.071 322.85 13.071 321.753C13.071 320.933 12.6484 320.343 12.0092 320.098L12.0092 320.041L13 320.041L13 318.589L7.54545 318.589L7.54545 320.102L10.6776 320.102ZM5.72727 315.866L5.72727 317.379L13 317.379L13 315.866L5.72727 315.866ZM7.54545 311.753L7.54545 312.779L6.23864 312.779L6.23864 314.292L7.54545 314.292L7.54545 315.038L8.68182 315.038L8.68182 314.292L11.5227 314.292C12.5916 314.299 13.1207 313.571 13.0746 312.474C13.0604 312.083 12.9822 311.806 12.9325 311.653L11.8068 311.891C11.821 311.966 11.8565 312.126 11.8565 312.268C11.8565 312.57 11.7429 312.779 11.3239 312.779L8.68182 312.779L8.68182 311.753L7.54545 311.753ZM10.0845 308.119C11.8494 308.119 13.3161 307.654 14.5803 306.684L14.5803 305.239C13.6428 305.981 11.7678 306.546 10.0845 306.546C8.40483 306.546 6.52983 305.981 5.59233 305.239L5.59233 306.684C6.85653 307.654 8.3196 308.119 10.0845 308.119ZM13.0994 301.719C13.0994 300.1 12.0447 298.999 10.5746 299.002C9.18253 298.999 8.18111 299.972 8.18111 301.282C8.18111 301.922 8.44744 302.472 8.80611 302.728L8.80611 302.77L6.98438 302.582L6.98438 299.404L5.72727 299.404L5.72727 303.85L9.5625 304.194L9.80753 302.827C9.50568 302.603 9.31747 302.17 9.31747 301.74C9.32102 301.009 9.85014 300.483 10.6136 300.483C11.37 300.483 11.892 300.998 11.892 301.719C11.892 302.33 11.5085 302.824 10.9439 302.859L10.9439 304.35C12.201 304.322 13.0994 303.225 13.0994 301.719ZM13.1598 295.078C13.1598 293.25 11.7678 292.145 9.37074 292.142C6.99148 292.138 5.62784 293.257 5.62784 295.078C5.62784 296.904 6.98793 298.012 9.37074 298.015C11.7607 298.022 13.1563 296.911 13.1598 295.078ZM11.8849 295.078C11.8849 295.913 11.0469 296.453 9.37074 296.449C7.71946 296.446 6.88849 295.909 6.88849 295.078C6.88849 294.251 7.71946 293.711 9.37074 293.711C11.0469 293.708 11.8849 294.248 11.8849 295.078ZM13.1598 288.194C13.1598 286.365 11.7678 285.26 9.37074 285.257C6.99148 285.253 5.62784 286.372 5.62784 288.194C5.62784 290.019 6.98793 291.127 9.37074 291.131C11.7607 291.138 13.1563 290.026 13.1598 288.194ZM11.8849 288.194C11.8849 289.028 11.0469 289.568 9.37074 289.564C7.71946 289.561 6.8885 289.025 6.8885 288.194C6.8885 287.366 7.71946 286.827 9.37074 286.827C11.0469 286.823 11.8849 287.363 11.8849 288.194ZM15.0455 284.146L15.0455 282.634L12.1264 282.634L12.1264 282.587C12.581 282.378 13.0888 281.92 13.0888 281.039C13.0888 279.796 12.1051 278.827 10.2798 278.827C8.40483 278.827 7.47443 279.839 7.47443 281.036C7.47443 281.948 8.01776 282.385 8.46165 282.587L8.46165 282.655L7.54546 282.655L7.54546 284.146L15.0455 284.146ZM10.2727 282.665C9.29972 282.665 8.67827 282.254 8.67827 281.518C8.67827 280.769 9.32813 280.371 10.2727 280.371C11.2244 280.371 11.8849 280.776 11.8849 281.518C11.8849 282.246 11.2457 282.665 10.2727 282.665ZM7.54546 276.759L7.54546 278.322L10.2727 276.759L13 278.378L13 276.816L11.1143 275.758L13 274.682L13 273.137L10.2727 274.76L7.54546 273.18L7.54546 274.731L9.45242 275.758L7.54546 276.759ZM10.0845 269.731C8.3196 269.731 6.85298 270.197 5.58878 271.166L5.58878 272.611C6.52628 271.869 8.40128 271.305 10.0845 271.305C11.7642 271.305 13.6392 271.869 14.5767 272.611L14.5767 271.166C13.3125 270.197 11.8494 269.731 10.0845 269.731ZM13.1065 263.41C13.1065 261.756 11.9737 260.726 10.294 260.726C8.60369 260.726 7.47443 261.756 7.47443 263.41C7.47443 265.065 8.60369 266.095 10.294 266.095C11.9737 266.095 13.1065 265.065 13.1065 263.41ZM11.9347 263.403C11.9347 264.167 11.2351 264.557 10.2834 264.557C9.33168 264.557 8.62855 264.167 8.62855 263.403C8.62855 262.654 9.33168 262.263 10.2834 262.263C11.2351 262.263 11.9347 262.654 11.9347 263.403ZM13 259.742L13 258.229L9.91406 258.229C9.2429 258.229 8.78125 257.739 8.78125 257.072C8.78125 256.862 8.81676 256.574 8.86293 256.432L7.5206 256.432C7.48864 256.567 7.46733 256.756 7.46733 256.908C7.46733 257.519 7.82244 258.02 8.49716 258.219L8.49716 258.275L7.54546 258.275L7.54546 259.742L13 259.742ZM10.6776 249.838C11.4091 249.834 11.7926 250.335 11.7926 250.878C11.7926 251.45 11.3913 251.819 10.7486 251.823L7.54546 251.823L7.54546 253.336L11.0185 253.336C12.2933 253.332 13.071 252.586 13.071 251.489C13.071 250.669 12.6484 250.079 12.0092 249.834L12.0092 249.778L13 249.778L13 248.325L7.54546 248.325L7.54546 249.838L10.6776 249.838ZM9.10085 242.577C8.09588 242.712 7.47443 243.521 7.47443 244.899C7.47443 246.295 8.12074 247.214 9.17188 247.211C9.98864 247.214 10.5178 246.7 10.7308 245.634L10.919 244.69C11.0149 244.214 11.1889 243.997 11.4624 243.99C11.7855 243.997 12.0163 244.349 12.0163 244.878C12.0163 245.418 11.7855 245.776 11.3416 245.869L11.4197 247.357C12.4638 247.214 13.1065 246.327 13.1065 244.881C13.1065 243.468 12.3857 242.456 11.3097 242.452C10.5213 242.456 10.049 242.971 9.83239 244.029L9.63352 245.016C9.52344 245.524 9.34943 245.712 9.08665 245.709C8.75994 245.712 8.54688 245.343 8.54688 244.874C8.54688 244.349 8.83452 244.036 9.18608 243.962L9.10085 242.577ZM13.1065 239.014C13.1065 237.665 12.4496 236.756 11.4375 236.542L11.3452 237.942C11.7607 238.094 11.9773 238.485 11.9773 238.989C11.9773 239.746 11.4766 240.225 10.6634 240.225L10.6598 240.225L10.6598 236.51L10.2443 236.51C8.39063 236.51 7.47443 237.633 7.47443 239.074C7.47443 240.68 8.61435 241.72 10.2976 241.72C12.027 241.72 13.1065 240.694 13.1065 239.014ZM9.7223 240.225C9.10085 240.193 8.60369 239.721 8.60369 239.05C8.60369 238.393 9.07244 237.938 9.7223 237.934L9.7223 240.225ZM13 235.523L13 234.01L9.91406 234.01C9.2429 234.01 8.78125 233.52 8.78125 232.853C8.78125 232.643 8.81676 232.356 8.86293 232.214L7.5206 232.214C7.48864 232.349 7.46733 232.537 7.46733 232.689C7.46733 233.3 7.82244 233.801 8.49716 234L8.49716 234.057L7.54546 234.057L7.54546 235.523L13 235.523ZM13.0888 227.107C13.0888 226.226 12.581 225.768 12.1264 225.559L12.1264 225.495L13 225.495L13 224.003L5.72727 224.003L5.72727 225.513L8.46165 225.513L8.46165 225.559C8.01776 225.761 7.47443 226.198 7.47443 227.111C7.47443 228.307 8.40483 229.319 10.2798 229.319C12.1051 229.319 13.0888 228.35 13.0888 227.107ZM11.8849 226.628C11.8849 227.37 11.2244 227.775 10.2727 227.775C9.32813 227.775 8.67827 227.377 8.67827 226.628C8.67827 225.893 9.29972 225.481 10.2727 225.481C11.2457 225.481 11.8849 225.9 11.8849 226.628ZM13.1065 220.274C13.1065 218.924 12.4496 218.015 11.4375 217.802L11.3452 219.201C11.7607 219.354 11.9773 219.745 11.9773 220.249C11.9773 221.005 11.4766 221.485 10.6634 221.485L10.6598 221.485L10.6598 217.77L10.2443 217.77C8.39063 217.77 7.47443 218.892 7.47443 220.334C7.47443 221.939 8.61435 222.98 10.2976 222.98C12.027 222.98 13.1065 221.953 13.1065 220.274ZM9.7223 221.485C9.10085 221.453 8.60369 220.98 8.60369 220.309C8.60369 219.652 9.07244 219.198 9.7223 219.194L9.7223 221.485ZM7.54546 213.85L7.54546 214.933L7.17969 214.933C6.81037 214.933 6.59375 214.784 6.59375 214.34C6.59375 214.159 6.63281 213.974 6.67188 213.853L5.53551 213.587C5.47869 213.775 5.38636 214.191 5.38636 214.656C5.38636 215.682 5.9652 216.446 7.15128 216.446L7.54546 216.446L7.54546 217.216L8.68182 217.216L8.68182 216.446L13 216.446L13 214.933L8.68182 214.933L8.68182 213.85L7.54546 213.85ZM13 212.926L13 211.413L7.54546 211.413L7.54546 212.926L13 212.926ZM6.84233 212.166C6.84233 211.715 6.49787 211.345 6.07529 211.345C5.65625 211.345 5.31179 211.715 5.31179 212.166C5.31179 212.613 5.65625 212.982 6.07529 212.982C6.49787 212.982 6.84233 212.613 6.84233 212.166ZM9.84659 208.688C9.14347 208.685 8.73154 208.266 8.73154 207.655C8.73154 207.048 9.12926 206.682 9.79688 206.685L13 206.685L13 205.173L9.52699 205.173C8.25568 205.173 7.47443 205.918 7.47443 207.055C7.47443 207.864 7.87216 208.45 8.50781 208.695L8.50781 208.759L7.54546 208.759L7.54546 210.201L13 210.201L13 208.688L9.84659 208.688ZM13.1065 201.494C13.1065 200.145 12.4496 199.236 11.4375 199.023L11.3452 200.422C11.7607 200.575 11.9773 200.965 11.9773 201.47C11.9773 202.226 11.4766 202.705 10.6634 202.705L10.6598 202.705L10.6598 198.991L10.2443 198.991C8.39063 198.991 7.47443 200.113 7.47443 201.555C7.47443 203.16 8.61435 204.2 10.2976 204.2C12.027 204.2 13.1065 203.174 13.1065 201.494ZM9.7223 202.705C9.10085 202.673 8.60369 202.201 8.60369 201.53C8.60369 200.873 9.07244 200.419 9.7223 200.415L9.7223 202.705ZM13.0888 195.994C13.0888 195.113 12.581 194.655 12.1264 194.445L12.1264 194.382L13 194.382L13 192.89L5.72727 192.89L5.72727 194.399L8.46165 194.399L8.46165 194.445C8.01776 194.648 7.47443 195.085 7.47443 195.997C7.47443 197.194 8.40483 198.206 10.2798 198.206C12.1051 198.206 13.0888 197.237 13.0888 195.994ZM11.8849 195.514C11.8849 196.257 11.2244 196.661 10.2727 196.661C9.32813 196.661 8.67827 196.264 8.67827 195.514C8.67827 194.779 9.29972 194.367 10.2727 194.367C11.2457 194.367 11.8849 194.786 11.8849 195.514Z" fill="white"/>
</g>
<line x1="20" y1="177.5" x2="27" y2="177.5" stroke="#1745E8"/>
<line x1="20" y1="359.5" x2="27" y2="359.5" stroke="#1745E8"/>
<path d="M56 144.5H645" stroke="#1745E8"/>
<line x1="56.5" y1="148" x2="56.5" y2="141" stroke="#1745E8"/>
<line x1="644.5" y1="148" x2="644.5" y2="141" stroke="#1745E8"/>
<rect x="329" y="135" width="44" height="18" rx="3" fill="#1745E8"/>
<path d="M336.68 148H338.278L339.215 144.57H339.283L340.22 148H341.822L343.303 142.545H341.776L340.945 146.189H340.898L340.004 142.545H338.501L337.621 146.21H337.571L336.726 142.545H335.195L336.68 148ZM347.508 144.413H344.191V145.614H347.508V144.413ZM351.947 140.727H350.502L348.701 141.867V143.231L350.367 142.187H350.409V148H351.947V140.727ZM356.527 148.16C358.356 148.16 359.46 146.768 359.464 144.371C359.467 141.991 358.349 140.628 356.527 140.628C354.702 140.628 353.594 141.988 353.59 144.371C353.583 146.761 354.695 148.156 356.527 148.16ZM356.527 146.885C355.692 146.885 355.153 146.047 355.156 144.371C355.16 142.719 355.696 141.888 356.527 141.888C357.354 141.888 357.894 142.719 357.894 144.371C357.898 146.047 357.358 146.885 356.527 146.885ZM363.412 148.16C365.241 148.16 366.345 146.768 366.349 144.371C366.352 141.991 365.233 140.628 363.412 140.628C361.586 140.628 360.479 141.988 360.475 144.371C360.468 146.761 361.579 148.156 363.412 148.16ZM363.412 146.885C362.577 146.885 362.037 146.047 362.041 144.371C362.045 142.719 362.581 141.888 363.412 141.888C364.239 141.888 364.779 142.719 364.779 144.371C364.782 146.047 364.243 146.885 363.412 146.885Z" fill="white"/>
<defs>
<filter id="filter0_d" x="48" y="173" width="605" height="199" filterUnits="userSpaceOnUse" color-interpolation-filters="sRGB">
<feFlood flood-opacity="0" result="BackgroundImageFix"/>
<feColorMatrix in="SourceAlpha" type="matrix" values="0 0 0 0 0 0 0 0 0 0 0 0 0 0 0 0 0 0 127 0" result="hardAlpha"/>
<feOffset dy="4"/>
<feGaussianBlur stdDeviation="4"/>
<feColorMatrix type="matrix" values="0 0 0 0 0.25098 0 0 0 0 0.25098 0 0 0 0 0.25098 0 0 0 0.25 0"/>
<feBlend mode="normal" in2="BackgroundImageFix" result="effect1_dropShadow"/>
<feBlend mode="normal" in="SourceGraphic" in2="effect1_dropShadow" result="shape"/>
</filter>
<clipPath id="clip0">
<rect width="589" height="360" fill="white" transform="translate(56)"/>
</clipPath>
<clipPath id="clip1">
<rect y="352" width="166" height="18" rx="3" transform="rotate(-90 0 352)" fill="white"/>
</clipPath>
</defs>
</svg>
