<svg width="643" height="415" viewBox="0 0 643 415" fill="none" xmlns="http://www.w3.org/2000/svg">
<rect y="227.5" width="42" height="18" rx="3" fill="#1745E8"/>
<g clip-path="url(#clip0)">
<rect width="589" height="360" transform="translate(54 55)" fill="white"/>
<rect opacity="0.25" x="54" y="55" width="1440" height="1024" fill="#2A2A2A"/>
<g filter="url(#filter0_d)">
<rect x="54" y="55" width="151" height="360" fill="white"/>
</g>
</g>
<path d="M21.5 55V415" stroke="#1745E8"/>
<path d="M8.11648 237.347C8.12003 236.643 8.54972 236.232 9.16761 236.232C9.78196 236.232 10.1442 236.626 10.1406 237.297V240.5H11.6534V237.027C11.657 235.749 10.9041 234.974 9.76776 234.974C8.94034 234.974 8.38636 235.365 8.13778 236.008H8.07386V233.227H6.60369V240.5H8.11648V237.347ZM16.2424 236.913H12.9256V238.114H16.2424V236.913ZM20.6813 233.227H19.236L17.4355 234.367V235.731L19.101 234.687H19.1436V240.5H20.6813V233.227ZM25.2614 240.66C27.0902 240.66 28.1946 239.268 28.1982 236.871C28.2017 234.491 27.0831 233.128 25.2614 233.128C23.4361 233.128 22.3281 234.488 22.3246 236.871C22.3175 239.261 23.429 240.656 25.2614 240.66ZM25.2614 239.385C24.4268 239.385 23.8871 238.547 23.8906 236.871C23.8942 235.219 24.4304 234.388 25.2614 234.388C26.0888 234.388 26.6286 235.219 26.6286 236.871C26.6321 238.547 26.0923 239.385 25.2614 239.385ZM32.1461 240.66C33.975 240.66 35.0794 239.268 35.0829 236.871C35.0865 234.491 33.9679 233.128 32.1461 233.128C30.3208 233.128 29.2129 234.488 29.2093 236.871C29.2022 239.261 30.3137 240.656 32.1461 240.66ZM32.1461 239.385C31.3116 239.385 30.7718 238.547 30.7754 236.871C30.7789 235.219 31.3152 234.388 32.1461 234.388C32.9735 234.388 33.5133 235.219 33.5133 236.871C33.5169 238.547 32.9771 239.385 32.1461 239.385Z" fill="white"/>
<line x1="18" y1="55.5" x2="25" y2="55.5" stroke="#1745E8"/>
<line x1="18" y1="414.5" x2="25" y2="414.5" stroke="#1745E8"/>
<path d="M54 22.5H205" stroke="#1745E8"/>
<line x1="54.5" y1="26" x2="54.5" y2="19" stroke="#1745E8"/>
<line x1="204.5" y1="26" x2="204.5" y2="19" stroke="#1745E8"/>
<rect x="48" width="164" height="18" rx="3" fill="#1745E8"/>
<path d="M56.6136 13.0888C57.4943 13.0888 57.9524 12.581 58.1619 12.1264H58.2259V13H59.7173V5.72727H58.2081V8.46165H58.1619C57.9595 8.01776 57.5227 7.47443 56.6101 7.47443C55.4134 7.47443 54.4013 8.40483 54.4013 10.2798C54.4013 12.1051 55.3707 13.0888 56.6136 13.0888ZM57.093 11.8849C56.3509 11.8849 55.946 11.2244 55.946 10.2727C55.946 9.32812 56.3438 8.67827 57.093 8.67827C57.8281 8.67827 58.2401 9.29972 58.2401 10.2727C58.2401 11.2457 57.821 11.8849 57.093 11.8849ZM63.4469 13.1065C64.7963 13.1065 65.7054 12.4496 65.9185 11.4375L64.5194 11.3452C64.3667 11.7607 63.976 11.9773 63.4718 11.9773C62.7154 11.9773 62.236 11.4766 62.236 10.6634V10.6598H65.9505V10.2443C65.9505 8.39062 64.8283 7.47443 63.3865 7.47443C61.7814 7.47443 60.7409 8.61435 60.7409 10.2976C60.7409 12.027 61.7672 13.1065 63.4469 13.1065ZM62.236 9.7223C62.2679 9.10085 62.7402 8.60369 63.4114 8.60369C64.0684 8.60369 64.5229 9.07244 64.5265 9.7223H62.236ZM69.8709 7.54545H68.7878V7.17969C68.7878 6.81037 68.937 6.59375 69.3809 6.59375C69.562 6.59375 69.7466 6.63281 69.8674 6.67188L70.1337 5.53551C69.9455 5.47869 69.53 5.38636 69.0648 5.38636C68.0385 5.38636 67.275 5.9652 67.275 7.15128V7.54545H66.5044V8.68182H67.275V13H68.7878V8.68182H69.8709V7.54545ZM72.1552 13.103C72.9613 13.103 73.4833 12.7514 73.7496 12.2436H73.7923V13H75.2269V9.32102C75.2269 8.02131 74.1261 7.47443 72.9116 7.47443C71.6048 7.47443 70.7454 8.09943 70.5359 9.09375L71.935 9.20739C72.038 8.84517 72.3612 8.57884 72.9045 8.57884C73.4194 8.57884 73.7141 8.83807 73.7141 9.28551V9.30682C73.7141 9.65838 73.3413 9.70455 72.3931 9.79688C71.3136 9.89631 70.3441 10.2585 70.3441 11.4766C70.3441 12.5561 71.1147 13.103 72.1552 13.103ZM72.5884 12.0589C72.1232 12.0589 71.7894 11.8423 71.7894 11.4268C71.7894 11.0007 72.141 10.7912 72.6737 10.7166C73.0039 10.6705 73.5437 10.5923 73.7248 10.4716V11.0504C73.7248 11.6222 73.2525 12.0589 72.5884 12.0589ZM79.8984 10.6776C79.902 11.4091 79.4013 11.7926 78.858 11.7926C78.2862 11.7926 77.9169 11.3913 77.9134 10.7486V7.54545H76.4006V11.0185C76.4041 12.2933 77.1499 13.071 78.2472 13.071C79.0675 13.071 79.657 12.6484 79.902 12.0092H79.9588V13H81.4112V7.54545H79.8984V10.6776ZM84.1341 5.72727H82.6213V13H84.1341V5.72727ZM88.2472 7.54545H87.2209V6.23864H85.7081V7.54545H84.9624V8.68182H85.7081V11.5227C85.701 12.5916 86.429 13.1207 87.5263 13.0746C87.9169 13.0604 88.1939 12.9822 88.3466 12.9325L88.1087 11.8068C88.0341 11.821 87.8743 11.8565 87.7322 11.8565C87.4304 11.8565 87.2209 11.7429 87.2209 11.3239V8.68182H88.2472V7.54545ZM89.5664 10.0845C89.5664 11.8494 90.0316 13.3161 91.0011 14.5803H92.4464C91.7042 13.6428 91.1396 11.7678 91.1396 10.0845C91.1396 8.40483 91.7042 6.52983 92.4464 5.59233H91.0011C90.0316 6.85653 89.5664 8.3196 89.5664 10.0845ZM93.2001 11.7216H96.6909V13H98.161V11.7216H99.063V10.4893H98.161V5.72727H96.2363L93.2001 10.5107V11.7216ZM96.7193 10.4893H94.7484V10.4325L96.6625 7.40341H96.7193V10.4893ZM102.939 13.1598C104.768 13.1598 105.872 11.7678 105.876 9.37074C105.879 6.99148 104.761 5.62784 102.939 5.62784C101.114 5.62784 100.006 6.98793 100.002 9.37074C99.9952 11.7607 101.107 13.1562 102.939 13.1598ZM102.939 11.8849C102.105 11.8849 101.565 11.0469 101.568 9.37074C101.572 7.71946 102.108 6.88849 102.939 6.88849C103.767 6.88849 104.306 7.71946 104.306 9.37074C104.31 11.0469 103.77 11.8849 102.939 11.8849ZM109.824 13.1598C111.653 13.1598 112.757 11.7678 112.761 9.37074C112.764 6.99148 111.646 5.62784 109.824 5.62784C107.999 5.62784 106.891 6.98793 106.887 9.37074C106.88 11.7607 107.991 13.1562 109.824 13.1598ZM109.824 11.8849C108.989 11.8849 108.45 11.0469 108.453 9.37074C108.457 7.71946 108.993 6.88849 109.824 6.88849C110.651 6.88849 111.191 7.71946 111.191 9.37074C111.195 11.0469 110.655 11.8849 109.824 11.8849ZM113.871 15.0455H115.384V12.1264H115.43C115.64 12.581 116.098 13.0888 116.979 13.0888C118.221 13.0888 119.191 12.1051 119.191 10.2798C119.191 8.40483 118.179 7.47443 116.982 7.47443C116.069 7.47443 115.633 8.01776 115.43 8.46165H115.363V7.54545H113.871V15.0455ZM115.352 10.2727C115.352 9.29972 115.764 8.67827 116.499 8.67827C117.248 8.67827 117.646 9.32812 117.646 10.2727C117.646 11.2244 117.241 11.8849 116.499 11.8849C115.771 11.8849 115.352 11.2457 115.352 10.2727ZM121.259 7.54545H119.696L121.259 10.2727L119.639 13H121.202L122.26 11.1143L123.336 13H124.881L123.258 10.2727L124.838 7.54545H123.286L122.26 9.45241L121.259 7.54545ZM128.286 10.0845C128.286 8.3196 127.821 6.85298 126.852 5.58878H125.406C126.148 6.52628 126.713 8.40128 126.713 10.0845C126.713 11.7642 126.148 13.6392 125.406 14.5767H126.852C127.821 13.3125 128.286 11.8494 128.286 10.0845ZM134.607 13.1065C136.262 13.1065 137.292 11.9737 137.292 10.294C137.292 8.60369 136.262 7.47443 134.607 7.47443C132.952 7.47443 131.923 8.60369 131.923 10.294C131.923 11.9737 132.952 13.1065 134.607 13.1065ZM134.614 11.9347C133.851 11.9347 133.46 11.2351 133.46 10.2834C133.46 9.33168 133.851 8.62855 134.614 8.62855C135.364 8.62855 135.754 9.33168 135.754 10.2834C135.754 11.2351 135.364 11.9347 134.614 11.9347ZM138.276 13H139.788V9.91406C139.788 9.2429 140.278 8.78125 140.946 8.78125C141.156 8.78125 141.443 8.81676 141.585 8.86293V7.5206C141.45 7.48864 141.262 7.46733 141.109 7.46733C140.499 7.46733 139.998 7.82244 139.799 8.49716H139.742V7.54545H138.276V13ZM148.18 10.6776C148.183 11.4091 147.683 11.7926 147.139 11.7926C146.567 11.7926 146.198 11.3913 146.195 10.7486V7.54545H144.682V11.0185C144.685 12.2933 145.431 13.071 146.528 13.071C147.349 13.071 147.938 12.6484 148.183 12.0092H148.24V13H149.692V7.54545H148.18V10.6776ZM155.441 9.10085C155.306 8.09588 154.496 7.47443 153.118 7.47443C151.723 7.47443 150.803 8.12074 150.807 9.17188C150.803 9.98864 151.318 10.5178 152.383 10.7308L153.328 10.919C153.804 11.0149 154.02 11.1889 154.028 11.4624C154.02 11.7855 153.669 12.0163 153.14 12.0163C152.6 12.0163 152.241 11.7855 152.149 11.3416L150.661 11.4197C150.803 12.4638 151.691 13.1065 153.136 13.1065C154.55 13.1065 155.562 12.3857 155.565 11.3097C155.562 10.5213 155.047 10.049 153.988 9.83239L153.001 9.63352C152.493 9.52344 152.305 9.34943 152.309 9.08665C152.305 8.75994 152.675 8.54688 153.143 8.54688C153.669 8.54688 153.981 8.83452 154.056 9.18608L155.441 9.10085ZM159.004 13.1065C160.353 13.1065 161.262 12.4496 161.475 11.4375L160.076 11.3452C159.923 11.7607 159.533 11.9773 159.028 11.9773C158.272 11.9773 157.793 11.4766 157.793 10.6634V10.6598H161.507V10.2443C161.507 8.39062 160.385 7.47443 158.943 7.47443C157.338 7.47443 156.298 8.61435 156.298 10.2976C156.298 12.027 157.324 13.1065 159.004 13.1065ZM157.793 9.7223C157.825 9.10085 158.297 8.60369 158.968 8.60369C159.625 8.60369 160.08 9.07244 160.083 9.7223H157.793ZM162.494 13H164.007V9.91406C164.007 9.2429 164.497 8.78125 165.165 8.78125C165.374 8.78125 165.662 8.81676 165.804 8.86293V7.5206C165.669 7.48864 165.481 7.46733 165.328 7.46733C164.717 7.46733 164.217 7.82244 164.018 8.49716H163.961V7.54545H162.494V13ZM170.911 13.0888C171.791 13.0888 172.249 12.581 172.459 12.1264H172.523V13H174.014V5.72727H172.505V8.46165H172.459C172.256 8.01776 171.82 7.47443 170.907 7.47443C169.71 7.47443 168.698 8.40483 168.698 10.2798C168.698 12.1051 169.668 13.0888 170.911 13.0888ZM171.39 11.8849C170.648 11.8849 170.243 11.2244 170.243 10.2727C170.243 9.32812 170.641 8.67827 171.39 8.67827C172.125 8.67827 172.537 9.29972 172.537 10.2727C172.537 11.2457 172.118 11.8849 171.39 11.8849ZM177.744 13.1065C179.093 13.1065 180.002 12.4496 180.215 11.4375L178.816 11.3452C178.664 11.7607 178.273 11.9773 177.769 11.9773C177.012 11.9773 176.533 11.4766 176.533 10.6634V10.6598H180.247V10.2443C180.247 8.39062 179.125 7.47443 177.683 7.47443C176.078 7.47443 175.038 8.61435 175.038 10.2976C175.038 12.027 176.064 13.1065 177.744 13.1065ZM176.533 9.7223C176.565 9.10085 177.037 8.60369 177.708 8.60369C178.365 8.60369 178.82 9.07244 178.823 9.7223H176.533ZM184.168 7.54545H183.085V7.17969C183.085 6.81037 183.234 6.59375 183.678 6.59375C183.859 6.59375 184.044 6.63281 184.164 6.67188L184.431 5.53551C184.242 5.47869 183.827 5.38636 183.362 5.38636C182.335 5.38636 181.572 5.9652 181.572 7.15128V7.54545H180.801V8.68182H181.572V13H183.085V8.68182H184.168V7.54545ZM185.092 13H186.605V7.54545H185.092V13ZM185.852 6.84233C186.303 6.84233 186.672 6.49787 186.672 6.07528C186.672 5.65625 186.303 5.31179 185.852 5.31179C185.404 5.31179 185.035 5.65625 185.035 6.07528C185.035 6.49787 185.404 6.84233 185.852 6.84233ZM189.329 9.84659C189.333 9.14347 189.752 8.73153 190.363 8.73153C190.97 8.73153 191.336 9.12926 191.332 9.79688V13H192.845V9.52699C192.845 8.25568 192.099 7.47443 190.963 7.47443C190.153 7.47443 189.567 7.87216 189.322 8.50781H189.258V7.54545H187.817V13H189.329V9.84659ZM196.523 13.1065C197.873 13.1065 198.782 12.4496 198.995 11.4375L197.596 11.3452C197.443 11.7607 197.052 11.9773 196.548 11.9773C195.792 11.9773 195.312 11.4766 195.312 10.6634V10.6598H199.027V10.2443C199.027 8.39062 197.904 7.47443 196.463 7.47443C194.858 7.47443 193.817 8.61435 193.817 10.2976C193.817 12.027 194.843 13.1065 196.523 13.1065ZM195.312 9.7223C195.344 9.10085 195.816 8.60369 196.488 8.60369C197.145 8.60369 197.599 9.07244 197.603 9.7223H195.312ZM202.024 13.0888C202.904 13.0888 203.363 12.581 203.572 12.1264H203.636V13H205.127V5.72727H203.618V8.46165H203.572C203.37 8.01776 202.933 7.47443 202.02 7.47443C200.824 7.47443 199.811 8.40483 199.811 10.2798C199.811 12.1051 200.781 13.0888 202.024 13.0888ZM202.503 11.8849C201.761 11.8849 201.356 11.2244 201.356 10.2727C201.356 9.32812 201.754 8.67827 202.503 8.67827C203.238 8.67827 203.65 9.29972 203.65 10.2727C203.65 11.2457 203.231 11.8849 202.503 11.8849Z" fill="white"/>
<defs>
<filter id="filter0_d" x="46" y="51" width="167" height="376" filterUnits="userSpaceOnUse" color-interpolation-filters="sRGB">
<feFlood flood-opacity="0" result="BackgroundImageFix"/>
<feColorMatrix in="SourceAlpha" type="matrix" values="0 0 0 0 0 0 0 0 0 0 0 0 0 0 0 0 0 0 127 0" result="hardAlpha"/>
<feOffset dy="4"/>
<feGaussianBlur stdDeviation="4"/>
<feColorMatrix type="matrix" values="0 0 0 0 0.25098 0 0 0 0 0.25098 0 0 0 0 0.25098 0 0 0 0.25 0"/>
<feBlend mode="normal" in2="BackgroundImageFix" result="effect1_dropShadow"/>
<feBlend mode="normal" in="SourceGraphic" in2="effect1_dropShadow" result="shape"/>
</filter>
<clipPath id="clip0">
<rect width="589" height="360" fill="white" transform="translate(54 55)"/>
</clipPath>
</defs>
</svg>
