<svg width="136" height="40" viewBox="0 0 136 40" fill="none" xmlns="http://www.w3.org/2000/svg">
<circle cx="20" cy="20" r="19.5" fill="white" stroke="white"/>
<path d="M24.095 15.5H24.305C25.1882 15.1709 25.8271 14.3936 25.979 13.4634C26.1309 12.5332 25.7725 11.593 25.04 11C24.4207 10.4917 23.6014 10.2979 22.82 10.475C22.037 10.6473 21.3748 11.1661 21.02 11.885L20 13.895L18.98 11.795C18.6252 11.0761 17.963 10.5573 17.18 10.385C16.3251 10.1945 15.4314 10.4405 14.7942 11.0415C14.1571 11.6425 13.8596 12.5204 14 13.385C14.126 14.3511 14.7795 15.1666 15.695 15.5H15.905H11V21.5H12.5V29H27.5V21.5H29V15.5H24.095ZM22.37 12.5C22.5243 12.1972 22.8041 11.9777 23.135 11.9H23.39C23.6477 11.8994 23.8973 11.9897 24.095 12.155C24.4215 12.4041 24.5785 12.8169 24.5 13.22C24.4396 13.6209 24.1626 13.9557 23.78 14.09L21.125 15.08L22.37 12.5ZM15.5 13.145C15.4215 12.7419 15.5785 12.3291 15.905 12.08C16.1027 11.9147 16.3523 11.8244 16.61 11.825H16.865C17.1959 11.9027 17.4757 12.1222 17.63 12.425L18.875 14.975L16.22 14C15.8417 13.8682 15.5655 13.5403 15.5 13.145ZM12.5 17H19.25V20H12.5V17ZM14 21.5H19.25V27.5H14V21.5ZM20.75 27.5V21.5H26V27.5H20.75ZM27.5 20H20.75V17H27.5V20Z" fill="#111111"/>
<circle cx="68" cy="20" r="19.5" fill="white" stroke="white"/>
<path d="M60.5 29.66L62.84 28.16L68 24.605L73.16 28.085L75.5 29.585V10.34H60.5V29.66ZM62 11.84H74V26.84L68 22.79L62 26.84V11.84Z" fill="#111111"/>
<circle cx="116" cy="20" r="19.5" fill="white" stroke="white"/>
<path d="M125 16.67V28.67H107V16.67H108.5V27.17H123.5V16.67H125ZM115.25 12.365V23.585H116.75V12.365L119.375 14.99L120.425 13.94L116 9.5L111.575 14L112.625 15.05L115.25 12.365Z" fill="#111111"/>
<rect width="8" height="40" transform="translate(40)" fill="#4CAEE5" fill-opacity="0.1"/>
<path d="M40 0V40" stroke="#4CAEE5" stroke-width="0.5"/>
<path d="M48 0V40" stroke="#4CAEE5" stroke-width="0.5"/>
<path d="M48 19.6547L46 20.8094L46 18.5L48 19.6547Z" fill="#4CAEE5"/>
<path d="M40 19.6547L42 20.8094L42 18.5L40 19.6547Z" fill="#4CAEE5"/>
<rect x="41" y="16" width="6" height="8" rx="1" fill="#4CAEE5"/>
<path d="M45.2891 18.8682C45.2891 18.6748 45.2549 18.5049 45.1865 18.3584C45.1201 18.21 45.0273 18.085 44.9082 17.9834C44.7871 17.8818 44.6445 17.8057 44.4805 17.7549C44.3164 17.7021 44.1377 17.6758 43.9443 17.6758C43.751 17.6758 43.5723 17.7021 43.4082 17.7549C43.2461 17.8057 43.1064 17.8818 42.9893 17.9834C42.8701 18.085 42.7773 18.21 42.7109 18.3584C42.6445 18.5049 42.6113 18.6748 42.6113 18.8682C42.6113 18.9736 42.625 19.0742 42.6523 19.1699C42.6816 19.2656 42.7227 19.3535 42.7754 19.4336C42.8242 19.5098 42.8838 19.5791 42.9541 19.6416C43.0264 19.7041 43.1064 19.7578 43.1943 19.8027C43.0908 19.8516 42.9971 19.9111 42.9131 19.9814C42.8311 20.0498 42.7607 20.127 42.7021 20.2129C42.6436 20.3008 42.5977 20.3975 42.5645 20.5029C42.5332 20.6064 42.5176 20.7168 42.5176 20.834C42.5176 21.0352 42.5537 21.2119 42.626 21.3643C42.7002 21.5166 42.8018 21.6436 42.9307 21.7451C43.0596 21.8486 43.2109 21.9268 43.3848 21.9795C43.5605 22.0322 43.75 22.0586 43.9531 22.0586C44.1543 22.0586 44.3418 22.0322 44.5156 21.9795C44.6895 21.9268 44.8408 21.8486 44.9697 21.7451C45.0967 21.6436 45.1963 21.5166 45.2686 21.3643C45.3428 21.2119 45.3799 21.0352 45.3799 20.834C45.3799 20.6816 45.3535 20.541 45.3008 20.4121C45.248 20.2832 45.1748 20.1699 45.0811 20.0723C45.0303 20.0176 44.9727 19.9688 44.9082 19.9258C44.8438 19.8809 44.7754 19.8408 44.7031 19.8057C44.7832 19.7646 44.8555 19.7168 44.9199 19.6621C44.9863 19.6055 45.0439 19.5449 45.0928 19.4805C45.1553 19.3945 45.2031 19.3008 45.2363 19.1992C45.2715 19.0957 45.2891 18.9854 45.2891 18.8682ZM44.5625 20.7783C44.5625 20.876 44.5469 20.9639 44.5156 21.042C44.4863 21.1182 44.4453 21.1836 44.3926 21.2383C44.3379 21.293 44.2734 21.335 44.1992 21.3643C44.125 21.3916 44.043 21.4053 43.9531 21.4053C43.8613 21.4053 43.7783 21.3926 43.7041 21.3672C43.6299 21.3398 43.5664 21.3008 43.5137 21.25C43.457 21.1973 43.4131 21.1309 43.3818 21.0508C43.3506 20.9707 43.335 20.8799 43.335 20.7783C43.335 20.6807 43.3496 20.5928 43.3789 20.5146C43.4082 20.4365 43.4492 20.3691 43.502 20.3125C43.5547 20.2578 43.6182 20.2158 43.6924 20.1865C43.7686 20.1572 43.8535 20.1426 43.9473 20.1426C44.041 20.1426 44.125 20.1572 44.1992 20.1865C44.2754 20.2158 44.3408 20.2578 44.3955 20.3125C44.4482 20.3691 44.4893 20.4365 44.5186 20.5146C44.5479 20.5928 44.5625 20.6807 44.5625 20.7783ZM44.4775 18.9062C44.4775 18.9922 44.4648 19.0713 44.4395 19.1436C44.416 19.2139 44.3818 19.2744 44.3369 19.3252C44.292 19.376 44.2373 19.416 44.1729 19.4453C44.1084 19.4727 44.0352 19.4863 43.9531 19.4863C43.8711 19.4863 43.7969 19.4727 43.7305 19.4453C43.666 19.416 43.6113 19.376 43.5664 19.3252C43.5195 19.2744 43.4844 19.2139 43.4609 19.1436C43.4375 19.0713 43.4258 18.9922 43.4258 18.9062C43.4258 18.8184 43.4365 18.7393 43.458 18.6689C43.4814 18.5967 43.5156 18.5361 43.5605 18.4873C43.6035 18.4385 43.6572 18.4014 43.7217 18.376C43.7861 18.3486 43.8604 18.335 43.9443 18.335C44.0264 18.335 44.0996 18.3486 44.1641 18.376C44.2305 18.4033 44.2871 18.4414 44.334 18.4902C44.3789 18.541 44.4141 18.6016 44.4395 18.6719C44.4648 18.7422 44.4775 18.8203 44.4775 18.9062Z" fill="white"/>
<rect width="8" height="40" transform="translate(88)" fill="#4CAEE5" fill-opacity="0.1"/>
<path d="M88 0V40" stroke="#4CAEE5" stroke-width="0.5"/>
<path d="M96 0V40" stroke="#4CAEE5" stroke-width="0.5"/>
<path d="M96 19.6547L94 20.8094L94 18.5L96 19.6547Z" fill="#4CAEE5"/>
<path d="M88 19.6547L90 20.8094L90 18.5L88 19.6547Z" fill="#4CAEE5"/>
<rect x="89" y="16" width="6" height="8" rx="1" fill="#4CAEE5"/>
<path d="M93.2891 18.8682C93.2891 18.6748 93.2549 18.5049 93.1865 18.3584C93.1201 18.21 93.0273 18.085 92.9082 17.9834C92.7871 17.8818 92.6445 17.8057 92.4805 17.7549C92.3164 17.7021 92.1377 17.6758 91.9443 17.6758C91.751 17.6758 91.5723 17.7021 91.4082 17.7549C91.2461 17.8057 91.1064 17.8818 90.9893 17.9834C90.8701 18.085 90.7773 18.21 90.7109 18.3584C90.6445 18.5049 90.6113 18.6748 90.6113 18.8682C90.6113 18.9736 90.625 19.0742 90.6523 19.1699C90.6816 19.2656 90.7227 19.3535 90.7754 19.4336C90.8242 19.5098 90.8838 19.5791 90.9541 19.6416C91.0264 19.7041 91.1064 19.7578 91.1943 19.8027C91.0908 19.8516 90.9971 19.9111 90.9131 19.9814C90.8311 20.0498 90.7607 20.127 90.7021 20.2129C90.6436 20.3008 90.5977 20.3975 90.5645 20.5029C90.5332 20.6064 90.5176 20.7168 90.5176 20.834C90.5176 21.0352 90.5537 21.2119 90.626 21.3643C90.7002 21.5166 90.8018 21.6436 90.9307 21.7451C91.0596 21.8486 91.2109 21.9268 91.3848 21.9795C91.5605 22.0322 91.75 22.0586 91.9531 22.0586C92.1543 22.0586 92.3418 22.0322 92.5156 21.9795C92.6895 21.9268 92.8408 21.8486 92.9697 21.7451C93.0967 21.6436 93.1963 21.5166 93.2686 21.3643C93.3428 21.2119 93.3799 21.0352 93.3799 20.834C93.3799 20.6816 93.3535 20.541 93.3008 20.4121C93.248 20.2832 93.1748 20.1699 93.0811 20.0723C93.0303 20.0176 92.9727 19.9688 92.9082 19.9258C92.8438 19.8809 92.7754 19.8408 92.7031 19.8057C92.7832 19.7646 92.8555 19.7168 92.9199 19.6621C92.9863 19.6055 93.0439 19.5449 93.0928 19.4805C93.1553 19.3945 93.2031 19.3008 93.2363 19.1992C93.2715 19.0957 93.2891 18.9854 93.2891 18.8682ZM92.5625 20.7783C92.5625 20.876 92.5469 20.9639 92.5156 21.042C92.4863 21.1182 92.4453 21.1836 92.3926 21.2383C92.3379 21.293 92.2734 21.335 92.1992 21.3643C92.125 21.3916 92.043 21.4053 91.9531 21.4053C91.8613 21.4053 91.7783 21.3926 91.7041 21.3672C91.6299 21.3398 91.5664 21.3008 91.5137 21.25C91.457 21.1973 91.4131 21.1309 91.3818 21.0508C91.3506 20.9707 91.335 20.8799 91.335 20.7783C91.335 20.6807 91.3496 20.5928 91.3789 20.5146C91.4082 20.4365 91.4492 20.3691 91.502 20.3125C91.5547 20.2578 91.6182 20.2158 91.6924 20.1865C91.7686 20.1572 91.8535 20.1426 91.9473 20.1426C92.041 20.1426 92.125 20.1572 92.1992 20.1865C92.2754 20.2158 92.3408 20.2578 92.3955 20.3125C92.4482 20.3691 92.4893 20.4365 92.5186 20.5146C92.5479 20.5928 92.5625 20.6807 92.5625 20.7783ZM92.4775 18.9062C92.4775 18.9922 92.4648 19.0713 92.4395 19.1436C92.416 19.2139 92.3818 19.2744 92.3369 19.3252C92.292 19.376 92.2373 19.416 92.1729 19.4453C92.1084 19.4727 92.0352 19.4863 91.9531 19.4863C91.8711 19.4863 91.7969 19.4727 91.7305 19.4453C91.666 19.416 91.6113 19.376 91.5664 19.3252C91.5195 19.2744 91.4844 19.2139 91.4609 19.1436C91.4375 19.0713 91.4258 18.9922 91.4258 18.9062C91.4258 18.8184 91.4365 18.7393 91.458 18.6689C91.4814 18.5967 91.5156 18.5361 91.5605 18.4873C91.6035 18.4385 91.6572 18.4014 91.7217 18.376C91.7861 18.3486 91.8604 18.335 91.9443 18.335C92.0264 18.335 92.0996 18.3486 92.1641 18.376C92.2305 18.4033 92.2871 18.4414 92.334 18.4902C92.3789 18.541 92.4141 18.6016 92.4395 18.6719C92.4648 18.7422 92.4775 18.8203 92.4775 18.9062Z" fill="white"/>
</svg>
