<svg width="125" height="151" viewBox="0 0 125 151" fill="none" xmlns="http://www.w3.org/2000/svg">
<rect x="50" width="29" height="28" rx="14" fill="#94538C"/>
<path d="M68.374 20.5V18.304H65.836V8.296H63.73C62.992 9.214 61.894 10.204 60.688 10.6V12.904C61.696 12.49 62.542 11.968 63.064 11.59V18.304H60.418V20.5H68.374Z" fill="white"/>
<line x1="65" y1="28" x2="65" y2="51" stroke="#94538C"/>
<rect y="4" width="29" height="28" rx="14" fill="#94538C"/>
<path d="M14.364 24.716C17.424 24.716 19.134 23.276 19.134 21.098C19.134 19.604 18.306 18.596 16.776 18.218C18.018 17.858 18.738 16.868 18.738 15.482C18.738 13.7 17.118 12.278 14.454 12.278C12.186 12.278 10.278 13.286 9.702 15.482L11.988 15.95C12.24 14.924 13.068 14.42 14.184 14.42C15.39 14.42 15.984 14.978 15.984 15.842C15.984 16.76 15.318 17.282 14.004 17.282H12.726V19.37H14.04C15.444 19.37 16.29 19.856 16.29 20.99C16.29 21.926 15.642 22.574 14.202 22.574C12.942 22.574 12.132 22.016 11.88 20.792L9.342 21.314C9.738 23.546 11.646 24.716 14.364 24.716Z" fill="white"/>
<line x1="15" y1="32" x2="15" y2="55" stroke="#94538C"/>
<mask id="path-7-inside-1" fill="white">
<path fill-rule="evenodd" clip-rule="evenodd" d="M71 54L65 48L59 54H8C6.34315 54 5 55.3431 5 57V148C5 149.657 6.34314 151 8 151H122C123.657 151 125 149.657 125 148V57C125 55.3431 123.657 54 122 54H71Z"/>
</mask>
<path fill-rule="evenodd" clip-rule="evenodd" d="M71 54L65 48L59 54H8C6.34315 54 5 55.3431 5 57V148C5 149.657 6.34314 151 8 151H122C123.657 151 125 149.657 125 148V57C125 55.3431 123.657 54 122 54H71Z" fill="white"/>
<path d="M65 48L65.7071 47.2929L65 46.5858L64.2929 47.2929L65 48ZM71 54L70.2929 54.7071L70.5858 55H71V54ZM59 54V55H59.4142L59.7071 54.7071L59 54ZM64.2929 48.7071L70.2929 54.7071L71.7071 53.2929L65.7071 47.2929L64.2929 48.7071ZM59.7071 54.7071L65.7071 48.7071L64.2929 47.2929L58.2929 53.2929L59.7071 54.7071ZM8 55H59V53H8V55ZM6 57C6 55.8954 6.89543 55 8 55V53C5.79086 53 4 54.7909 4 57H6ZM6 148V57H4V148H6ZM8 150C6.89543 150 6 149.105 6 148H4C4 150.209 5.79086 152 8 152V150ZM122 150H8V152H122V150ZM124 148C124 149.105 123.105 150 122 150V152C124.209 152 126 150.209 126 148H124ZM124 57V148H126V57H124ZM122 55C123.105 55 124 55.8954 124 57H126C126 54.7909 124.209 53 122 53V55ZM71 55H122V53H71V55Z" fill="#D5D5D5" mask="url(#path-7-inside-1)"/>
</svg>
