<svg width="146" height="118" viewBox="0 0 146 118" fill="none" xmlns="http://www.w3.org/2000/svg">
<mask id="path-1-inside-1" fill="white">
<path fill-rule="evenodd" clip-rule="evenodd" d="M34 16C32.8954 16 32 16.8954 32 18V109C32 110.105 32.8954 111 34 111H82.5L88.5 117L94.5 111H143C144.105 111 145 110.105 145 109V18C145 16.8954 144.105 16 143 16H34Z"/>
</mask>
<path fill-rule="evenodd" clip-rule="evenodd" d="M34 16C32.8954 16 32 16.8954 32 18V109C32 110.105 32.8954 111 34 111H82.5L88.5 117L94.5 111H143C144.105 111 145 110.105 145 109V18C145 16.8954 144.105 16 143 16H34Z" fill="white"/>
<path d="M82.5 111L83.2071 110.293L82.9142 110H82.5V111ZM88.5 117L87.7929 117.707L88.5 118.414L89.2071 117.707L88.5 117ZM94.5 111V110H94.0858L93.7929 110.293L94.5 111ZM33 18C33 17.4477 33.4477 17 34 17V15C32.3431 15 31 16.3432 31 18H33ZM33 109V18H31V109H33ZM34 110C33.4477 110 33 109.552 33 109H31C31 110.657 32.3431 112 34 112V110ZM82.5 110H34V112H82.5V110ZM89.2071 116.293L83.2071 110.293L81.7929 111.707L87.7929 117.707L89.2071 116.293ZM93.7929 110.293L87.7929 116.293L89.2071 117.707L95.2071 111.707L93.7929 110.293ZM143 110H94.5V112H143V110ZM144 109C144 109.552 143.552 110 143 110V112C144.657 112 146 110.657 146 109H144ZM144 18V109H146V18H144ZM143 17C143.552 17 144 17.4477 144 18H146C146 16.3431 144.657 15 143 15V17ZM34 17H143V15H34V17Z" fill="#D5D5D5" mask="url(#path-1-inside-1)"/>
<rect x="32" y="16" width="113" height="94" rx="2" fill="#CBACC7" fill-opacity="0.5"/>
<rect x="36.5" y="20.5" width="104" height="85" stroke="#94538C" stroke-dasharray="2 2"/>
<path d="M15 16L7 16" stroke="#D50032" stroke-width="0.5"/>
<path d="M15 110L7 110" stroke="#D50032" stroke-width="0.5"/>
<path d="M11 110L9.75 108L12.25 108L11 110Z" fill="#D50032"/>
<path d="M11 16L9.75 18L12.25 18L11 16Z" fill="#D50032"/>
<path d="M11 18L11 108" stroke="#D50032" stroke-width="0.5"/>
<rect x="0.5" y="59" width="21" height="8" rx="1" fill="#D50032"/>
<path d="M3.21875 62.2666V60.5H2.4043V65H3.21875V62.7119C3.25 62.6709 3.28418 62.6338 3.32129 62.6006C3.36035 62.5674 3.40332 62.5391 3.4502 62.5156C3.50098 62.4883 3.55762 62.4678 3.62012 62.4541C3.68262 62.4404 3.75 62.4336 3.82227 62.4336C3.91602 62.4336 4 62.4463 4.07422 62.4717C4.14844 62.4951 4.21191 62.5322 4.26465 62.583C4.31738 62.6338 4.35742 62.7002 4.38477 62.7822C4.41406 62.8643 4.42871 62.9619 4.42871 63.0752V65H5.24316V63.0811C5.24316 62.8486 5.21484 62.6504 5.1582 62.4863C5.10352 62.3203 5.02637 62.1846 4.92676 62.0791C4.82715 61.9736 4.70801 61.8965 4.56934 61.8477C4.43066 61.7969 4.27832 61.7715 4.1123 61.7715C3.99902 61.7715 3.8916 61.7881 3.79004 61.8213C3.68848 61.8545 3.5957 61.9014 3.51172 61.9619C3.45703 62.001 3.4043 62.0469 3.35352 62.0996C3.30469 62.1504 3.25977 62.2061 3.21875 62.2666ZM8.86133 63.4473V62.7881H6.4209V63.4473H8.86133ZM11.6064 65V60.7344H11.5625L9.70508 61.4053V62.1143L10.7832 61.7275V65H11.6064ZM15.9922 63.377V62.3574C15.9922 62.082 15.96 61.8398 15.8955 61.6309C15.8311 61.4199 15.7393 61.2432 15.6201 61.1006C15.499 60.96 15.3525 60.8535 15.1807 60.7812C15.0088 60.709 14.8154 60.6729 14.6006 60.6729C14.3877 60.6729 14.1953 60.709 14.0234 60.7812C13.8535 60.8535 13.709 60.96 13.5898 61.1006C13.4688 61.2432 13.376 61.4199 13.3115 61.6309C13.2471 61.8398 13.2148 62.082 13.2148 62.3574V63.377C13.2148 63.6523 13.2471 63.8955 13.3115 64.1064C13.3779 64.3154 13.4717 64.4902 13.5928 64.6309C13.7119 64.7734 13.8574 64.8809 14.0293 64.9531C14.2012 65.0254 14.3936 65.0615 14.6064 65.0615C14.8213 65.0615 15.0146 65.0254 15.1865 64.9531C15.3584 64.8809 15.5039 64.7734 15.623 64.6309C15.7422 64.4902 15.833 64.3154 15.8955 64.1064C15.96 63.8955 15.9922 63.6523 15.9922 63.377ZM14.0352 63.0254C14.0352 62.9648 14.0352 62.9189 14.0352 62.8877C14.0352 62.8564 14.0352 62.7939 14.0352 62.7002V62.2285C14.0352 62.0703 14.0469 61.9336 14.0703 61.8184C14.0957 61.7031 14.1338 61.6094 14.1846 61.5371C14.2314 61.4688 14.2891 61.418 14.3574 61.3848C14.4277 61.3496 14.5088 61.332 14.6006 61.332C14.6826 61.332 14.7559 61.3457 14.8203 61.373C14.8867 61.3984 14.9424 61.4385 14.9873 61.4932C15.0459 61.5615 15.0898 61.6533 15.1191 61.7686C15.1504 61.8818 15.168 62.0186 15.1719 62.1787L14.0352 63.0254ZM15.1719 63.5C15.1719 63.6582 15.1592 63.7959 15.1338 63.9131C15.1104 64.0283 15.0742 64.123 15.0254 64.1973C14.9785 64.2676 14.9199 64.3203 14.8496 64.3555C14.7793 64.3887 14.6982 64.4053 14.6064 64.4053C14.5068 64.4053 14.4209 64.3857 14.3486 64.3467C14.2764 64.3076 14.2168 64.248 14.1699 64.168C14.1289 64.1016 14.0967 64.0186 14.0732 63.9189C14.0518 63.8193 14.0391 63.7051 14.0352 63.5762L15.1719 62.7324C15.1719 62.7891 15.1719 62.833 15.1719 62.8643C15.1719 62.8936 15.1719 62.9404 15.1719 63.0049V63.5ZM19.5957 63.377V62.3574C19.5957 62.082 19.5635 61.8398 19.499 61.6309C19.4346 61.4199 19.3428 61.2432 19.2236 61.1006C19.1025 60.96 18.9561 60.8535 18.7842 60.7812C18.6123 60.709 18.4189 60.6729 18.2041 60.6729C17.9912 60.6729 17.7988 60.709 17.627 60.7812C17.457 60.8535 17.3125 60.96 17.1934 61.1006C17.0723 61.2432 16.9795 61.4199 16.915 61.6309C16.8506 61.8398 16.8184 62.082 16.8184 62.3574V63.377C16.8184 63.6523 16.8506 63.8955 16.915 64.1064C16.9814 64.3154 17.0752 64.4902 17.1963 64.6309C17.3154 64.7734 17.4609 64.8809 17.6328 64.9531C17.8047 65.0254 17.9971 65.0615 18.21 65.0615C18.4248 65.0615 18.6182 65.0254 18.79 64.9531C18.9619 64.8809 19.1074 64.7734 19.2266 64.6309C19.3457 64.4902 19.4365 64.3154 19.499 64.1064C19.5635 63.8955 19.5957 63.6523 19.5957 63.377ZM17.6387 63.0254C17.6387 62.9648 17.6387 62.9189 17.6387 62.8877C17.6387 62.8564 17.6387 62.7939 17.6387 62.7002V62.2285C17.6387 62.0703 17.6504 61.9336 17.6738 61.8184C17.6992 61.7031 17.7373 61.6094 17.7881 61.5371C17.835 61.4688 17.8926 61.418 17.9609 61.3848C18.0312 61.3496 18.1123 61.332 18.2041 61.332C18.2861 61.332 18.3594 61.3457 18.4238 61.373C18.4902 61.3984 18.5459 61.4385 18.5908 61.4932C18.6494 61.5615 18.6934 61.6533 18.7227 61.7686C18.7539 61.8818 18.7715 62.0186 18.7754 62.1787L17.6387 63.0254ZM18.7754 63.5C18.7754 63.6582 18.7627 63.7959 18.7373 63.9131C18.7139 64.0283 18.6777 64.123 18.6289 64.1973C18.582 64.2676 18.5234 64.3203 18.4531 64.3555C18.3828 64.3887 18.3018 64.4053 18.21 64.4053C18.1104 64.4053 18.0244 64.3857 17.9521 64.3467C17.8799 64.3076 17.8203 64.248 17.7734 64.168C17.7324 64.1016 17.7002 64.0186 17.6768 63.9189C17.6553 63.8193 17.6426 63.7051 17.6387 63.5762L18.7754 62.7324C18.7754 62.7891 18.7754 62.833 18.7754 62.8643C18.7754 62.8936 18.7754 62.9404 18.7754 63.0049V63.5Z" fill="white"/>
<path d="M32 0V8" stroke="#D50032" stroke-width="0.5"/>
<path d="M145 0V8" stroke="#D50032" stroke-width="0.5"/>
<path d="M145 4L143 5.25L143 2.75L145 4Z" fill="#D50032"/>
<path d="M32 4L34 5.25L34 2.75L32 4Z" fill="#D50032"/>
<path d="M34 4L143 4" stroke="#D50032" stroke-width="0.5"/>
<rect x="78.5" width="21" height="8" rx="1" fill="#D50032"/>
<path d="M80.6387 6H81.3535L81.6904 4.30664L81.7549 3.98438L81.8223 4.30664L82.1709 6H82.8857L83.4541 2.83008H82.707L82.4727 4.69922L82.4316 5.00684L82.376 4.70508L82.0332 2.83008H81.4883L81.1455 4.71387L81.0898 5.01562L81.0518 4.71387L80.8145 2.83008H80.0703L80.6387 6ZM86.8613 4.44727V3.78809H84.4209V4.44727H86.8613ZM89.6064 6V1.73438H89.5625L87.7051 2.40527V3.11426L88.7832 2.72754V6H89.6064ZM93.9922 4.37695V3.35742C93.9922 3.08203 93.96 2.83984 93.8955 2.63086C93.8311 2.41992 93.7393 2.24316 93.6201 2.10059C93.499 1.95996 93.3525 1.85352 93.1807 1.78125C93.0088 1.70898 92.8154 1.67285 92.6006 1.67285C92.3877 1.67285 92.1953 1.70898 92.0234 1.78125C91.8535 1.85352 91.709 1.95996 91.5898 2.10059C91.4688 2.24316 91.376 2.41992 91.3115 2.63086C91.2471 2.83984 91.2148 3.08203 91.2148 3.35742V4.37695C91.2148 4.65234 91.2471 4.89551 91.3115 5.10645C91.3779 5.31543 91.4717 5.49023 91.5928 5.63086C91.7119 5.77344 91.8574 5.88086 92.0293 5.95312C92.2012 6.02539 92.3936 6.06152 92.6064 6.06152C92.8213 6.06152 93.0146 6.02539 93.1865 5.95312C93.3584 5.88086 93.5039 5.77344 93.623 5.63086C93.7422 5.49023 93.833 5.31543 93.8955 5.10645C93.96 4.89551 93.9922 4.65234 93.9922 4.37695ZM92.0352 4.02539C92.0352 3.96484 92.0352 3.91895 92.0352 3.8877C92.0352 3.85645 92.0352 3.79395 92.0352 3.7002V3.22852C92.0352 3.07031 92.0469 2.93359 92.0703 2.81836C92.0957 2.70312 92.1338 2.60938 92.1846 2.53711C92.2314 2.46875 92.2891 2.41797 92.3574 2.38477C92.4277 2.34961 92.5088 2.33203 92.6006 2.33203C92.6826 2.33203 92.7559 2.3457 92.8203 2.37305C92.8867 2.39844 92.9424 2.43848 92.9873 2.49316C93.0459 2.56152 93.0898 2.65332 93.1191 2.76855C93.1504 2.88184 93.168 3.01855 93.1719 3.17871L92.0352 4.02539ZM93.1719 4.5C93.1719 4.6582 93.1592 4.7959 93.1338 4.91309C93.1104 5.02832 93.0742 5.12305 93.0254 5.19727C92.9785 5.26758 92.9199 5.32031 92.8496 5.35547C92.7793 5.38867 92.6982 5.40527 92.6064 5.40527C92.5068 5.40527 92.4209 5.38574 92.3486 5.34668C92.2764 5.30762 92.2168 5.24805 92.1699 5.16797C92.1289 5.10156 92.0967 5.01855 92.0732 4.91895C92.0518 4.81934 92.0391 4.70508 92.0352 4.57617L93.1719 3.73242C93.1719 3.78906 93.1719 3.83301 93.1719 3.86426C93.1719 3.89355 93.1719 3.94043 93.1719 4.00488V4.5ZM97.5957 4.37695V3.35742C97.5957 3.08203 97.5635 2.83984 97.499 2.63086C97.4346 2.41992 97.3428 2.24316 97.2236 2.10059C97.1025 1.95996 96.9561 1.85352 96.7842 1.78125C96.6123 1.70898 96.4189 1.67285 96.2041 1.67285C95.9912 1.67285 95.7988 1.70898 95.627 1.78125C95.457 1.85352 95.3125 1.95996 95.1934 2.10059C95.0723 2.24316 94.9795 2.41992 94.915 2.63086C94.8506 2.83984 94.8184 3.08203 94.8184 3.35742V4.37695C94.8184 4.65234 94.8506 4.89551 94.915 5.10645C94.9814 5.31543 95.0752 5.49023 95.1963 5.63086C95.3154 5.77344 95.4609 5.88086 95.6328 5.95312C95.8047 6.02539 95.9971 6.06152 96.21 6.06152C96.4248 6.06152 96.6182 6.02539 96.79 5.95312C96.9619 5.88086 97.1074 5.77344 97.2266 5.63086C97.3457 5.49023 97.4365 5.31543 97.499 5.10645C97.5635 4.89551 97.5957 4.65234 97.5957 4.37695ZM95.6387 4.02539C95.6387 3.96484 95.6387 3.91895 95.6387 3.8877C95.6387 3.85645 95.6387 3.79395 95.6387 3.7002V3.22852C95.6387 3.07031 95.6504 2.93359 95.6738 2.81836C95.6992 2.70312 95.7373 2.60938 95.7881 2.53711C95.835 2.46875 95.8926 2.41797 95.9609 2.38477C96.0312 2.34961 96.1123 2.33203 96.2041 2.33203C96.2861 2.33203 96.3594 2.3457 96.4238 2.37305C96.4902 2.39844 96.5459 2.43848 96.5908 2.49316C96.6494 2.56152 96.6934 2.65332 96.7227 2.76855C96.7539 2.88184 96.7715 3.01855 96.7754 3.17871L95.6387 4.02539ZM96.7754 4.5C96.7754 4.6582 96.7627 4.7959 96.7373 4.91309C96.7139 5.02832 96.6777 5.12305 96.6289 5.19727C96.582 5.26758 96.5234 5.32031 96.4531 5.35547C96.3828 5.38867 96.3018 5.40527 96.21 5.40527C96.1104 5.40527 96.0244 5.38574 95.9521 5.34668C95.8799 5.30762 95.8203 5.24805 95.7734 5.16797C95.7324 5.10156 95.7002 5.01855 95.6768 4.91895C95.6553 4.81934 95.6426 4.70508 95.6387 4.57617L96.7754 3.73242C96.7754 3.78906 96.7754 3.83301 96.7754 3.86426C96.7754 3.89355 96.7754 3.94043 96.7754 4.00488V4.5Z" fill="white"/>
<path d="M115 16L107 16" stroke="#D50032" stroke-width="0.5"/>
<path d="M115 22L107 22" stroke="#D50032" stroke-width="0.5"/>
<path d="M111 22L109.75 20L112.25 20L111 22Z" fill="#D50032"/>
<path d="M111 16L109.75 18L112.25 18L111 16Z" fill="#D50032"/>
<path d="M111 18L111 20" stroke="#D50032" stroke-width="0.5"/>
<rect x="108" y="15" width="6" height="8" rx="1" fill="#D50032"/>
<path d="M111.773 16.6992H111.665C111.312 16.6992 111 16.7588 110.73 16.8779C110.461 16.9951 110.235 17.1582 110.054 17.3672C109.872 17.5781 109.735 17.8281 109.644 18.1172C109.552 18.4043 109.506 18.7168 109.506 19.0547V19.3682C109.506 19.6123 109.54 19.8379 109.608 20.0449C109.679 20.25 109.778 20.4277 109.907 20.5781C110.034 20.7285 110.189 20.8467 110.373 20.9326C110.557 21.0166 110.763 21.0586 110.991 21.0586C111.21 21.0586 111.407 21.0215 111.583 20.9473C111.759 20.8711 111.908 20.7676 112.031 20.6367C112.154 20.5059 112.249 20.3516 112.315 20.1738C112.382 19.9961 112.415 19.8037 112.415 19.5967C112.415 19.4033 112.39 19.2197 112.339 19.0459C112.29 18.8701 112.215 18.7158 112.113 18.583C112.012 18.4521 111.885 18.3486 111.732 18.2725C111.582 18.1943 111.405 18.1553 111.202 18.1553C111.103 18.1553 111.01 18.167 110.924 18.1904C110.838 18.2139 110.759 18.2441 110.687 18.2812C110.612 18.3203 110.546 18.3643 110.487 18.4131C110.429 18.46 110.377 18.5078 110.332 18.5566C110.35 18.3789 110.392 18.2178 110.458 18.0732C110.526 17.9287 110.619 17.8047 110.736 17.7012C110.852 17.5977 110.991 17.5176 111.155 17.4609C111.321 17.4043 111.512 17.376 111.727 17.376H111.773V16.6992ZM110.965 18.8086C111.066 18.8086 111.156 18.8291 111.234 18.8701C111.314 18.9092 111.382 18.9639 111.437 19.0342C111.491 19.1064 111.533 19.1914 111.562 19.2891C111.592 19.3867 111.606 19.4932 111.606 19.6084C111.606 19.7236 111.592 19.8301 111.562 19.9277C111.533 20.0234 111.491 20.1064 111.437 20.1768C111.382 20.2471 111.315 20.3027 111.237 20.3438C111.159 20.3828 111.072 20.4023 110.977 20.4023C110.883 20.4023 110.796 20.3828 110.716 20.3438C110.636 20.3047 110.566 20.2461 110.508 20.168C110.449 20.0918 110.403 19.9951 110.37 19.8779C110.339 19.7607 110.323 19.624 110.323 19.4678V19.2275C110.351 19.1689 110.384 19.1152 110.423 19.0664C110.464 19.0176 110.509 18.9746 110.558 18.9375C110.614 18.8965 110.677 18.8652 110.745 18.8438C110.813 18.8203 110.887 18.8086 110.965 18.8086Z" fill="white"/>
<path d="M104 111L96 111" stroke="#D50032" stroke-width="0.5"/>
<path d="M104 117L96 117" stroke="#D50032" stroke-width="0.5"/>
<path d="M100 117L98.75 115L101.25 115L100 117Z" fill="#D50032"/>
<path d="M100 111L98.75 113L101.25 113L100 111Z" fill="#D50032"/>
<path d="M100 113L100 115" stroke="#D50032" stroke-width="0.5"/>
<rect x="97" y="110" width="6" height="8" rx="1" fill="#D50032"/>
<path d="M100.773 111.699H100.665C100.312 111.699 100 111.759 99.7305 111.878C99.4609 111.995 99.2354 112.158 99.0537 112.367C98.8721 112.578 98.7354 112.828 98.6436 113.117C98.5518 113.404 98.5059 113.717 98.5059 114.055V114.368C98.5059 114.612 98.54 114.838 98.6084 115.045C98.6787 115.25 98.7783 115.428 98.9072 115.578C99.0342 115.729 99.1895 115.847 99.373 115.933C99.5566 116.017 99.7627 116.059 99.9912 116.059C100.21 116.059 100.407 116.021 100.583 115.947C100.759 115.871 100.908 115.768 101.031 115.637C101.154 115.506 101.249 115.352 101.315 115.174C101.382 114.996 101.415 114.804 101.415 114.597C101.415 114.403 101.39 114.22 101.339 114.046C101.29 113.87 101.215 113.716 101.113 113.583C101.012 113.452 100.885 113.349 100.732 113.272C100.582 113.194 100.405 113.155 100.202 113.155C100.103 113.155 100.01 113.167 99.9238 113.19C99.8379 113.214 99.7588 113.244 99.6865 113.281C99.6123 113.32 99.5459 113.364 99.4873 113.413C99.4287 113.46 99.377 113.508 99.332 113.557C99.3496 113.379 99.3916 113.218 99.458 113.073C99.5264 112.929 99.6191 112.805 99.7363 112.701C99.8516 112.598 99.9912 112.518 100.155 112.461C100.321 112.404 100.512 112.376 100.727 112.376H100.773V111.699ZM99.9648 113.809C100.066 113.809 100.156 113.829 100.234 113.87C100.314 113.909 100.382 113.964 100.437 114.034C100.491 114.106 100.533 114.191 100.562 114.289C100.592 114.387 100.606 114.493 100.606 114.608C100.606 114.724 100.592 114.83 100.562 114.928C100.533 115.023 100.491 115.106 100.437 115.177C100.382 115.247 100.315 115.303 100.237 115.344C100.159 115.383 100.072 115.402 99.9766 115.402C99.8828 115.402 99.7959 115.383 99.7158 115.344C99.6357 115.305 99.5664 115.246 99.5078 115.168C99.4492 115.092 99.4033 114.995 99.3701 114.878C99.3389 114.761 99.3232 114.624 99.3232 114.468V114.228C99.3506 114.169 99.3838 114.115 99.4229 114.066C99.4639 114.018 99.5088 113.975 99.5576 113.938C99.6143 113.896 99.6768 113.865 99.7451 113.844C99.8135 113.82 99.8867 113.809 99.9648 113.809Z" fill="white"/>
<path d="M83 100V108" stroke="#D50032" stroke-width="0.5"/>
<path d="M95 100V108" stroke="#D50032" stroke-width="0.5"/>
<path d="M95 104L93 105.25L93 102.75L95 104Z" fill="#D50032"/>
<path d="M83 104L85 105.25L85 102.75L83 104Z" fill="#D50032"/>
<path d="M85 104H93" stroke="#D50032" stroke-width="0.5"/>
<rect x="84" y="100" width="10" height="8" rx="1" fill="#D50032"/>
<path d="M87.8047 106V101.734H87.7607L85.9033 102.405V103.114L86.9814 102.728V106H87.8047ZM92.2021 106V105.347H90.3301L91.1328 104.497C91.2715 104.354 91.3975 104.219 91.5107 104.09C91.624 103.959 91.7217 103.831 91.8037 103.706C91.8838 103.581 91.9453 103.455 91.9883 103.328C92.0332 103.199 92.0557 103.064 92.0557 102.924C92.0557 102.738 92.0264 102.569 91.9678 102.417C91.9092 102.263 91.8242 102.131 91.7129 102.021C91.5996 101.912 91.459 101.827 91.291 101.767C91.125 101.706 90.9336 101.676 90.7168 101.676C90.4902 101.676 90.2832 101.713 90.0957 101.787C89.9102 101.859 89.752 101.959 89.6211 102.086C89.4883 102.213 89.3857 102.361 89.3135 102.531C89.2412 102.699 89.2051 102.878 89.2051 103.067H90.0225C90.0225 102.952 90.0371 102.85 90.0664 102.76C90.0957 102.67 90.1387 102.595 90.1953 102.534C90.25 102.476 90.3184 102.432 90.4004 102.402C90.4844 102.371 90.5811 102.355 90.6904 102.355C90.7744 102.355 90.8506 102.369 90.9189 102.396C90.9893 102.424 91.0498 102.463 91.1006 102.514C91.1494 102.566 91.1875 102.63 91.2148 102.704C91.2422 102.778 91.2559 102.863 91.2559 102.959C91.2559 103.023 91.2451 103.09 91.2236 103.158C91.2041 103.227 91.1719 103.3 91.127 103.378C91.0801 103.458 91.0195 103.546 90.9453 103.642C90.8711 103.737 90.7803 103.844 90.6729 103.961L89.293 105.443V106H92.2021Z" fill="white"/>
</svg>
