<svg width="142" height="112" viewBox="0 0 142 112" fill="none" xmlns="http://www.w3.org/2000/svg">
<g filter="url(#filter0_d)">
<mask id="path-1-inside-1" fill="white">
<path d="M4 14C4 12.8954 4.89543 12 6 12H115C116.105 12 117 12.8954 117 14V104C117 105.105 116.105 106 115 106H6C4.89543 106 4 105.105 4 104V14Z"/>
</mask>
<path d="M4 14C4 12.8954 4.89543 12 6 12H115C116.105 12 117 12.8954 117 14V104C117 105.105 116.105 106 115 106H6C4.89543 106 4 105.105 4 104V14Z" fill="white"/>
<path d="M6 13H115V11H6V13ZM116 14V104H118V14H116ZM115 105H6V107H115V105ZM5 104V14H3V104H5ZM6 105C5.44772 105 5 104.552 5 104H3C3 105.657 4.34315 107 6 107V105ZM116 104C116 104.552 115.552 105 115 105V107C116.657 107 118 105.657 118 104H116ZM115 13C115.552 13 116 13.4477 116 14H118C118 12.3431 116.657 11 115 11V13ZM6 11C4.34315 11 3 12.3431 3 14H5C5 13.4477 5.44772 13 6 13V11Z" fill="#D5D5D5" mask="url(#path-1-inside-1)"/>
</g>
<rect x="4" y="12" width="113" height="94" rx="2" fill="#CBACC7" fill-opacity="0.5"/>
<rect x="8.5" y="16.5" width="104" height="85" stroke="#94538C" stroke-dasharray="2 2"/>
<path d="M4 0V8" stroke="#D50032" stroke-width="0.5"/>
<path d="M117 0V8" stroke="#D50032" stroke-width="0.5"/>
<path d="M117 4L115 5.25L115 2.75L117 4Z" fill="#D50032"/>
<path d="M4 4L6 5.25L6 2.75L4 4Z" fill="#D50032"/>
<path d="M6 4L115 4" stroke="#D50032" stroke-width="0.5"/>
<rect x="50.5" width="21" height="8" rx="1" fill="#D50032"/>
<path d="M52.6387 6H53.3535L53.6904 4.30664L53.7549 3.98438L53.8223 4.30664L54.1709 6H54.8857L55.4541 2.83008H54.707L54.4727 4.69922L54.4316 5.00684L54.376 4.70508L54.0332 2.83008H53.4883L53.1455 4.71387L53.0898 5.01562L53.0518 4.71387L52.8145 2.83008H52.0703L52.6387 6ZM58.8613 4.44727V3.78809H56.4209V4.44727H58.8613ZM61.6064 6V1.73438H61.5625L59.7051 2.40527V3.11426L60.7832 2.72754V6H61.6064ZM65.9922 4.37695V3.35742C65.9922 3.08203 65.96 2.83984 65.8955 2.63086C65.8311 2.41992 65.7393 2.24316 65.6201 2.10059C65.499 1.95996 65.3525 1.85352 65.1807 1.78125C65.0088 1.70898 64.8154 1.67285 64.6006 1.67285C64.3877 1.67285 64.1953 1.70898 64.0234 1.78125C63.8535 1.85352 63.709 1.95996 63.5898 2.10059C63.4688 2.24316 63.376 2.41992 63.3115 2.63086C63.2471 2.83984 63.2148 3.08203 63.2148 3.35742V4.37695C63.2148 4.65234 63.2471 4.89551 63.3115 5.10645C63.3779 5.31543 63.4717 5.49023 63.5928 5.63086C63.7119 5.77344 63.8574 5.88086 64.0293 5.95312C64.2012 6.02539 64.3936 6.06152 64.6064 6.06152C64.8213 6.06152 65.0146 6.02539 65.1865 5.95312C65.3584 5.88086 65.5039 5.77344 65.623 5.63086C65.7422 5.49023 65.833 5.31543 65.8955 5.10645C65.96 4.89551 65.9922 4.65234 65.9922 4.37695ZM64.0352 4.02539C64.0352 3.96484 64.0352 3.91895 64.0352 3.8877C64.0352 3.85645 64.0352 3.79395 64.0352 3.7002V3.22852C64.0352 3.07031 64.0469 2.93359 64.0703 2.81836C64.0957 2.70312 64.1338 2.60938 64.1846 2.53711C64.2314 2.46875 64.2891 2.41797 64.3574 2.38477C64.4277 2.34961 64.5088 2.33203 64.6006 2.33203C64.6826 2.33203 64.7559 2.3457 64.8203 2.37305C64.8867 2.39844 64.9424 2.43848 64.9873 2.49316C65.0459 2.56152 65.0898 2.65332 65.1191 2.76855C65.1504 2.88184 65.168 3.01855 65.1719 3.17871L64.0352 4.02539ZM65.1719 4.5C65.1719 4.6582 65.1592 4.7959 65.1338 4.91309C65.1104 5.02832 65.0742 5.12305 65.0254 5.19727C64.9785 5.26758 64.9199 5.32031 64.8496 5.35547C64.7793 5.38867 64.6982 5.40527 64.6064 5.40527C64.5068 5.40527 64.4209 5.38574 64.3486 5.34668C64.2764 5.30762 64.2168 5.24805 64.1699 5.16797C64.1289 5.10156 64.0967 5.01855 64.0732 4.91895C64.0518 4.81934 64.0391 4.70508 64.0352 4.57617L65.1719 3.73242C65.1719 3.78906 65.1719 3.83301 65.1719 3.86426C65.1719 3.89355 65.1719 3.94043 65.1719 4.00488V4.5ZM69.5957 4.37695V3.35742C69.5957 3.08203 69.5635 2.83984 69.499 2.63086C69.4346 2.41992 69.3428 2.24316 69.2236 2.10059C69.1025 1.95996 68.9561 1.85352 68.7842 1.78125C68.6123 1.70898 68.4189 1.67285 68.2041 1.67285C67.9912 1.67285 67.7988 1.70898 67.627 1.78125C67.457 1.85352 67.3125 1.95996 67.1934 2.10059C67.0723 2.24316 66.9795 2.41992 66.915 2.63086C66.8506 2.83984 66.8184 3.08203 66.8184 3.35742V4.37695C66.8184 4.65234 66.8506 4.89551 66.915 5.10645C66.9814 5.31543 67.0752 5.49023 67.1963 5.63086C67.3154 5.77344 67.4609 5.88086 67.6328 5.95312C67.8047 6.02539 67.9971 6.06152 68.21 6.06152C68.4248 6.06152 68.6182 6.02539 68.79 5.95312C68.9619 5.88086 69.1074 5.77344 69.2266 5.63086C69.3457 5.49023 69.4365 5.31543 69.499 5.10645C69.5635 4.89551 69.5957 4.65234 69.5957 4.37695ZM67.6387 4.02539C67.6387 3.96484 67.6387 3.91895 67.6387 3.8877C67.6387 3.85645 67.6387 3.79395 67.6387 3.7002V3.22852C67.6387 3.07031 67.6504 2.93359 67.6738 2.81836C67.6992 2.70312 67.7373 2.60938 67.7881 2.53711C67.835 2.46875 67.8926 2.41797 67.9609 2.38477C68.0312 2.34961 68.1123 2.33203 68.2041 2.33203C68.2861 2.33203 68.3594 2.3457 68.4238 2.37305C68.4902 2.39844 68.5459 2.43848 68.5908 2.49316C68.6494 2.56152 68.6934 2.65332 68.7227 2.76855C68.7539 2.88184 68.7715 3.01855 68.7754 3.17871L67.6387 4.02539ZM68.7754 4.5C68.7754 4.6582 68.7627 4.7959 68.7373 4.91309C68.7139 5.02832 68.6777 5.12305 68.6289 5.19727C68.582 5.26758 68.5234 5.32031 68.4531 5.35547C68.3828 5.38867 68.3018 5.40527 68.21 5.40527C68.1104 5.40527 68.0244 5.38574 67.9521 5.34668C67.8799 5.30762 67.8203 5.24805 67.7734 5.16797C67.7324 5.10156 67.7002 5.01855 67.6768 4.91895C67.6553 4.81934 67.6426 4.70508 67.6387 4.57617L68.7754 3.73242C68.7754 3.78906 68.7754 3.83301 68.7754 3.86426C68.7754 3.89355 68.7754 3.94043 68.7754 4.00488V4.5Z" fill="white"/>
<path d="M135 12L127 12" stroke="#D50032" stroke-width="0.5"/>
<path d="M135 106L127 106" stroke="#D50032" stroke-width="0.5"/>
<path d="M131 106L129.75 104L132.25 104L131 106Z" fill="#D50032"/>
<path d="M131 12L129.75 14L132.25 14L131 12Z" fill="#D50032"/>
<path d="M131 14L131 104" stroke="#D50032" stroke-width="0.5"/>
<rect x="120.5" y="55" width="21" height="8" rx="1" fill="#D50032"/>
<path d="M123.219 58.2666V56.5H122.404V61H123.219V58.7119C123.25 58.6709 123.284 58.6338 123.321 58.6006C123.36 58.5674 123.403 58.5391 123.45 58.5156C123.501 58.4883 123.558 58.4678 123.62 58.4541C123.683 58.4404 123.75 58.4336 123.822 58.4336C123.916 58.4336 124 58.4463 124.074 58.4717C124.148 58.4951 124.212 58.5322 124.265 58.583C124.317 58.6338 124.357 58.7002 124.385 58.7822C124.414 58.8643 124.429 58.9619 124.429 59.0752V61H125.243V59.0811C125.243 58.8486 125.215 58.6504 125.158 58.4863C125.104 58.3203 125.026 58.1846 124.927 58.0791C124.827 57.9736 124.708 57.8965 124.569 57.8477C124.431 57.7969 124.278 57.7715 124.112 57.7715C123.999 57.7715 123.892 57.7881 123.79 57.8213C123.688 57.8545 123.596 57.9014 123.512 57.9619C123.457 58.001 123.404 58.0469 123.354 58.0996C123.305 58.1504 123.26 58.2061 123.219 58.2666ZM128.861 59.4473V58.7881H126.421V59.4473H128.861ZM131.606 61V56.7344H131.562L129.705 57.4053V58.1143L130.783 57.7275V61H131.606ZM135.992 59.377V58.3574C135.992 58.082 135.96 57.8398 135.896 57.6309C135.831 57.4199 135.739 57.2432 135.62 57.1006C135.499 56.96 135.353 56.8535 135.181 56.7812C135.009 56.709 134.815 56.6729 134.601 56.6729C134.388 56.6729 134.195 56.709 134.023 56.7812C133.854 56.8535 133.709 56.96 133.59 57.1006C133.469 57.2432 133.376 57.4199 133.312 57.6309C133.247 57.8398 133.215 58.082 133.215 58.3574V59.377C133.215 59.6523 133.247 59.8955 133.312 60.1064C133.378 60.3154 133.472 60.4902 133.593 60.6309C133.712 60.7734 133.857 60.8809 134.029 60.9531C134.201 61.0254 134.394 61.0615 134.606 61.0615C134.821 61.0615 135.015 61.0254 135.187 60.9531C135.358 60.8809 135.504 60.7734 135.623 60.6309C135.742 60.4902 135.833 60.3154 135.896 60.1064C135.96 59.8955 135.992 59.6523 135.992 59.377ZM134.035 59.0254C134.035 58.9648 134.035 58.9189 134.035 58.8877C134.035 58.8564 134.035 58.7939 134.035 58.7002V58.2285C134.035 58.0703 134.047 57.9336 134.07 57.8184C134.096 57.7031 134.134 57.6094 134.185 57.5371C134.231 57.4688 134.289 57.418 134.357 57.3848C134.428 57.3496 134.509 57.332 134.601 57.332C134.683 57.332 134.756 57.3457 134.82 57.373C134.887 57.3984 134.942 57.4385 134.987 57.4932C135.046 57.5615 135.09 57.6533 135.119 57.7686C135.15 57.8818 135.168 58.0186 135.172 58.1787L134.035 59.0254ZM135.172 59.5C135.172 59.6582 135.159 59.7959 135.134 59.9131C135.11 60.0283 135.074 60.123 135.025 60.1973C134.979 60.2676 134.92 60.3203 134.85 60.3555C134.779 60.3887 134.698 60.4053 134.606 60.4053C134.507 60.4053 134.421 60.3857 134.349 60.3467C134.276 60.3076 134.217 60.248 134.17 60.168C134.129 60.1016 134.097 60.0186 134.073 59.9189C134.052 59.8193 134.039 59.7051 134.035 59.5762L135.172 58.7324C135.172 58.7891 135.172 58.833 135.172 58.8643C135.172 58.8936 135.172 58.9404 135.172 59.0049V59.5ZM139.596 59.377V58.3574C139.596 58.082 139.563 57.8398 139.499 57.6309C139.435 57.4199 139.343 57.2432 139.224 57.1006C139.103 56.96 138.956 56.8535 138.784 56.7812C138.612 56.709 138.419 56.6729 138.204 56.6729C137.991 56.6729 137.799 56.709 137.627 56.7812C137.457 56.8535 137.312 56.96 137.193 57.1006C137.072 57.2432 136.979 57.4199 136.915 57.6309C136.851 57.8398 136.818 58.082 136.818 58.3574V59.377C136.818 59.6523 136.851 59.8955 136.915 60.1064C136.981 60.3154 137.075 60.4902 137.196 60.6309C137.315 60.7734 137.461 60.8809 137.633 60.9531C137.805 61.0254 137.997 61.0615 138.21 61.0615C138.425 61.0615 138.618 61.0254 138.79 60.9531C138.962 60.8809 139.107 60.7734 139.227 60.6309C139.346 60.4902 139.437 60.3154 139.499 60.1064C139.563 59.8955 139.596 59.6523 139.596 59.377ZM137.639 59.0254C137.639 58.9648 137.639 58.9189 137.639 58.8877C137.639 58.8564 137.639 58.7939 137.639 58.7002V58.2285C137.639 58.0703 137.65 57.9336 137.674 57.8184C137.699 57.7031 137.737 57.6094 137.788 57.5371C137.835 57.4688 137.893 57.418 137.961 57.3848C138.031 57.3496 138.112 57.332 138.204 57.332C138.286 57.332 138.359 57.3457 138.424 57.373C138.49 57.3984 138.546 57.4385 138.591 57.4932C138.649 57.5615 138.693 57.6533 138.723 57.7686C138.754 57.8818 138.771 58.0186 138.775 58.1787L137.639 59.0254ZM138.775 59.5C138.775 59.6582 138.763 59.7959 138.737 59.9131C138.714 60.0283 138.678 60.123 138.629 60.1973C138.582 60.2676 138.523 60.3203 138.453 60.3555C138.383 60.3887 138.302 60.4053 138.21 60.4053C138.11 60.4053 138.024 60.3857 137.952 60.3467C137.88 60.3076 137.82 60.248 137.773 60.168C137.732 60.1016 137.7 60.0186 137.677 59.9189C137.655 59.8193 137.643 59.7051 137.639 59.5762L138.775 58.7324C138.775 58.7891 138.775 58.833 138.775 58.8643C138.775 58.8936 138.775 58.9404 138.775 59.0049V59.5Z" fill="white"/>
<defs>
<filter id="filter0_d" x="0" y="10" width="121" height="102" filterUnits="userSpaceOnUse" color-interpolation-filters="sRGB">
<feFlood flood-opacity="0" result="BackgroundImageFix"/>
<feColorMatrix in="SourceAlpha" type="matrix" values="0 0 0 0 0 0 0 0 0 0 0 0 0 0 0 0 0 0 127 0" result="hardAlpha"/>
<feOffset dy="2"/>
<feGaussianBlur stdDeviation="2"/>
<feColorMatrix type="matrix" values="0 0 0 0 0.25098 0 0 0 0 0.25098 0 0 0 0 0.25098 0 0 0 0.25 0"/>
<feBlend mode="normal" in2="BackgroundImageFix" result="effect1_dropShadow"/>
<feBlend mode="normal" in="SourceGraphic" in2="effect1_dropShadow" result="shape"/>
</filter>
</defs>
</svg>
