<svg width="303" height="354" viewBox="0 0 303 354" fill="none" xmlns="http://www.w3.org/2000/svg">
<g filter="url(#filter0_d)">
<path d="M0 4C0 1.79086 1.79086 0 4 0H246C248.209 0 250 1.79086 250 4V296C250 298.209 248.209 300 246 300H3.99999C1.79085 300 0 298.209 0 296V4Z" fill="white"/>
<path d="M4 1H246V-1H4V1ZM249 4V296H251V4H249ZM246 299H3.99999V301H246V299ZM1 296V4H-1V296H1ZM3.99999 299C2.34314 299 1 297.657 1 296H-1C-1 298.761 1.23857 301 3.99999 301V299ZM249 296C249 297.657 247.657 299 246 299V301C248.761 301 251 298.761 251 296H249ZM246 1C247.657 1 249 2.34314 249 4H251C251 1.23858 248.761 -1 246 -1V1ZM4 -1C1.23858 -1 -1 1.23857 -1 4H1C1 2.34314 2.34314 1 4 1V-1Z" fill="#E9E9E9"/>
</g>
<line x1="250" y1="203.5" x2="274" y2="203.5" stroke="#94538C"/>
<rect x="274" y="190" width="29" height="28" rx="14" fill="#94538C"/>
<path d="M292.684 210.5V208.286H287.122C290.488 205.982 292.558 204.47 292.558 202.058C292.558 199.736 290.884 198.278 288.364 198.278C285.952 198.278 284.062 199.502 283.612 202.31L286.096 202.76C286.258 201.266 286.96 200.528 288.058 200.528C289.12 200.528 289.696 201.212 289.696 202.166C289.696 203.894 288.4 205.01 283.63 208.592V210.5H292.684Z" fill="white"/>
<line x1="233" y1="140.5" x2="257" y2="140.5" stroke="#94538C"/>
<rect x="257" y="127" width="29" height="28" rx="14" fill="#94538C"/>
<path d="M275.374 147.5V145.304H272.836V135.296H270.73C269.992 136.214 268.894 137.204 267.688 137.6V139.904C268.696 139.49 269.542 138.968 270.064 138.59V145.304H267.418V147.5H275.374Z" fill="white"/>
<line x1="125" y1="302" x2="125" y2="326" stroke="#94538C"/>
<rect x="110" y="326" width="29" height="28" rx="14" fill="#94538C"/>
<path d="M124.364 346.716C127.424 346.716 129.134 345.276 129.134 343.098C129.134 341.604 128.306 340.596 126.776 340.218C128.018 339.858 128.738 338.868 128.738 337.482C128.738 335.7 127.118 334.278 124.454 334.278C122.186 334.278 120.278 335.286 119.702 337.482L121.988 337.95C122.24 336.924 123.068 336.42 124.184 336.42C125.39 336.42 125.984 336.978 125.984 337.842C125.984 338.76 125.318 339.282 124.004 339.282H122.726V341.37H124.04C125.444 341.37 126.29 341.856 126.29 342.99C126.29 343.926 125.642 344.574 124.202 344.574C122.942 344.574 122.132 344.016 121.88 342.792L119.342 343.314C119.738 345.546 121.646 346.716 124.364 346.716Z" fill="white"/>
<defs>
<filter id="filter0_d" x="0" y="0" width="250" height="302" filterUnits="userSpaceOnUse" color-interpolation-filters="sRGB">
<feFlood flood-opacity="0" result="BackgroundImageFix"/>
<feColorMatrix in="SourceAlpha" type="matrix" values="0 0 0 0 0 0 0 0 0 0 0 0 0 0 0 0 0 0 127 0" result="hardAlpha"/>
<feOffset dy="2"/>
<feColorMatrix type="matrix" values="0 0 0 0 0.835294 0 0 0 0 0.835294 0 0 0 0 0.835294 0 0 0 1 0"/>
<feBlend mode="normal" in2="BackgroundImageFix" result="effect1_dropShadow"/>
<feBlend mode="normal" in="SourceGraphic" in2="effect1_dropShadow" result="shape"/>
</filter>
</defs>
</svg>
