<svg width="620" height="255" viewBox="0 0 620 255" fill="none" xmlns="http://www.w3.org/2000/svg">
<g filter="url(#filter0_d)">
<path d="M0 46C0 43.7909 1.79086 42 4 42H561C563.209 42 565 43.7909 565 46V249C565 251.209 563.209 253 561 253H4.00001C1.79087 253 0 251.209 0 249V46Z" fill="white"/>
<path d="M4 43H561V41H4V43ZM564 46V249H566V46H564ZM561 252H4.00001V254H561V252ZM1 249V46H-1V249H1ZM4.00001 252C2.34315 252 1 250.657 1 249H-1C-1 251.761 1.23859 254 4.00001 254V252ZM564 249C564 250.657 562.657 252 561 252V254C563.761 254 566 251.761 566 249H564ZM561 43C562.657 43 564 44.3431 564 46H566C566 43.2386 563.761 41 561 41V43ZM4 41C1.23858 41 -1 43.2386 -1 46H1C1 44.3431 2.34314 43 4 43V41Z" fill="#E9E9E9"/>
</g>
<path d="M597.5 42V253" stroke="#1745E8"/>
<g clip-path="url(#clip0)">
<rect x="620" y="56" width="190" height="18" rx="3" transform="rotate(90 620 56)" fill="#1745E8"/>
<path d="M614.273 65.7536V64.3082L613.133 62.5078H611.769L612.813 64.1733V64.2159H607V65.7536H614.273ZM606.84 70.3336C606.84 72.1625 608.232 73.2669 610.629 73.2704C613.009 73.274 614.372 72.1554 614.372 70.3336C614.372 68.5083 613.012 67.4004 610.629 67.3968C608.239 67.3897 606.844 68.5012 606.84 70.3336ZM608.115 70.3336C608.115 69.4991 608.953 68.9593 610.629 68.9629C612.281 68.9664 613.112 69.5027 613.112 70.3336C613.112 71.161 612.281 71.7008 610.629 71.7008C608.953 71.7044 608.115 71.1646 608.115 70.3336ZM606.84 77.2184C606.84 79.0472 608.232 80.1516 610.629 80.1552C613.009 80.1587 614.372 79.0401 614.372 77.2184C614.372 75.3931 613.012 74.2852 610.629 74.2816C608.239 74.2745 606.844 75.386 606.84 77.2184ZM608.115 77.2184C608.115 76.3839 608.953 75.8441 610.629 75.8477C612.281 75.8512 613.112 76.3874 613.112 77.2184C613.112 78.0458 612.281 78.5856 610.629 78.5856C608.953 78.5891 608.115 78.0494 608.115 77.2184ZM608.364 85.2324C607.49 85.236 606.748 85.7935 606.748 86.834C606.748 87.8638 607.49 88.4391 608.364 88.4355H608.747C609.628 88.4391 610.363 87.878 610.363 86.834C610.363 85.8077 609.621 85.236 608.747 85.2324H608.364ZM612.526 81.5002C611.652 81.5037 610.917 82.0613 610.917 83.0982C610.917 84.1316 611.645 84.7069 612.526 84.7033H612.909C613.79 84.7069 614.525 84.1458 614.525 83.0982C614.525 82.0826 613.79 81.5037 612.909 81.5002H612.526ZM607 81.8482V82.775L614.273 87.775V86.8482L607 81.8482ZM608.747 86.2658C609.095 86.2694 609.454 86.4078 609.454 86.834C609.454 87.2814 609.095 87.3986 608.747 87.3951H608.364C608.016 87.3986 607.664 87.2672 607.664 86.834C607.664 86.4007 608.026 86.2694 608.364 86.2658H608.747ZM612.909 82.5407C613.246 82.5442 613.616 82.6756 613.616 83.0982C613.616 83.5456 613.257 83.6664 612.909 83.6628H612.526C612.178 83.6664 611.826 83.5314 611.826 83.0982C611.826 82.6792 612.178 82.5442 612.526 82.5407H612.909ZM606.893 94.6385C606.893 96.2933 608.026 97.3232 609.706 97.3232C611.396 97.3232 612.526 96.2933 612.526 94.6385C612.526 92.9837 611.396 91.9538 609.706 91.9538C608.026 91.9538 606.893 92.9837 606.893 94.6385ZM608.065 94.6456C608.065 93.8821 608.765 93.4915 609.717 93.4915C610.668 93.4915 611.371 93.8821 611.371 94.6456C611.371 95.3949 610.668 95.7855 609.717 95.7855C608.765 95.7855 608.065 95.3949 608.065 94.6456ZM612.455 101.24V100.157H612.82C613.19 100.157 613.406 100.306 613.406 100.75C613.406 100.931 613.367 101.116 613.328 101.237L614.464 101.503C614.521 101.315 614.614 100.899 614.614 100.434C614.614 99.4077 614.035 98.6442 612.849 98.6442H612.455V97.8736H611.318V98.6442H607V100.157H611.318V101.24H612.455ZM606.893 106.943C606.893 108.396 607.746 109.308 608.999 109.379V107.952C608.417 107.863 608.09 107.479 608.09 106.961C608.09 106.254 608.683 105.796 609.727 105.796C610.757 105.796 611.347 106.258 611.347 106.961C611.347 107.515 610.981 107.87 610.438 107.952V109.379C611.698 109.315 612.526 108.36 612.526 106.936C612.526 105.281 611.379 104.259 609.706 104.259C608.048 104.259 606.893 105.263 606.893 106.943ZM606.893 112.812C606.893 114.467 608.026 115.497 609.706 115.497C611.396 115.497 612.526 114.467 612.526 112.812C612.526 111.157 611.396 110.128 609.706 110.128C608.026 110.128 606.893 111.157 606.893 112.812ZM608.065 112.819C608.065 112.056 608.765 111.665 609.717 111.665C610.668 111.665 611.371 112.056 611.371 112.819C611.371 113.569 610.668 113.959 609.717 113.959C608.765 113.959 608.065 113.569 608.065 112.819ZM610.153 117.993C610.857 117.997 611.268 118.416 611.268 119.027C611.268 119.634 610.871 120 610.203 119.996H607V121.509H610.473C611.744 121.509 612.526 120.763 612.526 119.627C612.526 118.817 612.128 118.231 611.492 117.986V117.922H612.455V116.481H607V117.993H610.153ZM612.455 125.603V124.576H613.761V123.064H612.455V122.318H611.318V123.064H608.477C607.408 123.056 606.879 123.784 606.925 124.882C606.94 125.272 607.018 125.549 607.067 125.702L608.193 125.464C608.179 125.39 608.143 125.23 608.143 125.088C608.143 124.786 608.257 124.576 608.676 124.576H611.318V125.603H612.455ZM606.893 129.015C606.893 130.365 607.55 131.274 608.562 131.487L608.655 130.088C608.239 129.935 608.023 129.544 608.023 129.04C608.023 128.284 608.523 127.804 609.337 127.804H609.34V131.519H609.756C611.609 131.519 612.526 130.397 612.526 128.955C612.526 127.35 611.386 126.309 609.702 126.309C607.973 126.309 606.893 127.336 606.893 129.015ZM610.278 127.804C610.899 127.836 611.396 128.309 611.396 128.98C611.396 129.637 610.928 130.091 610.278 130.095V127.804ZM610.153 134.019C610.857 134.022 611.268 134.441 611.268 135.052C611.268 135.659 610.871 136.025 610.203 136.022H607V137.534H610.473C611.744 137.534 612.526 136.789 612.526 135.652C612.526 134.843 612.128 134.257 611.492 134.012V133.948H612.455V132.506H607V134.019H610.153ZM612.455 141.628V140.602H613.761V139.089H612.455V138.343H611.318V139.089H608.477C607.408 139.082 606.879 139.81 606.925 140.907C606.94 141.298 607.018 141.575 607.067 141.727L608.193 141.49C608.179 141.415 608.143 141.255 608.143 141.113C608.143 140.811 608.257 140.602 608.676 140.602H611.318V141.628H612.455ZM606.893 147.392C606.893 149.047 608.026 150.077 609.706 150.077C611.396 150.077 612.526 149.047 612.526 147.392C612.526 145.738 611.396 144.708 609.706 144.708C608.026 144.708 606.893 145.738 606.893 147.392ZM608.065 147.4C608.065 146.636 608.765 146.245 609.717 146.245C610.668 146.245 611.371 146.636 611.371 147.4C611.371 148.149 610.668 148.539 609.717 148.539C608.765 148.539 608.065 148.149 608.065 147.4ZM607 151.061V152.574H610.086C610.757 152.574 611.219 153.064 611.219 153.731C611.219 153.941 611.183 154.228 611.137 154.37H612.479C612.511 154.235 612.533 154.047 612.533 153.895C612.533 153.284 612.178 152.783 611.503 152.584V152.527H612.455V151.061H607ZM606.893 159.931C606.893 161.384 607.746 162.297 608.999 162.368V160.94C608.417 160.851 608.09 160.468 608.09 159.949C608.09 159.243 608.683 158.784 609.727 158.784C610.757 158.784 611.347 159.246 611.347 159.949C611.347 160.503 610.981 160.858 610.438 160.94V162.368C611.698 162.304 612.526 161.348 612.526 159.924C612.526 158.27 611.379 157.247 609.706 157.247C608.048 157.247 606.893 158.252 606.893 159.931ZM606.893 165.801C606.893 167.455 608.026 168.485 609.706 168.485C611.396 168.485 612.526 167.455 612.526 165.801C612.526 164.146 611.396 163.116 609.706 163.116C608.026 163.116 606.893 164.146 606.893 165.801ZM608.065 165.808C608.065 165.044 608.765 164.654 609.717 164.654C610.668 164.654 611.371 165.044 611.371 165.808C611.371 166.557 610.668 166.948 609.717 166.948C608.765 166.948 608.065 166.557 608.065 165.808ZM610.153 170.982C610.857 170.985 611.268 171.404 611.268 172.015C611.268 172.622 610.871 172.988 610.203 172.985H607V174.497H610.473C611.744 174.497 612.526 173.752 612.526 172.615C612.526 171.806 612.128 171.22 611.492 170.975V170.911H612.455V169.469H607V170.982H610.153ZM612.455 178.591V177.565H613.761V176.052H612.455V175.306H611.318V176.052H608.477C607.408 176.045 606.879 176.773 606.925 177.87C606.94 178.261 607.018 178.538 607.067 178.69L608.193 178.452C608.179 178.378 608.143 178.218 608.143 178.076C608.143 177.774 608.257 177.565 608.676 177.565H611.318V178.591H612.455ZM606.897 181.132C606.897 181.938 607.249 182.46 607.756 182.726V182.769H607V184.203H610.679C611.979 184.203 612.526 183.103 612.526 181.888C612.526 180.581 611.901 179.722 610.906 179.512L610.793 180.912C611.155 181.015 611.421 181.338 611.421 181.881C611.421 182.396 611.162 182.691 610.714 182.691H610.693C610.342 182.691 610.295 182.318 610.203 181.37C610.104 180.29 609.741 179.321 608.523 179.321C607.444 179.321 606.897 180.091 606.897 181.132ZM607.941 181.565C607.941 181.1 608.158 180.766 608.573 180.766C608.999 180.766 609.209 181.118 609.283 181.65C609.33 181.98 609.408 182.52 609.528 182.701H608.95C608.378 182.701 607.941 182.229 607.941 181.565ZM607 185.377V186.89H612.455V185.377H607ZM613.158 186.137C613.158 186.588 613.502 186.957 613.925 186.957C614.344 186.957 614.688 186.588 614.688 186.137C614.688 185.69 614.344 185.32 613.925 185.32C613.502 185.32 613.158 185.69 613.158 186.137ZM610.153 189.615C610.857 189.618 611.268 190.037 611.268 190.648C611.268 191.255 610.871 191.621 610.203 191.617H607V193.13H610.473C611.744 193.13 612.526 192.384 612.526 191.248C612.526 190.438 612.128 189.852 611.492 189.607V189.544H612.455V188.102H607V189.615H610.153ZM606.893 196.808C606.893 198.158 607.55 199.067 608.562 199.28L608.655 197.881C608.239 197.728 608.023 197.337 608.023 196.833C608.023 196.077 608.523 195.597 609.337 195.597H609.34V199.312H609.756C611.609 199.312 612.526 198.19 612.526 196.748C612.526 195.143 611.386 194.102 609.702 194.102C607.973 194.102 606.893 195.129 606.893 196.808ZM610.278 195.597C610.899 195.629 611.396 196.102 611.396 196.773C611.396 197.43 610.928 197.884 610.278 197.888V195.597ZM607 200.299V201.812H610.086C610.757 201.812 611.219 202.302 611.219 202.969C611.219 203.179 611.183 203.467 611.137 203.609H612.479C612.511 203.474 612.533 203.286 612.533 203.133C612.533 202.522 612.178 202.021 611.503 201.822V201.766H612.455V200.299H607ZM610.153 210.532C610.857 210.536 611.268 210.966 611.268 211.584C611.268 212.198 610.874 212.56 610.203 212.557H607V214.069H610.473C611.751 214.073 612.526 213.32 612.526 212.184C612.526 211.356 612.135 210.802 611.492 210.554V210.49H614.273V209.02H607V210.532H610.153ZM606.893 217.746C606.893 219.095 607.55 220.004 608.562 220.217L608.655 218.818C608.239 218.665 608.023 218.275 608.023 217.771C608.023 217.014 608.523 216.535 609.337 216.535H609.34V220.249H609.756C611.609 220.249 612.526 219.127 612.526 217.685C612.526 216.08 611.386 215.04 609.702 215.04C607.973 215.04 606.893 216.066 606.893 217.746ZM610.278 216.535C610.899 216.567 611.396 217.039 611.396 217.71C611.396 218.367 610.928 218.822 610.278 218.825V216.535ZM607 221.237V222.749H612.455V221.237H607ZM613.158 221.996C613.158 222.447 613.502 222.817 613.925 222.817C614.344 222.817 614.688 222.447 614.688 221.996C614.688 221.549 614.344 221.18 613.925 221.18C613.502 221.18 613.158 221.549 613.158 221.996ZM604.841 226.419C604.841 227.977 605.551 229.085 606.947 229.085H612.455V227.583H611.538V227.526C611.982 227.324 612.526 226.88 612.526 225.968C612.526 224.771 611.595 223.759 609.738 223.759C607.923 223.759 607.078 224.742 607.078 225.971C607.078 226.841 607.515 227.328 607.966 227.526V227.59H606.968C606.219 227.59 605.928 227.111 605.928 226.454C605.928 225.786 606.219 225.449 606.549 225.325L606.361 223.926C605.501 224.107 604.841 224.948 604.841 226.419ZM608.214 226.45C608.214 225.708 608.804 225.303 609.745 225.303C610.672 225.303 611.322 225.701 611.322 226.45C611.322 227.186 610.7 227.597 609.745 227.597C608.783 227.597 608.214 227.178 608.214 226.45ZM610.153 231.802C610.857 231.806 611.268 232.235 611.268 232.853C611.268 233.468 610.874 233.83 610.203 233.826H607V235.339H610.473C611.751 235.343 612.526 234.59 612.526 233.453C612.526 232.626 612.135 232.072 611.492 231.823V231.759H614.273V230.289H607V231.802H610.153ZM612.455 239.431V238.404H613.761V236.892H612.455V236.146H611.318V236.892H608.477C607.408 236.885 606.879 237.613 606.925 238.71C606.94 239.1 607.018 239.377 607.067 239.53L608.193 239.292C608.179 239.218 608.143 239.058 608.143 238.916C608.143 238.614 608.257 238.404 608.676 238.404H611.318V239.431H612.455Z" fill="white"/>
</g>
<line x1="594" y1="42.5" x2="601" y2="42.5" stroke="#1745E8"/>
<line x1="594" y1="252.5" x2="601" y2="252.5" stroke="#1745E8"/>
<path d="M0 9.5H565" stroke="#1745E8"/>
<rect x="223" width="119" height="18" rx="3" fill="#1745E8"/>
<path d="M232.754 5.72727H231.308L229.508 6.86719V8.23082L231.173 7.18679H231.216V13H232.754V5.72727ZM237.334 13.1598C239.162 13.1598 240.267 11.7678 240.27 9.37074C240.274 6.99148 239.155 5.62784 237.334 5.62784C235.508 5.62784 234.4 6.98793 234.397 9.37074C234.39 11.7607 235.501 13.1562 237.334 13.1598ZM237.334 11.8849C236.499 11.8849 235.959 11.0469 235.963 9.37074C235.966 7.71946 236.503 6.88849 237.334 6.88849C238.161 6.88849 238.701 7.71946 238.701 9.37074C238.704 11.0469 238.165 11.8849 237.334 11.8849ZM244.218 13.1598C246.047 13.1598 247.152 11.7678 247.155 9.37074C247.159 6.99148 246.04 5.62784 244.218 5.62784C242.393 5.62784 241.285 6.98793 241.282 9.37074C241.275 11.7607 242.386 13.1562 244.218 13.1598ZM244.218 11.8849C243.384 11.8849 242.844 11.0469 242.848 9.37074C242.851 7.71946 243.387 6.88849 244.218 6.88849C245.046 6.88849 245.586 7.71946 245.586 9.37074C245.589 11.0469 245.049 11.8849 244.218 11.8849ZM252.232 11.6364C252.236 12.5099 252.794 13.2521 253.834 13.2521C254.864 13.2521 255.439 12.5099 255.436 11.6364V11.2528C255.439 10.3722 254.878 9.63707 253.834 9.63707C252.808 9.63707 252.236 10.3793 252.232 11.2528V11.6364ZM248.5 7.47443C248.504 8.34801 249.061 9.0831 250.098 9.0831C251.132 9.0831 251.707 8.35511 251.703 7.47443V7.09091C251.707 6.21023 251.146 5.47514 250.098 5.47514C249.083 5.47514 248.504 6.21023 248.5 7.09091V7.47443ZM248.848 13H249.775L254.775 5.72727H253.848L248.848 13ZM253.266 11.2528C253.269 10.9048 253.408 10.5462 253.834 10.5462C254.281 10.5462 254.399 10.9048 254.395 11.2528V11.6364C254.399 11.9844 254.267 12.3359 253.834 12.3359C253.401 12.3359 253.269 11.9737 253.266 11.6364V11.2528ZM249.541 7.09091C249.544 6.75355 249.676 6.38423 250.098 6.38423C250.546 6.38423 250.666 6.7429 250.663 7.09091V7.47443C250.666 7.82244 250.531 8.17401 250.098 8.17401C249.679 8.17401 249.544 7.82244 249.541 7.47443V7.09091ZM261.638 13.1065C263.091 13.1065 264.004 12.2543 264.075 11.0007H262.647C262.558 11.5831 262.175 11.9098 261.656 11.9098C260.95 11.9098 260.491 11.3168 260.491 10.2727C260.491 9.2429 260.953 8.65341 261.656 8.65341C262.21 8.65341 262.565 9.01918 262.647 9.5625H264.075C264.011 8.30185 263.055 7.47443 261.631 7.47443C259.977 7.47443 258.954 8.62145 258.954 10.294C258.954 11.9524 259.959 13.1065 261.638 13.1065ZM267.508 13.1065C269.162 13.1065 270.192 11.9737 270.192 10.294C270.192 8.60369 269.162 7.47443 267.508 7.47443C265.853 7.47443 264.823 8.60369 264.823 10.294C264.823 11.9737 265.853 13.1065 267.508 13.1065ZM267.515 11.9347C266.751 11.9347 266.361 11.2351 266.361 10.2834C266.361 9.33168 266.751 8.62855 267.515 8.62855C268.264 8.62855 268.655 9.33168 268.655 10.2834C268.655 11.2351 268.264 11.9347 267.515 11.9347ZM272.689 9.84659C272.692 9.14347 273.111 8.73153 273.722 8.73153C274.329 8.73153 274.695 9.12926 274.692 9.79688V13H276.204V9.52699C276.204 8.25568 275.459 7.47443 274.322 7.47443C273.513 7.47443 272.927 7.87216 272.682 8.50781H272.618V7.54545H271.176V13H272.689V9.84659ZM280.298 7.54545H279.272V6.23864H277.759V7.54545H277.013V8.68182H277.759V11.5227C277.752 12.5916 278.48 13.1207 279.577 13.0746C279.968 13.0604 280.245 12.9822 280.397 12.9325L280.159 11.8068C280.085 11.821 279.925 11.8565 279.783 11.8565C279.481 11.8565 279.272 11.7429 279.272 11.3239V8.68182H280.298V7.54545ZM282.839 13.103C283.645 13.103 284.167 12.7514 284.433 12.2436H284.476V13H285.911V9.32102C285.911 8.02131 284.81 7.47443 283.595 7.47443C282.288 7.47443 281.429 8.09943 281.219 9.09375L282.619 9.20739C282.722 8.84517 283.045 8.57884 283.588 8.57884C284.103 8.57884 284.398 8.83807 284.398 9.28551V9.30682C284.398 9.65838 284.025 9.70455 283.077 9.79688C281.997 9.89631 281.028 10.2585 281.028 11.4766C281.028 12.5561 281.798 13.103 282.839 13.103ZM283.272 12.0589C282.807 12.0589 282.473 11.8423 282.473 11.4268C282.473 11.0007 282.825 10.7912 283.357 10.7166C283.688 10.6705 284.227 10.5923 284.408 10.4716V11.0504C284.408 11.6222 283.936 12.0589 283.272 12.0589ZM287.084 13H288.597V7.54545H287.084V13ZM287.844 6.84233C288.295 6.84233 288.664 6.49787 288.664 6.07528C288.664 5.65625 288.295 5.31179 287.844 5.31179C287.397 5.31179 287.027 5.65625 287.027 6.07528C287.027 6.49787 287.397 6.84233 287.844 6.84233ZM291.322 9.84659C291.325 9.14347 291.744 8.73153 292.355 8.73153C292.962 8.73153 293.328 9.12926 293.324 9.79688V13H294.837V9.52699C294.837 8.25568 294.091 7.47443 292.955 7.47443C292.145 7.47443 291.559 7.87216 291.314 8.50781H291.251V7.54545H289.809V13H291.322V9.84659ZM298.515 13.1065C299.865 13.1065 300.774 12.4496 300.987 11.4375L299.588 11.3452C299.435 11.7607 299.044 11.9773 298.54 11.9773C297.784 11.9773 297.304 11.4766 297.304 10.6634V10.6598H301.019V10.2443C301.019 8.39062 299.897 7.47443 298.455 7.47443C296.85 7.47443 295.809 8.61435 295.809 10.2976C295.809 12.027 296.836 13.1065 298.515 13.1065ZM297.304 9.7223C297.336 9.10085 297.809 8.60369 298.48 8.60369C299.137 8.60369 299.591 9.07244 299.595 9.7223H297.304ZM302.006 13H303.519V9.91406C303.519 9.2429 304.009 8.78125 304.676 8.78125C304.886 8.78125 305.174 8.81676 305.316 8.86293V7.5206C305.181 7.48864 304.993 7.46733 304.84 7.46733C304.229 7.46733 303.728 7.82244 303.529 8.49716H303.473V7.54545H302.006V13ZM309.488 13H311.086L312.024 9.5696H312.091L313.029 13H314.63L316.111 7.54545H314.584L313.753 11.1889H313.707L312.812 7.54545H311.31L310.429 11.2102H310.38L309.534 7.54545H308.004L309.488 13ZM316.918 13H318.431V7.54545H316.918V13ZM317.678 6.84233C318.129 6.84233 318.498 6.49787 318.498 6.07528C318.498 5.65625 318.129 5.31179 317.678 5.31179C317.231 5.31179 316.861 5.65625 316.861 6.07528C316.861 6.49787 317.231 6.84233 317.678 6.84233ZM321.653 13.0888C322.533 13.0888 322.991 12.581 323.201 12.1264H323.265V13H324.756V5.72727H323.247V8.46165H323.201C322.999 8.01776 322.562 7.47443 321.649 7.47443C320.452 7.47443 319.44 8.40483 319.44 10.2798C319.44 12.1051 320.41 13.0888 321.653 13.0888ZM322.132 11.8849C321.39 11.8849 320.985 11.2244 320.985 10.2727C320.985 9.32812 321.383 8.67827 322.132 8.67827C322.867 8.67827 323.279 9.29972 323.279 10.2727C323.279 11.2457 322.86 11.8849 322.132 11.8849ZM328.901 7.54545H327.875V6.23864H326.362V7.54545H325.617V8.68182H326.362V11.5227C326.355 12.5916 327.083 13.1207 328.181 13.0746C328.571 13.0604 328.848 12.9822 329.001 12.9325L328.763 11.8068C328.688 11.821 328.529 11.8565 328.387 11.8565C328.085 11.8565 327.875 11.7429 327.875 11.3239V8.68182H328.901V7.54545ZM331.517 9.84659C331.52 9.14347 331.95 8.73153 332.568 8.73153C333.182 8.73153 333.545 9.12571 333.541 9.79688V13H335.054V9.52699C335.057 8.24858 334.305 7.47443 333.168 7.47443C332.341 7.47443 331.787 7.86506 331.538 8.50781H331.474V5.72727H330.004V13H331.517V9.84659Z" fill="white"/>
<line x1="0.5" y1="13" x2="0.5" y2="6" stroke="#1745E8"/>
<line x1="564.5" y1="13" x2="564.5" y2="6" stroke="#1745E8"/>
<defs>
<filter id="filter0_d" x="0" y="42" width="565" height="213" filterUnits="userSpaceOnUse" color-interpolation-filters="sRGB">
<feFlood flood-opacity="0" result="BackgroundImageFix"/>
<feColorMatrix in="SourceAlpha" type="matrix" values="0 0 0 0 0 0 0 0 0 0 0 0 0 0 0 0 0 0 127 0" result="hardAlpha"/>
<feOffset dy="2"/>
<feColorMatrix type="matrix" values="0 0 0 0 0.835294 0 0 0 0 0.835294 0 0 0 0 0.835294 0 0 0 1 0"/>
<feBlend mode="normal" in2="BackgroundImageFix" result="effect1_dropShadow"/>
<feBlend mode="normal" in="SourceGraphic" in2="effect1_dropShadow" result="shape"/>
</filter>
<clipPath id="clip0">
<rect x="620" y="56" width="190" height="18" rx="3" transform="rotate(90 620 56)" fill="white"/>
</clipPath>
</defs>
</svg>
