<svg width="35" height="30" viewBox="0 0 35 30" fill="none" xmlns="http://www.w3.org/2000/svg">
<path fill-rule="evenodd" clip-rule="evenodd" d="M15.8817 8.98889L14.271 7.38889L13.0366 8.61852V18.4889L15.8478 20.9407L15.878 20.9148V8.98889H15.8817ZM9.38979 9.35926L7.38011 7.38889L6.05914 8.72963V18.5185L8.49785 20.6L9.38979 19.6V9.35926ZM31.7446 4.36296L35 7.32593V19.8296L29.9608 23.6222C29.4715 23.0185 28.8694 22.5037 28.1505 22.3V28.2815L28.0903 28.3111L26.5097 26.8444L23.1715 29.9185L23.1113 29.8889V22.1556C21.9452 22.4497 20.9122 23.1183 20.1758 24.0556L19.9462 23.9111C20.1457 21.6963 21.2409 20.0593 23.1113 19.4296V13.8185H22.5091C22.1505 13.8094 21.8002 13.9257 21.5204 14.1468C21.2407 14.3678 21.0496 14.6793 20.9812 15.0259H20.6387C20.487 14.6017 20.418 14.1531 20.4355 13.7037C20.4355 12.2963 21.3839 11.2296 22.9382 11.2296H23.1113V8.12593L22.0763 7.20741L21.271 8.01111L20.8683 7.63704L24.0634 4.35926L26.7694 6.83333V9.64815L27.6048 8.75926V5.45185H28.1505V8.18148L31.7484 4.35926L31.7446 4.36296ZM27.6048 9.30741L26.7694 10.1704V26.3556L27.6048 27.1333V9.3037V9.30741ZM5.6828 0L5.93871 0.22963C4.99409 0.685185 4.21882 1.25556 4.21882 2.48148C4.21882 4.36667 6.05538 3.88148 6.05538 6.84815V7.98889L9.41237 4.48148L12.9462 7.93333L16.2769 4.47778L19.4909 7.61852V18.1741L13.586 23.5963L9.59677 20.1704L6.54839 23.5963L2.41613 20.0593V14.4667H1.60699C0.891935 14.4667 0.545699 14.8926 0.429032 15.4667H0.143011C0.0865591 15.237 0 14.837 0 14.3815C0 13.6407 0.316129 11.7 2.4086 11.7V7.36296C2.4086 5.67778 1.29086 5.59259 1.29086 4.14074C1.29086 2.50741 2.8414 1 5.68656 0H5.6828ZM29.671 7.0963L28.1505 8.7037V19.1407C29.5054 19.3111 30.5102 19.7704 31.3457 20.663L31.372 20.6333V8.64815L29.6785 7.09259L29.671 7.0963Z" fill="black"/>
</svg>
