<svg width="392" height="120" viewBox="0 0 392 120" fill="none" xmlns="http://www.w3.org/2000/svg">
<rect width="392" height="40" transform="translate(0 80)" fill="#F2DEDE"/>
<rect width="360" height="28" transform="translate(0 86)" fill="#F2DEDE"/>
<path d="M16 93C14.3827 93.0116 12.8193 93.5829 11.5756 94.6168C10.3319 95.6507 9.4845 97.0833 9.17754 98.6712C8.87058 100.259 9.12295 101.904 9.89176 103.327C10.6606 104.75 11.8984 105.863 13.3948 106.477C14.8913 107.09 16.554 107.167 18.1004 106.693C19.6468 106.219 20.9815 105.225 21.8776 103.878C22.7737 102.532 23.176 100.917 23.016 99.3073C22.856 97.698 22.1436 96.1936 21 95.05C20.344 94.394 19.5641 93.875 18.7058 93.5231C17.8474 93.1711 16.9277 92.9933 16 93ZM16 106C14.6118 106.001 13.2661 105.521 12.1923 104.641C11.1184 103.762 10.3829 102.537 10.1109 101.175C9.83901 99.814 10.0475 98.4006 10.701 97.1758C11.3544 95.951 12.4123 94.9907 13.6944 94.4585C14.9766 93.9262 16.4036 93.8551 17.7323 94.2571C19.061 94.6591 20.2092 95.5094 20.9812 96.6632C21.7533 97.8169 22.1014 99.2026 21.9662 100.584C21.831 101.966 21.221 103.258 20.24 104.24C19.1158 105.366 17.5907 105.999 16 106Z" fill="#EA0017"/>
<path d="M13 99.5V100.5H19V99.5H13Z" fill="#EA0017"/>
<path d="M40.656 106V103.984H35.648V101.488H39.232V99.584H35.648V97.36H40.608V95.328H33.056V106H40.656ZM44.5033 106V101.248C44.9513 100.4 45.7513 99.92 46.6953 99.92C46.9033 99.92 47.2553 99.936 47.4153 99.968V97.968C47.2873 97.936 47.0793 97.92 46.8393 97.92C45.6713 97.92 44.7273 98.784 44.3593 99.728V98.064H41.9913V106H44.5033ZM51.0189 106V101.248C51.4669 100.4 52.2669 99.92 53.2109 99.92C53.4189 99.92 53.7709 99.936 53.9309 99.968V97.968C53.8029 97.936 53.5949 97.92 53.3549 97.92C52.1869 97.92 51.2429 98.784 50.8749 99.728V98.064H48.5069V106H51.0189ZM58.5745 106.128C61.0545 106.128 62.7185 104.368 62.7185 102.048C62.7185 99.584 61.0865 97.92 58.6225 97.92C56.2705 97.92 54.5425 99.632 54.5425 102.096C54.5425 104.416 56.2065 106.128 58.5745 106.128ZM58.6545 104.528C57.6625 104.528 57.1825 103.744 57.1825 102.016C57.1825 100.336 57.6945 99.568 58.6385 99.568C59.6145 99.568 60.0625 100.352 60.0625 102.016C60.0625 103.76 59.5665 104.528 58.6545 104.528ZM66.6751 106V101.248C67.1231 100.4 67.9231 99.92 68.8671 99.92C69.0751 99.92 69.4271 99.936 69.5871 99.968V97.968C69.4591 97.936 69.2511 97.92 69.0111 97.92C67.8431 97.92 66.8991 98.784 66.5311 99.728V98.064H64.1631V106H66.6751ZM73.3005 100.56V98.064H70.7085V100.56H73.3005ZM73.3005 106V103.504H70.7085V106H73.3005ZM80.8866 106V96.592L84.3426 106H85.2706L88.7426 96.592V106H90.0066V95.328H88.0546L84.9026 103.808L81.7026 95.328H79.7186V106H80.8866ZM95.5521 106.128C97.1201 106.128 98.3361 105.312 98.8801 103.792L97.7921 103.632C97.3441 104.8 96.5281 105.184 95.6641 105.184C94.1281 105.184 93.2321 104.176 93.2001 102.192H99.0241C99.0081 102.016 99.0241 101.84 99.0081 101.664C98.8481 99.472 97.6481 97.968 95.5841 97.968C93.5521 97.968 91.9361 99.52 91.9361 102.192C91.9361 104.544 93.3921 106.128 95.5521 106.128ZM93.2481 101.344C93.3441 99.856 94.3201 98.912 95.5841 98.912C96.8481 98.912 97.6321 99.824 97.7601 101.344H93.2481ZM103.243 106.128C105.163 106.128 106.411 105.152 106.411 103.696C106.411 102.128 105.035 101.68 103.419 101.36C102.155 101.088 101.211 100.928 101.211 100.064C101.211 99.344 101.931 98.912 102.987 98.912C104.059 98.912 104.779 99.392 105.083 100.224L106.187 99.984C105.787 98.752 104.763 97.968 102.987 97.968C101.227 97.968 100.059 98.848 100.059 100.144C100.059 101.696 101.419 102.112 103.035 102.416C104.203 102.672 105.259 102.864 105.259 103.808C105.259 104.64 104.491 105.2 103.243 105.2C101.883 105.2 101.003 104.576 100.747 103.648L99.6269 103.872C100.011 105.312 101.243 106.128 103.243 106.128ZM110.587 106.128C112.507 106.128 113.755 105.152 113.755 103.696C113.755 102.128 112.379 101.68 110.763 101.36C109.499 101.088 108.555 100.928 108.555 100.064C108.555 99.344 109.275 98.912 110.331 98.912C111.403 98.912 112.123 99.392 112.427 100.224L113.531 99.984C113.131 98.752 112.107 97.968 110.331 97.968C108.571 97.968 107.403 98.848 107.403 100.144C107.403 101.696 108.763 102.112 110.379 102.416C111.547 102.672 112.603 102.864 112.603 103.808C112.603 104.64 111.835 105.2 110.587 105.2C109.227 105.2 108.347 104.576 108.091 103.648L106.971 103.872C107.355 105.312 108.587 106.128 110.587 106.128ZM117.322 106.096C118.794 106.096 119.722 105.536 120.346 104.672C120.33 105.072 120.394 105.728 120.49 106H121.674C121.546 105.504 121.498 104.96 121.498 104.464V100.88C121.498 98.896 120.634 97.968 118.394 97.968C116.522 97.968 115.29 98.736 115.002 100.176L116.154 100.304C116.41 99.296 117.082 98.944 118.362 98.944C119.69 98.944 120.202 99.408 120.298 100.272C120.33 100.464 120.33 100.736 120.33 101.008C119.706 101.024 119.178 101.024 118.538 101.104C116.378 101.36 114.81 102.208 114.81 103.92C114.81 105.36 115.93 106.096 117.322 106.096ZM117.69 105.184C116.634 105.184 116.106 104.704 116.106 103.792C116.106 102.8 116.986 102.112 118.698 101.888C119.194 101.824 119.77 101.824 120.33 101.824V103.456C119.994 104.272 119.194 105.184 117.69 105.184ZM126.8 108.976C129.36 108.976 130.656 108.016 130.656 106.64C130.656 105.344 129.76 104.816 127.248 104.768C125.648 104.72 124.656 104.72 124.656 104.016C124.656 103.536 125.104 103.232 125.52 103.232C125.648 103.264 126.16 103.376 126.672 103.376C128.464 103.376 129.552 102.24 129.552 100.672C129.552 99.856 129.248 99.232 128.832 98.864C128.96 98.288 129.296 97.952 130.096 97.968C130.192 97.968 130.272 97.984 130.368 98L130.352 96.96C130.304 96.96 130.208 96.96 130.16 96.96C128.816 96.944 128.384 97.488 128.192 98.352C127.712 98.096 127.136 97.968 126.544 97.968C124.96 97.968 123.6 99.056 123.6 100.672C123.6 101.632 123.984 102.448 124.752 102.848C124.048 103.04 123.504 103.52 123.504 104.192C123.504 104.8 123.824 105.248 124.624 105.472C123.664 105.712 123.088 106.304 123.088 107.088C123.088 108.304 124.368 108.976 126.8 108.976ZM126.608 102.544C125.536 102.544 124.832 101.904 124.832 100.672C124.832 99.68 125.44 98.864 126.608 98.864C127.792 98.864 128.384 99.728 128.384 100.688C128.384 101.872 127.728 102.544 126.608 102.544ZM126.704 108.144C124.944 108.144 124.224 107.696 124.224 106.944C124.224 106.24 124.704 105.92 125.328 105.744C128.88 105.824 129.472 106 129.472 106.8C129.472 107.6 128.464 108.144 126.704 108.144ZM134.755 106.128C136.323 106.128 137.539 105.312 138.083 103.792L136.995 103.632C136.547 104.8 135.731 105.184 134.867 105.184C133.331 105.184 132.435 104.176 132.403 102.192H138.227C138.211 102.016 138.227 101.84 138.211 101.664C138.051 99.472 136.851 97.968 134.787 97.968C132.755 97.968 131.139 99.52 131.139 102.192C131.139 104.544 132.595 106.128 134.755 106.128ZM132.451 101.344C132.547 99.856 133.523 98.912 134.787 98.912C136.051 98.912 136.835 99.824 136.963 101.344H132.451Z" fill="#111111"/>
<rect width="32" height="32" transform="translate(360 84)" fill="#F2DEDE"/>
<path d="M381 95.65L380.35 95L376 99.34L371.65 95L371 95.65L375.34 100L371 104.35L371.65 105L376 100.66L380.35 105L381 104.35L376.66 100L381 95.65Z" fill="#111111"/>
<rect width="28" height="28" rx="14" fill="#3D73D5"/>
<path d="M17.2926 20V18.944H14.9406V9.12H13.9806C13.2926 10.256 12.5406 11.088 11.3726 11.728V13.104C12.8926 12.24 13.2766 11.552 13.6606 11.104V18.944H11.2606V20H17.2926Z" fill="white"/>
<line x1="14.5" y1="28" x2="14.5" y2="90" stroke="#3D73D5" stroke-dasharray="2 2"/>
<rect x="44" width="28" height="28" rx="14" fill="#3D73D5"/>
<path d="M61.8319 20V18.88H55.7519C59.7199 16.176 61.5919 14.432 61.5919 12.416C61.5919 10.448 60.2479 9.152 57.9919 9.152C55.7999 9.152 54.4879 10.4 54.1359 12.336L55.3679 12.576C55.5599 11.056 56.5519 10.24 57.9439 10.24C59.5279 10.24 60.2479 11.168 60.2479 12.336C60.2479 14.144 59.1119 15.28 54.1359 18.96V20H61.8319Z" fill="white"/>
<line x1="58.5" y1="28" x2="58.5" y2="90" stroke="#3D73D5" stroke-dasharray="2 2"/>
<rect x="343" width="28" height="28" rx="14" fill="#3D73D5"/>
<path d="M359.376 20V17.504H361.088V16.4H359.376V9.12H357.968L352.8 16.48V17.504H358.128V20H359.376ZM358.128 10.576V16.4H353.984L358.128 10.576Z" fill="white"/>
<line x1="357.5" y1="28" x2="357.5" y2="90" stroke="#3D73D5" stroke-dasharray="2 2"/>
<rect x="231" y="20" width="28" height="28" rx="14" fill="#3D73D5"/>
<path d="M244.944 40.192C247.472 40.192 248.864 38.832 248.864 37.056C248.864 35.648 247.92 34.688 246.416 34.384C247.728 34.064 248.464 33.136 248.464 31.888C248.464 30.288 247.232 29.136 244.88 29.136C243.12 29.136 241.744 30.016 241.184 31.68L242.384 31.92C242.688 30.88 243.584 30.224 244.912 30.224C246.288 30.224 247.136 30.88 247.136 32.016C247.136 33.248 246.288 33.904 244.64 33.904H243.408V34.992H244.64C246.512 34.992 247.52 35.824 247.52 37.04C247.52 38.208 246.688 39.136 244.912 39.136C243.248 39.136 242.416 38.544 242.048 37.216L240.8 37.456C241.296 39.344 242.72 40.192 244.944 40.192Z" fill="white"/>
<line x1="245.5" y1="48" x2="245.5" y2="80" stroke="#3D73D5" stroke-dasharray="2 2"/>
</svg>
