<svg width="607" height="184" viewBox="0 0 607 184" fill="none" xmlns="http://www.w3.org/2000/svg">
<g clip-path="url(#clip0)">
<rect y="52" width="600" height="1" fill="#D5D5D5"/>
<path d="M2.376 89L3.186 86.264H6.93L7.848 89H10.98L6.894 76.994H3.798L-0.126 89H2.376ZM4.95 80.216L6.264 84.212H3.762L4.95 80.216ZM15.7949 89.162C18.1169 89.162 19.5389 88.028 19.8089 85.994L17.3969 85.778C17.2349 86.786 16.8389 87.38 15.9569 87.38C14.9849 87.38 14.3909 86.516 14.3909 84.536C14.3909 82.718 14.9129 81.764 15.9209 81.764C16.8029 81.764 17.1809 82.466 17.3069 83.492L19.7909 83.258C19.4309 81.062 17.9909 79.91 15.8309 79.91C13.1309 79.91 11.4209 81.98 11.4209 84.518C11.4209 87.452 13.2209 89.162 15.7949 89.162ZM25.1113 89.162C27.4333 89.162 28.8553 88.028 29.1253 85.994L26.7133 85.778C26.5513 86.786 26.1553 87.38 25.2733 87.38C24.3013 87.38 23.7073 86.516 23.7073 84.536C23.7073 82.718 24.2293 81.764 25.2373 81.764C26.1193 81.764 26.4973 82.466 26.6233 83.492L29.1073 83.258C28.7473 81.062 27.3073 79.91 25.1473 79.91C22.4473 79.91 20.7373 81.98 20.7373 84.518C20.7373 87.452 22.5373 89.162 25.1113 89.162ZM34.5897 89.144C37.3797 89.144 39.2517 87.164 39.2517 84.554C39.2517 81.782 37.4157 79.91 34.6437 79.91C31.9977 79.91 30.0537 81.836 30.0537 84.608C30.0537 87.218 31.9257 89.144 34.5897 89.144ZM34.6797 87.344C33.5637 87.344 33.0237 86.462 33.0237 84.518C33.0237 82.628 33.5997 81.764 34.6617 81.764C35.7597 81.764 36.2637 82.646 36.2637 84.518C36.2637 86.48 35.7057 87.344 34.6797 87.344ZM43.7029 89V83.654C44.2069 82.7 45.1069 82.16 46.1689 82.16C46.4029 82.16 46.7989 82.178 46.9789 82.214V79.964C46.8349 79.928 46.6009 79.91 46.3309 79.91C45.0169 79.91 43.9549 80.882 43.5409 81.944V80.072H40.8769V89H43.7029ZM50.8182 89.162C52.1502 89.162 52.9062 88.676 53.6262 87.722V89H56.2902V76.994H53.5182V80.99C52.9962 80.378 52.2402 79.91 51.1782 79.91C49.0542 79.91 47.6322 81.656 47.6322 84.5C47.6322 87.65 48.8922 89.162 50.8182 89.162ZM51.9882 87.308C51.0882 87.308 50.5302 86.678 50.5302 84.518C50.5302 82.412 50.9982 81.692 52.0062 81.692C52.7982 81.692 53.2122 82.178 53.5182 82.628V86.228C53.2302 86.804 52.7802 87.308 51.9882 87.308ZM61.2634 79.118V76.76H58.4194V79.118H61.2634ZM61.2454 89V80.072H58.4374V89H61.2454ZM67.4256 89.144C70.2156 89.144 72.0876 87.164 72.0876 84.554C72.0876 81.782 70.2516 79.91 67.4796 79.91C64.8336 79.91 62.8896 81.836 62.8896 84.608C62.8896 87.218 64.7616 89.144 67.4256 89.144ZM67.5156 87.344C66.3996 87.344 65.8596 86.462 65.8596 84.518C65.8596 82.628 66.4356 81.764 67.4976 81.764C68.5956 81.764 69.0996 82.646 69.0996 84.518C69.0996 86.48 68.5416 87.344 67.5156 87.344ZM76.4848 89V82.88C76.8448 82.34 77.3308 81.836 78.0688 81.836C78.7528 81.836 79.0408 82.25 79.0408 82.808V89H81.8308V82.718C81.8308 81.008 81.0928 79.91 79.2568 79.91C77.7448 79.91 76.8988 80.81 76.3768 81.548V80.072H73.6948V89H76.4848ZM91.4798 89V82.952C91.8398 82.448 92.3438 81.872 93.0818 81.872C93.6938 81.872 94.0358 82.232 94.0358 82.916V89H96.8618V82.592C96.8618 81.116 96.0698 79.91 94.3418 79.91C92.9378 79.91 92.1278 80.54 91.4618 81.332V76.994H88.6718V89H91.4798ZM103.059 89.144C105.363 89.144 106.839 88.028 107.433 86.336L105.111 86.03C104.787 86.912 104.211 87.362 103.311 87.362C102.213 87.362 101.385 86.66 101.349 85.058H107.523C107.541 84.86 107.541 84.716 107.541 84.518C107.469 81.746 105.831 79.91 103.041 79.91C100.557 79.91 98.4326 81.782 98.4326 84.662C98.4326 87.38 100.377 89.144 103.059 89.144ZM101.385 83.6C101.457 82.376 102.177 81.656 103.077 81.656C104.121 81.656 104.643 82.394 104.733 83.6H101.385ZM111.257 89.108C112.841 89.108 113.777 88.64 114.551 87.848C114.551 88.352 114.587 88.82 114.695 89H117.359C117.197 88.658 117.161 87.776 117.161 87.254V83.132C117.161 81.206 116.297 79.91 113.291 79.91C110.663 79.91 109.169 80.828 108.737 82.61L111.293 82.844C111.473 82.088 111.977 81.728 113.021 81.728C113.993 81.728 114.407 82.16 114.461 82.862C114.461 82.934 114.479 83.204 114.479 83.294C114.101 83.312 113.741 83.348 113.399 83.384C110.285 83.69 108.503 84.68 108.503 86.66C108.503 88.172 109.601 89.108 111.257 89.108ZM112.517 87.38C111.815 87.38 111.383 87.074 111.383 86.408C111.383 85.562 112.157 85.04 113.525 84.806C113.813 84.752 114.137 84.716 114.479 84.698V86.264C114.101 86.84 113.435 87.38 112.517 87.38ZM121.957 89.162C123.289 89.162 124.045 88.676 124.765 87.722V89H127.429V76.994H124.657V80.99C124.135 80.378 123.379 79.91 122.317 79.91C120.193 79.91 118.771 81.656 118.771 84.5C118.771 87.65 120.031 89.162 121.957 89.162ZM123.127 87.308C122.227 87.308 121.669 86.678 121.669 84.518C121.669 82.412 122.137 81.692 123.145 81.692C123.937 81.692 124.351 82.178 124.657 82.628V86.228C124.369 86.804 123.919 87.308 123.127 87.308ZM133.662 89.144C135.966 89.144 137.442 88.028 138.036 86.336L135.714 86.03C135.39 86.912 134.814 87.362 133.914 87.362C132.816 87.362 131.988 86.66 131.952 85.058H138.126C138.144 84.86 138.144 84.716 138.144 84.518C138.072 81.746 136.434 79.91 133.644 79.91C131.16 79.91 129.036 81.782 129.036 84.662C129.036 87.38 130.98 89.144 133.662 89.144ZM131.988 83.6C132.06 82.376 132.78 81.656 133.68 81.656C134.724 81.656 135.246 82.394 135.336 83.6H131.988ZM142.545 89V83.654C143.049 82.7 143.949 82.16 145.011 82.16C145.245 82.16 145.641 82.178 145.821 82.214V79.964C145.677 79.928 145.443 79.91 145.173 79.91C143.859 79.91 142.797 80.882 142.383 81.944V80.072H139.719V89H142.545Z" fill="#111111"/>
<path d="M592 78.414L597.293 83.707L598.707 82.293L592.707 76.293C592.519 76.1056 592.265 76.0002 592 76.0002C591.735 76.0002 591.481 76.1056 591.293 76.293L585.293 82.293L586.707 83.707L592 78.414Z" fill="#111111"/>
</g>
<path d="M7.6 124V122.848H2.656V113.328H1.328V124H7.6ZM11.4718 124.128C13.4238 124.128 15.0398 122.512 15.0398 120.032C15.0398 117.6 13.6318 115.968 11.4718 115.968C9.53575 115.968 7.93575 117.552 7.93575 120.016C7.93575 122.512 9.43975 124.128 11.4718 124.128ZM11.4557 123.2C10.1278 123.2 9.24775 122.016 9.24775 120.032C9.24775 118 10.2078 116.944 11.4557 116.944C12.7678 116.944 13.7278 117.968 13.7278 120.016C13.7278 122.144 12.7518 123.2 11.4557 123.2ZM18.073 124V118.848C18.729 117.744 19.657 117.104 20.585 117.104C20.681 117.104 20.841 117.104 20.937 117.12V115.984C20.809 115.968 20.713 115.968 20.569 115.968C19.449 115.968 18.521 116.88 18.009 117.808V116.112H16.825V124H18.073ZM25.0521 124.128C26.6201 124.128 27.8361 123.312 28.3801 121.792L27.2921 121.632C26.8441 122.8 26.0281 123.184 25.1641 123.184C23.6281 123.184 22.7321 122.176 22.7001 120.192H28.5241C28.5081 120.016 28.5241 119.84 28.5081 119.664C28.3481 117.472 27.1481 115.968 25.0841 115.968C23.0521 115.968 21.4361 117.52 21.4361 120.192C21.4361 122.544 22.8921 124.128 25.0521 124.128ZM22.7481 119.344C22.8441 117.856 23.8201 116.912 25.0841 116.912C26.3481 116.912 27.1321 117.824 27.2601 119.344H22.7481ZM31.4789 124V118.592C32.1989 117.584 32.8549 116.992 33.7669 116.992C34.5349 116.992 34.9349 117.52 34.9349 118.464V124H36.1509V118.608C36.6469 117.824 37.4629 117.024 38.4389 117.024C39.2069 117.024 39.6389 117.456 39.6389 118.48V124H40.8709V118.4C40.8709 117.76 40.7109 117.248 40.4709 116.88C40.1509 116.288 39.6069 115.984 38.7909 115.984C37.5429 115.984 36.6149 116.88 36.0709 117.744C35.9749 116.624 35.2389 115.968 34.0869 115.968C32.9509 115.968 31.9109 116.912 31.4469 117.696V116.112H30.2469V124H31.4789ZM48.2311 114.72V113.312H46.8711V114.72H48.2311ZM48.1831 124V116.112H46.9351V124H48.1831ZM54.3023 124.112C55.8863 124.112 57.3103 122.72 57.3103 120.048C57.3103 117.2 56.0943 115.968 54.3343 115.968C53.0703 115.968 52.2703 116.736 51.7903 117.504V116.112H50.6063V126.672H51.8383V122.96C52.3183 123.536 53.1503 124.112 54.3023 124.112ZM53.9663 123.2C52.8303 123.2 52.2543 122.496 51.8383 121.904V118.576C52.3983 117.472 53.1343 116.992 54.0463 116.992C55.4063 116.992 56.0143 117.968 56.0143 120.08C56.0143 122.352 55.2143 123.2 53.9663 123.2ZM61.6179 124.128C63.5379 124.128 64.7859 123.152 64.7859 121.696C64.7859 120.128 63.4099 119.68 61.7939 119.36C60.5299 119.088 59.5859 118.928 59.5859 118.064C59.5859 117.344 60.3059 116.912 61.3619 116.912C62.4339 116.912 63.1539 117.392 63.4579 118.224L64.5619 117.984C64.1619 116.752 63.1379 115.968 61.3619 115.968C59.6019 115.968 58.4339 116.848 58.4339 118.144C58.4339 119.696 59.7939 120.112 61.4099 120.416C62.5779 120.672 63.6339 120.864 63.6339 121.808C63.6339 122.64 62.8659 123.2 61.6179 123.2C60.2579 123.2 59.3779 122.576 59.1219 121.648L58.0019 121.872C58.3859 123.312 59.6179 124.128 61.6179 124.128ZM68.8656 124.128C69.9216 124.128 70.8816 123.664 71.5056 122.656V124H72.6576V116.112H71.4256V121.712C70.8976 122.672 70.1296 123.184 69.2496 123.184C68.1456 123.184 67.6816 122.688 67.6816 121.44V116.112H66.4336V121.408C66.4336 123.392 67.4416 124.128 68.8656 124.128ZM76.2758 124V118.592C76.9958 117.584 77.6518 116.992 78.5638 116.992C79.3318 116.992 79.7318 117.52 79.7318 118.464V124H80.9478V118.608C81.4438 117.824 82.2598 117.024 83.2358 117.024C84.0038 117.024 84.4358 117.456 84.4358 118.48V124H85.6678V118.4C85.6678 117.76 85.5078 117.248 85.2678 116.88C84.9478 116.288 84.4038 115.984 83.5878 115.984C82.3398 115.984 81.4118 116.88 80.8678 117.744C80.7718 116.624 80.0358 115.968 78.8838 115.968C77.7478 115.968 76.7078 116.912 76.2438 117.696V116.112H75.0438V124H76.2758ZM94.116 124.128C95.268 124.128 96.068 123.664 96.692 122.8V124H97.86V113.328H96.66V117.184C96.292 116.656 95.54 115.968 94.34 115.968C92.324 115.968 91.108 117.744 91.108 120.08C91.108 122.656 92.212 124.128 94.116 124.128ZM94.452 123.184C93.14 123.184 92.404 122.272 92.404 120.08C92.404 118.064 93.108 116.944 94.532 116.944C95.7 116.944 96.244 117.616 96.644 118.368V121.584C96.308 122.464 95.636 123.184 94.452 123.184ZM103.222 124.128C105.174 124.128 106.79 122.512 106.79 120.032C106.79 117.6 105.382 115.968 103.222 115.968C101.286 115.968 99.6858 117.552 99.6858 120.016C99.6858 122.512 101.19 124.128 103.222 124.128ZM103.206 123.2C101.878 123.2 100.998 122.016 100.998 120.032C100.998 118 101.958 116.944 103.206 116.944C104.518 116.944 105.478 117.968 105.478 120.016C105.478 122.144 104.502 123.2 103.206 123.2ZM109.855 124V113.328H108.607V124H109.855ZM115.206 124.128C117.158 124.128 118.774 122.512 118.774 120.032C118.774 117.6 117.366 115.968 115.206 115.968C113.27 115.968 111.67 117.552 111.67 120.016C111.67 122.512 113.174 124.128 115.206 124.128ZM115.19 123.2C113.862 123.2 112.982 122.016 112.982 120.032C112.982 118 113.942 116.944 115.19 116.944C116.502 116.944 117.462 117.968 117.462 120.016C117.462 122.144 116.486 123.2 115.19 123.2ZM121.807 124V118.848C122.463 117.744 123.391 117.104 124.319 117.104C124.415 117.104 124.575 117.104 124.671 117.12V115.984C124.543 115.968 124.447 115.968 124.303 115.968C123.183 115.968 122.255 116.88 121.743 117.808V116.112H120.559V124H121.807ZM125.462 126L126.63 123.824V122.224H124.902V124H125.574L124.614 126H125.462ZM135.118 124.128C137.038 124.128 138.286 123.152 138.286 121.696C138.286 120.128 136.91 119.68 135.294 119.36C134.03 119.088 133.086 118.928 133.086 118.064C133.086 117.344 133.806 116.912 134.862 116.912C135.934 116.912 136.654 117.392 136.958 118.224L138.062 117.984C137.662 116.752 136.638 115.968 134.862 115.968C133.102 115.968 131.934 116.848 131.934 118.144C131.934 119.696 133.294 120.112 134.91 120.416C136.078 120.672 137.134 120.864 137.134 121.808C137.134 122.64 136.366 123.2 135.118 123.2C133.758 123.2 132.878 122.576 132.622 121.648L131.502 121.872C131.886 123.312 133.118 124.128 135.118 124.128ZM141.294 114.72V113.312H139.934V114.72H141.294ZM141.246 124V116.112H139.998V124H141.246ZM145.877 124.112C146.309 124.112 146.789 124.064 147.221 123.984V123.008C146.933 123.056 146.469 123.104 146.101 123.104C145.429 123.088 144.997 122.72 144.997 121.888V117.104H146.773V116.112H144.997V114.048H143.861L143.797 116.112H142.501V117.104H143.781V121.824C143.781 123.456 144.549 124.112 145.877 124.112ZM154.166 124.096C155.638 124.096 156.566 123.536 157.19 122.672C157.174 123.072 157.238 123.728 157.334 124H158.518C158.39 123.504 158.342 122.96 158.342 122.464V118.88C158.342 116.896 157.478 115.968 155.238 115.968C153.366 115.968 152.134 116.736 151.846 118.176L152.998 118.304C153.254 117.296 153.926 116.944 155.206 116.944C156.534 116.944 157.046 117.408 157.142 118.272C157.174 118.464 157.174 118.736 157.174 119.008C156.55 119.024 156.022 119.024 155.382 119.104C153.222 119.36 151.654 120.208 151.654 121.92C151.654 123.36 152.774 124.096 154.166 124.096ZM154.534 123.184C153.478 123.184 152.95 122.704 152.95 121.792C152.95 120.8 153.83 120.112 155.542 119.888C156.038 119.824 156.614 119.824 157.174 119.824V121.456C156.838 122.272 156.038 123.184 154.534 123.184ZM161.948 124V118.592C162.668 117.584 163.324 116.992 164.236 116.992C165.004 116.992 165.404 117.52 165.404 118.464V124H166.62V118.608C167.116 117.824 167.932 117.024 168.908 117.024C169.676 117.024 170.108 117.456 170.108 118.48V124H171.34V118.4C171.34 117.76 171.18 117.248 170.94 116.88C170.62 116.288 170.076 115.984 169.26 115.984C168.012 115.984 167.084 116.88 166.54 117.744C166.444 116.624 165.708 115.968 164.556 115.968C163.42 115.968 162.38 116.912 161.916 117.696V116.112H160.716V124H161.948ZM176.708 124.128C178.276 124.128 179.492 123.312 180.036 121.792L178.948 121.632C178.5 122.8 177.684 123.184 176.82 123.184C175.284 123.184 174.388 122.176 174.356 120.192H180.18C180.164 120.016 180.18 119.84 180.164 119.664C180.004 117.472 178.804 115.968 176.74 115.968C174.708 115.968 173.092 117.52 173.092 120.192C173.092 122.544 174.548 124.128 176.708 124.128ZM174.404 119.344C174.5 117.856 175.476 116.912 176.74 116.912C178.004 116.912 178.788 117.824 178.916 119.344H174.404ZM184.111 124.112C184.543 124.112 185.023 124.064 185.455 123.984V123.008C185.167 123.056 184.703 123.104 184.335 123.104C183.663 123.088 183.231 122.72 183.231 121.888V117.104H185.007V116.112H183.231V114.048H182.095L182.031 116.112H180.735V117.104H182.015V121.824C182.015 123.456 182.783 124.112 184.111 124.112ZM193.297 124.128C194.865 124.128 196.033 123.216 196.305 121.44L195.217 121.328C194.977 122.64 194.369 123.2 193.329 123.2C192.145 123.2 191.217 122.224 191.217 120.048C191.217 118.08 191.985 116.96 193.249 116.96C194.337 116.96 194.961 117.664 195.153 118.96L196.321 118.816C195.969 116.88 194.913 115.968 193.233 115.968C191.233 115.968 189.905 117.728 189.905 120.016C189.905 122.656 191.361 124.128 193.297 124.128ZM200.894 124.128C202.846 124.128 204.462 122.512 204.462 120.032C204.462 117.6 203.054 115.968 200.894 115.968C198.958 115.968 197.358 117.552 197.358 120.016C197.358 122.512 198.862 124.128 200.894 124.128ZM200.878 123.2C199.55 123.2 198.67 122.016 198.67 120.032C198.67 118 199.63 116.944 200.878 116.944C202.19 116.944 203.15 117.968 203.15 120.016C203.15 122.144 202.174 123.2 200.878 123.2ZM207.495 124V118.592C208.151 117.648 208.983 117.008 209.991 117.008C210.887 117.008 211.303 117.456 211.303 118.4V124H212.551V118.416C212.551 116.8 211.831 115.968 210.359 115.968C208.951 115.968 207.975 116.896 207.431 117.68V116.112H206.247V124H207.495ZM217.415 124.128C219.335 124.128 220.583 123.152 220.583 121.696C220.583 120.128 219.207 119.68 217.591 119.36C216.327 119.088 215.383 118.928 215.383 118.064C215.383 117.344 216.103 116.912 217.159 116.912C218.231 116.912 218.951 117.392 219.255 118.224L220.359 117.984C219.959 116.752 218.935 115.968 217.159 115.968C215.399 115.968 214.231 116.848 214.231 118.144C214.231 119.696 215.591 120.112 217.207 120.416C218.375 120.672 219.431 120.864 219.431 121.808C219.431 122.64 218.663 123.2 217.415 123.2C216.055 123.2 215.175 122.576 214.919 121.648L213.799 121.872C214.183 123.312 215.415 124.128 217.415 124.128ZM225.286 124.128C226.855 124.128 228.071 123.312 228.615 121.792L227.527 121.632C227.079 122.8 226.263 123.184 225.399 123.184C223.863 123.184 222.967 122.176 222.935 120.192H228.759C228.743 120.016 228.759 119.84 228.743 119.664C228.583 117.472 227.383 115.968 225.319 115.968C223.287 115.968 221.671 117.52 221.671 120.192C221.671 122.544 223.127 124.128 225.286 124.128ZM222.983 119.344C223.079 117.856 224.055 116.912 225.319 116.912C226.583 116.912 227.367 117.824 227.495 119.344H222.983ZM233.265 124.128C234.833 124.128 236.001 123.216 236.273 121.44L235.185 121.328C234.945 122.64 234.337 123.2 233.297 123.2C232.113 123.2 231.185 122.224 231.185 120.048C231.185 118.08 231.953 116.96 233.217 116.96C234.305 116.96 234.929 117.664 235.121 118.96L236.289 118.816C235.937 116.88 234.881 115.968 233.201 115.968C231.201 115.968 229.873 117.728 229.873 120.016C229.873 122.656 231.329 124.128 233.265 124.128ZM240.142 124.112C240.574 124.112 241.054 124.064 241.486 123.984V123.008C241.198 123.056 240.734 123.104 240.366 123.104C239.694 123.088 239.262 122.72 239.262 121.888V117.104H241.038V116.112H239.262V114.048H238.126L238.062 116.112H236.766V117.104H238.046V121.824C238.046 123.456 238.814 124.112 240.142 124.112ZM245.88 124.128C247.448 124.128 248.664 123.312 249.208 121.792L248.12 121.632C247.672 122.8 246.856 123.184 245.992 123.184C244.456 123.184 243.56 122.176 243.528 120.192H249.352C249.336 120.016 249.352 119.84 249.336 119.664C249.176 117.472 247.976 115.968 245.912 115.968C243.88 115.968 242.264 117.52 242.264 120.192C242.264 122.544 243.72 124.128 245.88 124.128ZM243.576 119.344C243.672 117.856 244.648 116.912 245.912 116.912C247.176 116.912 247.96 117.824 248.088 119.344H243.576ZM253.283 124.112C253.715 124.112 254.195 124.064 254.627 123.984V123.008C254.339 123.056 253.875 123.104 253.507 123.104C252.835 123.088 252.403 122.72 252.403 121.888V117.104H254.179V116.112H252.403V114.048H251.267L251.203 116.112H249.907V117.104H251.187V121.824C251.187 123.456 251.955 124.112 253.283 124.112ZM258.397 124.128C259.453 124.128 260.413 123.664 261.037 122.656V124H262.189V116.112H260.957V121.712C260.429 122.672 259.661 123.184 258.781 123.184C257.677 123.184 257.213 122.688 257.213 121.44V116.112H255.965V121.408C255.965 123.392 256.973 124.128 258.397 124.128ZM265.823 124V118.848C266.479 117.744 267.407 117.104 268.335 117.104C268.431 117.104 268.591 117.104 268.687 117.12V115.984C268.559 115.968 268.463 115.968 268.319 115.968C267.199 115.968 266.271 116.88 265.759 117.808V116.112H264.575V124H265.823ZM275.51 124.096C276.982 124.096 277.91 123.536 278.534 122.672C278.518 123.072 278.582 123.728 278.678 124H279.862C279.734 123.504 279.686 122.96 279.686 122.464V118.88C279.686 116.896 278.822 115.968 276.582 115.968C274.71 115.968 273.478 116.736 273.19 118.176L274.342 118.304C274.598 117.296 275.27 116.944 276.55 116.944C277.878 116.944 278.39 117.408 278.486 118.272C278.518 118.464 278.518 118.736 278.518 119.008C277.894 119.024 277.366 119.024 276.726 119.104C274.566 119.36 272.998 120.208 272.998 121.92C272.998 123.36 274.118 124.096 275.51 124.096ZM275.878 123.184C274.822 123.184 274.294 122.704 274.294 121.792C274.294 120.8 275.174 120.112 276.886 119.888C277.382 119.824 277.958 119.824 278.518 119.824V121.456C278.182 122.272 277.382 123.184 275.878 123.184ZM284.475 124.128C285.627 124.128 286.427 123.664 287.051 122.8V124H288.219V113.328H287.019V117.184C286.651 116.656 285.899 115.968 284.699 115.968C282.683 115.968 281.467 117.744 281.467 120.08C281.467 122.656 282.571 124.128 284.475 124.128ZM284.811 123.184C283.499 123.184 282.763 122.272 282.763 120.08C282.763 118.064 283.467 116.944 284.891 116.944C286.059 116.944 286.603 117.616 287.003 118.368V121.584C286.667 122.464 285.995 123.184 284.811 123.184ZM291.981 114.72V113.312H290.621V114.72H291.981ZM291.933 124V116.112H290.685V124H291.933ZM298.052 124.112C299.636 124.112 301.06 122.72 301.06 120.048C301.06 117.2 299.844 115.968 298.084 115.968C296.82 115.968 296.02 116.736 295.54 117.504V116.112H294.356V126.672H295.588V122.96C296.068 123.536 296.9 124.112 298.052 124.112ZM297.716 123.2C296.58 123.2 296.004 122.496 295.588 121.904V118.576C296.148 117.472 296.884 116.992 297.796 116.992C299.156 116.992 299.764 117.968 299.764 120.08C299.764 122.352 298.964 123.2 297.716 123.2ZM304.2 114.72V113.312H302.84V114.72H304.2ZM304.152 124V116.112H302.904V124H304.152ZM309.071 124.128C310.991 124.128 312.239 123.152 312.239 121.696C312.239 120.128 310.863 119.68 309.247 119.36C307.983 119.088 307.039 118.928 307.039 118.064C307.039 117.344 307.759 116.912 308.815 116.912C309.887 116.912 310.607 117.392 310.911 118.224L312.015 117.984C311.615 116.752 310.591 115.968 308.815 115.968C307.055 115.968 305.887 116.848 305.887 118.144C305.887 119.696 307.247 120.112 308.863 120.416C310.031 120.672 311.087 120.864 311.087 121.808C311.087 122.64 310.319 123.2 309.071 123.2C307.711 123.2 306.831 122.576 306.575 121.648L305.455 121.872C305.839 123.312 307.071 124.128 309.071 124.128ZM315.247 114.72V113.312H313.887V114.72H315.247ZM315.199 124V116.112H313.951V124H315.199ZM320.406 124.128C321.974 124.128 323.142 123.216 323.414 121.44L322.326 121.328C322.086 122.64 321.478 123.2 320.438 123.2C319.254 123.2 318.326 122.224 318.326 120.048C318.326 118.08 319.094 116.96 320.358 116.96C321.446 116.96 322.07 117.664 322.262 118.96L323.43 118.816C323.078 116.88 322.022 115.968 320.342 115.968C318.342 115.968 317.014 117.728 317.014 120.016C317.014 122.656 318.47 124.128 320.406 124.128ZM326.403 114.72V113.312H325.043V114.72H326.403ZM326.355 124V116.112H325.107V124H326.355ZM330.026 124V118.592C330.682 117.648 331.514 117.008 332.522 117.008C333.418 117.008 333.834 117.456 333.834 118.4V124H335.082V118.416C335.082 116.8 334.362 115.968 332.89 115.968C331.482 115.968 330.506 116.896 329.962 117.68V116.112H328.778V124H330.026ZM340.3 126.976C342.86 126.976 344.156 126.016 344.156 124.64C344.156 123.344 343.26 122.816 340.748 122.768C339.148 122.72 338.156 122.72 338.156 122.016C338.156 121.536 338.604 121.232 339.02 121.232C339.148 121.264 339.66 121.376 340.172 121.376C341.964 121.376 343.052 120.24 343.052 118.672C343.052 117.856 342.748 117.232 342.332 116.864C342.46 116.288 342.796 115.952 343.596 115.968C343.692 115.968 343.772 115.984 343.868 116L343.852 114.96C343.804 114.96 343.708 114.96 343.66 114.96C342.316 114.944 341.884 115.488 341.692 116.352C341.212 116.096 340.636 115.968 340.044 115.968C338.46 115.968 337.1 117.056 337.1 118.672C337.1 119.632 337.484 120.448 338.252 120.848C337.548 121.04 337.004 121.52 337.004 122.192C337.004 122.8 337.324 123.248 338.124 123.472C337.164 123.712 336.588 124.304 336.588 125.088C336.588 126.304 337.868 126.976 340.3 126.976ZM340.108 120.544C339.036 120.544 338.332 119.904 338.332 118.672C338.332 117.68 338.94 116.864 340.108 116.864C341.292 116.864 341.884 117.728 341.884 118.688C341.884 119.872 341.228 120.544 340.108 120.544ZM340.204 126.144C338.444 126.144 337.724 125.696 337.724 124.944C337.724 124.24 338.204 123.92 338.828 123.744C342.38 123.824 342.972 124 342.972 124.8C342.972 125.6 341.964 126.144 340.204 126.144ZM351.943 124.128C353.511 124.128 354.727 123.312 355.271 121.792L354.183 121.632C353.735 122.8 352.919 123.184 352.055 123.184C350.519 123.184 349.623 122.176 349.591 120.192H355.415C355.399 120.016 355.415 119.84 355.399 119.664C355.239 117.472 354.039 115.968 351.975 115.968C349.943 115.968 348.327 117.52 348.327 120.192C348.327 122.544 349.783 124.128 351.943 124.128ZM349.639 119.344C349.735 117.856 350.711 116.912 351.975 116.912C353.239 116.912 354.023 117.824 354.151 119.344H349.639ZM358.418 124V113.328H357.17V124H358.418ZM362.169 114.72V113.312H360.809V114.72H362.169ZM362.121 124V116.112H360.873V124H362.121ZM366.752 124.112C367.184 124.112 367.664 124.064 368.096 123.984V123.008C367.808 123.056 367.344 123.104 366.976 123.104C366.304 123.088 365.872 122.72 365.872 121.888V117.104H367.648V116.112H365.872V114.048H364.736L364.672 116.112H363.376V117.104H364.656V121.824C364.656 123.456 365.424 124.112 366.752 124.112ZM371.411 124V122.256H369.667V124H371.411ZM378.891 124V113.328H377.563V124H378.891ZM383.85 124.128C385.002 124.128 385.802 123.664 386.426 122.8V124H387.594V113.328H386.394V117.184C386.026 116.656 385.274 115.968 384.074 115.968C382.058 115.968 380.842 117.744 380.842 120.08C380.842 122.656 381.946 124.128 383.85 124.128ZM384.186 123.184C382.874 123.184 382.138 122.272 382.138 120.08C382.138 118.064 382.842 116.944 384.266 116.944C385.434 116.944 385.978 117.616 386.378 118.368V121.584C386.042 122.464 385.37 123.184 384.186 123.184ZM395.604 124.096C397.076 124.096 398.004 123.536 398.628 122.672C398.612 123.072 398.676 123.728 398.772 124H399.956C399.828 123.504 399.78 122.96 399.78 122.464V118.88C399.78 116.896 398.916 115.968 396.676 115.968C394.804 115.968 393.572 116.736 393.284 118.176L394.436 118.304C394.692 117.296 395.364 116.944 396.644 116.944C397.972 116.944 398.484 117.408 398.58 118.272C398.612 118.464 398.612 118.736 398.612 119.008C397.988 119.024 397.46 119.024 396.82 119.104C394.66 119.36 393.092 120.208 393.092 121.92C393.092 123.36 394.212 124.096 395.604 124.096ZM395.972 123.184C394.916 123.184 394.388 122.704 394.388 121.792C394.388 120.8 395.268 120.112 396.98 119.888C397.476 119.824 398.052 119.824 398.612 119.824V121.456C398.276 122.272 397.476 123.184 395.972 123.184ZM405.785 124.112C407.577 124.112 408.873 122.752 408.873 120.032C408.873 117.392 407.769 115.968 405.881 115.968C404.745 115.968 403.737 116.752 403.337 117.616V113.328H402.153V124H402.841L403.241 122.688C403.753 123.584 404.601 124.112 405.785 124.112ZM405.545 123.216C404.281 123.216 403.353 122.272 403.353 120.624V118.72C403.785 117.808 404.441 116.96 405.593 116.96C406.921 116.96 407.593 118 407.593 120.064C407.593 122.272 406.889 123.216 405.545 123.216ZM416.26 124.096C417.732 124.096 418.66 123.536 419.284 122.672C419.268 123.072 419.332 123.728 419.428 124H420.612C420.484 123.504 420.436 122.96 420.436 122.464V118.88C420.436 116.896 419.572 115.968 417.332 115.968C415.46 115.968 414.228 116.736 413.94 118.176L415.092 118.304C415.348 117.296 416.02 116.944 417.3 116.944C418.628 116.944 419.14 117.408 419.236 118.272C419.268 118.464 419.268 118.736 419.268 119.008C418.644 119.024 418.116 119.024 417.476 119.104C415.316 119.36 413.748 120.208 413.748 121.92C413.748 123.36 414.868 124.096 416.26 124.096ZM416.628 123.184C415.572 123.184 415.044 122.704 415.044 121.792C415.044 120.8 415.924 120.112 417.636 119.888C418.132 119.824 418.708 119.824 419.268 119.824V121.456C418.932 122.272 418.132 123.184 416.628 123.184ZM424.089 124V113.328H422.841V124H424.089ZM427.841 114.72V113.312H426.481V114.72H427.841ZM427.793 124V116.112H426.545V124H427.793ZM432.712 124.112C433.672 124.112 434.616 123.68 435.16 122.704V126.672H436.376V116.112H435.784L435.32 117.296C434.872 116.624 434.152 116 432.904 116C430.872 116 429.624 117.776 429.624 120.096C429.624 122.784 430.888 124.112 432.712 124.112ZM433.032 123.216C431.704 123.216 430.904 122.176 430.904 120.064C430.904 118.032 431.752 116.944 433.048 116.944C434.2 116.944 434.792 117.632 435.16 118.496V120.912C435.128 122.432 434.168 123.216 433.032 123.216ZM441.194 124.128C442.25 124.128 443.21 123.664 443.834 122.656V124H444.986V116.112H443.754V121.712C443.226 122.672 442.458 123.184 441.578 123.184C440.474 123.184 440.01 122.688 440.01 121.44V116.112H438.762V121.408C438.762 123.392 439.77 124.128 441.194 124.128ZM449.26 124.096C450.732 124.096 451.66 123.536 452.284 122.672C452.268 123.072 452.332 123.728 452.428 124H453.612C453.484 123.504 453.436 122.96 453.436 122.464V118.88C453.436 116.896 452.572 115.968 450.332 115.968C448.46 115.968 447.228 116.736 446.94 118.176L448.092 118.304C448.348 117.296 449.02 116.944 450.3 116.944C451.628 116.944 452.14 117.408 452.236 118.272C452.268 118.464 452.268 118.736 452.268 119.008C451.644 119.024 451.116 119.024 450.476 119.104C448.316 119.36 446.748 120.208 446.748 121.92C446.748 123.36 447.868 124.096 449.26 124.096ZM449.628 123.184C448.572 123.184 448.044 122.704 448.044 121.792C448.044 120.8 448.924 120.112 450.636 119.888C451.132 119.824 451.708 119.824 452.268 119.824V121.456C451.932 122.272 451.132 123.184 449.628 123.184ZM457.041 124V118.592C457.761 117.584 458.417 116.992 459.329 116.992C460.097 116.992 460.497 117.52 460.497 118.464V124H461.713V118.608C462.209 117.824 463.025 117.024 464.001 117.024C464.769 117.024 465.201 117.456 465.201 118.48V124H466.433V118.4C466.433 117.76 466.273 117.248 466.033 116.88C465.713 116.288 465.169 115.984 464.353 115.984C463.105 115.984 462.177 116.88 461.633 117.744C461.537 116.624 460.801 115.968 459.649 115.968C458.513 115.968 457.473 116.912 457.009 117.696V116.112H455.809V124H457.041ZM475.394 124L478.274 116.112H477.186L475.346 121.216C475.154 121.68 474.93 122.448 474.85 122.656C474.802 122.432 474.562 121.696 474.386 121.2L472.61 116.112H471.298L474.13 124H475.394ZM482.505 124.128C484.073 124.128 485.289 123.312 485.833 121.792L484.745 121.632C484.297 122.8 483.481 123.184 482.617 123.184C481.081 123.184 480.185 122.176 480.153 120.192H485.977C485.961 120.016 485.977 119.84 485.961 119.664C485.801 117.472 484.601 115.968 482.537 115.968C480.505 115.968 478.889 117.52 478.889 120.192C478.889 122.544 480.345 124.128 482.505 124.128ZM480.201 119.344C480.297 117.856 481.273 116.912 482.537 116.912C483.801 116.912 484.585 117.824 484.713 119.344H480.201ZM488.948 124V118.848C489.604 117.744 490.532 117.104 491.46 117.104C491.556 117.104 491.716 117.104 491.812 117.12V115.984C491.684 115.968 491.588 115.968 491.444 115.968C490.324 115.968 489.396 116.88 488.884 117.808V116.112H487.7V124H488.948ZM495.987 124.128C497.939 124.128 499.555 122.512 499.555 120.032C499.555 117.6 498.147 115.968 495.987 115.968C494.051 115.968 492.451 117.552 492.451 120.016C492.451 122.512 493.955 124.128 495.987 124.128ZM495.971 123.2C494.643 123.2 493.763 122.016 493.763 120.032C493.763 118 494.723 116.944 495.971 116.944C497.283 116.944 498.243 117.968 498.243 120.016C498.243 122.144 497.267 123.2 495.971 123.2ZM506.26 124V118.592C506.98 117.584 507.636 116.992 508.548 116.992C509.316 116.992 509.716 117.52 509.716 118.464V124H510.932V118.608C511.428 117.824 512.244 117.024 513.22 117.024C513.988 117.024 514.42 117.456 514.42 118.48V124H515.652V118.4C515.652 117.76 515.492 117.248 515.252 116.88C514.932 116.288 514.388 115.984 513.572 115.984C512.324 115.984 511.396 116.88 510.852 117.744C510.756 116.624 510.02 115.968 508.868 115.968C507.732 115.968 506.692 116.912 506.228 117.696V116.112H505.028V124H506.26ZM519.325 114.72V113.312H517.965V114.72H519.325ZM519.277 124V116.112H518.029V124H519.277ZM522.948 124V118.592C523.604 117.648 524.436 117.008 525.444 117.008C526.34 117.008 526.756 117.456 526.756 118.4V124H528.004V118.416C528.004 116.8 527.284 115.968 525.812 115.968C524.404 115.968 523.428 116.896 522.884 117.68V116.112H521.7V124H522.948ZM532.772 124.128C533.828 124.128 534.788 123.664 535.412 122.656V124H536.564V116.112H535.332V121.712C534.804 122.672 534.036 123.184 533.156 123.184C532.052 123.184 531.588 122.688 531.588 121.44V116.112H530.34V121.408C530.34 123.392 531.348 124.128 532.772 124.128ZM541.446 124.128C543.366 124.128 544.614 123.152 544.614 121.696C544.614 120.128 543.238 119.68 541.622 119.36C540.358 119.088 539.414 118.928 539.414 118.064C539.414 117.344 540.134 116.912 541.19 116.912C542.262 116.912 542.982 117.392 543.286 118.224L544.39 117.984C543.99 116.752 542.966 115.968 541.19 115.968C539.43 115.968 538.262 116.848 538.262 118.144C538.262 119.696 539.622 120.112 541.238 120.416C542.406 120.672 543.462 120.864 543.462 121.808C543.462 122.64 542.694 123.2 541.446 123.2C540.086 123.2 539.206 122.576 538.95 121.648L537.83 121.872C538.214 123.312 539.446 124.128 541.446 124.128ZM546.79 126L547.958 123.824V122.224H546.23V124H546.902L545.942 126H546.79ZM555.278 114.72V113.312H553.918V114.72H555.278ZM555.23 124V116.112H553.982V124H555.23ZM560.053 124.128C561.109 124.128 562.069 123.664 562.693 122.656V124H563.845V116.112H562.613V121.712C562.085 122.672 561.317 123.184 560.437 123.184C559.333 123.184 558.869 122.688 558.869 121.44V116.112H557.621V121.408C557.621 123.392 558.629 124.128 560.053 124.128ZM567.479 124V118.848C568.135 117.744 569.063 117.104 569.991 117.104C570.087 117.104 570.247 117.104 570.343 117.12V115.984C570.215 115.968 570.119 115.968 569.975 115.968C568.855 115.968 567.927 116.88 567.415 117.808V116.112H566.231V124H567.479ZM574.458 124.128C576.026 124.128 577.242 123.312 577.786 121.792L576.698 121.632C576.25 122.8 575.434 123.184 574.57 123.184C573.034 123.184 572.138 122.176 572.106 120.192H577.93C577.914 120.016 577.93 119.84 577.914 119.664C577.754 117.472 576.554 115.968 574.49 115.968C572.458 115.968 570.842 117.52 570.842 120.192C570.842 122.544 572.298 124.128 574.458 124.128ZM572.154 119.344C572.25 117.856 573.226 116.912 574.49 116.912C575.754 116.912 576.538 117.824 576.666 119.344H572.154ZM2.528 134.72V133.312H1.168V134.72H2.528ZM2.48 144V136.112H1.232V144H2.48ZM6.13513 144V138.592C6.85513 137.584 7.51113 136.992 8.42313 136.992C9.19113 136.992 9.59113 137.52 9.59113 138.464V144H10.8071V138.608C11.3031 137.824 12.1191 137.024 13.0951 137.024C13.8631 137.024 14.2951 137.456 14.2951 138.48V144H15.5271V138.4C15.5271 137.76 15.3671 137.248 15.1271 136.88C14.8071 136.288 14.2631 135.984 13.4471 135.984C12.1991 135.984 11.2711 136.88 10.7271 137.744C10.6311 136.624 9.89513 135.968 8.74313 135.968C7.60713 135.968 6.56713 136.912 6.10313 137.696V136.112H4.90313V144H6.13513ZM21.5679 144.112C23.1519 144.112 24.5759 142.72 24.5759 140.048C24.5759 137.2 23.3599 135.968 21.5999 135.968C20.3359 135.968 19.5359 136.736 19.0559 137.504V136.112H17.8719V146.672H19.1039V142.96C19.5839 143.536 20.4159 144.112 21.5679 144.112ZM21.2319 143.2C20.0959 143.2 19.5199 142.496 19.1039 141.904V138.576C19.6639 137.472 20.3999 136.992 21.3119 136.992C22.6719 136.992 23.2799 137.968 23.2799 140.08C23.2799 142.352 22.4799 143.2 21.2319 143.2ZM29.4115 144.128C30.9795 144.128 32.1955 143.312 32.7395 141.792L31.6515 141.632C31.2035 142.8 30.3875 143.184 29.5235 143.184C27.9875 143.184 27.0915 142.176 27.0595 140.192H32.8835C32.8675 140.016 32.8835 139.84 32.8675 139.664C32.7075 137.472 31.5075 135.968 29.4435 135.968C27.4115 135.968 25.7955 137.52 25.7955 140.192C25.7955 142.544 27.2515 144.128 29.4115 144.128ZM27.1075 139.344C27.2035 137.856 28.1795 136.912 29.4435 136.912C30.7075 136.912 31.4915 137.824 31.6195 139.344H27.1075ZM37.0223 144.128C38.1743 144.128 38.9743 143.664 39.5983 142.8V144H40.7663V133.328H39.5663V137.184C39.1983 136.656 38.4463 135.968 37.2463 135.968C35.2303 135.968 34.0143 137.744 34.0143 140.08C34.0143 142.656 35.1183 144.128 37.0223 144.128ZM37.3583 143.184C36.0463 143.184 35.3103 142.272 35.3103 140.08C35.3103 138.064 36.0143 136.944 37.4383 136.944C38.6063 136.944 39.1503 137.616 39.5503 138.368V141.584C39.2143 142.464 38.5423 143.184 37.3583 143.184ZM44.528 134.72V133.312H43.168V134.72H44.528ZM44.48 144V136.112H43.232V144H44.48ZM49.1111 144.112C49.5431 144.112 50.0231 144.064 50.4551 143.984V143.008C50.1671 143.056 49.7031 143.104 49.3351 143.104C48.6631 143.088 48.2311 142.72 48.2311 141.888V137.104H50.0071V136.112H48.2311V134.048H47.0951L47.0311 136.112H45.7351V137.104H47.0151V141.824C47.0151 143.456 47.7831 144.112 49.1111 144.112ZM53.7699 144V142.256H52.0259V144H53.7699ZM63.5701 144L67.1701 133.328H65.9541L63.3781 141.104C63.3141 141.264 63.0741 142.048 63.0261 142.256C62.9941 142.048 62.7381 141.216 62.7061 141.104L60.0821 133.328H58.6741L62.2741 144H63.5701ZM70.878 144.128C72.83 144.128 74.446 142.512 74.446 140.032C74.446 137.6 73.038 135.968 70.878 135.968C68.942 135.968 67.342 137.552 67.342 140.016C67.342 142.512 68.846 144.128 70.878 144.128ZM70.862 143.2C69.534 143.2 68.654 142.016 68.654 140.032C68.654 138 69.614 136.944 70.862 136.944C72.174 136.944 73.134 137.968 73.134 140.016C73.134 142.144 72.158 143.2 70.862 143.2ZM77.5113 144V133.328H76.2633V144H77.5113ZM82.3344 144.128C83.3904 144.128 84.3504 143.664 84.9744 142.656V144H86.1264V136.112H84.8944V141.712C84.3664 142.672 83.5984 143.184 82.7184 143.184C81.6144 143.184 81.1504 142.688 81.1504 141.44V136.112H79.9024V141.408C79.9024 143.392 80.9104 144.128 82.3344 144.128ZM92.2085 144.112C93.7925 144.112 95.2165 142.72 95.2165 140.048C95.2165 137.2 94.0005 135.968 92.2405 135.968C90.9765 135.968 90.1765 136.736 89.6965 137.504V136.112H88.5125V146.672H89.7445V142.96C90.2245 143.536 91.0565 144.112 92.2085 144.112ZM91.8725 143.2C90.7365 143.2 90.1605 142.496 89.7445 141.904V138.576C90.3045 137.472 91.0405 136.992 91.9525 136.992C93.3125 136.992 93.9205 137.968 93.9205 140.08C93.9205 142.352 93.1205 143.2 91.8725 143.2ZM99.2361 144.112C99.6681 144.112 100.148 144.064 100.58 143.984V143.008C100.292 143.056 99.8281 143.104 99.4601 143.104C98.7881 143.088 98.3561 142.72 98.3561 141.888V137.104H100.132V136.112H98.3561V134.048H97.2201L97.1561 136.112H95.8601V137.104H97.1401V141.824C97.1401 143.456 97.9081 144.112 99.2361 144.112ZM103.838 144.096C105.31 144.096 106.238 143.536 106.862 142.672C106.846 143.072 106.91 143.728 107.006 144H108.19C108.062 143.504 108.014 142.96 108.014 142.464V138.88C108.014 136.896 107.15 135.968 104.91 135.968C103.038 135.968 101.806 136.736 101.518 138.176L102.67 138.304C102.926 137.296 103.598 136.944 104.878 136.944C106.206 136.944 106.718 137.408 106.814 138.272C106.846 138.464 106.846 138.736 106.846 139.008C106.222 139.024 105.694 139.024 105.054 139.104C102.894 139.36 101.326 140.208 101.326 141.92C101.326 143.36 102.446 144.096 103.838 144.096ZM104.206 143.184C103.15 143.184 102.622 142.704 102.622 141.792C102.622 140.8 103.502 140.112 105.214 139.888C105.71 139.824 106.286 139.824 106.846 139.824V141.456C106.51 142.272 105.71 143.184 104.206 143.184ZM112.596 144.112C113.028 144.112 113.508 144.064 113.94 143.984V143.008C113.652 143.056 113.188 143.104 112.82 143.104C112.148 143.088 111.716 142.72 111.716 141.888V137.104H113.492V136.112H111.716V134.048H110.58L110.516 136.112H109.22V137.104H110.5V141.824C110.5 143.456 111.268 144.112 112.596 144.112ZM117.709 144.128C118.765 144.128 119.725 143.664 120.349 142.656V144H121.501V136.112H120.269V141.712C119.741 142.672 118.973 143.184 118.093 143.184C116.989 143.184 116.525 142.688 116.525 141.44V136.112H115.277V141.408C115.277 143.392 116.285 144.128 117.709 144.128ZM125.12 144V138.592C125.84 137.584 126.496 136.992 127.408 136.992C128.176 136.992 128.576 137.52 128.576 138.464V144H129.792V138.608C130.288 137.824 131.104 137.024 132.08 137.024C132.848 137.024 133.28 137.456 133.28 138.48V144H134.512V138.4C134.512 137.76 134.352 137.248 134.112 136.88C133.792 136.288 133.248 135.984 132.432 135.984C131.184 135.984 130.256 136.88 129.712 137.744C129.616 136.624 128.88 135.968 127.728 135.968C126.592 135.968 125.552 136.912 125.088 137.696V136.112H123.888V144H125.12ZM143.04 144.112C144 144.112 144.944 143.68 145.488 142.704V146.672H146.704V136.112H146.112L145.648 137.296C145.2 136.624 144.48 136 143.232 136C141.2 136 139.952 137.776 139.952 140.096C139.952 142.784 141.216 144.112 143.04 144.112ZM143.36 143.216C142.032 143.216 141.232 142.176 141.232 140.064C141.232 138.032 142.08 136.944 143.376 136.944C144.528 136.944 145.12 137.632 145.488 138.496V140.912C145.456 142.432 144.496 143.216 143.36 143.216ZM151.522 144.128C152.578 144.128 153.538 143.664 154.162 142.656V144H155.314V136.112H154.082V141.712C153.554 142.672 152.786 143.184 151.906 143.184C150.802 143.184 150.338 142.688 150.338 141.44V136.112H149.09V141.408C149.09 143.392 150.098 144.128 151.522 144.128ZM160.628 144.128C162.58 144.128 164.196 142.512 164.196 140.032C164.196 137.6 162.788 135.968 160.628 135.968C158.692 135.968 157.092 137.552 157.092 140.016C157.092 142.512 158.596 144.128 160.628 144.128ZM160.612 143.2C159.284 143.2 158.404 142.016 158.404 140.032C158.404 138 159.364 136.944 160.612 136.944C161.924 136.944 162.884 137.968 162.884 140.016C162.884 142.144 161.908 143.2 160.612 143.2ZM172.693 144.128C174.261 144.128 175.477 143.312 176.021 141.792L174.933 141.632C174.485 142.8 173.669 143.184 172.805 143.184C171.269 143.184 170.373 142.176 170.341 140.192H176.165C176.149 140.016 176.165 139.84 176.149 139.664C175.989 137.472 174.789 135.968 172.725 135.968C170.693 135.968 169.077 137.52 169.077 140.192C169.077 142.544 170.533 144.128 172.693 144.128ZM170.389 139.344C170.485 137.856 171.461 136.912 172.725 136.912C173.989 136.912 174.773 137.824 174.901 139.344H170.389ZM179.168 144V133.328H177.92V144H179.168ZM182.919 134.72V133.312H181.559V134.72H182.919ZM182.871 144V136.112H181.623V144H182.871ZM188.222 146.976C190.782 146.976 192.078 146.016 192.078 144.64C192.078 143.344 191.182 142.816 188.67 142.768C187.07 142.72 186.078 142.72 186.078 142.016C186.078 141.536 186.526 141.232 186.942 141.232C187.07 141.264 187.582 141.376 188.094 141.376C189.886 141.376 190.974 140.24 190.974 138.672C190.974 137.856 190.67 137.232 190.254 136.864C190.382 136.288 190.718 135.952 191.518 135.968C191.614 135.968 191.694 135.984 191.79 136L191.774 134.96C191.726 134.96 191.63 134.96 191.582 134.96C190.238 134.944 189.806 135.488 189.614 136.352C189.134 136.096 188.558 135.968 187.966 135.968C186.382 135.968 185.022 137.056 185.022 138.672C185.022 139.632 185.406 140.448 186.174 140.848C185.47 141.04 184.926 141.52 184.926 142.192C184.926 142.8 185.246 143.248 186.046 143.472C185.086 143.712 184.51 144.304 184.51 145.088C184.51 146.304 185.79 146.976 188.222 146.976ZM188.03 140.544C186.958 140.544 186.254 139.904 186.254 138.672C186.254 137.68 186.862 136.864 188.03 136.864C189.214 136.864 189.806 137.728 189.806 138.688C189.806 139.872 189.15 140.544 188.03 140.544ZM188.126 146.144C186.366 146.144 185.646 145.696 185.646 144.944C185.646 144.24 186.126 143.92 186.75 143.744C190.302 143.824 190.894 144 190.894 144.8C190.894 145.6 189.886 146.144 188.126 146.144ZM196.177 144.128C197.745 144.128 198.961 143.312 199.505 141.792L198.417 141.632C197.969 142.8 197.153 143.184 196.289 143.184C194.753 143.184 193.857 142.176 193.825 140.192H199.649C199.633 140.016 199.649 139.84 199.633 139.664C199.473 137.472 198.273 135.968 196.209 135.968C194.177 135.968 192.561 137.52 192.561 140.192C192.561 142.544 194.017 144.128 196.177 144.128ZM193.873 139.344C193.969 137.856 194.945 136.912 196.209 136.912C197.473 136.912 198.257 137.824 198.385 139.344H193.873ZM202.62 144V138.592C203.276 137.648 204.108 137.008 205.116 137.008C206.012 137.008 206.428 137.456 206.428 138.4V144H207.676V138.416C207.676 136.8 206.956 135.968 205.484 135.968C204.076 135.968 203.1 136.896 202.556 137.68V136.112H201.372V144H202.62ZM212.46 144.128C213.612 144.128 214.412 143.664 215.036 142.8V144H216.204V133.328H215.004V137.184C214.636 136.656 213.884 135.968 212.684 135.968C210.668 135.968 209.452 137.744 209.452 140.08C209.452 142.656 210.556 144.128 212.46 144.128ZM212.796 143.184C211.484 143.184 210.748 142.272 210.748 140.08C210.748 138.064 211.452 136.944 212.876 136.944C214.044 136.944 214.588 137.616 214.988 138.368V141.584C214.652 142.464 213.98 143.184 212.796 143.184ZM219.966 134.72V133.312H218.606V134.72H219.966ZM219.918 144V136.112H218.67V144H219.918ZM228.444 144.128C229.596 144.128 230.396 143.664 231.02 142.8V144H232.188V133.328H230.988V137.184C230.62 136.656 229.868 135.968 228.668 135.968C226.652 135.968 225.436 137.744 225.436 140.08C225.436 142.656 226.54 144.128 228.444 144.128ZM228.78 143.184C227.468 143.184 226.732 142.272 226.732 140.08C226.732 138.064 227.436 136.944 228.86 136.944C230.028 136.944 230.572 137.616 230.972 138.368V141.584C230.636 142.464 229.964 143.184 228.78 143.184ZM237.55 144.128C239.502 144.128 241.118 142.512 241.118 140.032C241.118 137.6 239.71 135.968 237.55 135.968C235.614 135.968 234.014 137.552 234.014 140.016C234.014 142.512 235.518 144.128 237.55 144.128ZM237.534 143.2C236.206 143.2 235.326 142.016 235.326 140.032C235.326 138 236.286 136.944 237.534 136.944C238.846 136.944 239.806 137.968 239.806 140.016C239.806 142.144 238.83 143.2 237.534 143.2ZM244.183 144V133.328H242.935V144H244.183ZM249.534 144.128C251.486 144.128 253.102 142.512 253.102 140.032C253.102 137.6 251.694 135.968 249.534 135.968C247.598 135.968 245.998 137.552 245.998 140.016C245.998 142.512 247.502 144.128 249.534 144.128ZM249.518 143.2C248.19 143.2 247.31 142.016 247.31 140.032C247.31 138 248.27 136.944 249.518 136.944C250.83 136.944 251.79 137.968 251.79 140.016C251.79 142.144 250.814 143.2 249.518 143.2ZM256.136 144V138.848C256.792 137.744 257.72 137.104 258.648 137.104C258.744 137.104 258.904 137.104 259 137.12V135.984C258.872 135.968 258.776 135.968 258.632 135.968C257.512 135.968 256.584 136.88 256.072 137.808V136.112H254.888V144H256.136ZM263.115 144.128C264.683 144.128 265.899 143.312 266.443 141.792L265.355 141.632C264.907 142.8 264.091 143.184 263.227 143.184C261.691 143.184 260.795 142.176 260.763 140.192H266.587C266.571 140.016 266.587 139.84 266.571 139.664C266.411 137.472 265.211 135.968 263.147 135.968C261.115 135.968 259.499 137.52 259.499 140.192C259.499 142.544 260.955 144.128 263.115 144.128ZM260.811 139.344C260.907 137.856 261.883 136.912 263.147 136.912C264.411 136.912 265.195 137.824 265.323 139.344H260.811ZM269.541 144V138.592C270.261 137.584 270.917 136.992 271.829 136.992C272.597 136.992 272.997 137.52 272.997 138.464V144H274.213V138.608C274.709 137.824 275.525 137.024 276.501 137.024C277.269 137.024 277.701 137.456 277.701 138.48V144H278.933V138.4C278.933 137.76 278.773 137.248 278.533 136.88C278.213 136.288 277.669 135.984 276.853 135.984C275.605 135.984 274.677 136.88 274.133 137.744C274.037 136.624 273.301 135.968 272.149 135.968C271.013 135.968 269.973 136.912 269.509 137.696V136.112H268.309V144H269.541ZM286.198 144V138.592C286.918 137.584 287.574 136.992 288.486 136.992C289.254 136.992 289.654 137.52 289.654 138.464V144H290.87V138.608C291.366 137.824 292.182 137.024 293.158 137.024C293.926 137.024 294.358 137.456 294.358 138.48V144H295.59V138.4C295.59 137.76 295.43 137.248 295.19 136.88C294.87 136.288 294.326 135.984 293.51 135.984C292.262 135.984 291.334 136.88 290.79 137.744C290.694 136.624 289.958 135.968 288.806 135.968C287.67 135.968 286.63 136.912 286.166 137.696V136.112H284.966V144H286.198ZM300.862 144.128C302.814 144.128 304.43 142.512 304.43 140.032C304.43 137.6 303.022 135.968 300.862 135.968C298.926 135.968 297.326 137.552 297.326 140.016C297.326 142.512 298.83 144.128 300.862 144.128ZM300.846 143.2C299.518 143.2 298.638 142.016 298.638 140.032C298.638 138 299.598 136.944 300.846 136.944C302.158 136.944 303.118 137.968 303.118 140.016C303.118 142.144 302.142 143.2 300.846 143.2ZM307.496 144V133.328H306.248V144H307.496ZM312.943 144.128C314.511 144.128 315.727 143.312 316.271 141.792L315.183 141.632C314.735 142.8 313.919 143.184 313.055 143.184C311.519 143.184 310.623 142.176 310.591 140.192H316.415C316.399 140.016 316.415 139.84 316.399 139.664C316.239 137.472 315.039 135.968 312.975 135.968C310.943 135.968 309.327 137.52 309.327 140.192C309.327 142.544 310.783 144.128 312.943 144.128ZM310.639 139.344C310.735 137.856 311.711 136.912 312.975 136.912C314.239 136.912 315.023 137.824 315.151 139.344H310.639ZM320.634 144.128C322.554 144.128 323.802 143.152 323.802 141.696C323.802 140.128 322.426 139.68 320.81 139.36C319.546 139.088 318.602 138.928 318.602 138.064C318.602 137.344 319.322 136.912 320.378 136.912C321.45 136.912 322.17 137.392 322.474 138.224L323.578 137.984C323.178 136.752 322.154 135.968 320.378 135.968C318.618 135.968 317.45 136.848 317.45 138.144C317.45 139.696 318.81 140.112 320.426 140.416C321.594 140.672 322.65 140.864 322.65 141.808C322.65 142.64 321.882 143.2 320.634 143.2C319.274 143.2 318.394 142.576 318.138 141.648L317.018 141.872C317.402 143.312 318.634 144.128 320.634 144.128ZM327.689 144.112C328.121 144.112 328.601 144.064 329.033 143.984V143.008C328.745 143.056 328.281 143.104 327.913 143.104C327.241 143.088 326.809 142.72 326.809 141.888V137.104H328.585V136.112H326.809V134.048H325.673L325.609 136.112H324.313V137.104H325.593V141.824C325.593 143.456 326.361 144.112 327.689 144.112ZM331.731 134.72V133.312H330.371V134.72H331.731ZM331.683 144V136.112H330.435V144H331.683ZM335.994 144.096C337.466 144.096 338.394 143.536 339.018 142.672C339.002 143.072 339.066 143.728 339.162 144H340.346C340.218 143.504 340.17 142.96 340.17 142.464V138.88C340.17 136.896 339.306 135.968 337.066 135.968C335.194 135.968 333.962 136.736 333.674 138.176L334.826 138.304C335.082 137.296 335.754 136.944 337.034 136.944C338.362 136.944 338.874 137.408 338.97 138.272C339.002 138.464 339.002 138.736 339.002 139.008C338.378 139.024 337.85 139.024 337.21 139.104C335.05 139.36 333.482 140.208 333.482 141.92C333.482 143.36 334.602 144.096 335.994 144.096ZM336.362 143.184C335.306 143.184 334.778 142.704 334.778 141.792C334.778 140.8 335.658 140.112 337.37 139.888C337.866 139.824 338.442 139.824 339.002 139.824V141.456C338.666 142.272 337.866 143.184 336.362 143.184ZM345.04 144.128C346.96 144.128 348.208 143.152 348.208 141.696C348.208 140.128 346.832 139.68 345.216 139.36C343.952 139.088 343.008 138.928 343.008 138.064C343.008 137.344 343.728 136.912 344.784 136.912C345.856 136.912 346.576 137.392 346.88 138.224L347.984 137.984C347.584 136.752 346.56 135.968 344.784 135.968C343.024 135.968 341.856 136.848 341.856 138.144C341.856 139.696 343.216 140.112 344.832 140.416C346 140.672 347.056 140.864 347.056 141.808C347.056 142.64 346.288 143.2 345.04 143.2C343.68 143.2 342.8 142.576 342.544 141.648L341.424 141.872C341.808 143.312 343.04 144.128 345.04 144.128ZM350.384 146L351.552 143.824V142.224H349.824V144H350.496L349.536 146H350.384ZM360.04 144.128C361.96 144.128 363.208 143.152 363.208 141.696C363.208 140.128 361.832 139.68 360.216 139.36C358.952 139.088 358.008 138.928 358.008 138.064C358.008 137.344 358.728 136.912 359.784 136.912C360.856 136.912 361.576 137.392 361.88 138.224L362.984 137.984C362.584 136.752 361.56 135.968 359.784 135.968C358.024 135.968 356.856 136.848 356.856 138.144C356.856 139.696 358.216 140.112 359.832 140.416C361 140.672 362.056 140.864 362.056 141.808C362.056 142.64 361.288 143.2 360.04 143.2C358.68 143.2 357.8 142.576 357.544 141.648L356.424 141.872C356.808 143.312 358.04 144.128 360.04 144.128ZM367.288 144.128C368.344 144.128 369.304 143.664 369.928 142.656V144H371.08V136.112H369.848V141.712C369.32 142.672 368.552 143.184 367.672 143.184C366.568 143.184 366.104 142.688 366.104 141.44V136.112H364.856V141.408C364.856 143.392 365.864 144.128 367.288 144.128ZM375.962 144.128C377.882 144.128 379.13 143.152 379.13 141.696C379.13 140.128 377.754 139.68 376.138 139.36C374.874 139.088 373.93 138.928 373.93 138.064C373.93 137.344 374.65 136.912 375.706 136.912C376.778 136.912 377.498 137.392 377.802 138.224L378.906 137.984C378.506 136.752 377.482 135.968 375.706 135.968C373.946 135.968 372.778 136.848 372.778 138.144C372.778 139.696 374.138 140.112 375.754 140.416C376.922 140.672 377.978 140.864 377.978 141.808C377.978 142.64 377.21 143.2 375.962 143.2C374.602 143.2 373.722 142.576 373.466 141.648L372.346 141.872C372.73 143.312 373.962 144.128 375.962 144.128ZM383.593 144.128C385.161 144.128 386.329 143.216 386.601 141.44L385.513 141.328C385.273 142.64 384.665 143.2 383.625 143.2C382.441 143.2 381.513 142.224 381.513 140.048C381.513 138.08 382.281 136.96 383.545 136.96C384.633 136.96 385.257 137.664 385.449 138.96L386.617 138.816C386.265 136.88 385.209 135.968 383.529 135.968C381.529 135.968 380.201 137.728 380.201 140.016C380.201 142.656 381.657 144.128 383.593 144.128ZM389.591 134.72V133.312H388.231V134.72H389.591ZM389.543 144V136.112H388.295V144H389.543ZM395.662 144.112C397.246 144.112 398.67 142.72 398.67 140.048C398.67 137.2 397.454 135.968 395.694 135.968C394.43 135.968 393.63 136.736 393.15 137.504V136.112H391.966V146.672H393.198V142.96C393.678 143.536 394.51 144.112 395.662 144.112ZM395.326 143.2C394.19 143.2 393.614 142.496 393.198 141.904V138.576C393.758 137.472 394.494 136.992 395.406 136.992C396.766 136.992 397.374 137.968 397.374 140.08C397.374 142.352 396.574 143.2 395.326 143.2ZM401.809 134.72V133.312H400.449V134.72H401.809ZM401.761 144V136.112H400.513V144H401.761ZM406.392 144.112C406.824 144.112 407.304 144.064 407.736 143.984V143.008C407.448 143.056 406.984 143.104 406.616 143.104C405.944 143.088 405.512 142.72 405.512 141.888V137.104H407.288V136.112H405.512V134.048H404.376L404.312 136.112H403.016V137.104H404.296V141.824C404.296 143.456 405.064 144.112 406.392 144.112ZM409.743 146L410.911 143.824V142.224H409.183V144H409.855L408.895 146H409.743ZM419.319 144.128C420.471 144.128 421.271 143.664 421.895 142.8V144H423.063V133.328H421.863V137.184C421.495 136.656 420.743 135.968 419.543 135.968C417.527 135.968 416.311 137.744 416.311 140.08C416.311 142.656 417.415 144.128 419.319 144.128ZM419.655 143.184C418.343 143.184 417.607 142.272 417.607 140.08C417.607 138.064 418.311 136.944 419.735 136.944C420.903 136.944 421.447 137.616 421.847 138.368V141.584C421.511 142.464 420.839 143.184 419.655 143.184ZM428.521 144.128C430.089 144.128 431.305 143.312 431.849 141.792L430.761 141.632C430.313 142.8 429.497 143.184 428.633 143.184C427.097 143.184 426.201 142.176 426.169 140.192H431.993C431.977 140.016 431.993 139.84 431.977 139.664C431.817 137.472 430.617 135.968 428.553 135.968C426.521 135.968 424.905 137.52 424.905 140.192C424.905 142.544 426.361 144.128 428.521 144.128ZM426.217 139.344C426.313 137.856 427.289 136.912 428.553 136.912C429.817 136.912 430.601 137.824 430.729 139.344H426.217ZM437.191 144.112C438.983 144.112 440.279 142.752 440.279 140.032C440.279 137.392 439.175 135.968 437.287 135.968C436.151 135.968 435.143 136.752 434.743 137.616V133.328H433.559V144H434.247L434.647 142.688C435.159 143.584 436.007 144.112 437.191 144.112ZM436.951 143.216C435.687 143.216 434.759 142.272 434.759 140.624V138.72C435.191 137.808 435.847 136.96 436.999 136.96C438.327 136.96 438.999 138 438.999 140.064C438.999 142.272 438.295 143.216 436.951 143.216ZM443.419 134.72V133.312H442.059V134.72H443.419ZM443.371 144V136.112H442.123V144H443.371ZM448.002 144.112C448.434 144.112 448.914 144.064 449.346 143.984V143.008C449.058 143.056 448.594 143.104 448.226 143.104C447.554 143.088 447.122 142.72 447.122 141.888V137.104H448.898V136.112H447.122V134.048H445.986L445.922 136.112H444.626V137.104H445.906V141.824C445.906 143.456 446.674 144.112 448.002 144.112ZM452.044 134.72V133.312H450.684V134.72H452.044ZM451.996 144V136.112H450.748V144H451.996ZM456.915 144.128C458.835 144.128 460.083 143.152 460.083 141.696C460.083 140.128 458.707 139.68 457.091 139.36C455.827 139.088 454.883 138.928 454.883 138.064C454.883 137.344 455.603 136.912 456.659 136.912C457.731 136.912 458.451 137.392 458.755 138.224L459.859 137.984C459.459 136.752 458.435 135.968 456.659 135.968C454.899 135.968 453.731 136.848 453.731 138.144C453.731 139.696 455.091 140.112 456.707 140.416C457.875 140.672 458.931 140.864 458.931 141.808C458.931 142.64 458.163 143.2 456.915 143.2C455.555 143.2 454.675 142.576 454.419 141.648L453.299 141.872C453.683 143.312 454.915 144.128 456.915 144.128ZM467.946 144.128C469.866 144.128 471.114 143.152 471.114 141.696C471.114 140.128 469.738 139.68 468.122 139.36C466.858 139.088 465.914 138.928 465.914 138.064C465.914 137.344 466.634 136.912 467.69 136.912C468.762 136.912 469.482 137.392 469.786 138.224L470.89 137.984C470.49 136.752 469.466 135.968 467.69 135.968C465.93 135.968 464.762 136.848 464.762 138.144C464.762 139.696 466.122 140.112 467.738 140.416C468.906 140.672 469.962 140.864 469.962 141.808C469.962 142.64 469.194 143.2 467.946 143.2C466.586 143.2 465.706 142.576 465.45 141.648L464.33 141.872C464.714 143.312 465.946 144.128 467.946 144.128ZM475.194 144.128C476.25 144.128 477.21 143.664 477.834 142.656V144H478.986V136.112H477.754V141.712C477.226 142.672 476.458 143.184 475.578 143.184C474.474 143.184 474.01 142.688 474.01 141.44V136.112H472.762V141.408C472.762 143.392 473.77 144.128 475.194 144.128ZM482.62 144V138.592C483.276 137.648 484.108 137.008 485.116 137.008C486.012 137.008 486.428 137.456 486.428 138.4V144H487.676V138.416C487.676 136.8 486.956 135.968 485.484 135.968C484.076 135.968 483.1 136.896 482.556 137.68V136.112H481.372V144H482.62ZM492.252 144.112C492.684 144.112 493.164 144.064 493.596 143.984V143.008C493.308 143.056 492.844 143.104 492.476 143.104C491.804 143.088 491.372 142.72 491.372 141.888V137.104H493.148V136.112H491.372V134.048H490.236L490.172 136.112H488.876V137.104H490.156V141.824C490.156 143.456 490.924 144.112 492.252 144.112ZM502.349 144.112C503.933 144.112 505.357 142.72 505.357 140.048C505.357 137.2 504.141 135.968 502.381 135.968C501.117 135.968 500.317 136.736 499.837 137.504V136.112H498.653V146.672H499.885V142.96C500.365 143.536 501.197 144.112 502.349 144.112ZM502.013 143.2C500.877 143.2 500.301 142.496 499.885 141.904V138.576C500.445 137.472 501.181 136.992 502.093 136.992C503.453 136.992 504.061 137.968 504.061 140.08C504.061 142.352 503.261 143.2 502.013 143.2ZM509.057 144.096C510.529 144.096 511.457 143.536 512.081 142.672C512.065 143.072 512.129 143.728 512.225 144H513.409C513.281 143.504 513.233 142.96 513.233 142.464V138.88C513.233 136.896 512.369 135.968 510.129 135.968C508.257 135.968 507.025 136.736 506.737 138.176L507.889 138.304C508.145 137.296 508.817 136.944 510.097 136.944C511.425 136.944 511.937 137.408 512.033 138.272C512.065 138.464 512.065 138.736 512.065 139.008C511.441 139.024 510.913 139.024 510.273 139.104C508.113 139.36 506.545 140.208 506.545 141.92C506.545 143.36 507.665 144.096 509.057 144.096ZM509.425 143.184C508.369 143.184 507.841 142.704 507.841 141.792C507.841 140.8 508.721 140.112 510.433 139.888C510.929 139.824 511.505 139.824 512.065 139.824V141.456C511.729 142.272 510.929 143.184 509.425 143.184ZM516.854 144V138.848C517.51 137.744 518.438 137.104 519.366 137.104C519.462 137.104 519.622 137.104 519.718 137.12V135.984C519.59 135.968 519.494 135.968 519.35 135.968C518.23 135.968 517.302 136.88 516.79 137.808V136.112H515.606V144H516.854ZM522.294 134.72V133.312H520.934V134.72H522.294ZM522.246 144V136.112H520.998V144H522.246ZM526.557 144.096C528.029 144.096 528.957 143.536 529.581 142.672C529.565 143.072 529.629 143.728 529.725 144H530.909C530.781 143.504 530.733 142.96 530.733 142.464V138.88C530.733 136.896 529.869 135.968 527.629 135.968C525.757 135.968 524.525 136.736 524.237 138.176L525.389 138.304C525.645 137.296 526.317 136.944 527.597 136.944C528.925 136.944 529.437 137.408 529.533 138.272C529.565 138.464 529.565 138.736 529.565 139.008C528.941 139.024 528.413 139.024 527.773 139.104C525.613 139.36 524.045 140.208 524.045 141.92C524.045 143.36 525.165 144.096 526.557 144.096ZM526.925 143.184C525.869 143.184 525.341 142.704 525.341 141.792C525.341 140.8 526.221 140.112 527.933 139.888C528.429 139.824 529.005 139.824 529.565 139.824V141.456C529.229 142.272 528.429 143.184 526.925 143.184ZM535.314 144.112C535.746 144.112 536.226 144.064 536.658 143.984V143.008C536.37 143.056 535.906 143.104 535.538 143.104C534.866 143.088 534.434 142.72 534.434 141.888V137.104H536.21V136.112H534.434V134.048H533.298L533.234 136.112H531.938V137.104H533.218V141.824C533.218 143.456 533.986 144.112 535.314 144.112ZM540.428 144.128C541.484 144.128 542.444 143.664 543.068 142.656V144H544.22V136.112H542.988V141.712C542.46 142.672 541.692 143.184 540.812 143.184C539.708 143.184 539.244 142.688 539.244 141.44V136.112H537.996V141.408C537.996 143.392 539.004 144.128 540.428 144.128ZM547.854 144V138.848C548.51 137.744 549.438 137.104 550.366 137.104C550.462 137.104 550.622 137.104 550.718 137.12V135.984C550.59 135.968 550.494 135.968 550.35 135.968C549.23 135.968 548.302 136.88 547.79 137.808V136.112H546.606V144H547.854ZM3.616 164.128C4.768 164.128 5.568 163.664 6.192 162.8V164H7.36V153.328H6.16V157.184C5.792 156.656 5.04 155.968 3.84 155.968C1.824 155.968 0.608 157.744 0.608 160.08C0.608 162.656 1.712 164.128 3.616 164.128ZM3.952 163.184C2.64 163.184 1.904 162.272 1.904 160.08C1.904 158.064 2.608 156.944 4.032 156.944C5.2 156.944 5.744 157.616 6.144 158.368V161.584C5.808 162.464 5.136 163.184 3.952 163.184ZM12.8177 164.128C14.3858 164.128 15.6018 163.312 16.1458 161.792L15.0578 161.632C14.6098 162.8 13.7938 163.184 12.9298 163.184C11.3938 163.184 10.4978 162.176 10.4658 160.192H16.2898C16.2738 160.016 16.2898 159.84 16.2738 159.664C16.1138 157.472 14.9138 155.968 12.8498 155.968C10.8178 155.968 9.20175 157.52 9.20175 160.192C9.20175 162.544 10.6578 164.128 12.8177 164.128ZM10.5138 159.344C10.6098 157.856 11.5858 156.912 12.8498 156.912C14.1138 156.912 14.8978 157.824 15.0258 159.344H10.5138ZM19.2925 164V153.328H18.0445V164H19.2925ZM24.7396 164.128C26.3076 164.128 27.5236 163.312 28.0676 161.792L26.9796 161.632C26.5316 162.8 25.7156 163.184 24.8516 163.184C23.3156 163.184 22.4196 162.176 22.3876 160.192H28.2116C28.1956 160.016 28.2116 159.84 28.1956 159.664C28.0356 157.472 26.8356 155.968 24.7716 155.968C22.7396 155.968 21.1236 157.52 21.1236 160.192C21.1236 162.544 22.5796 164.128 24.7396 164.128ZM22.4356 159.344C22.5316 157.856 23.5076 156.912 24.7716 156.912C26.0356 156.912 26.8196 157.824 26.9476 159.344H22.4356ZM32.7184 164.128C34.2864 164.128 35.4544 163.216 35.7264 161.44L34.6384 161.328C34.3984 162.64 33.7904 163.2 32.7504 163.2C31.5664 163.2 30.6384 162.224 30.6384 160.048C30.6384 158.08 31.4064 156.96 32.6704 156.96C33.7584 156.96 34.3824 157.664 34.5744 158.96L35.7424 158.816C35.3904 156.88 34.3344 155.968 32.6544 155.968C30.6544 155.968 29.3264 157.728 29.3264 160.016C29.3264 162.656 30.7824 164.128 32.7184 164.128ZM39.5955 164.112C40.0275 164.112 40.5075 164.064 40.9395 163.984V163.008C40.6515 163.056 40.1875 163.104 39.8195 163.104C39.1475 163.088 38.7155 162.72 38.7155 161.888V157.104H40.4915V156.112H38.7155V154.048H37.5795L37.5155 156.112H36.2195V157.104H37.4995V161.824C37.4995 163.456 38.2675 164.112 39.5955 164.112ZM44.7094 164.128C45.7654 164.128 46.7254 163.664 47.3494 162.656V164H48.5014V156.112H47.2694V161.712C46.7414 162.672 45.9734 163.184 45.0934 163.184C43.9894 163.184 43.5254 162.688 43.5254 161.44V156.112H42.2774V161.408C42.2774 163.392 43.2854 164.128 44.7094 164.128ZM53.3835 164.128C55.3035 164.128 56.5515 163.152 56.5515 161.696C56.5515 160.128 55.1755 159.68 53.5595 159.36C52.2955 159.088 51.3515 158.928 51.3515 158.064C51.3515 157.344 52.0715 156.912 53.1275 156.912C54.1995 156.912 54.9195 157.392 55.2235 158.224L56.3275 157.984C55.9275 156.752 54.9035 155.968 53.1275 155.968C51.3675 155.968 50.1995 156.848 50.1995 158.144C50.1995 159.696 51.5595 160.112 53.1755 160.416C54.3435 160.672 55.3995 160.864 55.3995 161.808C55.3995 162.64 54.6315 163.2 53.3835 163.2C52.0235 163.2 51.1435 162.576 50.8875 161.648L49.7675 161.872C50.1515 163.312 51.3835 164.128 53.3835 164.128ZM63.8068 164.096C65.2788 164.096 66.2068 163.536 66.8308 162.672C66.8148 163.072 66.8788 163.728 66.9748 164H68.1588C68.0308 163.504 67.9828 162.96 67.9828 162.464V158.88C67.9828 156.896 67.1188 155.968 64.8788 155.968C63.0068 155.968 61.7747 156.736 61.4868 158.176L62.6388 158.304C62.8948 157.296 63.5668 156.944 64.8468 156.944C66.1748 156.944 66.6868 157.408 66.7828 158.272C66.8148 158.464 66.8148 158.736 66.8148 159.008C66.1908 159.024 65.6628 159.024 65.0228 159.104C62.8628 159.36 61.2948 160.208 61.2948 161.92C61.2948 163.36 62.4148 164.096 63.8068 164.096ZM64.1748 163.184C63.1188 163.184 62.5908 162.704 62.5908 161.792C62.5908 160.8 63.4708 160.112 65.1828 159.888C65.6788 159.824 66.2548 159.824 66.8148 159.824V161.456C66.4788 162.272 65.6788 163.184 64.1748 163.184ZM72.7723 164.128C73.9243 164.128 74.7243 163.664 75.3483 162.8V164H76.5163V153.328H75.3163V157.184C74.9483 156.656 74.1963 155.968 72.9963 155.968C70.9803 155.968 69.7643 157.744 69.7643 160.08C69.7643 162.656 70.8683 164.128 72.7723 164.128ZM73.1083 163.184C71.7963 163.184 71.0603 162.272 71.0603 160.08C71.0603 158.064 71.7643 156.944 73.1883 156.944C74.3563 156.944 74.9003 157.616 75.3003 158.368V161.584C74.9643 162.464 74.2923 163.184 73.1083 163.184ZM80.278 154.72V153.312H78.918V154.72H80.278ZM80.23 164V156.112H78.982V164H80.23ZM86.3491 164.112C87.9331 164.112 89.3571 162.72 89.3571 160.048C89.3571 157.2 88.1411 155.968 86.3811 155.968C85.1171 155.968 84.3171 156.736 83.8371 157.504V156.112H82.6531V166.672H83.8851V162.96C84.3651 163.536 85.1971 164.112 86.3491 164.112ZM86.0131 163.2C84.8771 163.2 84.3011 162.496 83.8851 161.904V158.576C84.4451 157.472 85.1811 156.992 86.0931 156.992C87.4531 156.992 88.0611 157.968 88.0611 160.08C88.0611 162.352 87.2611 163.2 86.0131 163.2ZM92.4968 154.72V153.312H91.1368V154.72H92.4968ZM92.4488 164V156.112H91.2008V164H92.4488ZM97.3679 164.128C99.2879 164.128 100.536 163.152 100.536 161.696C100.536 160.128 99.1599 159.68 97.5439 159.36C96.2799 159.088 95.3359 158.928 95.3359 158.064C95.3359 157.344 96.0559 156.912 97.1119 156.912C98.1839 156.912 98.9039 157.392 99.2079 158.224L100.312 157.984C99.9119 156.752 98.8879 155.968 97.1119 155.968C95.3519 155.968 94.1839 156.848 94.1839 158.144C94.1839 159.696 95.5439 160.112 97.1599 160.416C98.3279 160.672 99.3839 160.864 99.3839 161.808C99.3839 162.64 98.6159 163.2 97.3679 163.2C96.0079 163.2 95.1279 162.576 94.8719 161.648L93.7519 161.872C94.1359 163.312 95.3679 164.128 97.3679 164.128ZM105 164.128C106.568 164.128 107.736 163.216 108.008 161.44L106.92 161.328C106.68 162.64 106.072 163.2 105.032 163.2C103.848 163.2 102.92 162.224 102.92 160.048C102.92 158.08 103.688 156.96 104.952 156.96C106.04 156.96 106.664 157.664 106.856 158.96L108.024 158.816C107.672 156.88 106.616 155.968 104.936 155.968C102.936 155.968 101.608 157.728 101.608 160.016C101.608 162.656 103.064 164.128 105 164.128ZM110.997 154.72V153.312H109.637V154.72H110.997ZM110.949 164V156.112H109.701V164H110.949ZM113.868 166L115.036 163.824V162.224H113.308V164H113.98L113.02 166H113.868ZM124.724 164.112C126.308 164.112 127.732 162.72 127.732 160.048C127.732 157.2 126.516 155.968 124.756 155.968C123.492 155.968 122.692 156.736 122.212 157.504V156.112H121.028V166.672H122.26V162.96C122.74 163.536 123.572 164.112 124.724 164.112ZM124.388 163.2C123.252 163.2 122.676 162.496 122.26 161.904V158.576C122.82 157.472 123.556 156.992 124.468 156.992C125.828 156.992 126.436 157.968 126.436 160.08C126.436 162.352 125.636 163.2 124.388 163.2ZM130.824 164V153.328H129.576V164H130.824ZM135.135 164.096C136.607 164.096 137.535 163.536 138.159 162.672C138.143 163.072 138.207 163.728 138.303 164H139.487C139.359 163.504 139.311 162.96 139.311 162.464V158.88C139.311 156.896 138.447 155.968 136.207 155.968C134.335 155.968 133.103 156.736 132.815 158.176L133.967 158.304C134.223 157.296 134.895 156.944 136.175 156.944C137.503 156.944 138.015 157.408 138.111 158.272C138.143 158.464 138.143 158.736 138.143 159.008C137.519 159.024 136.991 159.024 136.351 159.104C134.191 159.36 132.623 160.208 132.623 161.92C132.623 163.36 133.743 164.096 135.135 164.096ZM135.503 163.184C134.447 163.184 133.919 162.704 133.919 161.792C133.919 160.8 134.799 160.112 136.511 159.888C137.007 159.824 137.583 159.824 138.143 159.824V161.456C137.807 162.272 137.007 163.184 135.503 163.184ZM144.468 164.128C146.036 164.128 147.204 163.216 147.476 161.44L146.388 161.328C146.148 162.64 145.54 163.2 144.5 163.2C143.316 163.2 142.388 162.224 142.388 160.048C142.388 158.08 143.156 156.96 144.42 156.96C145.508 156.96 146.132 157.664 146.324 158.96L147.492 158.816C147.14 156.88 146.084 155.968 144.404 155.968C142.404 155.968 141.076 157.728 141.076 160.016C141.076 162.656 142.532 164.128 144.468 164.128ZM152.161 164.128C153.73 164.128 154.946 163.312 155.49 161.792L154.402 161.632C153.954 162.8 153.138 163.184 152.274 163.184C150.738 163.184 149.842 162.176 149.81 160.192H155.634C155.618 160.016 155.634 159.84 155.618 159.664C155.458 157.472 154.258 155.968 152.194 155.968C150.162 155.968 148.546 157.52 148.546 160.192C148.546 162.544 150.002 164.128 152.161 164.128ZM149.858 159.344C149.954 157.856 150.93 156.912 152.194 156.912C153.458 156.912 154.242 157.824 154.37 159.344H149.858ZM159.244 164.096C160.716 164.096 161.644 163.536 162.268 162.672C162.252 163.072 162.316 163.728 162.412 164H163.596C163.468 163.504 163.42 162.96 163.42 162.464V158.88C163.42 156.896 162.556 155.968 160.316 155.968C158.444 155.968 157.212 156.736 156.924 158.176L158.076 158.304C158.332 157.296 159.004 156.944 160.284 156.944C161.612 156.944 162.124 157.408 162.22 158.272C162.252 158.464 162.252 158.736 162.252 159.008C161.628 159.024 161.1 159.024 160.46 159.104C158.3 159.36 156.732 160.208 156.732 161.92C156.732 163.36 157.852 164.096 159.244 164.096ZM159.612 163.184C158.556 163.184 158.028 162.704 158.028 161.792C158.028 160.8 158.908 160.112 160.62 159.888C161.116 159.824 161.692 159.824 162.252 159.824V161.456C161.916 162.272 161.116 163.184 159.612 163.184ZM168.002 164.112C168.434 164.112 168.914 164.064 169.346 163.984V163.008C169.058 163.056 168.594 163.104 168.226 163.104C167.554 163.088 167.122 162.72 167.122 161.888V157.104H168.898V156.112H167.122V154.048H165.986L165.922 156.112H164.626V157.104H165.906V161.824C165.906 163.456 166.674 164.112 168.002 164.112ZM175.731 154.72V153.312H174.371V154.72H175.731ZM175.683 164V156.112H174.435V164H175.683ZM181.802 164.112C183.386 164.112 184.81 162.72 184.81 160.048C184.81 157.2 183.594 155.968 181.834 155.968C180.57 155.968 179.77 156.736 179.29 157.504V156.112H178.106V166.672H179.338V162.96C179.818 163.536 180.65 164.112 181.802 164.112ZM181.466 163.2C180.33 163.2 179.754 162.496 179.338 161.904V158.576C179.898 157.472 180.634 156.992 181.546 156.992C182.906 156.992 183.514 157.968 183.514 160.08C183.514 162.352 182.714 163.2 181.466 163.2ZM189.118 164.128C191.038 164.128 192.286 163.152 192.286 161.696C192.286 160.128 190.91 159.68 189.294 159.36C188.03 159.088 187.086 158.928 187.086 158.064C187.086 157.344 187.806 156.912 188.862 156.912C189.934 156.912 190.654 157.392 190.958 158.224L192.062 157.984C191.662 156.752 190.638 155.968 188.862 155.968C187.102 155.968 185.934 156.848 185.934 158.144C185.934 159.696 187.294 160.112 188.91 160.416C190.078 160.672 191.134 160.864 191.134 161.808C191.134 162.64 190.366 163.2 189.118 163.2C187.758 163.2 186.878 162.576 186.622 161.648L185.502 161.872C185.886 163.312 187.118 164.128 189.118 164.128ZM196.366 164.128C197.422 164.128 198.382 163.664 199.006 162.656V164H200.158V156.112H198.926V161.712C198.398 162.672 197.63 163.184 196.75 163.184C195.646 163.184 195.182 162.688 195.182 161.44V156.112H193.934V161.408C193.934 163.392 194.942 164.128 196.366 164.128ZM203.776 164V158.592C204.496 157.584 205.152 156.992 206.064 156.992C206.832 156.992 207.232 157.52 207.232 158.464V164H208.448V158.608C208.944 157.824 209.76 157.024 210.736 157.024C211.504 157.024 211.936 157.456 211.936 158.48V164H213.168V158.4C213.168 157.76 213.008 157.248 212.768 156.88C212.448 156.288 211.904 155.984 211.088 155.984C209.84 155.984 208.912 156.88 208.368 157.744C208.272 156.624 207.536 155.968 206.384 155.968C205.248 155.968 204.208 156.912 203.744 157.696V156.112H202.544V164H203.776ZM220.448 164V158.592C221.104 157.648 221.936 157.008 222.944 157.008C223.84 157.008 224.256 157.456 224.256 158.4V164H225.504V158.416C225.504 156.8 224.784 155.968 223.312 155.968C221.904 155.968 220.928 156.896 220.384 157.68V156.112H219.2V164H220.448ZM230.8 164.128C232.752 164.128 234.368 162.512 234.368 160.032C234.368 157.6 232.96 155.968 230.8 155.968C228.864 155.968 227.264 157.552 227.264 160.016C227.264 162.512 228.768 164.128 230.8 164.128ZM230.784 163.2C229.456 163.2 228.576 162.016 228.576 160.032C228.576 158 229.536 156.944 230.784 156.944C232.096 156.944 233.056 157.968 233.056 160.016C233.056 162.144 232.08 163.2 230.784 163.2ZM237.401 164V158.592C238.057 157.648 238.889 157.008 239.897 157.008C240.793 157.008 241.209 157.456 241.209 158.4V164H242.457V158.416C242.457 156.8 241.737 155.968 240.265 155.968C238.857 155.968 237.881 156.896 237.337 157.68V156.112H236.153V164H237.401ZM249.793 164V153.328H248.545V164H249.793ZM254.104 164.096C255.576 164.096 256.504 163.536 257.128 162.672C257.112 163.072 257.176 163.728 257.272 164H258.456C258.328 163.504 258.28 162.96 258.28 162.464V158.88C258.28 156.896 257.416 155.968 255.176 155.968C253.304 155.968 252.072 156.736 251.784 158.176L252.936 158.304C253.192 157.296 253.864 156.944 255.144 156.944C256.472 156.944 256.984 157.408 257.08 158.272C257.112 158.464 257.112 158.736 257.112 159.008C256.488 159.024 255.96 159.024 255.32 159.104C253.16 159.36 251.592 160.208 251.592 161.92C251.592 163.36 252.712 164.096 254.104 164.096ZM254.472 163.184C253.416 163.184 252.888 162.704 252.888 161.792C252.888 160.8 253.768 160.112 255.48 159.888C255.976 159.824 256.552 159.824 257.112 159.824V161.456C256.776 162.272 255.976 163.184 254.472 163.184ZM264.285 164.112C266.077 164.112 267.373 162.752 267.373 160.032C267.373 157.392 266.269 155.968 264.381 155.968C263.245 155.968 262.237 156.752 261.837 157.616V153.328H260.653V164H261.341L261.741 162.688C262.253 163.584 263.101 164.112 264.285 164.112ZM264.045 163.216C262.781 163.216 261.853 162.272 261.853 160.624V158.72C262.285 157.808 262.941 156.96 264.093 156.96C265.421 156.96 266.093 158 266.093 160.064C266.093 162.272 265.389 163.216 264.045 163.216ZM272.112 164.128C274.064 164.128 275.68 162.512 275.68 160.032C275.68 157.6 274.272 155.968 272.112 155.968C270.176 155.968 268.576 157.552 268.576 160.016C268.576 162.512 270.08 164.128 272.112 164.128ZM272.096 163.2C270.768 163.2 269.888 162.016 269.888 160.032C269.888 158 270.848 156.944 272.096 156.944C273.408 156.944 274.368 157.968 274.368 160.016C274.368 162.144 273.392 163.2 272.096 163.2ZM278.714 164V158.848C279.37 157.744 280.298 157.104 281.226 157.104C281.322 157.104 281.482 157.104 281.578 157.12V155.984C281.45 155.968 281.354 155.968 281.21 155.968C280.09 155.968 279.162 156.88 278.65 157.808V156.112H277.466V164H278.714ZM284.153 154.72V153.312H282.793V154.72H284.153ZM284.105 164V156.112H282.857V164H284.105ZM289.456 164.128C291.408 164.128 293.024 162.512 293.024 160.032C293.024 157.6 291.616 155.968 289.456 155.968C287.52 155.968 285.92 157.552 285.92 160.016C285.92 162.512 287.424 164.128 289.456 164.128ZM289.44 163.2C288.112 163.2 287.232 162.016 287.232 160.032C287.232 158 288.192 156.944 289.44 156.944C290.752 156.944 291.712 157.968 291.712 160.016C291.712 162.144 290.736 163.2 289.44 163.2ZM297.305 164.128C299.225 164.128 300.473 163.152 300.473 161.696C300.473 160.128 299.097 159.68 297.481 159.36C296.217 159.088 295.273 158.928 295.273 158.064C295.273 157.344 295.993 156.912 297.049 156.912C298.121 156.912 298.841 157.392 299.145 158.224L300.249 157.984C299.849 156.752 298.825 155.968 297.049 155.968C295.289 155.968 294.121 156.848 294.121 158.144C294.121 159.696 295.481 160.112 297.097 160.416C298.265 160.672 299.321 160.864 299.321 161.808C299.321 162.64 298.553 163.2 297.305 163.2C295.945 163.2 295.065 162.576 294.809 161.648L293.689 161.872C294.073 163.312 295.305 164.128 297.305 164.128ZM304.041 164.096C305.513 164.096 306.441 163.536 307.065 162.672C307.049 163.072 307.113 163.728 307.209 164H308.393C308.265 163.504 308.217 162.96 308.217 162.464V158.88C308.217 156.896 307.353 155.968 305.113 155.968C303.241 155.968 302.009 156.736 301.721 158.176L302.873 158.304C303.129 157.296 303.801 156.944 305.081 156.944C306.409 156.944 306.921 157.408 307.017 158.272C307.049 158.464 307.049 158.736 307.049 159.008C306.425 159.024 305.897 159.024 305.257 159.104C303.097 159.36 301.529 160.208 301.529 161.92C301.529 163.36 302.649 164.096 304.041 164.096ZM304.409 163.184C303.353 163.184 302.825 162.704 302.825 161.792C302.825 160.8 303.705 160.112 305.417 159.888C305.913 159.824 306.489 159.824 307.049 159.824V161.456C306.713 162.272 305.913 163.184 304.409 163.184ZM311.823 164V158.592C312.543 157.584 313.199 156.992 314.111 156.992C314.879 156.992 315.279 157.52 315.279 158.464V164H316.495V158.608C316.991 157.824 317.807 157.024 318.783 157.024C319.551 157.024 319.983 157.456 319.983 158.48V164H321.215V158.4C321.215 157.76 321.055 157.248 320.815 156.88C320.495 156.288 319.951 155.984 319.135 155.984C317.887 155.984 316.959 156.88 316.415 157.744C316.319 156.624 315.583 155.968 314.431 155.968C313.295 155.968 312.255 156.912 311.791 157.696V156.112H310.591V164H311.823ZM324.807 161.344L325.415 153.328H323.575L324.151 161.344H324.807ZM325.319 164V162.352H323.687V164H325.319Z" fill="black"/>
<rect x="24" width="29" height="28" rx="14" fill="#94538C"/>
<path d="M42.374 20.5V18.304H39.836V8.296H37.73C36.992 9.214 35.894 10.204 34.688 10.6V12.904C35.696 12.49 36.542 11.968 37.064 11.59V18.304H34.418V20.5H42.374Z" fill="white"/>
<line x1="39" y1="28" x2="39" y2="52" stroke="#94538C"/>
<rect x="88" y="26" width="29" height="28" rx="14" fill="#94538C"/>
<path d="M106.684 46.5V44.286H101.122C104.488 41.982 106.558 40.47 106.558 38.058C106.558 35.736 104.884 34.278 102.364 34.278C99.952 34.278 98.062 35.502 97.612 38.31L100.096 38.76C100.258 37.266 100.96 36.528 102.058 36.528C103.12 36.528 103.696 37.212 103.696 38.166C103.696 39.894 102.4 41.01 97.63 44.592V46.5H106.684Z" fill="white"/>
<line x1="103" y1="54" x2="103" y2="78" stroke="#94538C"/>
<rect x="247" y="59" width="29" height="28" rx="14" fill="#94538C"/>
<path d="M261.364 79.716C264.424 79.716 266.134 78.276 266.134 76.098C266.134 74.604 265.306 73.596 263.776 73.218C265.018 72.858 265.738 71.868 265.738 70.482C265.738 68.7 264.118 67.278 261.454 67.278C259.186 67.278 257.278 68.286 256.702 70.482L258.988 70.95C259.24 69.924 260.068 69.42 261.184 69.42C262.39 69.42 262.984 69.978 262.984 70.842C262.984 71.76 262.318 72.282 261.004 72.282H259.726V74.37H261.04C262.444 74.37 263.29 74.856 263.29 75.99C263.29 76.926 262.642 77.574 261.202 77.574C259.942 77.574 259.132 77.016 258.88 75.792L256.342 76.314C256.738 78.546 258.646 79.716 261.364 79.716Z" fill="white"/>
<line x1="262" y1="87" x2="262" y2="111" stroke="#94538C"/>
<rect x="578" y="23" width="29" height="28" rx="14" fill="#94538C"/>
<path d="M595.316 43.5V41.016H597.08V38.874H595.316V31.296H592.778L587.378 38.928V41.016H592.652V43.5H595.316ZM592.67 34.482V38.874H589.538L592.67 34.482Z" fill="white"/>
<line x1="593" y1="51" x2="593" y2="75" stroke="#94538C"/>
<defs>
<clipPath id="clip0">
<rect width="600" height="56" fill="white" transform="translate(0 52)"/>
</clipPath>
</defs>
</svg>
