<svg width="653" height="174" viewBox="0 0 653 174" fill="none" xmlns="http://www.w3.org/2000/svg">
<g clip-path="url(#clip0)">
<rect x="53" y="42" width="600" height="1" fill="#D5D5D5"/>
<path d="M55.376 77L56.186 74.264H59.93L60.848 77H63.98L59.894 64.994H56.798L52.874 77H55.376ZM57.95 68.216L59.264 72.212H56.762L57.95 68.216ZM68.7949 77.162C71.1169 77.162 72.5389 76.028 72.8089 73.994L70.3969 73.778C70.2349 74.786 69.8389 75.38 68.9569 75.38C67.9849 75.38 67.3909 74.516 67.3909 72.536C67.3909 70.718 67.9129 69.764 68.9209 69.764C69.8029 69.764 70.1809 70.466 70.3069 71.492L72.7909 71.258C72.4309 69.062 70.9909 67.91 68.8309 67.91C66.1309 67.91 64.4209 69.98 64.4209 72.518C64.4209 75.452 66.2209 77.162 68.7949 77.162ZM78.1113 77.162C80.4333 77.162 81.8553 76.028 82.1253 73.994L79.7133 73.778C79.5513 74.786 79.1553 75.38 78.2733 75.38C77.3013 75.38 76.7073 74.516 76.7073 72.536C76.7073 70.718 77.2293 69.764 78.2373 69.764C79.1193 69.764 79.4973 70.466 79.6233 71.492L82.1073 71.258C81.7473 69.062 80.3073 67.91 78.1473 67.91C75.4473 67.91 73.7373 69.98 73.7373 72.518C73.7373 75.452 75.5373 77.162 78.1113 77.162ZM87.5897 77.144C90.3797 77.144 92.2517 75.164 92.2517 72.554C92.2517 69.782 90.4157 67.91 87.6437 67.91C84.9977 67.91 83.0537 69.836 83.0537 72.608C83.0537 75.218 84.9257 77.144 87.5897 77.144ZM87.6797 75.344C86.5637 75.344 86.0237 74.462 86.0237 72.518C86.0237 70.628 86.5997 69.764 87.6617 69.764C88.7597 69.764 89.2637 70.646 89.2637 72.518C89.2637 74.48 88.7057 75.344 87.6797 75.344ZM96.7029 77V71.654C97.2069 70.7 98.1069 70.16 99.1689 70.16C99.4029 70.16 99.7989 70.178 99.9789 70.214V67.964C99.8349 67.928 99.6009 67.91 99.3309 67.91C98.0169 67.91 96.9549 68.882 96.5409 69.944V68.072H93.8769V77H96.7029ZM103.818 77.162C105.15 77.162 105.906 76.676 106.626 75.722V77H109.29V64.994H106.518V68.99C105.996 68.378 105.24 67.91 104.178 67.91C102.054 67.91 100.632 69.656 100.632 72.5C100.632 75.65 101.892 77.162 103.818 77.162ZM104.988 75.308C104.088 75.308 103.53 74.678 103.53 72.518C103.53 70.412 103.998 69.692 105.006 69.692C105.798 69.692 106.212 70.178 106.518 70.628V74.228C106.23 74.804 105.78 75.308 104.988 75.308ZM114.263 67.118V64.76H111.419V67.118H114.263ZM114.245 77V68.072H111.437V77H114.245ZM120.426 77.144C123.216 77.144 125.088 75.164 125.088 72.554C125.088 69.782 123.252 67.91 120.48 67.91C117.834 67.91 115.89 69.836 115.89 72.608C115.89 75.218 117.762 77.144 120.426 77.144ZM120.516 75.344C119.4 75.344 118.86 74.462 118.86 72.518C118.86 70.628 119.436 69.764 120.498 69.764C121.596 69.764 122.1 70.646 122.1 72.518C122.1 74.48 121.542 75.344 120.516 75.344ZM129.485 77V70.88C129.845 70.34 130.331 69.836 131.069 69.836C131.753 69.836 132.041 70.25 132.041 70.808V77H134.831V70.718C134.831 69.008 134.093 67.91 132.257 67.91C130.745 67.91 129.899 68.81 129.377 69.548V68.072H126.695V77H129.485ZM144.48 77V70.952C144.84 70.448 145.344 69.872 146.082 69.872C146.694 69.872 147.036 70.232 147.036 70.916V77H149.862V70.592C149.862 69.116 149.07 67.91 147.342 67.91C145.938 67.91 145.128 68.54 144.462 69.332V64.994H141.672V77H144.48ZM156.059 77.144C158.363 77.144 159.839 76.028 160.433 74.336L158.111 74.03C157.787 74.912 157.211 75.362 156.311 75.362C155.213 75.362 154.385 74.66 154.349 73.058H160.523C160.541 72.86 160.541 72.716 160.541 72.518C160.469 69.746 158.831 67.91 156.041 67.91C153.557 67.91 151.433 69.782 151.433 72.662C151.433 75.38 153.377 77.144 156.059 77.144ZM154.385 71.6C154.457 70.376 155.177 69.656 156.077 69.656C157.121 69.656 157.643 70.394 157.733 71.6H154.385ZM164.257 77.108C165.841 77.108 166.777 76.64 167.551 75.848C167.551 76.352 167.587 76.82 167.695 77H170.359C170.197 76.658 170.161 75.776 170.161 75.254V71.132C170.161 69.206 169.297 67.91 166.291 67.91C163.663 67.91 162.169 68.828 161.737 70.61L164.293 70.844C164.473 70.088 164.977 69.728 166.021 69.728C166.993 69.728 167.407 70.16 167.461 70.862C167.461 70.934 167.479 71.204 167.479 71.294C167.101 71.312 166.741 71.348 166.399 71.384C163.285 71.69 161.503 72.68 161.503 74.66C161.503 76.172 162.601 77.108 164.257 77.108ZM165.517 75.38C164.815 75.38 164.383 75.074 164.383 74.408C164.383 73.562 165.157 73.04 166.525 72.806C166.813 72.752 167.137 72.716 167.479 72.698V74.264C167.101 74.84 166.435 75.38 165.517 75.38ZM174.957 77.162C176.289 77.162 177.045 76.676 177.765 75.722V77H180.429V64.994H177.657V68.99C177.135 68.378 176.379 67.91 175.317 67.91C173.193 67.91 171.771 69.656 171.771 72.5C171.771 75.65 173.031 77.162 174.957 77.162ZM176.127 75.308C175.227 75.308 174.669 74.678 174.669 72.518C174.669 70.412 175.137 69.692 176.145 69.692C176.937 69.692 177.351 70.178 177.657 70.628V74.228C177.369 74.804 176.919 75.308 176.127 75.308ZM186.662 77.144C188.966 77.144 190.442 76.028 191.036 74.336L188.714 74.03C188.39 74.912 187.814 75.362 186.914 75.362C185.816 75.362 184.988 74.66 184.952 73.058H191.126C191.144 72.86 191.144 72.716 191.144 72.518C191.072 69.746 189.434 67.91 186.644 67.91C184.16 67.91 182.036 69.782 182.036 72.662C182.036 75.38 183.98 77.144 186.662 77.144ZM184.988 71.6C185.06 70.376 185.78 69.656 186.68 69.656C187.724 69.656 188.246 70.394 188.336 71.6H184.988ZM195.545 77V71.654C196.049 70.7 196.949 70.16 198.011 70.16C198.245 70.16 198.641 70.178 198.821 70.214V67.964C198.677 67.928 198.443 67.91 198.173 67.91C196.859 67.91 195.797 68.882 195.383 69.944V68.072H192.719V77H195.545Z" fill="#111111"/>
<path d="M645 68.414L650.293 73.707L651.707 72.293L645.707 66.293C645.519 66.1056 645.265 66.0002 645 66.0002C644.735 66.0002 644.48 66.1056 644.293 66.293L638.293 72.293L639.707 73.707L645 68.414Z" fill="#111111"/>
</g>
<path d="M60.6 114V112.848H55.656V103.328H54.328V114H60.6ZM64.4718 114.128C66.4238 114.128 68.0398 112.512 68.0398 110.032C68.0398 107.6 66.6318 105.968 64.4718 105.968C62.5358 105.968 60.9358 107.552 60.9358 110.016C60.9358 112.512 62.4398 114.128 64.4718 114.128ZM64.4557 113.2C63.1278 113.2 62.2478 112.016 62.2478 110.032C62.2478 108 63.2078 106.944 64.4557 106.944C65.7678 106.944 66.7278 107.968 66.7278 110.016C66.7278 112.144 65.7518 113.2 64.4557 113.2ZM71.073 114V108.848C71.729 107.744 72.657 107.104 73.585 107.104C73.681 107.104 73.841 107.104 73.937 107.12V105.984C73.809 105.968 73.713 105.968 73.569 105.968C72.449 105.968 71.521 106.88 71.009 107.808V106.112H69.825V114H71.073ZM78.0521 114.128C79.6201 114.128 80.8361 113.312 81.3801 111.792L80.2921 111.632C79.8441 112.8 79.0281 113.184 78.1641 113.184C76.6281 113.184 75.7321 112.176 75.7001 110.192H81.5241C81.5081 110.016 81.5241 109.84 81.5081 109.664C81.3481 107.472 80.1481 105.968 78.0841 105.968C76.0521 105.968 74.4361 107.52 74.4361 110.192C74.4361 112.544 75.8921 114.128 78.0521 114.128ZM75.7481 109.344C75.8441 107.856 76.8201 106.912 78.0841 106.912C79.3481 106.912 80.1321 107.824 80.2601 109.344H75.7481ZM84.4789 114V108.592C85.1989 107.584 85.8549 106.992 86.7669 106.992C87.5349 106.992 87.9349 107.52 87.9349 108.464V114H89.1509V108.608C89.6469 107.824 90.4629 107.024 91.4389 107.024C92.2069 107.024 92.6389 107.456 92.6389 108.48V114H93.8709V108.4C93.8709 107.76 93.7109 107.248 93.4709 106.88C93.1509 106.288 92.6069 105.984 91.7909 105.984C90.5429 105.984 89.6149 106.88 89.0709 107.744C88.9749 106.624 88.2389 105.968 87.0869 105.968C85.9509 105.968 84.9109 106.912 84.4469 107.696V106.112H83.2469V114H84.4789ZM101.231 104.72V103.312H99.8711V104.72H101.231ZM101.183 114V106.112H99.9351V114H101.183ZM107.302 114.112C108.886 114.112 110.31 112.72 110.31 110.048C110.31 107.2 109.094 105.968 107.334 105.968C106.07 105.968 105.27 106.736 104.79 107.504V106.112H103.606V116.672H104.838V112.96C105.318 113.536 106.15 114.112 107.302 114.112ZM106.966 113.2C105.83 113.2 105.254 112.496 104.838 111.904V108.576C105.398 107.472 106.134 106.992 107.046 106.992C108.406 106.992 109.014 107.968 109.014 110.08C109.014 112.352 108.214 113.2 106.966 113.2ZM114.618 114.128C116.538 114.128 117.786 113.152 117.786 111.696C117.786 110.128 116.41 109.68 114.794 109.36C113.53 109.088 112.586 108.928 112.586 108.064C112.586 107.344 113.306 106.912 114.362 106.912C115.434 106.912 116.154 107.392 116.458 108.224L117.562 107.984C117.162 106.752 116.138 105.968 114.362 105.968C112.602 105.968 111.434 106.848 111.434 108.144C111.434 109.696 112.794 110.112 114.41 110.416C115.578 110.672 116.634 110.864 116.634 111.808C116.634 112.64 115.866 113.2 114.618 113.2C113.258 113.2 112.378 112.576 112.122 111.648L111.002 111.872C111.386 113.312 112.618 114.128 114.618 114.128ZM121.866 114.128C122.922 114.128 123.882 113.664 124.506 112.656V114H125.658V106.112H124.426V111.712C123.898 112.672 123.13 113.184 122.25 113.184C121.146 113.184 120.682 112.688 120.682 111.44V106.112H119.434V111.408C119.434 113.392 120.442 114.128 121.866 114.128ZM129.276 114V108.592C129.996 107.584 130.652 106.992 131.564 106.992C132.332 106.992 132.732 107.52 132.732 108.464V114H133.948V108.608C134.444 107.824 135.26 107.024 136.236 107.024C137.004 107.024 137.436 107.456 137.436 108.48V114H138.668V108.4C138.668 107.76 138.508 107.248 138.268 106.88C137.948 106.288 137.404 105.984 136.588 105.984C135.34 105.984 134.412 106.88 133.868 107.744C133.772 106.624 133.036 105.968 131.884 105.968C130.748 105.968 129.708 106.912 129.244 107.696V106.112H128.044V114H129.276ZM147.116 114.128C148.268 114.128 149.068 113.664 149.692 112.8V114H150.86V103.328H149.66V107.184C149.292 106.656 148.54 105.968 147.34 105.968C145.324 105.968 144.108 107.744 144.108 110.08C144.108 112.656 145.212 114.128 147.116 114.128ZM147.452 113.184C146.14 113.184 145.404 112.272 145.404 110.08C145.404 108.064 146.108 106.944 147.532 106.944C148.7 106.944 149.244 107.616 149.644 108.368V111.584C149.308 112.464 148.636 113.184 147.452 113.184ZM156.222 114.128C158.174 114.128 159.79 112.512 159.79 110.032C159.79 107.6 158.382 105.968 156.222 105.968C154.286 105.968 152.686 107.552 152.686 110.016C152.686 112.512 154.19 114.128 156.222 114.128ZM156.206 113.2C154.878 113.2 153.998 112.016 153.998 110.032C153.998 108 154.958 106.944 156.206 106.944C157.518 106.944 158.478 107.968 158.478 110.016C158.478 112.144 157.502 113.2 156.206 113.2ZM162.855 114V103.328H161.607V114H162.855ZM168.206 114.128C170.158 114.128 171.774 112.512 171.774 110.032C171.774 107.6 170.366 105.968 168.206 105.968C166.27 105.968 164.67 107.552 164.67 110.016C164.67 112.512 166.174 114.128 168.206 114.128ZM168.19 113.2C166.862 113.2 165.982 112.016 165.982 110.032C165.982 108 166.942 106.944 168.19 106.944C169.502 106.944 170.462 107.968 170.462 110.016C170.462 112.144 169.486 113.2 168.19 113.2ZM174.807 114V108.848C175.463 107.744 176.391 107.104 177.319 107.104C177.415 107.104 177.575 107.104 177.671 107.12V105.984C177.543 105.968 177.447 105.968 177.303 105.968C176.183 105.968 175.255 106.88 174.743 107.808V106.112H173.559V114H174.807ZM178.462 116L179.63 113.824V112.224H177.902V114H178.574L177.614 116H178.462ZM188.118 114.128C190.038 114.128 191.286 113.152 191.286 111.696C191.286 110.128 189.91 109.68 188.294 109.36C187.03 109.088 186.086 108.928 186.086 108.064C186.086 107.344 186.806 106.912 187.862 106.912C188.934 106.912 189.654 107.392 189.958 108.224L191.062 107.984C190.662 106.752 189.638 105.968 187.862 105.968C186.102 105.968 184.934 106.848 184.934 108.144C184.934 109.696 186.294 110.112 187.91 110.416C189.078 110.672 190.134 110.864 190.134 111.808C190.134 112.64 189.366 113.2 188.118 113.2C186.758 113.2 185.878 112.576 185.622 111.648L184.502 111.872C184.886 113.312 186.118 114.128 188.118 114.128ZM194.294 104.72V103.312H192.934V104.72H194.294ZM194.246 114V106.112H192.998V114H194.246ZM198.877 114.112C199.309 114.112 199.789 114.064 200.221 113.984V113.008C199.933 113.056 199.469 113.104 199.101 113.104C198.429 113.088 197.997 112.72 197.997 111.888V107.104H199.773V106.112H197.997V104.048H196.861L196.797 106.112H195.501V107.104H196.781V111.824C196.781 113.456 197.549 114.112 198.877 114.112ZM207.166 114.096C208.638 114.096 209.566 113.536 210.19 112.672C210.174 113.072 210.238 113.728 210.334 114H211.518C211.39 113.504 211.342 112.96 211.342 112.464V108.88C211.342 106.896 210.478 105.968 208.238 105.968C206.366 105.968 205.134 106.736 204.846 108.176L205.998 108.304C206.254 107.296 206.926 106.944 208.206 106.944C209.534 106.944 210.046 107.408 210.142 108.272C210.174 108.464 210.174 108.736 210.174 109.008C209.55 109.024 209.022 109.024 208.382 109.104C206.222 109.36 204.654 110.208 204.654 111.92C204.654 113.36 205.774 114.096 207.166 114.096ZM207.534 113.184C206.478 113.184 205.95 112.704 205.95 111.792C205.95 110.8 206.83 110.112 208.542 109.888C209.038 109.824 209.614 109.824 210.174 109.824V111.456C209.838 112.272 209.038 113.184 207.534 113.184ZM214.948 114V108.592C215.668 107.584 216.324 106.992 217.236 106.992C218.004 106.992 218.404 107.52 218.404 108.464V114H219.62V108.608C220.116 107.824 220.932 107.024 221.908 107.024C222.676 107.024 223.108 107.456 223.108 108.48V114H224.34V108.4C224.34 107.76 224.18 107.248 223.94 106.88C223.62 106.288 223.076 105.984 222.26 105.984C221.012 105.984 220.084 106.88 219.54 107.744C219.444 106.624 218.708 105.968 217.556 105.968C216.42 105.968 215.38 106.912 214.916 107.696V106.112H213.716V114H214.948ZM229.708 114.128C231.276 114.128 232.492 113.312 233.036 111.792L231.948 111.632C231.5 112.8 230.684 113.184 229.82 113.184C228.284 113.184 227.388 112.176 227.356 110.192H233.18C233.164 110.016 233.18 109.84 233.164 109.664C233.004 107.472 231.804 105.968 229.74 105.968C227.708 105.968 226.092 107.52 226.092 110.192C226.092 112.544 227.548 114.128 229.708 114.128ZM227.404 109.344C227.5 107.856 228.476 106.912 229.74 106.912C231.004 106.912 231.788 107.824 231.916 109.344H227.404ZM237.111 114.112C237.543 114.112 238.023 114.064 238.455 113.984V113.008C238.167 113.056 237.703 113.104 237.335 113.104C236.663 113.088 236.231 112.72 236.231 111.888V107.104H238.007V106.112H236.231V104.048H235.095L235.031 106.112H233.735V107.104H235.015V111.824C235.015 113.456 235.783 114.112 237.111 114.112ZM246.297 114.128C247.865 114.128 249.033 113.216 249.305 111.44L248.217 111.328C247.977 112.64 247.369 113.2 246.329 113.2C245.145 113.2 244.217 112.224 244.217 110.048C244.217 108.08 244.985 106.96 246.249 106.96C247.337 106.96 247.961 107.664 248.153 108.96L249.321 108.816C248.969 106.88 247.913 105.968 246.233 105.968C244.233 105.968 242.905 107.728 242.905 110.016C242.905 112.656 244.361 114.128 246.297 114.128ZM253.894 114.128C255.846 114.128 257.462 112.512 257.462 110.032C257.462 107.6 256.054 105.968 253.894 105.968C251.958 105.968 250.358 107.552 250.358 110.016C250.358 112.512 251.862 114.128 253.894 114.128ZM253.878 113.2C252.55 113.2 251.67 112.016 251.67 110.032C251.67 108 252.63 106.944 253.878 106.944C255.19 106.944 256.15 107.968 256.15 110.016C256.15 112.144 255.174 113.2 253.878 113.2ZM260.495 114V108.592C261.151 107.648 261.983 107.008 262.991 107.008C263.887 107.008 264.303 107.456 264.303 108.4V114H265.551V108.416C265.551 106.8 264.831 105.968 263.359 105.968C261.951 105.968 260.975 106.896 260.431 107.68V106.112H259.247V114H260.495ZM270.415 114.128C272.335 114.128 273.583 113.152 273.583 111.696C273.583 110.128 272.207 109.68 270.591 109.36C269.327 109.088 268.383 108.928 268.383 108.064C268.383 107.344 269.103 106.912 270.159 106.912C271.231 106.912 271.951 107.392 272.255 108.224L273.359 107.984C272.959 106.752 271.935 105.968 270.159 105.968C268.399 105.968 267.231 106.848 267.231 108.144C267.231 109.696 268.591 110.112 270.207 110.416C271.375 110.672 272.431 110.864 272.431 111.808C272.431 112.64 271.663 113.2 270.415 113.2C269.055 113.2 268.175 112.576 267.919 111.648L266.799 111.872C267.183 113.312 268.415 114.128 270.415 114.128ZM278.286 114.128C279.855 114.128 281.071 113.312 281.615 111.792L280.527 111.632C280.079 112.8 279.263 113.184 278.399 113.184C276.863 113.184 275.967 112.176 275.935 110.192H281.759C281.743 110.016 281.759 109.84 281.743 109.664C281.583 107.472 280.383 105.968 278.319 105.968C276.287 105.968 274.671 107.52 274.671 110.192C274.671 112.544 276.127 114.128 278.286 114.128ZM275.983 109.344C276.079 107.856 277.055 106.912 278.319 106.912C279.583 106.912 280.367 107.824 280.495 109.344H275.983ZM286.265 114.128C287.833 114.128 289.001 113.216 289.273 111.44L288.185 111.328C287.945 112.64 287.337 113.2 286.297 113.2C285.113 113.2 284.185 112.224 284.185 110.048C284.185 108.08 284.953 106.96 286.217 106.96C287.305 106.96 287.929 107.664 288.121 108.96L289.289 108.816C288.937 106.88 287.881 105.968 286.201 105.968C284.201 105.968 282.873 107.728 282.873 110.016C282.873 112.656 284.329 114.128 286.265 114.128ZM293.142 114.112C293.574 114.112 294.054 114.064 294.486 113.984V113.008C294.198 113.056 293.734 113.104 293.366 113.104C292.694 113.088 292.262 112.72 292.262 111.888V107.104H294.038V106.112H292.262V104.048H291.126L291.062 106.112H289.766V107.104H291.046V111.824C291.046 113.456 291.814 114.112 293.142 114.112ZM298.88 114.128C300.448 114.128 301.664 113.312 302.208 111.792L301.12 111.632C300.672 112.8 299.856 113.184 298.992 113.184C297.456 113.184 296.56 112.176 296.528 110.192H302.352C302.336 110.016 302.352 109.84 302.336 109.664C302.176 107.472 300.976 105.968 298.912 105.968C296.88 105.968 295.264 107.52 295.264 110.192C295.264 112.544 296.72 114.128 298.88 114.128ZM296.576 109.344C296.672 107.856 297.648 106.912 298.912 106.912C300.176 106.912 300.96 107.824 301.088 109.344H296.576ZM306.283 114.112C306.715 114.112 307.195 114.064 307.627 113.984V113.008C307.339 113.056 306.875 113.104 306.507 113.104C305.835 113.088 305.403 112.72 305.403 111.888V107.104H307.179V106.112H305.403V104.048H304.267L304.203 106.112H302.907V107.104H304.187V111.824C304.187 113.456 304.955 114.112 306.283 114.112ZM311.397 114.128C312.453 114.128 313.413 113.664 314.037 112.656V114H315.189V106.112H313.957V111.712C313.429 112.672 312.661 113.184 311.781 113.184C310.677 113.184 310.213 112.688 310.213 111.44V106.112H308.965V111.408C308.965 113.392 309.973 114.128 311.397 114.128ZM318.823 114V108.848C319.479 107.744 320.407 107.104 321.335 107.104C321.431 107.104 321.591 107.104 321.687 107.12V105.984C321.559 105.968 321.463 105.968 321.319 105.968C320.199 105.968 319.271 106.88 318.759 107.808V106.112H317.575V114H318.823ZM328.51 114.096C329.982 114.096 330.91 113.536 331.534 112.672C331.518 113.072 331.582 113.728 331.678 114H332.862C332.734 113.504 332.686 112.96 332.686 112.464V108.88C332.686 106.896 331.822 105.968 329.582 105.968C327.71 105.968 326.478 106.736 326.19 108.176L327.342 108.304C327.598 107.296 328.27 106.944 329.55 106.944C330.878 106.944 331.39 107.408 331.486 108.272C331.518 108.464 331.518 108.736 331.518 109.008C330.894 109.024 330.366 109.024 329.726 109.104C327.566 109.36 325.998 110.208 325.998 111.92C325.998 113.36 327.118 114.096 328.51 114.096ZM328.878 113.184C327.822 113.184 327.294 112.704 327.294 111.792C327.294 110.8 328.174 110.112 329.886 109.888C330.382 109.824 330.958 109.824 331.518 109.824V111.456C331.182 112.272 330.382 113.184 328.878 113.184ZM337.475 114.128C338.627 114.128 339.427 113.664 340.051 112.8V114H341.219V103.328H340.019V107.184C339.651 106.656 338.899 105.968 337.699 105.968C335.683 105.968 334.467 107.744 334.467 110.08C334.467 112.656 335.571 114.128 337.475 114.128ZM337.811 113.184C336.499 113.184 335.763 112.272 335.763 110.08C335.763 108.064 336.467 106.944 337.891 106.944C339.059 106.944 339.603 107.616 340.003 108.368V111.584C339.667 112.464 338.995 113.184 337.811 113.184ZM344.981 104.72V103.312H343.621V104.72H344.981ZM344.933 114V106.112H343.685V114H344.933ZM351.052 114.112C352.636 114.112 354.06 112.72 354.06 110.048C354.06 107.2 352.844 105.968 351.084 105.968C349.82 105.968 349.02 106.736 348.54 107.504V106.112H347.356V116.672H348.588V112.96C349.068 113.536 349.9 114.112 351.052 114.112ZM350.716 113.2C349.58 113.2 349.004 112.496 348.588 111.904V108.576C349.148 107.472 349.884 106.992 350.796 106.992C352.156 106.992 352.764 107.968 352.764 110.08C352.764 112.352 351.964 113.2 350.716 113.2ZM357.2 104.72V103.312H355.84V104.72H357.2ZM357.152 114V106.112H355.904V114H357.152ZM362.071 114.128C363.991 114.128 365.239 113.152 365.239 111.696C365.239 110.128 363.863 109.68 362.247 109.36C360.983 109.088 360.039 108.928 360.039 108.064C360.039 107.344 360.759 106.912 361.815 106.912C362.887 106.912 363.607 107.392 363.911 108.224L365.015 107.984C364.615 106.752 363.591 105.968 361.815 105.968C360.055 105.968 358.887 106.848 358.887 108.144C358.887 109.696 360.247 110.112 361.863 110.416C363.031 110.672 364.087 110.864 364.087 111.808C364.087 112.64 363.319 113.2 362.071 113.2C360.711 113.2 359.831 112.576 359.575 111.648L358.455 111.872C358.839 113.312 360.071 114.128 362.071 114.128ZM368.247 104.72V103.312H366.887V104.72H368.247ZM368.199 114V106.112H366.951V114H368.199ZM373.406 114.128C374.974 114.128 376.142 113.216 376.414 111.44L375.326 111.328C375.086 112.64 374.478 113.2 373.438 113.2C372.254 113.2 371.326 112.224 371.326 110.048C371.326 108.08 372.094 106.96 373.358 106.96C374.446 106.96 375.07 107.664 375.262 108.96L376.43 108.816C376.078 106.88 375.022 105.968 373.342 105.968C371.342 105.968 370.014 107.728 370.014 110.016C370.014 112.656 371.47 114.128 373.406 114.128ZM379.403 104.72V103.312H378.043V104.72H379.403ZM379.355 114V106.112H378.107V114H379.355ZM383.026 114V108.592C383.682 107.648 384.514 107.008 385.522 107.008C386.418 107.008 386.834 107.456 386.834 108.4V114H388.082V108.416C388.082 106.8 387.362 105.968 385.89 105.968C384.482 105.968 383.506 106.896 382.962 107.68V106.112H381.778V114H383.026ZM393.3 116.976C395.86 116.976 397.156 116.016 397.156 114.64C397.156 113.344 396.26 112.816 393.748 112.768C392.148 112.72 391.156 112.72 391.156 112.016C391.156 111.536 391.604 111.232 392.02 111.232C392.148 111.264 392.66 111.376 393.172 111.376C394.964 111.376 396.052 110.24 396.052 108.672C396.052 107.856 395.748 107.232 395.332 106.864C395.46 106.288 395.796 105.952 396.596 105.968C396.692 105.968 396.772 105.984 396.868 106L396.852 104.96C396.804 104.96 396.708 104.96 396.66 104.96C395.316 104.944 394.884 105.488 394.692 106.352C394.212 106.096 393.636 105.968 393.044 105.968C391.46 105.968 390.1 107.056 390.1 108.672C390.1 109.632 390.484 110.448 391.252 110.848C390.548 111.04 390.004 111.52 390.004 112.192C390.004 112.8 390.324 113.248 391.124 113.472C390.164 113.712 389.588 114.304 389.588 115.088C389.588 116.304 390.868 116.976 393.3 116.976ZM393.108 110.544C392.036 110.544 391.332 109.904 391.332 108.672C391.332 107.68 391.94 106.864 393.108 106.864C394.292 106.864 394.884 107.728 394.884 108.688C394.884 109.872 394.228 110.544 393.108 110.544ZM393.204 116.144C391.444 116.144 390.724 115.696 390.724 114.944C390.724 114.24 391.204 113.92 391.828 113.744C395.38 113.824 395.972 114 395.972 114.8C395.972 115.6 394.964 116.144 393.204 116.144ZM404.943 114.128C406.511 114.128 407.727 113.312 408.271 111.792L407.183 111.632C406.735 112.8 405.919 113.184 405.055 113.184C403.519 113.184 402.623 112.176 402.591 110.192H408.415C408.399 110.016 408.415 109.84 408.399 109.664C408.239 107.472 407.039 105.968 404.975 105.968C402.943 105.968 401.327 107.52 401.327 110.192C401.327 112.544 402.783 114.128 404.943 114.128ZM402.639 109.344C402.735 107.856 403.711 106.912 404.975 106.912C406.239 106.912 407.023 107.824 407.151 109.344H402.639ZM411.418 114V103.328H410.17V114H411.418ZM415.169 104.72V103.312H413.809V104.72H415.169ZM415.121 114V106.112H413.873V114H415.121ZM419.752 114.112C420.184 114.112 420.664 114.064 421.096 113.984V113.008C420.808 113.056 420.344 113.104 419.976 113.104C419.304 113.088 418.872 112.72 418.872 111.888V107.104H420.648V106.112H418.872V104.048H417.736L417.672 106.112H416.376V107.104H417.656V111.824C417.656 113.456 418.424 114.112 419.752 114.112ZM424.411 114V112.256H422.667V114H424.411ZM431.891 114V103.328H430.563V114H431.891ZM436.85 114.128C438.002 114.128 438.802 113.664 439.426 112.8V114H440.594V103.328H439.394V107.184C439.026 106.656 438.274 105.968 437.074 105.968C435.058 105.968 433.842 107.744 433.842 110.08C433.842 112.656 434.946 114.128 436.85 114.128ZM437.186 113.184C435.874 113.184 435.138 112.272 435.138 110.08C435.138 108.064 435.842 106.944 437.266 106.944C438.434 106.944 438.978 107.616 439.378 108.368V111.584C439.042 112.464 438.37 113.184 437.186 113.184ZM448.604 114.096C450.076 114.096 451.004 113.536 451.628 112.672C451.612 113.072 451.676 113.728 451.772 114H452.956C452.828 113.504 452.78 112.96 452.78 112.464V108.88C452.78 106.896 451.916 105.968 449.676 105.968C447.804 105.968 446.572 106.736 446.284 108.176L447.436 108.304C447.692 107.296 448.364 106.944 449.644 106.944C450.972 106.944 451.484 107.408 451.58 108.272C451.612 108.464 451.612 108.736 451.612 109.008C450.988 109.024 450.46 109.024 449.82 109.104C447.66 109.36 446.092 110.208 446.092 111.92C446.092 113.36 447.212 114.096 448.604 114.096ZM448.972 113.184C447.916 113.184 447.388 112.704 447.388 111.792C447.388 110.8 448.268 110.112 449.98 109.888C450.476 109.824 451.052 109.824 451.612 109.824V111.456C451.276 112.272 450.476 113.184 448.972 113.184ZM458.785 114.112C460.577 114.112 461.873 112.752 461.873 110.032C461.873 107.392 460.769 105.968 458.881 105.968C457.745 105.968 456.737 106.752 456.337 107.616V103.328H455.153V114H455.841L456.241 112.688C456.753 113.584 457.601 114.112 458.785 114.112ZM458.545 113.216C457.281 113.216 456.353 112.272 456.353 110.624V108.72C456.785 107.808 457.441 106.96 458.593 106.96C459.921 106.96 460.593 108 460.593 110.064C460.593 112.272 459.889 113.216 458.545 113.216ZM469.26 114.096C470.732 114.096 471.66 113.536 472.284 112.672C472.268 113.072 472.332 113.728 472.428 114H473.612C473.484 113.504 473.436 112.96 473.436 112.464V108.88C473.436 106.896 472.572 105.968 470.332 105.968C468.46 105.968 467.228 106.736 466.94 108.176L468.092 108.304C468.348 107.296 469.02 106.944 470.3 106.944C471.628 106.944 472.14 107.408 472.236 108.272C472.268 108.464 472.268 108.736 472.268 109.008C471.644 109.024 471.116 109.024 470.476 109.104C468.316 109.36 466.748 110.208 466.748 111.92C466.748 113.36 467.868 114.096 469.26 114.096ZM469.628 113.184C468.572 113.184 468.044 112.704 468.044 111.792C468.044 110.8 468.924 110.112 470.636 109.888C471.132 109.824 471.708 109.824 472.268 109.824V111.456C471.932 112.272 471.132 113.184 469.628 113.184ZM477.089 114V103.328H475.841V114H477.089ZM480.841 104.72V103.312H479.481V104.72H480.841ZM480.793 114V106.112H479.545V114H480.793ZM485.712 114.112C486.672 114.112 487.616 113.68 488.16 112.704V116.672H489.376V106.112H488.784L488.32 107.296C487.872 106.624 487.152 106 485.904 106C483.872 106 482.624 107.776 482.624 110.096C482.624 112.784 483.888 114.112 485.712 114.112ZM486.032 113.216C484.704 113.216 483.904 112.176 483.904 110.064C483.904 108.032 484.752 106.944 486.048 106.944C487.2 106.944 487.792 107.632 488.16 108.496V110.912C488.128 112.432 487.168 113.216 486.032 113.216ZM494.194 114.128C495.25 114.128 496.21 113.664 496.834 112.656V114H497.986V106.112H496.754V111.712C496.226 112.672 495.458 113.184 494.578 113.184C493.474 113.184 493.01 112.688 493.01 111.44V106.112H491.762V111.408C491.762 113.392 492.77 114.128 494.194 114.128ZM502.26 114.096C503.732 114.096 504.66 113.536 505.284 112.672C505.268 113.072 505.332 113.728 505.428 114H506.612C506.484 113.504 506.436 112.96 506.436 112.464V108.88C506.436 106.896 505.572 105.968 503.332 105.968C501.46 105.968 500.228 106.736 499.94 108.176L501.092 108.304C501.348 107.296 502.02 106.944 503.3 106.944C504.628 106.944 505.14 107.408 505.236 108.272C505.268 108.464 505.268 108.736 505.268 109.008C504.644 109.024 504.116 109.024 503.476 109.104C501.316 109.36 499.748 110.208 499.748 111.92C499.748 113.36 500.868 114.096 502.26 114.096ZM502.628 113.184C501.572 113.184 501.044 112.704 501.044 111.792C501.044 110.8 501.924 110.112 503.636 109.888C504.132 109.824 504.708 109.824 505.268 109.824V111.456C504.932 112.272 504.132 113.184 502.628 113.184ZM510.041 114V108.592C510.761 107.584 511.417 106.992 512.329 106.992C513.097 106.992 513.497 107.52 513.497 108.464V114H514.713V108.608C515.209 107.824 516.025 107.024 517.001 107.024C517.769 107.024 518.201 107.456 518.201 108.48V114H519.433V108.4C519.433 107.76 519.273 107.248 519.033 106.88C518.713 106.288 518.169 105.984 517.353 105.984C516.105 105.984 515.177 106.88 514.633 107.744C514.537 106.624 513.801 105.968 512.649 105.968C511.513 105.968 510.473 106.912 510.009 107.696V106.112H508.809V114H510.041ZM528.394 114L531.274 106.112H530.186L528.346 111.216C528.154 111.68 527.93 112.448 527.85 112.656C527.802 112.432 527.562 111.696 527.386 111.2L525.61 106.112H524.298L527.13 114H528.394ZM535.505 114.128C537.073 114.128 538.289 113.312 538.833 111.792L537.745 111.632C537.297 112.8 536.481 113.184 535.617 113.184C534.081 113.184 533.185 112.176 533.153 110.192H538.977C538.961 110.016 538.977 109.84 538.961 109.664C538.801 107.472 537.601 105.968 535.537 105.968C533.505 105.968 531.889 107.52 531.889 110.192C531.889 112.544 533.345 114.128 535.505 114.128ZM533.201 109.344C533.297 107.856 534.273 106.912 535.537 106.912C536.801 106.912 537.585 107.824 537.713 109.344H533.201ZM541.948 114V108.848C542.604 107.744 543.532 107.104 544.46 107.104C544.556 107.104 544.716 107.104 544.812 107.12V105.984C544.684 105.968 544.588 105.968 544.444 105.968C543.324 105.968 542.396 106.88 541.884 107.808V106.112H540.7V114H541.948ZM548.987 114.128C550.939 114.128 552.555 112.512 552.555 110.032C552.555 107.6 551.147 105.968 548.987 105.968C547.051 105.968 545.451 107.552 545.451 110.016C545.451 112.512 546.955 114.128 548.987 114.128ZM548.971 113.2C547.643 113.2 546.763 112.016 546.763 110.032C546.763 108 547.723 106.944 548.971 106.944C550.283 106.944 551.243 107.968 551.243 110.016C551.243 112.144 550.267 113.2 548.971 113.2ZM559.26 114V108.592C559.98 107.584 560.636 106.992 561.548 106.992C562.316 106.992 562.716 107.52 562.716 108.464V114H563.932V108.608C564.428 107.824 565.244 107.024 566.22 107.024C566.988 107.024 567.42 107.456 567.42 108.48V114H568.652V108.4C568.652 107.76 568.492 107.248 568.252 106.88C567.932 106.288 567.388 105.984 566.572 105.984C565.324 105.984 564.396 106.88 563.852 107.744C563.756 106.624 563.02 105.968 561.868 105.968C560.732 105.968 559.692 106.912 559.228 107.696V106.112H558.028V114H559.26ZM572.325 104.72V103.312H570.965V104.72H572.325ZM572.277 114V106.112H571.029V114H572.277ZM575.948 114V108.592C576.604 107.648 577.436 107.008 578.444 107.008C579.34 107.008 579.756 107.456 579.756 108.4V114H581.004V108.416C581.004 106.8 580.284 105.968 578.812 105.968C577.404 105.968 576.428 106.896 575.884 107.68V106.112H574.7V114H575.948ZM585.772 114.128C586.828 114.128 587.788 113.664 588.412 112.656V114H589.564V106.112H588.332V111.712C587.804 112.672 587.036 113.184 586.156 113.184C585.052 113.184 584.588 112.688 584.588 111.44V106.112H583.34V111.408C583.34 113.392 584.348 114.128 585.772 114.128ZM594.446 114.128C596.366 114.128 597.614 113.152 597.614 111.696C597.614 110.128 596.238 109.68 594.622 109.36C593.358 109.088 592.414 108.928 592.414 108.064C592.414 107.344 593.134 106.912 594.19 106.912C595.262 106.912 595.982 107.392 596.286 108.224L597.39 107.984C596.99 106.752 595.966 105.968 594.19 105.968C592.43 105.968 591.262 106.848 591.262 108.144C591.262 109.696 592.622 110.112 594.238 110.416C595.406 110.672 596.462 110.864 596.462 111.808C596.462 112.64 595.694 113.2 594.446 113.2C593.086 113.2 592.206 112.576 591.95 111.648L590.83 111.872C591.214 113.312 592.446 114.128 594.446 114.128ZM599.79 116L600.958 113.824V112.224H599.23V114H599.902L598.942 116H599.79ZM608.278 104.72V103.312H606.918V104.72H608.278ZM608.23 114V106.112H606.982V114H608.23ZM613.053 114.128C614.109 114.128 615.069 113.664 615.693 112.656V114H616.845V106.112H615.613V111.712C615.085 112.672 614.317 113.184 613.437 113.184C612.333 113.184 611.869 112.688 611.869 111.44V106.112H610.621V111.408C610.621 113.392 611.629 114.128 613.053 114.128ZM620.479 114V108.848C621.135 107.744 622.063 107.104 622.991 107.104C623.087 107.104 623.247 107.104 623.343 107.12V105.984C623.215 105.968 623.119 105.968 622.975 105.968C621.855 105.968 620.927 106.88 620.415 107.808V106.112H619.231V114H620.479ZM627.458 114.128C629.026 114.128 630.242 113.312 630.786 111.792L629.698 111.632C629.25 112.8 628.434 113.184 627.57 113.184C626.034 113.184 625.138 112.176 625.106 110.192H630.93C630.914 110.016 630.93 109.84 630.914 109.664C630.754 107.472 629.554 105.968 627.49 105.968C625.458 105.968 623.842 107.52 623.842 110.192C623.842 112.544 625.298 114.128 627.458 114.128ZM625.154 109.344C625.25 107.856 626.226 106.912 627.49 106.912C628.754 106.912 629.538 107.824 629.666 109.344H625.154ZM55.528 124.72V123.312H54.168V124.72H55.528ZM55.48 134V126.112H54.232V134H55.48ZM59.1351 134V128.592C59.8551 127.584 60.5111 126.992 61.4231 126.992C62.1911 126.992 62.5911 127.52 62.5911 128.464V134H63.8071V128.608C64.3031 127.824 65.1191 127.024 66.0951 127.024C66.8631 127.024 67.2951 127.456 67.2951 128.48V134H68.5271V128.4C68.5271 127.76 68.3671 127.248 68.1271 126.88C67.8071 126.288 67.2631 125.984 66.4471 125.984C65.1991 125.984 64.2711 126.88 63.7271 127.744C63.6311 126.624 62.8951 125.968 61.7431 125.968C60.6071 125.968 59.5671 126.912 59.1031 127.696V126.112H57.9031V134H59.1351ZM74.5679 134.112C76.1519 134.112 77.5759 132.72 77.5759 130.048C77.5759 127.2 76.3599 125.968 74.5999 125.968C73.3359 125.968 72.5359 126.736 72.0559 127.504V126.112H70.8719V136.672H72.1039V132.96C72.5839 133.536 73.4159 134.112 74.5679 134.112ZM74.2319 133.2C73.0959 133.2 72.5199 132.496 72.1039 131.904V128.576C72.6639 127.472 73.3999 126.992 74.3119 126.992C75.6719 126.992 76.2799 127.968 76.2799 130.08C76.2799 132.352 75.4799 133.2 74.2319 133.2ZM82.4115 134.128C83.9795 134.128 85.1955 133.312 85.7395 131.792L84.6515 131.632C84.2035 132.8 83.3875 133.184 82.5235 133.184C80.9875 133.184 80.0915 132.176 80.0595 130.192H85.8835C85.8675 130.016 85.8835 129.84 85.8675 129.664C85.7075 127.472 84.5075 125.968 82.4435 125.968C80.4115 125.968 78.7955 127.52 78.7955 130.192C78.7955 132.544 80.2515 134.128 82.4115 134.128ZM80.1075 129.344C80.2035 127.856 81.1795 126.912 82.4435 126.912C83.7075 126.912 84.4915 127.824 84.6195 129.344H80.1075ZM90.0223 134.128C91.1743 134.128 91.9743 133.664 92.5983 132.8V134H93.7663V123.328H92.5663V127.184C92.1983 126.656 91.4463 125.968 90.2463 125.968C88.2303 125.968 87.0143 127.744 87.0143 130.08C87.0143 132.656 88.1183 134.128 90.0223 134.128ZM90.3583 133.184C89.0463 133.184 88.3103 132.272 88.3103 130.08C88.3103 128.064 89.0143 126.944 90.4383 126.944C91.6063 126.944 92.1503 127.616 92.5503 128.368V131.584C92.2143 132.464 91.5423 133.184 90.3583 133.184ZM97.528 124.72V123.312H96.168V124.72H97.528ZM97.48 134V126.112H96.232V134H97.48ZM102.111 134.112C102.543 134.112 103.023 134.064 103.455 133.984V133.008C103.167 133.056 102.703 133.104 102.335 133.104C101.663 133.088 101.231 132.72 101.231 131.888V127.104H103.007V126.112H101.231V124.048H100.095L100.031 126.112H98.7351V127.104H100.015V131.824C100.015 133.456 100.783 134.112 102.111 134.112ZM106.77 134V132.256H105.026V134H106.77ZM116.57 134L120.17 123.328H118.954L116.378 131.104C116.314 131.264 116.074 132.048 116.026 132.256C115.994 132.048 115.738 131.216 115.706 131.104L113.082 123.328H111.674L115.274 134H116.57ZM123.878 134.128C125.83 134.128 127.446 132.512 127.446 130.032C127.446 127.6 126.038 125.968 123.878 125.968C121.942 125.968 120.342 127.552 120.342 130.016C120.342 132.512 121.846 134.128 123.878 134.128ZM123.862 133.2C122.534 133.2 121.654 132.016 121.654 130.032C121.654 128 122.614 126.944 123.862 126.944C125.174 126.944 126.134 127.968 126.134 130.016C126.134 132.144 125.158 133.2 123.862 133.2ZM130.511 134V123.328H129.263V134H130.511ZM135.334 134.128C136.39 134.128 137.35 133.664 137.974 132.656V134H139.126V126.112H137.894V131.712C137.366 132.672 136.598 133.184 135.718 133.184C134.614 133.184 134.15 132.688 134.15 131.44V126.112H132.902V131.408C132.902 133.392 133.91 134.128 135.334 134.128ZM145.209 134.112C146.793 134.112 148.217 132.72 148.217 130.048C148.217 127.2 147.001 125.968 145.241 125.968C143.977 125.968 143.177 126.736 142.697 127.504V126.112H141.513V136.672H142.745V132.96C143.225 133.536 144.057 134.112 145.209 134.112ZM144.873 133.2C143.737 133.2 143.161 132.496 142.745 131.904V128.576C143.305 127.472 144.041 126.992 144.953 126.992C146.313 126.992 146.921 127.968 146.921 130.08C146.921 132.352 146.121 133.2 144.873 133.2ZM152.236 134.112C152.668 134.112 153.148 134.064 153.58 133.984V133.008C153.292 133.056 152.828 133.104 152.46 133.104C151.788 133.088 151.356 132.72 151.356 131.888V127.104H153.132V126.112H151.356V124.048H150.22L150.156 126.112H148.86V127.104H150.14V131.824C150.14 133.456 150.908 134.112 152.236 134.112ZM156.838 134.096C158.31 134.096 159.238 133.536 159.862 132.672C159.846 133.072 159.91 133.728 160.006 134H161.19C161.062 133.504 161.014 132.96 161.014 132.464V128.88C161.014 126.896 160.15 125.968 157.91 125.968C156.038 125.968 154.806 126.736 154.518 128.176L155.67 128.304C155.926 127.296 156.598 126.944 157.878 126.944C159.206 126.944 159.718 127.408 159.814 128.272C159.846 128.464 159.846 128.736 159.846 129.008C159.222 129.024 158.694 129.024 158.054 129.104C155.894 129.36 154.326 130.208 154.326 131.92C154.326 133.36 155.446 134.096 156.838 134.096ZM157.206 133.184C156.15 133.184 155.622 132.704 155.622 131.792C155.622 130.8 156.502 130.112 158.214 129.888C158.71 129.824 159.286 129.824 159.846 129.824V131.456C159.51 132.272 158.71 133.184 157.206 133.184ZM165.596 134.112C166.028 134.112 166.508 134.064 166.94 133.984V133.008C166.652 133.056 166.188 133.104 165.82 133.104C165.148 133.088 164.716 132.72 164.716 131.888V127.104H166.492V126.112H164.716V124.048H163.58L163.516 126.112H162.22V127.104H163.5V131.824C163.5 133.456 164.268 134.112 165.596 134.112ZM170.709 134.128C171.765 134.128 172.725 133.664 173.349 132.656V134H174.501V126.112H173.269V131.712C172.741 132.672 171.973 133.184 171.093 133.184C169.989 133.184 169.525 132.688 169.525 131.44V126.112H168.277V131.408C168.277 133.392 169.285 134.128 170.709 134.128ZM178.12 134V128.592C178.84 127.584 179.496 126.992 180.408 126.992C181.176 126.992 181.576 127.52 181.576 128.464V134H182.792V128.608C183.288 127.824 184.104 127.024 185.08 127.024C185.848 127.024 186.28 127.456 186.28 128.48V134H187.512V128.4C187.512 127.76 187.352 127.248 187.112 126.88C186.792 126.288 186.248 125.984 185.432 125.984C184.184 125.984 183.256 126.88 182.712 127.744C182.616 126.624 181.88 125.968 180.728 125.968C179.592 125.968 178.552 126.912 178.088 127.696V126.112H176.888V134H178.12ZM196.04 134.112C197 134.112 197.944 133.68 198.488 132.704V136.672H199.704V126.112H199.112L198.648 127.296C198.2 126.624 197.48 126 196.232 126C194.2 126 192.952 127.776 192.952 130.096C192.952 132.784 194.216 134.112 196.04 134.112ZM196.36 133.216C195.032 133.216 194.232 132.176 194.232 130.064C194.232 128.032 195.08 126.944 196.376 126.944C197.528 126.944 198.12 127.632 198.488 128.496V130.912C198.456 132.432 197.496 133.216 196.36 133.216ZM204.522 134.128C205.578 134.128 206.538 133.664 207.162 132.656V134H208.314V126.112H207.082V131.712C206.554 132.672 205.786 133.184 204.906 133.184C203.802 133.184 203.338 132.688 203.338 131.44V126.112H202.09V131.408C202.09 133.392 203.098 134.128 204.522 134.128ZM213.628 134.128C215.58 134.128 217.196 132.512 217.196 130.032C217.196 127.6 215.788 125.968 213.628 125.968C211.692 125.968 210.092 127.552 210.092 130.016C210.092 132.512 211.596 134.128 213.628 134.128ZM213.612 133.2C212.284 133.2 211.404 132.016 211.404 130.032C211.404 128 212.364 126.944 213.612 126.944C214.924 126.944 215.884 127.968 215.884 130.016C215.884 132.144 214.908 133.2 213.612 133.2ZM225.693 134.128C227.261 134.128 228.477 133.312 229.021 131.792L227.933 131.632C227.485 132.8 226.669 133.184 225.805 133.184C224.269 133.184 223.373 132.176 223.341 130.192H229.165C229.149 130.016 229.165 129.84 229.149 129.664C228.989 127.472 227.789 125.968 225.725 125.968C223.693 125.968 222.077 127.52 222.077 130.192C222.077 132.544 223.533 134.128 225.693 134.128ZM223.389 129.344C223.485 127.856 224.461 126.912 225.725 126.912C226.989 126.912 227.773 127.824 227.901 129.344H223.389ZM232.168 134V123.328H230.92V134H232.168ZM235.919 124.72V123.312H234.559V124.72H235.919ZM235.871 134V126.112H234.623V134H235.871ZM241.222 136.976C243.782 136.976 245.078 136.016 245.078 134.64C245.078 133.344 244.182 132.816 241.67 132.768C240.07 132.72 239.078 132.72 239.078 132.016C239.078 131.536 239.526 131.232 239.942 131.232C240.07 131.264 240.582 131.376 241.094 131.376C242.886 131.376 243.974 130.24 243.974 128.672C243.974 127.856 243.67 127.232 243.254 126.864C243.382 126.288 243.718 125.952 244.518 125.968C244.614 125.968 244.694 125.984 244.79 126L244.774 124.96C244.726 124.96 244.63 124.96 244.582 124.96C243.238 124.944 242.806 125.488 242.614 126.352C242.134 126.096 241.558 125.968 240.966 125.968C239.382 125.968 238.022 127.056 238.022 128.672C238.022 129.632 238.406 130.448 239.174 130.848C238.47 131.04 237.926 131.52 237.926 132.192C237.926 132.8 238.246 133.248 239.046 133.472C238.086 133.712 237.51 134.304 237.51 135.088C237.51 136.304 238.79 136.976 241.222 136.976ZM241.03 130.544C239.958 130.544 239.254 129.904 239.254 128.672C239.254 127.68 239.862 126.864 241.03 126.864C242.214 126.864 242.806 127.728 242.806 128.688C242.806 129.872 242.15 130.544 241.03 130.544ZM241.126 136.144C239.366 136.144 238.646 135.696 238.646 134.944C238.646 134.24 239.126 133.92 239.75 133.744C243.302 133.824 243.894 134 243.894 134.8C243.894 135.6 242.886 136.144 241.126 136.144ZM249.177 134.128C250.745 134.128 251.961 133.312 252.505 131.792L251.417 131.632C250.969 132.8 250.153 133.184 249.289 133.184C247.753 133.184 246.857 132.176 246.825 130.192H252.649C252.633 130.016 252.649 129.84 252.633 129.664C252.473 127.472 251.273 125.968 249.209 125.968C247.177 125.968 245.561 127.52 245.561 130.192C245.561 132.544 247.017 134.128 249.177 134.128ZM246.873 129.344C246.969 127.856 247.945 126.912 249.209 126.912C250.473 126.912 251.257 127.824 251.385 129.344H246.873ZM255.62 134V128.592C256.276 127.648 257.108 127.008 258.116 127.008C259.012 127.008 259.428 127.456 259.428 128.4V134H260.676V128.416C260.676 126.8 259.956 125.968 258.484 125.968C257.076 125.968 256.1 126.896 255.556 127.68V126.112H254.372V134H255.62ZM265.46 134.128C266.612 134.128 267.412 133.664 268.036 132.8V134H269.204V123.328H268.004V127.184C267.636 126.656 266.884 125.968 265.684 125.968C263.668 125.968 262.452 127.744 262.452 130.08C262.452 132.656 263.556 134.128 265.46 134.128ZM265.796 133.184C264.484 133.184 263.748 132.272 263.748 130.08C263.748 128.064 264.452 126.944 265.876 126.944C267.044 126.944 267.588 127.616 267.988 128.368V131.584C267.652 132.464 266.98 133.184 265.796 133.184ZM272.966 124.72V123.312H271.606V124.72H272.966ZM272.918 134V126.112H271.67V134H272.918ZM281.444 134.128C282.596 134.128 283.396 133.664 284.02 132.8V134H285.188V123.328H283.988V127.184C283.62 126.656 282.868 125.968 281.668 125.968C279.652 125.968 278.436 127.744 278.436 130.08C278.436 132.656 279.54 134.128 281.444 134.128ZM281.78 133.184C280.468 133.184 279.732 132.272 279.732 130.08C279.732 128.064 280.436 126.944 281.86 126.944C283.028 126.944 283.572 127.616 283.972 128.368V131.584C283.636 132.464 282.964 133.184 281.78 133.184ZM290.55 134.128C292.502 134.128 294.118 132.512 294.118 130.032C294.118 127.6 292.71 125.968 290.55 125.968C288.614 125.968 287.014 127.552 287.014 130.016C287.014 132.512 288.518 134.128 290.55 134.128ZM290.534 133.2C289.206 133.2 288.326 132.016 288.326 130.032C288.326 128 289.286 126.944 290.534 126.944C291.846 126.944 292.806 127.968 292.806 130.016C292.806 132.144 291.83 133.2 290.534 133.2ZM297.183 134V123.328H295.935V134H297.183ZM302.534 134.128C304.486 134.128 306.102 132.512 306.102 130.032C306.102 127.6 304.694 125.968 302.534 125.968C300.598 125.968 298.998 127.552 298.998 130.016C298.998 132.512 300.502 134.128 302.534 134.128ZM302.518 133.2C301.19 133.2 300.31 132.016 300.31 130.032C300.31 128 301.27 126.944 302.518 126.944C303.83 126.944 304.79 127.968 304.79 130.016C304.79 132.144 303.814 133.2 302.518 133.2ZM309.136 134V128.848C309.792 127.744 310.72 127.104 311.648 127.104C311.744 127.104 311.904 127.104 312 127.12V125.984C311.872 125.968 311.776 125.968 311.632 125.968C310.512 125.968 309.584 126.88 309.072 127.808V126.112H307.888V134H309.136ZM316.115 134.128C317.683 134.128 318.899 133.312 319.443 131.792L318.355 131.632C317.907 132.8 317.091 133.184 316.227 133.184C314.691 133.184 313.795 132.176 313.763 130.192H319.587C319.571 130.016 319.587 129.84 319.571 129.664C319.411 127.472 318.211 125.968 316.147 125.968C314.115 125.968 312.499 127.52 312.499 130.192C312.499 132.544 313.955 134.128 316.115 134.128ZM313.811 129.344C313.907 127.856 314.883 126.912 316.147 126.912C317.411 126.912 318.195 127.824 318.323 129.344H313.811ZM322.541 134V128.592C323.261 127.584 323.917 126.992 324.829 126.992C325.597 126.992 325.997 127.52 325.997 128.464V134H327.213V128.608C327.709 127.824 328.525 127.024 329.501 127.024C330.269 127.024 330.701 127.456 330.701 128.48V134H331.933V128.4C331.933 127.76 331.773 127.248 331.533 126.88C331.213 126.288 330.669 125.984 329.853 125.984C328.605 125.984 327.677 126.88 327.133 127.744C327.037 126.624 326.301 125.968 325.149 125.968C324.013 125.968 322.973 126.912 322.509 127.696V126.112H321.309V134H322.541ZM339.198 134V128.592C339.918 127.584 340.574 126.992 341.486 126.992C342.254 126.992 342.654 127.52 342.654 128.464V134H343.87V128.608C344.366 127.824 345.182 127.024 346.158 127.024C346.926 127.024 347.358 127.456 347.358 128.48V134H348.59V128.4C348.59 127.76 348.43 127.248 348.19 126.88C347.87 126.288 347.326 125.984 346.51 125.984C345.262 125.984 344.334 126.88 343.79 127.744C343.694 126.624 342.958 125.968 341.806 125.968C340.67 125.968 339.63 126.912 339.166 127.696V126.112H337.966V134H339.198ZM353.862 134.128C355.814 134.128 357.43 132.512 357.43 130.032C357.43 127.6 356.022 125.968 353.862 125.968C351.926 125.968 350.326 127.552 350.326 130.016C350.326 132.512 351.83 134.128 353.862 134.128ZM353.846 133.2C352.518 133.2 351.638 132.016 351.638 130.032C351.638 128 352.598 126.944 353.846 126.944C355.158 126.944 356.118 127.968 356.118 130.016C356.118 132.144 355.142 133.2 353.846 133.2ZM360.496 134V123.328H359.248V134H360.496ZM365.943 134.128C367.511 134.128 368.727 133.312 369.271 131.792L368.183 131.632C367.735 132.8 366.919 133.184 366.055 133.184C364.519 133.184 363.623 132.176 363.591 130.192H369.415C369.399 130.016 369.415 129.84 369.399 129.664C369.239 127.472 368.039 125.968 365.975 125.968C363.943 125.968 362.327 127.52 362.327 130.192C362.327 132.544 363.783 134.128 365.943 134.128ZM363.639 129.344C363.735 127.856 364.711 126.912 365.975 126.912C367.239 126.912 368.023 127.824 368.151 129.344H363.639ZM373.634 134.128C375.554 134.128 376.802 133.152 376.802 131.696C376.802 130.128 375.426 129.68 373.81 129.36C372.546 129.088 371.602 128.928 371.602 128.064C371.602 127.344 372.322 126.912 373.378 126.912C374.45 126.912 375.17 127.392 375.474 128.224L376.578 127.984C376.178 126.752 375.154 125.968 373.378 125.968C371.618 125.968 370.45 126.848 370.45 128.144C370.45 129.696 371.81 130.112 373.426 130.416C374.594 130.672 375.65 130.864 375.65 131.808C375.65 132.64 374.882 133.2 373.634 133.2C372.274 133.2 371.394 132.576 371.138 131.648L370.018 131.872C370.402 133.312 371.634 134.128 373.634 134.128ZM380.689 134.112C381.121 134.112 381.601 134.064 382.033 133.984V133.008C381.745 133.056 381.281 133.104 380.913 133.104C380.241 133.088 379.809 132.72 379.809 131.888V127.104H381.585V126.112H379.809V124.048H378.673L378.609 126.112H377.313V127.104H378.593V131.824C378.593 133.456 379.361 134.112 380.689 134.112ZM384.731 124.72V123.312H383.371V124.72H384.731ZM384.683 134V126.112H383.435V134H384.683ZM388.994 134.096C390.466 134.096 391.394 133.536 392.018 132.672C392.002 133.072 392.066 133.728 392.162 134H393.346C393.218 133.504 393.17 132.96 393.17 132.464V128.88C393.17 126.896 392.306 125.968 390.066 125.968C388.194 125.968 386.962 126.736 386.674 128.176L387.826 128.304C388.082 127.296 388.754 126.944 390.034 126.944C391.362 126.944 391.874 127.408 391.97 128.272C392.002 128.464 392.002 128.736 392.002 129.008C391.378 129.024 390.85 129.024 390.21 129.104C388.05 129.36 386.482 130.208 386.482 131.92C386.482 133.36 387.602 134.096 388.994 134.096ZM389.362 133.184C388.306 133.184 387.778 132.704 387.778 131.792C387.778 130.8 388.658 130.112 390.37 129.888C390.866 129.824 391.442 129.824 392.002 129.824V131.456C391.666 132.272 390.866 133.184 389.362 133.184ZM398.04 134.128C399.96 134.128 401.208 133.152 401.208 131.696C401.208 130.128 399.832 129.68 398.216 129.36C396.952 129.088 396.008 128.928 396.008 128.064C396.008 127.344 396.728 126.912 397.784 126.912C398.856 126.912 399.576 127.392 399.88 128.224L400.984 127.984C400.584 126.752 399.56 125.968 397.784 125.968C396.024 125.968 394.856 126.848 394.856 128.144C394.856 129.696 396.216 130.112 397.832 130.416C399 130.672 400.056 130.864 400.056 131.808C400.056 132.64 399.288 133.2 398.04 133.2C396.68 133.2 395.8 132.576 395.544 131.648L394.424 131.872C394.808 133.312 396.04 134.128 398.04 134.128ZM403.384 136L404.552 133.824V132.224H402.824V134H403.496L402.536 136H403.384ZM413.04 134.128C414.96 134.128 416.208 133.152 416.208 131.696C416.208 130.128 414.832 129.68 413.216 129.36C411.952 129.088 411.008 128.928 411.008 128.064C411.008 127.344 411.728 126.912 412.784 126.912C413.856 126.912 414.576 127.392 414.88 128.224L415.984 127.984C415.584 126.752 414.56 125.968 412.784 125.968C411.024 125.968 409.856 126.848 409.856 128.144C409.856 129.696 411.216 130.112 412.832 130.416C414 130.672 415.056 130.864 415.056 131.808C415.056 132.64 414.288 133.2 413.04 133.2C411.68 133.2 410.8 132.576 410.544 131.648L409.424 131.872C409.808 133.312 411.04 134.128 413.04 134.128ZM420.288 134.128C421.344 134.128 422.304 133.664 422.928 132.656V134H424.08V126.112H422.848V131.712C422.32 132.672 421.552 133.184 420.672 133.184C419.568 133.184 419.104 132.688 419.104 131.44V126.112H417.856V131.408C417.856 133.392 418.864 134.128 420.288 134.128ZM428.962 134.128C430.882 134.128 432.13 133.152 432.13 131.696C432.13 130.128 430.754 129.68 429.138 129.36C427.874 129.088 426.93 128.928 426.93 128.064C426.93 127.344 427.65 126.912 428.706 126.912C429.778 126.912 430.498 127.392 430.802 128.224L431.906 127.984C431.506 126.752 430.482 125.968 428.706 125.968C426.946 125.968 425.778 126.848 425.778 128.144C425.778 129.696 427.138 130.112 428.754 130.416C429.922 130.672 430.978 130.864 430.978 131.808C430.978 132.64 430.21 133.2 428.962 133.2C427.602 133.2 426.722 132.576 426.466 131.648L425.346 131.872C425.73 133.312 426.962 134.128 428.962 134.128ZM436.593 134.128C438.161 134.128 439.329 133.216 439.601 131.44L438.513 131.328C438.273 132.64 437.665 133.2 436.625 133.2C435.441 133.2 434.513 132.224 434.513 130.048C434.513 128.08 435.281 126.96 436.545 126.96C437.633 126.96 438.257 127.664 438.449 128.96L439.617 128.816C439.265 126.88 438.209 125.968 436.529 125.968C434.529 125.968 433.201 127.728 433.201 130.016C433.201 132.656 434.657 134.128 436.593 134.128ZM442.591 124.72V123.312H441.231V124.72H442.591ZM442.543 134V126.112H441.295V134H442.543ZM448.662 134.112C450.246 134.112 451.67 132.72 451.67 130.048C451.67 127.2 450.454 125.968 448.694 125.968C447.43 125.968 446.63 126.736 446.15 127.504V126.112H444.966V136.672H446.198V132.96C446.678 133.536 447.51 134.112 448.662 134.112ZM448.326 133.2C447.19 133.2 446.614 132.496 446.198 131.904V128.576C446.758 127.472 447.494 126.992 448.406 126.992C449.766 126.992 450.374 127.968 450.374 130.08C450.374 132.352 449.574 133.2 448.326 133.2ZM454.809 124.72V123.312H453.449V124.72H454.809ZM454.761 134V126.112H453.513V134H454.761ZM459.392 134.112C459.824 134.112 460.304 134.064 460.736 133.984V133.008C460.448 133.056 459.984 133.104 459.616 133.104C458.944 133.088 458.512 132.72 458.512 131.888V127.104H460.288V126.112H458.512V124.048H457.376L457.312 126.112H456.016V127.104H457.296V131.824C457.296 133.456 458.064 134.112 459.392 134.112ZM462.743 136L463.911 133.824V132.224H462.183V134H462.855L461.895 136H462.743ZM472.319 134.128C473.471 134.128 474.271 133.664 474.895 132.8V134H476.063V123.328H474.863V127.184C474.495 126.656 473.743 125.968 472.543 125.968C470.527 125.968 469.311 127.744 469.311 130.08C469.311 132.656 470.415 134.128 472.319 134.128ZM472.655 133.184C471.343 133.184 470.607 132.272 470.607 130.08C470.607 128.064 471.311 126.944 472.735 126.944C473.903 126.944 474.447 127.616 474.847 128.368V131.584C474.511 132.464 473.839 133.184 472.655 133.184ZM481.521 134.128C483.089 134.128 484.305 133.312 484.849 131.792L483.761 131.632C483.313 132.8 482.497 133.184 481.633 133.184C480.097 133.184 479.201 132.176 479.169 130.192H484.993C484.977 130.016 484.993 129.84 484.977 129.664C484.817 127.472 483.617 125.968 481.553 125.968C479.521 125.968 477.905 127.52 477.905 130.192C477.905 132.544 479.361 134.128 481.521 134.128ZM479.217 129.344C479.313 127.856 480.289 126.912 481.553 126.912C482.817 126.912 483.601 127.824 483.729 129.344H479.217ZM490.191 134.112C491.983 134.112 493.279 132.752 493.279 130.032C493.279 127.392 492.175 125.968 490.287 125.968C489.151 125.968 488.143 126.752 487.743 127.616V123.328H486.559V134H487.247L487.647 132.688C488.159 133.584 489.007 134.112 490.191 134.112ZM489.951 133.216C488.687 133.216 487.759 132.272 487.759 130.624V128.72C488.191 127.808 488.847 126.96 489.999 126.96C491.327 126.96 491.999 128 491.999 130.064C491.999 132.272 491.295 133.216 489.951 133.216ZM496.419 124.72V123.312H495.059V124.72H496.419ZM496.371 134V126.112H495.123V134H496.371ZM501.002 134.112C501.434 134.112 501.914 134.064 502.346 133.984V133.008C502.058 133.056 501.594 133.104 501.226 133.104C500.554 133.088 500.122 132.72 500.122 131.888V127.104H501.898V126.112H500.122V124.048H498.986L498.922 126.112H497.626V127.104H498.906V131.824C498.906 133.456 499.674 134.112 501.002 134.112ZM505.044 124.72V123.312H503.684V124.72H505.044ZM504.996 134V126.112H503.748V134H504.996ZM509.915 134.128C511.835 134.128 513.083 133.152 513.083 131.696C513.083 130.128 511.707 129.68 510.091 129.36C508.827 129.088 507.883 128.928 507.883 128.064C507.883 127.344 508.603 126.912 509.659 126.912C510.731 126.912 511.451 127.392 511.755 128.224L512.859 127.984C512.459 126.752 511.435 125.968 509.659 125.968C507.899 125.968 506.731 126.848 506.731 128.144C506.731 129.696 508.091 130.112 509.707 130.416C510.875 130.672 511.931 130.864 511.931 131.808C511.931 132.64 511.163 133.2 509.915 133.2C508.555 133.2 507.675 132.576 507.419 131.648L506.299 131.872C506.683 133.312 507.915 134.128 509.915 134.128ZM520.946 134.128C522.866 134.128 524.114 133.152 524.114 131.696C524.114 130.128 522.738 129.68 521.122 129.36C519.858 129.088 518.914 128.928 518.914 128.064C518.914 127.344 519.634 126.912 520.69 126.912C521.762 126.912 522.482 127.392 522.786 128.224L523.89 127.984C523.49 126.752 522.466 125.968 520.69 125.968C518.93 125.968 517.762 126.848 517.762 128.144C517.762 129.696 519.122 130.112 520.738 130.416C521.906 130.672 522.962 130.864 522.962 131.808C522.962 132.64 522.194 133.2 520.946 133.2C519.586 133.2 518.706 132.576 518.45 131.648L517.33 131.872C517.714 133.312 518.946 134.128 520.946 134.128ZM528.194 134.128C529.25 134.128 530.21 133.664 530.834 132.656V134H531.986V126.112H530.754V131.712C530.226 132.672 529.458 133.184 528.578 133.184C527.474 133.184 527.01 132.688 527.01 131.44V126.112H525.762V131.408C525.762 133.392 526.77 134.128 528.194 134.128ZM535.62 134V128.592C536.276 127.648 537.108 127.008 538.116 127.008C539.012 127.008 539.428 127.456 539.428 128.4V134H540.676V128.416C540.676 126.8 539.956 125.968 538.484 125.968C537.076 125.968 536.1 126.896 535.556 127.68V126.112H534.372V134H535.62ZM545.252 134.112C545.684 134.112 546.164 134.064 546.596 133.984V133.008C546.308 133.056 545.844 133.104 545.476 133.104C544.804 133.088 544.372 132.72 544.372 131.888V127.104H546.148V126.112H544.372V124.048H543.236L543.172 126.112H541.876V127.104H543.156V131.824C543.156 133.456 543.924 134.112 545.252 134.112ZM555.349 134.112C556.933 134.112 558.357 132.72 558.357 130.048C558.357 127.2 557.141 125.968 555.381 125.968C554.117 125.968 553.317 126.736 552.837 127.504V126.112H551.653V136.672H552.885V132.96C553.365 133.536 554.197 134.112 555.349 134.112ZM555.013 133.2C553.877 133.2 553.301 132.496 552.885 131.904V128.576C553.445 127.472 554.181 126.992 555.093 126.992C556.453 126.992 557.061 127.968 557.061 130.08C557.061 132.352 556.261 133.2 555.013 133.2ZM562.057 134.096C563.529 134.096 564.457 133.536 565.081 132.672C565.065 133.072 565.129 133.728 565.225 134H566.409C566.281 133.504 566.233 132.96 566.233 132.464V128.88C566.233 126.896 565.369 125.968 563.129 125.968C561.257 125.968 560.025 126.736 559.737 128.176L560.889 128.304C561.145 127.296 561.817 126.944 563.097 126.944C564.425 126.944 564.937 127.408 565.033 128.272C565.065 128.464 565.065 128.736 565.065 129.008C564.441 129.024 563.913 129.024 563.273 129.104C561.113 129.36 559.545 130.208 559.545 131.92C559.545 133.36 560.665 134.096 562.057 134.096ZM562.425 133.184C561.369 133.184 560.841 132.704 560.841 131.792C560.841 130.8 561.721 130.112 563.433 129.888C563.929 129.824 564.505 129.824 565.065 129.824V131.456C564.729 132.272 563.929 133.184 562.425 133.184ZM569.854 134V128.848C570.51 127.744 571.438 127.104 572.366 127.104C572.462 127.104 572.622 127.104 572.718 127.12V125.984C572.59 125.968 572.494 125.968 572.35 125.968C571.23 125.968 570.302 126.88 569.79 127.808V126.112H568.606V134H569.854ZM575.294 124.72V123.312H573.934V124.72H575.294ZM575.246 134V126.112H573.998V134H575.246ZM579.557 134.096C581.029 134.096 581.957 133.536 582.581 132.672C582.565 133.072 582.629 133.728 582.725 134H583.909C583.781 133.504 583.733 132.96 583.733 132.464V128.88C583.733 126.896 582.869 125.968 580.629 125.968C578.757 125.968 577.525 126.736 577.237 128.176L578.389 128.304C578.645 127.296 579.317 126.944 580.597 126.944C581.925 126.944 582.437 127.408 582.533 128.272C582.565 128.464 582.565 128.736 582.565 129.008C581.941 129.024 581.413 129.024 580.773 129.104C578.613 129.36 577.045 130.208 577.045 131.92C577.045 133.36 578.165 134.096 579.557 134.096ZM579.925 133.184C578.869 133.184 578.341 132.704 578.341 131.792C578.341 130.8 579.221 130.112 580.933 129.888C581.429 129.824 582.005 129.824 582.565 129.824V131.456C582.229 132.272 581.429 133.184 579.925 133.184ZM588.314 134.112C588.746 134.112 589.226 134.064 589.658 133.984V133.008C589.37 133.056 588.906 133.104 588.538 133.104C587.866 133.088 587.434 132.72 587.434 131.888V127.104H589.21V126.112H587.434V124.048H586.298L586.234 126.112H584.938V127.104H586.218V131.824C586.218 133.456 586.986 134.112 588.314 134.112ZM593.428 134.128C594.484 134.128 595.444 133.664 596.068 132.656V134H597.22V126.112H595.988V131.712C595.46 132.672 594.692 133.184 593.812 133.184C592.708 133.184 592.244 132.688 592.244 131.44V126.112H590.996V131.408C590.996 133.392 592.004 134.128 593.428 134.128ZM600.854 134V128.848C601.51 127.744 602.438 127.104 603.366 127.104C603.462 127.104 603.622 127.104 603.718 127.12V125.984C603.59 125.968 603.494 125.968 603.35 125.968C602.23 125.968 601.302 126.88 600.79 127.808V126.112H599.606V134H600.854ZM56.616 154.128C57.768 154.128 58.568 153.664 59.192 152.8V154H60.36V143.328H59.16V147.184C58.792 146.656 58.04 145.968 56.84 145.968C54.824 145.968 53.608 147.744 53.608 150.08C53.608 152.656 54.712 154.128 56.616 154.128ZM56.952 153.184C55.64 153.184 54.904 152.272 54.904 150.08C54.904 148.064 55.608 146.944 57.032 146.944C58.2 146.944 58.744 147.616 59.144 148.368V151.584C58.808 152.464 58.136 153.184 56.952 153.184ZM65.8177 154.128C67.3858 154.128 68.6018 153.312 69.1458 151.792L68.0578 151.632C67.6098 152.8 66.7938 153.184 65.9298 153.184C64.3938 153.184 63.4978 152.176 63.4658 150.192H69.2898C69.2738 150.016 69.2898 149.84 69.2738 149.664C69.1138 147.472 67.9138 145.968 65.8498 145.968C63.8178 145.968 62.2018 147.52 62.2018 150.192C62.2018 152.544 63.6578 154.128 65.8177 154.128ZM63.5138 149.344C63.6098 147.856 64.5858 146.912 65.8498 146.912C67.1138 146.912 67.8978 147.824 68.0258 149.344H63.5138ZM72.2925 154V143.328H71.0445V154H72.2925ZM77.7396 154.128C79.3076 154.128 80.5236 153.312 81.0676 151.792L79.9796 151.632C79.5316 152.8 78.7156 153.184 77.8516 153.184C76.3156 153.184 75.4196 152.176 75.3876 150.192H81.2116C81.1956 150.016 81.2116 149.84 81.1956 149.664C81.0356 147.472 79.8356 145.968 77.7716 145.968C75.7396 145.968 74.1236 147.52 74.1236 150.192C74.1236 152.544 75.5796 154.128 77.7396 154.128ZM75.4356 149.344C75.5316 147.856 76.5076 146.912 77.7716 146.912C79.0356 146.912 79.8196 147.824 79.9476 149.344H75.4356ZM85.7184 154.128C87.2864 154.128 88.4544 153.216 88.7264 151.44L87.6384 151.328C87.3984 152.64 86.7904 153.2 85.7504 153.2C84.5664 153.2 83.6384 152.224 83.6384 150.048C83.6384 148.08 84.4064 146.96 85.6704 146.96C86.7584 146.96 87.3824 147.664 87.5744 148.96L88.7424 148.816C88.3904 146.88 87.3344 145.968 85.6544 145.968C83.6544 145.968 82.3264 147.728 82.3264 150.016C82.3264 152.656 83.7824 154.128 85.7184 154.128ZM92.5955 154.112C93.0275 154.112 93.5075 154.064 93.9395 153.984V153.008C93.6515 153.056 93.1875 153.104 92.8195 153.104C92.1475 153.088 91.7155 152.72 91.7155 151.888V147.104H93.4915V146.112H91.7155V144.048H90.5795L90.5155 146.112H89.2195V147.104H90.4995V151.824C90.4995 153.456 91.2675 154.112 92.5955 154.112ZM97.7094 154.128C98.7654 154.128 99.7254 153.664 100.349 152.656V154H101.501V146.112H100.269V151.712C99.7414 152.672 98.9734 153.184 98.0934 153.184C96.9894 153.184 96.5254 152.688 96.5254 151.44V146.112H95.2774V151.408C95.2774 153.392 96.2854 154.128 97.7094 154.128ZM106.384 154.128C108.304 154.128 109.552 153.152 109.552 151.696C109.552 150.128 108.176 149.68 106.56 149.36C105.296 149.088 104.352 148.928 104.352 148.064C104.352 147.344 105.072 146.912 106.128 146.912C107.2 146.912 107.92 147.392 108.224 148.224L109.328 147.984C108.928 146.752 107.904 145.968 106.128 145.968C104.368 145.968 103.2 146.848 103.2 148.144C103.2 149.696 104.56 150.112 106.176 150.416C107.344 150.672 108.4 150.864 108.4 151.808C108.4 152.64 107.632 153.2 106.384 153.2C105.024 153.2 104.144 152.576 103.888 151.648L102.768 151.872C103.152 153.312 104.384 154.128 106.384 154.128ZM116.807 154.096C118.279 154.096 119.207 153.536 119.831 152.672C119.815 153.072 119.879 153.728 119.975 154H121.159C121.031 153.504 120.983 152.96 120.983 152.464V148.88C120.983 146.896 120.119 145.968 117.879 145.968C116.007 145.968 114.775 146.736 114.487 148.176L115.639 148.304C115.895 147.296 116.567 146.944 117.847 146.944C119.175 146.944 119.687 147.408 119.783 148.272C119.815 148.464 119.815 148.736 119.815 149.008C119.191 149.024 118.663 149.024 118.023 149.104C115.863 149.36 114.295 150.208 114.295 151.92C114.295 153.36 115.415 154.096 116.807 154.096ZM117.175 153.184C116.119 153.184 115.591 152.704 115.591 151.792C115.591 150.8 116.471 150.112 118.183 149.888C118.679 149.824 119.255 149.824 119.815 149.824V151.456C119.479 152.272 118.679 153.184 117.175 153.184ZM125.772 154.128C126.924 154.128 127.724 153.664 128.348 152.8V154H129.516V143.328H128.316V147.184C127.948 146.656 127.196 145.968 125.996 145.968C123.98 145.968 122.764 147.744 122.764 150.08C122.764 152.656 123.868 154.128 125.772 154.128ZM126.108 153.184C124.796 153.184 124.06 152.272 124.06 150.08C124.06 148.064 124.764 146.944 126.188 146.944C127.356 146.944 127.9 147.616 128.3 148.368V151.584C127.964 152.464 127.292 153.184 126.108 153.184ZM133.278 144.72V143.312H131.918V144.72H133.278ZM133.23 154V146.112H131.982V154H133.23ZM139.349 154.112C140.933 154.112 142.357 152.72 142.357 150.048C142.357 147.2 141.141 145.968 139.381 145.968C138.117 145.968 137.317 146.736 136.837 147.504V146.112H135.653V156.672H136.885V152.96C137.365 153.536 138.197 154.112 139.349 154.112ZM139.013 153.2C137.877 153.2 137.301 152.496 136.885 151.904V148.576C137.445 147.472 138.181 146.992 139.093 146.992C140.453 146.992 141.061 147.968 141.061 150.08C141.061 152.352 140.261 153.2 139.013 153.2ZM145.497 144.72V143.312H144.137V144.72H145.497ZM145.449 154V146.112H144.201V154H145.449ZM150.368 154.128C152.288 154.128 153.536 153.152 153.536 151.696C153.536 150.128 152.16 149.68 150.544 149.36C149.28 149.088 148.336 148.928 148.336 148.064C148.336 147.344 149.056 146.912 150.112 146.912C151.184 146.912 151.904 147.392 152.208 148.224L153.312 147.984C152.912 146.752 151.888 145.968 150.112 145.968C148.352 145.968 147.184 146.848 147.184 148.144C147.184 149.696 148.544 150.112 150.16 150.416C151.328 150.672 152.384 150.864 152.384 151.808C152.384 152.64 151.616 153.2 150.368 153.2C149.008 153.2 148.128 152.576 147.872 151.648L146.752 151.872C147.136 153.312 148.368 154.128 150.368 154.128ZM158 154.128C159.568 154.128 160.736 153.216 161.008 151.44L159.92 151.328C159.68 152.64 159.072 153.2 158.032 153.2C156.848 153.2 155.92 152.224 155.92 150.048C155.92 148.08 156.688 146.96 157.952 146.96C159.04 146.96 159.664 147.664 159.856 148.96L161.024 148.816C160.672 146.88 159.616 145.968 157.936 145.968C155.936 145.968 154.608 147.728 154.608 150.016C154.608 152.656 156.064 154.128 158 154.128ZM163.997 144.72V143.312H162.637V144.72H163.997ZM163.949 154V146.112H162.701V154H163.949ZM166.868 156L168.036 153.824V152.224H166.308V154H166.98L166.02 156H166.868ZM177.724 154.112C179.308 154.112 180.732 152.72 180.732 150.048C180.732 147.2 179.516 145.968 177.756 145.968C176.492 145.968 175.692 146.736 175.212 147.504V146.112H174.028V156.672H175.26V152.96C175.74 153.536 176.572 154.112 177.724 154.112ZM177.388 153.2C176.252 153.2 175.676 152.496 175.26 151.904V148.576C175.82 147.472 176.556 146.992 177.468 146.992C178.828 146.992 179.436 147.968 179.436 150.08C179.436 152.352 178.636 153.2 177.388 153.2ZM183.824 154V143.328H182.576V154H183.824ZM188.135 154.096C189.607 154.096 190.535 153.536 191.159 152.672C191.143 153.072 191.207 153.728 191.303 154H192.487C192.359 153.504 192.311 152.96 192.311 152.464V148.88C192.311 146.896 191.447 145.968 189.207 145.968C187.335 145.968 186.103 146.736 185.815 148.176L186.967 148.304C187.223 147.296 187.895 146.944 189.175 146.944C190.503 146.944 191.015 147.408 191.111 148.272C191.143 148.464 191.143 148.736 191.143 149.008C190.519 149.024 189.991 149.024 189.351 149.104C187.191 149.36 185.623 150.208 185.623 151.92C185.623 153.36 186.743 154.096 188.135 154.096ZM188.503 153.184C187.447 153.184 186.919 152.704 186.919 151.792C186.919 150.8 187.799 150.112 189.511 149.888C190.007 149.824 190.583 149.824 191.143 149.824V151.456C190.807 152.272 190.007 153.184 188.503 153.184ZM197.468 154.128C199.036 154.128 200.204 153.216 200.476 151.44L199.388 151.328C199.148 152.64 198.54 153.2 197.5 153.2C196.316 153.2 195.388 152.224 195.388 150.048C195.388 148.08 196.156 146.96 197.42 146.96C198.508 146.96 199.132 147.664 199.324 148.96L200.492 148.816C200.14 146.88 199.084 145.968 197.404 145.968C195.404 145.968 194.076 147.728 194.076 150.016C194.076 152.656 195.532 154.128 197.468 154.128ZM205.161 154.128C206.73 154.128 207.946 153.312 208.49 151.792L207.402 151.632C206.954 152.8 206.138 153.184 205.274 153.184C203.738 153.184 202.842 152.176 202.81 150.192H208.634C208.618 150.016 208.634 149.84 208.618 149.664C208.458 147.472 207.258 145.968 205.194 145.968C203.162 145.968 201.546 147.52 201.546 150.192C201.546 152.544 203.002 154.128 205.161 154.128ZM202.858 149.344C202.954 147.856 203.93 146.912 205.194 146.912C206.458 146.912 207.242 147.824 207.37 149.344H202.858ZM212.244 154.096C213.716 154.096 214.644 153.536 215.268 152.672C215.252 153.072 215.316 153.728 215.412 154H216.596C216.468 153.504 216.42 152.96 216.42 152.464V148.88C216.42 146.896 215.556 145.968 213.316 145.968C211.444 145.968 210.212 146.736 209.924 148.176L211.076 148.304C211.332 147.296 212.004 146.944 213.284 146.944C214.612 146.944 215.124 147.408 215.22 148.272C215.252 148.464 215.252 148.736 215.252 149.008C214.628 149.024 214.1 149.024 213.46 149.104C211.3 149.36 209.732 150.208 209.732 151.92C209.732 153.36 210.852 154.096 212.244 154.096ZM212.612 153.184C211.556 153.184 211.028 152.704 211.028 151.792C211.028 150.8 211.908 150.112 213.62 149.888C214.116 149.824 214.692 149.824 215.252 149.824V151.456C214.916 152.272 214.116 153.184 212.612 153.184ZM221.002 154.112C221.434 154.112 221.914 154.064 222.346 153.984V153.008C222.058 153.056 221.594 153.104 221.226 153.104C220.554 153.088 220.122 152.72 220.122 151.888V147.104H221.898V146.112H220.122V144.048H218.986L218.922 146.112H217.626V147.104H218.906V151.824C218.906 153.456 219.674 154.112 221.002 154.112ZM228.731 144.72V143.312H227.371V144.72H228.731ZM228.683 154V146.112H227.435V154H228.683ZM234.802 154.112C236.386 154.112 237.81 152.72 237.81 150.048C237.81 147.2 236.594 145.968 234.834 145.968C233.57 145.968 232.77 146.736 232.29 147.504V146.112H231.106V156.672H232.338V152.96C232.818 153.536 233.65 154.112 234.802 154.112ZM234.466 153.2C233.33 153.2 232.754 152.496 232.338 151.904V148.576C232.898 147.472 233.634 146.992 234.546 146.992C235.906 146.992 236.514 147.968 236.514 150.08C236.514 152.352 235.714 153.2 234.466 153.2ZM242.118 154.128C244.038 154.128 245.286 153.152 245.286 151.696C245.286 150.128 243.91 149.68 242.294 149.36C241.03 149.088 240.086 148.928 240.086 148.064C240.086 147.344 240.806 146.912 241.862 146.912C242.934 146.912 243.654 147.392 243.958 148.224L245.062 147.984C244.662 146.752 243.638 145.968 241.862 145.968C240.102 145.968 238.934 146.848 238.934 148.144C238.934 149.696 240.294 150.112 241.91 150.416C243.078 150.672 244.134 150.864 244.134 151.808C244.134 152.64 243.366 153.2 242.118 153.2C240.758 153.2 239.878 152.576 239.622 151.648L238.502 151.872C238.886 153.312 240.118 154.128 242.118 154.128ZM249.366 154.128C250.422 154.128 251.382 153.664 252.006 152.656V154H253.158V146.112H251.926V151.712C251.398 152.672 250.63 153.184 249.75 153.184C248.646 153.184 248.182 152.688 248.182 151.44V146.112H246.934V151.408C246.934 153.392 247.942 154.128 249.366 154.128ZM256.776 154V148.592C257.496 147.584 258.152 146.992 259.064 146.992C259.832 146.992 260.232 147.52 260.232 148.464V154H261.448V148.608C261.944 147.824 262.76 147.024 263.736 147.024C264.504 147.024 264.936 147.456 264.936 148.48V154H266.168V148.4C266.168 147.76 266.008 147.248 265.768 146.88C265.448 146.288 264.904 145.984 264.088 145.984C262.84 145.984 261.912 146.88 261.368 147.744C261.272 146.624 260.536 145.968 259.384 145.968C258.248 145.968 257.208 146.912 256.744 147.696V146.112H255.544V154H256.776ZM273.448 154V148.592C274.104 147.648 274.936 147.008 275.944 147.008C276.84 147.008 277.256 147.456 277.256 148.4V154H278.504V148.416C278.504 146.8 277.784 145.968 276.312 145.968C274.904 145.968 273.928 146.896 273.384 147.68V146.112H272.2V154H273.448ZM283.8 154.128C285.752 154.128 287.368 152.512 287.368 150.032C287.368 147.6 285.96 145.968 283.8 145.968C281.864 145.968 280.264 147.552 280.264 150.016C280.264 152.512 281.768 154.128 283.8 154.128ZM283.784 153.2C282.456 153.2 281.576 152.016 281.576 150.032C281.576 148 282.536 146.944 283.784 146.944C285.096 146.944 286.056 147.968 286.056 150.016C286.056 152.144 285.08 153.2 283.784 153.2ZM290.401 154V148.592C291.057 147.648 291.889 147.008 292.897 147.008C293.793 147.008 294.209 147.456 294.209 148.4V154H295.457V148.416C295.457 146.8 294.737 145.968 293.265 145.968C291.857 145.968 290.881 146.896 290.337 147.68V146.112H289.153V154H290.401ZM302.793 154V143.328H301.545V154H302.793ZM307.104 154.096C308.576 154.096 309.504 153.536 310.128 152.672C310.112 153.072 310.176 153.728 310.272 154H311.456C311.328 153.504 311.28 152.96 311.28 152.464V148.88C311.28 146.896 310.416 145.968 308.176 145.968C306.304 145.968 305.072 146.736 304.784 148.176L305.936 148.304C306.192 147.296 306.864 146.944 308.144 146.944C309.472 146.944 309.984 147.408 310.08 148.272C310.112 148.464 310.112 148.736 310.112 149.008C309.488 149.024 308.96 149.024 308.32 149.104C306.16 149.36 304.592 150.208 304.592 151.92C304.592 153.36 305.712 154.096 307.104 154.096ZM307.472 153.184C306.416 153.184 305.888 152.704 305.888 151.792C305.888 150.8 306.768 150.112 308.48 149.888C308.976 149.824 309.552 149.824 310.112 149.824V151.456C309.776 152.272 308.976 153.184 307.472 153.184ZM317.285 154.112C319.077 154.112 320.373 152.752 320.373 150.032C320.373 147.392 319.269 145.968 317.381 145.968C316.245 145.968 315.237 146.752 314.837 147.616V143.328H313.653V154H314.341L314.741 152.688C315.253 153.584 316.101 154.112 317.285 154.112ZM317.045 153.216C315.781 153.216 314.853 152.272 314.853 150.624V148.72C315.285 147.808 315.941 146.96 317.093 146.96C318.421 146.96 319.093 148 319.093 150.064C319.093 152.272 318.389 153.216 317.045 153.216ZM325.112 154.128C327.064 154.128 328.68 152.512 328.68 150.032C328.68 147.6 327.272 145.968 325.112 145.968C323.176 145.968 321.576 147.552 321.576 150.016C321.576 152.512 323.08 154.128 325.112 154.128ZM325.096 153.2C323.768 153.2 322.888 152.016 322.888 150.032C322.888 148 323.848 146.944 325.096 146.944C326.408 146.944 327.368 147.968 327.368 150.016C327.368 152.144 326.392 153.2 325.096 153.2ZM331.714 154V148.848C332.37 147.744 333.298 147.104 334.226 147.104C334.322 147.104 334.482 147.104 334.578 147.12V145.984C334.45 145.968 334.354 145.968 334.21 145.968C333.09 145.968 332.162 146.88 331.65 147.808V146.112H330.466V154H331.714ZM337.153 144.72V143.312H335.793V144.72H337.153ZM337.105 154V146.112H335.857V154H337.105ZM342.456 154.128C344.408 154.128 346.024 152.512 346.024 150.032C346.024 147.6 344.616 145.968 342.456 145.968C340.52 145.968 338.92 147.552 338.92 150.016C338.92 152.512 340.424 154.128 342.456 154.128ZM342.44 153.2C341.112 153.2 340.232 152.016 340.232 150.032C340.232 148 341.192 146.944 342.44 146.944C343.752 146.944 344.712 147.968 344.712 150.016C344.712 152.144 343.736 153.2 342.44 153.2ZM350.305 154.128C352.225 154.128 353.473 153.152 353.473 151.696C353.473 150.128 352.097 149.68 350.481 149.36C349.217 149.088 348.273 148.928 348.273 148.064C348.273 147.344 348.993 146.912 350.049 146.912C351.121 146.912 351.841 147.392 352.145 148.224L353.249 147.984C352.849 146.752 351.825 145.968 350.049 145.968C348.289 145.968 347.121 146.848 347.121 148.144C347.121 149.696 348.481 150.112 350.097 150.416C351.265 150.672 352.321 150.864 352.321 151.808C352.321 152.64 351.553 153.2 350.305 153.2C348.945 153.2 348.065 152.576 347.809 151.648L346.689 151.872C347.073 153.312 348.305 154.128 350.305 154.128ZM357.041 154.096C358.513 154.096 359.441 153.536 360.065 152.672C360.049 153.072 360.113 153.728 360.209 154H361.393C361.265 153.504 361.217 152.96 361.217 152.464V148.88C361.217 146.896 360.353 145.968 358.113 145.968C356.241 145.968 355.009 146.736 354.721 148.176L355.873 148.304C356.129 147.296 356.801 146.944 358.081 146.944C359.409 146.944 359.921 147.408 360.017 148.272C360.049 148.464 360.049 148.736 360.049 149.008C359.425 149.024 358.897 149.024 358.257 149.104C356.097 149.36 354.529 150.208 354.529 151.92C354.529 153.36 355.649 154.096 357.041 154.096ZM357.409 153.184C356.353 153.184 355.825 152.704 355.825 151.792C355.825 150.8 356.705 150.112 358.417 149.888C358.913 149.824 359.489 149.824 360.049 149.824V151.456C359.713 152.272 358.913 153.184 357.409 153.184ZM364.823 154V148.592C365.543 147.584 366.199 146.992 367.111 146.992C367.879 146.992 368.279 147.52 368.279 148.464V154H369.495V148.608C369.991 147.824 370.807 147.024 371.783 147.024C372.551 147.024 372.983 147.456 372.983 148.48V154H374.215V148.4C374.215 147.76 374.055 147.248 373.815 146.88C373.495 146.288 372.951 145.984 372.135 145.984C370.887 145.984 369.959 146.88 369.415 147.744C369.319 146.624 368.583 145.968 367.431 145.968C366.295 145.968 365.255 146.912 364.791 147.696V146.112H363.591V154H364.823ZM377.807 151.344L378.415 143.328H376.575L377.151 151.344H377.807ZM378.319 154V152.352H376.687V154H378.319Z" fill="black"/>
<path d="M20.5 42V174" stroke="#1745E8"/>
<rect y="100.5" width="42" height="18" rx="3" fill="#1745E8"/>
<path d="M8.11648 110.347C8.12003 109.643 8.54972 109.232 9.16761 109.232C9.78196 109.232 10.1442 109.626 10.1406 110.297V113.5H11.6534V110.027C11.657 108.749 10.9041 107.974 9.76776 107.974C8.94034 107.974 8.38636 108.365 8.13778 109.008H8.07386V106.227H6.60369V113.5H8.11648V110.347ZM16.2424 109.913H12.9256V111.114H16.2424V109.913ZM20.6813 106.227H19.236L17.4355 107.367V108.731L19.101 107.687H19.1436V113.5H20.6813V106.227ZM25.2614 113.66C27.0902 113.66 28.1946 112.268 28.1982 109.871C28.2017 107.491 27.0831 106.128 25.2614 106.128C23.4361 106.128 22.3281 107.488 22.3246 109.871C22.3175 112.261 23.429 113.656 25.2614 113.66ZM25.2614 112.385C24.4268 112.385 23.8871 111.547 23.8906 109.871C23.8942 108.219 24.4304 107.388 25.2614 107.388C26.0888 107.388 26.6286 108.219 26.6286 109.871C26.6321 111.547 26.0923 112.385 25.2614 112.385ZM32.1461 113.66C33.975 113.66 35.0794 112.268 35.0829 109.871C35.0865 107.491 33.9679 106.128 32.1461 106.128C30.3208 106.128 29.2129 107.488 29.2093 109.871C29.2022 112.261 30.3137 113.656 32.1461 113.66ZM32.1461 112.385C31.3116 112.385 30.7718 111.547 30.7754 109.871C30.7789 108.219 31.3152 107.388 32.1461 107.388C32.9735 107.388 33.5133 108.219 33.5133 109.871C33.5169 111.547 32.9771 112.385 32.1461 112.385Z" fill="white"/>
<line x1="17" y1="42.5" x2="24" y2="42.5" stroke="#1745E8"/>
<line x1="17" y1="173.5" x2="24" y2="173.5" stroke="#1745E8"/>
<path d="M53 9.5H653" stroke="#1745E8"/>
<rect x="330.5" width="44" height="18" rx="3" fill="#1745E8"/>
<path d="M338.18 13H339.778L340.715 9.5696H340.783L341.72 13H343.322L344.803 7.54545H343.276L342.445 11.1889H342.398L341.504 7.54545H340.001L339.121 11.2102H339.071L338.226 7.54545H336.695L338.18 13ZM349.008 9.41335H345.691V10.6136H349.008V9.41335ZM353.447 5.72727H352.002L350.201 6.86719V8.23082L351.867 7.18679H351.909V13H353.447V5.72727ZM358.027 13.1598C359.856 13.1598 360.96 11.7678 360.964 9.37074C360.967 6.99148 359.849 5.62784 358.027 5.62784C356.202 5.62784 355.094 6.98793 355.09 9.37074C355.083 11.7607 356.195 13.1562 358.027 13.1598ZM358.027 11.8849C357.192 11.8849 356.653 11.0469 356.656 9.37074C356.66 7.71946 357.196 6.88849 358.027 6.88849C358.854 6.88849 359.394 7.71946 359.394 9.37074C359.398 11.0469 358.858 11.8849 358.027 11.8849ZM364.912 13.1598C366.741 13.1598 367.845 11.7678 367.849 9.37074C367.852 6.99148 366.733 5.62784 364.912 5.62784C363.086 5.62784 361.979 6.98793 361.975 9.37074C361.968 11.7607 363.079 13.1562 364.912 13.1598ZM364.912 11.8849C364.077 11.8849 363.537 11.0469 363.541 9.37074C363.545 7.71946 364.081 6.88849 364.912 6.88849C365.739 6.88849 366.279 7.71946 366.279 9.37074C366.282 11.0469 365.743 11.8849 364.912 11.8849Z" fill="white"/>
<line x1="53.5" y1="13" x2="53.5" y2="6" stroke="#1745E8"/>
<line x1="652.5" y1="13" x2="652.5" y2="6" stroke="#1745E8"/>
<defs>
<clipPath id="clip0">
<rect width="600" height="56" fill="white" transform="translate(53 42)"/>
</clipPath>
</defs>
</svg>
