<svg width="600" height="133" viewBox="0 0 600 133" fill="none" xmlns="http://www.w3.org/2000/svg">
<g clip-path="url(#clip0)">
<rect width="600" height="1" fill="#D5D5D5"/>
<path d="M2.376 35L3.186 32.264H6.93L7.848 35H10.98L6.894 22.994H3.798L-0.126 35H2.376ZM4.95 26.216L6.264 30.212H3.762L4.95 26.216ZM15.7949 35.162C18.1169 35.162 19.5389 34.028 19.8089 31.994L17.3969 31.778C17.2349 32.786 16.8389 33.38 15.9569 33.38C14.9849 33.38 14.3909 32.516 14.3909 30.536C14.3909 28.718 14.9129 27.764 15.9209 27.764C16.8029 27.764 17.1809 28.466 17.3069 29.492L19.7909 29.258C19.4309 27.062 17.9909 25.91 15.8309 25.91C13.1309 25.91 11.4209 27.98 11.4209 30.518C11.4209 33.452 13.2209 35.162 15.7949 35.162ZM25.1113 35.162C27.4333 35.162 28.8553 34.028 29.1253 31.994L26.7133 31.778C26.5513 32.786 26.1553 33.38 25.2733 33.38C24.3013 33.38 23.7073 32.516 23.7073 30.536C23.7073 28.718 24.2293 27.764 25.2373 27.764C26.1193 27.764 26.4973 28.466 26.6233 29.492L29.1073 29.258C28.7473 27.062 27.3073 25.91 25.1473 25.91C22.4473 25.91 20.7373 27.98 20.7373 30.518C20.7373 33.452 22.5373 35.162 25.1113 35.162ZM34.5897 35.144C37.3797 35.144 39.2517 33.164 39.2517 30.554C39.2517 27.782 37.4157 25.91 34.6437 25.91C31.9977 25.91 30.0537 27.836 30.0537 30.608C30.0537 33.218 31.9257 35.144 34.5897 35.144ZM34.6797 33.344C33.5637 33.344 33.0237 32.462 33.0237 30.518C33.0237 28.628 33.5997 27.764 34.6617 27.764C35.7597 27.764 36.2637 28.646 36.2637 30.518C36.2637 32.48 35.7057 33.344 34.6797 33.344ZM43.7029 35V29.654C44.2069 28.7 45.1069 28.16 46.1689 28.16C46.4029 28.16 46.7989 28.178 46.9789 28.214V25.964C46.8349 25.928 46.6009 25.91 46.3309 25.91C45.0169 25.91 43.9549 26.882 43.5409 27.944V26.072H40.8769V35H43.7029ZM50.8182 35.162C52.1502 35.162 52.9062 34.676 53.6262 33.722V35H56.2902V22.994H53.5182V26.99C52.9962 26.378 52.2402 25.91 51.1782 25.91C49.0542 25.91 47.6322 27.656 47.6322 30.5C47.6322 33.65 48.8922 35.162 50.8182 35.162ZM51.9882 33.308C51.0882 33.308 50.5302 32.678 50.5302 30.518C50.5302 28.412 50.9982 27.692 52.0062 27.692C52.7982 27.692 53.2122 28.178 53.5182 28.628V32.228C53.2302 32.804 52.7802 33.308 51.9882 33.308ZM61.2634 25.118V22.76H58.4194V25.118H61.2634ZM61.2454 35V26.072H58.4374V35H61.2454ZM67.4256 35.144C70.2156 35.144 72.0876 33.164 72.0876 30.554C72.0876 27.782 70.2516 25.91 67.4796 25.91C64.8336 25.91 62.8896 27.836 62.8896 30.608C62.8896 33.218 64.7616 35.144 67.4256 35.144ZM67.5156 33.344C66.3996 33.344 65.8596 32.462 65.8596 30.518C65.8596 28.628 66.4356 27.764 67.4976 27.764C68.5956 27.764 69.0996 28.646 69.0996 30.518C69.0996 32.48 68.5416 33.344 67.5156 33.344ZM76.4848 35V28.88C76.8448 28.34 77.3308 27.836 78.0688 27.836C78.7528 27.836 79.0408 28.25 79.0408 28.808V35H81.8308V28.718C81.8308 27.008 81.0928 25.91 79.2568 25.91C77.7448 25.91 76.8988 26.81 76.3768 27.548V26.072H73.6948V35H76.4848ZM91.4798 35V28.952C91.8398 28.448 92.3438 27.872 93.0818 27.872C93.6938 27.872 94.0358 28.232 94.0358 28.916V35H96.8618V28.592C96.8618 27.116 96.0698 25.91 94.3418 25.91C92.9378 25.91 92.1278 26.54 91.4618 27.332V22.994H88.6718V35H91.4798ZM103.059 35.144C105.363 35.144 106.839 34.028 107.433 32.336L105.111 32.03C104.787 32.912 104.211 33.362 103.311 33.362C102.213 33.362 101.385 32.66 101.349 31.058H107.523C107.541 30.86 107.541 30.716 107.541 30.518C107.469 27.746 105.831 25.91 103.041 25.91C100.557 25.91 98.4326 27.782 98.4326 30.662C98.4326 33.38 100.377 35.144 103.059 35.144ZM101.385 29.6C101.457 28.376 102.177 27.656 103.077 27.656C104.121 27.656 104.643 28.394 104.733 29.6H101.385ZM111.257 35.108C112.841 35.108 113.777 34.64 114.551 33.848C114.551 34.352 114.587 34.82 114.695 35H117.359C117.197 34.658 117.161 33.776 117.161 33.254V29.132C117.161 27.206 116.297 25.91 113.291 25.91C110.663 25.91 109.169 26.828 108.737 28.61L111.293 28.844C111.473 28.088 111.977 27.728 113.021 27.728C113.993 27.728 114.407 28.16 114.461 28.862C114.461 28.934 114.479 29.204 114.479 29.294C114.101 29.312 113.741 29.348 113.399 29.384C110.285 29.69 108.503 30.68 108.503 32.66C108.503 34.172 109.601 35.108 111.257 35.108ZM112.517 33.38C111.815 33.38 111.383 33.074 111.383 32.408C111.383 31.562 112.157 31.04 113.525 30.806C113.813 30.752 114.137 30.716 114.479 30.698V32.264C114.101 32.84 113.435 33.38 112.517 33.38ZM121.957 35.162C123.289 35.162 124.045 34.676 124.765 33.722V35H127.429V22.994H124.657V26.99C124.135 26.378 123.379 25.91 122.317 25.91C120.193 25.91 118.771 27.656 118.771 30.5C118.771 33.65 120.031 35.162 121.957 35.162ZM123.127 33.308C122.227 33.308 121.669 32.678 121.669 30.518C121.669 28.412 122.137 27.692 123.145 27.692C123.937 27.692 124.351 28.178 124.657 28.628V32.228C124.369 32.804 123.919 33.308 123.127 33.308ZM133.662 35.144C135.966 35.144 137.442 34.028 138.036 32.336L135.714 32.03C135.39 32.912 134.814 33.362 133.914 33.362C132.816 33.362 131.988 32.66 131.952 31.058H138.126C138.144 30.86 138.144 30.716 138.144 30.518C138.072 27.746 136.434 25.91 133.644 25.91C131.16 25.91 129.036 27.782 129.036 30.662C129.036 33.38 130.98 35.144 133.662 35.144ZM131.988 29.6C132.06 28.376 132.78 27.656 133.68 27.656C134.724 27.656 135.246 28.394 135.336 29.6H131.988ZM142.545 35V29.654C143.049 28.7 143.949 28.16 145.011 28.16C145.245 28.16 145.641 28.178 145.821 28.214V25.964C145.677 25.928 145.443 25.91 145.173 25.91C143.859 25.91 142.797 26.882 142.383 27.944V26.072H139.719V35H142.545Z" fill="#111111"/>
<path d="M592 26.414L597.293 31.707L598.707 30.293L592.707 24.293C592.519 24.1056 592.265 24.0002 592 24.0002C591.735 24.0002 591.48 24.1056 591.293 24.293L585.293 30.293L586.707 31.707L592 26.414Z" fill="#111111"/>
</g>
<path d="M7.6 72V70.848H2.656V61.328H1.328V72H7.6ZM11.4718 72.128C13.4238 72.128 15.0398 70.512 15.0398 68.032C15.0398 65.6 13.6318 63.968 11.4718 63.968C9.53575 63.968 7.93575 65.552 7.93575 68.016C7.93575 70.512 9.43975 72.128 11.4718 72.128ZM11.4557 71.2C10.1278 71.2 9.24775 70.016 9.24775 68.032C9.24775 66 10.2078 64.944 11.4557 64.944C12.7678 64.944 13.7278 65.968 13.7278 68.016C13.7278 70.144 12.7518 71.2 11.4557 71.2ZM18.073 72V66.848C18.729 65.744 19.657 65.104 20.585 65.104C20.681 65.104 20.841 65.104 20.937 65.12V63.984C20.809 63.968 20.713 63.968 20.569 63.968C19.449 63.968 18.521 64.88 18.009 65.808V64.112H16.825V72H18.073ZM25.0521 72.128C26.6201 72.128 27.8361 71.312 28.3801 69.792L27.2921 69.632C26.8441 70.8 26.0281 71.184 25.1641 71.184C23.6281 71.184 22.7321 70.176 22.7001 68.192H28.5241C28.5081 68.016 28.5241 67.84 28.5081 67.664C28.3481 65.472 27.1481 63.968 25.0841 63.968C23.0521 63.968 21.4361 65.52 21.4361 68.192C21.4361 70.544 22.8921 72.128 25.0521 72.128ZM22.7481 67.344C22.8441 65.856 23.8201 64.912 25.0841 64.912C26.3481 64.912 27.1321 65.824 27.2601 67.344H22.7481ZM31.4789 72V66.592C32.1989 65.584 32.8549 64.992 33.7669 64.992C34.5349 64.992 34.9349 65.52 34.9349 66.464V72H36.1509V66.608C36.6469 65.824 37.4629 65.024 38.4389 65.024C39.2069 65.024 39.6389 65.456 39.6389 66.48V72H40.8709V66.4C40.8709 65.76 40.7109 65.248 40.4709 64.88C40.1509 64.288 39.6069 63.984 38.7909 63.984C37.5429 63.984 36.6149 64.88 36.0709 65.744C35.9749 64.624 35.2389 63.968 34.0869 63.968C32.9509 63.968 31.9109 64.912 31.4469 65.696V64.112H30.2469V72H31.4789ZM48.2311 62.72V61.312H46.8711V62.72H48.2311ZM48.1831 72V64.112H46.9351V72H48.1831ZM54.3023 72.112C55.8863 72.112 57.3103 70.72 57.3103 68.048C57.3103 65.2 56.0943 63.968 54.3343 63.968C53.0703 63.968 52.2703 64.736 51.7903 65.504V64.112H50.6063V74.672H51.8383V70.96C52.3183 71.536 53.1503 72.112 54.3023 72.112ZM53.9663 71.2C52.8303 71.2 52.2543 70.496 51.8383 69.904V66.576C52.3983 65.472 53.1343 64.992 54.0463 64.992C55.4063 64.992 56.0143 65.968 56.0143 68.08C56.0143 70.352 55.2143 71.2 53.9663 71.2ZM61.6179 72.128C63.5379 72.128 64.7859 71.152 64.7859 69.696C64.7859 68.128 63.4099 67.68 61.7939 67.36C60.5299 67.088 59.5859 66.928 59.5859 66.064C59.5859 65.344 60.3059 64.912 61.3619 64.912C62.4339 64.912 63.1539 65.392 63.4579 66.224L64.5619 65.984C64.1619 64.752 63.1379 63.968 61.3619 63.968C59.6019 63.968 58.4339 64.848 58.4339 66.144C58.4339 67.696 59.7939 68.112 61.4099 68.416C62.5779 68.672 63.6339 68.864 63.6339 69.808C63.6339 70.64 62.8659 71.2 61.6179 71.2C60.2579 71.2 59.3779 70.576 59.1219 69.648L58.0019 69.872C58.3859 71.312 59.6179 72.128 61.6179 72.128ZM68.8656 72.128C69.9216 72.128 70.8816 71.664 71.5056 70.656V72H72.6576V64.112H71.4256V69.712C70.8976 70.672 70.1296 71.184 69.2496 71.184C68.1456 71.184 67.6816 70.688 67.6816 69.44V64.112H66.4336V69.408C66.4336 71.392 67.4416 72.128 68.8656 72.128ZM76.2758 72V66.592C76.9958 65.584 77.6518 64.992 78.5638 64.992C79.3318 64.992 79.7318 65.52 79.7318 66.464V72H80.9478V66.608C81.4438 65.824 82.2598 65.024 83.2358 65.024C84.0038 65.024 84.4358 65.456 84.4358 66.48V72H85.6678V66.4C85.6678 65.76 85.5078 65.248 85.2678 64.88C84.9478 64.288 84.4038 63.984 83.5878 63.984C82.3398 63.984 81.4118 64.88 80.8678 65.744C80.7718 64.624 80.0358 63.968 78.8838 63.968C77.7478 63.968 76.7078 64.912 76.2438 65.696V64.112H75.0438V72H76.2758ZM94.116 72.128C95.268 72.128 96.068 71.664 96.692 70.8V72H97.86V61.328H96.66V65.184C96.292 64.656 95.54 63.968 94.34 63.968C92.324 63.968 91.108 65.744 91.108 68.08C91.108 70.656 92.212 72.128 94.116 72.128ZM94.452 71.184C93.14 71.184 92.404 70.272 92.404 68.08C92.404 66.064 93.108 64.944 94.532 64.944C95.7 64.944 96.244 65.616 96.644 66.368V69.584C96.308 70.464 95.636 71.184 94.452 71.184ZM103.222 72.128C105.174 72.128 106.79 70.512 106.79 68.032C106.79 65.6 105.382 63.968 103.222 63.968C101.286 63.968 99.6858 65.552 99.6858 68.016C99.6858 70.512 101.19 72.128 103.222 72.128ZM103.206 71.2C101.878 71.2 100.998 70.016 100.998 68.032C100.998 66 101.958 64.944 103.206 64.944C104.518 64.944 105.478 65.968 105.478 68.016C105.478 70.144 104.502 71.2 103.206 71.2ZM109.855 72V61.328H108.607V72H109.855ZM115.206 72.128C117.158 72.128 118.774 70.512 118.774 68.032C118.774 65.6 117.366 63.968 115.206 63.968C113.27 63.968 111.67 65.552 111.67 68.016C111.67 70.512 113.174 72.128 115.206 72.128ZM115.19 71.2C113.862 71.2 112.982 70.016 112.982 68.032C112.982 66 113.942 64.944 115.19 64.944C116.502 64.944 117.462 65.968 117.462 68.016C117.462 70.144 116.486 71.2 115.19 71.2ZM121.807 72V66.848C122.463 65.744 123.391 65.104 124.319 65.104C124.415 65.104 124.575 65.104 124.671 65.12V63.984C124.543 63.968 124.447 63.968 124.303 63.968C123.183 63.968 122.255 64.88 121.743 65.808V64.112H120.559V72H121.807ZM125.462 74L126.63 71.824V70.224H124.902V72H125.574L124.614 74H125.462ZM135.118 72.128C137.038 72.128 138.286 71.152 138.286 69.696C138.286 68.128 136.91 67.68 135.294 67.36C134.03 67.088 133.086 66.928 133.086 66.064C133.086 65.344 133.806 64.912 134.862 64.912C135.934 64.912 136.654 65.392 136.958 66.224L138.062 65.984C137.662 64.752 136.638 63.968 134.862 63.968C133.102 63.968 131.934 64.848 131.934 66.144C131.934 67.696 133.294 68.112 134.91 68.416C136.078 68.672 137.134 68.864 137.134 69.808C137.134 70.64 136.366 71.2 135.118 71.2C133.758 71.2 132.878 70.576 132.622 69.648L131.502 69.872C131.886 71.312 133.118 72.128 135.118 72.128ZM141.294 62.72V61.312H139.934V62.72H141.294ZM141.246 72V64.112H139.998V72H141.246ZM145.877 72.112C146.309 72.112 146.789 72.064 147.221 71.984V71.008C146.933 71.056 146.469 71.104 146.101 71.104C145.429 71.088 144.997 70.72 144.997 69.888V65.104H146.773V64.112H144.997V62.048H143.861L143.797 64.112H142.501V65.104H143.781V69.824C143.781 71.456 144.549 72.112 145.877 72.112ZM154.166 72.096C155.638 72.096 156.566 71.536 157.19 70.672C157.174 71.072 157.238 71.728 157.334 72H158.518C158.39 71.504 158.342 70.96 158.342 70.464V66.88C158.342 64.896 157.478 63.968 155.238 63.968C153.366 63.968 152.134 64.736 151.846 66.176L152.998 66.304C153.254 65.296 153.926 64.944 155.206 64.944C156.534 64.944 157.046 65.408 157.142 66.272C157.174 66.464 157.174 66.736 157.174 67.008C156.55 67.024 156.022 67.024 155.382 67.104C153.222 67.36 151.654 68.208 151.654 69.92C151.654 71.36 152.774 72.096 154.166 72.096ZM154.534 71.184C153.478 71.184 152.95 70.704 152.95 69.792C152.95 68.8 153.83 68.112 155.542 67.888C156.038 67.824 156.614 67.824 157.174 67.824V69.456C156.838 70.272 156.038 71.184 154.534 71.184ZM161.948 72V66.592C162.668 65.584 163.324 64.992 164.236 64.992C165.004 64.992 165.404 65.52 165.404 66.464V72H166.62V66.608C167.116 65.824 167.932 65.024 168.908 65.024C169.676 65.024 170.108 65.456 170.108 66.48V72H171.34V66.4C171.34 65.76 171.18 65.248 170.94 64.88C170.62 64.288 170.076 63.984 169.26 63.984C168.012 63.984 167.084 64.88 166.54 65.744C166.444 64.624 165.708 63.968 164.556 63.968C163.42 63.968 162.38 64.912 161.916 65.696V64.112H160.716V72H161.948ZM176.708 72.128C178.276 72.128 179.492 71.312 180.036 69.792L178.948 69.632C178.5 70.8 177.684 71.184 176.82 71.184C175.284 71.184 174.388 70.176 174.356 68.192H180.18C180.164 68.016 180.18 67.84 180.164 67.664C180.004 65.472 178.804 63.968 176.74 63.968C174.708 63.968 173.092 65.52 173.092 68.192C173.092 70.544 174.548 72.128 176.708 72.128ZM174.404 67.344C174.5 65.856 175.476 64.912 176.74 64.912C178.004 64.912 178.788 65.824 178.916 67.344H174.404ZM184.111 72.112C184.543 72.112 185.023 72.064 185.455 71.984V71.008C185.167 71.056 184.703 71.104 184.335 71.104C183.663 71.088 183.231 70.72 183.231 69.888V65.104H185.007V64.112H183.231V62.048H182.095L182.031 64.112H180.735V65.104H182.015V69.824C182.015 71.456 182.783 72.112 184.111 72.112ZM193.297 72.128C194.865 72.128 196.033 71.216 196.305 69.44L195.217 69.328C194.977 70.64 194.369 71.2 193.329 71.2C192.145 71.2 191.217 70.224 191.217 68.048C191.217 66.08 191.985 64.96 193.249 64.96C194.337 64.96 194.961 65.664 195.153 66.96L196.321 66.816C195.969 64.88 194.913 63.968 193.233 63.968C191.233 63.968 189.905 65.728 189.905 68.016C189.905 70.656 191.361 72.128 193.297 72.128ZM200.894 72.128C202.846 72.128 204.462 70.512 204.462 68.032C204.462 65.6 203.054 63.968 200.894 63.968C198.958 63.968 197.358 65.552 197.358 68.016C197.358 70.512 198.862 72.128 200.894 72.128ZM200.878 71.2C199.55 71.2 198.67 70.016 198.67 68.032C198.67 66 199.63 64.944 200.878 64.944C202.19 64.944 203.15 65.968 203.15 68.016C203.15 70.144 202.174 71.2 200.878 71.2ZM207.495 72V66.592C208.151 65.648 208.983 65.008 209.991 65.008C210.887 65.008 211.303 65.456 211.303 66.4V72H212.551V66.416C212.551 64.8 211.831 63.968 210.359 63.968C208.951 63.968 207.975 64.896 207.431 65.68V64.112H206.247V72H207.495ZM217.415 72.128C219.335 72.128 220.583 71.152 220.583 69.696C220.583 68.128 219.207 67.68 217.591 67.36C216.327 67.088 215.383 66.928 215.383 66.064C215.383 65.344 216.103 64.912 217.159 64.912C218.231 64.912 218.951 65.392 219.255 66.224L220.359 65.984C219.959 64.752 218.935 63.968 217.159 63.968C215.399 63.968 214.231 64.848 214.231 66.144C214.231 67.696 215.591 68.112 217.207 68.416C218.375 68.672 219.431 68.864 219.431 69.808C219.431 70.64 218.663 71.2 217.415 71.2C216.055 71.2 215.175 70.576 214.919 69.648L213.799 69.872C214.183 71.312 215.415 72.128 217.415 72.128ZM225.286 72.128C226.855 72.128 228.071 71.312 228.615 69.792L227.527 69.632C227.079 70.8 226.263 71.184 225.399 71.184C223.863 71.184 222.967 70.176 222.935 68.192H228.759C228.743 68.016 228.759 67.84 228.743 67.664C228.583 65.472 227.383 63.968 225.319 63.968C223.287 63.968 221.671 65.52 221.671 68.192C221.671 70.544 223.127 72.128 225.286 72.128ZM222.983 67.344C223.079 65.856 224.055 64.912 225.319 64.912C226.583 64.912 227.367 65.824 227.495 67.344H222.983ZM233.265 72.128C234.833 72.128 236.001 71.216 236.273 69.44L235.185 69.328C234.945 70.64 234.337 71.2 233.297 71.2C232.113 71.2 231.185 70.224 231.185 68.048C231.185 66.08 231.953 64.96 233.217 64.96C234.305 64.96 234.929 65.664 235.121 66.96L236.289 66.816C235.937 64.88 234.881 63.968 233.201 63.968C231.201 63.968 229.873 65.728 229.873 68.016C229.873 70.656 231.329 72.128 233.265 72.128ZM240.142 72.112C240.574 72.112 241.054 72.064 241.486 71.984V71.008C241.198 71.056 240.734 71.104 240.366 71.104C239.694 71.088 239.262 70.72 239.262 69.888V65.104H241.038V64.112H239.262V62.048H238.126L238.062 64.112H236.766V65.104H238.046V69.824C238.046 71.456 238.814 72.112 240.142 72.112ZM245.88 72.128C247.448 72.128 248.664 71.312 249.208 69.792L248.12 69.632C247.672 70.8 246.856 71.184 245.992 71.184C244.456 71.184 243.56 70.176 243.528 68.192H249.352C249.336 68.016 249.352 67.84 249.336 67.664C249.176 65.472 247.976 63.968 245.912 63.968C243.88 63.968 242.264 65.52 242.264 68.192C242.264 70.544 243.72 72.128 245.88 72.128ZM243.576 67.344C243.672 65.856 244.648 64.912 245.912 64.912C247.176 64.912 247.96 65.824 248.088 67.344H243.576ZM253.283 72.112C253.715 72.112 254.195 72.064 254.627 71.984V71.008C254.339 71.056 253.875 71.104 253.507 71.104C252.835 71.088 252.403 70.72 252.403 69.888V65.104H254.179V64.112H252.403V62.048H251.267L251.203 64.112H249.907V65.104H251.187V69.824C251.187 71.456 251.955 72.112 253.283 72.112ZM258.397 72.128C259.453 72.128 260.413 71.664 261.037 70.656V72H262.189V64.112H260.957V69.712C260.429 70.672 259.661 71.184 258.781 71.184C257.677 71.184 257.213 70.688 257.213 69.44V64.112H255.965V69.408C255.965 71.392 256.973 72.128 258.397 72.128ZM265.823 72V66.848C266.479 65.744 267.407 65.104 268.335 65.104C268.431 65.104 268.591 65.104 268.687 65.12V63.984C268.559 63.968 268.463 63.968 268.319 63.968C267.199 63.968 266.271 64.88 265.759 65.808V64.112H264.575V72H265.823ZM275.51 72.096C276.982 72.096 277.91 71.536 278.534 70.672C278.518 71.072 278.582 71.728 278.678 72H279.862C279.734 71.504 279.686 70.96 279.686 70.464V66.88C279.686 64.896 278.822 63.968 276.582 63.968C274.71 63.968 273.478 64.736 273.19 66.176L274.342 66.304C274.598 65.296 275.27 64.944 276.55 64.944C277.878 64.944 278.39 65.408 278.486 66.272C278.518 66.464 278.518 66.736 278.518 67.008C277.894 67.024 277.366 67.024 276.726 67.104C274.566 67.36 272.998 68.208 272.998 69.92C272.998 71.36 274.118 72.096 275.51 72.096ZM275.878 71.184C274.822 71.184 274.294 70.704 274.294 69.792C274.294 68.8 275.174 68.112 276.886 67.888C277.382 67.824 277.958 67.824 278.518 67.824V69.456C278.182 70.272 277.382 71.184 275.878 71.184ZM284.475 72.128C285.627 72.128 286.427 71.664 287.051 70.8V72H288.219V61.328H287.019V65.184C286.651 64.656 285.899 63.968 284.699 63.968C282.683 63.968 281.467 65.744 281.467 68.08C281.467 70.656 282.571 72.128 284.475 72.128ZM284.811 71.184C283.499 71.184 282.763 70.272 282.763 68.08C282.763 66.064 283.467 64.944 284.891 64.944C286.059 64.944 286.603 65.616 287.003 66.368V69.584C286.667 70.464 285.995 71.184 284.811 71.184ZM291.981 62.72V61.312H290.621V62.72H291.981ZM291.933 72V64.112H290.685V72H291.933ZM298.052 72.112C299.636 72.112 301.06 70.72 301.06 68.048C301.06 65.2 299.844 63.968 298.084 63.968C296.82 63.968 296.02 64.736 295.54 65.504V64.112H294.356V74.672H295.588V70.96C296.068 71.536 296.9 72.112 298.052 72.112ZM297.716 71.2C296.58 71.2 296.004 70.496 295.588 69.904V66.576C296.148 65.472 296.884 64.992 297.796 64.992C299.156 64.992 299.764 65.968 299.764 68.08C299.764 70.352 298.964 71.2 297.716 71.2ZM304.2 62.72V61.312H302.84V62.72H304.2ZM304.152 72V64.112H302.904V72H304.152ZM309.071 72.128C310.991 72.128 312.239 71.152 312.239 69.696C312.239 68.128 310.863 67.68 309.247 67.36C307.983 67.088 307.039 66.928 307.039 66.064C307.039 65.344 307.759 64.912 308.815 64.912C309.887 64.912 310.607 65.392 310.911 66.224L312.015 65.984C311.615 64.752 310.591 63.968 308.815 63.968C307.055 63.968 305.887 64.848 305.887 66.144C305.887 67.696 307.247 68.112 308.863 68.416C310.031 68.672 311.087 68.864 311.087 69.808C311.087 70.64 310.319 71.2 309.071 71.2C307.711 71.2 306.831 70.576 306.575 69.648L305.455 69.872C305.839 71.312 307.071 72.128 309.071 72.128ZM315.247 62.72V61.312H313.887V62.72H315.247ZM315.199 72V64.112H313.951V72H315.199ZM320.406 72.128C321.974 72.128 323.142 71.216 323.414 69.44L322.326 69.328C322.086 70.64 321.478 71.2 320.438 71.2C319.254 71.2 318.326 70.224 318.326 68.048C318.326 66.08 319.094 64.96 320.358 64.96C321.446 64.96 322.07 65.664 322.262 66.96L323.43 66.816C323.078 64.88 322.022 63.968 320.342 63.968C318.342 63.968 317.014 65.728 317.014 68.016C317.014 70.656 318.47 72.128 320.406 72.128ZM326.403 62.72V61.312H325.043V62.72H326.403ZM326.355 72V64.112H325.107V72H326.355ZM330.026 72V66.592C330.682 65.648 331.514 65.008 332.522 65.008C333.418 65.008 333.834 65.456 333.834 66.4V72H335.082V66.416C335.082 64.8 334.362 63.968 332.89 63.968C331.482 63.968 330.506 64.896 329.962 65.68V64.112H328.778V72H330.026ZM340.3 74.976C342.86 74.976 344.156 74.016 344.156 72.64C344.156 71.344 343.26 70.816 340.748 70.768C339.148 70.72 338.156 70.72 338.156 70.016C338.156 69.536 338.604 69.232 339.02 69.232C339.148 69.264 339.66 69.376 340.172 69.376C341.964 69.376 343.052 68.24 343.052 66.672C343.052 65.856 342.748 65.232 342.332 64.864C342.46 64.288 342.796 63.952 343.596 63.968C343.692 63.968 343.772 63.984 343.868 64L343.852 62.96C343.804 62.96 343.708 62.96 343.66 62.96C342.316 62.944 341.884 63.488 341.692 64.352C341.212 64.096 340.636 63.968 340.044 63.968C338.46 63.968 337.1 65.056 337.1 66.672C337.1 67.632 337.484 68.448 338.252 68.848C337.548 69.04 337.004 69.52 337.004 70.192C337.004 70.8 337.324 71.248 338.124 71.472C337.164 71.712 336.588 72.304 336.588 73.088C336.588 74.304 337.868 74.976 340.3 74.976ZM340.108 68.544C339.036 68.544 338.332 67.904 338.332 66.672C338.332 65.68 338.94 64.864 340.108 64.864C341.292 64.864 341.884 65.728 341.884 66.688C341.884 67.872 341.228 68.544 340.108 68.544ZM340.204 74.144C338.444 74.144 337.724 73.696 337.724 72.944C337.724 72.24 338.204 71.92 338.828 71.744C342.38 71.824 342.972 72 342.972 72.8C342.972 73.6 341.964 74.144 340.204 74.144ZM351.943 72.128C353.511 72.128 354.727 71.312 355.271 69.792L354.183 69.632C353.735 70.8 352.919 71.184 352.055 71.184C350.519 71.184 349.623 70.176 349.591 68.192H355.415C355.399 68.016 355.415 67.84 355.399 67.664C355.239 65.472 354.039 63.968 351.975 63.968C349.943 63.968 348.327 65.52 348.327 68.192C348.327 70.544 349.783 72.128 351.943 72.128ZM349.639 67.344C349.735 65.856 350.711 64.912 351.975 64.912C353.239 64.912 354.023 65.824 354.151 67.344H349.639ZM358.418 72V61.328H357.17V72H358.418ZM362.169 62.72V61.312H360.809V62.72H362.169ZM362.121 72V64.112H360.873V72H362.121ZM366.752 72.112C367.184 72.112 367.664 72.064 368.096 71.984V71.008C367.808 71.056 367.344 71.104 366.976 71.104C366.304 71.088 365.872 70.72 365.872 69.888V65.104H367.648V64.112H365.872V62.048H364.736L364.672 64.112H363.376V65.104H364.656V69.824C364.656 71.456 365.424 72.112 366.752 72.112ZM371.411 72V70.256H369.667V72H371.411ZM378.891 72V61.328H377.563V72H378.891ZM383.85 72.128C385.002 72.128 385.802 71.664 386.426 70.8V72H387.594V61.328H386.394V65.184C386.026 64.656 385.274 63.968 384.074 63.968C382.058 63.968 380.842 65.744 380.842 68.08C380.842 70.656 381.946 72.128 383.85 72.128ZM384.186 71.184C382.874 71.184 382.138 70.272 382.138 68.08C382.138 66.064 382.842 64.944 384.266 64.944C385.434 64.944 385.978 65.616 386.378 66.368V69.584C386.042 70.464 385.37 71.184 384.186 71.184ZM395.604 72.096C397.076 72.096 398.004 71.536 398.628 70.672C398.612 71.072 398.676 71.728 398.772 72H399.956C399.828 71.504 399.78 70.96 399.78 70.464V66.88C399.78 64.896 398.916 63.968 396.676 63.968C394.804 63.968 393.572 64.736 393.284 66.176L394.436 66.304C394.692 65.296 395.364 64.944 396.644 64.944C397.972 64.944 398.484 65.408 398.58 66.272C398.612 66.464 398.612 66.736 398.612 67.008C397.988 67.024 397.46 67.024 396.82 67.104C394.66 67.36 393.092 68.208 393.092 69.92C393.092 71.36 394.212 72.096 395.604 72.096ZM395.972 71.184C394.916 71.184 394.388 70.704 394.388 69.792C394.388 68.8 395.268 68.112 396.98 67.888C397.476 67.824 398.052 67.824 398.612 67.824V69.456C398.276 70.272 397.476 71.184 395.972 71.184ZM405.785 72.112C407.577 72.112 408.873 70.752 408.873 68.032C408.873 65.392 407.769 63.968 405.881 63.968C404.745 63.968 403.737 64.752 403.337 65.616V61.328H402.153V72H402.841L403.241 70.688C403.753 71.584 404.601 72.112 405.785 72.112ZM405.545 71.216C404.281 71.216 403.353 70.272 403.353 68.624V66.72C403.785 65.808 404.441 64.96 405.593 64.96C406.921 64.96 407.593 66 407.593 68.064C407.593 70.272 406.889 71.216 405.545 71.216ZM416.26 72.096C417.732 72.096 418.66 71.536 419.284 70.672C419.268 71.072 419.332 71.728 419.428 72H420.612C420.484 71.504 420.436 70.96 420.436 70.464V66.88C420.436 64.896 419.572 63.968 417.332 63.968C415.46 63.968 414.228 64.736 413.94 66.176L415.092 66.304C415.348 65.296 416.02 64.944 417.3 64.944C418.628 64.944 419.14 65.408 419.236 66.272C419.268 66.464 419.268 66.736 419.268 67.008C418.644 67.024 418.116 67.024 417.476 67.104C415.316 67.36 413.748 68.208 413.748 69.92C413.748 71.36 414.868 72.096 416.26 72.096ZM416.628 71.184C415.572 71.184 415.044 70.704 415.044 69.792C415.044 68.8 415.924 68.112 417.636 67.888C418.132 67.824 418.708 67.824 419.268 67.824V69.456C418.932 70.272 418.132 71.184 416.628 71.184ZM424.089 72V61.328H422.841V72H424.089ZM427.841 62.72V61.312H426.481V62.72H427.841ZM427.793 72V64.112H426.545V72H427.793ZM432.712 72.112C433.672 72.112 434.616 71.68 435.16 70.704V74.672H436.376V64.112H435.784L435.32 65.296C434.872 64.624 434.152 64 432.904 64C430.872 64 429.624 65.776 429.624 68.096C429.624 70.784 430.888 72.112 432.712 72.112ZM433.032 71.216C431.704 71.216 430.904 70.176 430.904 68.064C430.904 66.032 431.752 64.944 433.048 64.944C434.2 64.944 434.792 65.632 435.16 66.496V68.912C435.128 70.432 434.168 71.216 433.032 71.216ZM441.194 72.128C442.25 72.128 443.21 71.664 443.834 70.656V72H444.986V64.112H443.754V69.712C443.226 70.672 442.458 71.184 441.578 71.184C440.474 71.184 440.01 70.688 440.01 69.44V64.112H438.762V69.408C438.762 71.392 439.77 72.128 441.194 72.128ZM449.26 72.096C450.732 72.096 451.66 71.536 452.284 70.672C452.268 71.072 452.332 71.728 452.428 72H453.612C453.484 71.504 453.436 70.96 453.436 70.464V66.88C453.436 64.896 452.572 63.968 450.332 63.968C448.46 63.968 447.228 64.736 446.94 66.176L448.092 66.304C448.348 65.296 449.02 64.944 450.3 64.944C451.628 64.944 452.14 65.408 452.236 66.272C452.268 66.464 452.268 66.736 452.268 67.008C451.644 67.024 451.116 67.024 450.476 67.104C448.316 67.36 446.748 68.208 446.748 69.92C446.748 71.36 447.868 72.096 449.26 72.096ZM449.628 71.184C448.572 71.184 448.044 70.704 448.044 69.792C448.044 68.8 448.924 68.112 450.636 67.888C451.132 67.824 451.708 67.824 452.268 67.824V69.456C451.932 70.272 451.132 71.184 449.628 71.184ZM457.041 72V66.592C457.761 65.584 458.417 64.992 459.329 64.992C460.097 64.992 460.497 65.52 460.497 66.464V72H461.713V66.608C462.209 65.824 463.025 65.024 464.001 65.024C464.769 65.024 465.201 65.456 465.201 66.48V72H466.433V66.4C466.433 65.76 466.273 65.248 466.033 64.88C465.713 64.288 465.169 63.984 464.353 63.984C463.105 63.984 462.177 64.88 461.633 65.744C461.537 64.624 460.801 63.968 459.649 63.968C458.513 63.968 457.473 64.912 457.009 65.696V64.112H455.809V72H457.041ZM475.394 72L478.274 64.112H477.186L475.346 69.216C475.154 69.68 474.93 70.448 474.85 70.656C474.802 70.432 474.562 69.696 474.386 69.2L472.61 64.112H471.298L474.13 72H475.394ZM482.505 72.128C484.073 72.128 485.289 71.312 485.833 69.792L484.745 69.632C484.297 70.8 483.481 71.184 482.617 71.184C481.081 71.184 480.185 70.176 480.153 68.192H485.977C485.961 68.016 485.977 67.84 485.961 67.664C485.801 65.472 484.601 63.968 482.537 63.968C480.505 63.968 478.889 65.52 478.889 68.192C478.889 70.544 480.345 72.128 482.505 72.128ZM480.201 67.344C480.297 65.856 481.273 64.912 482.537 64.912C483.801 64.912 484.585 65.824 484.713 67.344H480.201ZM488.948 72V66.848C489.604 65.744 490.532 65.104 491.46 65.104C491.556 65.104 491.716 65.104 491.812 65.12V63.984C491.684 63.968 491.588 63.968 491.444 63.968C490.324 63.968 489.396 64.88 488.884 65.808V64.112H487.7V72H488.948ZM495.987 72.128C497.939 72.128 499.555 70.512 499.555 68.032C499.555 65.6 498.147 63.968 495.987 63.968C494.051 63.968 492.451 65.552 492.451 68.016C492.451 70.512 493.955 72.128 495.987 72.128ZM495.971 71.2C494.643 71.2 493.763 70.016 493.763 68.032C493.763 66 494.723 64.944 495.971 64.944C497.283 64.944 498.243 65.968 498.243 68.016C498.243 70.144 497.267 71.2 495.971 71.2ZM506.26 72V66.592C506.98 65.584 507.636 64.992 508.548 64.992C509.316 64.992 509.716 65.52 509.716 66.464V72H510.932V66.608C511.428 65.824 512.244 65.024 513.22 65.024C513.988 65.024 514.42 65.456 514.42 66.48V72H515.652V66.4C515.652 65.76 515.492 65.248 515.252 64.88C514.932 64.288 514.388 63.984 513.572 63.984C512.324 63.984 511.396 64.88 510.852 65.744C510.756 64.624 510.02 63.968 508.868 63.968C507.732 63.968 506.692 64.912 506.228 65.696V64.112H505.028V72H506.26ZM519.325 62.72V61.312H517.965V62.72H519.325ZM519.277 72V64.112H518.029V72H519.277ZM522.948 72V66.592C523.604 65.648 524.436 65.008 525.444 65.008C526.34 65.008 526.756 65.456 526.756 66.4V72H528.004V66.416C528.004 64.8 527.284 63.968 525.812 63.968C524.404 63.968 523.428 64.896 522.884 65.68V64.112H521.7V72H522.948ZM532.772 72.128C533.828 72.128 534.788 71.664 535.412 70.656V72H536.564V64.112H535.332V69.712C534.804 70.672 534.036 71.184 533.156 71.184C532.052 71.184 531.588 70.688 531.588 69.44V64.112H530.34V69.408C530.34 71.392 531.348 72.128 532.772 72.128ZM541.446 72.128C543.366 72.128 544.614 71.152 544.614 69.696C544.614 68.128 543.238 67.68 541.622 67.36C540.358 67.088 539.414 66.928 539.414 66.064C539.414 65.344 540.134 64.912 541.19 64.912C542.262 64.912 542.982 65.392 543.286 66.224L544.39 65.984C543.99 64.752 542.966 63.968 541.19 63.968C539.43 63.968 538.262 64.848 538.262 66.144C538.262 67.696 539.622 68.112 541.238 68.416C542.406 68.672 543.462 68.864 543.462 69.808C543.462 70.64 542.694 71.2 541.446 71.2C540.086 71.2 539.206 70.576 538.95 69.648L537.83 69.872C538.214 71.312 539.446 72.128 541.446 72.128ZM546.79 74L547.958 71.824V70.224H546.23V72H546.902L545.942 74H546.79ZM555.278 62.72V61.312H553.918V62.72H555.278ZM555.23 72V64.112H553.982V72H555.23ZM560.053 72.128C561.109 72.128 562.069 71.664 562.693 70.656V72H563.845V64.112H562.613V69.712C562.085 70.672 561.317 71.184 560.437 71.184C559.333 71.184 558.869 70.688 558.869 69.44V64.112H557.621V69.408C557.621 71.392 558.629 72.128 560.053 72.128ZM567.479 72V66.848C568.135 65.744 569.063 65.104 569.991 65.104C570.087 65.104 570.247 65.104 570.343 65.12V63.984C570.215 63.968 570.119 63.968 569.975 63.968C568.855 63.968 567.927 64.88 567.415 65.808V64.112H566.231V72H567.479ZM574.458 72.128C576.026 72.128 577.242 71.312 577.786 69.792L576.698 69.632C576.25 70.8 575.434 71.184 574.57 71.184C573.034 71.184 572.138 70.176 572.106 68.192H577.93C577.914 68.016 577.93 67.84 577.914 67.664C577.754 65.472 576.554 63.968 574.49 63.968C572.458 63.968 570.842 65.52 570.842 68.192C570.842 70.544 572.298 72.128 574.458 72.128ZM572.154 67.344C572.25 65.856 573.226 64.912 574.49 64.912C575.754 64.912 576.538 65.824 576.666 67.344H572.154ZM2.528 82.72V81.312H1.168V82.72H2.528ZM2.48 92V84.112H1.232V92H2.48ZM6.13513 92V86.592C6.85513 85.584 7.51113 84.992 8.42313 84.992C9.19113 84.992 9.59113 85.52 9.59113 86.464V92H10.8071V86.608C11.3031 85.824 12.1191 85.024 13.0951 85.024C13.8631 85.024 14.2951 85.456 14.2951 86.48V92H15.5271V86.4C15.5271 85.76 15.3671 85.248 15.1271 84.88C14.8071 84.288 14.2631 83.984 13.4471 83.984C12.1991 83.984 11.2711 84.88 10.7271 85.744C10.6311 84.624 9.89513 83.968 8.74313 83.968C7.60713 83.968 6.56713 84.912 6.10313 85.696V84.112H4.90313V92H6.13513ZM21.5679 92.112C23.1519 92.112 24.5759 90.72 24.5759 88.048C24.5759 85.2 23.3599 83.968 21.5999 83.968C20.3359 83.968 19.5359 84.736 19.0559 85.504V84.112H17.8719V94.672H19.1039V90.96C19.5839 91.536 20.4159 92.112 21.5679 92.112ZM21.2319 91.2C20.0959 91.2 19.5199 90.496 19.1039 89.904V86.576C19.6639 85.472 20.3999 84.992 21.3119 84.992C22.6719 84.992 23.2799 85.968 23.2799 88.08C23.2799 90.352 22.4799 91.2 21.2319 91.2ZM29.4115 92.128C30.9795 92.128 32.1955 91.312 32.7395 89.792L31.6515 89.632C31.2035 90.8 30.3875 91.184 29.5235 91.184C27.9875 91.184 27.0915 90.176 27.0595 88.192H32.8835C32.8675 88.016 32.8835 87.84 32.8675 87.664C32.7075 85.472 31.5075 83.968 29.4435 83.968C27.4115 83.968 25.7955 85.52 25.7955 88.192C25.7955 90.544 27.2515 92.128 29.4115 92.128ZM27.1075 87.344C27.2035 85.856 28.1795 84.912 29.4435 84.912C30.7075 84.912 31.4915 85.824 31.6195 87.344H27.1075ZM37.0223 92.128C38.1743 92.128 38.9743 91.664 39.5983 90.8V92H40.7663V81.328H39.5663V85.184C39.1983 84.656 38.4463 83.968 37.2463 83.968C35.2303 83.968 34.0143 85.744 34.0143 88.08C34.0143 90.656 35.1183 92.128 37.0223 92.128ZM37.3583 91.184C36.0463 91.184 35.3103 90.272 35.3103 88.08C35.3103 86.064 36.0143 84.944 37.4383 84.944C38.6063 84.944 39.1503 85.616 39.5503 86.368V89.584C39.2143 90.464 38.5423 91.184 37.3583 91.184ZM44.528 82.72V81.312H43.168V82.72H44.528ZM44.48 92V84.112H43.232V92H44.48ZM49.1111 92.112C49.5431 92.112 50.0231 92.064 50.4551 91.984V91.008C50.1671 91.056 49.7031 91.104 49.3351 91.104C48.6631 91.088 48.2311 90.72 48.2311 89.888V85.104H50.0071V84.112H48.2311V82.048H47.0951L47.0311 84.112H45.7351V85.104H47.0151V89.824C47.0151 91.456 47.7831 92.112 49.1111 92.112ZM53.7699 92V90.256H52.0259V92H53.7699ZM63.5701 92L67.1701 81.328H65.9541L63.3781 89.104C63.3141 89.264 63.0741 90.048 63.0261 90.256C62.9941 90.048 62.7381 89.216 62.7061 89.104L60.0821 81.328H58.6741L62.2741 92H63.5701ZM70.878 92.128C72.83 92.128 74.446 90.512 74.446 88.032C74.446 85.6 73.038 83.968 70.878 83.968C68.942 83.968 67.342 85.552 67.342 88.016C67.342 90.512 68.846 92.128 70.878 92.128ZM70.862 91.2C69.534 91.2 68.654 90.016 68.654 88.032C68.654 86 69.614 84.944 70.862 84.944C72.174 84.944 73.134 85.968 73.134 88.016C73.134 90.144 72.158 91.2 70.862 91.2ZM77.5113 92V81.328H76.2633V92H77.5113ZM82.3344 92.128C83.3904 92.128 84.3504 91.664 84.9744 90.656V92H86.1264V84.112H84.8944V89.712C84.3664 90.672 83.5984 91.184 82.7184 91.184C81.6144 91.184 81.1504 90.688 81.1504 89.44V84.112H79.9024V89.408C79.9024 91.392 80.9104 92.128 82.3344 92.128ZM92.2085 92.112C93.7925 92.112 95.2165 90.72 95.2165 88.048C95.2165 85.2 94.0005 83.968 92.2405 83.968C90.9765 83.968 90.1765 84.736 89.6965 85.504V84.112H88.5125V94.672H89.7445V90.96C90.2245 91.536 91.0565 92.112 92.2085 92.112ZM91.8725 91.2C90.7365 91.2 90.1605 90.496 89.7445 89.904V86.576C90.3045 85.472 91.0405 84.992 91.9525 84.992C93.3125 84.992 93.9205 85.968 93.9205 88.08C93.9205 90.352 93.1205 91.2 91.8725 91.2ZM99.2361 92.112C99.6681 92.112 100.148 92.064 100.58 91.984V91.008C100.292 91.056 99.8281 91.104 99.4601 91.104C98.7881 91.088 98.3561 90.72 98.3561 89.888V85.104H100.132V84.112H98.3561V82.048H97.2201L97.1561 84.112H95.8601V85.104H97.1401V89.824C97.1401 91.456 97.9081 92.112 99.2361 92.112ZM103.838 92.096C105.31 92.096 106.238 91.536 106.862 90.672C106.846 91.072 106.91 91.728 107.006 92H108.19C108.062 91.504 108.014 90.96 108.014 90.464V86.88C108.014 84.896 107.15 83.968 104.91 83.968C103.038 83.968 101.806 84.736 101.518 86.176L102.67 86.304C102.926 85.296 103.598 84.944 104.878 84.944C106.206 84.944 106.718 85.408 106.814 86.272C106.846 86.464 106.846 86.736 106.846 87.008C106.222 87.024 105.694 87.024 105.054 87.104C102.894 87.36 101.326 88.208 101.326 89.92C101.326 91.36 102.446 92.096 103.838 92.096ZM104.206 91.184C103.15 91.184 102.622 90.704 102.622 89.792C102.622 88.8 103.502 88.112 105.214 87.888C105.71 87.824 106.286 87.824 106.846 87.824V89.456C106.51 90.272 105.71 91.184 104.206 91.184ZM112.596 92.112C113.028 92.112 113.508 92.064 113.94 91.984V91.008C113.652 91.056 113.188 91.104 112.82 91.104C112.148 91.088 111.716 90.72 111.716 89.888V85.104H113.492V84.112H111.716V82.048H110.58L110.516 84.112H109.22V85.104H110.5V89.824C110.5 91.456 111.268 92.112 112.596 92.112ZM117.709 92.128C118.765 92.128 119.725 91.664 120.349 90.656V92H121.501V84.112H120.269V89.712C119.741 90.672 118.973 91.184 118.093 91.184C116.989 91.184 116.525 90.688 116.525 89.44V84.112H115.277V89.408C115.277 91.392 116.285 92.128 117.709 92.128ZM125.12 92V86.592C125.84 85.584 126.496 84.992 127.408 84.992C128.176 84.992 128.576 85.52 128.576 86.464V92H129.792V86.608C130.288 85.824 131.104 85.024 132.08 85.024C132.848 85.024 133.28 85.456 133.28 86.48V92H134.512V86.4C134.512 85.76 134.352 85.248 134.112 84.88C133.792 84.288 133.248 83.984 132.432 83.984C131.184 83.984 130.256 84.88 129.712 85.744C129.616 84.624 128.88 83.968 127.728 83.968C126.592 83.968 125.552 84.912 125.088 85.696V84.112H123.888V92H125.12ZM143.04 92.112C144 92.112 144.944 91.68 145.488 90.704V94.672H146.704V84.112H146.112L145.648 85.296C145.2 84.624 144.48 84 143.232 84C141.2 84 139.952 85.776 139.952 88.096C139.952 90.784 141.216 92.112 143.04 92.112ZM143.36 91.216C142.032 91.216 141.232 90.176 141.232 88.064C141.232 86.032 142.08 84.944 143.376 84.944C144.528 84.944 145.12 85.632 145.488 86.496V88.912C145.456 90.432 144.496 91.216 143.36 91.216ZM151.522 92.128C152.578 92.128 153.538 91.664 154.162 90.656V92H155.314V84.112H154.082V89.712C153.554 90.672 152.786 91.184 151.906 91.184C150.802 91.184 150.338 90.688 150.338 89.44V84.112H149.09V89.408C149.09 91.392 150.098 92.128 151.522 92.128ZM160.628 92.128C162.58 92.128 164.196 90.512 164.196 88.032C164.196 85.6 162.788 83.968 160.628 83.968C158.692 83.968 157.092 85.552 157.092 88.016C157.092 90.512 158.596 92.128 160.628 92.128ZM160.612 91.2C159.284 91.2 158.404 90.016 158.404 88.032C158.404 86 159.364 84.944 160.612 84.944C161.924 84.944 162.884 85.968 162.884 88.016C162.884 90.144 161.908 91.2 160.612 91.2ZM172.693 92.128C174.261 92.128 175.477 91.312 176.021 89.792L174.933 89.632C174.485 90.8 173.669 91.184 172.805 91.184C171.269 91.184 170.373 90.176 170.341 88.192H176.165C176.149 88.016 176.165 87.84 176.149 87.664C175.989 85.472 174.789 83.968 172.725 83.968C170.693 83.968 169.077 85.52 169.077 88.192C169.077 90.544 170.533 92.128 172.693 92.128ZM170.389 87.344C170.485 85.856 171.461 84.912 172.725 84.912C173.989 84.912 174.773 85.824 174.901 87.344H170.389ZM179.168 92V81.328H177.92V92H179.168ZM182.919 82.72V81.312H181.559V82.72H182.919ZM182.871 92V84.112H181.623V92H182.871ZM188.222 94.976C190.782 94.976 192.078 94.016 192.078 92.64C192.078 91.344 191.182 90.816 188.67 90.768C187.07 90.72 186.078 90.72 186.078 90.016C186.078 89.536 186.526 89.232 186.942 89.232C187.07 89.264 187.582 89.376 188.094 89.376C189.886 89.376 190.974 88.24 190.974 86.672C190.974 85.856 190.67 85.232 190.254 84.864C190.382 84.288 190.718 83.952 191.518 83.968C191.614 83.968 191.694 83.984 191.79 84L191.774 82.96C191.726 82.96 191.63 82.96 191.582 82.96C190.238 82.944 189.806 83.488 189.614 84.352C189.134 84.096 188.558 83.968 187.966 83.968C186.382 83.968 185.022 85.056 185.022 86.672C185.022 87.632 185.406 88.448 186.174 88.848C185.47 89.04 184.926 89.52 184.926 90.192C184.926 90.8 185.246 91.248 186.046 91.472C185.086 91.712 184.51 92.304 184.51 93.088C184.51 94.304 185.79 94.976 188.222 94.976ZM188.03 88.544C186.958 88.544 186.254 87.904 186.254 86.672C186.254 85.68 186.862 84.864 188.03 84.864C189.214 84.864 189.806 85.728 189.806 86.688C189.806 87.872 189.15 88.544 188.03 88.544ZM188.126 94.144C186.366 94.144 185.646 93.696 185.646 92.944C185.646 92.24 186.126 91.92 186.75 91.744C190.302 91.824 190.894 92 190.894 92.8C190.894 93.6 189.886 94.144 188.126 94.144ZM196.177 92.128C197.745 92.128 198.961 91.312 199.505 89.792L198.417 89.632C197.969 90.8 197.153 91.184 196.289 91.184C194.753 91.184 193.857 90.176 193.825 88.192H199.649C199.633 88.016 199.649 87.84 199.633 87.664C199.473 85.472 198.273 83.968 196.209 83.968C194.177 83.968 192.561 85.52 192.561 88.192C192.561 90.544 194.017 92.128 196.177 92.128ZM193.873 87.344C193.969 85.856 194.945 84.912 196.209 84.912C197.473 84.912 198.257 85.824 198.385 87.344H193.873ZM202.62 92V86.592C203.276 85.648 204.108 85.008 205.116 85.008C206.012 85.008 206.428 85.456 206.428 86.4V92H207.676V86.416C207.676 84.8 206.956 83.968 205.484 83.968C204.076 83.968 203.1 84.896 202.556 85.68V84.112H201.372V92H202.62ZM212.46 92.128C213.612 92.128 214.412 91.664 215.036 90.8V92H216.204V81.328H215.004V85.184C214.636 84.656 213.884 83.968 212.684 83.968C210.668 83.968 209.452 85.744 209.452 88.08C209.452 90.656 210.556 92.128 212.46 92.128ZM212.796 91.184C211.484 91.184 210.748 90.272 210.748 88.08C210.748 86.064 211.452 84.944 212.876 84.944C214.044 84.944 214.588 85.616 214.988 86.368V89.584C214.652 90.464 213.98 91.184 212.796 91.184ZM219.966 82.72V81.312H218.606V82.72H219.966ZM219.918 92V84.112H218.67V92H219.918ZM228.444 92.128C229.596 92.128 230.396 91.664 231.02 90.8V92H232.188V81.328H230.988V85.184C230.62 84.656 229.868 83.968 228.668 83.968C226.652 83.968 225.436 85.744 225.436 88.08C225.436 90.656 226.54 92.128 228.444 92.128ZM228.78 91.184C227.468 91.184 226.732 90.272 226.732 88.08C226.732 86.064 227.436 84.944 228.86 84.944C230.028 84.944 230.572 85.616 230.972 86.368V89.584C230.636 90.464 229.964 91.184 228.78 91.184ZM237.55 92.128C239.502 92.128 241.118 90.512 241.118 88.032C241.118 85.6 239.71 83.968 237.55 83.968C235.614 83.968 234.014 85.552 234.014 88.016C234.014 90.512 235.518 92.128 237.55 92.128ZM237.534 91.2C236.206 91.2 235.326 90.016 235.326 88.032C235.326 86 236.286 84.944 237.534 84.944C238.846 84.944 239.806 85.968 239.806 88.016C239.806 90.144 238.83 91.2 237.534 91.2ZM244.183 92V81.328H242.935V92H244.183ZM249.534 92.128C251.486 92.128 253.102 90.512 253.102 88.032C253.102 85.6 251.694 83.968 249.534 83.968C247.598 83.968 245.998 85.552 245.998 88.016C245.998 90.512 247.502 92.128 249.534 92.128ZM249.518 91.2C248.19 91.2 247.31 90.016 247.31 88.032C247.31 86 248.27 84.944 249.518 84.944C250.83 84.944 251.79 85.968 251.79 88.016C251.79 90.144 250.814 91.2 249.518 91.2ZM256.136 92V86.848C256.792 85.744 257.72 85.104 258.648 85.104C258.744 85.104 258.904 85.104 259 85.12V83.984C258.872 83.968 258.776 83.968 258.632 83.968C257.512 83.968 256.584 84.88 256.072 85.808V84.112H254.888V92H256.136ZM263.115 92.128C264.683 92.128 265.899 91.312 266.443 89.792L265.355 89.632C264.907 90.8 264.091 91.184 263.227 91.184C261.691 91.184 260.795 90.176 260.763 88.192H266.587C266.571 88.016 266.587 87.84 266.571 87.664C266.411 85.472 265.211 83.968 263.147 83.968C261.115 83.968 259.499 85.52 259.499 88.192C259.499 90.544 260.955 92.128 263.115 92.128ZM260.811 87.344C260.907 85.856 261.883 84.912 263.147 84.912C264.411 84.912 265.195 85.824 265.323 87.344H260.811ZM269.541 92V86.592C270.261 85.584 270.917 84.992 271.829 84.992C272.597 84.992 272.997 85.52 272.997 86.464V92H274.213V86.608C274.709 85.824 275.525 85.024 276.501 85.024C277.269 85.024 277.701 85.456 277.701 86.48V92H278.933V86.4C278.933 85.76 278.773 85.248 278.533 84.88C278.213 84.288 277.669 83.984 276.853 83.984C275.605 83.984 274.677 84.88 274.133 85.744C274.037 84.624 273.301 83.968 272.149 83.968C271.013 83.968 269.973 84.912 269.509 85.696V84.112H268.309V92H269.541ZM286.198 92V86.592C286.918 85.584 287.574 84.992 288.486 84.992C289.254 84.992 289.654 85.52 289.654 86.464V92H290.87V86.608C291.366 85.824 292.182 85.024 293.158 85.024C293.926 85.024 294.358 85.456 294.358 86.48V92H295.59V86.4C295.59 85.76 295.43 85.248 295.19 84.88C294.87 84.288 294.326 83.984 293.51 83.984C292.262 83.984 291.334 84.88 290.79 85.744C290.694 84.624 289.958 83.968 288.806 83.968C287.67 83.968 286.63 84.912 286.166 85.696V84.112H284.966V92H286.198ZM300.862 92.128C302.814 92.128 304.43 90.512 304.43 88.032C304.43 85.6 303.022 83.968 300.862 83.968C298.926 83.968 297.326 85.552 297.326 88.016C297.326 90.512 298.83 92.128 300.862 92.128ZM300.846 91.2C299.518 91.2 298.638 90.016 298.638 88.032C298.638 86 299.598 84.944 300.846 84.944C302.158 84.944 303.118 85.968 303.118 88.016C303.118 90.144 302.142 91.2 300.846 91.2ZM307.496 92V81.328H306.248V92H307.496ZM312.943 92.128C314.511 92.128 315.727 91.312 316.271 89.792L315.183 89.632C314.735 90.8 313.919 91.184 313.055 91.184C311.519 91.184 310.623 90.176 310.591 88.192H316.415C316.399 88.016 316.415 87.84 316.399 87.664C316.239 85.472 315.039 83.968 312.975 83.968C310.943 83.968 309.327 85.52 309.327 88.192C309.327 90.544 310.783 92.128 312.943 92.128ZM310.639 87.344C310.735 85.856 311.711 84.912 312.975 84.912C314.239 84.912 315.023 85.824 315.151 87.344H310.639ZM320.634 92.128C322.554 92.128 323.802 91.152 323.802 89.696C323.802 88.128 322.426 87.68 320.81 87.36C319.546 87.088 318.602 86.928 318.602 86.064C318.602 85.344 319.322 84.912 320.378 84.912C321.45 84.912 322.17 85.392 322.474 86.224L323.578 85.984C323.178 84.752 322.154 83.968 320.378 83.968C318.618 83.968 317.45 84.848 317.45 86.144C317.45 87.696 318.81 88.112 320.426 88.416C321.594 88.672 322.65 88.864 322.65 89.808C322.65 90.64 321.882 91.2 320.634 91.2C319.274 91.2 318.394 90.576 318.138 89.648L317.018 89.872C317.402 91.312 318.634 92.128 320.634 92.128ZM327.689 92.112C328.121 92.112 328.601 92.064 329.033 91.984V91.008C328.745 91.056 328.281 91.104 327.913 91.104C327.241 91.088 326.809 90.72 326.809 89.888V85.104H328.585V84.112H326.809V82.048H325.673L325.609 84.112H324.313V85.104H325.593V89.824C325.593 91.456 326.361 92.112 327.689 92.112ZM331.731 82.72V81.312H330.371V82.72H331.731ZM331.683 92V84.112H330.435V92H331.683ZM335.994 92.096C337.466 92.096 338.394 91.536 339.018 90.672C339.002 91.072 339.066 91.728 339.162 92H340.346C340.218 91.504 340.17 90.96 340.17 90.464V86.88C340.17 84.896 339.306 83.968 337.066 83.968C335.194 83.968 333.962 84.736 333.674 86.176L334.826 86.304C335.082 85.296 335.754 84.944 337.034 84.944C338.362 84.944 338.874 85.408 338.97 86.272C339.002 86.464 339.002 86.736 339.002 87.008C338.378 87.024 337.85 87.024 337.21 87.104C335.05 87.36 333.482 88.208 333.482 89.92C333.482 91.36 334.602 92.096 335.994 92.096ZM336.362 91.184C335.306 91.184 334.778 90.704 334.778 89.792C334.778 88.8 335.658 88.112 337.37 87.888C337.866 87.824 338.442 87.824 339.002 87.824V89.456C338.666 90.272 337.866 91.184 336.362 91.184ZM345.04 92.128C346.96 92.128 348.208 91.152 348.208 89.696C348.208 88.128 346.832 87.68 345.216 87.36C343.952 87.088 343.008 86.928 343.008 86.064C343.008 85.344 343.728 84.912 344.784 84.912C345.856 84.912 346.576 85.392 346.88 86.224L347.984 85.984C347.584 84.752 346.56 83.968 344.784 83.968C343.024 83.968 341.856 84.848 341.856 86.144C341.856 87.696 343.216 88.112 344.832 88.416C346 88.672 347.056 88.864 347.056 89.808C347.056 90.64 346.288 91.2 345.04 91.2C343.68 91.2 342.8 90.576 342.544 89.648L341.424 89.872C341.808 91.312 343.04 92.128 345.04 92.128ZM350.384 94L351.552 91.824V90.224H349.824V92H350.496L349.536 94H350.384ZM360.04 92.128C361.96 92.128 363.208 91.152 363.208 89.696C363.208 88.128 361.832 87.68 360.216 87.36C358.952 87.088 358.008 86.928 358.008 86.064C358.008 85.344 358.728 84.912 359.784 84.912C360.856 84.912 361.576 85.392 361.88 86.224L362.984 85.984C362.584 84.752 361.56 83.968 359.784 83.968C358.024 83.968 356.856 84.848 356.856 86.144C356.856 87.696 358.216 88.112 359.832 88.416C361 88.672 362.056 88.864 362.056 89.808C362.056 90.64 361.288 91.2 360.04 91.2C358.68 91.2 357.8 90.576 357.544 89.648L356.424 89.872C356.808 91.312 358.04 92.128 360.04 92.128ZM367.288 92.128C368.344 92.128 369.304 91.664 369.928 90.656V92H371.08V84.112H369.848V89.712C369.32 90.672 368.552 91.184 367.672 91.184C366.568 91.184 366.104 90.688 366.104 89.44V84.112H364.856V89.408C364.856 91.392 365.864 92.128 367.288 92.128ZM375.962 92.128C377.882 92.128 379.13 91.152 379.13 89.696C379.13 88.128 377.754 87.68 376.138 87.36C374.874 87.088 373.93 86.928 373.93 86.064C373.93 85.344 374.65 84.912 375.706 84.912C376.778 84.912 377.498 85.392 377.802 86.224L378.906 85.984C378.506 84.752 377.482 83.968 375.706 83.968C373.946 83.968 372.778 84.848 372.778 86.144C372.778 87.696 374.138 88.112 375.754 88.416C376.922 88.672 377.978 88.864 377.978 89.808C377.978 90.64 377.21 91.2 375.962 91.2C374.602 91.2 373.722 90.576 373.466 89.648L372.346 89.872C372.73 91.312 373.962 92.128 375.962 92.128ZM383.593 92.128C385.161 92.128 386.329 91.216 386.601 89.44L385.513 89.328C385.273 90.64 384.665 91.2 383.625 91.2C382.441 91.2 381.513 90.224 381.513 88.048C381.513 86.08 382.281 84.96 383.545 84.96C384.633 84.96 385.257 85.664 385.449 86.96L386.617 86.816C386.265 84.88 385.209 83.968 383.529 83.968C381.529 83.968 380.201 85.728 380.201 88.016C380.201 90.656 381.657 92.128 383.593 92.128ZM389.591 82.72V81.312H388.231V82.72H389.591ZM389.543 92V84.112H388.295V92H389.543ZM395.662 92.112C397.246 92.112 398.67 90.72 398.67 88.048C398.67 85.2 397.454 83.968 395.694 83.968C394.43 83.968 393.63 84.736 393.15 85.504V84.112H391.966V94.672H393.198V90.96C393.678 91.536 394.51 92.112 395.662 92.112ZM395.326 91.2C394.19 91.2 393.614 90.496 393.198 89.904V86.576C393.758 85.472 394.494 84.992 395.406 84.992C396.766 84.992 397.374 85.968 397.374 88.08C397.374 90.352 396.574 91.2 395.326 91.2ZM401.809 82.72V81.312H400.449V82.72H401.809ZM401.761 92V84.112H400.513V92H401.761ZM406.392 92.112C406.824 92.112 407.304 92.064 407.736 91.984V91.008C407.448 91.056 406.984 91.104 406.616 91.104C405.944 91.088 405.512 90.72 405.512 89.888V85.104H407.288V84.112H405.512V82.048H404.376L404.312 84.112H403.016V85.104H404.296V89.824C404.296 91.456 405.064 92.112 406.392 92.112ZM409.743 94L410.911 91.824V90.224H409.183V92H409.855L408.895 94H409.743ZM419.319 92.128C420.471 92.128 421.271 91.664 421.895 90.8V92H423.063V81.328H421.863V85.184C421.495 84.656 420.743 83.968 419.543 83.968C417.527 83.968 416.311 85.744 416.311 88.08C416.311 90.656 417.415 92.128 419.319 92.128ZM419.655 91.184C418.343 91.184 417.607 90.272 417.607 88.08C417.607 86.064 418.311 84.944 419.735 84.944C420.903 84.944 421.447 85.616 421.847 86.368V89.584C421.511 90.464 420.839 91.184 419.655 91.184ZM428.521 92.128C430.089 92.128 431.305 91.312 431.849 89.792L430.761 89.632C430.313 90.8 429.497 91.184 428.633 91.184C427.097 91.184 426.201 90.176 426.169 88.192H431.993C431.977 88.016 431.993 87.84 431.977 87.664C431.817 85.472 430.617 83.968 428.553 83.968C426.521 83.968 424.905 85.52 424.905 88.192C424.905 90.544 426.361 92.128 428.521 92.128ZM426.217 87.344C426.313 85.856 427.289 84.912 428.553 84.912C429.817 84.912 430.601 85.824 430.729 87.344H426.217ZM437.191 92.112C438.983 92.112 440.279 90.752 440.279 88.032C440.279 85.392 439.175 83.968 437.287 83.968C436.151 83.968 435.143 84.752 434.743 85.616V81.328H433.559V92H434.247L434.647 90.688C435.159 91.584 436.007 92.112 437.191 92.112ZM436.951 91.216C435.687 91.216 434.759 90.272 434.759 88.624V86.72C435.191 85.808 435.847 84.96 436.999 84.96C438.327 84.96 438.999 86 438.999 88.064C438.999 90.272 438.295 91.216 436.951 91.216ZM443.419 82.72V81.312H442.059V82.72H443.419ZM443.371 92V84.112H442.123V92H443.371ZM448.002 92.112C448.434 92.112 448.914 92.064 449.346 91.984V91.008C449.058 91.056 448.594 91.104 448.226 91.104C447.554 91.088 447.122 90.72 447.122 89.888V85.104H448.898V84.112H447.122V82.048H445.986L445.922 84.112H444.626V85.104H445.906V89.824C445.906 91.456 446.674 92.112 448.002 92.112ZM452.044 82.72V81.312H450.684V82.72H452.044ZM451.996 92V84.112H450.748V92H451.996ZM456.915 92.128C458.835 92.128 460.083 91.152 460.083 89.696C460.083 88.128 458.707 87.68 457.091 87.36C455.827 87.088 454.883 86.928 454.883 86.064C454.883 85.344 455.603 84.912 456.659 84.912C457.731 84.912 458.451 85.392 458.755 86.224L459.859 85.984C459.459 84.752 458.435 83.968 456.659 83.968C454.899 83.968 453.731 84.848 453.731 86.144C453.731 87.696 455.091 88.112 456.707 88.416C457.875 88.672 458.931 88.864 458.931 89.808C458.931 90.64 458.163 91.2 456.915 91.2C455.555 91.2 454.675 90.576 454.419 89.648L453.299 89.872C453.683 91.312 454.915 92.128 456.915 92.128ZM467.946 92.128C469.866 92.128 471.114 91.152 471.114 89.696C471.114 88.128 469.738 87.68 468.122 87.36C466.858 87.088 465.914 86.928 465.914 86.064C465.914 85.344 466.634 84.912 467.69 84.912C468.762 84.912 469.482 85.392 469.786 86.224L470.89 85.984C470.49 84.752 469.466 83.968 467.69 83.968C465.93 83.968 464.762 84.848 464.762 86.144C464.762 87.696 466.122 88.112 467.738 88.416C468.906 88.672 469.962 88.864 469.962 89.808C469.962 90.64 469.194 91.2 467.946 91.2C466.586 91.2 465.706 90.576 465.45 89.648L464.33 89.872C464.714 91.312 465.946 92.128 467.946 92.128ZM475.194 92.128C476.25 92.128 477.21 91.664 477.834 90.656V92H478.986V84.112H477.754V89.712C477.226 90.672 476.458 91.184 475.578 91.184C474.474 91.184 474.01 90.688 474.01 89.44V84.112H472.762V89.408C472.762 91.392 473.77 92.128 475.194 92.128ZM482.62 92V86.592C483.276 85.648 484.108 85.008 485.116 85.008C486.012 85.008 486.428 85.456 486.428 86.4V92H487.676V86.416C487.676 84.8 486.956 83.968 485.484 83.968C484.076 83.968 483.1 84.896 482.556 85.68V84.112H481.372V92H482.62ZM492.252 92.112C492.684 92.112 493.164 92.064 493.596 91.984V91.008C493.308 91.056 492.844 91.104 492.476 91.104C491.804 91.088 491.372 90.72 491.372 89.888V85.104H493.148V84.112H491.372V82.048H490.236L490.172 84.112H488.876V85.104H490.156V89.824C490.156 91.456 490.924 92.112 492.252 92.112ZM502.349 92.112C503.933 92.112 505.357 90.72 505.357 88.048C505.357 85.2 504.141 83.968 502.381 83.968C501.117 83.968 500.317 84.736 499.837 85.504V84.112H498.653V94.672H499.885V90.96C500.365 91.536 501.197 92.112 502.349 92.112ZM502.013 91.2C500.877 91.2 500.301 90.496 499.885 89.904V86.576C500.445 85.472 501.181 84.992 502.093 84.992C503.453 84.992 504.061 85.968 504.061 88.08C504.061 90.352 503.261 91.2 502.013 91.2ZM509.057 92.096C510.529 92.096 511.457 91.536 512.081 90.672C512.065 91.072 512.129 91.728 512.225 92H513.409C513.281 91.504 513.233 90.96 513.233 90.464V86.88C513.233 84.896 512.369 83.968 510.129 83.968C508.257 83.968 507.025 84.736 506.737 86.176L507.889 86.304C508.145 85.296 508.817 84.944 510.097 84.944C511.425 84.944 511.937 85.408 512.033 86.272C512.065 86.464 512.065 86.736 512.065 87.008C511.441 87.024 510.913 87.024 510.273 87.104C508.113 87.36 506.545 88.208 506.545 89.92C506.545 91.36 507.665 92.096 509.057 92.096ZM509.425 91.184C508.369 91.184 507.841 90.704 507.841 89.792C507.841 88.8 508.721 88.112 510.433 87.888C510.929 87.824 511.505 87.824 512.065 87.824V89.456C511.729 90.272 510.929 91.184 509.425 91.184ZM516.854 92V86.848C517.51 85.744 518.438 85.104 519.366 85.104C519.462 85.104 519.622 85.104 519.718 85.12V83.984C519.59 83.968 519.494 83.968 519.35 83.968C518.23 83.968 517.302 84.88 516.79 85.808V84.112H515.606V92H516.854ZM522.294 82.72V81.312H520.934V82.72H522.294ZM522.246 92V84.112H520.998V92H522.246ZM526.557 92.096C528.029 92.096 528.957 91.536 529.581 90.672C529.565 91.072 529.629 91.728 529.725 92H530.909C530.781 91.504 530.733 90.96 530.733 90.464V86.88C530.733 84.896 529.869 83.968 527.629 83.968C525.757 83.968 524.525 84.736 524.237 86.176L525.389 86.304C525.645 85.296 526.317 84.944 527.597 84.944C528.925 84.944 529.437 85.408 529.533 86.272C529.565 86.464 529.565 86.736 529.565 87.008C528.941 87.024 528.413 87.024 527.773 87.104C525.613 87.36 524.045 88.208 524.045 89.92C524.045 91.36 525.165 92.096 526.557 92.096ZM526.925 91.184C525.869 91.184 525.341 90.704 525.341 89.792C525.341 88.8 526.221 88.112 527.933 87.888C528.429 87.824 529.005 87.824 529.565 87.824V89.456C529.229 90.272 528.429 91.184 526.925 91.184ZM535.314 92.112C535.746 92.112 536.226 92.064 536.658 91.984V91.008C536.37 91.056 535.906 91.104 535.538 91.104C534.866 91.088 534.434 90.72 534.434 89.888V85.104H536.21V84.112H534.434V82.048H533.298L533.234 84.112H531.938V85.104H533.218V89.824C533.218 91.456 533.986 92.112 535.314 92.112ZM540.428 92.128C541.484 92.128 542.444 91.664 543.068 90.656V92H544.22V84.112H542.988V89.712C542.46 90.672 541.692 91.184 540.812 91.184C539.708 91.184 539.244 90.688 539.244 89.44V84.112H537.996V89.408C537.996 91.392 539.004 92.128 540.428 92.128ZM547.854 92V86.848C548.51 85.744 549.438 85.104 550.366 85.104C550.462 85.104 550.622 85.104 550.718 85.12V83.984C550.59 83.968 550.494 83.968 550.35 83.968C549.23 83.968 548.302 84.88 547.79 85.808V84.112H546.606V92H547.854ZM3.616 112.128C4.768 112.128 5.568 111.664 6.192 110.8V112H7.36V101.328H6.16V105.184C5.792 104.656 5.04 103.968 3.84 103.968C1.824 103.968 0.608 105.744 0.608 108.08C0.608 110.656 1.712 112.128 3.616 112.128ZM3.952 111.184C2.64 111.184 1.904 110.272 1.904 108.08C1.904 106.064 2.608 104.944 4.032 104.944C5.2 104.944 5.744 105.616 6.144 106.368V109.584C5.808 110.464 5.136 111.184 3.952 111.184ZM12.8177 112.128C14.3858 112.128 15.6018 111.312 16.1458 109.792L15.0578 109.632C14.6098 110.8 13.7938 111.184 12.9298 111.184C11.3938 111.184 10.4978 110.176 10.4658 108.192H16.2898C16.2738 108.016 16.2898 107.84 16.2738 107.664C16.1138 105.472 14.9138 103.968 12.8498 103.968C10.8178 103.968 9.20175 105.52 9.20175 108.192C9.20175 110.544 10.6578 112.128 12.8177 112.128ZM10.5138 107.344C10.6098 105.856 11.5858 104.912 12.8498 104.912C14.1138 104.912 14.8978 105.824 15.0258 107.344H10.5138ZM19.2925 112V101.328H18.0445V112H19.2925ZM24.7396 112.128C26.3076 112.128 27.5236 111.312 28.0676 109.792L26.9796 109.632C26.5316 110.8 25.7156 111.184 24.8516 111.184C23.3156 111.184 22.4196 110.176 22.3876 108.192H28.2116C28.1956 108.016 28.2116 107.84 28.1956 107.664C28.0356 105.472 26.8356 103.968 24.7716 103.968C22.7396 103.968 21.1236 105.52 21.1236 108.192C21.1236 110.544 22.5796 112.128 24.7396 112.128ZM22.4356 107.344C22.5316 105.856 23.5076 104.912 24.7716 104.912C26.0356 104.912 26.8196 105.824 26.9476 107.344H22.4356ZM32.7184 112.128C34.2864 112.128 35.4544 111.216 35.7264 109.44L34.6384 109.328C34.3984 110.64 33.7904 111.2 32.7504 111.2C31.5664 111.2 30.6384 110.224 30.6384 108.048C30.6384 106.08 31.4064 104.96 32.6704 104.96C33.7584 104.96 34.3824 105.664 34.5744 106.96L35.7424 106.816C35.3904 104.88 34.3344 103.968 32.6544 103.968C30.6544 103.968 29.3264 105.728 29.3264 108.016C29.3264 110.656 30.7824 112.128 32.7184 112.128ZM39.5955 112.112C40.0275 112.112 40.5075 112.064 40.9395 111.984V111.008C40.6515 111.056 40.1875 111.104 39.8195 111.104C39.1475 111.088 38.7155 110.72 38.7155 109.888V105.104H40.4915V104.112H38.7155V102.048H37.5795L37.5155 104.112H36.2195V105.104H37.4995V109.824C37.4995 111.456 38.2675 112.112 39.5955 112.112ZM44.7094 112.128C45.7654 112.128 46.7254 111.664 47.3494 110.656V112H48.5014V104.112H47.2694V109.712C46.7414 110.672 45.9734 111.184 45.0934 111.184C43.9894 111.184 43.5254 110.688 43.5254 109.44V104.112H42.2774V109.408C42.2774 111.392 43.2854 112.128 44.7094 112.128ZM53.3835 112.128C55.3035 112.128 56.5515 111.152 56.5515 109.696C56.5515 108.128 55.1755 107.68 53.5595 107.36C52.2955 107.088 51.3515 106.928 51.3515 106.064C51.3515 105.344 52.0715 104.912 53.1275 104.912C54.1995 104.912 54.9195 105.392 55.2235 106.224L56.3275 105.984C55.9275 104.752 54.9035 103.968 53.1275 103.968C51.3675 103.968 50.1995 104.848 50.1995 106.144C50.1995 107.696 51.5595 108.112 53.1755 108.416C54.3435 108.672 55.3995 108.864 55.3995 109.808C55.3995 110.64 54.6315 111.2 53.3835 111.2C52.0235 111.2 51.1435 110.576 50.8875 109.648L49.7675 109.872C50.1515 111.312 51.3835 112.128 53.3835 112.128ZM63.8068 112.096C65.2788 112.096 66.2068 111.536 66.8308 110.672C66.8148 111.072 66.8788 111.728 66.9748 112H68.1588C68.0308 111.504 67.9828 110.96 67.9828 110.464V106.88C67.9828 104.896 67.1188 103.968 64.8788 103.968C63.0068 103.968 61.7747 104.736 61.4868 106.176L62.6388 106.304C62.8948 105.296 63.5668 104.944 64.8468 104.944C66.1748 104.944 66.6868 105.408 66.7828 106.272C66.8148 106.464 66.8148 106.736 66.8148 107.008C66.1908 107.024 65.6628 107.024 65.0228 107.104C62.8628 107.36 61.2948 108.208 61.2948 109.92C61.2948 111.36 62.4148 112.096 63.8068 112.096ZM64.1748 111.184C63.1188 111.184 62.5908 110.704 62.5908 109.792C62.5908 108.8 63.4708 108.112 65.1828 107.888C65.6788 107.824 66.2548 107.824 66.8148 107.824V109.456C66.4788 110.272 65.6788 111.184 64.1748 111.184ZM72.7723 112.128C73.9243 112.128 74.7243 111.664 75.3483 110.8V112H76.5163V101.328H75.3163V105.184C74.9483 104.656 74.1963 103.968 72.9963 103.968C70.9803 103.968 69.7643 105.744 69.7643 108.08C69.7643 110.656 70.8683 112.128 72.7723 112.128ZM73.1083 111.184C71.7963 111.184 71.0603 110.272 71.0603 108.08C71.0603 106.064 71.7643 104.944 73.1883 104.944C74.3563 104.944 74.9003 105.616 75.3003 106.368V109.584C74.9643 110.464 74.2923 111.184 73.1083 111.184ZM80.278 102.72V101.312H78.918V102.72H80.278ZM80.23 112V104.112H78.982V112H80.23ZM86.3491 112.112C87.9331 112.112 89.3571 110.72 89.3571 108.048C89.3571 105.2 88.1411 103.968 86.3811 103.968C85.1171 103.968 84.3171 104.736 83.8371 105.504V104.112H82.6531V114.672H83.8851V110.96C84.3651 111.536 85.1971 112.112 86.3491 112.112ZM86.0131 111.2C84.8771 111.2 84.3011 110.496 83.8851 109.904V106.576C84.4451 105.472 85.1811 104.992 86.0931 104.992C87.4531 104.992 88.0611 105.968 88.0611 108.08C88.0611 110.352 87.2611 111.2 86.0131 111.2ZM92.4968 102.72V101.312H91.1368V102.72H92.4968ZM92.4488 112V104.112H91.2008V112H92.4488ZM97.3679 112.128C99.2879 112.128 100.536 111.152 100.536 109.696C100.536 108.128 99.1599 107.68 97.5439 107.36C96.2799 107.088 95.3359 106.928 95.3359 106.064C95.3359 105.344 96.0559 104.912 97.1119 104.912C98.1839 104.912 98.9039 105.392 99.2079 106.224L100.312 105.984C99.9119 104.752 98.8879 103.968 97.1119 103.968C95.3519 103.968 94.1839 104.848 94.1839 106.144C94.1839 107.696 95.5439 108.112 97.1599 108.416C98.3279 108.672 99.3839 108.864 99.3839 109.808C99.3839 110.64 98.6159 111.2 97.3679 111.2C96.0079 111.2 95.1279 110.576 94.8719 109.648L93.7519 109.872C94.1359 111.312 95.3679 112.128 97.3679 112.128ZM105 112.128C106.568 112.128 107.736 111.216 108.008 109.44L106.92 109.328C106.68 110.64 106.072 111.2 105.032 111.2C103.848 111.2 102.92 110.224 102.92 108.048C102.92 106.08 103.688 104.96 104.952 104.96C106.04 104.96 106.664 105.664 106.856 106.96L108.024 106.816C107.672 104.88 106.616 103.968 104.936 103.968C102.936 103.968 101.608 105.728 101.608 108.016C101.608 110.656 103.064 112.128 105 112.128ZM110.997 102.72V101.312H109.637V102.72H110.997ZM110.949 112V104.112H109.701V112H110.949ZM113.868 114L115.036 111.824V110.224H113.308V112H113.98L113.02 114H113.868ZM124.724 112.112C126.308 112.112 127.732 110.72 127.732 108.048C127.732 105.2 126.516 103.968 124.756 103.968C123.492 103.968 122.692 104.736 122.212 105.504V104.112H121.028V114.672H122.26V110.96C122.74 111.536 123.572 112.112 124.724 112.112ZM124.388 111.2C123.252 111.2 122.676 110.496 122.26 109.904V106.576C122.82 105.472 123.556 104.992 124.468 104.992C125.828 104.992 126.436 105.968 126.436 108.08C126.436 110.352 125.636 111.2 124.388 111.2ZM130.824 112V101.328H129.576V112H130.824ZM135.135 112.096C136.607 112.096 137.535 111.536 138.159 110.672C138.143 111.072 138.207 111.728 138.303 112H139.487C139.359 111.504 139.311 110.96 139.311 110.464V106.88C139.311 104.896 138.447 103.968 136.207 103.968C134.335 103.968 133.103 104.736 132.815 106.176L133.967 106.304C134.223 105.296 134.895 104.944 136.175 104.944C137.503 104.944 138.015 105.408 138.111 106.272C138.143 106.464 138.143 106.736 138.143 107.008C137.519 107.024 136.991 107.024 136.351 107.104C134.191 107.36 132.623 108.208 132.623 109.92C132.623 111.36 133.743 112.096 135.135 112.096ZM135.503 111.184C134.447 111.184 133.919 110.704 133.919 109.792C133.919 108.8 134.799 108.112 136.511 107.888C137.007 107.824 137.583 107.824 138.143 107.824V109.456C137.807 110.272 137.007 111.184 135.503 111.184ZM144.468 112.128C146.036 112.128 147.204 111.216 147.476 109.44L146.388 109.328C146.148 110.64 145.54 111.2 144.5 111.2C143.316 111.2 142.388 110.224 142.388 108.048C142.388 106.08 143.156 104.96 144.42 104.96C145.508 104.96 146.132 105.664 146.324 106.96L147.492 106.816C147.14 104.88 146.084 103.968 144.404 103.968C142.404 103.968 141.076 105.728 141.076 108.016C141.076 110.656 142.532 112.128 144.468 112.128ZM152.161 112.128C153.73 112.128 154.946 111.312 155.49 109.792L154.402 109.632C153.954 110.8 153.138 111.184 152.274 111.184C150.738 111.184 149.842 110.176 149.81 108.192H155.634C155.618 108.016 155.634 107.84 155.618 107.664C155.458 105.472 154.258 103.968 152.194 103.968C150.162 103.968 148.546 105.52 148.546 108.192C148.546 110.544 150.002 112.128 152.161 112.128ZM149.858 107.344C149.954 105.856 150.93 104.912 152.194 104.912C153.458 104.912 154.242 105.824 154.37 107.344H149.858ZM159.244 112.096C160.716 112.096 161.644 111.536 162.268 110.672C162.252 111.072 162.316 111.728 162.412 112H163.596C163.468 111.504 163.42 110.96 163.42 110.464V106.88C163.42 104.896 162.556 103.968 160.316 103.968C158.444 103.968 157.212 104.736 156.924 106.176L158.076 106.304C158.332 105.296 159.004 104.944 160.284 104.944C161.612 104.944 162.124 105.408 162.22 106.272C162.252 106.464 162.252 106.736 162.252 107.008C161.628 107.024 161.1 107.024 160.46 107.104C158.3 107.36 156.732 108.208 156.732 109.92C156.732 111.36 157.852 112.096 159.244 112.096ZM159.612 111.184C158.556 111.184 158.028 110.704 158.028 109.792C158.028 108.8 158.908 108.112 160.62 107.888C161.116 107.824 161.692 107.824 162.252 107.824V109.456C161.916 110.272 161.116 111.184 159.612 111.184ZM168.002 112.112C168.434 112.112 168.914 112.064 169.346 111.984V111.008C169.058 111.056 168.594 111.104 168.226 111.104C167.554 111.088 167.122 110.72 167.122 109.888V105.104H168.898V104.112H167.122V102.048H165.986L165.922 104.112H164.626V105.104H165.906V109.824C165.906 111.456 166.674 112.112 168.002 112.112ZM175.731 102.72V101.312H174.371V102.72H175.731ZM175.683 112V104.112H174.435V112H175.683ZM181.802 112.112C183.386 112.112 184.81 110.72 184.81 108.048C184.81 105.2 183.594 103.968 181.834 103.968C180.57 103.968 179.77 104.736 179.29 105.504V104.112H178.106V114.672H179.338V110.96C179.818 111.536 180.65 112.112 181.802 112.112ZM181.466 111.2C180.33 111.2 179.754 110.496 179.338 109.904V106.576C179.898 105.472 180.634 104.992 181.546 104.992C182.906 104.992 183.514 105.968 183.514 108.08C183.514 110.352 182.714 111.2 181.466 111.2ZM189.118 112.128C191.038 112.128 192.286 111.152 192.286 109.696C192.286 108.128 190.91 107.68 189.294 107.36C188.03 107.088 187.086 106.928 187.086 106.064C187.086 105.344 187.806 104.912 188.862 104.912C189.934 104.912 190.654 105.392 190.958 106.224L192.062 105.984C191.662 104.752 190.638 103.968 188.862 103.968C187.102 103.968 185.934 104.848 185.934 106.144C185.934 107.696 187.294 108.112 188.91 108.416C190.078 108.672 191.134 108.864 191.134 109.808C191.134 110.64 190.366 111.2 189.118 111.2C187.758 111.2 186.878 110.576 186.622 109.648L185.502 109.872C185.886 111.312 187.118 112.128 189.118 112.128ZM196.366 112.128C197.422 112.128 198.382 111.664 199.006 110.656V112H200.158V104.112H198.926V109.712C198.398 110.672 197.63 111.184 196.75 111.184C195.646 111.184 195.182 110.688 195.182 109.44V104.112H193.934V109.408C193.934 111.392 194.942 112.128 196.366 112.128ZM203.776 112V106.592C204.496 105.584 205.152 104.992 206.064 104.992C206.832 104.992 207.232 105.52 207.232 106.464V112H208.448V106.608C208.944 105.824 209.76 105.024 210.736 105.024C211.504 105.024 211.936 105.456 211.936 106.48V112H213.168V106.4C213.168 105.76 213.008 105.248 212.768 104.88C212.448 104.288 211.904 103.984 211.088 103.984C209.84 103.984 208.912 104.88 208.368 105.744C208.272 104.624 207.536 103.968 206.384 103.968C205.248 103.968 204.208 104.912 203.744 105.696V104.112H202.544V112H203.776ZM220.448 112V106.592C221.104 105.648 221.936 105.008 222.944 105.008C223.84 105.008 224.256 105.456 224.256 106.4V112H225.504V106.416C225.504 104.8 224.784 103.968 223.312 103.968C221.904 103.968 220.928 104.896 220.384 105.68V104.112H219.2V112H220.448ZM230.8 112.128C232.752 112.128 234.368 110.512 234.368 108.032C234.368 105.6 232.96 103.968 230.8 103.968C228.864 103.968 227.264 105.552 227.264 108.016C227.264 110.512 228.768 112.128 230.8 112.128ZM230.784 111.2C229.456 111.2 228.576 110.016 228.576 108.032C228.576 106 229.536 104.944 230.784 104.944C232.096 104.944 233.056 105.968 233.056 108.016C233.056 110.144 232.08 111.2 230.784 111.2ZM237.401 112V106.592C238.057 105.648 238.889 105.008 239.897 105.008C240.793 105.008 241.209 105.456 241.209 106.4V112H242.457V106.416C242.457 104.8 241.737 103.968 240.265 103.968C238.857 103.968 237.881 104.896 237.337 105.68V104.112H236.153V112H237.401ZM249.793 112V101.328H248.545V112H249.793ZM254.104 112.096C255.576 112.096 256.504 111.536 257.128 110.672C257.112 111.072 257.176 111.728 257.272 112H258.456C258.328 111.504 258.28 110.96 258.28 110.464V106.88C258.28 104.896 257.416 103.968 255.176 103.968C253.304 103.968 252.072 104.736 251.784 106.176L252.936 106.304C253.192 105.296 253.864 104.944 255.144 104.944C256.472 104.944 256.984 105.408 257.08 106.272C257.112 106.464 257.112 106.736 257.112 107.008C256.488 107.024 255.96 107.024 255.32 107.104C253.16 107.36 251.592 108.208 251.592 109.92C251.592 111.36 252.712 112.096 254.104 112.096ZM254.472 111.184C253.416 111.184 252.888 110.704 252.888 109.792C252.888 108.8 253.768 108.112 255.48 107.888C255.976 107.824 256.552 107.824 257.112 107.824V109.456C256.776 110.272 255.976 111.184 254.472 111.184ZM264.285 112.112C266.077 112.112 267.373 110.752 267.373 108.032C267.373 105.392 266.269 103.968 264.381 103.968C263.245 103.968 262.237 104.752 261.837 105.616V101.328H260.653V112H261.341L261.741 110.688C262.253 111.584 263.101 112.112 264.285 112.112ZM264.045 111.216C262.781 111.216 261.853 110.272 261.853 108.624V106.72C262.285 105.808 262.941 104.96 264.093 104.96C265.421 104.96 266.093 106 266.093 108.064C266.093 110.272 265.389 111.216 264.045 111.216ZM272.112 112.128C274.064 112.128 275.68 110.512 275.68 108.032C275.68 105.6 274.272 103.968 272.112 103.968C270.176 103.968 268.576 105.552 268.576 108.016C268.576 110.512 270.08 112.128 272.112 112.128ZM272.096 111.2C270.768 111.2 269.888 110.016 269.888 108.032C269.888 106 270.848 104.944 272.096 104.944C273.408 104.944 274.368 105.968 274.368 108.016C274.368 110.144 273.392 111.2 272.096 111.2ZM278.714 112V106.848C279.37 105.744 280.298 105.104 281.226 105.104C281.322 105.104 281.482 105.104 281.578 105.12V103.984C281.45 103.968 281.354 103.968 281.21 103.968C280.09 103.968 279.162 104.88 278.65 105.808V104.112H277.466V112H278.714ZM284.153 102.72V101.312H282.793V102.72H284.153ZM284.105 112V104.112H282.857V112H284.105ZM289.456 112.128C291.408 112.128 293.024 110.512 293.024 108.032C293.024 105.6 291.616 103.968 289.456 103.968C287.52 103.968 285.92 105.552 285.92 108.016C285.92 110.512 287.424 112.128 289.456 112.128ZM289.44 111.2C288.112 111.2 287.232 110.016 287.232 108.032C287.232 106 288.192 104.944 289.44 104.944C290.752 104.944 291.712 105.968 291.712 108.016C291.712 110.144 290.736 111.2 289.44 111.2ZM297.305 112.128C299.225 112.128 300.473 111.152 300.473 109.696C300.473 108.128 299.097 107.68 297.481 107.36C296.217 107.088 295.273 106.928 295.273 106.064C295.273 105.344 295.993 104.912 297.049 104.912C298.121 104.912 298.841 105.392 299.145 106.224L300.249 105.984C299.849 104.752 298.825 103.968 297.049 103.968C295.289 103.968 294.121 104.848 294.121 106.144C294.121 107.696 295.481 108.112 297.097 108.416C298.265 108.672 299.321 108.864 299.321 109.808C299.321 110.64 298.553 111.2 297.305 111.2C295.945 111.2 295.065 110.576 294.809 109.648L293.689 109.872C294.073 111.312 295.305 112.128 297.305 112.128ZM304.041 112.096C305.513 112.096 306.441 111.536 307.065 110.672C307.049 111.072 307.113 111.728 307.209 112H308.393C308.265 111.504 308.217 110.96 308.217 110.464V106.88C308.217 104.896 307.353 103.968 305.113 103.968C303.241 103.968 302.009 104.736 301.721 106.176L302.873 106.304C303.129 105.296 303.801 104.944 305.081 104.944C306.409 104.944 306.921 105.408 307.017 106.272C307.049 106.464 307.049 106.736 307.049 107.008C306.425 107.024 305.897 107.024 305.257 107.104C303.097 107.36 301.529 108.208 301.529 109.92C301.529 111.36 302.649 112.096 304.041 112.096ZM304.409 111.184C303.353 111.184 302.825 110.704 302.825 109.792C302.825 108.8 303.705 108.112 305.417 107.888C305.913 107.824 306.489 107.824 307.049 107.824V109.456C306.713 110.272 305.913 111.184 304.409 111.184ZM311.823 112V106.592C312.543 105.584 313.199 104.992 314.111 104.992C314.879 104.992 315.279 105.52 315.279 106.464V112H316.495V106.608C316.991 105.824 317.807 105.024 318.783 105.024C319.551 105.024 319.983 105.456 319.983 106.48V112H321.215V106.4C321.215 105.76 321.055 105.248 320.815 104.88C320.495 104.288 319.951 103.984 319.135 103.984C317.887 103.984 316.959 104.88 316.415 105.744C316.319 104.624 315.583 103.968 314.431 103.968C313.295 103.968 312.255 104.912 311.791 105.696V104.112H310.591V112H311.823ZM324.807 109.344L325.415 101.328H323.575L324.151 109.344H324.807ZM325.319 112V110.352H323.687V112H325.319Z" fill="black"/>
<rect width="600" height="16" transform="translate(0 1)" fill="#4CAEE5" fill-opacity="0.1"/>
<path d="M600 1L0 1" stroke="#4CAEE5" stroke-width="0.5"/>
<path d="M600 17L0 17" stroke="#4CAEE5" stroke-width="0.5"/>
<path d="M300.345 17L299.191 15L301.5 15L300.345 17Z" fill="#4CAEE5"/>
<path d="M300.345 1L299.191 3H301.5L300.345 1Z" fill="#4CAEE5"/>
<rect x="291.5" y="1" width="17" height="16" rx="1" fill="#4CAEE5"/>
<path d="M297.609 14V5.46875H297.521L293.807 6.81055V8.22852L295.963 7.45508V14H297.609ZM305.15 5.39844H304.934C304.227 5.39844 303.604 5.51758 303.064 5.75586C302.525 5.99023 302.074 6.31641 301.711 6.73438C301.348 7.15625 301.074 7.65625 300.891 8.23438C300.707 8.80859 300.615 9.43359 300.615 10.1094V10.7363C300.615 11.2246 300.684 11.6758 300.82 12.0898C300.961 12.5 301.16 12.8555 301.418 13.1562C301.672 13.457 301.982 13.6934 302.35 13.8652C302.717 14.0332 303.129 14.1172 303.586 14.1172C304.023 14.1172 304.418 14.043 304.77 13.8945C305.121 13.7422 305.42 13.5352 305.666 13.2734C305.912 13.0117 306.102 12.7031 306.234 12.3477C306.367 11.9922 306.434 11.6074 306.434 11.1934C306.434 10.8066 306.383 10.4395 306.281 10.0918C306.184 9.74023 306.033 9.43164 305.83 9.16602C305.627 8.9043 305.373 8.69727 305.068 8.54492C304.768 8.38867 304.414 8.31055 304.008 8.31055C303.809 8.31055 303.623 8.33398 303.451 8.38086C303.279 8.42773 303.121 8.48828 302.977 8.5625C302.828 8.64062 302.695 8.72852 302.578 8.82617C302.461 8.91992 302.357 9.01562 302.268 9.11328C302.303 8.75781 302.387 8.43555 302.52 8.14648C302.656 7.85742 302.842 7.60938 303.076 7.40234C303.307 7.19531 303.586 7.03516 303.914 6.92188C304.246 6.80859 304.627 6.75195 305.057 6.75195H305.15V5.39844ZM303.533 9.61719C303.736 9.61719 303.916 9.6582 304.072 9.74023C304.232 9.81836 304.367 9.92773 304.477 10.0684C304.586 10.2129 304.67 10.3828 304.729 10.5781C304.787 10.7734 304.816 10.9863 304.816 11.2168C304.816 11.4473 304.787 11.6602 304.729 11.8555C304.67 12.0469 304.586 12.2129 304.477 12.3535C304.367 12.4941 304.234 12.6055 304.078 12.6875C303.922 12.7656 303.748 12.8047 303.557 12.8047C303.369 12.8047 303.195 12.7656 303.035 12.6875C302.875 12.6094 302.736 12.4922 302.619 12.3359C302.502 12.1836 302.41 11.9902 302.344 11.7559C302.281 11.5215 302.25 11.248 302.25 10.9355V10.4551C302.305 10.3379 302.371 10.2305 302.449 10.1328C302.531 10.0352 302.621 9.94922 302.719 9.875C302.832 9.79297 302.957 9.73047 303.094 9.6875C303.23 9.64062 303.377 9.61719 303.533 9.61719Z" fill="white"/>
<rect width="600" height="16" transform="translate(0 40)" fill="#4CAEE5" fill-opacity="0.1"/>
<path d="M600 40L0 40" stroke="#4CAEE5" stroke-width="0.5"/>
<path d="M600 56L0 56" stroke="#4CAEE5" stroke-width="0.5"/>
<path d="M300.345 56L299.191 54L301.5 54L300.345 56Z" fill="#4CAEE5"/>
<path d="M300.345 40L299.191 42H301.5L300.345 40Z" fill="#4CAEE5"/>
<rect x="291.5" y="40" width="17" height="16" rx="1" fill="#4CAEE5"/>
<path d="M297.609 53V44.4688H297.521L293.807 45.8105V47.2285L295.963 46.4551V53H297.609ZM305.15 44.3984H304.934C304.227 44.3984 303.604 44.5176 303.064 44.7559C302.525 44.9902 302.074 45.3164 301.711 45.7344C301.348 46.1562 301.074 46.6562 300.891 47.2344C300.707 47.8086 300.615 48.4336 300.615 49.1094V49.7363C300.615 50.2246 300.684 50.6758 300.82 51.0898C300.961 51.5 301.16 51.8555 301.418 52.1562C301.672 52.457 301.982 52.6934 302.35 52.8652C302.717 53.0332 303.129 53.1172 303.586 53.1172C304.023 53.1172 304.418 53.043 304.77 52.8945C305.121 52.7422 305.42 52.5352 305.666 52.2734C305.912 52.0117 306.102 51.7031 306.234 51.3477C306.367 50.9922 306.434 50.6074 306.434 50.1934C306.434 49.8066 306.383 49.4395 306.281 49.0918C306.184 48.7402 306.033 48.4316 305.83 48.166C305.627 47.9043 305.373 47.6973 305.068 47.5449C304.768 47.3887 304.414 47.3105 304.008 47.3105C303.809 47.3105 303.623 47.334 303.451 47.3809C303.279 47.4277 303.121 47.4883 302.977 47.5625C302.828 47.6406 302.695 47.7285 302.578 47.8262C302.461 47.9199 302.357 48.0156 302.268 48.1133C302.303 47.7578 302.387 47.4355 302.52 47.1465C302.656 46.8574 302.842 46.6094 303.076 46.4023C303.307 46.1953 303.586 46.0352 303.914 45.9219C304.246 45.8086 304.627 45.752 305.057 45.752H305.15V44.3984ZM303.533 48.6172C303.736 48.6172 303.916 48.6582 304.072 48.7402C304.232 48.8184 304.367 48.9277 304.477 49.0684C304.586 49.2129 304.67 49.3828 304.729 49.5781C304.787 49.7734 304.816 49.9863 304.816 50.2168C304.816 50.4473 304.787 50.6602 304.729 50.8555C304.67 51.0469 304.586 51.2129 304.477 51.3535C304.367 51.4941 304.234 51.6055 304.078 51.6875C303.922 51.7656 303.748 51.8047 303.557 51.8047C303.369 51.8047 303.195 51.7656 303.035 51.6875C302.875 51.6094 302.736 51.4922 302.619 51.3359C302.502 51.1836 302.41 50.9902 302.344 50.7559C302.281 50.5215 302.25 50.248 302.25 49.9355V49.4551C302.305 49.3379 302.371 49.2305 302.449 49.1328C302.531 49.0352 302.621 48.9492 302.719 48.875C302.832 48.793 302.957 48.7305 303.094 48.6875C303.23 48.6406 303.377 48.6172 303.533 48.6172Z" fill="white"/>
<rect width="600" height="16" transform="translate(0 116)" fill="#4CAEE5" fill-opacity="0.1"/>
<path d="M600 116L0 116" stroke="#4CAEE5" stroke-width="0.5"/>
<path d="M600 132L0 132" stroke="#4CAEE5" stroke-width="0.5"/>
<path d="M300.345 132L299.191 130L301.5 130L300.345 132Z" fill="#4CAEE5"/>
<path d="M300.345 116L299.191 118H301.5L300.345 116Z" fill="#4CAEE5"/>
<rect x="291.5" y="116" width="17" height="16" rx="1" fill="#4CAEE5"/>
<path d="M297.609 129V120.469H297.521L293.807 121.811V123.229L295.963 122.455V129H297.609ZM305.15 120.398H304.934C304.227 120.398 303.604 120.518 303.064 120.756C302.525 120.99 302.074 121.316 301.711 121.734C301.348 122.156 301.074 122.656 300.891 123.234C300.707 123.809 300.615 124.434 300.615 125.109V125.736C300.615 126.225 300.684 126.676 300.82 127.09C300.961 127.5 301.16 127.855 301.418 128.156C301.672 128.457 301.982 128.693 302.35 128.865C302.717 129.033 303.129 129.117 303.586 129.117C304.023 129.117 304.418 129.043 304.77 128.895C305.121 128.742 305.42 128.535 305.666 128.273C305.912 128.012 306.102 127.703 306.234 127.348C306.367 126.992 306.434 126.607 306.434 126.193C306.434 125.807 306.383 125.439 306.281 125.092C306.184 124.74 306.033 124.432 305.83 124.166C305.627 123.904 305.373 123.697 305.068 123.545C304.768 123.389 304.414 123.311 304.008 123.311C303.809 123.311 303.623 123.334 303.451 123.381C303.279 123.428 303.121 123.488 302.977 123.562C302.828 123.641 302.695 123.729 302.578 123.826C302.461 123.92 302.357 124.016 302.268 124.113C302.303 123.758 302.387 123.436 302.52 123.146C302.656 122.857 302.842 122.609 303.076 122.402C303.307 122.195 303.586 122.035 303.914 121.922C304.246 121.809 304.627 121.752 305.057 121.752H305.15V120.398ZM303.533 124.617C303.736 124.617 303.916 124.658 304.072 124.74C304.232 124.818 304.367 124.928 304.477 125.068C304.586 125.213 304.67 125.383 304.729 125.578C304.787 125.773 304.816 125.986 304.816 126.217C304.816 126.447 304.787 126.66 304.729 126.855C304.67 127.047 304.586 127.213 304.477 127.354C304.367 127.494 304.234 127.605 304.078 127.688C303.922 127.766 303.748 127.805 303.557 127.805C303.369 127.805 303.195 127.766 303.035 127.688C302.875 127.609 302.736 127.492 302.619 127.336C302.502 127.184 302.41 126.99 302.344 126.756C302.281 126.521 302.25 126.248 302.25 125.936V125.455C302.305 125.338 302.371 125.23 302.449 125.133C302.531 125.035 302.621 124.949 302.719 124.875C302.832 124.793 302.957 124.73 303.094 124.688C303.23 124.641 303.377 124.617 303.533 124.617Z" fill="white"/>
<defs>
<clipPath id="clip0">
<rect width="600" height="56" fill="white"/>
</clipPath>
</defs>
</svg>
