<svg width="700" height="119" viewBox="0 0 700 119" fill="none" xmlns="http://www.w3.org/2000/svg">
<g filter="url(#filter0_d_1228_18874)">
<path d="M2 3C2 1.89543 2.89543 1 4 1H135C136.105 1 137 1.89543 137 3V114C137 115.105 136.105 116 135 116H4C2.89543 116 2 115.105 2 114V3Z" fill="white"/>
<rect width="135" height="85" transform="translate(2 1)" fill="#333333"/>
<path d="M11.088 105.144C12.464 105.144 13.424 104.696 14.08 103.848L14.496 105H15.84V99.544H11.296V101.416H13.36C13.344 101.496 13.328 101.64 13.296 101.8C13.152 102.648 12.432 103.16 11.456 103.16C10.016 103.16 9.312 101.976 9.312 99.64C9.312 97.352 9.984 96.12 11.408 96.12C12.528 96.12 13.072 97.032 13.264 98.088L15.776 97.544C15.264 95.48 13.968 94.12 11.472 94.12C8.304 94.12 6.528 96.264 6.528 99.848C6.528 103.176 8.368 105.144 11.088 105.144ZM20.1751 105V100.248C20.6231 99.4 21.4231 98.92 22.3671 98.92C22.5751 98.92 22.9271 98.936 23.0871 98.968V96.968C22.9591 96.936 22.7511 96.92 22.5111 96.92C21.3431 96.92 20.3991 97.784 20.0311 98.728V97.064H17.6631V105H20.1751ZM26.0359 105.096C27.4439 105.096 28.2759 104.68 28.9639 103.976C28.9639 104.424 28.9959 104.84 29.0919 105H31.4599C31.3159 104.696 31.2839 103.912 31.2839 103.448V99.784C31.2839 98.072 30.5159 96.92 27.8439 96.92C25.5079 96.92 24.1799 97.736 23.7959 99.32L26.0679 99.528C26.2279 98.856 26.6759 98.536 27.6039 98.536C28.4679 98.536 28.8359 98.92 28.8839 99.544C28.8839 99.608 28.8999 99.848 28.8999 99.928C28.5639 99.944 28.2439 99.976 27.9399 100.008C25.1719 100.28 23.5879 101.16 23.5879 102.92C23.5879 104.264 24.5639 105.096 26.0359 105.096ZM27.1559 103.56C26.5319 103.56 26.1479 103.288 26.1479 102.696C26.1479 101.944 26.8359 101.48 28.0519 101.272C28.3079 101.224 28.5959 101.192 28.8999 101.176V102.568C28.5639 103.08 27.9719 103.56 27.1559 103.56ZM32.6058 107.752C32.7658 107.752 32.9098 107.768 33.0538 107.768C35.5978 107.768 36.4298 106.856 36.8778 105.624L40.0138 97.064H37.9978L36.6378 101.048L36.3658 101.912L36.0938 101.032L34.7338 97.064H32.0777L34.6698 103.736C34.8138 104.12 34.8938 104.456 34.8938 104.744C34.8938 105.512 34.3338 105.96 33.0698 105.96C32.9258 105.96 32.7818 105.96 32.6058 105.944V107.752ZM44.0034 101.64V99.608H40.1794V101.64H44.0034ZM45.3841 105H49.5281C52.5521 105 54.5041 102.696 54.5041 99.672C54.5041 98.024 54.0081 96.568 53.0001 95.608C52.1521 94.776 50.9041 94.328 49.4481 94.328H45.3841V105ZM48.0241 96.36H49.3041C50.8241 96.36 51.7681 97.688 51.7681 99.624C51.7681 101.736 50.7121 102.984 49.3041 102.984H48.0241V96.36ZM57.8484 105.096C59.2564 105.096 60.0884 104.68 60.7764 103.976C60.7764 104.424 60.8084 104.84 60.9044 105H63.2724C63.1284 104.696 63.0964 103.912 63.0964 103.448V99.784C63.0964 98.072 62.3284 96.92 59.6564 96.92C57.3204 96.92 55.9924 97.736 55.6084 99.32L57.8804 99.528C58.0404 98.856 58.4884 98.536 59.4164 98.536C60.2804 98.536 60.6484 98.92 60.6964 99.544C60.6964 99.608 60.7124 99.848 60.7124 99.928C60.3764 99.944 60.0564 99.976 59.7524 100.008C56.9844 100.28 55.4004 101.16 55.4004 102.92C55.4004 104.264 56.3764 105.096 57.8484 105.096ZM58.9684 103.56C58.3444 103.56 57.9604 103.288 57.9604 102.696C57.9604 101.944 58.6484 101.48 59.8644 101.272C60.1204 101.224 60.4084 101.192 60.7124 101.176V102.568C60.3764 103.08 59.7844 103.56 58.9684 103.56ZM67.5033 105V100.248C67.9513 99.4 68.7513 98.92 69.6953 98.92C69.9033 98.92 70.2553 98.936 70.4153 98.968V96.968C70.2873 96.936 70.0793 96.92 69.8393 96.92C68.6713 96.92 67.7273 97.784 67.3593 98.728V97.064H64.9913V105H67.5033ZM73.9709 105V102.744L75.0909 101.512L76.7709 105H79.4109L76.7549 99.768L79.1389 97.064H76.8669L74.3869 99.912L73.9389 100.472L73.9709 99.752V94.328H71.5069V105H73.9709ZM83.9201 105.128C85.9681 105.128 87.2801 104.136 87.8081 102.632L85.7441 102.36C85.4561 103.144 84.9441 103.544 84.1441 103.544C83.1681 103.544 82.4321 102.92 82.4001 101.496H87.8881C87.9041 101.32 87.9041 101.192 87.9041 101.016C87.8401 98.552 86.3841 96.92 83.9041 96.92C81.6961 96.92 79.8081 98.584 79.8081 101.144C79.8081 103.56 81.5361 105.128 83.9201 105.128ZM82.4321 100.2C82.4961 99.112 83.1361 98.472 83.9361 98.472C84.8641 98.472 85.3281 99.128 85.4081 100.2H82.4321ZM91.8158 105V100.248C92.2638 99.4 93.0638 98.92 94.0078 98.92C94.2158 98.92 94.5678 98.936 94.7278 98.968V96.968C94.5998 96.936 94.3918 96.92 94.1518 96.92C92.9838 96.92 92.0398 97.784 91.6718 98.728V97.064H89.3038V105H91.8158Z" fill="#111111"/>
</g>
<g filter="url(#filter1_d_1228_18874)">
<path d="M189 3C189 1.89543 189.895 1 191 1H322C323.105 1 324 1.89543 324 3V114C324 115.105 323.105 116 322 116H191C189.895 116 189 115.105 189 114V3Z" fill="white"/>
<rect width="135" height="85" transform="translate(189 1)" fill="#666666"/>
<path d="M198.088 105.144C199.464 105.144 200.424 104.696 201.08 103.848L201.496 105H202.84V99.544H198.296V101.416H200.36C200.344 101.496 200.328 101.64 200.296 101.8C200.152 102.648 199.432 103.16 198.456 103.16C197.016 103.16 196.312 101.976 196.312 99.64C196.312 97.352 196.984 96.12 198.408 96.12C199.528 96.12 200.072 97.032 200.264 98.088L202.776 97.544C202.264 95.48 200.968 94.12 198.472 94.12C195.304 94.12 193.528 96.264 193.528 99.848C193.528 103.176 195.368 105.144 198.088 105.144ZM207.175 105V100.248C207.623 99.4 208.423 98.92 209.367 98.92C209.575 98.92 209.927 98.936 210.087 98.968V96.968C209.959 96.936 209.751 96.92 209.511 96.92C208.343 96.92 207.399 97.784 207.031 98.728V97.064H204.663V105H207.175ZM213.036 105.096C214.444 105.096 215.276 104.68 215.964 103.976C215.964 104.424 215.996 104.84 216.092 105H218.46C218.316 104.696 218.284 103.912 218.284 103.448V99.784C218.284 98.072 217.516 96.92 214.844 96.92C212.508 96.92 211.18 97.736 210.796 99.32L213.068 99.528C213.228 98.856 213.676 98.536 214.604 98.536C215.468 98.536 215.836 98.92 215.884 99.544C215.884 99.608 215.9 99.848 215.9 99.928C215.564 99.944 215.244 99.976 214.94 100.008C212.172 100.28 210.588 101.16 210.588 102.92C210.588 104.264 211.564 105.096 213.036 105.096ZM214.156 103.56C213.532 103.56 213.148 103.288 213.148 102.696C213.148 101.944 213.836 101.48 215.052 101.272C215.308 101.224 215.596 101.192 215.9 101.176V102.568C215.564 103.08 214.972 103.56 214.156 103.56ZM219.606 107.752C219.766 107.752 219.91 107.768 220.054 107.768C222.598 107.768 223.43 106.856 223.878 105.624L227.014 97.064H224.998L223.638 101.048L223.366 101.912L223.094 101.032L221.734 97.064H219.078L221.67 103.736C221.814 104.12 221.894 104.456 221.894 104.744C221.894 105.512 221.334 105.96 220.07 105.96C219.926 105.96 219.782 105.96 219.606 105.944V107.752ZM231.003 101.64V99.608H227.179V101.64H231.003ZM232.384 105H236.528C239.552 105 241.504 102.696 241.504 99.672C241.504 98.024 241.008 96.568 240 95.608C239.152 94.776 237.904 94.328 236.448 94.328H232.384V105ZM235.024 96.36H236.304C237.824 96.36 238.768 97.688 238.768 99.624C238.768 101.736 237.712 102.984 236.304 102.984H235.024V96.36ZM244.848 105.096C246.256 105.096 247.088 104.68 247.776 103.976C247.776 104.424 247.808 104.84 247.904 105H250.272C250.128 104.696 250.096 103.912 250.096 103.448V99.784C250.096 98.072 249.328 96.92 246.656 96.92C244.32 96.92 242.992 97.736 242.608 99.32L244.88 99.528C245.04 98.856 245.488 98.536 246.416 98.536C247.28 98.536 247.648 98.92 247.696 99.544C247.696 99.608 247.712 99.848 247.712 99.928C247.376 99.944 247.056 99.976 246.752 100.008C243.984 100.28 242.4 101.16 242.4 102.92C242.4 104.264 243.376 105.096 244.848 105.096ZM245.968 103.56C245.344 103.56 244.96 103.288 244.96 102.696C244.96 101.944 245.648 101.48 246.864 101.272C247.12 101.224 247.408 101.192 247.712 101.176V102.568C247.376 103.08 246.784 103.56 245.968 103.56ZM254.503 105V100.248C254.951 99.4 255.751 98.92 256.695 98.92C256.903 98.92 257.255 98.936 257.415 98.968V96.968C257.287 96.936 257.079 96.92 256.839 96.92C255.671 96.92 254.727 97.784 254.359 98.728V97.064H251.991V105H254.503ZM260.971 105V102.744L262.091 101.512L263.771 105H266.411L263.755 99.768L266.139 97.064H263.867L261.387 99.912L260.939 100.472L260.971 99.752V94.328H258.507V105H260.971Z" fill="#111111"/>
</g>
<g filter="url(#filter2_d_1228_18874)">
<path d="M376 3C376 1.89543 376.895 1 378 1H509C510.105 1 511 1.89543 511 3V114C511 115.105 510.105 116 509 116H378C376.895 116 376 115.105 376 114V3Z" fill="white"/>
<rect width="135" height="85" transform="translate(376 1)" fill="#D5D5D5"/>
<path d="M385.088 105.144C386.464 105.144 387.424 104.696 388.08 103.848L388.496 105H389.84V99.544H385.296V101.416H387.36C387.344 101.496 387.328 101.64 387.296 101.8C387.152 102.648 386.432 103.16 385.456 103.16C384.016 103.16 383.312 101.976 383.312 99.64C383.312 97.352 383.984 96.12 385.408 96.12C386.528 96.12 387.072 97.032 387.264 98.088L389.776 97.544C389.264 95.48 387.968 94.12 385.472 94.12C382.304 94.12 380.528 96.264 380.528 99.848C380.528 103.176 382.368 105.144 385.088 105.144ZM394.175 105V100.248C394.623 99.4 395.423 98.92 396.367 98.92C396.575 98.92 396.927 98.936 397.087 98.968V96.968C396.959 96.936 396.751 96.92 396.511 96.92C395.343 96.92 394.399 97.784 394.031 98.728V97.064H391.663V105H394.175ZM400.036 105.096C401.444 105.096 402.276 104.68 402.964 103.976C402.964 104.424 402.996 104.84 403.092 105H405.46C405.316 104.696 405.284 103.912 405.284 103.448V99.784C405.284 98.072 404.516 96.92 401.844 96.92C399.508 96.92 398.18 97.736 397.796 99.32L400.068 99.528C400.228 98.856 400.676 98.536 401.604 98.536C402.468 98.536 402.836 98.92 402.884 99.544C402.884 99.608 402.9 99.848 402.9 99.928C402.564 99.944 402.244 99.976 401.94 100.008C399.172 100.28 397.588 101.16 397.588 102.92C397.588 104.264 398.564 105.096 400.036 105.096ZM401.156 103.56C400.532 103.56 400.148 103.288 400.148 102.696C400.148 101.944 400.836 101.48 402.052 101.272C402.308 101.224 402.596 101.192 402.9 101.176V102.568C402.564 103.08 401.972 103.56 401.156 103.56ZM406.606 107.752C406.766 107.752 406.91 107.768 407.054 107.768C409.598 107.768 410.43 106.856 410.878 105.624L414.014 97.064H411.998L410.638 101.048L410.366 101.912L410.094 101.032L408.734 97.064H406.078L408.67 103.736C408.814 104.12 408.894 104.456 408.894 104.744C408.894 105.512 408.334 105.96 407.07 105.96C406.926 105.96 406.782 105.96 406.606 105.944V107.752ZM418.003 101.64V99.608H414.179V101.64H418.003ZM421.784 105V94.328H419.288V105H421.784ZM426.238 96.216V94.12H423.71V96.216H426.238ZM426.222 105V97.064H423.726V105H426.222ZM431.571 107.816C434.643 107.816 435.907 106.856 435.907 105.24C435.907 103.736 435.027 103.064 432.275 102.968C430.675 102.92 430.003 102.92 430.003 102.456C430.003 102.104 430.323 101.928 430.579 101.944C430.707 101.96 431.219 102.024 431.507 102.024C433.811 102.024 435.027 101.112 435.027 99.512C435.027 98.776 434.707 98.168 434.339 97.896C434.483 97.608 434.755 97.48 435.123 97.48C435.363 97.48 435.603 97.528 435.779 97.64V95.88C435.731 95.864 435.523 95.832 435.411 95.832C434.355 95.832 433.507 96.152 433.299 97.272C432.803 97.016 431.859 96.904 431.395 96.904C429.491 96.904 427.955 97.832 427.955 99.48C427.955 100.424 428.323 101.192 429.443 101.576C428.291 101.816 427.763 102.408 427.763 103.096C427.763 103.704 428.147 104.216 429.123 104.456C428.115 104.664 427.347 105.096 427.347 106.04C427.347 107.368 428.995 107.816 431.571 107.816ZM431.523 100.744C430.787 100.744 430.307 100.312 430.307 99.48C430.307 98.76 430.771 98.28 431.523 98.28C432.291 98.28 432.739 98.776 432.739 99.48C432.739 100.28 432.323 100.744 431.523 100.744ZM431.283 106.44C430.019 106.44 429.283 106.216 429.283 105.624C429.283 105.16 429.603 104.888 430.051 104.776C433.107 104.904 433.731 104.968 433.731 105.592C433.731 106.216 432.851 106.44 431.283 106.44ZM439.347 105V99.624C439.667 99.176 440.115 98.664 440.771 98.664C441.315 98.664 441.619 98.984 441.619 99.592V105H444.131V99.304C444.131 97.992 443.427 96.92 441.891 96.92C440.643 96.92 439.923 97.48 439.331 98.184V94.328H436.851V105H439.347ZM449.175 105.112C449.671 105.112 450.231 105.064 450.615 105.016V103.24C450.279 103.272 449.975 103.272 449.671 103.24C449.079 103.16 448.823 102.808 448.823 102.184V98.744H450.455V97.064H448.823V94.632H446.583L446.423 97.064H445.143V98.744H446.407V102.584C446.407 104.264 447.367 105.112 449.175 105.112Z" fill="#111111"/>
</g>
<g filter="url(#filter3_d_1228_18874)">
<path d="M563 3C563 1.89543 563.895 1 565 1H696C697.105 1 698 1.89543 698 3V114C698 115.105 697.105 116 696 116H565C563.895 116 563 115.105 563 114V3Z" fill="white"/>
<rect width="135" height="85" transform="translate(563 1)" fill="#D5D5D5"/>
<path d="M572.088 105.144C573.464 105.144 574.424 104.696 575.08 103.848L575.496 105H576.84V99.544H572.296V101.416H574.36C574.344 101.496 574.328 101.64 574.296 101.8C574.152 102.648 573.432 103.16 572.456 103.16C571.016 103.16 570.312 101.976 570.312 99.64C570.312 97.352 570.984 96.12 572.408 96.12C573.528 96.12 574.072 97.032 574.264 98.088L576.776 97.544C576.264 95.48 574.968 94.12 572.472 94.12C569.304 94.12 567.528 96.264 567.528 99.848C567.528 103.176 569.368 105.144 572.088 105.144ZM581.175 105V100.248C581.623 99.4 582.423 98.92 583.367 98.92C583.575 98.92 583.927 98.936 584.087 98.968V96.968C583.959 96.936 583.751 96.92 583.511 96.92C582.343 96.92 581.399 97.784 581.031 98.728V97.064H578.663V105H581.175ZM587.036 105.096C588.444 105.096 589.276 104.68 589.964 103.976C589.964 104.424 589.996 104.84 590.092 105H592.46C592.316 104.696 592.284 103.912 592.284 103.448V99.784C592.284 98.072 591.516 96.92 588.844 96.92C586.508 96.92 585.18 97.736 584.796 99.32L587.068 99.528C587.228 98.856 587.676 98.536 588.604 98.536C589.468 98.536 589.836 98.92 589.884 99.544C589.884 99.608 589.9 99.848 589.9 99.928C589.564 99.944 589.244 99.976 588.94 100.008C586.172 100.28 584.588 101.16 584.588 102.92C584.588 104.264 585.564 105.096 587.036 105.096ZM588.156 103.56C587.532 103.56 587.148 103.288 587.148 102.696C587.148 101.944 587.836 101.48 589.052 101.272C589.308 101.224 589.596 101.192 589.9 101.176V102.568C589.564 103.08 588.972 103.56 588.156 103.56ZM593.606 107.752C593.766 107.752 593.91 107.768 594.054 107.768C596.598 107.768 597.43 106.856 597.878 105.624L601.014 97.064H598.998L597.638 101.048L597.366 101.912L597.094 101.032L595.734 97.064H593.078L595.67 103.736C595.814 104.12 595.894 104.456 595.894 104.744C595.894 105.512 595.334 105.96 594.07 105.96C593.926 105.96 593.782 105.96 593.606 105.944V107.752ZM605.003 101.64V99.608H601.179V101.64H605.003ZM608.784 105V94.328H606.288V105H608.784ZM613.238 96.216V94.12H610.71V96.216H613.238ZM613.222 105V97.064H610.726V105H613.222ZM618.571 107.816C621.643 107.816 622.907 106.856 622.907 105.24C622.907 103.736 622.027 103.064 619.275 102.968C617.675 102.92 617.003 102.92 617.003 102.456C617.003 102.104 617.323 101.928 617.579 101.944C617.707 101.96 618.219 102.024 618.507 102.024C620.811 102.024 622.027 101.112 622.027 99.512C622.027 98.776 621.707 98.168 621.339 97.896C621.483 97.608 621.755 97.48 622.123 97.48C622.363 97.48 622.603 97.528 622.779 97.64V95.88C622.731 95.864 622.523 95.832 622.411 95.832C621.355 95.832 620.507 96.152 620.299 97.272C619.803 97.016 618.859 96.904 618.395 96.904C616.491 96.904 614.955 97.832 614.955 99.48C614.955 100.424 615.323 101.192 616.443 101.576C615.291 101.816 614.763 102.408 614.763 103.096C614.763 103.704 615.147 104.216 616.123 104.456C615.115 104.664 614.347 105.096 614.347 106.04C614.347 107.368 615.995 107.816 618.571 107.816ZM618.523 100.744C617.787 100.744 617.307 100.312 617.307 99.48C617.307 98.76 617.771 98.28 618.523 98.28C619.291 98.28 619.739 98.776 619.739 99.48C619.739 100.28 619.323 100.744 618.523 100.744ZM618.283 106.44C617.019 106.44 616.283 106.216 616.283 105.624C616.283 105.16 616.603 104.888 617.051 104.776C620.107 104.904 620.731 104.968 620.731 105.592C620.731 106.216 619.851 106.44 618.283 106.44ZM626.347 105V99.624C626.667 99.176 627.115 98.664 627.771 98.664C628.315 98.664 628.619 98.984 628.619 99.592V105H631.131V99.304C631.131 97.992 630.427 96.92 628.891 96.92C627.643 96.92 626.923 97.48 626.331 98.184V94.328H623.851V105H626.347ZM636.175 105.112C636.671 105.112 637.231 105.064 637.615 105.016V103.24C637.279 103.272 636.975 103.272 636.671 103.24C636.079 103.16 635.823 102.808 635.823 102.184V98.744H637.455V97.064H635.823V94.632H633.583L633.423 97.064H632.143V98.744H633.407V102.584C633.407 104.264 634.367 105.112 636.175 105.112Z" fill="#111111"/>
</g>
<defs>
<filter id="filter0_d_1228_18874" x="0" y="0" width="139" height="119" filterUnits="userSpaceOnUse" color-interpolation-filters="sRGB">
<feFlood flood-opacity="0" result="BackgroundImageFix"/>
<feColorMatrix in="SourceAlpha" type="matrix" values="0 0 0 0 0 0 0 0 0 0 0 0 0 0 0 0 0 0 127 0" result="hardAlpha"/>
<feOffset dy="1"/>
<feGaussianBlur stdDeviation="1"/>
<feComposite in2="hardAlpha" operator="out"/>
<feColorMatrix type="matrix" values="0 0 0 0 0.4 0 0 0 0 0.4 0 0 0 0 0.4 0 0 0 0.25 0"/>
<feBlend mode="normal" in2="BackgroundImageFix" result="effect1_dropShadow_1228_18874"/>
<feBlend mode="normal" in="SourceGraphic" in2="effect1_dropShadow_1228_18874" result="shape"/>
</filter>
<filter id="filter1_d_1228_18874" x="187" y="0" width="139" height="119" filterUnits="userSpaceOnUse" color-interpolation-filters="sRGB">
<feFlood flood-opacity="0" result="BackgroundImageFix"/>
<feColorMatrix in="SourceAlpha" type="matrix" values="0 0 0 0 0 0 0 0 0 0 0 0 0 0 0 0 0 0 127 0" result="hardAlpha"/>
<feOffset dy="1"/>
<feGaussianBlur stdDeviation="1"/>
<feComposite in2="hardAlpha" operator="out"/>
<feColorMatrix type="matrix" values="0 0 0 0 0.4 0 0 0 0 0.4 0 0 0 0 0.4 0 0 0 0.25 0"/>
<feBlend mode="normal" in2="BackgroundImageFix" result="effect1_dropShadow_1228_18874"/>
<feBlend mode="normal" in="SourceGraphic" in2="effect1_dropShadow_1228_18874" result="shape"/>
</filter>
<filter id="filter2_d_1228_18874" x="374" y="0" width="139" height="119" filterUnits="userSpaceOnUse" color-interpolation-filters="sRGB">
<feFlood flood-opacity="0" result="BackgroundImageFix"/>
<feColorMatrix in="SourceAlpha" type="matrix" values="0 0 0 0 0 0 0 0 0 0 0 0 0 0 0 0 0 0 127 0" result="hardAlpha"/>
<feOffset dy="1"/>
<feGaussianBlur stdDeviation="1"/>
<feComposite in2="hardAlpha" operator="out"/>
<feColorMatrix type="matrix" values="0 0 0 0 0.4 0 0 0 0 0.4 0 0 0 0 0.4 0 0 0 0.25 0"/>
<feBlend mode="normal" in2="BackgroundImageFix" result="effect1_dropShadow_1228_18874"/>
<feBlend mode="normal" in="SourceGraphic" in2="effect1_dropShadow_1228_18874" result="shape"/>
</filter>
<filter id="filter3_d_1228_18874" x="561" y="0" width="139" height="119" filterUnits="userSpaceOnUse" color-interpolation-filters="sRGB">
<feFlood flood-opacity="0" result="BackgroundImageFix"/>
<feColorMatrix in="SourceAlpha" type="matrix" values="0 0 0 0 0 0 0 0 0 0 0 0 0 0 0 0 0 0 127 0" result="hardAlpha"/>
<feOffset dy="1"/>
<feGaussianBlur stdDeviation="1"/>
<feComposite in2="hardAlpha" operator="out"/>
<feColorMatrix type="matrix" values="0 0 0 0 0.4 0 0 0 0 0.4 0 0 0 0 0.4 0 0 0 0.25 0"/>
<feBlend mode="normal" in2="BackgroundImageFix" result="effect1_dropShadow_1228_18874"/>
<feBlend mode="normal" in="SourceGraphic" in2="effect1_dropShadow_1228_18874" result="shape"/>
</filter>
</defs>
</svg>
