<svg width="160" height="160" viewBox="0 0 160 160" fill="none" xmlns="http://www.w3.org/2000/svg">
<path d="M52.6938 10.3992H13.3452V84.8898H52.6938V10.3992Z" fill="#FAFAFA"/>
<path d="M25.6 85.606C25.6 85.606 21.2815 52.0914 19.0337 48.4105C19.0337 48.4105 31.9222 37.9348 32.3186 9.55268H12.7576V85.606H25.6Z" fill="#EBEBEB"/>
<path d="M40.4284 85.4566C40.4284 85.4566 44.7399 51.942 46.9983 48.2611C46.9983 48.2611 34.1062 37.7892 33.7133 9.40331H53.2744V85.4566H40.4284Z" fill="#EBEBEB"/>
<path d="M53.7274 7.56478H9.69556V87.3526H55.5504V7.56478H53.7274ZM21.2531 49.0195V67.9907H13.3451V49.0195H21.2531ZM13.3451 47.6445V28.0068H21.2531V47.6445H13.3451ZM33.292 47.6445V28.0068H43.1823V47.6445H33.292ZM43.1823 49.0195V67.9907H33.292V49.0195H43.1823ZM21.5894 47.6445V28.0068H32.0106V47.6445H21.5894ZM32.0106 49.0195V67.9907H21.6035V49.0195H32.0106ZM21.6035 27.6697V10.3992H32.0248V27.6697H21.6035ZM32.0248 68.3316V84.8974H21.6035V68.3316H32.0248ZM33.292 68.3316H43.1823V84.8974H33.292V68.3316ZM33.292 27.6697V10.3992H43.1823V27.6697H33.292ZM43.5363 49.0195H51.9044V67.9907H43.5363V49.0195ZM43.5363 47.6445V28.0068H51.9044V47.6445H43.5363ZM51.9044 27.6697H43.5363V10.3992H51.9044V27.6697ZM21.2531 10.3992V27.6697H13.3451V10.3992H21.2531ZM13.3451 68.3316H21.2531V84.8974H13.3451V68.3316ZM43.5363 84.8974V68.3316H51.9044V84.8974H43.5363Z" fill="#E0E0E0"/>
<path d="M152.418 10.3992H113.069V84.8898H152.418V10.3992Z" fill="#FAFAFA"/>
<path d="M125.327 85.606C125.327 85.606 121.016 52.0914 118.758 48.4105C118.758 48.4105 131.65 37.9348 132.043 9.55268H112.481V85.606H125.327Z" fill="#EBEBEB"/>
<path d="M140.156 85.4566C140.156 85.4566 144.464 51.942 146.722 48.2611C146.722 48.2611 133.834 37.7892 133.437 9.40331H152.998V85.4566H140.156Z" fill="#EBEBEB"/>
<path d="M153.455 7.56478H109.423V87.3526H155.278V7.56478H153.455ZM120.981 49.0195V67.9907H113.069V49.0195H120.981ZM113.069 47.6445V28.0068H120.981V47.6445H113.069ZM133.016 47.6445V28.0068H142.927V47.6445H133.016ZM142.927 49.0195V67.9907H133.016V49.0195H142.927ZM121.335 47.6445V28.0068H131.752V47.6445H121.335ZM131.752 49.0195V67.9907H121.331V49.0195H131.752ZM121.331 27.6697V10.3992H131.749V27.6697H121.331ZM131.749 68.3316V84.8974H121.331V68.3316H131.749ZM133.016 68.3316H142.927V84.8974H133.016V68.3316ZM133.016 27.6697V10.3992H142.927V27.6697H133.016ZM143.26 49.0195H151.628V67.9907H143.26V49.0195ZM143.26 47.6445V28.0068H151.628V47.6445H143.26ZM151.628 27.6697H143.26V10.3992H151.628V27.6697ZM120.981 10.3992V27.6697H113.069V10.3992H120.981ZM113.069 68.3316H120.981V84.8974H113.069V68.3316ZM143.26 84.8974V68.3316H151.628V84.8974H143.26Z" fill="#E0E0E0"/>
<path d="M75.7558 28.3783H66.1877V41.4471H75.7558V28.3783Z" fill="#EBEBEB"/>
<path d="M71.6956 41.1522H70.3682V41.5007H71.6956V41.1522Z" fill="#E0E0E0"/>
<path d="M71.2779 32.875L69.515 33.1546L68.8602 34.9472L69.9646 36.4563L71.7239 36.1767L72.3823 34.388L71.2779 32.875Z" fill="#E0E0E0"/>
<path d="M72.1027 34.0318L70.3399 34.3114L69.6815 36.1039L70.7859 37.613L72.5487 37.3373L73.2071 35.5447L72.1027 34.0318Z" fill="#FAFAFA"/>
<path d="M71.8832 28.1983H70.5557V28.4971H71.8832V28.1983Z" fill="#E0E0E0"/>
<path d="M98.9734 10.9316H82.9982V32.7525H98.9734V10.9316Z" fill="#EBEBEB"/>
<path d="M92.1947 32.266H89.9788V32.8482H92.1947V32.266Z" fill="#E0E0E0"/>
<path d="M91.4973 18.4465L88.5522 18.91L87.4548 21.9014L89.2991 24.4255L92.2407 23.962L93.338 20.9706L91.4973 18.4465Z" fill="#E0E0E0"/>
<path d="M92.8708 20.377L89.9292 20.8443L88.8284 23.8357L90.6762 26.3598L93.6177 25.8925L94.7151 22.9049L92.8708 20.377Z" fill="#FAFAFA"/>
<path d="M92.5062 10.6366H90.2903V11.1346H92.5062V10.6366Z" fill="#E0E0E0"/>
<path d="M72.2054 101.93C70.039 102.314 69.0726 105.186 69.2602 107.553C69.4479 109.92 70.3505 112.23 70.1098 114.589C69.8018 117.589 67.7098 120.12 67.4656 123.123C67.1788 126.666 69.4939 129.807 70.1841 133.285C70.5204 134.974 70.4744 136.763 71.0549 138.375C71.5501 139.748 72.4702 140.893 73.6582 141.614C74.8462 142.334 76.2286 142.587 77.5695 142.328C78.9103 142.069 80.1266 141.315 81.0108 140.193C81.8949 139.072 82.3922 137.654 82.4178 136.181C82.4638 133.461 80.9133 130.899 81.101 128.187C81.239 126.18 82.3257 124.28 82.0956 122.284C81.816 119.913 79.7841 118.228 79.0691 115.965C78.3541 113.701 79.0408 111.207 78.793 108.829C78.347 104.562 76.1629 101.586 72.2054 101.934" fill="#F5F5F5"/>
<path d="M61.1434 122.587C60.7894 126.54 62.3894 131.19 64.269 134.602C66.1727 138.038 69.038 140.728 72.4495 142.282C72.8283 142.454 73.3062 142.6 73.6283 142.32C73.7419 142.184 73.8273 142.023 73.8785 141.848C73.9298 141.673 73.9459 141.488 73.9257 141.305C73.9508 137.11 72.719 133.018 70.4146 129.644C68.1102 126.269 64.8573 123.793 61.1434 122.587Z" fill="#EBEBEB"/>
<path d="M77.0585 150.548C77.015 150.48 76.9793 150.407 76.9523 150.329C76.885 150.157 76.8 149.946 76.6939 149.682C76.4744 149.115 76.1452 148.303 75.7275 147.307C74.6376 144.71 73.4266 142.173 72.0992 139.708C70.7667 137.247 69.3194 134.86 67.7629 132.557C67.1647 131.676 66.6691 130.968 66.3222 130.481L65.9293 129.918C65.8796 129.857 65.8379 129.789 65.8054 129.715C65.8054 129.715 65.8655 129.769 65.9611 129.891L66.3859 130.428C66.7399 130.895 67.2638 131.577 67.8797 132.465C69.4754 134.745 70.9446 137.125 72.2797 139.593C73.6118 142.068 74.808 144.626 75.862 147.254C76.262 148.261 76.57 149.085 76.7682 149.659C76.8602 149.927 76.9346 150.149 76.9912 150.322C77.0213 150.394 77.0439 150.47 77.0585 150.548Z" fill="#E0E0E0"/>
<path d="M74.7045 112.866C74.7277 112.992 74.7419 113.12 74.7469 113.249C74.7646 113.517 74.7894 113.881 74.8177 114.337C74.8744 115.306 74.9558 116.665 75.0584 118.343C75.2531 121.725 75.5328 126.387 75.8655 131.554C76.1983 136.721 76.531 141.382 76.7753 144.76C76.8921 146.434 76.9912 147.798 77.0585 148.763C77.0868 149.219 77.108 149.583 77.1257 149.851C77.1351 149.978 77.1351 150.106 77.1257 150.234C77.0991 150.108 77.0814 149.98 77.0726 149.851C77.0478 149.586 77.0124 149.222 76.9664 148.767C76.8815 147.801 76.7646 146.442 76.6124 144.772C76.3328 141.393 75.9788 136.728 75.6425 131.565C75.3062 126.402 75.0514 121.733 74.8921 118.347C74.8213 116.669 74.7611 115.306 74.7186 114.337C74.7186 113.881 74.6938 113.517 74.6868 113.249C74.6833 113.121 74.6892 112.993 74.7045 112.866Z" fill="#E0E0E0"/>
<path d="M71.3452 144.913H80.4956V152.191C80.4956 153.452 80.0328 154.661 79.2089 155.552C78.3851 156.443 77.2678 156.944 76.1027 156.944C74.9782 156.944 73.8966 156.477 73.0807 155.64C72.2648 154.803 71.7766 153.659 71.7168 152.444L71.3452 144.913Z" fill="#E0E0E0"/>
<path d="M160 157.067C160 157.12 124.181 157.166 80 157.166C35.8195 157.166 0 157.12 0 157.067C0 157.013 35.8124 156.967 80 156.967C124.188 156.967 160 157.013 160 157.067Z" fill="#263238"/>
<path d="M109.961 76.13L108.545 75.8121C107.281 75.4022 106.566 75.226 106.273 74.7779C105.883 74.1766 106.627 73.8318 106.627 73.8318C106.627 73.8318 105.756 73.2841 105.958 72.6828C106.007 72.5635 106.09 72.4644 106.195 72.3996C106.3 72.3349 106.422 72.308 106.542 72.3227C106.542 72.3227 105.784 71.798 105.688 71.392C105.558 70.8404 106.188 70.6949 106.188 70.6949C105.204 69.7067 105.441 68.9866 105.713 68.9713C105.986 68.9559 106.775 69.5726 106.775 69.5726C107.483 69.9556 109.366 71.0549 108.839 69.6913C108.311 68.3278 108.379 67.0676 108.616 66.7382C108.679 66.668 108.76 66.621 108.849 66.6038C108.938 66.5867 109.029 66.6003 109.11 66.6428C109.192 66.6852 109.258 66.7543 109.301 66.8403C109.344 66.9262 109.361 67.0245 109.349 67.1212C109.38 67.6192 109.474 68.1102 109.628 68.5806C109.74 68.9627 109.911 69.3215 110.135 69.6415C110.396 70.0246 110.63 70.3195 110.842 70.5723L111.865 72.158L109.961 76.13Z" fill="#FFBE9D"/>
<path d="M104.51 155.535L105.727 152.754L110.556 155.19L108.814 159.277L108.506 159.147C107.14 158.553 101.596 156.033 100.832 155.29C99.9788 154.462 104.51 155.535 104.51 155.535Z" fill="#166DFC"/>
<g opacity="0.3">
<path opacity="0.3" d="M107.08 158.35C107.342 157.946 107.733 157.661 108.177 157.549C108.614 157.432 109.076 157.499 109.469 157.737L108.839 159.196L107.08 158.35Z" fill="white"/>
</g>
<g opacity="0.3">
<path opacity="0.3" d="M102.262 155.087C102.262 155.087 100.634 154.811 100.701 155.159C100.768 155.508 106.283 158.281 108.814 159.277L108.857 159.154L102.4 155.975C102.4 155.975 102.538 155.255 102.262 155.087Z" fill="white"/>
</g>
<path d="M108.931 159.189L108.846 159.158L108.602 159.055L107.706 158.653C106.952 158.308 105.915 157.818 104.786 157.247C103.657 156.676 102.637 156.14 101.908 155.738L101.048 155.255L100.818 155.121L100.736 155.071C100.766 155.079 100.795 155.092 100.821 155.11L101.058 155.232L101.929 155.696C102.662 156.079 103.681 156.615 104.811 157.186C105.94 157.756 106.973 158.25 107.724 158.607L108.609 159.028L108.85 159.143L108.931 159.189Z" fill="#263238"/>
<path d="M102.368 156.056C102.395 155.88 102.405 155.701 102.396 155.523C102.367 155.346 102.32 155.172 102.255 155.006C102.368 155.149 102.439 155.325 102.46 155.512C102.48 155.699 102.448 155.888 102.368 156.056Z" fill="#263238"/>
<path d="M104.113 155.994C104.072 155.908 104.049 155.812 104.046 155.715C104.025 155.622 104.025 155.524 104.046 155.431C104.046 155.431 104.092 155.55 104.11 155.707C104.133 155.801 104.134 155.9 104.113 155.994Z" fill="#263238"/>
<path d="M104.616 155.968C104.598 155.968 104.545 155.879 104.495 155.757C104.446 155.634 104.421 155.531 104.439 155.523C104.457 155.516 104.51 155.608 104.556 155.73C104.594 155.802 104.615 155.884 104.616 155.968Z" fill="#263238"/>
<path d="M105.073 155.596C105.073 155.615 104.949 155.573 104.807 155.504C104.718 155.472 104.636 155.42 104.566 155.351C104.566 155.332 104.694 155.374 104.832 155.443C104.921 155.475 105.003 155.527 105.073 155.596Z" fill="#263238"/>
<path d="M105.31 155.293C105.2 155.311 105.087 155.293 104.988 155.24C104.882 155.208 104.789 155.143 104.719 155.052C104.82 155.083 104.918 155.124 105.012 155.175C105.114 155.205 105.214 155.245 105.31 155.293Z" fill="#263238"/>
<path d="M104.159 155.454C104.049 155.421 103.945 155.368 103.851 155.297C103.745 155.226 103.645 155.144 103.554 155.052C103.498 154.998 103.449 154.938 103.405 154.872C103.379 154.831 103.367 154.78 103.373 154.73C103.378 154.703 103.39 154.677 103.409 154.657C103.427 154.638 103.451 154.624 103.476 154.619C103.57 154.618 103.662 154.64 103.747 154.682C103.832 154.724 103.908 154.786 103.968 154.863C104.028 154.94 104.073 155.03 104.097 155.128C104.122 155.226 104.126 155.328 104.11 155.428C104.106 155.462 104.095 155.494 104.078 155.523C104.09 155.403 104.084 155.281 104.06 155.163C104.027 155.041 103.963 154.931 103.876 154.845C103.825 154.792 103.766 154.751 103.7 154.723C103.634 154.696 103.564 154.682 103.494 154.684C103.427 154.684 103.419 154.773 103.458 154.838C103.5 154.899 103.547 154.956 103.6 155.006C103.687 155.097 103.781 155.18 103.88 155.255C104.046 155.385 104.163 155.443 104.159 155.454Z" fill="#263238"/>
<path d="M104.071 155.431C104.065 155.341 104.089 155.252 104.138 155.179C104.186 155.096 104.25 155.027 104.326 154.976C104.374 154.94 104.429 154.918 104.488 154.911C104.546 154.904 104.604 154.913 104.658 154.937C104.686 154.961 104.705 154.995 104.71 155.033C104.715 155.07 104.707 155.109 104.687 155.14C104.657 155.19 104.617 155.232 104.57 155.263C104.498 155.317 104.419 155.361 104.336 155.393C104.262 155.429 104.18 155.445 104.099 155.439C104.099 155.439 104.188 155.408 104.319 155.347C104.396 155.311 104.468 155.265 104.534 155.209C104.609 155.159 104.694 155.048 104.623 154.995C104.552 154.941 104.432 154.995 104.357 155.033C104.286 155.076 104.223 155.135 104.173 155.205C104.135 155.278 104.101 155.354 104.071 155.431Z" fill="#263238"/>
<path d="M109.448 157.71C109.448 157.71 109.317 157.626 109.094 157.546C108.794 157.439 108.474 157.423 108.166 157.5C107.861 157.585 107.583 157.757 107.359 157.998C107.189 158.185 107.119 158.331 107.108 158.327C107.117 158.288 107.132 158.252 107.154 158.22C107.203 158.127 107.261 158.041 107.327 157.963C107.548 157.701 107.835 157.516 108.152 157.431C108.47 157.35 108.803 157.374 109.108 157.5C109.2 157.536 109.287 157.582 109.37 157.638C109.423 157.68 109.451 157.707 109.448 157.71Z" fill="#263238"/>
<path d="M109.883 155.286C109.765 155.659 109.626 156.023 109.465 156.377C109.324 156.743 109.163 157.1 108.984 157.446C109.106 157.073 109.246 156.707 109.405 156.351C109.546 155.986 109.705 155.631 109.883 155.286Z" fill="#263238"/>
<path d="M106.69 157.553C106.435 157.492 106.188 157.398 105.954 157.274C105.713 157.165 105.484 157.025 105.274 156.856C105.274 156.837 105.589 157.017 105.982 157.209C106.375 157.4 106.697 157.519 106.69 157.553Z" fill="#263238"/>
<path d="M107.653 158.013C107.653 158.013 107.596 158.07 107.529 158.132C107.462 158.193 107.416 158.254 107.402 158.247C107.388 158.239 107.402 158.151 107.487 158.078C107.572 158.005 107.653 157.994 107.653 158.013Z" fill="#263238"/>
<path d="M108.202 157.71C108.202 157.71 108.152 157.768 108.081 157.798C108.011 157.829 107.943 157.837 107.936 157.818C107.929 157.798 107.986 157.76 108.057 157.733C108.127 157.706 108.195 157.691 108.202 157.71Z" fill="#263238"/>
<path d="M108.807 157.749C108.807 157.749 108.733 157.729 108.648 157.722C108.563 157.714 108.499 157.722 108.492 157.722C108.485 157.722 108.556 157.653 108.655 157.664C108.754 157.676 108.818 157.733 108.807 157.749Z" fill="#263238"/>
<path d="M109.214 157.829C109.214 157.829 109.175 157.86 109.126 157.856C109.076 157.852 109.041 157.833 109.044 157.814C109.048 157.795 109.083 157.783 109.133 157.787C109.182 157.791 109.214 157.81 109.214 157.829Z" fill="#263238"/>
<path d="M145.235 157.055L144.032 154.267L148.842 151.808L150.644 155.864L150.354 156.04C149.062 156.806 143.735 159.813 142.719 159.978C141.586 160.15 145.235 157.055 145.235 157.055Z" fill="#166DFC"/>
<g opacity="0.3">
<path opacity="0.3" d="M148.881 156.707C148.758 156.231 148.803 155.723 149.009 155.282C149.206 154.846 149.547 154.505 149.965 154.328L150.605 155.78L148.881 156.707Z" fill="white"/>
</g>
<g opacity="0.3">
<path opacity="0.3" d="M143.487 158.645C143.487 158.645 142.251 159.828 142.542 159.993C142.832 160.158 148.322 157.312 150.644 155.853L150.584 155.742L144.212 159.097C144.212 159.097 143.759 158.515 143.487 158.645Z" fill="white"/>
</g>
<path d="M150.658 155.699L150.581 155.749L150.35 155.887L149.494 156.377C148.768 156.787 147.759 157.339 146.63 157.909C145.501 158.48 144.474 158.99 143.724 159.342L142.832 159.756L142.588 159.863L142.503 159.894L142.584 159.848L142.821 159.729L143.706 159.3C144.45 158.936 145.476 158.427 146.605 157.844C147.735 157.262 148.729 156.722 149.473 156.312L150.336 155.841L150.573 155.715C150.601 155.706 150.63 155.701 150.658 155.699Z" fill="#263238"/>
<path d="M144.244 159.177C144.14 159.036 144.021 158.907 143.89 158.794C143.746 158.706 143.592 158.636 143.434 158.584C143.608 158.581 143.779 158.634 143.926 158.737C144.072 158.84 144.187 158.988 144.255 159.162L144.244 159.177Z" fill="#263238"/>
<path d="M145.32 157.668C145.32 157.668 145.203 157.63 145.08 157.546C144.956 157.461 144.864 157.381 144.874 157.366C144.885 157.35 144.991 157.404 145.115 157.488C145.239 157.572 145.327 157.653 145.32 157.668Z" fill="#263238"/>
<path d="M145.611 157.243C145.611 157.262 145.504 157.243 145.388 157.209C145.271 157.174 145.179 157.124 145.182 157.105C145.258 157.098 145.335 157.111 145.405 157.143C145.529 157.17 145.614 157.224 145.611 157.243Z" fill="#263238"/>
<path d="M145.642 156.626C145.642 156.645 145.543 156.718 145.405 156.791C145.267 156.864 145.15 156.91 145.14 156.891C145.207 156.818 145.288 156.762 145.377 156.726C145.529 156.653 145.632 156.607 145.642 156.626Z" fill="#263238"/>
<path d="M145.572 156.236C145.572 156.236 145.49 156.374 145.331 156.469C145.24 156.536 145.133 156.573 145.023 156.577C145.208 156.466 145.39 156.352 145.572 156.236Z" fill="#263238"/>
<path d="M144.956 157.297C144.863 157.369 144.758 157.422 144.648 157.454C144.533 157.497 144.414 157.528 144.294 157.546C144.219 157.556 144.142 157.556 144.067 157.546C144.044 157.544 144.022 157.538 144.001 157.526C143.98 157.515 143.962 157.5 143.947 157.48C143.933 157.457 143.926 157.43 143.926 157.402C143.926 157.374 143.933 157.347 143.947 157.323C144.038 157.2 144.166 157.115 144.308 157.082C144.451 157.049 144.6 157.071 144.729 157.143C144.805 157.186 144.872 157.245 144.927 157.316C144.948 157.34 144.964 157.369 144.973 157.4C144.897 157.314 144.807 157.243 144.708 157.189C144.597 157.134 144.474 157.117 144.354 157.14C144.285 157.148 144.218 157.171 144.157 157.208C144.096 157.245 144.043 157.295 144 157.354C143.968 157.419 144 157.473 144.085 157.48C144.154 157.488 144.224 157.488 144.294 157.48C144.413 157.467 144.532 157.443 144.648 157.408C144.821 157.346 144.952 157.289 144.956 157.297Z" fill="#263238"/>
<path d="M144.885 157.354C144.885 157.354 144.797 157.3 144.747 157.14C144.718 157.047 144.709 156.949 144.722 156.852C144.727 156.789 144.747 156.729 144.779 156.676C144.811 156.623 144.855 156.58 144.906 156.55C144.941 156.542 144.977 156.548 145.008 156.568C145.038 156.588 145.06 156.62 145.069 156.657C145.081 156.715 145.081 156.775 145.069 156.833C145.061 156.928 145.04 157.02 145.009 157.109C144.959 157.262 144.899 157.343 144.892 157.335C144.885 157.327 144.927 157.243 144.966 157.094C144.99 157.007 145.004 156.919 145.009 156.829C145.009 156.734 144.991 156.592 144.91 156.619C144.828 156.645 144.786 156.776 144.768 156.864C144.75 156.951 144.75 157.041 144.768 157.128C144.799 157.208 144.838 157.284 144.885 157.354Z" fill="#263238"/>
<path d="M149.933 154.324C149.933 154.324 149.791 154.382 149.579 154.524C149.314 154.7 149.101 154.954 148.963 155.255C148.827 155.562 148.772 155.904 148.804 156.243C148.828 156.508 148.885 156.661 148.874 156.665C148.854 156.632 148.838 156.596 148.828 156.557C148.794 156.458 148.77 156.356 148.758 156.251C148.711 155.901 148.762 155.544 148.903 155.224C149.045 154.903 149.275 154.635 149.561 154.458C149.646 154.404 149.736 154.361 149.83 154.328C149.864 154.321 149.899 154.32 149.933 154.324Z" fill="#263238"/>
<path d="M148.485 152.417C148.673 152.755 148.843 153.104 148.995 153.463C149.165 153.813 149.316 154.173 149.448 154.543C149.26 154.204 149.089 153.853 148.938 153.493C148.766 153.146 148.614 152.786 148.485 152.417Z" fill="#263238"/>
<path d="M148.053 156.511C147.849 156.688 147.624 156.835 147.384 156.948C147.154 157.083 146.909 157.185 146.655 157.251C146.655 157.251 146.97 157.09 147.363 156.887C147.756 156.684 148.043 156.496 148.053 156.511Z" fill="#263238"/>
<path d="M148.995 156.021C148.995 156.021 148.995 156.109 148.995 156.201C148.995 156.293 149.012 156.374 148.995 156.381C148.977 156.389 148.931 156.312 148.931 156.205C148.931 156.098 148.977 156.021 148.995 156.021Z" fill="#263238"/>
<path d="M149.14 155.366C149.158 155.366 149.14 155.443 149.122 155.523C149.104 155.604 149.062 155.661 149.048 155.657C149.034 155.653 149.048 155.581 149.048 155.5C149.048 155.42 149.122 155.359 149.14 155.366Z" fill="#263238"/>
<path d="M149.55 154.872C149.55 154.891 149.49 154.926 149.434 154.987C149.377 155.048 149.342 155.117 149.324 155.113C149.306 155.11 149.324 155.014 149.388 154.937C149.451 154.861 149.55 154.872 149.55 154.872Z" fill="#263238"/>
<path d="M149.869 154.596C149.869 154.596 149.869 154.65 149.834 154.688C149.798 154.727 149.763 154.742 149.749 154.73C149.735 154.719 149.749 154.677 149.784 154.638C149.82 154.6 149.855 154.581 149.869 154.596Z" fill="#263238"/>
<path d="M150.86 153.179L143.073 157.097L129.069 130.121C127.246 123.004 125.487 97.947 125.487 97.947L135.618 98.782C135.618 98.782 137.179 116.784 139.625 126.038L150.86 153.179Z" fill="#263238"/>
<path d="M141.826 154.458C141.826 154.458 141.926 154.378 142.12 154.267C142.315 154.156 142.602 153.999 142.956 153.811C143.664 153.428 144.651 152.926 145.745 152.375C146.839 151.823 147.83 151.337 148.552 150.996C148.906 150.824 149.211 150.686 149.412 150.613C149.515 150.556 149.625 150.515 149.738 150.49C149.649 150.569 149.55 150.634 149.444 150.682C149.246 150.793 148.963 150.95 148.609 151.138C147.901 151.521 146.913 152.022 145.823 152.574C144.733 153.126 143.738 153.608 143.012 153.953C142.658 154.125 142.357 154.263 142.152 154.336C142.049 154.393 141.94 154.434 141.826 154.458Z" fill="#455A64"/>
<path d="M140.219 87.862C140.411 87.862 142.481 94.4998 140.488 98.9008C140.287 99.3412 138.719 101.766 138.719 101.766C133.204 108.806 127.618 122.449 126.06 126.046C122.874 133.404 111.065 157.607 111.065 157.607L103.49 152.915L114.566 122.101L124.619 94.293L140.219 87.862Z" fill="#263238"/>
<path d="M126.563 116.332C126.563 116.332 126.028 119.132 125.752 118.971C124.963 118.508 119.536 116.321 119.536 116.321L121.002 114.563L126.563 116.332Z" fill="#455A64"/>
<path d="M124.963 118.508C124.963 118.508 123.947 123.024 122.641 122.778C121.334 122.533 118.605 121.047 118.605 121.047L120.251 116.593L124.963 118.508Z" fill="#455A64"/>
<path d="M125.752 118.971L119.696 116.351L119.986 117.313L124.782 119.213L125.752 118.971Z" fill="#263238"/>
<path d="M136.266 105.309C136.24 105.37 136.207 105.426 136.166 105.477L135.855 105.933C135.586 106.316 135.204 106.914 134.761 107.653C133.873 109.131 132.754 111.246 131.611 113.636C130.467 116.026 129.487 118.232 128.797 119.818L127.965 121.706L127.735 122.215C127.71 122.277 127.679 122.334 127.643 122.388C127.654 122.323 127.673 122.26 127.699 122.2L127.901 121.675C128.078 121.22 128.343 120.565 128.676 119.76C129.349 118.152 130.297 115.93 131.448 113.544C132.406 111.492 133.47 109.499 134.634 107.576C135.094 106.845 135.49 106.27 135.781 105.887C135.915 105.711 136.028 105.569 136.135 105.454C136.172 105.4 136.216 105.351 136.266 105.309Z" fill="#455A64"/>
<path d="M104.067 151.479C104.089 151.433 105.876 152.352 108.06 153.535C110.244 154.719 111.993 155.722 111.954 155.772C111.915 155.822 110.145 154.899 107.961 153.715C105.777 152.532 104.046 151.528 104.067 151.479Z" fill="#455A64"/>
<path d="M113.069 71.9971C112.658 73.0004 112.192 73.9763 111.674 74.9196C111.21 75.8961 110.69 76.8402 110.117 77.7463C110.528 76.7422 110.994 75.7651 111.511 74.82C111.978 73.8464 112.498 72.9038 113.069 71.9971Z" fill="#263238"/>
<path d="M127.38 60.3417C127.795 60.3417 128.287 63.5974 128.704 69.4462C129.179 76.0802 129.136 82.7754 127.441 86.9849C127.284 87.4343 127.047 87.846 126.744 88.1963C126.44 88.5466 126.075 88.8287 125.671 89.0264C121.281 90.9875 109.172 76.9382 109.172 76.9382L112.152 71.2809L120.68 78.7307C120.68 78.7307 121.529 71.1928 121.366 67.7188C121.235 65.0836 123.667 60.3723 127.38 60.3417Z" fill="#455A64"/>
<path d="M131.154 60.4068C131.154 60.4068 138.559 61.5789 140.474 64.7273C142.389 67.8758 141.42 95.645 141.42 95.645L122.382 96.8631C122.382 96.8631 123.919 61.5176 124.86 61.1154C127.225 60.1119 130.871 60.3072 131.154 60.4068Z" fill="#455A64"/>
<path d="M100.676 53.0949C100.621 52.2522 100.766 51.4083 101.097 50.6435C101.244 50.3163 101.322 49.9577 101.324 49.594V48.6633H90.2266C89.775 48.6633 89.342 48.8574 89.0227 49.2029C88.7033 49.5484 88.524 50.017 88.524 50.5056V62.4636H87.7735C87.4268 62.4601 87.0854 62.371 86.7753 62.2032C86.0797 61.8408 85.3111 61.6735 84.5401 61.7169C83.7692 61.7602 83.0207 62.0127 82.3635 62.4511C81.7064 62.8896 81.1618 63.4998 80.7798 64.2258C80.3979 64.9517 80.1908 65.7699 80.1777 66.6051C80.1646 67.4404 80.346 68.2657 80.705 69.0052C81.064 69.7447 81.5892 70.3746 82.2323 70.8369C82.8753 71.2991 83.6154 71.5789 84.3846 71.6505C85.1537 71.7221 85.9272 71.5831 86.6337 71.2464C86.9261 71.1024 87.2434 71.0267 87.5647 71.0242H88.5381V82.6835C88.5377 82.9258 88.5813 83.1657 88.6667 83.3897C88.7521 83.6137 88.8774 83.8172 89.0356 83.9887C89.1937 84.1602 89.3816 84.2962 89.5884 84.3891C89.7952 84.4819 90.0169 84.5297 90.2408 84.5297H120.22C120.588 84.5297 120.94 84.3715 121.201 84.0899C121.461 83.8083 121.607 83.4264 121.607 83.0282V50.1647C121.608 49.9674 121.572 49.7719 121.502 49.5895C121.433 49.4072 121.331 49.2414 121.202 49.1019C121.073 48.9624 120.92 48.8518 120.751 48.7765C120.583 48.7013 120.402 48.6628 120.22 48.6633H109.388V49.9924C109.387 50.2998 109.442 50.6045 109.551 50.8886C109.804 51.5568 109.92 52.2767 109.891 52.9983C109.862 53.7199 109.687 54.4259 109.381 55.0675C109.074 55.709 108.642 56.2707 108.115 56.7135C107.587 57.1563 106.977 57.4696 106.327 57.6318C105.676 57.794 105.001 57.8011 104.348 57.6526C103.694 57.5041 103.079 57.2037 102.543 56.772C102.008 56.3404 101.566 55.7879 101.248 55.1529C100.93 54.518 100.743 53.8157 100.701 53.0949H100.676Z" fill="#166DFC"/>
<path d="M123.674 66.3131C123.685 66.3891 123.691 66.4659 123.692 66.5429C123.692 66.7191 123.692 66.9259 123.692 67.2055C123.692 67.8069 123.692 68.6342 123.72 69.6415C123.72 71.6984 123.752 74.5404 123.692 77.6851C123.632 80.8297 123.473 83.6679 123.278 85.7286C123.179 86.7551 123.083 87.5786 123.005 88.1493C122.966 88.4174 122.935 88.6319 122.906 88.8043C122.901 88.8816 122.886 88.9577 122.86 89.0302C122.855 88.9537 122.855 88.8769 122.86 88.8004C122.878 88.6281 122.896 88.4174 122.924 88.1416C122.977 87.5671 123.055 86.7398 123.136 85.7171C123.299 83.6679 123.444 80.8335 123.49 77.6965C123.536 74.5596 123.547 71.7214 123.572 69.653C123.572 68.6457 123.596 67.8184 123.604 67.217C123.604 66.9489 123.604 66.7267 123.621 66.5544C123.629 66.4717 123.647 66.3905 123.674 66.3131Z" fill="#263238"/>
<path d="M134.998 47.315C134.694 49.4064 134.712 51.241 135.657 52.6046C135.862 52.8669 136.051 53.1432 136.223 53.4319C136.308 53.5772 136.365 53.7398 136.39 53.9098C136.415 54.0798 136.408 54.2534 136.368 54.4202C136.324 54.568 136.245 54.7005 136.138 54.8041C136.031 54.9077 135.901 54.9785 135.76 55.0094C135.619 55.0402 135.474 55.0299 135.338 54.9795C135.202 54.9291 135.081 54.8405 134.988 54.7227C135.018 54.9593 134.983 55.2004 134.887 55.4153C134.79 55.6302 134.637 55.8091 134.446 55.9293C134.348 55.9778 134.242 56.0017 134.135 55.9992C134.027 55.9966 133.922 55.9677 133.826 55.9146C133.731 55.8614 133.648 55.7855 133.583 55.6925C133.519 55.5995 133.475 55.4918 133.455 55.3777C133.455 55.3777 133.706 56.4387 132.581 56.274L133.373 48.9965L134.998 47.315Z" fill="#263238"/>
<path d="M129.954 63.402C129.515 63.402 129.081 63.302 128.679 63.1087C128.278 62.9153 127.919 62.6328 127.626 62.2796C127.332 61.9264 127.11 61.5103 126.974 61.0583C126.839 60.6063 126.793 60.1286 126.839 59.6561C126.942 58.5683 127.034 57.6835 127.034 57.6835C127.034 57.6835 124.556 57.266 124.524 54.5848C124.492 51.9036 124.924 45.7484 124.924 45.7484C126.332 45.0942 127.877 44.8587 129.398 45.066C130.919 45.2734 132.361 45.9162 133.575 46.9282L133.929 47.2307L133.069 60.2536C133.013 61.1068 132.66 61.9055 132.083 62.4895C131.505 63.0734 130.745 63.3994 129.954 63.402Z" fill="#FFBE9D"/>
<path d="M125.561 50.5899C125.612 50.5386 125.648 50.4721 125.664 50.3989C125.68 50.3256 125.676 50.2488 125.653 50.178C125.629 50.1072 125.586 50.0456 125.53 50.001C125.474 49.9563 125.407 49.9305 125.337 49.9268C125.268 49.9231 125.199 49.9417 125.139 49.9802C125.079 50.0188 125.031 50.0756 125.001 50.1435C124.971 50.2114 124.96 50.2874 124.969 50.3621C124.979 50.4367 125.009 50.5066 125.055 50.5631C125.086 50.6014 125.124 50.6325 125.167 50.6546C125.209 50.6767 125.256 50.6894 125.303 50.6919C125.35 50.6944 125.397 50.6867 125.441 50.6692C125.486 50.6516 125.526 50.6247 125.561 50.5899Z" fill="#263238"/>
<path d="M124.874 49.7434C124.913 49.7894 125.157 49.5864 125.497 49.5864C125.837 49.5864 126.088 49.774 126.124 49.7281C126.159 49.6821 126.106 49.6247 125.996 49.5327C125.851 49.4192 125.676 49.36 125.497 49.3642C125.318 49.3642 125.143 49.4259 124.998 49.5404C124.892 49.64 124.857 49.7242 124.874 49.7434Z" fill="#263238"/>
<path d="M128.807 50.3064C128.766 50.3324 128.731 50.3669 128.703 50.4079C128.675 50.4489 128.654 50.4956 128.643 50.5452C128.632 50.5948 128.63 50.6464 128.638 50.6968C128.645 50.7472 128.662 50.7955 128.687 50.8388C128.711 50.8833 128.743 50.9221 128.781 50.9529C128.819 50.9837 128.863 51.0058 128.909 51.018C128.955 51.0302 129.003 51.0321 129.05 51.0237C129.097 51.0153 129.142 50.9967 129.182 50.9691C129.223 50.9428 129.259 50.9079 129.287 50.8664C129.315 50.825 129.335 50.7778 129.346 50.7278C129.357 50.6777 129.358 50.6258 129.35 50.5752C129.342 50.5245 129.325 50.4761 129.299 50.4328C129.275 50.3892 129.243 50.3512 129.205 50.3212C129.167 50.2911 129.123 50.2696 129.078 50.2578C129.032 50.246 128.984 50.2442 128.938 50.2526C128.891 50.261 128.847 50.2793 128.807 50.3064Z" fill="#263238"/>
<path d="M128.581 50.069C128.619 50.1149 128.864 49.9119 129.204 49.9119C129.543 49.9119 129.795 50.0996 129.83 50.0536C129.865 50.0077 129.809 49.9502 129.703 49.8583C129.557 49.7442 129.38 49.6851 129.2 49.6898C129.021 49.69 128.846 49.7547 128.704 49.8736C128.598 49.9656 128.563 50.0498 128.581 50.069Z" fill="#263238"/>
<path d="M127.214 53.114C127.037 53.041 126.851 52.9983 126.662 52.9876C126.573 52.9876 126.503 52.957 126.496 52.9033C126.492 52.8067 126.514 52.7109 126.559 52.6276L126.828 51.8615C127.085 51.2275 127.281 50.5665 127.412 49.8889C127.099 50.498 126.843 51.1396 126.648 51.8041C126.559 52.0645 126.474 52.3135 126.393 52.5701C126.334 52.6938 126.316 52.8361 126.343 52.9723C126.356 53.009 126.376 53.0419 126.403 53.0686C126.429 53.0952 126.461 53.1147 126.496 53.1255C126.545 53.1394 126.596 53.1471 126.648 53.1485C126.837 53.1722 127.029 53.1606 127.214 53.114Z" fill="#263238"/>
<path d="M128.322 53.5239C128.676 53.2941 127.342 54.0869 126.648 54.0486C126.763 54.2424 126.936 54.3881 127.138 54.4618C127.34 54.5355 127.559 54.533 127.759 54.4546C128.503 54.1597 128.322 53.5239 128.322 53.5239Z" fill="white"/>
<path d="M127.012 57.6452C128.156 57.6682 129.28 57.3214 130.241 56.6493C130.241 56.6493 129.476 58.5644 127.005 58.3385L127.012 57.6452Z" fill="#EB996E"/>
<path d="M133.929 49.8277C133.982 49.8085 135.777 49.6745 135.48 51.9343C135.182 54.1941 133.172 53.1217 133.175 53.0566C133.179 52.9914 133.929 49.8277 133.929 49.8277Z" fill="#FFBE9D"/>
<path d="M133.919 52.3633C133.919 52.3633 133.95 52.3978 134.011 52.4361C134.05 52.4632 134.094 52.4816 134.14 52.4901C134.187 52.4987 134.234 52.4972 134.28 52.4859C134.427 52.4137 134.554 52.3005 134.647 52.1578C134.74 52.015 134.797 51.848 134.811 51.6738C134.844 51.4816 134.835 51.2836 134.786 51.0955C134.775 51.0219 134.749 50.9522 134.708 50.8922C134.667 50.8322 134.614 50.7837 134.552 50.7508C134.512 50.7315 134.466 50.7286 134.424 50.7427C134.382 50.7568 134.346 50.7868 134.322 50.8274C134.287 50.8848 134.294 50.9308 134.28 50.9346C134.265 50.9384 134.241 50.8886 134.28 50.8005C134.298 50.7448 134.334 50.6984 134.382 50.6703C134.413 50.6505 134.448 50.6378 134.484 50.6332C134.52 50.6286 134.556 50.6321 134.591 50.6435C134.674 50.6789 134.747 50.7371 134.803 50.8123C134.859 50.8875 134.896 50.9772 134.91 51.0725C134.974 51.2809 134.989 51.5036 134.952 51.7198C134.937 51.9229 134.866 52.1165 134.749 52.276C134.631 52.4355 134.473 52.5539 134.294 52.6161C134.235 52.6247 134.176 52.6192 134.119 52.6C134.063 52.5808 134.011 52.5484 133.968 52.505C133.915 52.4169 133.911 52.3671 133.919 52.3633Z" fill="#EB996E"/>
<path d="M124.258 45.4918C124.295 45.2642 124.413 45.0612 124.586 44.9265C124.759 44.7918 124.975 44.7362 125.186 44.7718C125.043 44.7585 124.906 44.71 124.783 44.6299C124.661 44.5497 124.557 44.4402 124.48 44.3098C124.404 44.1793 124.356 44.0314 124.34 43.8776C124.324 43.7238 124.342 43.5682 124.391 43.4229C124.44 43.2775 124.519 43.1463 124.623 43.0395C124.726 42.9326 124.851 42.853 124.987 42.8068C125.124 42.7605 125.268 42.7489 125.409 42.7728C125.551 42.7968 125.685 42.8556 125.802 42.9447C125.523 42.6612 125.301 42.3182 125.15 41.9374C125.075 41.7426 125.057 41.5271 125.1 41.321C125.143 41.1149 125.245 40.9286 125.391 40.7883C125.553 40.6874 125.736 40.6344 125.922 40.6344C126.109 40.6344 126.292 40.6874 126.453 40.7883C126.963 41.0679 127.349 41.5735 127.869 41.811C128.389 42.0485 129.002 41.991 129.579 42.0561C130.22 42.1127 130.829 42.3876 131.317 42.8413C131.56 43.0676 131.751 43.3525 131.874 43.6732C131.997 43.9939 132.049 44.3413 132.025 44.6875C132.807 44.6377 133.664 44.6875 134.269 45.2122C134.223 44.871 134.262 44.5227 134.381 44.2031C134.501 43.8834 134.697 43.6038 134.949 43.3929C135.27 43.1509 135.644 43.002 136.033 42.9605C136.423 42.9189 136.816 42.986 137.175 43.1554C137.346 43.2182 137.502 43.3188 137.634 43.4507C137.766 43.5826 137.872 43.7429 137.943 43.9214C138.103 44.4385 137.802 44.9939 137.423 45.354C137.069 45.6794 136.649 45.9102 136.197 46.028C135.745 46.1457 135.274 46.1471 134.821 46.0319C134.965 46.4316 135.025 46.8605 134.998 47.2882C134.959 48.0275 134.411 48.7935 134.17 49.4868L134.117 49.9426L133.706 51.8386L132.609 51.7428L132.91 47.7593C132.91 47.7593 133.115 46.0855 131.77 46.143C130.425 46.2004 128.517 47.7134 125.94 47.1274C125.517 47.0729 125.111 46.9172 124.75 46.6716C124.581 46.5384 124.446 46.3595 124.359 46.1525C124.273 45.9456 124.238 45.7178 124.258 45.4918Z" fill="#263238"/>
<path d="M138.69 47.2423C138.483 47.4139 138.24 47.5271 137.982 47.5717C137.357 47.7256 136.701 47.6426 136.125 47.3365C135.549 47.0305 135.088 46.52 134.818 45.8902C134.691 45.6414 134.624 45.3622 134.623 45.0782C134.655 45.0782 134.711 45.3884 134.934 45.8442C135.22 46.4202 135.665 46.8847 136.208 47.1726C136.75 47.4605 137.362 47.5572 137.957 47.4491C138.411 47.3495 138.676 47.204 138.69 47.2423Z" fill="#263238"/>
<path d="M136.06 49.4485C136.032 49.4485 136.06 49.211 135.996 48.8586C135.896 48.3982 135.722 47.9602 135.483 47.564C135.233 47.1594 135.008 46.7371 134.811 46.3C134.719 46.1193 134.67 45.9165 134.669 45.7101C134.768 45.8786 134.854 46.0554 134.927 46.2387C135.087 46.5605 135.359 46.9741 135.635 47.4606C135.889 47.8748 136.056 48.3442 136.124 48.8356C136.165 49.0419 136.143 49.2572 136.06 49.4485Z" fill="#263238"/>
<path d="M117.72 71.6026C116.488 70.7917 115.298 69.9081 114.156 68.9559C112.786 67.7034 112.885 67.5655 113.044 67.4238C113.469 67.014 115.522 69.5305 115.37 68.7031C115.218 67.8758 112.538 65.953 112.991 65.547C113.593 65.0146 115.703 67.6919 115.897 67.9026C116.092 68.1133 116.375 67.8107 116.191 67.6307C115.926 67.3702 113.207 64.5665 113.791 64.0379C114.117 63.743 114.535 64.4401 114.535 64.4401C114.535 64.4401 116.906 67.2783 117.175 67.0178C117.444 66.7574 116.113 65.0376 115.618 64.4937C115.122 63.9498 115.168 63.4863 115.561 63.4442C115.827 63.4174 117.359 65.0414 117.834 65.5891C118.308 66.1369 119.575 67.6728 119.504 66.3552C119.434 65.0376 119.823 63.9881 120.106 63.7851C120.389 63.5821 120.747 63.9498 120.612 64.3328C120.504 64.7647 120.452 65.2107 120.457 65.6581C120.446 66.0174 120.492 66.376 120.591 66.7191C120.676 67.014 120.761 67.2744 120.843 67.5043L121.674 69.9824L119.586 72.8436L117.72 71.6026Z" fill="#FFBE9D"/>
<path d="M138.326 63.0841C138.765 63.2029 141.377 64.666 141.419 71.074C141.451 76.1683 141.09 87.4751 137.88 89.1566C136.425 89.9227 134.216 89.9227 132.297 88.5629C126.889 84.7825 117.31 72.5946 117.31 72.5946L121.596 67.6536C121.596 67.6536 132.726 79.9104 133.2 79.4584C133.908 78.7767 132.821 72.924 133.43 67.1404C133.848 63.0267 135.618 62.3526 138.326 63.0841Z" fill="#455A64"/>
<path d="M121.589 67.8298C121.568 67.8613 121.543 67.8896 121.515 67.9141L121.285 68.1592C121.083 68.3699 120.786 68.684 120.411 69.1053C119.342 70.299 118.36 71.5795 117.473 72.9355V72.8474C120.496 76.1836 124.906 81.0365 129.802 86.4333C130.958 87.6234 132.369 88.4853 133.908 88.9421C134.633 89.1603 135.394 89.197 136.134 89.0494C136.838 88.8809 137.492 88.524 138.035 88.0114C139.027 87.0285 139.753 85.7719 140.134 84.3765C140.473 83.1599 140.701 81.9104 140.814 80.6458C141.101 78.3477 141.253 76.4325 141.32 75.1418C141.356 74.4906 141.373 73.9927 141.388 73.6403V73.2573C141.383 73.214 141.383 73.1703 141.388 73.127C141.393 73.1715 141.393 73.2166 141.388 73.2611C141.388 73.3569 141.388 73.4871 141.388 73.6441C141.388 73.9888 141.388 74.4944 141.356 75.1494C141.31 76.4555 141.179 78.3477 140.906 80.6688C140.8 81.9443 140.579 83.2055 140.244 84.4339C139.862 85.8605 139.127 87.1474 138.12 88.1569C137.557 88.6922 136.877 89.065 136.145 89.2409C135.379 89.3946 134.591 89.358 133.841 89.1336C132.27 88.6726 130.829 87.796 129.65 86.5827C124.736 81.1782 120.361 76.2908 117.359 72.947L117.32 72.9049L117.352 72.8589C118.252 71.5066 119.251 70.2347 120.34 69.0555C120.726 68.6457 121.048 68.3392 121.242 68.1324L121.483 67.9064L121.589 67.8298Z" fill="#263238"/>
<path d="M121.593 67.6537C121.593 67.6537 121.618 67.6537 121.653 67.7073L121.819 67.8873L122.453 68.5806C123.002 69.1858 123.805 70.0514 124.814 71.1124C125.823 72.1733 127.041 73.4373 128.414 74.8239L130.581 76.9956C131.342 77.7387 132.127 78.5277 132.97 79.2708L132.825 79.3474C132.85 78.8954 132.874 78.4166 132.899 77.934C133.041 75.4022 133.172 72.9892 133.292 70.7945C133.366 69.699 133.384 68.6534 133.494 67.6766C133.575 66.7634 133.808 65.8734 134.181 65.0491C134.489 64.364 134.958 63.7779 135.54 63.3485C135.985 63.0332 136.496 62.8447 137.027 62.8007C137.359 62.7708 137.694 62.8151 138.011 62.931C138.122 62.9662 138.228 63.0178 138.326 63.0842C138.326 63.0842 138.216 63.0344 138 62.9693C137.685 62.8722 137.356 62.841 137.03 62.8773C136.517 62.9348 136.024 63.1282 135.596 63.4404C135.039 63.8712 134.591 64.4469 134.294 65.1142C133.939 65.927 133.719 66.8007 133.642 67.6958C133.543 68.661 133.533 69.7067 133.462 70.8021L133.083 77.9417C133.058 78.4243 133.03 78.9069 133.009 79.355V79.5504L132.871 79.4317C132.007 78.6656 131.235 77.8996 130.474 77.1335C129.713 76.3675 128.998 75.6474 128.311 74.9503C126.945 73.5522 125.735 72.2691 124.736 71.2081C123.738 70.1471 122.949 69.247 122.414 68.6265C122.142 68.3201 121.943 68.075 121.805 67.9065L121.653 67.7188C121.607 67.6766 121.589 67.6537 121.593 67.6537Z" fill="#263238"/>
<path d="M119.2 74.64C119.353 74.3464 119.534 74.0715 119.742 73.8203C120.096 73.3339 120.598 72.6712 121.175 71.955C121.752 71.2387 122.287 70.6067 122.683 70.1586C122.886 69.9029 123.112 69.6706 123.359 69.4653C123.19 69.7479 122.995 70.0121 122.779 70.2543L121.313 72.0852L119.841 73.9122C119.649 74.1762 119.434 74.4198 119.2 74.64Z" fill="#263238"/>
<path d="M133.936 82.2239C133.717 81.7556 133.537 81.2673 133.398 80.7646C133.198 80.2865 133.037 79.7905 132.917 79.2823C133.442 80.1756 133.789 81.1774 133.936 82.2239Z" fill="#263238"/>
<path d="M134.91 81.408C134.493 81.1302 134.11 80.7969 133.77 80.416C133.39 80.0788 133.048 79.693 132.754 79.2669C133.554 79.8785 134.278 80.598 134.91 81.408Z" fill="#263238"/>
<path d="M28.8849 138.467L17.515 149.571L14.4 145.258L24.3646 131.902L28.8849 138.467Z" fill="#FFBE9D"/>
<path d="M17.777 149.989L18.1664 149.606L14.577 144.837L12.9593 146.369L13.1752 146.668C14.1416 147.997 18.1805 153.352 19.108 153.972C20.1416 154.661 17.777 149.989 17.777 149.989Z" fill="#166DFC"/>
<g opacity="0.5">
<path opacity="0.5" d="M14.3504 148.001C14.6535 147.592 14.805 147.076 14.7752 146.553C14.7538 146.036 14.5513 145.547 14.2089 145.185L13.023 146.335L14.3504 148.001Z" fill="white"/>
</g>
<path opacity="0.5" d="M18.8708 152.333C18.8708 152.333 19.6212 154.049 19.2708 154.075C18.9204 154.102 14.669 148.859 12.9593 146.369L13.0619 146.285L17.9929 152.448C17.9929 152.448 18.6407 152.076 18.8708 152.333Z" fill="white"/>
<path d="M13.0053 146.212C13.0213 146.242 13.0403 146.27 13.0619 146.296L13.2319 146.538L13.8796 147.403C14.4283 148.131 15.2035 149.123 16.0779 150.199C16.9522 151.276 17.7664 152.233 18.3646 152.919L19.0726 153.723L19.2673 153.938C19.2896 153.965 19.3145 153.989 19.3416 154.01L19.2779 153.926L19.0903 153.704C18.9027 153.478 18.669 153.206 18.3823 152.884C17.7947 152.191 16.9876 151.23 16.1133 150.153C15.2389 149.077 14.4602 148.089 13.8973 147.369L13.2354 146.518L13.0549 146.289C13.0409 146.261 13.0243 146.236 13.0053 146.212Z" fill="#263238"/>
<path d="M17.9256 152.509C18.0828 152.422 18.2493 152.357 18.4212 152.314C18.5964 152.292 18.7734 152.292 18.9486 152.314C18.7844 152.216 18.5925 152.189 18.4106 152.237C18.2235 152.26 18.0508 152.357 17.9256 152.509Z" fill="#263238"/>
<path d="M17.4584 150.548C17.5504 150.571 17.6461 150.571 17.7381 150.548C17.8903 150.525 18.0106 150.486 18.0071 150.464C17.8197 150.446 17.6313 150.479 17.4584 150.559V150.548Z" fill="#263238"/>
<path d="M17.3381 150.004C17.3381 150.004 17.4372 150.054 17.5682 150.069C17.6991 150.084 17.8053 150.069 17.8089 150.069C17.8124 150.069 17.7062 150.019 17.5752 150.004C17.4443 149.989 17.3381 149.981 17.3381 150.004Z" fill="#263238"/>
<path d="M17.5469 149.387C17.5469 149.387 17.6071 149.517 17.7132 149.652C17.8194 149.786 17.9186 149.885 17.9327 149.87C17.9469 149.855 17.8725 149.74 17.7628 149.606C17.6531 149.471 17.561 149.372 17.5469 149.387Z" fill="#263238"/>
<path d="M17.7629 149.035C17.7771 149.161 17.8279 149.279 17.908 149.372C18.0248 149.537 18.1558 149.632 18.1664 149.617C18.177 149.602 18.0708 149.487 17.9646 149.326C17.9046 149.223 17.8371 149.126 17.7629 149.035Z" fill="#263238"/>
<path d="M17.954 150.352C18.0189 150.464 18.1016 150.563 18.1982 150.644C18.2961 150.74 18.4028 150.824 18.5168 150.896C18.5832 150.946 18.6559 150.985 18.7327 151.011C18.7783 151.03 18.8287 151.03 18.8743 151.011C18.8989 150.997 18.9191 150.975 18.9324 150.949C18.9456 150.922 18.9513 150.892 18.9487 150.862C18.9212 150.759 18.8731 150.663 18.8078 150.582C18.7424 150.502 18.6614 150.437 18.5705 150.394C18.4796 150.351 18.3811 150.33 18.2819 150.333C18.1827 150.336 18.0852 150.362 17.9965 150.41C17.9655 150.425 17.9378 150.448 17.915 150.475C18.0267 150.421 18.1469 150.391 18.269 150.387C18.3941 150.385 18.5169 150.423 18.623 150.494C18.6885 150.535 18.7455 150.591 18.7905 150.656C18.8356 150.722 18.8677 150.797 18.885 150.877C18.885 150.954 18.8283 150.984 18.7575 150.961C18.6877 150.933 18.6202 150.899 18.5557 150.858C18.4433 150.789 18.3356 150.711 18.2336 150.624C18.0531 150.456 17.9646 150.341 17.954 150.352Z" fill="#263238"/>
<path d="M18.0035 150.441C18.0897 150.423 18.1667 150.371 18.2195 150.295C18.2843 150.218 18.3305 150.124 18.354 150.023C18.3764 149.959 18.3827 149.89 18.3721 149.823C18.3615 149.755 18.3345 149.692 18.2938 149.64C18.2629 149.616 18.2248 149.606 18.1873 149.612C18.1498 149.618 18.1157 149.639 18.092 149.671C18.0548 149.719 18.0271 149.775 18.0106 149.835C17.9823 149.932 17.9656 150.033 17.9611 150.134C17.9477 150.226 17.9562 150.319 17.9859 150.406C17.9989 150.317 18.006 150.228 18.0071 150.138C18.0207 150.043 18.042 149.949 18.0708 149.858C18.0956 149.763 18.177 149.636 18.2513 149.697C18.2778 149.743 18.2952 149.793 18.3025 149.846C18.3098 149.899 18.3068 149.952 18.2938 150.004C18.2747 150.096 18.2372 150.182 18.1841 150.257C18.1288 150.323 18.0684 150.385 18.0035 150.441Z" fill="#263238"/>
<path d="M14.2407 145.197C14.2407 145.197 14.3611 145.316 14.5062 145.546C14.6978 145.844 14.8093 146.194 14.8283 146.557C14.8407 146.918 14.7624 147.277 14.6018 147.595C14.4744 147.836 14.3575 147.978 14.3682 147.978C14.3788 147.978 14.4036 147.955 14.4531 147.897C14.5247 147.816 14.5877 147.726 14.6407 147.629C14.8234 147.309 14.9122 146.936 14.8956 146.561C14.8758 146.184 14.7525 145.823 14.5416 145.523C14.4797 145.432 14.4084 145.35 14.3292 145.277C14.2797 145.216 14.2443 145.193 14.2407 145.197Z" fill="#263238"/>
<path d="M15.2283 148.188C15.3628 148.452 15.5282 148.695 15.7204 148.912C15.8961 149.147 16.0997 149.356 16.3257 149.533C16.3257 149.533 16.0779 149.234 15.777 148.862C15.4761 148.491 15.2637 148.177 15.2283 148.188Z" fill="#263238"/>
<path d="M14.5027 147.284C14.4814 147.284 14.4637 147.365 14.4248 147.453C14.3858 147.541 14.3434 147.618 14.3575 147.633C14.3717 147.648 14.4425 147.591 14.4885 147.484C14.5345 147.376 14.5204 147.284 14.5027 147.284Z" fill="#263238"/>
<path d="M14.6159 146.572C14.5982 146.572 14.577 146.641 14.5699 146.733C14.5628 146.825 14.5699 146.898 14.5947 146.898C14.6195 146.898 14.6336 146.829 14.6407 146.737C14.6478 146.645 14.6336 146.572 14.6159 146.572Z" fill="#263238"/>
<path d="M14.4 145.917C14.4 145.917 14.4389 145.994 14.4708 146.082C14.5026 146.17 14.5097 146.25 14.5309 146.254C14.5522 146.258 14.577 146.162 14.5309 146.055C14.4849 145.948 14.407 145.898 14.4 145.917Z" fill="#263238"/>
<path d="M14.2017 145.492C14.2017 145.492 14.2017 145.545 14.2017 145.595C14.2017 145.645 14.2477 145.683 14.2654 145.676C14.2831 145.668 14.2654 145.622 14.2654 145.568C14.2654 145.515 14.2194 145.484 14.2017 145.492Z" fill="#263238"/>
<path d="M49.108 138.352L50.4779 155.125H44.6195L42.0354 138.352H49.108Z" fill="#FFBE9D"/>
<path d="M50.3079 155.282V154.719L44.6194 154.692L44.6867 157.017H45.0407C46.6053 157.048 52.9911 157.063 54.0212 156.68C55.1327 156.266 50.3079 155.282 50.3079 155.282Z" fill="#166DFC"/>
<g opacity="0.5">
<path opacity="0.5" d="M46.6973 156.887C46.5974 156.374 46.3249 155.919 45.9327 155.611C45.5475 155.308 45.0716 155.172 44.5982 155.228L44.6548 156.94L46.6973 156.887Z" fill="white"/>
</g>
<path opacity="0.5" d="M52.662 155.853C52.662 155.853 54.3611 156.312 54.1629 156.619C53.9646 156.925 47.508 157.174 44.6514 157.002V156.864L52.1841 156.646C52.1841 156.646 52.3328 155.883 52.662 155.853Z" fill="white"/>
<path d="M44.5663 156.879H44.6655H44.9451H45.9717C46.8425 156.879 48.0425 156.879 49.3663 156.814C50.6902 156.749 51.8902 156.692 52.7575 156.626L53.784 156.542L54.0637 156.511H54.1593H54.0637H53.784L52.754 156.573C51.8867 156.626 50.6902 156.692 49.3663 156.741C48.0425 156.791 46.8425 156.814 45.9717 156.826H44.9451H44.6655L44.5663 156.879Z" fill="#263238"/>
<path d="M52.1876 156.757C52.2265 156.57 52.2847 156.389 52.361 156.217C52.463 156.057 52.5818 155.91 52.715 155.78C52.5401 155.854 52.3982 155.998 52.3185 156.182C52.2109 156.35 52.1643 156.554 52.1876 156.757Z" fill="#263238"/>
<path d="M50.4885 155.902C50.5062 155.902 50.5841 155.807 50.662 155.661C50.7399 155.516 50.7894 155.393 50.7717 155.382C50.6996 155.449 50.6416 155.533 50.6018 155.627C50.5461 155.709 50.5074 155.803 50.4885 155.902Z" fill="#263238"/>
<path d="M50.0247 155.661C50.0247 155.661 50.1238 155.608 50.2194 155.508C50.315 155.408 50.3787 155.316 50.3646 155.305C50.3504 155.293 50.2654 155.355 50.1699 155.454C50.0743 155.554 50.0106 155.638 50.0247 155.661Z" fill="#263238"/>
<path d="M49.7168 155.094C49.8115 155.128 49.9121 155.137 50.0106 155.121C50.1114 155.13 50.2127 155.116 50.3079 155.079C50.2124 155.044 50.1106 155.033 50.0106 155.048C49.8478 155.052 49.7168 155.071 49.7168 155.094Z" fill="#263238"/>
<path d="M49.6 154.688C49.6995 154.755 49.8157 154.788 49.9328 154.78C50.0538 154.802 50.1779 154.78 50.2868 154.719C50.1762 154.706 50.0646 154.706 49.954 154.719C49.837 154.698 49.7186 154.688 49.6 154.688Z" fill="#263238"/>
<path d="M50.6619 155.362C50.779 155.385 50.8988 155.385 51.0159 155.362C51.1472 155.339 51.2764 155.303 51.4017 155.255C51.4772 155.228 51.5496 155.192 51.6177 155.148C51.6605 155.119 51.692 155.074 51.7062 155.022C51.7104 154.992 51.707 154.963 51.6964 154.936C51.6858 154.908 51.6683 154.885 51.646 154.868C51.5051 154.799 51.3462 154.785 51.1968 154.829C51.0474 154.873 50.917 154.972 50.8283 155.11C50.774 155.189 50.7365 155.281 50.7186 155.378C50.7101 155.412 50.7101 155.447 50.7186 155.481C50.7543 155.36 50.8069 155.245 50.8743 155.14C50.9528 155.035 51.057 154.955 51.1752 154.91C51.2441 154.879 51.3181 154.863 51.3929 154.863C51.4677 154.863 51.5417 154.879 51.6106 154.91C51.6708 154.956 51.6495 155.029 51.5858 155.075C51.5225 155.114 51.4562 155.148 51.3876 155.175C51.267 155.225 51.1427 155.265 51.0159 155.293C50.8035 155.343 50.6619 155.351 50.6619 155.362Z" fill="#263238"/>
<path d="M50.761 155.378C50.8005 155.294 50.8117 155.198 50.7929 155.106C50.779 155.003 50.7413 154.905 50.6832 154.822C50.652 154.764 50.6071 154.715 50.553 154.682C50.4989 154.648 50.4376 154.631 50.3752 154.631C50.3388 154.642 50.3075 154.667 50.2878 154.702C50.2681 154.737 50.2614 154.778 50.269 154.819C50.2779 154.881 50.301 154.94 50.3363 154.991C50.3864 155.076 50.4471 155.153 50.5168 155.221C50.5742 155.291 50.6474 155.343 50.7292 155.374C50.7292 155.374 50.6548 155.305 50.5487 155.186C50.4899 155.114 50.4367 155.038 50.3894 154.956C50.3363 154.872 50.2973 154.727 50.3894 154.704C50.4814 154.681 50.577 154.788 50.6336 154.861C50.6873 154.935 50.7248 155.021 50.7433 155.113C50.7558 155.201 50.7617 155.289 50.761 155.378Z" fill="#263238"/>
<path d="M44.6443 155.202C44.6443 155.202 44.8071 155.179 45.062 155.202C45.3971 155.233 45.7173 155.366 45.9859 155.585C46.2534 155.802 46.4604 156.095 46.5841 156.431C46.6797 156.692 46.6938 156.868 46.708 156.864C46.7135 156.823 46.7135 156.782 46.708 156.741C46.6927 156.63 46.6678 156.521 46.6337 156.416C46.5212 156.059 46.3113 155.748 46.0319 155.523C45.7509 155.302 45.4161 155.176 45.0691 155.159C44.9654 155.15 44.8612 155.15 44.7576 155.159C44.7179 155.166 44.6796 155.181 44.6443 155.202Z" fill="#263238"/>
<path d="M47.3911 156.27C47.6639 156.327 47.9425 156.343 48.2194 156.32C48.4974 156.322 48.7746 156.286 49.0442 156.213C49.0442 156.19 48.6725 156.232 48.2159 156.247C47.7593 156.262 47.3911 156.251 47.3911 156.27Z" fill="#263238"/>
<path d="M46.2832 156.305C46.2832 156.305 46.3151 156.389 46.3575 156.477C46.4 156.565 46.4213 156.649 46.439 156.649C46.4567 156.649 46.4673 156.55 46.4177 156.446C46.3682 156.343 46.2938 156.289 46.2832 156.305Z" fill="#263238"/>
<path d="M45.8478 155.761C45.8478 155.761 45.8726 155.837 45.9328 155.899C45.993 155.96 46.0532 155.998 46.0673 155.983C46.0815 155.968 46.0425 155.906 45.9788 155.845C45.9151 155.784 45.8585 155.745 45.8478 155.761Z" fill="#263238"/>
<path d="M45.2424 155.523C45.2424 155.546 45.3203 155.542 45.4053 155.569C45.4902 155.596 45.5504 155.646 45.5646 155.631C45.5787 155.615 45.5292 155.531 45.423 155.5C45.3168 155.47 45.2354 155.508 45.2424 155.523Z" fill="#263238"/>
<path d="M44.8106 155.42C44.8106 155.439 44.8389 155.47 44.8849 155.489C44.931 155.508 44.977 155.489 44.9841 155.489C44.9911 155.489 44.9557 155.439 44.9097 155.42C44.8637 155.401 44.8177 155.401 44.8106 155.42Z" fill="#263238"/>
<path d="M38.8107 89.126C38.8107 89.126 43.3947 122.066 42.7292 123.671C42.0638 125.276 27.2142 141.711 27.2142 141.711L21.6354 131.385C21.6354 131.385 31.462 119.607 31.3204 118.998C31.1788 118.389 24.2407 86.4755 24.2407 86.4755L38.8107 89.126Z" fill="#263238"/>
<path d="M40.4425 101.291C40.3964 100.938 36.6973 91.9412 36.6973 91.9412L38.492 89.1988L38.8106 89.126L40.4425 101.291Z" fill="#263238"/>
<path d="M21.6354 86.0235L21.3558 87.2453C20.546 90.851 21.0532 94.6556 22.7717 97.8666L35.1894 121.166C36.0717 122.817 36.714 124.605 37.0938 126.467L40.1912 141.543H50.3859C50.3859 141.543 49.1257 131.201 48.0036 123.659C47.154 117.964 40.1098 100.295 36.6974 91.9297L38.8213 89.1145L35.1505 88.4519L21.6354 86.0235Z" fill="#263238"/>
<path d="M36.9664 91.8761C37.1087 92.3799 37.2825 92.8726 37.4867 93.3508C37.8407 94.2509 38.2938 95.4957 38.7894 96.8784C39.285 98.2611 39.7204 99.5251 40.0319 100.437C40.1815 100.938 40.3612 101.428 40.5699 101.904C40.5571 101.761 40.5273 101.621 40.4814 101.486C40.4142 101.226 40.308 100.847 40.1699 100.383C39.8903 99.4562 39.4619 98.1884 38.9805 96.798C38.4991 95.4076 37.9929 94.1743 37.6177 93.2895C37.4301 92.8452 37.2637 92.489 37.1611 92.2476C37.1117 92.115 37.0462 91.99 36.9664 91.8761Z" fill="#455A64"/>
<path d="M38.0814 131.044C38.0893 130.958 38.0893 130.87 38.0814 130.784C38.0601 130.588 38.0354 130.343 38.0035 130.037C37.9683 129.642 37.9139 129.25 37.8407 128.861C37.7592 128.409 37.6814 127.884 37.5433 127.329C37.4796 127.045 37.4123 126.747 37.3415 126.44C37.2708 126.134 37.1716 125.816 37.0796 125.487C36.9097 124.824 36.669 124.138 36.4353 123.411C35.8803 121.843 35.2481 120.309 34.5415 118.814C33.2329 116.127 31.7839 113.522 30.2017 111.012C29.6035 110.047 29.1079 109.269 28.761 108.737L28.361 108.143C28.3161 108.071 28.2651 108.003 28.2088 107.94C28.2393 108.021 28.2785 108.099 28.3256 108.17L28.6973 108.802C29.0513 109.373 29.5115 110.154 30.0849 111.1C31.2495 113.054 32.8566 115.765 34.3646 118.914C35.061 120.396 35.6883 121.914 36.2442 123.464C36.4814 124.184 36.7292 124.866 36.9061 125.521C36.9982 125.847 37.0938 126.161 37.1752 126.467C37.2566 126.773 37.3203 127.065 37.3876 127.348C37.5362 127.907 37.6212 128.424 37.7132 128.88C37.8053 129.336 37.869 129.723 37.9115 130.029C37.9539 130.336 37.9964 130.577 38.0283 130.768C38.0362 130.862 38.054 130.955 38.0814 131.044Z" fill="#455A64"/>
<path d="M23.3097 96.7673C23.3097 96.7673 23.2814 96.7328 23.2319 96.6524L23.0159 96.2694C23.1861 95.9801 23.4087 95.7311 23.6703 95.5375C23.932 95.344 24.2271 95.2099 24.5381 95.1433C25.003 95.0301 25.4836 95.0145 25.954 95.0973C26.5063 95.2018 27.0489 95.3594 27.5752 95.5685C28.1833 95.7717 28.7752 96.0279 29.3451 96.3345C29.9956 96.6852 30.5072 97.2782 30.7858 98.0045C30.9249 98.401 30.9484 98.8341 30.8531 99.2455C30.737 99.6441 30.584 100.029 30.3965 100.395C30.205 100.751 30.1014 101.154 30.0956 101.567C30.1265 101.982 30.3024 102.37 30.5876 102.651C31.2673 103.382 32.2726 103.516 33.1044 103.972C33.9163 104.417 34.5778 105.127 34.9947 106.002C35.3861 106.78 35.5699 107.661 35.5257 108.545C35.4838 109.316 35.2542 110.062 34.8602 110.706C34.2975 111.641 33.4572 112.34 32.4779 112.69C32.2141 112.78 31.9424 112.84 31.6673 112.87C31.5718 112.877 31.476 112.877 31.3805 112.87C31.7408 112.813 32.0961 112.723 32.4425 112.602C33.3892 112.234 34.196 111.536 34.7363 110.617C35.1096 109.991 35.3244 109.27 35.3593 108.526C35.3925 107.672 35.2102 106.825 34.8319 106.075C34.4259 105.238 33.7886 104.559 33.0088 104.133C32.6088 103.918 32.1593 103.773 31.7097 103.589C31.2386 103.421 30.8064 103.145 30.4425 102.781C30.1243 102.465 29.9293 102.029 29.8973 101.563C29.9037 101.117 30.0145 100.681 30.2195 100.295C30.4032 99.9392 30.5538 99.5645 30.669 99.1765C30.7565 98.8019 30.7342 98.407 30.6053 98.0466C30.3464 97.3596 29.866 96.7975 29.2531 96.4647C28.6929 96.153 28.1105 95.8904 27.5115 95.6795C26.9968 95.4653 26.4647 95.3037 25.9221 95.1969C25.4687 95.1067 25.0033 95.1132 24.5522 95.2161C24.2504 95.2763 23.9624 95.4004 23.7049 95.5811C23.4474 95.7619 23.2253 95.9957 23.0513 96.2694L23.246 96.6524C23.2712 96.688 23.2925 96.7266 23.3097 96.7673Z" fill="#FAFAFA"/>
<path d="M49.0478 131.086C48.7976 130.849 48.5145 130.655 48.2088 130.512C47.8442 130.357 47.464 130.249 47.0761 130.19C46.6265 130.11 46.1027 130.06 45.5292 129.96C44.8937 129.862 44.2805 129.637 43.7204 129.298C42.6481 128.649 41.8304 127.6 41.4195 126.347C41.0085 125.094 41.0325 123.723 41.4867 122.487C41.823 121.587 42.3292 120.806 42.4708 119.936C42.5605 119.086 42.4459 118.224 42.138 117.435C41.8689 116.704 41.6396 115.955 41.4513 115.195C41.2987 114.516 41.2987 113.808 41.4513 113.13C41.6732 112.148 42.1853 111.271 42.9097 110.633C43.1687 110.395 43.4632 110.208 43.7805 110.077C43.4916 110.259 43.2158 110.464 42.9557 110.69C42.268 111.336 41.7861 112.201 41.5788 113.161C41.432 113.818 41.432 114.503 41.5788 115.16C41.7757 115.912 42.012 116.651 42.2867 117.374C42.6103 118.191 42.7323 119.084 42.6407 119.967C42.492 120.898 41.9717 121.691 41.6531 122.564C41.2142 123.755 41.1873 125.077 41.5776 126.287C41.9678 127.498 42.7488 128.515 43.777 129.152C44.3241 129.491 44.924 129.718 45.5469 129.822C46.1133 129.93 46.6372 129.987 47.0903 130.079C47.4847 130.155 47.8688 130.283 48.2336 130.462C48.4633 130.573 48.6768 130.72 48.8672 130.899C48.9911 131.01 49.0549 131.079 49.0478 131.086Z" fill="#FAFAFA"/>
<path d="M44.2902 142.075C44.2548 142.075 44.2442 141.577 44.0601 140.807C43.9521 140.358 43.8039 139.92 43.6177 139.501C43.3849 138.991 43.1038 138.508 42.7787 138.061C42.4458 137.62 42.0709 137.218 41.6601 136.862C41.3227 136.57 40.9599 136.313 40.577 136.096C39.9221 135.736 39.4725 135.617 39.4832 135.579C39.5921 135.581 39.6999 135.603 39.8017 135.644C39.9224 135.674 40.0408 135.714 40.1557 135.763C40.3155 135.821 40.4716 135.89 40.623 135.97C41.0238 136.169 41.4035 136.414 41.7557 136.701C42.6202 137.409 43.3087 138.339 43.7593 139.406C43.9428 139.839 44.0829 140.292 44.177 140.758C44.2164 140.935 44.2448 141.116 44.2619 141.298C44.2822 141.433 44.2916 141.57 44.2902 141.708C44.31 141.829 44.31 141.954 44.2902 142.075Z" fill="#FAFAFA"/>
<path d="M39.0584 98.7476C39.0584 98.7476 39.0124 98.7476 38.9203 98.7782C38.7854 98.7989 38.6495 98.8117 38.5132 98.8165C38.0127 98.8345 37.5122 98.7765 37.0265 98.6442C36.3015 98.4551 35.6151 98.1226 35.0017 97.6636C34.2374 97.111 33.6089 96.3655 33.1704 95.4913C32.7319 94.6171 32.4966 93.6406 32.4849 92.646C32.4682 91.8389 32.5882 91.0354 32.8389 90.2751C33.003 89.7622 33.2317 89.2763 33.5186 88.8311C33.5942 88.7105 33.6769 88.5953 33.7663 88.4863C33.8265 88.4097 33.8619 88.3714 33.8655 88.3753C33.4885 88.9792 33.1851 89.6331 32.9628 90.321C32.7386 91.0699 32.6379 91.8556 32.6655 92.6422C32.6844 93.6035 32.9137 94.5464 33.3346 95.3933C33.7555 96.2402 34.3559 96.967 35.0867 97.5142C35.6804 97.9675 36.3429 98.3046 37.0442 98.5101C37.703 98.6847 38.3803 98.7646 39.0584 98.7476Z" fill="#FAFAFA"/>
<path d="M29.9823 120.239C30.0508 120.265 30.1171 120.297 30.1805 120.335C30.3115 120.4 30.4956 120.511 30.7292 120.66C31.3906 121.094 31.9765 121.65 32.4602 122.304C32.7943 122.762 33.0508 123.281 33.2177 123.836C33.403 124.479 33.4443 125.16 33.338 125.824C33.232 126.568 32.9038 127.254 32.4035 127.777C31.8796 128.329 31.1115 128.512 30.6655 129.118C30.2195 129.723 30.1203 130.516 30.0531 131.255C30.0315 131.99 29.9123 132.717 29.6991 133.415C29.4591 134.046 29.0218 134.565 28.4637 134.882C27.9893 135.162 27.466 135.332 26.9274 135.38C26.1557 135.426 25.3821 135.343 24.6336 135.135C24.3681 135.066 24.1664 135.008 24.0283 134.966C23.9573 134.952 23.8883 134.927 23.823 134.894C23.8958 134.897 23.9682 134.909 24.0389 134.928L24.6478 135.058C25.391 135.236 26.154 135.297 26.9133 135.238C27.4307 135.184 27.9321 135.015 28.3858 134.74C28.9091 134.435 29.3182 133.942 29.5434 133.346C29.7425 132.662 29.8533 131.952 29.8726 131.236C29.8986 130.849 29.953 130.464 30.0354 130.087C30.1185 129.686 30.2856 129.311 30.5239 128.991C31.0336 128.329 31.8053 128.149 32.2938 127.635C32.7669 127.143 33.0788 126.498 33.1823 125.797C33.2873 125.159 33.2534 124.503 33.0832 123.882C32.9274 123.345 32.6879 122.841 32.3752 122.392C31.9078 121.742 31.3445 121.18 30.708 120.729C30.4849 120.568 30.3044 120.45 30.1805 120.373C30.1096 120.337 30.043 120.292 29.9823 120.239Z" fill="#FAFAFA"/>
<path d="M31.069 40.9837C29.1044 40.4551 26.9911 41.7842 26.0141 43.6993C25.0371 45.6144 25.0265 47.9624 25.4867 50.092C25.6814 50.9844 25.954 51.9075 25.7628 52.8038C25.5575 53.7652 24.8495 54.5121 24.5097 55.4314C23.8619 57.2048 24.6867 59.1697 25.4938 60.8626C25.8478 61.6287 26.3327 62.4905 27.1186 62.659C28 62.8467 28.7752 62.0845 29.5186 61.5368C30.8307 60.5786 32.4277 60.189 33.9929 60.4451C35.7628 60.7401 37.3628 61.8393 39.1398 61.8738C39.9446 61.88 40.7381 61.6677 41.4474 61.2561C42.1568 60.8446 42.7593 60.247 43.2 59.5182C43.7274 58.6258 43.9079 57.2814 43.1469 56.6226C42.6442 56.1897 41.8761 56.2051 41.4336 55.6995C40.8955 55.0828 41.1292 54.0908 41.4053 53.3017C41.6814 52.5127 41.9575 51.5475 41.4655 50.8887C40.9168 50.1456 39.7274 50.2873 39.2035 49.5251C38.6796 48.7629 39.2318 47.61 39.2035 46.5988C39.1687 46.1535 39.0415 45.7224 38.8312 45.3378C38.621 44.9531 38.3332 44.6248 37.9893 44.3773C37.3239 43.8525 37.2318 43.684 36.315 41.8799" fill="#263238"/>
<path d="M28.3292 58.4994L35.4089 59.1543C35.4089 59.1543 40.5664 58.3385 42.5416 72.4913L50.3788 72.1427L50.7328 77.7808L39.954 78.3554L38.6832 77.5319L38.8107 89.126L20.9806 87.705C21.3841 85.0736 23.285 81.6111 23.9222 79.3895C23.2744 77.6353 19.6921 70.4842 19.5151 66.811C19.0337 56.7528 28.3292 58.4994 28.3292 58.4994Z" fill="#166DFC"/>
<path opacity="0.3" d="M39.4796 68.8755C39.4796 68.8755 40.7327 70.4076 40.754 71.6984C40.7858 73.7667 40.3044 74.8277 40.9026 77.0875L39.1964 77.5319C39.1964 77.5319 38.9345 76.9803 39.1575 75.8006C39.3805 74.6209 39.8124 73.1845 40.0035 71.9014C40.1732 70.8574 39.987 69.7822 39.4796 68.8755Z" fill="black"/>
<path d="M39.1964 77.5318C39.1442 77.3864 39.1085 77.2346 39.0902 77.0799C39.04 76.6577 39.04 76.2304 39.0902 75.8082C39.1659 75.188 39.2843 74.5747 39.4442 73.9735C39.6454 73.2477 39.8015 72.5081 39.9115 71.7597C40.0165 71.0189 39.9421 70.2614 39.6956 69.5611C39.4695 69.0005 39.1611 68.4831 38.7823 68.029C38.138 67.2361 37.6814 66.7957 37.7203 66.7688C37.8411 66.8521 37.9538 66.9483 38.0566 67.0561C38.3515 67.3323 38.6316 67.6264 38.8955 67.9371C39.3007 68.395 39.6299 68.9249 39.869 69.5036C40.1373 70.2327 40.2192 71.0266 40.1062 71.8018C39.9984 72.5599 39.8362 73.3078 39.6212 74.0387C39.4537 74.6305 39.3201 75.233 39.2212 75.8427C39.1618 76.2543 39.1416 76.6714 39.161 77.0875C39.1871 77.2339 39.1989 77.3828 39.1964 77.5318Z" fill="#263238"/>
<g opacity="0.2">
<path opacity="0.2" d="M39.4301 77.3863L34.1487 77.5165C33.7301 77.5593 33.3079 77.5058 32.9097 77.3595C32.354 77.1067 31.9965 76.5206 31.685 75.9614C30.7575 74.3068 29.908 72.6061 29.1363 70.8595C29.1363 70.8595 30.531 75.6588 31.4053 77.754C31.4903 78.0184 31.6659 78.2373 31.8958 78.3657C32.1257 78.494 32.3924 78.5218 32.6407 78.4434C34.9392 78.448 37.2261 78.0919 39.4301 77.3863Z" fill="black"/>
</g>
<path d="M73.9575 64.7465C74.7363 64.6865 75.5162 64.8435 76.223 65.2023C76.5241 65.3613 76.8544 65.445 77.1894 65.4474H78.0531V53.4396C78.0531 53.1973 78.0089 52.9575 77.9231 52.7337C77.8374 52.5099 77.7116 52.3066 77.5531 52.1355C77.3947 51.9644 77.2065 51.8288 76.9996 51.7364C76.7926 51.644 76.5708 51.5968 76.3469 51.5973H65.2956V50.7853C65.2992 50.4089 65.3815 50.0383 65.5363 49.7013C65.9571 48.7676 66.0934 47.7136 65.9257 46.6907C65.7292 45.4612 65.1134 44.3563 64.1999 43.5947C63.2865 42.8331 62.1421 42.4703 60.9933 42.5782C59.8444 42.6861 58.7749 43.2568 57.9964 44.1772C57.2179 45.0977 56.7871 46.3009 56.7894 47.5487C56.7893 48.2388 56.9232 48.9213 57.1823 49.5519C57.3133 49.8678 57.3832 50.2093 57.3876 50.5554V51.5973H46.6088C46.1573 51.5973 45.7242 51.7914 45.4049 52.1369C45.0856 52.4824 44.9062 52.951 44.9062 53.4396V85.8779C44.9062 86.0751 44.9421 86.2704 45.0118 86.4525C45.0815 86.6347 45.1838 86.8002 45.3126 86.9396C45.4415 87.0791 45.5944 87.1897 45.7628 87.2651C45.9311 87.3406 46.1116 87.3794 46.2938 87.3794H76.6655C77.0332 87.3784 77.3856 87.2199 77.6456 86.9385C77.9057 86.6572 78.0522 86.2758 78.0531 85.8779V74.1536H76.8248C76.5408 74.1539 76.2595 74.2138 75.9965 74.3298C75.4525 74.57 74.8707 74.6936 74.2832 74.6936C73.0627 74.7404 71.8751 74.2606 70.9815 73.3598C70.088 72.4591 69.5618 71.2111 69.5186 69.8905C69.4754 68.5699 69.9188 67.2848 70.7513 66.318C71.5837 65.3512 72.7371 64.7817 73.9575 64.735V64.7465Z" fill="#166DFC"/>
<path opacity="0.2" d="M73.9575 64.7465C74.7363 64.6865 75.5162 64.8435 76.223 65.2023C76.5241 65.3613 76.8544 65.445 77.1894 65.4474H78.0531V53.4396C78.0531 53.1973 78.0089 52.9575 77.9231 52.7337C77.8374 52.5099 77.7116 52.3066 77.5531 52.1355C77.3947 51.9644 77.2065 51.8288 76.9996 51.7364C76.7926 51.644 76.5708 51.5968 76.3469 51.5973H65.2956V50.7853C65.2992 50.4089 65.3815 50.0383 65.5363 49.7013C65.9571 48.7676 66.0934 47.7136 65.9257 46.6907C65.7292 45.4612 65.1134 44.3563 64.1999 43.5947C63.2865 42.8331 62.1421 42.4703 60.9933 42.5782C59.8444 42.6861 58.7749 43.2568 57.9964 44.1772C57.2179 45.0977 56.7871 46.3009 56.7894 47.5487C56.7893 48.2388 56.9232 48.9213 57.1823 49.5519C57.3133 49.8678 57.3832 50.2093 57.3876 50.5554V51.5973H46.6088C46.1573 51.5973 45.7242 51.7914 45.4049 52.1369C45.0856 52.4824 44.9062 52.951 44.9062 53.4396V85.8779C44.9062 86.0751 44.9421 86.2704 45.0118 86.4525C45.0815 86.6347 45.1838 86.8002 45.3126 86.9396C45.4415 87.0791 45.5944 87.1897 45.7628 87.2651C45.9311 87.3406 46.1116 87.3794 46.2938 87.3794H76.6655C77.0332 87.3784 77.3856 87.2199 77.6456 86.9385C77.9057 86.6572 78.0522 86.2758 78.0531 85.8779V74.1536H76.8248C76.5408 74.1539 76.2595 74.2138 75.9965 74.3298C75.4525 74.57 74.8707 74.6936 74.2832 74.6936C73.0627 74.7404 71.8751 74.2606 70.9815 73.3598C70.088 72.4591 69.5618 71.2111 69.5186 69.8905C69.4754 68.5699 69.9188 67.2848 70.7513 66.318C71.5837 65.3512 72.7371 64.7817 73.9575 64.735V64.7465Z" fill="white"/>
<path d="M28.2337 58.7675L27.685 45.2467L32.6407 41.179L37.1505 43.5652C37.1505 43.5652 37.3027 49.6936 37.1505 52.3518C36.9983 55.01 34.5239 55.2935 34.5239 55.2935C34.5239 55.2935 34.5841 56.8485 34.6408 58.4841C34.6571 58.9537 34.5851 59.422 34.4293 59.8607C34.2735 60.2994 34.037 60.6994 33.7342 61.0363C33.4314 61.3732 33.0686 61.6402 32.6677 61.821C32.2668 62.0019 31.8361 62.0928 31.4018 62.0883C30.5816 62.0774 29.7964 61.7273 29.2073 61.1098C28.6181 60.4922 28.2698 59.6542 28.2337 58.7675Z" fill="#FFBE9D"/>
<path d="M36.669 48.0313C36.669 48.0987 36.6505 48.1646 36.6159 48.2207C36.5813 48.2767 36.5321 48.3204 36.4745 48.3462C36.4169 48.372 36.3536 48.3788 36.2925 48.3656C36.2314 48.3525 36.1752 48.32 36.1312 48.2723C36.0871 48.2247 36.0571 48.1639 36.0449 48.0978C36.0328 48.0317 36.039 47.9631 36.0629 47.9008C36.0867 47.8385 36.1271 47.7853 36.1789 47.7479C36.2307 47.7104 36.2916 47.6904 36.3539 47.6904C36.4375 47.6904 36.5176 47.7263 36.5767 47.7902C36.6358 47.8542 36.669 47.9409 36.669 48.0313Z" fill="#263238"/>
<path d="M36.9734 47.6598C36.931 47.7057 36.7009 47.4912 36.3611 47.4721C36.0212 47.4529 35.7699 47.6291 35.7345 47.5793C35.6991 47.5295 35.7593 47.4759 35.869 47.3955C36.018 47.2893 36.1948 47.2383 36.3729 47.25C36.5509 47.2617 36.7207 47.3356 36.8566 47.4606C36.9593 47.5564 36.9911 47.6253 36.9734 47.6598Z" fill="#263238"/>
<path d="M33.0266 48.0313C33.0266 48.0987 33.0081 48.1646 32.9735 48.2207C32.9389 48.2767 32.8897 48.3204 32.8321 48.3462C32.7745 48.372 32.7112 48.3788 32.6501 48.3656C32.589 48.3525 32.5328 48.32 32.4888 48.2723C32.4447 48.2247 32.4147 48.1639 32.4025 48.0978C32.3904 48.0317 32.3966 47.9631 32.4205 47.9008C32.4443 47.8385 32.4847 47.7853 32.5365 47.7479C32.5883 47.7104 32.6492 47.6904 32.7115 47.6904C32.7951 47.6904 32.8752 47.7263 32.9343 47.7902C32.9934 47.8542 33.0266 47.9409 33.0266 48.0313Z" fill="#263238"/>
<path d="M33.2213 47.6598C33.1788 47.7057 32.9487 47.4912 32.6089 47.4721C32.269 47.4529 32.0177 47.6291 31.9823 47.5793C31.9469 47.5295 32.0071 47.4759 32.1168 47.3955C32.2618 47.2895 32.434 47.2358 32.6089 47.2423C32.7871 47.2548 32.957 47.3286 33.0938 47.4529C33.2071 47.5564 33.239 47.6253 33.2213 47.6598Z" fill="#263238"/>
<path d="M34.5345 55.2858C33.3674 55.2322 32.2388 54.8189 31.2814 54.0946C31.2814 54.0946 32.0956 56.0825 34.5593 55.9752L34.5345 55.2858Z" fill="#EB996E"/>
<path d="M34.4424 50.7546C34.6233 50.7067 34.8085 50.681 34.9947 50.678C35.0796 50.678 35.1646 50.678 35.1858 50.5938C35.1956 50.4911 35.1784 50.3876 35.1362 50.295C35.0631 50.0575 34.9852 49.8022 34.9026 49.529C34.7433 48.9889 34.6053 48.4986 34.5097 48.1424C34.4471 47.9518 34.4055 47.7538 34.3858 47.5526C34.4787 47.7273 34.5512 47.9139 34.6017 48.1079C34.7185 48.4603 34.8743 48.9429 35.0336 49.483L35.2566 50.249C35.3076 50.369 35.3188 50.5042 35.2885 50.6321C35.276 50.6647 35.2567 50.6937 35.2321 50.717C35.2076 50.7402 35.1784 50.7571 35.1469 50.7661C35.0974 50.7711 35.0476 50.7711 34.9982 50.7661C34.8132 50.7864 34.6266 50.7825 34.4424 50.7546Z" fill="#263238"/>
<path d="M34.1911 51.0725C34.0582 51.1104 33.9364 51.1842 33.8371 51.287C33.7761 51.3429 33.7359 51.4209 33.7241 51.5065C33.7123 51.5921 33.7297 51.6794 33.773 51.7522C33.8164 51.8249 33.8827 51.878 33.9597 51.9017C34.0366 51.9254 34.1189 51.9179 34.1911 51.8807C34.2559 51.8654 34.3169 51.8353 34.3701 51.7924C34.4232 51.7494 34.4672 51.6947 34.4991 51.6317C34.5289 51.5662 34.5407 51.4927 34.5332 51.4201C34.5256 51.3475 34.4991 51.2787 34.4566 51.2219C34.4124 51.1703 34.3532 51.1365 34.2889 51.1261C34.2246 51.1156 34.1589 51.1292 34.1026 51.1645" fill="#EB996E"/>
<path d="M34.6301 51.6011C34.6301 51.6548 34.3505 51.739 34.0496 51.5513C33.7487 51.3637 33.6673 51.0534 33.7168 51.0419C33.7664 51.0304 33.8938 51.2334 34.1416 51.379C34.3894 51.5245 34.623 51.5437 34.6301 51.6011Z" fill="#263238"/>
<path d="M32.9168 40.6504C32.3966 40.6309 31.8788 40.7358 31.4003 40.9576C30.9219 41.1793 30.4945 41.5126 30.1487 41.9335C29.4619 42.7933 29.1126 43.9093 29.1752 45.0437C29.1682 45.4698 29.2928 45.8863 29.5292 46.2272C29.8832 46.6677 30.4814 46.7558 31.023 46.8132C31.573 46.9235 32.1394 46.892 32.6761 46.7213C33.2 46.503 33.6354 45.917 33.5186 45.3271C33.2602 45.7101 33.4761 46.277 33.8442 46.5183C34.2338 46.7251 34.6691 46.81 35.1009 46.7635H36.9557C37.1674 46.7861 37.3803 46.7365 37.5646 46.6217C37.6636 46.5127 37.7416 46.3833 37.7939 46.2413C37.8461 46.0992 37.8717 45.9473 37.869 45.7944C37.9681 44.7258 38.0602 43.5882 37.6071 42.6345C37.1569 41.7895 36.4227 41.1651 35.5575 40.8917C34.7115 40.5891 33.7876 40.727 32.9062 40.6657" fill="#263238"/>
<path d="M27.6849 58.3845C28.361 58.7675 29.6424 57.2584 30.0601 56.5651C30.432 55.8346 30.5572 54.9869 30.4141 54.1674C30.3256 53.3439 30.1239 52.5357 30.1062 51.7084C30.0814 50.3678 30.5486 49.0846 30.7681 47.7632C31.0035 46.3258 30.9468 44.8501 30.6017 43.4389C30.4672 42.8911 30.2478 42.2898 29.7522 42.083C29.5451 42.0082 29.3234 41.9939 29.1095 42.0417C28.8957 42.0894 28.6973 42.1975 28.5345 42.3549C28.214 42.6747 27.9626 43.0671 27.7982 43.504L27.4053 46.729L27.6991 51.2449L27.6849 58.3845Z" fill="#263238"/>
<path d="M45.5044 75.3908L47.3097 82.0554C47.3097 82.0554 37.8619 85.7746 32.7469 85.7056C27.9504 85.6443 26.577 85.0545 24.892 80.8642C23.2071 76.6739 21.2814 71.8631 20.8885 69.0938C20.8885 69.0938 17.0336 57.5188 27.3557 58.6603L28.7717 67.4698C28.7717 67.4698 29.915 71.5567 29.9964 71.7942C30.7681 74.0004 31.7664 77.2331 32.7327 77.6238C33.6991 78.0145 45.5044 75.3908 45.5044 75.3908Z" fill="#166DFC"/>
<path d="M45.5044 75.3907C45.4243 75.4233 45.3413 75.4464 45.2566 75.4597L44.5486 75.6244C43.9186 75.7661 43.0053 75.9767 41.8725 76.2602C40.7398 76.5436 39.3947 76.8922 37.8513 77.1986C36.1754 77.5583 34.4695 77.729 32.761 77.708H32.7009L32.6796 77.6467C32.4849 77.099 32.2796 76.5206 32.0849 75.9308C30.7256 71.798 29.692 67.9984 28.8566 65.2789C28.4424 63.9153 28.0955 62.816 27.8478 62.0615C27.7309 61.6785 27.6354 61.4065 27.5646 61.192C27.5262 61.0918 27.4965 60.9879 27.4761 60.8818C27.4761 60.8818 27.5221 60.9813 27.6 61.1767C27.6778 61.372 27.784 61.6593 27.915 62.0347C28.184 62.7816 28.5486 63.8732 28.977 65.2329C29.8478 67.9447 30.9026 71.7443 32.2584 75.8618C32.4531 76.4517 32.6548 77.0109 32.8495 77.574L32.7646 77.5127C34.4614 77.5355 36.156 77.3738 37.823 77.0301C39.3522 76.7313 40.7079 76.3904 41.8478 76.1338C42.9876 75.8772 43.9009 75.678 44.538 75.5554L45.2672 75.429C45.3456 75.4117 45.4248 75.3989 45.5044 75.3907Z" fill="#263238"/>
<path d="M47.3097 82.0554C47.2219 82.1105 47.1294 82.1567 47.0336 82.1933C46.8495 82.2775 46.577 82.3924 46.223 82.5342C45.515 82.8176 44.4743 83.193 43.1752 83.6028C41.8761 84.0126 40.3221 84.4608 38.5911 84.9357C36.7186 85.5011 34.7989 85.8642 32.8602 86.0197C32.3478 86.046 31.8344 86.032 31.3239 85.9775C30.824 85.9279 30.3311 85.8161 29.8549 85.6443C28.963 85.2949 28.1455 84.7542 27.4513 84.0548C26.3028 82.8559 25.3459 81.4594 24.6195 79.9219C23.9823 78.6311 23.5575 77.5433 23.2531 76.7888C23.108 76.4058 22.9982 76.1185 22.9274 75.9155C22.8846 75.817 22.8503 75.7144 22.8248 75.6091C22.8788 75.7008 22.9239 75.7983 22.9593 75.9002C23.0478 76.1147 23.1681 76.3981 23.3133 76.7581C23.6283 77.5012 24.0779 78.5775 24.7292 79.8568C25.4633 81.3674 26.4198 82.7387 27.5611 83.9169C28.2418 84.5908 29.0396 85.1116 29.908 85.449C30.3672 85.6131 30.8422 85.7198 31.3239 85.7669C31.8261 85.8213 32.3313 85.8354 32.8354 85.809C34.7614 85.6555 36.669 85.2988 38.531 84.7442C40.2655 84.2807 41.823 83.8518 43.1327 83.4572C44.4425 83.0627 45.4761 82.6912 46.1911 82.4499L47.0124 82.1435C47.1093 82.1059 47.2087 82.0764 47.3097 82.0554Z" fill="#263238"/>
<path opacity="0.2" d="M24.538 79.853C24.538 79.853 26.3079 87.207 30.9097 87.0577C35.5115 86.9083 39.8336 84.7787 39.8336 84.7787L39.6283 84.5488C39.6283 84.5488 31.8407 86.3644 29.6778 85.223C25.5681 83.0627 24.538 79.853 24.538 79.853Z" fill="black"/>
<path d="M46.669 81.2893H48.1168C49.4301 81.1514 50.1628 81.1284 50.5309 80.7531C51.023 80.2437 50.3469 79.7495 50.3469 79.7495C50.3469 79.7495 51.2955 79.3933 51.207 78.769C51.1469 78.34 50.6973 78.2941 50.6973 78.2941C50.6973 78.2941 51.5363 77.9378 51.7026 77.5586C51.9256 77.0454 51.3486 76.7696 51.3486 76.7696C52.492 76.0036 52.3894 75.2375 52.1239 75.1762C51.8584 75.115 50.9699 75.5593 50.9699 75.5593C50.2159 75.7929 48.1593 76.4709 48.9203 75.2452C49.6814 74.0195 49.8407 72.767 49.6672 72.3955C49.6187 72.3146 49.5481 72.2522 49.4653 72.2168C49.3824 72.1814 49.2914 72.1748 49.205 72.198C49.1185 72.2212 49.0409 72.2729 48.9829 72.3461C48.9249 72.4192 48.8894 72.5101 48.8814 72.6061C48.764 73.0882 48.584 73.5499 48.3469 73.9774C48.1679 74.3294 47.9358 74.6466 47.6601 74.9158C47.338 75.226 47.0513 75.475 46.8071 75.6818L45.5186 77.0224L46.669 81.2893Z" fill="#FFBE9D"/>
</svg>
