<svg width="160" height="160" viewBox="0 0 160 160" fill="none" xmlns="http://www.w3.org/2000/svg">
<path d="M118.423 122.345H78.9448V148.862H118.423V122.345Z" fill="#F5F5F5"/>
<path d="M118.423 122.345H78.9448V126.693H118.423V122.345Z" fill="#E0E0E0"/>
<path d="M81.8648 124.614C81.8648 124.722 81.833 124.827 81.7732 124.916C81.7135 125.006 81.6285 125.075 81.5292 125.117C81.4298 125.158 81.3205 125.169 81.215 125.148C81.1095 125.127 81.0126 125.075 80.9366 124.999C80.8606 124.923 80.8088 124.826 80.7878 124.72C80.7668 124.615 80.7776 124.506 80.8187 124.406C80.8599 124.307 80.9296 124.222 81.019 124.162C81.1084 124.102 81.2136 124.07 81.3211 124.07C81.4653 124.07 81.6036 124.128 81.7056 124.23C81.8076 124.332 81.8648 124.47 81.8648 124.614Z" fill="#F5F5F5"/>
<path d="M83.9587 124.614C83.9587 124.722 83.9267 124.827 83.8668 124.917C83.8069 125.006 83.7218 125.076 83.6222 125.117C83.5227 125.158 83.4132 125.169 83.3076 125.147C83.202 125.126 83.1051 125.074 83.0292 124.997C82.9533 124.921 82.9018 124.824 82.8812 124.718C82.8607 124.612 82.8719 124.503 82.9136 124.404C82.9553 124.304 83.0256 124.22 83.1154 124.16C83.2053 124.101 83.3108 124.07 83.4185 124.071C83.5621 124.071 83.6995 124.129 83.8007 124.231C83.9019 124.333 83.9587 124.471 83.9587 124.614Z" fill="#F5F5F5"/>
<path d="M86.0243 124.614C86.0243 124.722 85.9923 124.827 85.9324 124.917C85.8725 125.006 85.7873 125.076 85.6878 125.117C85.5882 125.158 85.4787 125.169 85.3731 125.147C85.2676 125.126 85.1707 125.074 85.0948 124.997C85.0189 124.921 84.9674 124.824 84.9468 124.718C84.9262 124.612 84.9375 124.503 84.9792 124.404C85.0209 124.304 85.0911 124.22 85.181 124.16C85.2709 124.101 85.3764 124.07 85.4841 124.071C85.5553 124.071 85.6258 124.085 85.6916 124.112C85.7574 124.139 85.8171 124.179 85.8673 124.23C85.9175 124.281 85.9572 124.34 85.9842 124.406C86.0111 124.472 86.0247 124.543 86.0243 124.614Z" fill="#F5F5F5"/>
<path d="M149.83 2.45593H116.033V25.1583H149.83V2.45593Z" fill="#F5F5F5"/>
<path d="M149.83 2.45593H116.033V6.17908H149.83V2.45593Z" fill="#E0E0E0"/>
<path d="M118.536 4.39712C118.537 4.48945 118.51 4.57991 118.46 4.65701C118.409 4.73412 118.336 4.79441 118.251 4.83023C118.166 4.86604 118.072 4.87578 117.982 4.8582C117.891 4.84061 117.808 4.79651 117.742 4.73147C117.676 4.66643 117.632 4.58339 117.613 4.49289C117.595 4.40238 117.604 4.30849 117.639 4.22312C117.675 4.13775 117.734 4.06475 117.811 4.01338C117.888 3.96201 117.978 3.93459 118.07 3.93458C118.131 3.93412 118.192 3.94574 118.248 3.96877C118.305 3.99181 118.356 4.02581 118.4 4.0688C118.443 4.1118 118.477 4.16295 118.501 4.2193C118.524 4.27565 118.536 4.33608 118.536 4.39712Z" fill="#F5F5F5"/>
<path d="M119.853 4.85971C120.109 4.85971 120.316 4.65263 120.316 4.39717C120.316 4.14172 120.109 3.93463 119.853 3.93463C119.598 3.93463 119.391 4.14172 119.391 4.39717C119.391 4.65263 119.598 4.85971 119.853 4.85971Z" fill="#F5F5F5"/>
<path d="M121.633 4.85971C121.888 4.85971 122.095 4.65263 122.095 4.39717C122.095 4.14172 121.888 3.93463 121.633 3.93463C121.377 3.93463 121.17 4.14172 121.17 4.39717C121.17 4.65263 121.377 4.85971 121.633 4.85971Z" fill="#F5F5F5"/>
<path d="M46.1787 86.4966H2.841V115.608H46.1787V86.4966Z" fill="#F5F5F5"/>
<path d="M46.1787 86.4966H2.841V91.2715H46.1787V86.4966Z" fill="#E0E0E0"/>
<path d="M6.04696 88.9884C6.04696 89.1058 6.01217 89.2205 5.94699 89.318C5.88181 89.4156 5.78917 89.4916 5.68078 89.5365C5.57239 89.5814 5.45312 89.5931 5.33806 89.5702C5.22299 89.5473 5.11729 89.4909 5.03434 89.4079C4.95138 89.3249 4.89488 89.2192 4.87199 89.1042C4.84911 88.9891 4.86085 88.8698 4.90575 88.7615C4.95065 88.6531 5.02668 88.5604 5.12422 88.4952C5.22177 88.4301 5.33646 88.3953 5.45378 88.3953C5.6111 88.3953 5.76198 88.4578 5.87322 88.569C5.98447 88.6802 6.04696 88.8311 6.04696 88.9884Z" fill="#F5F5F5"/>
<path d="M8.33142 88.9885C8.33211 89.1068 8.29762 89.2226 8.23232 89.3213C8.16703 89.42 8.07387 89.497 7.96469 89.5426C7.85551 89.5882 7.73524 89.6003 7.61916 89.5774C7.50308 89.5545 7.39644 89.4976 7.31277 89.4139C7.22911 89.3303 7.17221 89.2236 7.1493 89.1075C7.12638 88.9915 7.1385 88.8712 7.1841 88.762C7.2297 88.6528 7.30673 88.5597 7.4054 88.4944C7.50406 88.4291 7.61992 88.3946 7.73823 88.3953C7.89556 88.3953 8.04643 88.4578 8.15768 88.569C8.26892 88.6803 8.33142 88.8311 8.33142 88.9885Z" fill="#F5F5F5"/>
<path d="M10.6158 88.9885C10.6165 89.1068 10.582 89.2226 10.5167 89.3213C10.4515 89.42 10.3583 89.497 10.2491 89.5426C10.1399 89.5882 10.0197 89.6003 9.90359 89.5774C9.78751 89.5545 9.68086 89.4976 9.5972 89.4139C9.51353 89.3303 9.45663 89.2236 9.43372 89.1075C9.41081 88.9915 9.42292 88.8712 9.46852 88.762C9.51412 88.6528 9.59115 88.5597 9.68982 88.4944C9.78849 88.4291 9.90434 88.3946 10.0227 88.3953C10.18 88.3953 10.3309 88.4578 10.4421 88.569C10.5533 88.6803 10.6158 88.8311 10.6158 88.9885Z" fill="#F5F5F5"/>
<path d="M48.862 3.95575H5.52435V33.0669H48.862V3.95575Z" fill="#F5F5F5"/>
<path d="M48.862 3.95575H5.52435V8.73055H48.862V3.95575Z" fill="#E0E0E0"/>
<path d="M8.73038 6.44757C8.73249 6.56602 8.69929 6.68241 8.63501 6.78193C8.57073 6.88144 8.47829 6.95957 8.36946 7.00636C8.26062 7.05315 8.14033 7.06649 8.02388 7.04468C7.90744 7.02286 7.80013 6.96688 7.71562 6.88387C7.6311 6.80085 7.57321 6.69456 7.54931 6.57853C7.52542 6.4625 7.5366 6.34198 7.58144 6.23233C7.62627 6.12267 7.70273 6.02885 7.80108 5.9628C7.89942 5.89675 8.0152 5.86147 8.13367 5.86145C8.29011 5.86143 8.4403 5.92284 8.55191 6.03246C8.66352 6.14209 8.72761 6.29116 8.73038 6.44757Z" fill="#F5F5F5"/>
<path d="M11.0149 6.44757C11.017 6.56602 10.9838 6.68241 10.9195 6.78193C10.8552 6.88144 10.7628 6.95957 10.6539 7.00636C10.5451 7.05315 10.4248 7.06649 10.3084 7.04468C10.1919 7.02286 10.0846 6.96688 10.0001 6.88387C9.91559 6.80085 9.85769 6.69456 9.8338 6.57853C9.8099 6.4625 9.82109 6.34198 9.86592 6.23233C9.91076 6.12267 9.98722 6.02885 10.0856 5.9628C10.1839 5.89675 10.2997 5.86147 10.4182 5.86145C10.5746 5.86143 10.7248 5.92284 10.8364 6.03246C10.948 6.14209 11.0121 6.29116 11.0149 6.44757Z" fill="#F5F5F5"/>
<path d="M12.7026 7.0408C13.0302 7.0408 13.2958 6.77522 13.2958 6.44761C13.2958 6.12001 13.0302 5.85443 12.7026 5.85443C12.375 5.85443 12.1094 6.12001 12.1094 6.44761C12.1094 6.77522 12.375 7.0408 12.7026 7.0408Z" fill="#F5F5F5"/>
<path d="M19.6973 23.175C19.0492 23.175 18.4157 22.9829 17.8769 22.623C17.338 22.2632 16.9181 21.7517 16.6701 21.1533C16.4221 20.5549 16.3572 19.8964 16.4836 19.2611C16.61 18.6258 16.9221 18.0423 17.3804 17.5843C17.8386 17.1263 18.4224 16.8144 19.058 16.688C19.6936 16.5616 20.3525 16.6265 20.9512 16.8744C21.5499 17.1222 22.0617 17.542 22.4217 18.0805C22.7817 18.6191 22.9739 19.2523 22.9739 19.9C22.9739 20.3301 22.8892 20.756 22.7245 21.1533C22.5598 21.5506 22.3185 21.9117 22.0142 22.2158C21.7099 22.5199 21.3487 22.7611 20.9512 22.9257C20.5537 23.0903 20.1276 23.175 19.6973 23.175ZM19.6973 16.9815C19.1189 16.9815 18.5535 17.153 18.0727 17.4742C17.5918 17.7954 17.2171 18.252 16.9959 18.7861C16.7748 19.3203 16.7171 19.908 16.8302 20.4749C16.9433 21.0418 17.2221 21.5625 17.6313 21.971C18.0405 22.3795 18.5618 22.6575 19.1291 22.7699C19.6964 22.8822 20.2844 22.8239 20.8185 22.6022C21.3527 22.3805 21.809 22.0054 22.1298 21.5244C22.4507 21.0434 22.6215 20.4781 22.6208 19.9C22.6199 19.1257 22.3115 18.3833 21.7633 17.8361C21.2151 17.2889 20.472 16.9815 19.6973 16.9815Z" fill="#E0E0E0"/>
<path d="M21.7258 22.2336L21.4666 22.4732L23.6432 24.8259L23.9024 24.5863L21.7258 22.2336Z" fill="#E0E0E0"/>
<path d="M33.7112 23.7043C32.9583 23.705 32.222 23.4825 31.5956 23.0649C30.9692 22.6473 30.4808 22.0534 30.1922 21.3583C29.9035 20.6632 29.8277 19.8982 29.9741 19.16C30.1206 18.4218 30.4828 17.7436 31.015 17.2112C31.5472 16.6788 32.2254 16.3161 32.9638 16.1691C33.7023 16.022 34.4678 16.0971 35.1635 16.385C35.8592 16.6728 36.4538 17.1604 36.8722 17.7861C37.2906 18.4118 37.5139 19.1474 37.5139 19.9C37.513 20.9081 37.1122 21.8747 36.3993 22.5878C35.6865 23.3009 34.7198 23.7025 33.7112 23.7043ZM33.7112 17.5109C33.2374 17.5102 32.7741 17.65 32.3799 17.9126C31.9857 18.1753 31.6783 18.5489 31.4967 18.9863C31.315 19.4236 31.2673 19.905 31.3596 20.3695C31.4519 20.8339 31.6799 21.2606 32.0149 21.5954C32.3499 21.9303 32.7768 22.1582 33.2415 22.2504C33.7062 22.3426 34.1879 22.295 34.6254 22.1134C35.063 21.9319 35.4368 21.6247 35.6996 21.2307C35.9624 20.8366 36.1023 20.3735 36.1016 19.9C36.1016 19.266 35.8499 18.658 35.4017 18.2094C34.9535 17.7608 34.3455 17.5083 33.7112 17.5073V17.5109Z" fill="#E0E0E0"/>
<path d="M37.7787 25.4089C37.6812 25.4091 37.5848 25.3891 37.4955 25.3502C37.4062 25.3113 37.3259 25.2544 37.2596 25.183L35.0811 22.8292C34.9603 22.6906 34.8983 22.5104 34.9083 22.3269C34.9183 22.1433 34.9996 21.971 35.1348 21.8464C35.27 21.7218 35.4485 21.6549 35.6323 21.6598C35.8162 21.6647 35.9908 21.7411 36.1192 21.8728L38.2977 24.2125C38.3912 24.3133 38.4532 24.4392 38.4762 24.5747C38.4991 24.7102 38.482 24.8495 38.4269 24.9754C38.3718 25.1013 38.2811 25.2084 38.1659 25.2835C38.0508 25.3587 37.9162 25.3985 37.7787 25.3983V25.4089Z" fill="#E0E0E0"/>
<path d="M156.574 70.983H115.577V98.5201H156.574V70.983Z" fill="#FAFAFA"/>
<path d="M126.647 87.8942H122.717L121.855 89.7999H121.322L124.44 83.0276H124.934L128.052 89.7999H127.519L126.647 87.8942ZM126.463 87.4778L124.698 83.5676L122.932 87.4778H126.463Z" fill="#E0E0E0"/>
<path d="M132.776 86.5955V89.7999H132.331V88.9C132.145 89.2101 131.876 89.4623 131.554 89.6281C131.232 89.7939 130.87 89.8668 130.509 89.8387C129.376 89.8387 128.691 89.2564 128.691 88.3953C128.691 87.6331 129.175 86.9837 130.577 86.9837H132.31V86.5779C132.31 85.6391 131.798 85.1345 130.81 85.1345C130.171 85.1275 129.551 85.3548 129.069 85.7733L128.825 85.4203C129.393 84.9497 130.111 84.6991 130.848 84.7145C132.081 84.711 132.776 85.3498 132.776 86.5955ZM132.293 88.3106V87.3613H130.566C129.507 87.3613 129.154 87.7954 129.154 88.3777C129.154 89.0341 129.666 89.4364 130.566 89.4364C130.936 89.4587 131.304 89.3613 131.615 89.1586C131.926 88.9559 132.164 88.6586 132.293 88.3106Z" fill="#E0E0E0"/>
<path d="M143.835 88.3494H140.689L140.089 89.7999H138.479L141.512 83.0276H143.062L146.091 89.7999H144.446L143.835 88.3494ZM143.34 87.1566L142.281 84.5628L141.204 87.1566H143.34Z" fill="#E0E0E0"/>
<path d="M151.289 86.8284V89.7999H149.876V89.147C149.597 89.6235 149.053 89.874 148.287 89.874C147.069 89.874 146.342 89.1964 146.342 88.2965C146.342 87.3966 146.991 86.7367 148.58 86.7367H149.781C149.781 86.0909 149.392 85.7133 148.58 85.7133C148.041 85.7084 147.515 85.878 147.08 86.1967L146.536 85.138C147.206 84.7108 147.987 84.4921 148.782 84.5098C150.371 84.5169 151.289 85.2651 151.289 86.8284ZM149.781 88.1554V87.6225H148.743C148.037 87.6225 147.814 87.8836 147.814 88.233C147.814 88.5824 148.132 88.8612 148.665 88.8612C148.902 88.877 149.138 88.8171 149.338 88.6902C149.539 88.5634 149.694 88.3761 149.781 88.1554Z" fill="#E0E0E0"/>
<path d="M156.574 70.983H115.577V75.5002H156.574V70.983Z" fill="#E0E0E0"/>
<path d="M118.61 73.3407C118.61 73.4517 118.577 73.5603 118.516 73.6526C118.454 73.7449 118.366 73.8169 118.264 73.8594C118.161 73.9019 118.048 73.913 117.939 73.8913C117.831 73.8697 117.731 73.8162 117.652 73.7377C117.574 73.6592 117.52 73.5591 117.498 73.4502C117.477 73.3413 117.488 73.2284 117.53 73.1259C117.573 73.0233 117.645 72.9356 117.737 72.8739C117.829 72.8122 117.938 72.7793 118.049 72.7793C118.123 72.7793 118.196 72.7938 118.264 72.822C118.332 72.8502 118.394 72.8916 118.446 72.9437C118.498 72.9959 118.539 73.0577 118.568 73.1259C118.596 73.194 118.61 73.267 118.61 73.3407Z" fill="#F5F5F5"/>
<path d="M120.771 73.3407C120.772 73.4528 120.739 73.5625 120.678 73.6559C120.616 73.7493 120.528 73.8223 120.424 73.8655C120.321 73.9087 120.207 73.9202 120.097 73.8985C119.987 73.8768 119.886 73.8229 119.807 73.7437C119.728 73.6645 119.674 73.5635 119.652 73.4536C119.63 73.3437 119.642 73.2298 119.685 73.1264C119.728 73.023 119.801 72.9349 119.895 72.873C119.988 72.8112 120.098 72.7786 120.21 72.7793C120.284 72.7793 120.357 72.7938 120.425 72.822C120.493 72.8503 120.555 72.8916 120.607 72.9437C120.659 72.9959 120.7 73.0578 120.729 73.1259C120.757 73.194 120.771 73.267 120.771 73.3407Z" fill="#F5F5F5"/>
<path d="M122.932 73.3407C122.933 73.4528 122.9 73.5625 122.838 73.6559C122.777 73.7493 122.688 73.8223 122.585 73.8655C122.482 73.9087 122.368 73.9202 122.258 73.8985C122.148 73.8768 122.047 73.8229 121.968 73.7437C121.889 73.6645 121.835 73.5635 121.813 73.4536C121.791 73.3437 121.803 73.2298 121.846 73.1264C121.889 73.023 121.962 72.9349 122.056 72.873C122.149 72.8112 122.259 72.7786 122.371 72.7793C122.445 72.7793 122.518 72.7938 122.586 72.822C122.654 72.8503 122.716 72.8916 122.768 72.9437C122.82 72.9959 122.861 73.0578 122.889 73.1259C122.918 73.194 122.932 73.267 122.932 73.3407Z" fill="#F5F5F5"/>
<path d="M156.574 98.5237C156.574 98.5237 156.574 98.3508 156.574 98.019C156.574 97.6873 156.574 97.2003 156.574 96.5651C156.574 95.2875 156.574 93.4171 156.557 91.0245C156.557 86.2391 156.532 79.3786 156.518 70.983L156.588 71.0571H115.595L115.687 70.9654C115.687 80.7796 115.687 90.1104 115.687 98.4919L115.602 98.4072L145.134 98.4496L153.573 98.4707H155.819H156.401H156.599H155.84H153.612L145.191 98.4954L115.602 98.5378H115.518V98.4531C115.518 90.0575 115.518 80.7267 115.518 70.9265V70.8348H115.613L156.606 70.856H156.68V70.9265C156.68 79.3257 156.652 86.2179 156.641 91.0139C156.641 93.3995 156.641 95.2664 156.624 96.5368C156.624 97.1685 156.624 97.6485 156.624 97.9802C156.624 98.3119 156.574 98.5237 156.574 98.5237Z" fill="#E0E0E0"/>
<path d="M153.64 159.901C153.64 159.954 121.647 159.993 82.1969 159.993C42.7467 159.993 10.7466 159.954 10.7466 159.901C10.7466 159.848 42.7326 159.809 82.1969 159.809C121.661 159.809 153.64 159.852 153.64 159.901Z" fill="#263238"/>
<path d="M120.478 131.407L43.859 131.365C42.7209 131.364 41.6297 130.912 40.8253 130.107C40.0208 129.302 39.569 128.211 39.569 127.074L39.629 13.4384C39.6309 12.3011 40.0839 11.2111 40.8888 10.4073C41.6937 9.60344 42.7847 9.15151 43.9225 9.15057L120.542 9.19292C121.68 9.19386 122.771 9.64639 123.576 10.4511C124.38 11.2557 124.832 12.3467 124.832 13.4842L124.772 127.12C124.77 128.257 124.317 129.347 123.512 130.151C122.707 130.955 121.616 131.406 120.478 131.407Z" fill="#263238"/>
<path d="M121.954 17.6061H42.1147V119.68H121.954V17.6061Z" fill="white"/>
<path d="M85.4347 125.246C85.434 125.892 85.2417 126.523 84.882 127.06C84.5223 127.597 84.0114 128.015 83.4139 128.262C82.8164 128.509 82.1591 128.573 81.5251 128.447C80.8911 128.32 80.3089 128.009 79.852 127.552C79.3951 127.094 79.084 126.512 78.9581 125.878C78.8323 125.245 78.8972 124.588 79.1448 123.991C79.3924 123.394 79.8114 122.884 80.349 122.525C80.8866 122.166 81.5186 121.974 82.1651 121.974C82.5949 121.974 83.0206 122.058 83.4177 122.222C83.8148 122.387 84.1756 122.628 84.4793 122.932C84.7831 123.235 85.0238 123.596 85.1878 123.993C85.3517 124.391 85.4356 124.816 85.4347 125.246Z" fill="#455A64"/>
<path d="M94.6256 12.6796H69.8214C69.5835 12.6796 69.3906 12.8725 69.3906 13.1104V13.6012C69.3906 13.8391 69.5835 14.0319 69.8214 14.0319H94.6256C94.8635 14.0319 95.0564 13.8391 95.0564 13.6012V13.1104C95.0564 12.8725 94.8635 12.6796 94.6256 12.6796Z" fill="#455A64"/>
<path d="M94.4737 70.5455C94.4737 70.5984 88.6973 70.6373 81.572 70.6373C74.4468 70.6373 68.6703 70.5984 68.6703 70.5455C68.6703 70.4925 74.4468 70.4537 81.572 70.4537C88.6973 70.4537 94.4737 70.496 94.4737 70.5455Z" fill="white"/>
<path d="M96.61 57.6573H69.207C67.2141 57.6573 65.5985 59.2721 65.5985 61.264V68.8232C65.5985 70.8151 67.2141 72.4299 69.207 72.4299H96.61C98.6029 72.4299 100.219 70.8151 100.219 68.8232V61.264C100.219 59.2721 98.6029 57.6573 96.61 57.6573Z" fill="#166DFC"/>
<g opacity="0.3">
<path opacity="0.3" d="M96.61 57.6573H69.207C67.2141 57.6573 65.5985 59.2721 65.5985 61.264V68.8232C65.5985 70.8151 67.2141 72.4299 69.207 72.4299H96.61C98.6029 72.4299 100.219 70.8151 100.219 68.8232V61.264C100.219 59.2721 98.6029 57.6573 96.61 57.6573Z" fill="black"/>
</g>
<path d="M96.61 55.8716H69.207C67.2141 55.8716 65.5985 57.4864 65.5985 59.4783V67.0376C65.5985 69.0295 67.2141 70.6442 69.207 70.6442H96.61C98.6029 70.6442 100.219 69.0295 100.219 67.0376V59.4783C100.219 57.4864 98.6029 55.8716 96.61 55.8716Z" fill="#166DFC"/>
<g opacity="0.4">
<path opacity="0.4" d="M68.8468 63.6285H96.9665C97.3141 63.6271 97.658 63.5572 97.9786 63.4229C98.2991 63.2886 98.5901 63.0924 98.8347 62.8456C99.0793 62.5988 99.2729 62.3062 99.4043 61.9845C99.5357 61.6629 99.6024 61.3185 99.6005 60.9711V59.2313C99.6019 58.8842 99.5349 58.5402 99.4033 58.219C99.2717 57.8977 99.078 57.6056 98.8334 57.3591C98.5888 57.1127 98.2981 56.9168 97.9778 56.7827C97.6574 56.6486 97.3138 56.5788 96.9665 56.5775H68.8468C68.4995 56.5788 68.1559 56.6486 67.8356 56.7827C67.5152 56.9168 67.2245 57.1127 66.9799 57.3591C66.7353 57.6056 66.5417 57.8977 66.4101 58.219C66.2784 58.5402 66.2114 58.8842 66.2128 59.2313V60.9711C66.2109 61.3185 66.2776 61.6629 66.409 61.9845C66.5404 62.3062 66.734 62.5988 66.9786 62.8456C67.2233 63.0924 67.5142 63.2886 67.8348 63.4229C68.1553 63.5572 68.4992 63.6271 68.8468 63.6285Z" fill="white"/>
</g>
<path d="M66.4917 60.7523C66.5447 60.7523 66.587 62.7426 66.587 65.1953C66.587 67.648 66.5447 69.6384 66.4917 69.6384C66.4387 69.6384 66.3999 67.648 66.3999 65.1953C66.3999 62.7426 66.4423 60.7523 66.4917 60.7523Z" fill="white"/>
<path d="M97.7892 56.3587C97.6857 56.364 97.582 56.364 97.4785 56.3587L96.5922 56.3834L93.3297 56.4364L82.5677 56.5458L71.8021 56.5988H68.5396H67.6534C67.5495 56.6029 67.4454 56.597 67.3427 56.5811L67.6498 56.5599L68.5396 56.5388L71.7986 56.4823L82.5642 56.3763L93.3297 56.3234H96.5922H97.4785C97.5829 56.3251 97.687 56.3369 97.7892 56.3587Z" fill="white"/>
<path d="M93.4922 92.6232C93.4922 92.6726 88.8738 92.715 83.1786 92.715C77.4833 92.715 72.8579 92.6726 72.8579 92.6232C72.8579 92.5737 77.4763 92.5314 83.1786 92.5314C88.8809 92.5314 93.4922 92.5737 93.4922 92.6232Z" fill="white"/>
<path d="M92.1823 79.0751C92.1823 79.1246 87.8287 79.1669 82.4654 79.1669C77.102 79.1669 72.7449 79.1246 72.7449 79.0751C72.7449 79.0257 77.0949 78.9833 82.4654 78.9833C87.8358 78.9833 92.1823 79.0222 92.1823 79.0751Z" fill="white"/>
<path d="M93.5345 80.0244H72.9602C69.0816 80.0244 65.9374 83.1671 65.9374 87.0437V87.7777C65.9374 91.6544 69.0816 94.797 72.9602 94.797H93.5345C97.4131 94.797 100.557 91.6544 100.557 87.7777V87.0437C100.557 83.1671 97.4131 80.0244 93.5345 80.0244Z" fill="#166DFC"/>
<g opacity="0.3">
<path opacity="0.3" d="M93.5345 80.0244H72.9602C69.0816 80.0244 65.9374 83.1671 65.9374 87.0437V87.7777C65.9374 91.6544 69.0816 94.797 72.9602 94.797H93.5345C97.4131 94.797 100.557 91.6544 100.557 87.7777V87.0437C100.557 83.1671 97.4131 80.0244 93.5345 80.0244Z" fill="black"/>
</g>
<path d="M93.5345 77.7975H72.9602C69.0816 77.7975 65.9374 80.9402 65.9374 84.8168V85.5509C65.9374 89.4275 69.0816 92.5702 72.9602 92.5702H93.5345C97.4131 92.5702 100.557 89.4275 100.557 85.5509V84.8168C100.557 80.9402 97.4131 77.7975 93.5345 77.7975Z" fill="#166DFC"/>
<g opacity="0.4">
<path opacity="0.4" d="M96.5111 79.855C94.8622 78.9657 92.8955 78.9622 91.0242 78.9798C86.7342 79.0151 81.6427 79.0433 77.3562 79.0821C75.1071 79.0998 73.0768 78.641 71.0007 79.4739C68.9246 80.3067 67.4698 82.7806 67.2827 85.0215L99.4558 84.8733C99.4608 83.8497 99.19 82.8436 98.6718 81.9606C98.1537 81.0777 97.4074 80.3503 96.5111 79.855Z" fill="white"/>
</g>
<path d="M73.7194 91.6173C73.5682 91.6359 73.4152 91.6359 73.2639 91.6173C72.8492 91.5782 72.4397 91.4954 72.0423 91.3703C70.7106 90.9635 69.5437 90.1423 68.7117 89.0263C67.8797 87.9104 67.426 86.5579 67.4169 85.1662C67.4086 84.7494 67.4453 84.3329 67.5263 83.924C67.5502 83.7742 67.5904 83.6274 67.6464 83.4864C67.5749 84.0422 67.5418 84.6023 67.5475 85.1627C67.5913 86.5181 68.0492 87.8277 68.8597 88.9153C69.6702 90.003 70.7943 90.8166 72.0811 91.2468C72.6176 91.4095 73.1651 91.5334 73.7194 91.6173Z" fill="white"/>
<path d="M98.8626 88.6776C98.8273 88.6776 99.0391 88.24 99.2157 87.513C99.3256 87.0873 99.3976 86.6527 99.4311 86.2144C99.4659 85.6789 99.4506 85.1413 99.3852 84.6086C99.3081 84.0777 99.1804 83.5554 99.0038 83.0488C98.8538 82.6349 98.6683 82.2346 98.4495 81.8524C98.0752 81.2031 97.7433 80.8537 97.7857 80.829C97.8281 80.8043 97.8775 80.9031 98.0223 81.0619C98.1117 81.156 98.1943 81.2562 98.2694 81.3619C98.3754 81.4984 98.4732 81.641 98.5625 81.7889C98.8018 82.168 99.0029 82.57 99.1627 82.9888C99.3519 83.5051 99.4868 84.0397 99.5652 84.5839C99.6362 85.1304 99.6481 85.683 99.6005 86.232C99.5576 86.6784 99.4701 87.1194 99.3393 87.5483C99.2931 87.7141 99.2365 87.8768 99.1698 88.0353C99.1264 88.1565 99.0745 88.2744 99.0144 88.3882C98.9759 88.4906 98.9249 88.5878 98.8626 88.6776Z" fill="white"/>
<path d="M100.667 36.8571H66.0469V51.6297H100.667V36.8571Z" fill="#166DFC"/>
<g opacity="0.3">
<path opacity="0.3" d="M100.667 36.8571H66.0469V51.6297H100.667V36.8571Z" fill="black"/>
</g>
<path d="M100.667 34.9267H66.0469V49.6993H100.667V34.9267Z" fill="#166DFC"/>
<g opacity="0.4">
<path opacity="0.4" d="M99.2651 35.262H67.4804C66.9539 35.262 66.527 35.6886 66.527 36.2148V41.3602C66.527 41.8864 66.9539 42.313 67.4804 42.313H99.2651C99.7916 42.313 100.218 41.8864 100.218 41.3602V36.2148C100.218 35.6886 99.7916 35.262 99.2651 35.262Z" fill="white"/>
</g>
<path d="M66.4494 48.9794C66.4 48.9794 66.3576 46.2479 66.3576 42.8812C66.3576 39.5145 66.4 36.7865 66.4494 36.7865C66.4988 36.7865 66.5412 39.5145 66.5412 42.8812C66.5412 46.2479 66.5024 48.9794 66.4494 48.9794Z" fill="white"/>
<path d="M98.6825 49.5194C98.6825 49.5688 91.6667 49.6112 83.0161 49.6112C74.3655 49.6112 67.3427 49.5688 67.3427 49.5194C67.3427 49.4699 74.3585 49.4276 83.0161 49.4276C91.6737 49.4276 98.6825 49.4664 98.6825 49.5194Z" fill="white"/>
<path d="M77.8116 24.9184L77.9987 24.509C78.2271 24.664 78.496 24.7487 78.772 24.7525C79.0933 24.7525 79.2275 24.6467 79.2275 24.502C79.2275 24.0609 77.861 24.3643 77.861 23.4927C77.861 23.0904 78.1823 22.7586 78.8497 22.7586C79.1354 22.7528 79.4173 22.8248 79.6653 22.9668L79.4993 23.3797C79.3009 23.2636 79.076 23.2005 78.8461 23.1962C78.5248 23.1962 78.4012 23.3162 78.4012 23.4644C78.4012 23.8985 79.7677 23.5985 79.7677 24.4596C79.7677 24.8549 79.4393 25.1901 78.7684 25.1901C78.4295 25.197 78.0963 25.1024 77.8116 24.9184Z" fill="#263238"/>
<path d="M80.5939 23.2279H79.8419V22.8009H81.8898V23.242H81.1342V25.1477H80.5904L80.5939 23.2279Z" fill="#263238"/>
<path d="M83.2527 24.3007V25.1336H82.723V24.2972L81.8121 22.8009H82.3911L83.0196 23.8596L83.6446 22.8009H84.1777L83.2527 24.3007Z" fill="#263238"/>
<path d="M84.3861 22.8009H84.9299V24.7066H86.1092V25.1477H84.3861V22.8009Z" fill="#263238"/>
<path d="M88.2347 24.6995V25.1336H86.4305V22.8009H88.1959V23.235H86.9601V23.7467H88.0511V24.1702H86.9601V24.7136L88.2347 24.6995Z" fill="#263238"/>
<path d="M121.926 99.226H42.0972V119.701H121.926V99.226Z" fill="#F5F5F5"/>
<path d="M108.647 105.321H108.131C105.397 105.321 103.181 107.536 103.181 110.268V110.784C103.181 113.516 105.397 115.731 108.131 115.731H108.647C111.381 115.731 113.597 113.516 113.597 110.784V110.268C113.597 107.536 111.381 105.321 108.647 105.321Z" fill="#166DFC"/>
<path d="M81.8085 105.321H81.293C78.5591 105.321 76.3428 107.536 76.3428 110.268V110.784C76.3428 113.516 78.5591 115.731 81.293 115.731H81.8085C84.5425 115.731 86.7588 113.516 86.7588 110.784V110.268C86.7588 107.536 84.5425 105.321 81.8085 105.321Z" fill="#166DFC"/>
<path d="M81.8086 115.731C82.2396 115.697 82.6671 115.627 83.0867 115.523C84.227 115.203 85.2144 114.484 85.869 113.497C86.3113 112.82 86.5827 112.045 86.6599 111.239C86.7573 110.316 86.6476 109.383 86.3386 108.507C85.9648 107.551 85.2973 106.738 84.432 106.185C83.9799 105.889 83.479 105.675 82.9525 105.554C82.4076 105.437 81.85 105.389 81.293 105.412C80.1911 105.417 79.1223 105.79 78.2565 106.471C77.4553 107.113 76.877 107.991 76.6041 108.98C76.4786 109.44 76.418 109.915 76.424 110.392C76.4091 110.842 76.4399 111.293 76.5158 111.736C76.6768 112.53 77.0282 113.272 77.5398 113.9C78.2922 114.813 79.3491 115.425 80.5163 115.622L80.8058 115.668L81.0635 115.686C81.226 115.686 81.3601 115.686 81.4731 115.707H81.7238H81.8086C81.7805 115.711 81.7519 115.711 81.7238 115.707H81.4731C81.3367 115.714 81.2 115.714 81.0635 115.707H80.8023L80.5057 115.668C79.9949 115.598 79.4996 115.443 79.0404 115.209C78.4263 114.905 77.8809 114.478 77.4374 113.956C76.9093 113.315 76.5457 112.554 76.3781 111.74C76.2991 111.287 76.2648 110.827 76.2757 110.367C76.2682 109.877 76.3288 109.387 76.4558 108.913C76.7327 107.886 77.3286 106.973 78.1577 106.305C79.0541 105.595 80.1629 105.204 81.3072 105.197C81.8797 105.172 82.453 105.222 83.0126 105.345C83.5579 105.473 84.0765 105.695 84.545 106.002C85.4386 106.578 86.127 107.421 86.5116 108.412C87.1754 110.321 86.8647 112.294 85.9891 113.54C85.6036 114.105 85.1061 114.586 84.5273 114.951C84.0938 115.231 83.6164 115.436 83.115 115.558L82.8254 115.629L82.5642 115.664C82.4301 115.688 82.2942 115.7 82.1581 115.7H81.805L81.8086 115.731Z" fill="#263238"/>
<path d="M55.0942 105.321H54.5787C51.8447 105.321 49.6284 107.536 49.6284 110.268V110.784C49.6284 113.516 51.8447 115.731 54.5787 115.731H55.0942C57.8281 115.731 60.0444 113.516 60.0444 110.784V110.268C60.0444 107.536 57.8281 105.321 55.0942 105.321Z" fill="#166DFC"/>
<g opacity="0.3">
<path opacity="0.3" d="M55.0942 105.321H54.5787C51.8447 105.321 49.6284 107.536 49.6284 110.268V110.784C49.6284 113.516 51.8447 115.731 54.5787 115.731H55.0942C57.8281 115.731 60.0444 113.516 60.0444 110.784V110.268C60.0444 107.536 57.8281 105.321 55.0942 105.321Z" fill="black"/>
</g>
<path d="M55.0942 104.488H54.5787C51.8447 104.488 49.6284 106.703 49.6284 109.436V109.951C49.6284 112.683 51.8447 114.898 54.5787 114.898H55.0942C57.8281 114.898 60.0444 112.683 60.0444 109.951V109.436C60.0444 106.703 57.8281 104.488 55.0942 104.488Z" fill="#166DFC"/>
<g opacity="0.3">
<path opacity="0.3" d="M54.8364 105.109C53.619 105.109 52.4515 105.592 51.5907 106.453C50.7299 107.313 50.2463 108.48 50.2463 109.697H59.4265C59.4265 108.48 58.9429 107.313 58.0821 106.453C57.2213 105.592 56.0538 105.109 54.8364 105.109Z" fill="white"/>
</g>
<path d="M55.6097 114.115C55.4881 114.16 55.361 114.188 55.2319 114.2C54.8805 114.249 54.524 114.249 54.1726 114.2C52.9973 114.024 51.9396 113.389 51.2314 112.435C50.5398 111.478 50.2062 110.309 50.2887 109.132C50.3101 108.78 50.3742 108.431 50.4793 108.094C50.5097 107.97 50.5585 107.851 50.6241 107.742C50.5178 108.206 50.4494 108.678 50.4193 109.153C50.3779 110.289 50.7158 111.406 51.3797 112.329C51.7518 112.829 52.2245 113.245 52.7673 113.55C53.2064 113.8 53.6836 113.975 54.1797 114.069C54.6534 114.134 55.1327 114.15 55.6097 114.115Z" fill="white"/>
<path d="M57.3856 113.056C57.3609 113.028 57.7104 112.778 58.1235 112.241C58.6658 111.55 59.0054 110.723 59.1045 109.85C59.2037 108.978 59.0584 108.095 58.6849 107.3C58.3989 106.686 58.12 106.362 58.1447 106.341C58.1694 106.319 58.233 106.408 58.3566 106.556C58.5283 106.769 58.6774 107 58.8014 107.244C59.2229 108.054 59.3929 108.971 59.2897 109.879C59.1866 110.786 58.8149 111.641 58.2224 112.336C58.0487 112.548 57.8521 112.74 57.6363 112.908C57.5604 112.97 57.476 113.019 57.3856 113.056Z" fill="white"/>
<path d="M53.2722 105.423C53.2722 105.472 53.0462 105.554 52.7779 105.677C52.5095 105.801 52.2941 105.924 52.2623 105.882C52.2306 105.84 52.4071 105.645 52.7002 105.511C52.9932 105.377 53.2651 105.381 53.2722 105.423Z" fill="white"/>
<path d="M67.4592 119.673C67.4062 119.673 67.3674 115.086 67.3674 109.439C67.3674 103.793 67.4062 99.2048 67.4592 99.2048C67.5121 99.2048 67.551 103.793 67.551 109.439C67.551 115.086 67.5086 119.673 67.4592 119.673Z" fill="#E0E0E0"/>
<path d="M95.6424 119.673C95.593 119.673 95.5506 115.086 95.5506 109.439C95.5506 103.793 95.593 99.2048 95.6424 99.2048C95.6918 99.2048 95.7342 103.793 95.7342 109.439C95.7342 115.086 95.6918 119.673 95.6424 119.673Z" fill="#E0E0E0"/>
<path d="M119.878 29.072C119.878 29.125 102.796 29.1638 81.745 29.1638C60.6941 29.1638 43.5906 29.125 43.5906 29.072C43.5906 29.0191 60.6694 28.9802 81.745 28.9802C102.821 28.9802 119.878 29.0226 119.878 29.072Z" fill="#E0E0E0"/>
<path d="M140.022 112.326C136.731 107.294 136.844 99.9355 140.788 95.3865C142.009 93.9749 143.715 92.7468 145.576 92.9162C147.436 93.0856 149.018 94.7125 149.597 96.5335C150.176 98.3545 149.986 100.313 149.633 102.205C149.156 104.837 148.354 107.534 146.529 109.489C144.703 111.444 142.37 113.621 140.018 112.337" fill="#166DFC"/>
<path d="M141.49 136.391C140.899 134.927 140.783 133.314 141.16 131.78C141.536 130.247 142.385 128.871 143.588 127.847C144.343 127.229 145.336 126.753 146.278 127.003C147.221 127.254 147.888 128.238 148.023 129.23C148.098 130.231 147.929 131.235 147.528 132.156C147.044 133.472 146.388 134.788 145.268 135.628C144.149 136.468 142.585 137.262 141.49 136.391Z" fill="#166DFC"/>
<path d="M133.55 134.672C134.454 130.208 132.102 125.285 128.059 123.185C126.806 122.532 125.263 122.147 123.999 122.779C122.735 123.411 122.081 125.006 122.184 126.449C122.286 127.893 122.982 129.223 123.748 130.451C124.807 132.17 126.138 133.843 127.985 134.707C129.832 135.572 132.271 136.232 133.564 134.672" fill="#166DFC"/>
<path d="M134.122 122.595C135.696 117.51 133.023 111.345 128.567 108.426C127.187 107.523 125.436 106.891 123.889 107.48C122.343 108.07 121.418 109.845 121.35 111.535C121.283 113.226 121.951 114.856 122.699 116.374C123.758 118.491 125.083 120.609 127.113 121.819C129.143 123.029 132.434 124.258 134.122 122.595Z" fill="#166DFC"/>
<path d="M137.275 147.447C137.249 147.367 137.232 147.284 137.225 147.2C137.197 147.016 137.162 146.781 137.119 146.494C137.098 146.339 137.073 146.166 137.049 145.982C137.024 145.799 136.971 145.594 136.932 145.379C136.847 144.945 136.763 144.447 136.621 143.911C136.554 143.639 136.487 143.357 136.417 143.064C136.346 142.771 136.24 142.467 136.148 142.157C135.979 141.525 135.728 140.872 135.495 140.177C134.929 138.687 134.273 137.232 133.528 135.822C132.766 134.424 131.917 133.074 130.986 131.782C130.534 131.203 130.128 130.631 129.697 130.141C129.486 129.893 129.284 129.65 129.087 129.435L128.493 128.796C128.14 128.38 127.759 128.037 127.434 127.737L127.014 127.261L126.626 126.908C126.41 126.71 126.234 126.555 126.092 126.428C126.027 126.375 125.968 126.314 125.916 126.248C125.989 126.289 126.058 126.338 126.121 126.393L126.682 126.844L127.085 127.173L127.537 127.593C127.861 127.896 128.243 128.235 128.617 128.651L129.221 129.286L129.846 129.992C130.287 130.479 130.7 131.051 131.156 131.63C133.067 134.21 134.594 137.053 135.689 140.071C135.922 140.777 136.166 141.433 136.332 142.069L136.586 142.986C136.653 143.283 136.717 143.569 136.78 143.84C136.911 144.384 136.989 144.899 137.059 145.322C137.095 145.538 137.13 145.742 137.158 145.933C137.186 146.124 137.197 146.286 137.211 146.448C137.239 146.741 137.261 146.978 137.278 147.154C137.292 147.251 137.291 147.35 137.275 147.447Z" fill="#263238"/>
<path d="M137.169 148.361C137.164 148.327 137.164 148.293 137.169 148.259C137.169 148.181 137.169 148.082 137.193 147.966C137.218 147.687 137.253 147.313 137.296 146.836C137.32 146.589 137.349 146.314 137.377 146.018C137.405 145.721 137.409 145.397 137.426 145.047C137.451 144.341 137.518 143.554 137.493 142.672C137.493 142.231 137.493 141.772 137.493 141.292C137.493 140.812 137.444 140.315 137.419 139.796C137.384 138.762 137.243 137.679 137.119 136.51C136.476 131.497 135.028 126.62 132.833 122.066C132.307 121.029 131.826 120.033 131.293 119.148C131.032 118.699 130.799 118.258 130.541 117.852C130.283 117.447 130.029 117.062 129.793 116.691C129.334 115.94 128.843 115.311 128.44 114.74C128.236 114.457 128.052 114.186 127.868 113.949L127.356 113.31L126.65 112.418L126.47 112.185C126.45 112.158 126.431 112.129 126.414 112.1C126.414 112.1 126.442 112.121 126.488 112.171L126.682 112.389L127.42 113.258L127.946 113.886C128.133 114.122 128.324 114.387 128.536 114.666C128.949 115.234 129.447 115.858 129.916 116.607L130.679 117.764C130.94 118.17 131.177 118.611 131.445 119.056C131.989 119.942 132.476 120.94 133.009 121.978C135.237 126.543 136.691 131.445 137.313 136.486C137.433 137.647 137.568 138.748 137.596 139.789C137.613 140.308 137.656 140.805 137.656 141.289C137.656 141.772 137.656 142.231 137.656 142.676C137.656 143.558 137.592 144.352 137.557 145.054C137.532 145.407 137.518 145.728 137.49 146.028C137.462 146.328 137.419 146.596 137.391 146.844C137.327 147.32 137.282 147.694 137.246 147.969C137.229 148.089 137.215 148.185 137.204 148.262C137.198 148.297 137.186 148.331 137.169 148.361Z" fill="#263238"/>
<path d="M145.749 98.979C145.74 99.013 145.726 99.0452 145.706 99.0743L145.565 99.339L145.004 100.341C144.88 100.56 144.735 100.796 144.598 101.068C144.46 101.34 144.315 101.636 144.156 101.954L143.63 102.97C143.461 103.323 143.295 103.726 143.115 104.135C142.935 104.544 142.74 104.968 142.557 105.42C142.373 105.871 142.204 106.348 142.01 106.831C141.918 107.075 141.822 107.325 141.724 107.579C141.625 107.833 141.547 108.095 141.459 108.359C141.279 108.892 141.106 109.436 140.908 109.997C140.202 112.252 139.549 114.764 138.991 117.429C138.433 120.093 138.069 122.673 137.79 125.02C137.511 127.367 137.374 129.488 137.324 131.277C137.278 132.166 137.268 132.974 137.268 133.687C137.268 134.4 137.268 135.007 137.268 135.505C137.268 136.002 137.268 136.376 137.285 136.659V136.959C137.29 136.993 137.29 137.027 137.285 137.061C137.282 137.027 137.282 136.993 137.285 136.959C137.285 136.877 137.285 136.779 137.268 136.659C137.268 136.38 137.232 135.995 137.211 135.508C137.19 135.021 137.169 134.397 137.169 133.687C137.169 132.978 137.169 132.166 137.197 131.27C137.225 129.481 137.388 127.353 137.617 124.995C137.847 122.638 138.26 120.054 138.804 117.387C139.347 114.719 140.032 112.195 140.742 109.933C140.936 109.376 141.123 108.829 141.303 108.299L141.575 107.516L141.865 106.792L142.426 105.381C142.613 104.929 142.815 104.505 142.995 104.096C143.175 103.687 143.348 103.299 143.528 102.935C143.708 102.572 143.881 102.229 144.054 101.922L144.509 101.043C144.654 100.775 144.806 100.542 144.933 100.338C145.187 99.9213 145.385 99.5895 145.533 99.3496L145.692 99.099C145.705 99.0563 145.724 99.0158 145.749 98.979Z" fill="#263238"/>
<path d="M144.622 129.869C144.521 130.083 144.403 130.288 144.269 130.483C144.029 130.867 143.697 131.436 143.312 132.149C142.928 132.861 142.493 133.726 142.062 134.704C141.632 135.681 141.222 136.789 140.851 137.971C140.481 139.154 140.219 140.301 140.007 141.349C139.796 142.397 139.672 143.36 139.594 144.172C139.517 144.984 139.467 145.637 139.446 146.088C139.446 146.325 139.427 146.561 139.39 146.794C139.362 146.56 139.354 146.324 139.365 146.088C139.365 145.633 139.365 144.977 139.443 144.161C139.52 143.346 139.626 142.397 139.813 141.338C140.029 140.189 140.307 139.052 140.647 137.933C140.996 136.816 141.409 135.721 141.882 134.651C142.269 133.778 142.702 132.926 143.178 132.099C143.584 131.393 143.937 130.832 144.199 130.462C144.324 130.253 144.466 130.055 144.622 129.869Z" fill="#263238"/>
<path d="M130.82 145.181H145.283L143.535 159.947H132.621L130.82 145.181Z" fill="#455A64"/>
<path d="M131.346 158.352L132.575 159.947H143.535L144.795 158.405L131.346 158.352Z" fill="#263238"/>
<path d="M144.721 149.522C144.721 149.582 141.716 149.632 138.013 149.632C134.309 149.632 131.304 149.582 131.304 149.522C131.304 149.462 134.305 149.416 138.013 149.416C141.72 149.416 144.721 149.466 144.721 149.522Z" fill="#FAFAFA"/>
<path d="M144.721 150.507C144.721 150.567 141.716 150.616 138.013 150.616C134.309 150.616 131.304 150.567 131.304 150.507C131.304 150.447 134.305 150.401 138.013 150.401C141.72 150.401 144.721 150.447 144.721 150.507Z" fill="#FAFAFA"/>
<path d="M144.538 151.46C144.538 151.52 141.642 151.566 138.069 151.566C134.496 151.566 131.601 151.52 131.601 151.46C131.601 151.4 134.496 151.35 138.069 151.35C141.642 151.35 144.538 151.4 144.538 151.46Z" fill="#FAFAFA"/>
<path d="M133.038 113.36C133.043 113.407 133.043 113.454 133.038 113.501C133.038 113.607 133.02 113.741 133.006 113.9C132.967 114.27 132.918 114.768 132.858 115.371C132.723 116.614 132.533 118.329 132.31 120.22C132.31 120.291 132.293 120.365 132.286 120.432V120.496H132.222C130.361 120.524 128.691 120.541 127.484 120.549H126.054H125.665C125.621 120.555 125.576 120.555 125.531 120.549C125.575 120.537 125.62 120.532 125.665 120.531L126.054 120.513L127.466 120.467C128.673 120.436 130.347 120.4 132.204 120.369L132.134 120.436C132.134 120.369 132.134 120.294 132.158 120.224C132.381 118.332 132.589 116.621 132.748 115.382C132.826 114.779 132.893 114.284 132.942 113.914L133.002 113.519C133.026 113.413 133.038 113.36 133.038 113.36Z" fill="#263238"/>
<path d="M129.74 108.945C129.74 108.945 129.74 108.994 129.74 109.09C129.74 109.185 129.74 109.337 129.74 109.503C129.74 109.884 129.74 110.399 129.74 111.027C129.722 112.312 129.687 114.09 129.641 116.053C129.641 116.13 129.641 116.211 129.641 116.285V116.36H129.563C127.945 116.234 126.32 116.198 124.698 116.25C124.08 116.25 123.578 116.293 123.232 116.31L122.833 116.331C122.788 116.337 122.741 116.337 122.696 116.331C122.74 116.317 122.787 116.309 122.833 116.307C122.922 116.307 123.056 116.275 123.229 116.261C123.582 116.225 124.073 116.183 124.694 116.151C126.32 116.07 127.95 116.091 129.574 116.215L129.496 116.289C129.496 116.215 129.496 116.134 129.496 116.056C129.546 114.094 129.595 112.315 129.641 111.031C129.666 110.406 129.687 109.891 129.701 109.51C129.701 109.344 129.701 109.206 129.726 109.093C129.725 109.044 129.729 108.994 129.74 108.945Z" fill="#263238"/>
<path d="M125.891 107.438C125.929 107.574 125.957 107.712 125.976 107.851C126.029 108.147 126.103 108.539 126.188 109.012C126.375 109.993 126.668 111.345 127.081 112.827L127.127 112.982L126.979 112.912L126.806 112.827C125.591 112.255 124.291 111.886 122.957 111.733C122.445 111.669 122.025 111.645 121.735 111.634C121.585 111.636 121.436 111.628 121.287 111.609C121.325 111.603 121.365 111.603 121.403 111.609C121.478 111.609 121.591 111.592 121.735 111.592C122.147 111.584 122.558 111.602 122.968 111.645C124.325 111.78 125.647 112.151 126.876 112.742L127.053 112.827L126.95 112.912C126.597 111.649 126.311 110.369 126.096 109.076C126.015 108.582 125.958 108.179 125.926 107.904C125.9 107.75 125.888 107.594 125.891 107.438Z" fill="#263238"/>
<path d="M146.317 134.358C146.317 134.379 145.897 134.337 145.222 134.312C144.345 134.276 143.466 134.305 142.592 134.397C142.385 134.418 142.184 134.442 141.988 134.471H141.918V134.4C141.762 133.528 141.632 132.756 141.543 132.205C141.483 131.911 141.445 131.612 141.43 131.312C141.522 131.598 141.591 131.891 141.639 132.187C141.752 132.734 141.9 133.504 142.062 134.375L141.981 134.315C142.175 134.287 142.38 134.262 142.592 134.241C143.473 134.147 144.36 134.132 145.244 134.195C145.597 134.224 145.855 134.255 146.042 134.284C146.136 134.297 146.229 134.322 146.317 134.358Z" fill="#263238"/>
<path d="M147.684 131.644C147.684 131.669 147.278 131.573 146.624 131.492C145.772 131.388 144.911 131.379 144.057 131.467C143.902 131.467 143.747 131.503 143.602 131.524H143.528V131.45C143.436 130.55 143.362 129.752 143.316 129.181C143.276 128.875 143.261 128.567 143.27 128.259C143.339 128.559 143.387 128.863 143.411 129.17C143.485 129.742 143.577 130.536 143.673 131.432L143.588 131.369C143.736 131.347 143.891 131.326 144.047 131.312C144.912 131.221 145.786 131.244 146.646 131.379C146.905 131.42 147.162 131.474 147.415 131.541C147.509 131.564 147.599 131.598 147.684 131.644Z" fill="#263238"/>
<path d="M148.662 105.942C148.617 105.971 148.57 105.996 148.52 106.016L148.097 106.203L146.533 106.87L141.349 109.016L141.07 109.129L141.003 109.157L140.975 109.09L138.786 104.149L138.143 102.656C138.076 102.49 138.02 102.356 137.974 102.247C137.954 102.2 137.937 102.152 137.924 102.102C137.924 102.102 137.956 102.145 138.002 102.236L138.193 102.632C138.366 102.984 138.595 103.5 138.881 104.107L141.109 109.047L141.014 109.009L141.296 108.892L146.494 106.775L148.075 106.15L148.506 105.988C148.556 105.965 148.608 105.95 148.662 105.942Z" fill="#263238"/>
<path d="M149.929 99.6955C149.929 99.6955 149.887 99.7343 149.802 99.7907L149.424 100.034L148.012 100.917L143.298 103.786L143.224 103.831L143.192 103.75C143.168 103.676 143.136 103.599 143.108 103.521C142.341 101.449 141.646 99.5755 141.134 98.1956L140.551 96.5793C140.488 96.3993 140.438 96.2511 140.399 96.1346C140.378 96.084 140.363 96.0305 140.357 95.9758C140.385 96.0231 140.408 96.0726 140.428 96.124C140.474 96.2405 140.534 96.3817 140.604 96.5581L141.229 98.1603L143.245 103.454C143.273 103.532 143.302 103.609 143.33 103.68L143.224 103.644L147.959 100.821L149.392 99.9813L149.788 99.759C149.832 99.7325 149.88 99.7112 149.929 99.6955Z" fill="#263238"/>
<path d="M149.513 96.364C149.417 96.4356 149.314 96.4971 149.205 96.5475C149.001 96.6604 148.708 96.8263 148.351 97.0451C147.405 97.6317 146.525 98.3192 145.728 99.0955L145.547 99.2755L145.607 99.0284C145.671 98.7673 145.731 98.4956 145.773 98.2168C145.973 96.9319 145.903 95.6196 145.569 94.363C145.467 93.9821 145.343 93.6073 145.198 93.2408C145.134 93.1107 145.084 92.9748 145.046 92.835C145.125 92.9574 145.193 93.086 145.251 93.2196C145.416 93.5814 145.557 93.954 145.671 94.3348C146.039 95.602 146.123 96.9345 145.918 98.2379C145.872 98.5238 145.812 98.7991 145.749 99.0637L145.629 98.9931C146.433 98.2099 147.331 97.5283 148.302 96.9639C148.655 96.7522 148.969 96.611 149.181 96.5016C149.287 96.445 149.398 96.3989 149.513 96.364Z" fill="#263238"/>
<path d="M133.009 128.778C133 128.905 132.978 129.03 132.942 129.152C132.893 129.392 132.822 129.738 132.741 130.169C132.533 131.299 132.403 132.443 132.353 133.592V133.659H132.289L131.964 133.677C130.531 133.765 129.231 133.835 128.292 133.878L127.176 133.924C127.04 133.938 126.903 133.938 126.767 133.924C126.901 133.896 127.036 133.878 127.173 133.871L128.285 133.783C129.224 133.712 130.52 133.627 131.954 133.539H132.278L132.211 133.606C132.263 132.45 132.408 131.301 132.646 130.169C132.737 129.738 132.826 129.396 132.893 129.159C132.919 129.029 132.958 128.901 133.009 128.778Z" fill="#263238"/>
<path d="M130.167 124.706C130.171 124.832 130.163 124.959 130.142 125.083C130.114 125.352 130.075 125.694 130.026 126.11C129.923 126.979 129.764 128.189 129.584 129.541V129.601H129.507L129.041 129.632C127.568 129.731 126.244 129.883 125.287 130.006L124.154 130.158C124.016 130.187 123.875 130.201 123.734 130.201C123.868 130.159 124.005 130.126 124.143 130.102C124.408 130.049 124.793 129.982 125.273 129.904C126.227 129.752 127.554 129.586 129.03 129.484L129.496 129.456L129.429 129.519C129.613 128.164 129.782 126.961 129.916 126.093C129.983 125.68 130.036 125.338 130.079 125.073C130.099 124.948 130.128 124.826 130.167 124.706Z" fill="#263238"/>
<path d="M126.823 122.952C126.844 122.952 126.756 123.351 126.654 123.993C126.515 124.839 126.438 125.694 126.421 126.552V126.633H126.34L126.096 126.604C125.19 126.495 124.279 126.441 123.367 126.442H122.533C122.432 126.454 122.331 126.454 122.23 126.442C122.327 126.412 122.428 126.395 122.53 126.393C122.728 126.372 123.01 126.35 123.363 126.336C124.282 126.306 125.201 126.346 126.114 126.456L126.361 126.488L126.276 126.559C126.297 125.695 126.391 124.834 126.558 123.986C126.622 123.665 126.686 123.407 126.735 123.231C126.75 123.134 126.78 123.04 126.823 122.952Z" fill="#263238"/>
<path d="M145.879 127.024C145.693 127.526 145.477 128.016 145.233 128.492C145.028 128.988 144.792 129.47 144.527 129.936C144.825 128.904 145.278 127.922 145.869 127.024H145.879Z" fill="#263238"/>
<path d="M147.694 128.948C147.141 129.035 146.593 129.153 146.052 129.301C145.526 129.488 145.01 129.706 144.509 129.954C144.942 129.578 145.456 129.306 146.01 129.16C146.548 128.963 147.124 128.891 147.694 128.948Z" fill="#263238"/>
<path d="M47.5346 148.869L47.2309 155.927C47.2309 155.927 54.2926 158.606 54.3668 159.912L40.6706 159.813L40.6988 148.813L47.5346 148.869Z" fill="#166DFC"/>
<path d="M43.0927 155.32C42.9595 155.359 42.8453 155.446 42.7723 155.564C42.6993 155.682 42.6725 155.823 42.6973 155.959C42.7324 156.093 42.8174 156.209 42.9349 156.282C43.0523 156.356 43.1934 156.382 43.3293 156.355C43.4698 156.313 43.5897 156.22 43.666 156.095C43.7423 155.97 43.7695 155.821 43.7424 155.677C43.6941 155.537 43.5932 155.422 43.4612 155.356C43.3293 155.29 43.1767 155.279 43.0362 155.324" fill="#E0E0E0"/>
<path d="M40.6706 159.803V158.701L53.9219 159.199C53.9219 159.199 54.5327 159.471 54.4586 159.905L40.6706 159.803Z" fill="#263238"/>
<path d="M47.3545 155.963C47.3545 156.03 47.0014 156.058 46.6801 156.273C46.3588 156.489 46.1717 156.768 46.1081 156.739C46.0445 156.711 46.1505 156.326 46.5565 156.072C46.9626 155.818 47.3686 155.903 47.3545 155.963Z" fill="#263238"/>
<path d="M48.795 156.573C48.8127 156.637 48.5196 156.75 48.2866 157.032C48.0535 157.314 47.99 157.615 47.9335 157.611C47.877 157.608 47.824 157.23 48.1206 156.88C48.4172 156.531 48.795 156.506 48.795 156.573Z" fill="#263238"/>
<path d="M49.6036 158.317C49.5436 158.317 49.4518 157.992 49.6283 157.611C49.8049 157.229 50.1191 157.099 50.1474 157.155C50.1756 157.212 49.9814 157.406 49.8402 157.71C49.6989 158.013 49.6707 158.317 49.6036 158.317Z" fill="#263238"/>
<path d="M47.2379 154.339C47.2097 154.399 46.8848 154.304 46.5317 154.339C46.1787 154.375 45.8538 154.48 45.8256 154.424C45.7973 154.367 46.0763 154.127 46.5317 154.106C46.9872 154.085 47.2767 154.286 47.2379 154.339Z" fill="#263238"/>
<path d="M47.5028 152.822C47.272 152.888 47.0274 152.888 46.7966 152.822C46.5533 152.774 46.3163 152.699 46.0904 152.596C45.9536 152.534 45.8214 152.462 45.695 152.381C45.617 152.339 45.5466 152.284 45.4867 152.218C45.4451 152.17 45.42 152.11 45.4149 152.046C45.4098 151.983 45.4251 151.92 45.4584 151.865C45.4937 151.82 45.5385 151.783 45.5898 151.756C45.641 151.73 45.6975 151.715 45.755 151.714C45.8422 151.716 45.9288 151.729 46.0128 151.752C46.1607 151.79 46.3049 151.84 46.4435 151.904C46.6754 152.011 46.8887 152.154 47.0755 152.328C47.3933 152.624 47.5028 152.879 47.4781 152.889C47.4533 152.9 47.2945 152.699 46.9696 152.451C46.78 152.309 46.5737 152.191 46.3553 152.098C46.227 152.045 46.0948 152.003 45.9598 151.971C45.815 151.932 45.6915 151.932 45.6526 151.996C45.6138 152.06 45.6526 152.031 45.6526 152.074C45.6984 152.119 45.7494 152.16 45.8044 152.194C45.928 152.275 46.0481 152.342 46.1575 152.406C46.3715 152.513 46.5949 152.6 46.8249 152.667C47.0544 152.701 47.2811 152.753 47.5028 152.822Z" fill="#263238"/>
<path d="M47.4144 152.917C47.2848 152.72 47.2218 152.486 47.2344 152.25C47.2268 151.994 47.2614 151.739 47.3368 151.495C47.3813 151.349 47.4405 151.209 47.5133 151.075C47.5512 150.983 47.6119 150.902 47.6898 150.841C47.7677 150.779 47.8601 150.738 47.9582 150.722C48.0197 150.724 48.0792 150.744 48.1299 150.779C48.1805 150.814 48.2202 150.863 48.2442 150.92C48.2789 151 48.3027 151.084 48.3148 151.17C48.3378 151.325 48.3378 151.482 48.3148 151.636C48.2722 151.892 48.1693 152.134 48.0147 152.342C47.7428 152.695 47.4603 152.772 47.4568 152.751C47.4533 152.73 47.6687 152.589 47.877 152.246C47.9966 152.05 48.0725 151.829 48.0994 151.601C48.117 151.468 48.117 151.334 48.0994 151.202C48.0782 151.054 48.0217 150.937 47.9688 150.951C47.9158 150.965 47.7817 151.057 47.7252 151.174C47.656 151.293 47.598 151.418 47.5521 151.548C47.4741 151.77 47.4266 152.001 47.4109 152.236C47.3791 152.67 47.4498 152.906 47.4144 152.917Z" fill="#263238"/>
<g opacity="0.3">
<path opacity="0.3" d="M40.6706 153.026L40.6847 154.59H47.2874L47.3545 153.026H40.6706Z" fill="black"/>
</g>
<path d="M30.1204 148.421L29.6296 160L23.3729 159.862L23.8425 148.258L30.1204 148.421Z" fill="#166DFC"/>
<path d="M26.5577 159.495C26.5047 159.495 26.6001 156.958 26.7731 153.849C26.9461 150.74 27.1262 148.202 27.1791 148.202C27.2321 148.202 27.1332 150.74 26.9638 153.849C26.7943 156.958 26.6071 159.499 26.5577 159.495Z" fill="#263238"/>
<path d="M29.6614 159.202L23.4047 159.043L23.3729 159.862L29.6296 160L29.6614 159.202Z" fill="#263238"/>
<path d="M23.5213 156.153C23.5648 156.062 23.6233 155.978 23.6943 155.906C23.8746 155.699 24.0732 155.509 24.2875 155.338C24.6008 155.079 24.9506 154.867 25.3256 154.71C25.9807 154.425 26.7101 154.359 27.4058 154.521C28.1015 154.683 28.7265 155.065 29.1883 155.61C29.3626 155.823 29.5052 156.061 29.612 156.315C29.6592 156.404 29.6892 156.501 29.7003 156.601C29.5196 156.286 29.3142 155.985 29.0859 155.701C28.4886 155.06 27.6629 154.68 26.7873 154.643C25.9116 154.63 25.058 154.918 24.3687 155.458C23.8179 155.846 23.546 156.178 23.5213 156.153Z" fill="#263238"/>
<g opacity="0.3">
<path opacity="0.3" d="M23.7084 151.562L23.6554 152.836L29.9262 152.949L29.9686 151.989L23.7084 151.562Z" fill="black"/>
</g>
<path d="M34.0678 103.828L32.0447 123.319L30.5935 152.673H22.8433L22.6349 90.1987L44.8228 91.7797L49.42 124.561L48.4984 153.249H39.9961L38.9263 125.969L34.0678 103.828Z" fill="#455A64"/>
<path d="M34.0714 103.828C34.526 104.368 35.0295 104.866 35.5756 105.314C36.0796 105.811 36.628 106.261 37.2139 106.658C36.7575 106.118 36.2528 105.621 35.7062 105.172C35.2018 104.677 34.6547 104.227 34.0714 103.828Z" fill="#263238"/>
<path d="M34.0925 103.44C34.1261 102.606 34.1119 101.77 34.0502 100.938C34.05 100.103 34.0016 99.2684 33.9054 98.439C33.7816 100.108 33.8444 101.785 34.0925 103.44Z" fill="#263238"/>
<path d="M31.5291 96.1628C31.4881 96.1583 31.4466 96.1583 31.4056 96.1628L31.0207 96.1416L29.5519 96.071L24.2874 95.8522H24.1991V95.944C24.1991 97.5815 24.1991 99.4377 24.1991 101.396V101.566L24.2591 101.59L27.677 102.96H27.7088H27.7405L30.7629 101.901L30.8088 101.883V101.837C31.0313 100.136 31.2149 98.7178 31.3455 97.7015C31.4056 97.225 31.4515 96.8474 31.4868 96.5651C31.5062 96.4353 31.518 96.3045 31.5221 96.1734C31.5114 96.2105 31.5032 96.2482 31.4974 96.2863C31.4974 96.371 31.4656 96.4698 31.4479 96.5933C31.402 96.8792 31.3385 97.2638 31.2643 97.7438C31.1125 98.7425 30.9112 100.14 30.65 101.813L30.7029 101.749L27.6735 102.776H27.737L24.3227 101.396L24.3827 101.488V101.382C24.3827 99.4236 24.3827 97.5674 24.3827 95.9299L24.2909 96.0181L29.4883 96.1451L30.9819 96.1734H31.3844C31.4329 96.1748 31.4814 96.1713 31.5291 96.1628Z" fill="#263238"/>
<path d="M42.7185 96.2581C42.681 96.2532 42.643 96.2532 42.6055 96.2581H42.2524L40.9248 96.2157L36.1299 96.1063H36.0416V96.1945C36.0946 97.8144 36.1546 99.6777 36.2182 101.665V101.714L36.2605 101.742L36.8149 102.095L39.6396 103.927L39.689 103.958L39.7384 103.93L42.9162 102.003L42.9586 101.979V101.933C42.9021 100.232 42.8491 98.8166 42.8138 97.8038C42.8138 97.3274 42.7785 96.9498 42.7644 96.6674C42.7627 96.5377 42.7545 96.4081 42.7396 96.2792C42.7349 96.3167 42.7349 96.3547 42.7396 96.3922V96.6992C42.7396 96.9851 42.7396 97.3733 42.7396 97.8532C42.7396 98.8555 42.775 100.256 42.7997 101.936L42.8385 101.866L39.6607 103.771H39.7596L36.9526 101.936L36.3982 101.583L36.4406 101.661C36.37 99.6742 36.2994 97.8109 36.2429 96.1945L36.1581 96.2792L40.8965 96.3075H42.2453H42.5984C42.6401 96.2954 42.6804 96.2789 42.7185 96.2581Z" fill="#263238"/>
<path d="M25.0288 105.088C25.382 105.115 25.7371 105.105 26.0881 105.056C26.7377 105.007 27.6275 104.919 28.6091 104.792C29.5907 104.665 30.4769 104.523 31.1125 104.403C31.4612 104.361 31.8045 104.282 32.1364 104.167C31.7811 104.17 31.4267 104.205 31.0772 104.269L28.5703 104.601L26.0633 104.922C25.7145 104.949 25.3684 105.004 25.0288 105.088Z" fill="#263238"/>
<path d="M25.209 126.816C25.209 126.816 25.2408 126.929 25.3926 127.063C25.6171 127.242 25.8967 127.336 26.1835 127.331C26.6088 127.319 27.0173 127.162 27.3416 126.887C27.7281 126.569 28.0829 126.214 28.4009 125.828C28.9916 125.142 29.5176 124.402 29.9721 123.619C30.176 123.305 30.3397 122.967 30.4594 122.613C30.2418 122.914 30.0402 123.226 29.8556 123.548C29.3709 124.301 28.8366 125.02 28.2561 125.701C27.9449 126.081 27.6037 126.435 27.2357 126.76C26.9421 127.022 26.5692 127.178 26.1764 127.204C25.9141 127.222 25.6531 127.155 25.4314 127.014C25.2831 126.908 25.2231 126.805 25.209 126.816Z" fill="#263238"/>
<path d="M40.5293 127.501C40.5293 127.501 40.5293 127.6 40.6317 127.748C40.7689 127.957 40.9525 128.132 41.1684 128.259C41.4905 128.445 41.8561 128.541 42.2276 128.538C42.6836 128.52 43.1263 128.38 43.5093 128.132C44.1793 127.669 44.7122 127.034 45.0523 126.294C45.2159 126.007 45.344 125.701 45.4336 125.383C45.246 125.653 45.0784 125.936 44.9323 126.23C44.5699 126.922 44.0468 127.518 43.4069 127.967C43.054 128.199 42.646 128.334 42.2241 128.358C41.8801 128.371 41.5387 128.296 41.2319 128.139C40.9548 127.979 40.7152 127.761 40.5293 127.501Z" fill="#263238"/>
<path d="M40.0208 124.561C40.208 124.718 40.4238 124.838 40.6564 124.914C41.2078 125.146 41.796 125.277 42.3935 125.302C42.9919 125.328 43.5899 125.246 44.159 125.059C44.3983 124.997 44.6236 124.891 44.8228 124.745C44.8228 124.681 43.7635 125.175 42.4041 125.098C41.5873 125.039 40.7838 124.858 40.0208 124.561Z" fill="#455A64"/>
<path d="M35.8192 58.8784L27.1121 58.7726L28.0831 51.6192C28.0831 51.6192 27.4899 51.4957 27.4476 48.3866C27.4052 45.2775 27.2604 39.9874 27.2604 39.9874C29.0961 39.2267 31.0972 38.9528 33.0698 39.192C35.0425 39.4313 36.92 40.1757 38.5203 41.3532L38.997 41.7061L35.8192 58.8784Z" fill="#FFBE9D"/>
<path d="M37.9906 45.535C38.0471 45.5103 40.208 44.9033 40.1373 47.0313C40.0667 49.1593 37.867 48.6512 37.867 48.5876C37.867 48.5241 37.9906 45.535 37.9906 45.535Z" fill="#FFBE9D"/>
<path d="M27.6382 45.0904C27.5852 45.0692 25.6186 44.5575 25.6892 46.682C25.7598 48.8065 27.9595 48.3053 27.9595 48.2418C27.9595 48.1783 27.6382 45.0904 27.6382 45.0904Z" fill="#FFBE9D"/>
<path d="M38.7073 45.2986C38.3754 47.0808 38.4425 48.016 38.1354 49.2053C37.6552 51.0898 36.6842 52.5367 34.9258 53.4755C33.1674 54.4142 30.7876 54.4001 29.2764 53.1225C28.2172 52.2332 27.4828 51.231 27.3274 49.8899C27.1721 48.5489 27.0167 46.1844 27.0061 44.8363C27.0061 42.4084 26.819 40.0862 26.819 40.0862L34.0113 38.8299L38.1 41.1802L38.7073 45.2986Z" fill="#263238"/>
<path d="M31.2892 54.5624C31.6924 54.7094 32.1276 54.746 32.5497 54.6683C32.9772 54.6559 33.3933 54.5277 33.7537 54.2976C33.7537 54.2446 33.2029 54.4071 32.5285 54.4742C31.8541 54.5412 31.2998 54.4953 31.2892 54.5624Z" fill="#263238"/>
<path d="M38.3579 48.3265C38.5697 46.502 38.7109 44.4128 39.0005 42.486C39.1135 41.7625 39.3783 40.7214 39.3147 39.9944C39.2921 39.2583 39.1316 38.5329 38.8416 37.8558C38.6224 37.4384 38.3122 37.0755 37.9339 36.7939C37.5557 36.5123 37.1189 36.3192 36.656 36.2289C36.1881 36.1398 35.7062 36.1549 35.2448 36.2732C34.7834 36.3916 34.3538 36.6102 33.9867 36.9136C33.7092 36.5353 33.3284 36.2451 32.89 36.078C32.4515 35.9108 31.9741 35.8738 31.5151 35.9713C31.0638 36.0754 30.6534 36.3105 30.3356 36.6471C30.0177 36.9836 29.8064 37.4066 29.7285 37.8629C29.4622 37.6322 29.1314 37.4888 28.7809 37.4522C28.4304 37.4156 28.0771 37.4875 27.7688 37.6582C27.4761 37.8365 27.249 38.1048 27.1217 38.4229C26.9944 38.741 26.9737 39.0919 27.0627 39.4227C26.8069 39.4644 26.565 39.5673 26.3578 39.7228C26.1506 39.8783 25.9841 40.0817 25.8728 40.3156C25.7686 40.5478 25.725 40.8026 25.746 41.0563C25.767 41.3099 25.8519 41.5541 25.9928 41.766C26.3247 42.2601 26.9285 42.5318 27.2957 43.0047C27.502 43.278 27.6225 43.6063 27.642 43.948C27.6615 44.2898 27.5791 44.6296 27.4052 44.9245" fill="#263238"/>
<path d="M28.3762 41.7272C28.386 41.7994 28.4126 41.8683 28.4538 41.9283C28.5612 42.1074 28.7056 42.2615 28.8775 42.3801C29.1505 42.5736 29.4787 42.6738 29.8132 42.6659C30.0309 42.6608 30.2453 42.612 30.4437 42.5222C30.6421 42.4325 30.8203 42.3037 30.9678 42.1436L30.816 42.1048C30.8716 42.3488 30.9892 42.5744 31.1574 42.7599C31.3256 42.9453 31.5388 43.0843 31.7764 43.1635C32.0425 43.2634 32.3288 43.2976 32.6109 43.2632C32.8931 43.2288 33.1628 43.1268 33.397 42.9659C33.8161 42.6883 34.1354 42.2839 34.308 41.8119L34.135 41.8331C34.3202 42.0936 34.5639 42.3073 34.8465 42.4568C35.1292 42.6063 35.443 42.6876 35.7627 42.6941C36.0154 42.6988 36.2665 42.6535 36.5016 42.5609C36.7367 42.4682 36.9512 42.33 37.1327 42.1542C37.3668 41.9304 37.5384 41.6494 37.6305 41.339C37.6733 41.2266 37.6867 41.1051 37.6694 40.9861C37.6694 40.9861 37.6411 41.1025 37.5634 41.3002C37.4557 41.5881 37.2787 41.8451 37.0479 42.0483C36.6987 42.3634 36.2399 42.5293 35.7698 42.5106C35.48 42.4998 35.1967 42.4221 34.9419 42.2838C34.6871 42.1454 34.4677 41.9501 34.3009 41.7131L34.195 41.5543L34.1244 41.7307C33.9631 42.1634 33.6689 42.534 33.284 42.7894C33.0771 42.9336 32.8383 43.0255 32.5881 43.0575C32.3378 43.0895 32.0836 43.0604 31.847 42.9729C31.6374 42.9055 31.4483 42.7859 31.2976 42.6254C31.1469 42.4649 31.0395 42.2688 30.9855 42.0554L30.9537 41.8789L30.8336 42.0166C30.7038 42.1619 30.5465 42.28 30.3707 42.3642C30.195 42.4484 30.0043 42.497 29.8097 42.5071C29.502 42.5252 29.1965 42.4448 28.9376 42.2777C28.7151 42.1341 28.5241 41.9468 28.3762 41.7272Z" fill="#455A64"/>
<path d="M28.3867 40.8838C28.4299 40.6064 28.5349 40.3423 28.6939 40.1109C28.8783 39.8616 29.1467 39.6874 29.4495 39.6204C29.6366 39.5776 29.8305 39.5733 30.0193 39.6079C30.2081 39.6425 30.3878 39.7152 30.5476 39.8215L30.7206 39.9415V39.7333C30.7037 39.5269 30.7289 39.3192 30.7947 39.1228C30.8662 38.9059 30.9814 38.7061 31.1332 38.5355C31.2851 38.3649 31.4703 38.2273 31.6775 38.1311C32.0306 37.975 32.4258 37.9415 32.8003 38.0358C33.1464 38.1328 33.4663 38.3065 33.7359 38.544C33.7359 38.544 33.6936 38.4417 33.5559 38.3076C33.3554 38.1191 33.1135 37.9801 32.8497 37.9017C32.3992 37.7639 31.9126 37.8083 31.4946 38.0254C31.0766 38.2426 30.7606 38.6151 30.6147 39.0628C30.5391 39.2899 30.5115 39.5303 30.5335 39.7686L30.6888 39.6804C30.5067 39.5587 30.3007 39.4772 30.0845 39.4413C29.8684 39.4054 29.6471 39.4159 29.4354 39.4722C29.0991 39.5571 28.8069 39.7649 28.6162 40.0545C28.4915 40.2355 28.416 40.4459 28.3973 40.665C28.3549 40.7991 28.3761 40.8838 28.3867 40.8838Z" fill="#455A64"/>
<path d="M32.9733 40.9472C33.0015 40.9472 32.9733 40.8237 32.9733 40.6543C32.9943 40.4292 33.072 40.2131 33.1993 40.0262C33.3283 39.8309 33.4674 39.6424 33.6159 39.4615C33.7254 39.3521 33.8278 39.4298 33.8454 39.4192C33.8631 39.4086 33.8454 39.3698 33.796 39.3309C33.7534 39.3095 33.7057 39.3005 33.6583 39.3048C33.6108 39.3092 33.5656 39.3268 33.5276 39.3557C33.4348 39.4253 33.3506 39.5059 33.2769 39.5956C33.1866 39.6997 33.1029 39.8093 33.0263 39.9238C32.88 40.1394 32.8115 40.3982 32.8321 40.6579C32.8638 40.859 32.9521 40.9578 32.9733 40.9472Z" fill="#455A64"/>
<path d="M37.2386 38.2727C37.2598 38.2727 37.2386 38.1067 37.1044 37.8843C37.021 37.7506 36.9088 37.6372 36.7761 37.5524C36.6018 37.4424 36.3938 37.3986 36.1899 37.4288C35.8439 37.4896 35.533 37.6772 35.3178 37.9549C35.1554 38.1526 35.0848 38.2868 35.1024 38.308C35.1201 38.3292 35.2401 38.2162 35.4202 38.0538C35.6358 37.8319 35.9144 37.6815 36.2182 37.623C36.3661 37.6099 36.5149 37.6356 36.6499 37.6975C36.7848 37.7594 36.9014 37.8554 36.9879 37.9761C37.1397 38.1456 37.2104 38.2833 37.2386 38.2727Z" fill="#455A64"/>
<path d="M36.1193 47.2925C36.4723 46.9044 36.7319 46.4409 36.8784 45.9373C37.0853 45.4582 37.176 44.9371 37.1432 44.4163C37.0832 44.4163 36.9702 45.0833 36.6878 45.8738C36.4053 46.6643 36.0663 47.2643 36.1193 47.2925Z" fill="#455A64"/>
<path d="M35.1519 47.8042C35.3977 47.5243 35.5796 47.1944 35.685 46.8372C35.8473 46.507 35.9376 46.1462 35.9498 45.7785C35.7519 46.0867 35.5996 46.4219 35.4979 46.7737C35.335 47.0994 35.2185 47.4462 35.1519 47.8042Z" fill="#455A64"/>
<path d="M29.0964 47.9489C28.9916 48.5819 29.0777 49.2318 29.3436 49.8158C29.5518 50.4306 29.9316 50.9731 30.4382 51.3792C30.4876 51.3403 29.9015 50.7086 29.5307 49.7487C29.16 48.7888 29.16 47.9454 29.0964 47.9489Z" fill="#455A64"/>
<path d="M28.129 46.3961C27.899 46.9267 27.8493 47.518 27.9878 48.0795C28.062 48.6615 28.3249 49.2031 28.7363 49.6217C28.5071 49.1181 28.3239 48.5949 28.189 48.0583C28.0125 47.1513 28.1925 46.4067 28.129 46.3961Z" fill="#455A64"/>
<path d="M15.8134 76.0402V84.5099C15.8131 84.8081 15.8769 85.103 16.0005 85.3745C17.0103 87.6048 21.9464 95.8805 22.582 96.9392C22.1936 95.6899 25.6997 89.7893 25.6997 89.7893L22.1689 83.0841L22.0771 75.779L16.3924 67.4152L15.8134 76.0402Z" fill="#166DFC"/>
<path d="M59.9491 54.3506L47.0191 47.3984L43.4141 53.0978L50.7688 56.948L41.8676 57.1033H40.4976C39.8974 57.1033 35.5297 56.9833 35.5297 56.9833C35.5297 56.9833 32.5814 57.795 30.8831 57.7597C29.0576 57.7244 26.4272 56.955 26.4272 56.955L23.6766 58.2996C23.6766 58.2996 18.052 61.4758 17.2999 62.4568C16.5478 63.4379 16.3995 67.3975 16.3995 67.3975L21.8653 77.2224L24.1286 82.8441C24.1286 82.8441 21.4628 92.3549 22.1266 97.0909H45.8715L44.5828 68.188L52.0753 65.1071L59.49 61.6346C60.6835 60.9887 62.0287 59.3195 62.0287 57.9608C62.0287 56.6021 61.199 54.9752 59.9491 54.3506Z" fill="#166DFC"/>
<path d="M45.9421 49.1911L42.5666 47.229L37.4257 44.4446C37.4257 44.4446 35.7309 43.16 35.0635 43.1988C34.7792 43.2489 34.5089 43.3592 34.2708 43.5223C34.0327 43.6854 33.8323 43.8976 33.683 44.1446C33.6512 44.2963 33.9301 44.5787 34.3609 44.4587C34.5021 44.4198 34.8941 44.1375 35.1236 44.1834C35.3205 44.2295 35.5065 44.314 35.6707 44.4321C35.8349 44.5502 35.9741 44.6995 36.0804 44.8716C36.1022 44.9055 36.1146 44.9446 36.1164 44.9849C36.1183 45.0252 36.1094 45.0653 36.0908 45.1011C36.0722 45.1369 36.0444 45.1672 36.0104 45.1888C35.9763 45.2105 35.9371 45.2228 35.8968 45.2245C35.8968 45.2245 32.9874 44.4904 31.9034 45.0762C31.777 45.1382 31.6773 45.2438 31.6228 45.3736C31.5683 45.5033 31.5626 45.6485 31.6068 45.7821C31.688 45.9726 31.8928 46.135 32.4013 46.0397C33.4217 45.8456 35.1094 46.629 35.1094 46.629C35.1094 46.629 31.3385 46.5055 30.6888 46.8302C30.4346 46.9537 30.1557 47.7795 30.9219 47.8642C31.8328 47.963 33.6194 47.9242 33.6194 47.9242C33.6194 47.9242 35.3072 48.1571 35.0318 48.4712C34.7564 48.7853 32.1753 48.8241 31.9776 48.8559C31.7798 48.8876 30.9183 48.8559 30.9501 49.5617C30.9783 49.9675 31.7339 50.2216 32.7155 50.1898C33.5488 50.1651 36.1299 50.1122 36.4441 50.5816C36.7583 51.0509 36.5394 51.3968 36.3064 51.5168C35.5495 51.6948 34.7798 51.8128 34.0043 51.8697C33.6512 51.8697 33.2134 52.4978 34.0467 52.7025C34.9506 52.9213 35.7167 52.7413 36.5183 52.7413C37.3198 52.7413 38.3049 52.8049 40.5046 51.9402C40.5046 51.9402 41.9911 51.2697 44.0142 52.4308L45.9421 49.1911Z" fill="#FFBE9D"/>
<path d="M43.9966 52.4626C43.9538 52.4475 43.9125 52.4286 43.8731 52.4061C43.7883 52.3708 43.6753 52.3003 43.52 52.2367C43.0554 52.0246 42.5592 51.8899 42.0511 51.838C41.6858 51.8011 41.3171 51.8178 40.9566 51.8874C40.7502 51.9275 40.5489 51.9902 40.3563 52.0744C40.148 52.1556 39.9326 52.2367 39.7066 52.3144C39.2211 52.482 38.7244 52.6153 38.2202 52.7132C37.6517 52.8144 37.0742 52.8558 36.4971 52.8367C35.8641 52.8883 35.2289 52.9072 34.594 52.8931C34.4242 52.8779 34.2556 52.852 34.0891 52.8155C33.9039 52.7858 33.7324 52.6995 33.5983 52.5685C33.5637 52.528 33.5382 52.4806 33.5236 52.4295C33.509 52.3783 33.5055 52.3246 33.5135 52.272C33.5296 52.1699 33.5764 52.0751 33.6477 52.0003C33.7185 51.9269 33.8074 51.8733 33.9055 51.845C33.9977 51.8288 34.0909 51.8182 34.1844 51.8133C34.5375 51.778 34.8906 51.7286 35.2436 51.6686C35.4237 51.6403 35.5967 51.6121 35.7909 51.5768C35.9684 51.5517 36.1418 51.503 36.3064 51.4321C36.3747 51.3867 36.4294 51.3237 36.4649 51.2498C36.5003 51.1759 36.5151 51.0938 36.5077 51.0122C36.4982 50.9249 36.4731 50.84 36.4335 50.7616C36.4124 50.7228 36.3876 50.684 36.3629 50.6451C36.3382 50.6063 36.3206 50.5922 36.2782 50.5746C36.1111 50.4888 35.9309 50.4316 35.745 50.4052C35.5508 50.3699 35.3531 50.3487 35.1554 50.3311C34.3328 50.2729 33.5076 50.2623 32.6838 50.2993C32.2406 50.3217 31.7972 50.2594 31.3774 50.1158C31.266 50.0757 31.1622 50.0172 31.0702 49.9429C31.016 49.9044 30.97 49.8556 30.9348 49.7993C30.8997 49.743 30.8761 49.6802 30.8654 49.6147C30.8448 49.4876 30.8631 49.3572 30.9179 49.2407C30.9727 49.1242 31.0615 49.027 31.1726 48.9618C31.3846 48.8552 31.6169 48.7951 31.854 48.7853C32.0765 48.7536 32.313 48.75 32.532 48.7395C32.9839 48.7147 33.4394 48.69 33.8949 48.6477C34.1208 48.623 34.3503 48.5983 34.5728 48.5524C34.7952 48.5065 35.0883 48.4077 34.9259 48.376C34.7299 48.2716 34.5192 48.1978 34.3009 48.1572C34.0749 48.1042 33.8419 48.0619 33.5947 48.0301C32.9663 48.0301 32.3272 48.0301 31.674 48.0301L31.1796 48.0054C31.0052 48.002 30.8319 47.9759 30.6641 47.9278C30.57 47.8944 30.486 47.8373 30.4205 47.7619C30.3582 47.6833 30.318 47.5895 30.304 47.4902C30.2843 47.2999 30.329 47.1085 30.4311 46.9467C30.4639 46.8971 30.503 46.852 30.5476 46.8126C30.5938 46.7739 30.6481 46.7461 30.7065 46.7314C30.8052 46.6966 30.9068 46.6706 31.0102 46.6538C31.2114 46.622 31.4091 46.6044 31.6069 46.5867C31.9988 46.5585 32.3907 46.5444 32.7791 46.5373C33.5594 46.5373 34.3256 46.5373 35.0848 46.555L35.0424 46.735C34.3735 46.4205 33.6581 46.2167 32.9239 46.1315C32.747 46.1184 32.5692 46.1267 32.3943 46.1562C32.198 46.2024 31.9928 46.1938 31.8011 46.1315C31.6964 46.0923 31.6063 46.0218 31.5431 45.9296C31.4799 45.8374 31.4467 45.728 31.448 45.6162C31.4491 45.5111 31.4745 45.4076 31.5223 45.314C31.5701 45.2203 31.6389 45.1389 31.7234 45.0763C32.0462 44.8911 32.4105 44.7903 32.7826 44.7834C33.1359 44.7654 33.4899 44.7736 33.8419 44.8081C34.525 44.8778 35.2022 44.9957 35.8686 45.161H35.8333C35.9922 45.1363 36.024 45.041 35.9322 44.8928C35.8372 44.7545 35.7175 44.6348 35.5791 44.5399C35.4473 44.4378 35.2976 44.3613 35.1377 44.314C35.0692 44.2898 34.9944 44.2898 34.9259 44.314C34.8478 44.3344 34.7721 44.3628 34.6999 44.3987L34.4739 44.5152C34.39 44.5616 34.2975 44.5904 34.202 44.5999C34.1069 44.6155 34.0095 44.61 33.9168 44.5838C33.824 44.5576 33.7382 44.5112 33.6654 44.4481C33.6207 44.4133 33.5863 44.367 33.5657 44.3142C33.5452 44.2614 33.5394 44.204 33.5488 44.1482C33.5868 44.0611 33.6393 43.9811 33.7042 43.9117C33.8097 43.7825 33.928 43.6642 34.0573 43.5588C34.316 43.3401 34.6323 43.2004 34.9682 43.1565C35.2939 43.1818 35.6093 43.2821 35.8898 43.4494C36.4132 43.7369 36.9147 44.0625 37.3904 44.4234L40.9601 46.3715L42.4219 47.1726L43.633 47.8784L45.2995 48.87L45.7303 49.1312L45.875 49.2265C45.8203 49.2071 45.7681 49.181 45.7197 49.1488L45.2783 48.9053L43.5941 47.9454L42.376 47.2396L40.9707 46.4456L37.3904 44.5222C36.918 44.171 36.4213 43.8538 35.9039 43.5729C35.6472 43.4217 35.3603 43.3289 35.0636 43.3012C34.7596 43.3459 34.4744 43.4756 34.2409 43.6753C34.1114 43.7713 33.993 43.8813 33.8878 44.0035C33.8395 44.0557 33.798 44.1138 33.7642 44.1764C33.7642 44.2046 33.7854 44.2717 33.8348 44.314C33.8904 44.3608 33.9556 44.3948 34.0257 44.4137C34.0959 44.4326 34.1693 44.4359 34.2409 44.4234C34.3986 44.3847 34.5489 44.3203 34.6858 44.2329C34.7694 44.1915 34.8569 44.1584 34.9471 44.134C35.0466 44.1096 35.1512 44.1157 35.2472 44.1517C35.4265 44.2028 35.5943 44.2878 35.7415 44.4023C35.895 44.5123 36.0268 44.6499 36.1299 44.8081C36.1637 44.8555 36.1867 44.9099 36.1971 44.9672C36.2074 45.0246 36.205 45.0835 36.1899 45.1398C36.1637 45.1942 36.1239 45.2408 36.0745 45.2754C36.025 45.31 35.9675 45.3314 35.9075 45.3374C35.8984 45.341 35.8883 45.341 35.8792 45.3374C35.2216 45.1795 34.5539 45.0674 33.8807 45.0022C33.5369 44.9686 33.1911 44.9616 32.8462 44.981C32.5064 44.9838 32.1727 45.0711 31.8752 45.2351C31.814 45.281 31.7638 45.3399 31.7283 45.4077C31.6929 45.4755 31.6731 45.5504 31.6704 45.6268C31.6654 45.7021 31.6847 45.7769 31.7253 45.8404C31.766 45.9039 31.826 45.9528 31.8964 45.9797C32.0572 46.0225 32.2264 46.0225 32.3872 45.9797C32.5774 45.9486 32.7706 45.9404 32.9627 45.955C33.7236 46.0398 34.4654 46.2484 35.1589 46.5726C35.1819 46.5834 35.1998 46.6026 35.2091 46.6263C35.2183 46.6499 35.218 46.6762 35.2083 46.6997C35.1998 46.7167 35.1867 46.731 35.1705 46.7409C35.1543 46.7509 35.1356 46.7562 35.1165 46.7561C34.3645 46.735 33.5947 46.7279 32.8215 46.7561C32.4366 46.7561 32.0482 46.7738 31.6598 46.8055C31.4656 46.8055 31.2714 46.8408 31.0808 46.8691C30.9899 46.8852 30.9002 46.9076 30.8124 46.9361C30.7752 46.9453 30.7404 46.9621 30.71 46.9855C30.6809 47.0123 30.6559 47.0432 30.6359 47.0773C30.477 47.3208 30.4876 47.6949 30.7736 47.7831C30.9234 47.8235 31.0775 47.846 31.2326 47.8501L31.7199 47.8748C32.366 47.896 33.0051 47.8925 33.6265 47.8748C33.8631 47.9101 34.0997 47.9525 34.3327 48.0054C34.5802 48.0498 34.8188 48.1344 35.0389 48.256C35.0722 48.2786 35.1009 48.3074 35.1236 48.3407C35.1406 48.3637 35.1521 48.3903 35.157 48.4185C35.1619 48.4467 35.1601 48.4756 35.1518 48.503C35.1374 48.5483 35.1074 48.5871 35.0671 48.6124C35.0382 48.6366 35.0061 48.6568 34.9718 48.6724C34.8578 48.7183 34.7395 48.7526 34.6187 48.7747C34.3821 48.8206 34.1526 48.8453 33.9125 48.87C33.4535 48.9124 32.9945 48.9371 32.5425 48.9583C32.313 48.9583 32.0977 48.9583 31.8717 49.0077C31.662 49.0124 31.4559 49.063 31.2679 49.1559C31.1874 49.2021 31.1229 49.2719 31.0832 49.3557C31.0434 49.4396 31.0302 49.5337 31.0455 49.6252C31.0702 49.7876 31.2573 49.9146 31.4445 49.9781C31.8417 50.1134 32.2611 50.172 32.6803 50.1511C33.5137 50.119 34.3482 50.1331 35.1801 50.1934C35.3814 50.2111 35.5861 50.2358 35.7839 50.2711C35.9916 50.3 36.1924 50.3658 36.3771 50.4652C36.4283 50.4972 36.4737 50.5378 36.5112 50.5851C36.5395 50.631 36.5677 50.6734 36.5924 50.7228C36.6418 50.8183 36.6718 50.9226 36.6807 51.0298C36.6906 51.1406 36.6702 51.2519 36.6217 51.352C36.5732 51.452 36.4984 51.5371 36.4053 51.598C36.2236 51.6837 36.0293 51.7397 35.8298 51.7638C35.6462 51.7991 35.4767 51.8274 35.2754 51.8556C34.9223 51.9121 34.5481 51.9615 34.1915 51.9968C34.1063 51.9999 34.0214 52.0082 33.9372 52.0215C33.8662 52.0424 33.8017 52.0813 33.7501 52.1344C33.697 52.1797 33.6628 52.2433 33.6543 52.3125C33.6458 52.3818 33.6636 52.4517 33.7042 52.5085C33.8178 52.6139 33.9605 52.6828 34.1138 52.7061C34.2729 52.7437 34.4346 52.7697 34.5975 52.7837C35.2287 52.8036 35.8604 52.7894 36.49 52.7414C37.0596 52.7637 37.6299 52.727 38.1919 52.632C38.6922 52.5398 39.1854 52.4124 39.6678 52.2509C39.8902 52.1732 40.1092 52.0991 40.314 52.0215C40.5124 51.9367 40.7196 51.874 40.9319 51.8344C41.3011 51.7666 41.6786 51.7559 42.0511 51.8027C42.5643 51.8618 43.0636 52.0087 43.527 52.2367C43.6887 52.3008 43.8457 52.3763 43.9966 52.4626Z" fill="#EB996E"/>
<g opacity="0.3">
<path opacity="0.3" d="M50.6981 56.9303C51.5922 57.1382 52.5239 57.1212 53.4098 56.8809C52.0186 55.8222 49.4658 55.5963 47.7357 55.3634L50.6981 56.9303Z" fill="black"/>
</g>
<path d="M56.4358 57.0822C56.1482 57.1132 55.8582 57.1132 55.5707 57.0822L53.4981 57.0222L51.422 56.9869C51.1338 57.0008 50.8451 56.9842 50.5604 56.9375C50.8434 56.876 51.1324 56.8464 51.422 56.8492C51.9516 56.8245 52.6895 56.8104 53.5016 56.828C54.3137 56.8457 55.0481 56.8951 55.5813 56.9445C55.8705 56.9568 56.1573 57.003 56.4358 57.0822Z" fill="#263238"/>
<path d="M17.9671 82.0607C18.1408 82.147 18.3012 82.2576 18.4438 82.389C18.7979 82.6714 19.1857 82.9086 19.5984 83.0952C20.0093 83.2778 20.4645 83.3367 20.9083 83.2647C21.2614 83.2047 21.4344 83.0811 21.4521 83.1093C21.4697 83.1376 21.3003 83.2965 20.9401 83.3988C20.4687 83.5155 19.9718 83.472 19.5278 83.2753C19.096 83.0771 18.7008 82.8074 18.3591 82.4773C18.0943 82.2478 17.9495 82.0889 17.9671 82.0607Z" fill="#263238"/>
<path d="M22.1265 97.091C22.1056 96.9981 22.0926 96.9037 22.0877 96.8086C22.0877 96.6216 22.0417 96.3463 22.0241 95.9864C21.9954 94.9746 22.0319 93.962 22.1336 92.9549C22.5064 89.6103 23.168 86.3042 24.1108 83.0736V83.1336L23.8319 82.4278C22.3101 78.5917 20.9366 75.1156 19.948 72.5817C19.4642 71.3324 19.0652 70.3125 18.7863 69.5926C18.6557 69.2397 18.5533 68.975 18.4791 68.7739C18.4372 68.6811 18.4053 68.584 18.3838 68.4845C18.4333 68.5733 18.477 68.6653 18.5144 68.7598C18.5968 68.9597 18.7145 69.2279 18.8675 69.5644L20.0504 72.5323C21.0672 75.0591 22.4619 78.5317 24.0049 82.3572L24.2803 83.063V83.0912V83.123C23.3397 86.3473 22.6619 89.6424 22.2536 92.9761C22.1386 93.9789 22.0832 94.9876 22.0877 95.997C22.0877 96.3499 22.1124 96.6287 22.1194 96.8157C22.1283 96.9072 22.1306 96.9992 22.1265 97.091Z" fill="#263238"/>
<path d="M43.9154 67.5281C43.8174 67.4542 43.7285 67.3689 43.6506 67.274C43.4211 67.0317 43.2076 66.7747 43.0115 66.5047C41.7009 64.7083 40.9893 62.5451 40.9777 60.3218C40.9731 59.988 40.992 59.6542 41.0342 59.3231C41.0392 59.2031 41.0605 59.0843 41.0978 58.9702C41.1296 58.9702 41.0766 59.4924 41.0978 60.3288C41.1406 61.4161 41.3343 62.4922 41.6733 63.5261C42.0157 64.5587 42.498 65.5395 43.1068 66.4411C43.5906 67.1187 43.9401 67.5034 43.9154 67.5281Z" fill="#263238"/>
<path d="M35.2331 69.582C35.2417 69.6464 35.2417 69.7117 35.2331 69.7761C35.2166 69.9219 35.1954 70.1054 35.1696 70.3266C35.1131 70.8066 35.0177 71.4982 34.8836 72.3523C34.6117 74.0568 34.1774 76.4036 33.5312 78.9622C32.8851 81.5207 32.1789 83.8005 31.614 85.4345C31.3315 86.2497 31.0914 86.9061 30.9078 87.3543L30.6995 87.873C30.6782 87.9332 30.651 87.9911 30.6183 88.046C30.6255 87.9819 30.6409 87.919 30.6642 87.8589C30.7101 87.7178 30.7701 87.5448 30.8372 87.3296C30.9996 86.8496 31.215 86.1932 31.4798 85.3921C32.013 83.7511 32.7015 81.4713 33.3406 78.9163C33.9797 76.3613 34.4422 74.0286 34.7529 72.3311L35.106 70.316C35.1448 70.0972 35.1766 69.9137 35.2013 69.769C35.2035 69.7055 35.2141 69.6426 35.2331 69.582Z" fill="#263238"/>
<path d="M156.465 35.3469H111.57V59.729H156.465V35.3469Z" fill="#F5F5F5"/>
<path d="M156.465 35.3469H111.57V39.3453H156.465V35.3469Z" fill="#E0E0E0"/>
<path d="M114.257 37.4327C114.258 37.532 114.229 37.6293 114.174 37.7122C114.12 37.7951 114.042 37.8599 113.95 37.8984C113.858 37.9369 113.758 37.9473 113.66 37.9284C113.563 37.9094 113.473 37.862 113.402 37.792C113.332 37.722 113.284 37.6327 113.264 37.5353C113.245 37.438 113.254 37.337 113.292 37.2451C113.33 37.1533 113.394 37.0748 113.477 37.0196C113.559 36.9643 113.656 36.9348 113.756 36.9348C113.888 36.9348 114.015 36.9872 114.109 37.0804C114.203 37.1737 114.256 37.3003 114.257 37.4327Z" fill="#F5F5F5"/>
<path d="M116.167 37.4327C116.167 37.5311 116.138 37.6274 116.083 37.7093C116.029 37.7911 115.951 37.8549 115.86 37.8926C115.769 37.9303 115.669 37.9402 115.572 37.9209C115.476 37.9017 115.387 37.8543 115.317 37.7847C115.248 37.7151 115.2 37.6264 115.181 37.5298C115.162 37.4332 115.172 37.3331 115.209 37.2421C115.247 37.1512 115.311 37.0734 115.393 37.0187C115.475 36.964 115.571 36.9348 115.669 36.9348C115.801 36.9348 115.928 36.9873 116.021 37.0806C116.115 37.174 116.167 37.3006 116.167 37.4327Z" fill="#F5F5F5"/>
<path d="M118.081 37.4327C118.081 37.5311 118.052 37.6274 117.997 37.7093C117.942 37.7911 117.865 37.8549 117.774 37.8926C117.683 37.9303 117.583 37.9402 117.486 37.9209C117.389 37.9017 117.301 37.8543 117.231 37.7847C117.162 37.7151 117.114 37.6264 117.095 37.5298C117.076 37.4332 117.086 37.3331 117.123 37.2421C117.161 37.1512 117.225 37.0734 117.307 37.0187C117.388 36.964 117.485 36.9348 117.583 36.9348C117.715 36.9348 117.842 36.9873 117.935 37.0806C118.029 37.174 118.081 37.3006 118.081 37.4327Z" fill="#F5F5F5"/>
<path d="M126.537 44.6458H116.075V55.1024H126.537V44.6458Z" fill="#166DFC"/>
<path d="M139.248 44.6458H128.786V55.1024H139.248V44.6458Z" fill="#166DFC"/>
<path d="M151.956 44.6458H141.494V55.1024H151.956V44.6458Z" fill="#455A64"/>
<g opacity="0.4">
<path opacity="0.4" d="M139.248 44.6458H128.786V55.1024H139.248V44.6458Z" fill="black"/>
</g>
<path d="M156.461 59.7289C156.461 59.7289 156.461 59.5772 156.461 59.2878C156.461 58.9984 156.461 58.582 156.461 58.0138C156.461 56.8951 156.461 55.2506 156.444 53.1402C156.444 48.923 156.423 42.8354 156.408 35.3468L156.476 35.4138L111.588 35.4385L111.68 35.3468C111.68 43.9612 111.68 52.2085 111.68 59.7289L111.595 59.6407L143.867 59.6831L153.149 59.7078H155.621H156.26H156.479H156.271H155.639H153.167L143.902 59.7289L111.574 59.7713H111.5V59.6866C111.5 52.1662 111.5 43.9188 111.5 35.3044V35.2126H111.595L156.483 35.2338H156.553V35.3044C156.553 42.8107 156.525 48.9124 156.518 53.1402C156.518 55.2576 156.518 56.8845 156.5 57.9997C156.5 58.5502 156.5 58.9702 156.5 59.2596C156.5 59.549 156.461 59.7289 156.461 59.7289Z" fill="#263238"/>
<path d="M21.4068 34.5171C22.6391 29.2246 19.3454 23.9358 14.0501 22.7042C8.75494 21.4726 3.46339 24.7646 2.23116 30.0571C0.998924 35.3496 4.29262 40.6385 9.58783 41.8701C14.883 43.1017 20.1746 39.8097 21.4068 34.5171Z" fill="#FAFAFA"/>
<path d="M21.5598 33.8554C22.4249 28.475 18.7623 23.4122 13.3791 22.5475C7.99583 21.6828 2.93053 25.3436 2.06538 30.7241C1.20024 36.1045 4.86287 41.1673 10.2461 42.032C15.6293 42.8967 20.6946 39.2359 21.5598 33.8554Z" fill="white"/>
<path d="M21.9958 37.2135C21.9958 37.2135 21.8934 37.2453 21.7275 37.3371C21.4975 37.4723 21.314 37.6741 21.2014 37.9158C21.122 38.0797 21.0809 38.2595 21.0813 38.4416C21.0837 38.6502 21.1462 38.8536 21.2614 39.0275C21.3852 39.233 21.5689 39.3959 21.7878 39.4943C22.0068 39.5928 22.2506 39.6221 22.4866 39.5784C22.7227 39.5346 22.9397 39.4199 23.1088 39.2496C23.2779 39.0793 23.391 38.8614 23.4329 38.6252C23.4803 38.4223 23.4668 38.2099 23.394 38.0146C23.3291 37.8445 23.2265 37.6913 23.0939 37.5664C22.9011 37.3781 22.6542 37.2547 22.3877 37.2135C22.2006 37.1853 22.0947 37.2135 22.0911 37.1959C22.1168 37.1913 22.1431 37.1913 22.1688 37.1959H22.2642C22.3065 37.1927 22.349 37.1927 22.3913 37.1959C22.6698 37.2313 22.9297 37.355 23.1328 37.5488C23.2739 37.6798 23.3848 37.84 23.4576 38.0182C23.5377 38.2274 23.556 38.4552 23.5106 38.6746C23.4603 38.9155 23.3442 39.1379 23.1751 39.3168C23 39.5191 22.7614 39.6557 22.4983 39.7045C22.2353 39.7532 21.9634 39.7111 21.7275 39.5851C21.5047 39.4793 21.3163 39.3129 21.1837 39.1051C21.0611 38.9173 20.996 38.6977 20.9966 38.4734C21.0027 38.2384 21.0713 38.0092 21.1954 37.8095C21.3196 37.6098 21.4947 37.4467 21.7028 37.3371C21.7375 37.3102 21.7755 37.2877 21.8157 37.27C21.844 37.2573 21.8736 37.2478 21.904 37.2418L21.9958 37.2135Z" fill="#263238"/>
<path d="M21.6992 31.8247C21.6992 31.8247 21.6992 31.7683 21.6992 31.6659C21.6992 31.5636 21.671 31.4012 21.6462 31.1966C21.6462 31.0942 21.6251 30.9778 21.6109 30.8437C21.5968 30.7096 21.5615 30.5825 21.5333 30.4343C21.505 30.2861 21.4697 30.1273 21.4344 29.9543C21.4187 29.8665 21.395 29.7803 21.3638 29.6967C21.3379 29.6097 21.3096 29.5179 21.279 29.4215C21.0082 28.5058 20.5986 27.6369 20.0644 26.8452C19.3681 25.7895 18.4736 24.8786 17.4304 24.1632L16.9714 23.8597C16.8196 23.7679 16.6571 23.6832 16.4947 23.595L16.2546 23.4644C16.1747 23.4162 16.0908 23.3749 16.0039 23.3409L15.4814 23.1186L15.213 23.0056L14.9341 22.9174L14.3727 22.741C14.182 22.688 13.9808 22.6563 13.783 22.6139L13.4864 22.5504L13.3417 22.5363H13.1899C12.772 22.4796 12.351 22.4502 11.9293 22.4481C11.7175 22.4481 11.5021 22.4481 11.2867 22.4481L10.6335 22.5116C10.5276 22.5116 10.4146 22.5116 10.3087 22.5469L9.98031 22.6139C9.7614 22.6598 9.54248 22.6951 9.32357 22.7516C8.88856 22.8684 8.46161 23.0134 8.0454 23.1856L7.7241 23.3197L7.56168 23.3868L7.40985 23.4715L6.78489 23.8067C6.58363 23.9303 6.38943 24.0714 6.18818 24.202C6.09284 24.2726 5.98692 24.3326 5.89511 24.4067L5.61265 24.6396C5.22577 24.9438 4.85897 25.2727 4.51455 25.6242L4.04142 26.1994L3.92137 26.3441C3.88253 26.3935 3.85075 26.4465 3.81544 26.4994L3.60359 26.81L3.38821 27.124L3.20461 27.4558L3.02453 27.8087L2.93273 27.9781C2.90448 28.0345 2.87977 28.0945 2.85505 28.151C2.75619 28.3874 2.65379 28.6239 2.5514 28.8568C2.449 29.0897 2.39604 29.3473 2.31836 29.5979C1.73561 31.6443 1.83601 33.8248 2.60436 35.809C2.70322 36.049 2.80562 36.2854 2.90448 36.5148L3.25757 37.1924L3.34937 37.3618L3.4553 37.5206L3.66715 37.8382L3.88253 38.1523L4.12263 38.4452L4.36272 38.7381L4.48277 38.8793L4.61342 39.0134L5.13951 39.5428C5.5124 39.8709 5.90763 40.1728 6.32235 40.4462L6.62247 40.6509C6.72133 40.7179 6.83079 40.7673 6.93672 40.8273C7.14857 40.9403 7.35336 41.0638 7.56521 41.1802L8.21488 41.459L8.3773 41.5261L8.54325 41.5826L8.87515 41.6849C9.31212 41.8234 9.75805 41.9319 10.2098 42.0096C10.4323 42.0449 10.6547 42.0625 10.8771 42.0872L11.2055 42.1225C11.3185 42.1225 11.428 42.1225 11.5374 42.1225H12.1906C12.406 42.1225 12.6214 42.0837 12.8332 42.0696C13.2504 42.0286 13.6644 41.9603 14.0726 41.8649L14.2209 41.8366L14.3692 41.7943L14.6622 41.7025C14.8529 41.6425 15.0506 41.5931 15.2342 41.5226L15.7815 41.2932L16.0498 41.1802L16.3041 41.0461L16.8054 40.7779C16.8871 40.7332 16.9661 40.6837 17.042 40.6297L17.2715 40.478C17.4233 40.3721 17.5787 40.2768 17.7235 40.1709L18.133 39.8357C19.1061 39.0243 19.9141 38.0334 20.5128 36.9171C20.5764 36.7936 20.647 36.6772 20.707 36.5642C20.7671 36.4513 20.813 36.3207 20.8624 36.2113L21.0142 35.8584C21.0389 35.7984 21.0637 35.7455 21.0848 35.6855L21.1413 35.5126C21.2119 35.2867 21.2826 35.0679 21.3461 34.8597C21.4097 34.6515 21.4415 34.4468 21.4838 34.2562L21.5438 33.9775C21.5657 33.8893 21.581 33.7997 21.5897 33.7092C21.5897 33.5363 21.6251 33.3563 21.6427 33.2258C21.6604 33.0952 21.678 32.9364 21.6851 32.8093C21.6921 32.6823 21.6851 32.5658 21.6851 32.4564C21.6851 32.2517 21.6851 32.1035 21.6851 31.9835C21.6851 31.8636 21.6851 31.8247 21.6851 31.8247C21.6851 31.8247 21.6851 31.8777 21.6851 31.9835C21.6851 32.0894 21.6851 32.2517 21.6851 32.4564V32.8093C21.6851 32.9364 21.6604 33.0775 21.6462 33.2293C21.6321 33.381 21.6145 33.5399 21.5968 33.7163C21.5908 33.8056 21.5766 33.8942 21.5544 33.981C21.5544 34.0727 21.5191 34.168 21.4979 34.2633C21.4556 34.4539 21.4238 34.6621 21.3638 34.8703C21.3037 35.0785 21.2331 35.3008 21.159 35.5302L21.106 35.7032C21.0848 35.7596 21.0601 35.8161 21.0354 35.8726L20.8871 36.2255C20.8341 36.3454 20.7847 36.469 20.7318 36.5784L20.534 36.9313C19.9383 38.0557 19.1301 39.054 18.1542 39.871L17.7411 40.2239C17.5964 40.3297 17.441 40.4286 17.2892 40.5344L17.0561 40.6897C16.9813 40.7453 16.9022 40.7948 16.8196 40.8379L16.3147 41.1097L16.0569 41.2473L15.7886 41.3602L15.2377 41.5896C15.0541 41.6637 14.8564 41.7131 14.6622 41.7766L14.4009 41.8578L14.2526 41.9037L14.1008 41.9319C13.6896 42.0304 13.2719 42.1 12.8509 42.1401C12.6355 42.1401 12.4237 42.186 12.2047 42.1966H11.5339C11.4244 42.1966 11.3114 42.1966 11.202 42.1966L10.8666 42.1613C10.6441 42.1366 10.4181 42.1225 10.1957 42.0872C9.74038 42.0083 9.29093 41.8986 8.85044 41.759L8.49735 41.6531C8.44439 41.6531 8.38437 41.6214 8.3314 41.6002L8.16898 41.5296L7.51225 41.2508C7.29686 41.1485 7.08854 41.025 6.87316 40.8979C6.77077 40.8379 6.65778 40.785 6.55891 40.7179L6.25526 40.5132C5.84446 40.2378 5.45281 39.9347 5.08302 39.6063L4.55339 39.0734L4.41922 38.9428L4.29917 38.7946L4.05554 38.5017L3.81191 38.2052L3.59653 37.8876L3.38115 37.57L3.27522 37.4077L3.17989 37.2383L2.8268 36.5537L2.52315 35.8478C1.74796 33.8456 1.64633 31.6454 2.23362 29.5803C2.31483 29.3297 2.39251 29.0791 2.47019 28.8321L2.77737 28.1263C2.80209 28.0663 2.8268 28.0063 2.85505 27.9463L2.94685 27.7769L3.13046 27.424L3.31759 27.0711L3.52944 26.757L3.74483 26.4429L3.85075 26.2841L3.97433 26.1394L4.45453 25.5607C4.79482 25.2055 5.1581 24.873 5.54203 24.5655L5.8245 24.3361C5.9163 24.2585 6.02222 24.1985 6.12109 24.1279C6.32235 23.9938 6.52007 23.8526 6.72486 23.7291L7.35336 23.3762L7.50871 23.295L7.67113 23.2244L7.99597 23.0903C8.42061 22.9111 8.85712 22.7613 9.30239 22.6422C9.5213 22.5857 9.74727 22.5504 9.96619 22.5045L10.2946 22.4375C10.404 22.4375 10.517 22.4163 10.6265 22.4022L11.2832 22.3387C11.4986 22.3387 11.714 22.3387 11.9293 22.3387C12.3523 22.3405 12.7746 22.3711 13.1934 22.4304L13.3417 22.4481L13.4935 22.4798L13.7972 22.5433C13.9949 22.5892 14.1961 22.621 14.3868 22.6739L14.9553 22.8539L15.2342 22.9421L15.5026 23.055L16.0287 23.2809C16.1156 23.3149 16.1994 23.3563 16.2793 23.4044L16.5265 23.5385C16.6854 23.6303 16.8478 23.7115 17.0032 23.8067C17.1585 23.902 17.2998 24.0079 17.4481 24.1067C18.4945 24.8306 19.3913 25.7497 20.0891 26.8135C20.6187 27.6126 21.0246 28.4871 21.2932 29.4073C21.3214 29.5038 21.3497 29.5956 21.3779 29.6826C21.4064 29.7679 21.4289 29.8552 21.445 29.9437C21.4768 30.1167 21.5085 30.2755 21.5368 30.4237C21.565 30.5719 21.5968 30.7096 21.6145 30.8366L21.6462 31.1895C21.6462 31.3942 21.678 31.5424 21.6851 31.6589C21.6921 31.7753 21.6992 31.8247 21.6992 31.8247Z" fill="#263238"/>
<path d="M15.4355 31.3871C15.4352 30.7407 15.2612 30.1062 14.9318 29.55C14.6023 28.9937 14.1295 28.5361 13.5627 28.2249C12.9958 27.9136 12.3558 27.7602 11.7094 27.7806C11.063 27.8011 10.4339 27.9946 9.88791 28.3409C9.34188 28.6873 8.89891 29.1739 8.60525 29.7498C8.3116 30.3257 8.17803 30.9699 8.21851 31.615C8.25898 32.2601 8.47201 32.8826 8.83534 33.4173C9.19867 33.952 9.69899 34.3795 10.284 34.655V35.5655H13.4618C13.4618 35.5655 13.4618 35.0537 13.4865 34.5985C14.0749 34.2935 14.568 33.8325 14.9118 33.2661C15.2556 32.6996 15.4368 32.0496 15.4355 31.3871Z" fill="#166DFC"/>
<path d="M12.3071 35.5514C12.3063 35.5361 12.3063 35.5208 12.3071 35.5055V35.3749C12.3071 35.262 12.3389 35.0926 12.3742 34.8738C12.4095 34.655 12.4484 34.3938 12.5155 34.0903C12.5914 33.745 12.7014 33.4081 12.8438 33.0846C12.9284 32.8971 13.0275 32.7165 13.1404 32.5446C13.2033 32.4513 13.2882 32.375 13.3876 32.3223C13.4413 32.2913 13.5022 32.275 13.5641 32.275C13.6261 32.275 13.687 32.2913 13.7407 32.3223C13.7964 32.3524 13.8382 32.403 13.8572 32.4634C13.88 32.5237 13.88 32.5902 13.8572 32.6505C13.7967 32.7618 13.6974 32.8472 13.5783 32.8905C13.4524 32.9319 13.3196 32.9477 13.1875 32.937C13.0555 32.9262 12.9269 32.8892 12.8095 32.828C12.692 32.7668 12.5879 32.6828 12.5035 32.5807C12.419 32.4787 12.3559 32.3609 12.3177 32.2341C12.2717 32.1 12.2644 31.9557 12.2966 31.8176C12.3137 31.7443 12.3558 31.6792 12.4158 31.6335C12.4757 31.5877 12.5496 31.5643 12.6249 31.5671C12.6637 31.5712 12.7009 31.585 12.7329 31.6072C12.765 31.6294 12.791 31.6593 12.8085 31.6941C12.8441 31.7625 12.8541 31.8413 12.8368 31.9164C12.7936 32.0581 12.7056 32.1819 12.5861 32.2693C12.4698 32.3658 12.3348 32.4372 12.1896 32.4791C12.0444 32.521 11.8921 32.5325 11.7422 32.5128C11.591 32.4893 11.4478 32.4295 11.3248 32.3386C11.2018 32.2476 11.1027 32.1282 11.036 31.9906C11.0024 31.9231 10.9828 31.8495 10.9786 31.7743C10.9743 31.6991 10.9855 31.6237 11.0113 31.5529C11.0255 31.517 11.047 31.4844 11.0743 31.4571C11.1016 31.4298 11.1343 31.4083 11.1702 31.3941C11.2067 31.3817 11.2454 31.3772 11.2837 31.3808C11.3221 31.3845 11.3592 31.3962 11.3927 31.4153C11.4589 31.4508 11.5121 31.5064 11.5445 31.5741C11.5771 31.639 11.5964 31.7098 11.601 31.7823C11.6108 31.9224 11.5915 32.063 11.5445 32.1952C11.4575 32.4535 11.2758 32.6691 11.036 32.7987C10.8067 32.9208 10.5412 32.9571 10.2875 32.901C10.1636 32.8817 10.0494 32.8222 9.96266 32.7316C9.91999 32.6836 9.89498 32.6225 9.89177 32.5583C9.88856 32.4941 9.90734 32.4308 9.94501 32.3787C9.98643 32.3315 10.0447 32.3023 10.1074 32.2976C10.166 32.2951 10.2242 32.3072 10.2769 32.3329C10.3762 32.3886 10.4543 32.4754 10.4994 32.5799C10.5912 32.7775 10.6618 32.9681 10.7359 33.1481C11.0254 33.8751 11.2302 34.475 11.3679 34.8914C11.435 35.0996 11.488 35.2443 11.5198 35.3714C11.5374 35.4243 11.5515 35.4667 11.5586 35.4984V35.5408C11.5593 35.5267 11.5593 35.5125 11.5586 35.4984L11.5162 35.3749L11.3538 34.8985C11.2126 34.4821 11.0007 33.8856 10.7112 33.1587C10.6371 32.9787 10.5629 32.8058 10.4711 32.5975C10.431 32.4991 10.3588 32.4171 10.2663 32.3646C10.2205 32.3384 10.1673 32.3279 10.115 32.335C10.0626 32.342 10.0141 32.3661 9.97679 32.4034C9.94495 32.4481 9.92966 32.5025 9.93352 32.5572C9.93739 32.612 9.96017 32.6636 9.99797 32.7034C10.0802 32.7867 10.1863 32.8422 10.3016 32.8622C10.5418 32.9108 10.7913 32.8746 11.0078 32.7599C11.2366 32.6327 11.4102 32.4252 11.4951 32.1776C11.539 32.0507 11.557 31.9163 11.548 31.7823C11.5476 31.7157 11.5302 31.6503 11.4975 31.5922C11.4647 31.5342 11.4177 31.4854 11.3609 31.4506C11.3316 31.4368 11.2997 31.4296 11.2673 31.4296C11.235 31.4296 11.203 31.4368 11.1737 31.4506C11.1439 31.4627 11.1168 31.4809 11.0944 31.504C11.0719 31.527 11.0544 31.5545 11.0431 31.5847C11.0183 31.6496 11.0076 31.7191 11.0119 31.7885C11.0161 31.8579 11.0352 31.9256 11.0678 31.987C11.1304 32.1168 11.2234 32.2295 11.339 32.3155C11.4546 32.4016 11.5893 32.4584 11.7316 32.4811C11.8752 32.4995 12.021 32.4884 12.16 32.4483C12.2991 32.4083 12.4285 32.3401 12.5402 32.2482C12.656 32.16 12.7392 32.0359 12.7768 31.8953C12.7917 31.8308 12.7829 31.7632 12.752 31.7047C12.739 31.6755 12.7183 31.6502 12.6923 31.6316C12.6662 31.613 12.6356 31.6017 12.6037 31.5988C12.5387 31.5942 12.4744 31.6144 12.4237 31.6553C12.3741 31.698 12.3385 31.7545 12.3213 31.8176C12.2912 31.9476 12.2985 32.0834 12.3425 32.2094C12.3786 32.3307 12.4388 32.4436 12.5193 32.5415C12.5998 32.6393 12.6991 32.72 12.8113 32.7788C12.9235 32.8377 13.0463 32.8735 13.1726 32.8842C13.2988 32.8949 13.426 32.8802 13.5465 32.841C13.6577 32.8031 13.7509 32.7251 13.8078 32.6223C13.8314 32.5731 13.8358 32.5169 13.8201 32.4647C13.8044 32.4125 13.7698 32.368 13.723 32.3399C13.6747 32.3162 13.6215 32.3039 13.5677 32.3039C13.5138 32.3039 13.4607 32.3162 13.4123 32.3399C13.3189 32.391 13.239 32.4636 13.1793 32.5517C13.065 32.7203 12.9658 32.8986 12.8827 33.0846C12.7404 33.4061 12.6292 33.7405 12.5508 34.0833C12.4802 34.3832 12.4343 34.6479 12.399 34.8632L12.3248 35.3608V35.4914C12.3107 35.5337 12.3071 35.5514 12.3071 35.5514Z" fill="#263238"/>
<path d="M13.2076 36.1516H10.4888C10.4345 36.1516 10.3824 36.13 10.344 36.0916C10.3056 36.0532 10.2841 36.0011 10.2841 35.9468C10.2841 35.8925 10.3056 35.8404 10.344 35.802C10.3824 35.7635 10.4345 35.742 10.4888 35.742H13.2076C13.2619 35.742 13.314 35.7635 13.3524 35.802C13.3908 35.8404 13.4124 35.8925 13.4124 35.9468C13.4124 36.0011 13.3908 36.0532 13.3524 36.0916C13.314 36.13 13.2619 36.1516 13.2076 36.1516Z" fill="#263238"/>
<path d="M13.2076 36.3277H10.4888C10.4345 36.3277 10.3824 36.3493 10.344 36.3877C10.3056 36.4261 10.2841 36.4782 10.2841 36.5325C10.2841 36.5868 10.3056 36.6389 10.344 36.6773C10.3824 36.7157 10.4345 36.7373 10.4888 36.7373H10.7854L11.1809 37.4894C11.2033 37.5318 11.2368 37.5674 11.2779 37.5923C11.3189 37.6171 11.3659 37.6304 11.4139 37.6306H12.3849C12.4332 37.6316 12.4807 37.6189 12.522 37.5939C12.5632 37.5688 12.5965 37.5326 12.618 37.4894L12.9887 36.7373H13.1935C13.2478 36.7373 13.2999 36.7157 13.3383 36.6773C13.3767 36.6389 13.3983 36.5868 13.3983 36.5325C13.3983 36.4782 13.3767 36.4261 13.3383 36.3877C13.2999 36.3493 13.2478 36.3277 13.1935 36.3277H13.2076Z" fill="#263238"/>
<g opacity="0.2">
<path opacity="0.2" d="M9.50374 29.0862C9.71071 28.888 9.94939 28.7258 10.2099 28.6063C10.3851 28.5237 10.5721 28.4689 10.7643 28.4439C10.902 28.4439 10.9796 28.4439 10.9867 28.4722C10.9938 28.5004 10.7289 28.6345 10.3582 28.8815C9.876 29.1858 9.49191 29.6227 9.25203 30.1397C9.01215 30.6568 8.92668 31.2321 9.00589 31.7965C9.05532 32.2377 9.15772 32.5023 9.09769 32.5412C9.03767 32.58 9.00942 32.5023 8.93174 32.3894C8.82677 32.2263 8.74813 32.0476 8.6987 31.8601C8.61718 31.5795 8.58259 31.2873 8.59631 30.9954C8.61034 30.6292 8.69674 30.2694 8.85053 29.9367" fill="white"/>
</g>
<g opacity="0.2">
<path opacity="0.2" d="M11.8728 28.6276C11.6433 28.6276 11.4421 28.5641 11.4174 28.4405C11.4174 28.3805 11.4491 28.3169 11.5339 28.2675C11.6382 28.21 11.7555 28.1798 11.8746 28.1798C11.9938 28.1798 12.111 28.21 12.2153 28.2675C12.2965 28.3169 12.3389 28.384 12.3283 28.444" fill="white"/>
</g>
<path d="M12.5684 37.5525C12.5684 37.5525 12.4978 37.5278 12.3813 37.496C12.2323 37.4525 12.0775 37.4323 11.9223 37.436C11.766 37.4422 11.6114 37.4707 11.4633 37.5207C11.4033 37.5464 11.342 37.5688 11.2797 37.5878C11.3326 37.5481 11.3908 37.516 11.4527 37.4925C11.6003 37.43 11.7585 37.3965 11.9187 37.3936C12.0795 37.387 12.2401 37.411 12.3919 37.4642C12.4557 37.4825 12.5155 37.5124 12.5684 37.5525Z" fill="#455A64"/>
<path d="M13.0098 36.7477C13.0098 36.7477 12.5191 36.7689 11.9118 36.7689C11.3044 36.7689 10.8137 36.7689 10.8137 36.7477C10.8137 36.7265 11.3044 36.723 11.9118 36.723C12.5191 36.723 13.0098 36.7336 13.0098 36.7477Z" fill="#455A64"/>
<path d="M12.8404 37.0688C12.7521 37.0869 12.6623 37.0964 12.5721 37.0971C12.4062 37.0971 12.1766 37.1147 11.9224 37.1183C11.6682 37.1218 11.4422 37.1183 11.2763 37.1183C11.1864 37.1195 11.0965 37.1124 11.0079 37.0971C11.0973 37.0907 11.1869 37.0907 11.2763 37.0971H11.9224H12.5721C12.6605 37.0795 12.7503 37.07 12.8404 37.0688Z" fill="#455A64"/>
</svg>
