<svg width="388" height="366" viewBox="0 0 388 366" fill="none" xmlns="http://www.w3.org/2000/svg">
<path d="M359.788 215.283C359.132 215.53 358.406 215.509 357.765 215.226C357.123 214.943 356.619 214.42 356.359 213.769L300.982 74.689L308.834 71.7453L361.352 211.837C361.601 212.502 361.577 213.238 361.283 213.884C360.99 214.53 360.452 215.033 359.788 215.283Z" fill="#E0E0E0"/>
<path d="M300.982 74.689C300.614 73.7273 295.529 51.9173 295.529 51.9173L297.971 50.9974L308.843 71.7453L300.982 74.689Z" fill="#EBEBEB"/>
<path d="M297.971 50.9975L294.751 32.934L288.613 34.9912L292.418 45.1436L287.543 35.3927L286.405 35.8108L295.529 51.9174L297.085 51.332" fill="#E0E0E0"/>
<path d="M315.399 237.762C312.681 241.5 310.641 239.551 303.315 243.85C299.326 246.183 297.411 251.602 298.339 256.126C299.267 260.651 303.29 264.673 307.906 264.614C310.891 264.614 313.593 262.942 316.411 261.972C319.229 261.002 322.75 260.709 324.815 262.85C327.726 265.869 325.71 271.213 324.238 274.558C323.603 275.955 323.297 277.48 323.344 279.015C323.678 285.864 330.678 285.906 334.499 282.954C337.393 280.713 339.074 277.284 341.19 274.307C343.305 271.33 346.45 268.537 350.113 268.687C354.06 268.846 356.953 272.241 359.872 274.901C362.79 277.56 367.398 279.676 370.476 277.225C372.784 275.386 372.926 271.915 372.307 269.022C371.688 266.128 370.518 263.243 370.944 260.324C371.488 256.645 374.289 254.069 377.634 252.137C378.441 251.674 379.098 250.989 379.528 250.164C379.958 249.339 380.143 248.408 380.061 247.482C379.98 246.555 379.634 245.671 379.067 244.934C378.499 244.197 377.732 243.638 376.856 243.323H376.764C373.812 242.328 370.618 242.136 367.733 240.948C364.848 239.761 362.163 237.118 362.422 234.015C362.723 230.327 366.972 227.651 365.366 223.52C364.894 222.389 364.102 221.42 363.088 220.732C362.073 220.044 360.88 219.668 359.654 219.648C354.068 219.473 350.355 223.503 346.274 226.556C342.929 229.065 338.564 230.971 334.8 229.274C330.561 227.35 329.239 221.797 325.434 219.121C323.684 217.898 321.537 217.381 319.422 217.674C317.307 217.967 315.381 219.049 314.031 220.702C312.68 222.356 312.004 224.459 312.138 226.589C312.272 228.72 313.207 230.722 314.755 232.192C315.181 232.503 315.537 232.898 315.803 233.353C316.068 233.808 316.237 234.313 316.297 234.836C316.358 235.359 316.309 235.889 316.154 236.393C316 236.897 315.743 237.363 315.399 237.762Z" fill="#F5F5F5"/>
<path d="M49.7074 136.297C46.3624 139.517 44.6898 137.25 36.7536 140.219C32.4217 141.833 29.6119 146.851 29.7457 151.467C29.8795 156.083 33.1576 160.733 37.7237 161.502C40.6674 161.979 43.5776 160.867 46.5463 160.357C49.5151 159.846 53.0107 160.198 54.6833 162.665C57.0332 166.135 54.1397 171.027 52.0992 174.122C51.2216 175.384 50.649 176.832 50.4266 178.353C49.5904 185.16 56.4729 186.406 60.7379 184.149C63.9742 182.476 66.2238 179.357 68.8413 176.789C71.4588 174.222 75.013 172.006 78.5922 172.775C82.4558 173.611 84.7221 177.45 87.1389 180.569C89.5557 183.689 93.7204 186.565 97.1742 184.675C99.7666 183.262 100.519 179.858 100.385 176.906C100.252 173.954 99.6077 170.91 100.536 168.1C101.698 164.571 104.885 162.514 108.497 161.185C109.371 160.865 110.135 160.303 110.7 159.564C111.264 158.825 111.607 157.94 111.686 157.013C111.765 156.086 111.577 155.156 111.146 154.332C110.714 153.508 110.057 152.825 109.25 152.362L109.166 152.32C106.423 150.831 103.312 150.087 100.67 148.431C98.0272 146.776 95.8445 143.706 96.6222 140.688C97.5589 137.108 102.192 135.202 101.322 130.853C101.052 129.658 100.439 128.568 99.5579 127.717C98.6769 126.865 97.5665 126.29 96.363 126.061C90.8854 124.924 86.5368 128.269 81.9791 130.577C78.2995 132.442 73.6164 133.604 70.2044 131.279C66.3576 128.662 66.0231 122.959 62.7198 119.672C61.2057 118.167 59.1786 117.289 57.0447 117.216C54.9109 117.142 52.8281 117.878 51.2138 119.275C49.5995 120.672 48.5731 122.628 48.3403 124.751C48.1074 126.873 48.6854 129.005 49.9583 130.719C50.3243 131.094 50.6095 131.539 50.7962 132.028C50.9828 132.517 51.067 133.04 51.0435 133.563C51.02 134.086 50.8892 134.598 50.6594 135.069C50.4296 135.539 50.1056 135.957 49.7074 136.297Z" fill="#F5F5F5"/>
<path d="M168.859 283.94L104.686 272.775L91.1077 350.814L155.281 361.98L168.859 283.94Z" fill="#F5F5F5"/>
<path d="M168.849 283.942L104.676 272.777L94.5728 330.845L158.746 342.01L168.849 283.942Z" fill="#EBEBEB"/>
<path d="M134.02 344.453C134.02 344.57 125.658 343.224 115.447 341.443C105.236 339.661 96.9233 338.097 96.9484 338.006C96.9734 337.914 105.311 339.235 115.522 341.016C125.733 342.797 134.037 344.336 134.02 344.453Z" fill="#E0E0E0"/>
<path d="M112.361 344.796C109.643 344.546 106.941 344.149 104.266 343.609C101.568 343.215 98.8937 342.677 96.2543 341.995C98.9691 342.246 101.669 342.642 104.341 343.182C107.041 343.577 109.718 344.116 112.361 344.796Z" fill="#E0E0E0"/>
<path d="M155.287 361.973L155.337 361.597L155.521 360.501C155.68 359.531 155.922 358.109 156.232 356.261C156.867 352.557 157.787 347.154 158.958 340.297C161.316 326.59 164.678 307.097 168.667 283.899L168.826 284.125L104.659 272.986L104.91 272.81C99.892 301.661 95.2006 328.506 91.3035 350.842L91.153 350.633L137.675 358.82L150.679 361.128L154.107 361.747L155.295 361.973C155.295 361.973 154.91 361.923 154.141 361.789L150.737 361.22L137.758 359.013L91.0945 350.993H90.9105V350.817C94.7908 328.472 99.4488 301.628 104.45 272.768L104.492 272.551H104.701L168.859 283.74H169.052V283.932C164.971 307.172 161.525 326.691 159.125 340.414C157.921 347.246 156.959 352.632 156.307 356.303C155.981 358.126 155.73 359.531 155.554 360.485C155.471 360.944 155.404 361.321 155.362 361.555L155.287 361.973Z" fill="#E0E0E0"/>
<path d="M33.1325 185.562C37.3955 185.562 40.8513 182.106 40.8513 177.843C40.8513 173.58 37.3955 170.124 33.1325 170.124C28.8696 170.124 25.4138 173.58 25.4138 177.843C25.4138 182.106 28.8696 185.562 33.1325 185.562Z" fill="#F5F5F5"/>
<path d="M361.528 304.73C365.791 304.73 369.246 301.274 369.246 297.012C369.246 292.749 365.791 289.293 361.528 289.293C357.265 289.293 353.809 292.749 353.809 297.012C353.809 301.274 357.265 304.73 361.528 304.73Z" fill="#F5F5F5"/>
<path d="M376.622 206.736C375.93 206.848 375.222 206.686 374.648 206.282C374.075 205.879 373.682 205.268 373.553 204.579L346.408 57.3949L354.687 56.0402L378.872 203.634C378.931 203.985 378.92 204.346 378.839 204.693C378.758 205.04 378.608 205.368 378.398 205.657C378.189 205.946 377.924 206.19 377.619 206.375C377.314 206.561 376.975 206.683 376.622 206.736Z" fill="#263238"/>
<path d="M346.408 57.328C346.241 56.3161 345.513 33.9125 345.513 33.9125L348.089 33.486L354.687 55.9482L346.408 57.328Z" fill="#E0E0E0"/>
<path d="M348.089 33.511L348.457 15.1633L342.034 15.9828L343.782 26.6871L340.905 16.1668L339.709 16.3591L345.513 33.9375L347.152 33.6699" fill="#166DFC"/>
<path d="M321.621 289.878H302.738V308.761H321.621V289.878Z" fill="#455A64"/>
<path d="M321.629 298.6L309.988 308.761H321.629V298.6Z" fill="#FAFAFA"/>
<path d="M321.629 308.761C321.619 308.639 321.619 308.516 321.629 308.393C321.629 308.126 321.629 307.791 321.629 307.365C321.629 306.436 321.629 305.14 321.579 303.509C321.579 300.164 321.52 295.49 321.479 289.878L321.671 290.062H302.788C302.738 290.104 303.198 289.652 302.997 289.845V294.921C302.997 296.593 302.997 298.216 302.997 299.805C302.997 302.974 302.997 305.96 302.997 308.711L302.805 308.527L316.436 308.619L320.299 308.669H321.328C321.45 308.657 321.574 308.657 321.696 308.669C321.588 308.681 321.478 308.681 321.37 308.669H320.375L316.561 308.719L302.805 308.82H302.621V308.761C302.621 306.01 302.621 303.024 302.621 299.855V294.971C302.621 294.135 302.621 293.298 302.621 292.462V289.912C302.428 290.104 302.888 289.644 302.847 289.694H321.73H321.913V289.886C321.913 295.548 321.847 300.273 321.821 303.635C321.821 305.249 321.78 306.528 321.771 307.448C321.771 307.858 321.771 308.184 321.771 308.443C321.733 308.553 321.685 308.659 321.629 308.761Z" fill="#263238"/>
<path d="M345.112 289.878H326.229V308.761H345.112V289.878Z" fill="#E0E0E0"/>
<path d="M345.112 298.6L333.479 308.761H345.112V298.6Z" fill="#FAFAFA"/>
<path d="M345.112 308.761C345.1 308.639 345.1 308.516 345.112 308.393C345.112 308.126 345.112 307.791 345.112 307.365C345.112 306.436 345.112 305.14 345.061 303.509C345.061 300.164 345.003 295.49 344.969 289.878L345.153 290.062H326.27L326.488 289.845V294.921C326.488 296.593 326.488 298.216 326.488 299.805C326.488 302.974 326.488 305.96 326.488 308.711L326.304 308.527L339.935 308.619L343.749 308.761H344.777C344.9 308.749 345.023 308.749 345.145 308.761C345.037 308.774 344.927 308.774 344.819 308.761H343.824L340.01 308.811L326.262 308.912H326.07V308.761C326.07 306.01 326.07 303.024 326.07 299.855C326.07 298.266 326.07 296.635 326.07 294.971V289.895C325.869 290.087 326.329 289.627 326.287 289.677H345.17H345.363V289.87C345.321 295.531 345.287 300.256 345.262 303.618C345.262 305.232 345.262 306.512 345.212 307.431C345.212 307.841 345.212 308.167 345.212 308.427C345.192 308.542 345.159 308.654 345.112 308.761Z" fill="#263238"/>
<path d="M296.516 289.878H277.633V308.761H296.516V289.878Z" fill="#166DFC"/>
<path d="M296.516 298.6L284.883 308.761H296.516V298.6Z" fill="#FAFAFA"/>
<path d="M296.516 308.761C296.516 308.761 296.516 308.627 296.516 308.393C296.516 308.159 296.516 307.791 296.516 307.365C296.516 306.436 296.516 305.14 296.466 303.509C296.466 300.164 296.416 295.49 296.374 289.878L296.558 290.062H277.675L277.892 289.845V294.921C277.892 296.593 277.892 298.216 277.892 299.805C277.892 302.974 277.892 305.96 277.892 308.711L277.7 308.527L291.331 308.619L295.186 308.669H296.215C296.337 308.656 296.461 308.656 296.583 308.669C296.474 308.682 296.365 308.682 296.257 308.669H295.27L291.448 308.719L277.7 308.82H277.516V308.761C277.516 306.01 277.516 303.024 277.516 299.855C277.516 298.266 277.516 296.635 277.516 294.971V289.895L277.733 289.677H296.616H296.809V289.87C296.767 295.531 296.733 300.256 296.708 303.618C296.708 305.232 296.708 306.512 296.666 307.432C296.666 307.841 296.666 308.167 296.666 308.427C296.631 308.544 296.58 308.657 296.516 308.761Z" fill="#263238"/>
<path d="M270.516 289.878H251.633V308.761H270.516V289.878Z" fill="#263238"/>
<path d="M270.516 298.6L258.875 308.761H270.516V298.6Z" fill="#FAFAFA"/>
<path d="M270.516 308.761C270.507 308.639 270.507 308.516 270.516 308.393C270.516 308.126 270.516 307.791 270.516 307.365C270.516 306.436 270.516 305.14 270.466 303.509C270.466 300.164 270.408 295.49 270.366 289.878L270.558 290.062H251.675L251.893 289.845V292.395C251.893 293.232 251.893 294.068 251.893 294.904V299.788C251.893 302.957 251.893 305.943 251.893 308.694L251.709 308.51L265.34 308.602L269.195 308.652H270.224C270.346 308.641 270.469 308.641 270.592 308.652C270.483 308.665 270.374 308.665 270.265 308.652H269.27L265.457 308.703L251.709 308.803H251.516V308.761C251.516 306.01 251.516 303.024 251.516 299.855V289.895C251.316 290.087 251.775 289.627 251.734 289.677H270.617H270.809V289.87C270.767 295.531 270.734 300.256 270.709 303.618C270.709 305.232 270.709 306.512 270.658 307.431C270.658 307.841 270.658 308.167 270.658 308.427C270.626 308.544 270.578 308.656 270.516 308.761Z" fill="#263238"/>
<path d="M227.507 162.339C223.861 165.19 222.439 162.757 214.21 164.847C209.728 165.993 206.399 170.701 206.048 175.292C205.697 179.883 208.457 184.868 212.914 186.08C215.791 186.866 218.835 186.08 221.812 185.88C224.789 185.679 228.251 186.406 229.656 189.041C231.621 192.737 228.226 197.286 225.868 200.155C224.874 201.324 224.162 202.706 223.785 204.194C222.222 210.884 228.945 212.841 233.428 211.051C236.831 209.688 239.39 206.87 242.267 204.587C245.144 202.304 248.907 200.489 252.386 201.635C256.132 202.881 257.989 206.937 260.063 210.29C262.137 213.644 265.967 216.98 269.613 215.442C272.348 214.313 273.435 211.009 273.636 208.057C273.836 205.105 273.502 202.011 274.723 199.318C276.253 195.973 279.64 194.226 283.37 193.289C284.27 193.062 285.087 192.582 285.725 191.907C286.363 191.232 286.795 190.389 286.971 189.477C287.146 188.565 287.058 187.621 286.717 186.758C286.375 185.894 285.794 185.145 285.042 184.6L284.967 184.542C282.4 182.769 279.381 181.707 276.93 179.775C274.48 177.843 272.632 174.565 273.736 171.646C275.041 168.184 279.857 166.779 279.448 162.364C279.306 161.148 278.813 160.001 278.029 159.062C277.245 158.123 276.203 157.434 275.032 157.078C269.705 155.406 264.997 158.224 260.247 160.03C256.383 161.494 251.617 162.155 248.464 159.478C244.918 156.468 245.177 150.765 242.259 147.143C240.916 145.476 238.991 144.38 236.872 144.075C234.753 143.771 232.597 144.28 230.839 145.502C229.081 146.724 227.851 148.566 227.397 150.658C226.943 152.751 227.299 154.937 228.393 156.777C228.722 157.192 228.961 157.671 229.095 158.183C229.229 158.695 229.256 159.23 229.172 159.753C229.089 160.276 228.898 160.775 228.611 161.221C228.325 161.666 227.948 162.046 227.507 162.339Z" fill="#EBEBEB"/>
<path d="M218.014 139.145C221.212 137.827 222.737 134.166 221.419 130.968C220.102 127.769 216.44 126.244 213.242 127.562C210.043 128.88 208.519 132.541 209.836 135.739C211.154 138.938 214.815 140.463 218.014 139.145Z" fill="#EBEBEB"/>
<path d="M274.022 106.422L268.024 105.658L265.069 128.853L271.067 129.617L274.022 106.422Z" fill="#EBEBEB"/>
<path d="M260.531 212.383L254.533 211.619L251.578 234.813L257.576 235.578L260.531 212.383Z" fill="#EBEBEB"/>
<path d="M273.334 104.585L254.725 246.298C253.39 256.463 260.548 265.785 270.713 267.119L319.758 273.56C329.922 274.894 339.244 267.736 340.579 257.572L359.188 115.859C360.523 105.695 353.365 96.3726 343.2 95.0379L294.155 88.5976C283.991 87.2629 274.669 94.4208 273.334 104.585Z" fill="#F5F5F5"/>
<path d="M319.371 272.241C319.371 272.241 319.806 272.241 320.659 272.316C321.191 272.356 321.725 272.356 322.256 272.316C322.574 272.316 322.917 272.316 323.277 272.266L324.447 272.116C326.491 271.807 328.47 271.16 330.301 270.201C332.786 268.884 334.946 267.03 336.624 264.773C338.697 261.915 339.944 258.542 340.228 255.022C340.707 251.187 341.229 247.028 341.792 242.545C342.929 233.589 344.217 223.395 345.639 212.13C348.49 189.551 351.894 162.79 355.674 132.96C356.153 129.231 356.633 125.459 357.112 121.646C357.357 119.739 357.6 117.821 357.84 115.892C358.16 113.978 358.255 112.033 358.124 110.097C357.947 108.148 357.452 106.241 356.661 104.452C355.885 102.634 354.807 100.96 353.474 99.5011C352.136 98.0211 350.569 96.7647 348.833 95.7797C347.081 94.786 345.172 94.0987 343.188 93.7476C342.201 93.5469 341.181 93.4382 340.161 93.3044L337.1 92.9197L330.945 92.1336L318.485 90.5447L293.02 87.3083C288.784 86.7722 284.493 87.7264 280.883 90.0075C277.273 92.2885 274.569 95.7542 273.234 99.8106C272.656 101.817 272.278 103.876 272.105 105.957C271.838 108.039 271.578 110.139 271.311 112.171C270.792 116.296 270.271 120.386 269.747 124.439C267.681 140.654 265.683 156.292 263.784 171.195C261.886 186.097 260.071 200.247 258.374 213.493C257.515 220.139 256.704 226.528 255.94 232.661C255.539 235.738 255.151 238.751 254.778 241.701C254.61 243.172 254.36 244.636 254.259 246.066C254.259 246.426 254.201 246.785 254.184 247.145V248.215C254.198 248.924 254.262 249.631 254.376 250.331C254.79 252.985 255.776 255.518 257.266 257.754C258.757 259.989 260.715 261.874 263.007 263.276C265.116 264.577 267.47 265.431 269.923 265.785C272.306 266.128 274.622 266.404 276.864 266.697L299.819 269.657L314.32 271.547L318.092 272.049L319.38 272.233L318.092 272.091L314.312 271.631L299.794 269.824L276.847 266.948C274.606 266.655 272.289 266.387 269.897 266.053C267.413 265.702 265.025 264.848 262.881 263.544C260.549 262.122 258.554 260.209 257.035 257.939C255.516 255.669 254.509 253.096 254.084 250.398C253.97 249.686 253.903 248.969 253.883 248.249V247.161C253.883 246.793 253.933 246.434 253.958 246.066C254.05 244.602 254.301 243.164 254.468 241.684C254.836 238.729 255.218 235.716 255.614 232.644C256.394 226.511 257.203 220.119 258.039 213.468L263.408 171.153C265.306 156.259 267.288 140.612 269.354 124.397C269.864 120.341 270.391 116.252 270.909 112.129C271.177 110.072 271.436 107.998 271.746 105.924C271.888 104.887 271.988 103.841 272.164 102.796L272.448 101.232L272.883 99.6935C274.246 95.5367 277.014 91.9846 280.712 89.648C284.41 87.3114 288.807 86.3362 293.146 86.8902L318.602 90.1349L331.071 91.7238L337.226 92.5099L340.286 92.903C341.298 93.0368 342.319 93.1371 343.33 93.3462C345.36 93.7074 347.313 94.4086 349.109 95.4201C350.883 96.4338 352.486 97.7207 353.859 99.2335C355.217 100.731 356.316 102.443 357.112 104.301C357.92 106.134 358.425 108.086 358.609 110.08C358.737 112.036 358.639 114 358.316 115.934C358.074 117.866 357.823 119.781 357.58 121.687C357.095 125.509 356.61 129.272 356.142 133.002L346.006 212.155C344.56 223.42 343.255 233.614 342.101 242.57L340.403 255.064C340.107 258.614 338.84 262.013 336.741 264.89C335.035 267.157 332.847 269.017 330.335 270.335C328.502 271.284 326.524 271.92 324.481 272.216L323.31 272.358C322.942 272.358 322.599 272.358 322.281 272.358C321.75 272.394 321.216 272.394 320.684 272.358L319.371 272.241Z" fill="#263238"/>
<path d="M304.042 110.632C303.795 112.568 302.98 114.387 301.699 115.859C300.419 117.331 298.73 118.391 296.847 118.904C294.965 119.417 292.972 119.36 291.122 118.74C289.271 118.121 287.646 116.967 286.451 115.424C285.256 113.881 284.546 112.018 284.41 110.072C284.274 108.125 284.718 106.182 285.686 104.487C286.654 102.793 288.102 101.424 289.848 100.553C291.595 99.6814 293.56 99.3475 295.496 99.5931C296.782 99.7552 298.024 100.17 299.151 100.812C300.277 101.455 301.265 102.314 302.059 103.339C302.853 104.365 303.437 105.537 303.777 106.788C304.118 108.039 304.208 109.346 304.042 110.632Z" fill="#166DFC"/>
<path d="M299.661 145.016C300.65 139.652 297.103 134.502 291.739 133.513C286.375 132.523 281.225 136.07 280.236 141.434C279.246 146.798 282.793 151.948 288.157 152.938C293.521 153.927 298.671 150.38 299.661 145.016Z" fill="#455A64"/>
<path d="M295.315 179.104C296.436 173.765 293.017 168.529 287.679 167.408C282.341 166.287 277.105 169.706 275.984 175.044C274.863 180.382 278.281 185.618 283.619 186.739C288.957 187.86 294.194 184.442 295.315 179.104Z" fill="#263238"/>
<path d="M291.114 212.138C290.867 214.074 290.051 215.893 288.771 217.365C287.49 218.838 285.801 219.897 283.919 220.41C282.036 220.923 280.043 220.866 278.193 220.247C276.342 219.628 274.717 218.473 273.522 216.93C272.328 215.387 271.617 213.525 271.481 211.578C271.345 209.632 271.789 207.688 272.757 205.994C273.725 204.3 275.174 202.93 276.92 202.059C278.666 201.188 280.631 200.854 282.567 201.1C283.853 201.263 285.095 201.678 286.22 202.321C287.346 202.964 288.334 203.823 289.128 204.848C289.921 205.873 290.505 207.045 290.846 208.296C291.187 209.547 291.278 210.852 291.114 212.138Z" fill="#E0E0E0"/>
<path d="M286.807 245.974C286.56 247.91 285.744 249.729 284.464 251.201C283.183 252.673 281.495 253.733 279.612 254.246C277.729 254.759 275.736 254.702 273.886 254.082C272.036 253.463 270.41 252.309 269.216 250.766C268.021 249.223 267.311 247.36 267.174 245.414C267.038 243.467 267.482 241.524 268.45 239.829C269.418 238.135 270.867 236.766 272.613 235.895C274.359 235.023 276.324 234.69 278.26 234.935C279.546 235.098 280.788 235.513 281.914 236.157C283.039 236.8 284.027 237.658 284.821 238.684C285.615 239.709 286.199 240.88 286.539 242.131C286.88 243.382 286.971 244.688 286.807 245.974Z" fill="#166DFC"/>
<path d="M345.003 115.85C344.756 117.786 343.94 119.605 342.66 121.077C341.379 122.55 339.691 123.609 337.808 124.122C335.925 124.635 333.933 124.578 332.082 123.959C330.232 123.339 328.606 122.185 327.412 120.642C326.217 119.099 325.507 117.237 325.37 115.29C325.234 113.343 325.678 111.4 326.646 109.706C327.614 108.011 329.063 106.642 330.809 105.771C332.555 104.9 334.52 104.566 336.456 104.811C337.742 104.975 338.984 105.39 340.11 106.033C341.235 106.676 342.223 107.535 343.017 108.56C343.811 109.585 344.395 110.757 344.735 112.007C345.076 113.258 345.167 114.564 345.003 115.85Z" fill="#166DFC"/>
<path d="M335.778 157.03C340.521 154.336 342.182 148.307 339.487 143.564C336.793 138.821 330.764 137.161 326.022 139.855C321.279 142.549 319.618 148.578 322.312 153.321C325.007 158.063 331.036 159.724 335.778 157.03Z" fill="#166DFC"/>
<path d="M335.917 185.453C337.683 180.292 334.931 174.677 329.77 172.911C324.609 171.145 318.994 173.897 317.228 179.058C315.462 184.218 318.214 189.834 323.375 191.6C328.536 193.366 334.151 190.613 335.917 185.453Z" fill="#166DFC"/>
<path d="M332.041 217.357C331.793 219.294 330.977 221.115 329.695 222.589C328.413 224.063 326.723 225.123 324.838 225.636C322.953 226.149 320.959 226.092 319.106 225.471C317.254 224.851 315.628 223.695 314.432 222.15C313.237 220.605 312.527 218.74 312.391 216.792C312.256 214.843 312.701 212.898 313.671 211.202C314.641 209.507 316.092 208.137 317.84 207.266C319.589 206.395 321.556 206.062 323.494 206.31C324.781 206.473 326.023 206.888 327.15 207.532C328.276 208.176 329.264 209.035 330.058 210.061C330.852 211.087 331.436 212.26 331.776 213.512C332.116 214.763 332.206 216.07 332.041 217.357Z" fill="#166DFC"/>
<path d="M327.124 250.536C328.488 245.245 325.304 239.851 320.013 238.487C314.722 237.123 309.327 240.307 307.964 245.598C306.6 250.889 309.784 256.284 315.075 257.647C320.366 259.011 325.76 255.827 327.124 250.536Z" fill="#166DFC"/>
<path d="M295.797 257.071C295.446 257.027 295.108 256.914 294.801 256.738C294.494 256.563 294.225 256.328 294.009 256.049C293.793 255.769 293.634 255.449 293.542 255.108C293.45 254.767 293.426 254.411 293.472 254.061L312.522 104.477C312.567 104.126 312.68 103.787 312.855 103.48C313.03 103.173 313.265 102.903 313.544 102.687C313.824 102.47 314.143 102.311 314.484 102.217C314.826 102.124 315.182 102.099 315.533 102.144C316.24 102.236 316.883 102.604 317.32 103.168C317.757 103.732 317.954 104.446 317.866 105.154L298.807 254.738C298.764 255.089 298.652 255.429 298.477 255.736C298.302 256.044 298.067 256.314 297.788 256.531C297.508 256.748 297.188 256.907 296.846 257C296.504 257.093 296.148 257.117 295.797 257.071Z" fill="#E0E0E0"/>
<path d="M295.797 257.071C296.076 257.09 296.357 257.076 296.633 257.029C297.024 256.953 297.392 256.79 297.712 256.553C298.032 256.315 298.295 256.01 298.481 255.658C298.72 255.132 298.854 254.563 298.874 253.985C298.95 253.341 299.041 252.631 299.133 251.861C299.329 250.311 299.549 248.538 299.794 246.543C300.798 238.539 302.244 226.965 304.034 212.682C305.824 198.398 307.998 181.355 310.381 162.506C311.586 153.056 312.84 143.129 314.145 132.852C314.808 127.706 315.474 122.476 316.143 117.163C316.478 114.509 316.818 111.836 317.163 109.143C317.331 107.797 317.498 106.451 317.674 105.104C317.649 104.514 317.416 103.952 317.018 103.516C316.619 103.081 316.079 102.8 315.494 102.723C314.908 102.646 314.315 102.778 313.817 103.096C313.319 103.414 312.95 103.897 312.773 104.46C312.597 105.815 312.43 107.161 312.255 108.508C311.914 111.201 311.574 113.874 311.234 116.528C310.549 121.841 309.88 127.07 309.227 132.216C307.914 142.502 306.643 152.42 305.439 161.87C303.014 180.77 300.831 197.788 299 212.046C297.168 226.305 295.655 237.896 294.618 245.89C294.356 247.892 294.124 249.662 293.924 251.201C293.815 251.97 293.723 252.681 293.639 253.333C293.507 253.907 293.49 254.501 293.589 255.081C293.684 255.467 293.863 255.828 294.113 256.137C294.363 256.446 294.678 256.697 295.036 256.871C295.286 256.978 295.547 257.059 295.813 257.113C295.523 257.101 295.239 257.03 294.977 256.904C294.604 256.738 294.274 256.489 294.012 256.176C293.749 255.863 293.562 255.494 293.464 255.098C293.343 254.51 293.343 253.904 293.464 253.316C293.547 252.664 293.631 251.953 293.723 251.184C293.918 249.645 294.138 247.875 294.383 245.874C295.387 237.87 296.834 226.305 298.623 212.013C300.413 197.721 302.587 180.686 304.971 161.787C306.175 152.337 307.429 142.419 308.742 132.132C309.395 126.987 310.058 121.757 310.733 116.444C311.075 113.785 311.41 111.109 311.753 108.416L312.28 104.36C312.403 103.619 312.811 102.956 313.417 102.512C314.023 102.073 314.773 101.879 315.516 101.968C316.254 102.074 316.925 102.457 317.391 103.04C317.857 103.622 318.083 104.361 318.025 105.104C317.849 106.459 317.682 107.814 317.506 109.168C317.163 111.861 316.829 114.529 316.486 117.188C315.806 122.496 315.14 127.722 314.487 132.868C313.174 143.154 311.903 153.073 310.699 162.522C308.274 181.414 306.091 198.432 304.26 212.699L299.878 246.551C299.61 248.541 299.384 250.314 299.175 251.861C299.075 252.622 298.983 253.333 298.899 253.985C298.876 254.585 298.734 255.173 298.481 255.716C298.284 256.075 298.009 256.385 297.676 256.622C297.343 256.86 296.961 257.019 296.558 257.088C296.305 257.124 296.048 257.119 295.797 257.071Z" fill="#263238"/>
<path d="M253.674 248.809C253.548 248.809 257.537 216.755 262.563 177.249C267.589 137.744 271.762 105.723 271.896 105.74C272.03 105.756 268.033 137.786 262.998 177.308C257.964 216.83 253.791 248.826 253.674 248.809Z" fill="#263238"/>
<g opacity="0.4">
<path opacity="0.4" d="M286.807 245.974C286.56 247.91 285.744 249.729 284.464 251.201C283.183 252.673 281.495 253.733 279.612 254.246C277.729 254.759 275.736 254.702 273.886 254.082C272.036 253.463 270.41 252.309 269.216 250.766C268.021 249.223 267.311 247.36 267.174 245.414C267.038 243.467 267.482 241.524 268.45 239.829C269.418 238.135 270.867 236.766 272.613 235.895C274.359 235.023 276.324 234.69 278.26 234.935C279.546 235.098 280.788 235.513 281.914 236.157C283.039 236.8 284.027 237.658 284.821 238.684C285.615 239.709 286.199 240.88 286.539 242.131C286.88 243.382 286.971 244.688 286.807 245.974Z" fill="white"/>
</g>
<g opacity="0.8">
<path opacity="0.8" d="M345.003 115.85C344.756 117.786 343.94 119.605 342.66 121.077C341.379 122.55 339.691 123.609 337.808 124.122C335.925 124.635 333.933 124.578 332.082 123.959C330.232 123.339 328.606 122.185 327.412 120.642C326.217 119.099 325.507 117.237 325.37 115.29C325.234 113.343 325.678 111.4 326.646 109.706C327.614 108.011 329.063 106.642 330.809 105.771C332.555 104.9 334.52 104.566 336.456 104.811C337.742 104.975 338.984 105.39 340.11 106.033C341.235 106.676 342.223 107.535 343.017 108.56C343.811 109.585 344.395 110.757 344.735 112.007C345.076 113.258 345.167 114.564 345.003 115.85Z" fill="black"/>
</g>
<g opacity="0.5">
<path opacity="0.5" d="M335.778 157.03C340.521 154.336 342.182 148.307 339.487 143.564C336.793 138.821 330.764 137.161 326.022 139.855C321.279 142.549 319.618 148.578 322.312 153.321C325.007 158.063 331.036 159.724 335.778 157.03Z" fill="black"/>
</g>
<g opacity="0.4">
<path opacity="0.4" d="M335.917 185.453C337.683 180.292 334.931 174.677 329.77 172.911C324.609 171.145 318.994 173.897 317.228 179.058C315.462 184.219 318.214 189.834 323.375 191.6C328.536 193.366 334.151 190.614 335.917 185.453Z" fill="black"/>
</g>
<g opacity="0.3">
<path opacity="0.3" d="M332.041 217.357C331.793 219.294 330.977 221.115 329.695 222.589C328.413 224.063 326.723 225.123 324.838 225.636C322.953 226.149 320.959 226.092 319.106 225.471C317.254 224.851 315.628 223.695 314.432 222.15C313.237 220.605 312.527 218.74 312.391 216.792C312.256 214.843 312.701 212.898 313.671 211.202C314.641 209.507 316.092 208.137 317.84 207.266C319.589 206.395 321.556 206.062 323.494 206.31C324.781 206.473 326.023 206.888 327.15 207.532C328.276 208.176 329.264 209.035 330.058 210.061C330.852 211.087 331.436 212.26 331.776 213.512C332.116 214.763 332.206 216.07 332.041 217.357Z" fill="black"/>
</g>
<g opacity="0.2">
<path opacity="0.2" d="M327.124 250.536C328.488 245.245 325.304 239.851 320.013 238.487C314.722 237.123 309.327 240.307 307.964 245.598C306.6 250.889 309.784 256.284 315.075 257.647C320.366 259.011 325.76 255.827 327.124 250.536Z" fill="black"/>
</g>
<path d="M229.179 263.879C229.179 263.879 229.614 263.879 230.467 263.954C230.999 263.997 231.533 263.997 232.065 263.954C232.382 263.954 232.725 263.954 233.085 263.912L234.256 263.761C236.3 263.452 238.278 262.805 240.11 261.846C242.596 260.528 244.758 258.675 246.44 256.419C248.507 253.558 249.751 250.186 250.036 246.668C250.516 242.832 251.037 238.673 251.6 234.191C252.737 225.234 254.025 215.04 255.447 203.767C258.307 181.23 261.702 154.427 265.482 124.598C265.956 120.879 266.435 117.11 266.92 113.291C267.16 111.385 267.403 109.467 267.648 107.538C267.968 105.624 268.063 103.679 267.932 101.742C267.755 99.7937 267.26 97.887 266.469 96.0976C265.692 94.2779 264.615 92.6017 263.283 91.1385C261.939 89.6631 260.373 88.4074 258.641 87.4171C256.887 86.4295 254.979 85.7453 252.996 85.3933C252.01 85.1926 250.989 85.0839 249.969 84.9501L246.908 84.5654L240.753 83.7793L228.293 82.1904L202.829 78.954C198.593 78.4174 194.303 79.3704 190.693 81.6499C187.083 83.9293 184.379 87.3931 183.042 91.4479C182.465 93.4574 182.086 95.5191 181.913 97.6028C181.646 99.6852 181.387 101.784 181.077 103.816C180.559 107.942 180.037 112.029 179.513 116.076C177.448 132.291 175.449 147.938 173.551 162.832C171.652 177.726 169.804 191.901 168.132 205.147C167.279 211.782 166.456 218.165 165.665 224.298C165.263 227.367 164.879 230.386 164.502 233.33C164.335 234.801 164.084 236.265 163.992 237.703C163.992 238.063 163.925 238.422 163.917 238.782V239.852C163.93 240.559 163.995 241.263 164.109 241.96C164.523 244.616 165.509 247.15 166.999 249.386C168.489 251.623 170.448 253.509 172.74 254.914C174.851 256.21 177.204 257.064 179.656 257.423C182.039 257.765 184.355 258.033 186.597 258.334L209.552 261.294L224.053 263.184L227.825 263.686L229.113 263.87L227.825 263.728L224.045 263.268L209.527 261.462L186.588 258.585C184.347 258.292 182.031 258.025 179.639 257.69C177.154 257.339 174.767 256.485 172.622 255.181C170.29 253.762 168.295 251.851 166.775 249.582C165.256 247.313 164.249 244.741 163.825 242.044C163.716 241.332 163.649 240.614 163.624 239.894V238.807C163.624 238.439 163.674 238.08 163.699 237.712C163.791 236.248 164.042 234.801 164.21 233.321C164.586 230.378 164.962 227.359 165.355 224.289C166.136 218.157 166.944 211.765 167.78 205.114L173.149 162.799C175.048 147.896 177.03 132.258 179.095 116.043C179.614 111.984 180.132 107.895 180.651 103.775C180.918 101.717 181.178 99.6434 181.445 97.5694C181.587 96.5241 181.688 95.4871 181.863 94.4417L182.148 92.8696L182.591 91.3308C183.953 87.1763 186.721 83.6263 190.417 81.2912C194.114 78.9561 198.508 77.9818 202.845 78.5359L228.301 81.7806L240.77 83.3695L246.925 84.1556L249.986 84.5403C250.998 84.6741 252.018 84.7828 253.03 84.9835C255.058 85.3515 257.011 86.0553 258.809 87.0658C260.582 88.0795 262.185 89.3664 263.559 90.8792C264.917 92.3763 266.016 94.089 266.812 95.947C267.618 97.7772 268.124 99.7257 268.309 101.717C268.436 103.673 268.337 105.638 268.016 107.571C267.773 109.503 267.522 111.418 267.28 113.325C266.795 117.138 266.315 120.91 265.842 124.639L255.706 203.793C254.268 215.099 252.93 225.276 251.759 234.224C251.201 238.684 250.666 242.844 250.153 246.702C249.855 250.251 248.588 253.65 246.49 256.528C244.785 258.795 242.597 260.654 240.084 261.972C238.252 262.922 236.273 263.558 234.231 263.853L233.06 263.996C232.692 263.996 232.349 263.996 232.031 263.996C231.5 264.04 230.965 264.04 230.434 263.996C229.573 263.929 229.179 263.879 229.179 263.879Z" fill="#263238"/>
<path d="M197.66 176.304C197.568 176.221 209.142 163.559 223.493 148.022C237.843 132.484 249.559 119.956 249.651 120.04C249.743 120.124 238.169 132.776 223.811 148.323C209.452 163.869 197.744 176.388 197.66 176.304Z" fill="#263238"/>
<path d="M180.835 202.362C180.751 202.279 192.317 189.618 206.675 174.08C221.034 158.542 232.742 146.015 232.826 146.098C232.909 146.182 221.352 158.835 206.993 174.381C192.634 189.927 180.927 202.446 180.835 202.362Z" fill="#263238"/>
<path d="M174.546 191.533C174.429 191.533 176.846 171.755 179.948 147.403C183.051 123.051 185.66 103.298 185.802 103.315C185.944 103.331 183.502 123.084 180.4 147.453C177.297 171.822 174.663 191.549 174.546 191.533Z" fill="white"/>
<path d="M190.979 87.0825C191.02 87.1411 190.527 87.4588 189.85 88.0944C188.97 88.9218 188.253 89.9059 187.734 90.9963C187.22 92.0905 186.911 93.2696 186.822 94.4751C186.755 95.4034 186.822 95.9888 186.755 95.9972C186.559 95.5123 186.476 94.9888 186.513 94.4668C186.517 93.2034 186.799 91.9564 187.34 90.8146C187.88 89.6727 188.666 88.664 189.641 87.8603C190.025 87.5074 190.482 87.2421 190.979 87.0825Z" fill="white"/>
<path d="M87.3512 181.423L26.359 204.288L54.1642 278.459L115.156 255.594L87.3512 181.423Z" fill="#F5F5F5"/>
<path d="M87.3519 181.417L26.3597 204.282L47.0492 259.472L108.041 236.607L87.3519 181.417Z" fill="#E0E0E0"/>
<path d="M87.9334 251.251C87.9752 251.368 80.1226 254.412 70.3717 258.058C60.6208 261.704 52.7264 264.573 52.7264 264.439C52.7264 264.305 60.5371 261.278 70.2881 257.632C80.039 253.986 87.8916 251.142 87.9334 251.251Z" fill="#263238"/>
<path d="M69.4518 262.516C66.9792 263.671 64.4473 264.696 61.8668 265.585C59.3418 266.615 56.7622 267.505 54.1396 268.252C56.609 267.096 59.1381 266.071 61.7163 265.183C64.2443 264.154 66.8266 263.263 69.4518 262.516Z" fill="#263238"/>
<path d="M115.146 255.591L115.003 255.24L114.602 254.203L113.072 250.189C111.742 246.676 109.802 241.542 107.335 235.036C102.434 222.023 95.4598 203.525 87.164 181.514L87.4065 181.631L26.434 204.487L26.5594 204.202C36.8288 231.632 46.3791 257.147 54.3236 278.388L54.0895 278.279L98.3533 261.788L110.738 257.197L114.008 255.993L115.146 255.583L114.058 256.018L110.839 257.247L98.5289 261.93L54.2065 278.655L54.0309 278.714L53.9724 278.547L26.1497 204.361L26.0744 204.16L26.2751 204.085L87.2643 181.247L87.4483 181.171L87.5152 181.355C95.7608 203.458 102.685 222.032 107.586 235.086L113.189 250.222C113.824 251.962 114.318 253.3 114.661 254.211C114.819 254.654 114.945 254.997 115.028 255.24C115.112 255.482 115.146 255.591 115.146 255.591Z" fill="#263238"/>
<path d="M232.022 260.077L167.987 251.919L158.067 329.791L222.101 337.948L232.022 260.077Z" fill="#F5F5F5"/>
<path d="M232.027 260.07L167.993 251.912L160.611 309.857L224.645 318.015L232.027 260.07Z" fill="#455A64"/>
<path d="M200.261 321.548C200.261 321.665 191.949 320.712 181.738 319.407C171.527 318.102 163.256 316.957 163.273 316.84C163.29 316.723 171.577 317.676 181.796 318.972C192.016 320.268 200.278 321.431 200.261 321.548Z" fill="#263238"/>
<path d="M178.836 322.861C176.136 322.729 173.444 322.449 170.774 322.024C168.084 321.752 165.41 321.339 162.763 320.787C165.464 320.913 168.155 321.193 170.824 321.623C173.515 321.896 176.189 322.309 178.836 322.861Z" fill="#263238"/>
<path d="M222.105 337.93C222.105 337.93 222.105 337.805 222.105 337.554C222.105 337.303 222.172 336.935 222.23 336.467C222.347 335.497 222.523 334.075 222.749 332.235C223.208 328.539 223.878 323.145 224.722 316.304C226.445 302.631 228.903 283.188 231.789 260.04L231.956 260.257L167.931 252.129L168.182 251.945C164.494 280.738 161.074 307.515 158.222 329.81L158.071 329.601L204.493 335.614L217.472 337.286L220.892 337.746C221.67 337.847 222.071 337.914 222.071 337.914C222.071 337.914 221.686 337.914 220.925 337.788L217.53 337.378L204.585 335.773L158.021 329.919H157.837V329.735C160.664 307.448 164.067 280.654 167.722 251.861V251.644H167.939L231.956 259.823H232.148V260.015C229.154 283.196 226.646 302.665 224.873 316.38C223.986 323.195 223.284 328.572 222.799 332.269C222.556 334.092 222.372 335.497 222.247 336.45C222.18 336.918 222.13 337.286 222.096 337.521C222.063 337.755 222.105 337.93 222.105 337.93Z" fill="#263238"/>
<path d="M138.746 222.881L74.7164 231.072L84.6775 308.938L148.707 300.747L138.746 222.881Z" fill="#F5F5F5"/>
<path d="M138.741 222.876L74.7112 231.067L82.1234 289.008L146.153 280.817L138.741 222.876Z" fill="#263238"/>
<path d="M123.458 290.363C123.458 290.489 115.204 291.643 104.993 292.947C94.7824 294.252 86.4866 295.222 86.4699 295.097C86.4531 294.971 94.7239 293.825 104.935 292.521C115.146 291.216 123.441 290.238 123.458 290.363Z" fill="#263238"/>
<path d="M103.053 297.053C100.408 297.616 97.733 298.032 95.0417 298.3C92.3719 298.727 89.6806 299.006 86.98 299.136C89.6262 298.579 92.3006 298.166 94.9915 297.898C97.662 297.475 100.353 297.193 103.053 297.053Z" fill="#263238"/>
<path d="M148.722 300.725C148.722 300.725 148.722 300.599 148.663 300.357C148.605 300.114 148.58 299.738 148.513 299.261C148.379 298.299 148.195 296.886 147.944 295.08C147.459 291.383 146.757 285.99 145.862 279.191C144.089 265.526 141.563 246.091 138.561 222.96L138.779 223.127L74.762 231.339L74.9544 231.097C78.6256 259.89 82.046 286.675 84.8809 308.962L84.6802 308.811L131.127 302.957L144.114 301.343L147.543 300.925L148.73 300.792C148.73 300.792 148.345 300.858 147.584 300.959L144.239 301.419L131.302 303.091L84.7722 309.146H84.5882V308.962C81.7282 286.675 78.2911 259.89 74.553 231.105V230.888H74.7704L138.787 222.717H138.979V222.91C141.906 246.099 144.373 265.559 146.096 279.291C146.932 286.115 147.618 291.492 148.078 295.18C148.304 297.003 148.479 298.408 148.596 299.362C148.647 299.821 148.688 300.198 148.722 300.432C148.755 300.666 148.722 300.725 148.722 300.725Z" fill="#263238"/>
<path d="M198.221 213.389L135.391 198.583L117.385 274.991L180.216 289.797L198.221 213.389Z" fill="#F5F5F5"/>
<path d="M198.216 213.391L135.385 198.585L121.987 255.441L184.817 270.247L198.216 213.391Z" fill="#166DFC"/>
<path d="M160.221 271.204C160.221 271.321 152.042 269.532 142.023 267.14C132.005 264.748 123.893 262.775 123.918 262.658C123.943 262.541 132.097 264.33 142.124 266.714C152.151 269.097 160.246 271.129 160.221 271.204Z" fill="#263238"/>
<path d="M138.779 270.293C136.105 269.88 133.455 269.322 130.842 268.62C128.193 268.069 125.575 267.379 122.998 266.555C125.674 266.97 128.326 267.528 130.943 268.227C133.589 268.777 136.205 269.466 138.779 270.293Z" fill="#263238"/>
<path d="M180.233 289.786C180.233 289.786 180.233 289.652 180.308 289.41C180.383 289.167 180.45 288.799 180.55 288.34C180.768 287.386 181.094 285.998 181.504 284.158C182.34 280.529 183.578 275.227 185.133 268.512C188.277 255.131 192.735 236.014 198.045 213.318L198.187 213.552L135.367 198.792L135.626 198.633L117.596 275.034L117.454 274.809L162.997 285.638L175.717 288.691L179.062 289.527L180.224 289.828L179.095 289.577L175.75 288.816L163.039 285.873L117.337 275.202L117.161 275.16V274.984C122.304 253.107 128.484 226.823 135.124 198.566L135.174 198.357L135.392 198.407L198.204 213.226L198.396 213.276L198.346 213.46C192.944 236.206 188.411 255.324 185.225 268.754C183.619 275.444 182.365 280.713 181.504 284.334C181.069 286.115 180.734 287.495 180.509 288.432C180.4 288.883 180.316 289.268 180.249 289.477C180.182 289.686 180.233 289.786 180.233 289.786Z" fill="#263238"/>
<path d="M193.503 13.8256L123.129 137.005C121.198 140.385 122.373 144.692 125.753 146.623L158.116 165.113C161.497 167.044 165.803 165.869 167.735 162.489L238.109 39.3095C240.04 35.9288 238.866 31.6225 235.485 29.6911L203.122 11.2015C199.741 9.27008 195.435 10.4449 193.503 13.8256Z" fill="#FAFAFA"/>
<path d="M158.096 165.098C158.096 165.098 158.406 165.274 159.05 165.516C160.296 165.996 161.653 166.109 162.962 165.842C164.27 165.576 165.475 164.94 166.434 164.011C167.157 163.253 167.758 162.387 168.215 161.444L169.997 158.308L191.338 120.818L223.025 65.2391C226.007 60.0152 229.074 54.6631 232.223 49.1827L236.965 40.8869C237.35 40.1928 237.801 39.4904 238.136 38.7879C238.663 37.7212 238.901 36.5345 238.824 35.347C238.748 34.1594 238.361 33.0129 237.701 32.0225C237.252 31.3521 236.685 30.7684 236.029 30.2997C235.393 29.8482 234.64 29.4635 233.929 29.0453L229.614 26.5365L220.867 21.5189L202.996 11.3164C201.521 10.4878 199.792 10.2344 198.141 10.605C196.49 10.9756 195.035 11.9439 194.056 13.3235C192.308 16.2337 190.652 19.2443 188.963 22.1628L179.053 39.5238L160.296 72.3223L128.518 127.859C127.389 129.833 126.285 131.764 125.172 133.638L123.584 136.422C123.018 137.281 122.623 138.241 122.421 139.249C122.243 140.213 122.272 141.203 122.505 142.154C122.739 143.106 123.172 143.997 123.776 144.768C124.938 146.299 126.77 146.993 128.292 147.946L144.39 157.145L154.551 162.999L157.193 164.53L158.08 165.065C158.08 165.065 157.77 164.906 157.168 164.571L154.509 163.074L144.306 157.296L128.175 148.097L125.775 146.734C124.928 146.26 124.181 145.626 123.575 144.869C122.944 144.07 122.49 143.146 122.244 142.159C121.997 141.171 121.964 140.142 122.145 139.14C122.351 138.101 122.754 137.11 123.333 136.222C123.86 135.31 124.386 134.382 124.922 133.437L128.217 127.65L159.953 72.0966L178.685 39.2813L188.595 21.9203C190.268 18.9766 191.94 16.0163 193.705 13.0391C194.763 11.5782 196.324 10.561 198.088 10.1842C199.852 9.80731 201.693 10.0975 203.255 10.9986L221.126 21.2095L229.865 26.2271L234.197 28.669C234.908 29.0872 235.635 29.5053 236.338 29.9569C237.022 30.4566 237.609 31.0773 238.069 31.7883C238.77 32.8413 239.181 34.0603 239.262 35.3227C239.343 36.5851 239.09 37.8465 238.529 38.9802C238.161 39.7245 237.735 40.3935 237.341 41.096L232.608 49.3918C229.481 54.861 226.414 60.2104 223.409 65.4398L191.631 120.968L170.172 158.391L168.374 161.519C167.9 162.472 167.282 163.346 166.543 164.111C165.325 165.272 163.732 165.96 162.052 166.052C161.03 166.112 160.007 165.944 159.058 165.558C158.813 165.466 158.575 165.354 158.347 165.224L158.096 165.098Z" fill="#263238"/>
<path d="M234.819 40.8882L193.794 17.4495L181.784 38.4707L222.81 61.9094L234.819 40.8882Z" fill="#166DFC"/>
<path d="M217.809 70.6603L176.783 47.2216L164.773 68.2428L205.799 91.6815L217.809 70.6603Z" fill="#166DFC"/>
<path d="M200.794 100.431L159.768 76.9925L147.759 98.0137L188.785 121.452L200.794 100.431Z" fill="#166DFC"/>
<path d="M183.784 130.203L142.758 106.765L130.748 127.786L171.774 151.225L183.784 130.203Z" fill="#166DFC"/>
<g opacity="0.5">
<path opacity="0.5" d="M234.819 40.8882L193.794 17.4495L181.784 38.4707L222.81 61.9094L234.819 40.8882Z" fill="black"/>
</g>
<g opacity="0.6">
<path opacity="0.6" d="M217.809 70.6603L176.783 47.2216L164.773 68.2428L205.799 91.6815L217.809 70.6603Z" fill="black"/>
</g>
<g opacity="0.7">
<path opacity="0.7" d="M200.794 100.431L159.768 76.9925L147.759 98.0137L188.785 121.452L200.794 100.431Z" fill="black"/>
</g>
<g opacity="0.8">
<path opacity="0.8" d="M183.784 130.203L142.758 106.765L130.748 127.786L171.774 151.225L183.784 130.203Z" fill="black"/>
</g>
<path d="M135.133 7.36554L110.962 146.29C110.254 150.358 112.978 154.23 117.046 154.938L152.926 161.18C156.994 161.888 160.866 159.164 161.574 155.096L185.745 16.1714C186.453 12.1035 183.729 8.23203 179.661 7.52426L143.78 1.28146C139.712 0.573686 135.841 3.29763 135.133 7.36554Z" fill="#FAFAFA"/>
<path d="M152.92 161.176H153.188C153.443 161.211 153.7 161.231 153.957 161.235C154.971 161.27 155.98 161.087 156.917 160.699C158.453 160.09 159.742 158.987 160.58 157.563C161.1 156.656 161.438 155.656 161.575 154.62C161.768 153.507 161.968 152.32 162.177 151.066C163.909 141.03 166.409 126.546 169.495 108.633C172.581 90.7203 176.285 69.3954 180.366 45.7122C181.392 39.7914 182.443 33.7285 183.519 27.5233C184.077 24.4291 184.62 21.2987 185.15 18.132C185.409 16.5431 185.836 14.9709 185.459 13.4238C185.223 12.2538 184.702 11.1602 183.942 10.2397C183.182 9.3193 182.206 8.60048 181.102 8.14694C180.343 7.86389 179.555 7.66752 178.752 7.56156L173.86 6.72528L163.95 5.00257L143.713 1.49023C142.048 1.20131 140.335 1.50061 138.867 2.33679C137.399 3.17297 136.268 4.49391 135.668 6.07299C135.402 6.87244 135.214 7.69586 135.107 8.53163C134.965 9.3679 134.815 10.2042 134.673 11.0404L133.845 16.0664C132.691 22.7231 131.55 29.2739 130.424 35.7188C128.183 48.6057 126.017 61.0411 123.952 72.8827C119.77 96.5575 116.091 117.882 112.955 135.795C112.57 138.028 112.185 140.219 111.809 142.343C111.625 143.414 111.441 144.459 111.257 145.496C111.019 146.495 110.954 147.527 111.065 148.548C111.259 149.988 111.875 151.338 112.835 152.429C113.794 153.52 115.055 154.302 116.459 154.678C117.345 154.896 118.273 155.013 119.16 155.18L137.399 158.391L148.897 160.432L151.9 160.975L152.912 161.176L151.891 161.017L148.889 160.515L137.349 158.55L119.093 155.414C118.198 155.247 117.303 155.138 116.375 154.912C114.919 154.528 113.61 153.72 112.613 152.592C111.615 151.464 110.975 150.066 110.772 148.574C110.649 147.525 110.711 146.464 110.956 145.437C111.131 144.401 111.315 143.355 111.499 142.285C111.867 140.161 112.244 137.97 112.628 135.728C115.731 117.815 119.427 96.4906 123.5 72.799C125.557 60.9574 127.681 48.5472 129.956 35.6435C131.071 29.1987 132.208 22.6451 133.368 15.9828L134.246 10.9652C134.388 10.1289 134.53 9.29264 134.681 8.45637C134.794 7.60301 134.99 6.76274 135.266 5.94755C135.892 4.28101 137.074 2.88114 138.611 1.98363C140.175 1.10407 141.993 0.785411 143.763 1.08046L164.001 4.60116L173.986 6.30715L178.878 7.14342C179.709 7.24961 180.526 7.45166 181.311 7.74553C182.48 8.2285 183.513 8.99132 184.317 9.96687C185.122 10.9424 185.675 12.1008 185.928 13.3402C186.1 14.1653 186.131 15.0135 186.02 15.849C185.911 16.6853 185.752 17.4463 185.618 18.2407C185.061 21.4018 184.503 24.5323 183.946 27.6321C182.881 33.8205 181.827 39.8751 180.784 45.7958C176.653 69.4707 172.924 90.7956 169.796 108.708C166.668 126.621 164.109 141.097 162.345 151.116C162.127 152.37 161.918 153.549 161.726 154.662C161.578 155.715 161.226 156.729 160.689 157.647C159.831 159.087 158.515 160.198 156.951 160.8C156.001 161.182 154.979 161.35 153.957 161.293C153.696 161.285 153.436 161.26 153.179 161.218L152.92 161.176Z" fill="#263238"/>
<path d="M183.262 18.3622L136.712 10.263L132.563 34.1147L179.113 42.2139L183.262 18.3622Z" fill="#166DFC"/>
<path d="M177.384 52.1382L130.834 44.039L126.684 67.8907L173.234 75.9899L177.384 52.1382Z" fill="#166DFC"/>
<path d="M171.504 85.921L124.954 77.8218L120.804 101.674L167.354 109.773L171.504 85.921Z" fill="#166DFC"/>
<path d="M165.626 119.696L119.076 111.596L114.926 135.448L161.476 143.547L165.626 119.696Z" fill="#166DFC"/>
<g opacity="0.1">
<path opacity="0.1" d="M183.262 18.3622L136.712 10.263L132.563 34.1147L179.113 42.2139L183.262 18.3622Z" fill="black"/>
</g>
<g opacity="0.2">
<path opacity="0.2" d="M177.384 52.1382L130.834 44.039L126.684 67.8907L173.234 75.9899L177.384 52.1382Z" fill="black"/>
</g>
<g opacity="0.3">
<path opacity="0.3" d="M171.504 85.921L124.954 77.8218L120.804 101.674L167.354 109.773L171.504 85.921Z" fill="black"/>
</g>
<g opacity="0.4">
<path opacity="0.4" d="M165.626 119.696L119.076 111.596L114.926 135.448L161.476 143.547L165.626 119.696Z" fill="black"/>
</g>
<path d="M154.676 157.697L119.753 166.06C117.764 166.541 115.665 166.214 113.917 165.149C112.169 164.085 110.914 162.37 110.429 160.382L77.6138 23.7517C77.1356 21.7601 77.4677 19.6601 78.5372 17.9132C79.6066 16.1663 81.3259 14.9155 83.3171 14.4357L118.248 6.07298C120.24 5.59481 122.34 5.92694 124.087 6.99639C125.834 8.06584 127.084 9.78511 127.564 11.7763L160.388 148.415C160.858 150.403 160.521 152.496 159.45 154.236C158.38 155.976 156.663 157.221 154.676 157.697Z" fill="#FAFAFA"/>
<path d="M154.676 157.697L154.927 157.614C155.175 157.549 155.419 157.465 155.655 157.363C156.599 156.988 157.454 156.418 158.163 155.69C159.352 154.544 160.141 153.046 160.413 151.417C160.831 149.468 159.978 147.286 159.434 144.819C157.043 134.942 153.581 120.659 149.324 103.005C145.067 85.3515 140 64.3276 134.38 40.9873L130.081 23.1078C129.345 20.0582 128.604 16.9724 127.857 13.8503C127.455 12.2949 127.23 10.6809 126.301 9.393C125.417 8.0678 124.134 7.0576 122.639 6.50786C121.122 5.96212 119.472 5.90654 117.922 6.34897L113.097 7.50302L103.329 9.85294L83.384 14.6448C81.7277 15.0382 80.2537 15.9816 79.2026 17.3208C78.1631 18.6441 77.6003 20.2794 77.6054 21.9621C77.6242 22.811 77.7506 23.654 77.9817 24.471C78.1824 25.3072 78.3831 26.1435 78.5838 26.9798C78.9741 28.6523 79.3671 30.2998 79.7629 31.9221C81.3463 38.4896 82.899 44.9484 84.421 51.2985C87.465 64.0098 90.4087 76.2612 93.2102 87.9439C98.7965 111.293 103.831 132.325 108.062 149.987C108.589 152.195 109.108 154.344 109.609 156.451C109.86 157.497 110.103 158.533 110.354 159.562C110.53 160.57 110.872 161.542 111.366 162.439C112.346 164.155 113.962 165.417 115.865 165.951C116.763 166.208 117.703 166.293 118.633 166.202C119.535 166.077 120.429 165.895 121.309 165.659L139.305 161.368L150.687 158.676L153.647 157.99C154.316 157.831 154.659 157.764 154.659 157.764C154.659 157.764 154.325 157.864 153.664 158.032L150.712 158.759L139.347 161.536L121.367 165.893C120.478 166.139 119.572 166.326 118.658 166.453C117.697 166.549 116.727 166.464 115.798 166.202C113.827 165.65 112.15 164.351 111.123 162.581C110.617 161.656 110.261 160.657 110.069 159.621C109.827 158.6 109.576 157.563 109.325 156.518C108.818 154.422 108.296 152.267 107.761 150.054C103.521 132.308 98.462 111.309 92.8673 87.9857C90.0574 76.2779 87.1138 64.0516 84.053 51.3487C82.5031 44.993 80.9393 38.5287 79.3615 31.9556C78.9713 30.3165 78.5754 28.669 78.174 27.0132C77.9733 26.1769 77.781 25.3407 77.5803 24.5044C77.3439 23.6653 77.2119 22.8002 77.1872 21.9287C77.1818 20.1419 77.7801 18.4057 78.8852 17.0016C79.9903 15.5975 81.5373 14.6078 83.2753 14.1932L103.229 9.40136L112.996 7.05144L117.822 5.89738C119.452 5.43591 121.187 5.49733 122.781 6.073C124.362 6.65409 125.718 7.72305 126.653 9.12539C127.119 9.81239 127.467 10.5728 127.681 11.375C127.907 12.1611 128.066 12.9388 128.267 13.7165C129.008 16.8386 129.747 19.9272 130.483 22.9824C131.949 29.0872 133.382 35.0637 134.781 40.912L149.642 102.947C153.823 120.609 157.26 134.9 159.618 144.76L160.455 148.256C160.779 149.585 160.746 150.977 160.36 152.29C159.974 153.602 159.248 154.79 158.255 155.732C157.521 156.463 156.64 157.03 155.671 157.396C155.348 157.524 155.015 157.624 154.676 157.697Z" fill="#263238"/>
<path d="M126.106 14.4979L80.1646 25.536L85.8204 49.0761L131.762 38.038L126.106 14.4979Z" fill="#166DFC"/>
<path d="M134.117 47.8389L88.1754 58.8771L93.8312 82.4172L139.773 71.3791L134.117 47.8389Z" fill="#166DFC"/>
<path d="M142.128 81.1819L96.1863 92.2201L101.842 115.76L147.784 104.722L142.128 81.1819Z" fill="#166DFC"/>
<path d="M150.137 114.515L104.195 125.553L109.851 149.093L155.793 138.055L150.137 114.515Z" fill="#166DFC"/>
<g opacity="0.5">
<path opacity="0.5" d="M126.106 14.4979L80.1646 25.536L85.8204 49.0761L131.762 38.038L126.106 14.4979Z" fill="white"/>
</g>
<g opacity="0.6">
<path opacity="0.6" d="M134.117 47.8389L88.1754 58.8771L93.8312 82.4172L139.773 71.3791L134.117 47.8389Z" fill="white"/>
</g>
<g opacity="0.7">
<path opacity="0.7" d="M142.128 81.1819L96.1863 92.2201L101.842 115.76L147.784 104.722L142.128 81.1819Z" fill="white"/>
</g>
<g opacity="0.8">
<path opacity="0.8" d="M150.137 114.515L104.195 125.553L109.851 149.093L155.793 138.055L150.137 114.515Z" fill="white"/>
</g>
<path d="M63.1581 31.3509L33.1841 52.8138C29.9705 55.1148 29.2308 59.5853 31.5319 62.7989L113.658 177.493C115.959 180.706 120.43 181.446 123.643 179.145L153.618 157.682C156.831 155.381 157.571 150.91 155.27 147.697L73.1433 33.0031C70.8422 29.7895 66.3717 29.0498 63.1581 31.3509Z" fill="#FAFAFA"/>
<path d="M154.626 157.714C154.626 157.714 154.919 157.505 155.404 157.02C156.139 156.316 156.71 155.46 157.076 154.511C157.684 152.971 157.734 151.267 157.218 149.694C156.871 148.702 156.347 147.781 155.671 146.976L153.564 144.058L128.359 109.076L91.0192 57.1691L80.2313 42.1664L74.6618 34.4142C74.1851 33.7702 73.7335 33.0845 73.2401 32.474C72.4927 31.5499 71.5201 30.8336 70.4158 30.3942C69.3114 29.9548 68.1126 29.8071 66.9346 29.9652C66.1437 30.0692 65.3769 30.3097 64.6683 30.676C63.9608 31.0808 63.2819 31.5334 62.6362 32.0308L58.5803 34.9243L50.4099 40.7782L33.6845 52.7787C32.3151 53.7811 31.3555 55.2458 30.9833 56.9015C30.5944 58.5434 30.8267 60.2711 31.6356 61.7519C32.0738 62.4751 32.5483 63.1756 33.0573 63.8509L34.5542 65.9249L37.523 70.0644L49.1806 86.3131L71.1996 116.996L108.472 168.962L112.352 174.372C112.98 175.259 113.607 176.12 114.217 176.982C114.762 177.852 115.466 178.612 116.291 179.223C117.089 179.791 117.996 180.188 118.954 180.388C119.913 180.588 120.903 180.587 121.861 180.385C123.759 180.042 125.206 178.713 126.653 177.676L141.706 166.888L151.247 160.081L153.756 158.324C154.317 157.931 154.592 157.739 154.592 157.739C154.592 157.739 154.317 157.956 153.756 158.358L151.298 160.156L141.798 167.03L126.745 177.902L124.503 179.507C123.713 180.068 122.817 180.464 121.869 180.67C120.874 180.88 119.847 180.883 118.851 180.677C117.855 180.471 116.912 180.062 116.082 179.474C115.228 178.849 114.498 178.069 113.933 177.174L112.102 174.523L108.221 169.104L70.8734 117.205C63.8571 107.429 56.4812 97.1847 48.8377 86.5389L37.1801 70.3153L34.2113 66.1841L32.7144 64.1018C32.1903 63.4127 31.7045 62.6952 31.2593 61.9526C30.4038 60.3787 30.1567 58.5453 30.5652 56.8011C30.9801 55.0419 32.0203 53.4934 33.4922 52.4442L50.2176 40.4437L58.3879 34.5898L62.4271 31.6879C63.0634 31.1745 63.734 30.7051 64.4342 30.283C65.1876 29.8937 66.0022 29.6363 66.8426 29.522C68.5219 29.3155 70.2218 29.6808 71.6679 30.559C72.3831 31.0024 73.0144 31.5686 73.5328 32.2315C74.0513 32.8838 74.4861 33.5445 74.9712 34.1967L80.5324 41.949L91.3119 57.0018L128.601 108.892L153.689 143.949L155.78 146.884C156.115 147.336 156.424 147.779 156.708 148.239L157.059 148.941C157.151 149.176 157.252 149.41 157.327 149.644C157.837 151.246 157.772 152.976 157.143 154.536C156.763 155.488 156.177 156.345 155.429 157.045C155.244 157.227 155.045 157.395 154.835 157.547L154.626 157.714Z" fill="#263238"/>
<path d="M73.6725 36.2165L35.2973 63.7817L49.4214 83.4447L87.7966 55.8795L73.6725 36.2165Z" fill="#166DFC"/>
<path d="M93.6717 64.0567L55.2965 91.6219L69.4206 111.285L107.796 83.7197L93.6717 64.0567Z" fill="#166DFC"/>
<path d="M113.671 91.9052L75.2956 119.47L89.4197 139.133L127.795 111.568L113.671 91.9052Z" fill="#166DFC"/>
<path d="M133.678 119.754L95.3031 147.319L109.427 166.982L147.802 139.417L133.678 119.754Z" fill="#166DFC"/>
<g opacity="0.2">
<path opacity="0.2" d="M93.6717 64.0567L55.2965 91.6219L69.4206 111.285L107.796 83.7197L93.6717 64.0567Z" fill="white"/>
</g>
<g opacity="0.3">
<path opacity="0.3" d="M113.671 91.9052L75.2956 119.47L89.4197 139.133L127.795 111.568L113.671 91.9052Z" fill="white"/>
</g>
<g opacity="0.4">
<path opacity="0.4" d="M133.678 119.754L95.3031 147.319L109.427 166.982L147.802 139.417L133.678 119.754Z" fill="white"/>
</g>
<g opacity="0.1">
<path opacity="0.1" d="M73.6725 36.2165L35.2973 63.7817L49.4214 83.4447L87.7966 55.8795L73.6725 36.2165Z" fill="white"/>
</g>
<path d="M23.7385 71.0616L3.76538 102.571C1.68582 105.851 2.6595 110.197 5.94016 112.276L125.789 188.246C129.069 190.326 133.415 189.352 135.494 186.072L155.467 154.563C157.547 151.282 156.573 146.937 153.293 144.857L33.444 68.8868C30.1633 66.8072 25.818 67.7809 23.7385 71.0616Z" fill="#FAFAFA"/>
<path d="M33.0991 68.6679C29.6118 66.4183 25.6479 67.5138 24.0255 70.7084L3.67909 102.821C3.20129 103.572 2.87633 104.41 2.72281 105.286C2.5693 106.163 2.59024 107.061 2.78445 107.93C2.97866 108.798 3.34232 109.62 3.85459 110.348C4.36686 111.075 5.01768 111.695 5.76976 112.171L86.0517 163.066C86.3717 163.27 86.7288 163.41 87.1026 163.476C87.4765 163.542 87.8597 163.533 88.2302 163.451C88.6008 163.368 88.9515 163.214 89.2622 162.996C89.5728 162.778 89.8374 162.5 90.0408 162.18L114.543 123.711C114.957 123.062 115.096 122.276 114.93 121.525C114.763 120.774 114.306 120.119 113.657 119.705L33.0991 68.6679Z" fill="#166DFC"/>
<path d="M151.858 149.033C152.291 150.072 152.406 151.215 152.189 152.319C151.973 153.422 151.433 154.437 150.64 155.234C149.846 156.031 148.834 156.575 147.731 156.797C146.628 157.019 145.485 156.909 144.445 156.481C143.404 156.053 142.515 155.326 141.888 154.392C141.261 153.458 140.925 152.359 140.923 151.234C140.921 150.109 141.252 149.009 141.875 148.072C142.498 147.136 143.385 146.405 144.423 145.973C145.112 145.685 145.852 145.535 146.598 145.533C147.345 145.531 148.085 145.676 148.776 145.961C149.466 146.245 150.094 146.663 150.623 147.19C151.152 147.717 151.571 148.344 151.858 149.033Z" fill="#455A64"/>
<path d="M151.858 149.033C151.858 149.033 151.64 148.582 151.097 147.871C150.315 146.886 149.23 146.187 148.011 145.881C147.119 145.655 146.186 145.656 145.295 145.884C144.403 146.112 143.584 146.559 142.91 147.185C142.111 147.917 141.551 148.873 141.304 149.928C141.028 151.061 141.122 152.252 141.574 153.327C142.026 154.402 142.811 155.304 143.813 155.899C144.735 156.468 145.808 156.745 146.89 156.694C147.803 156.661 148.693 156.403 149.481 155.941C150.27 155.48 150.931 154.831 151.406 154.051C152.053 152.971 152.318 151.704 152.159 150.455C152.05 149.569 151.833 149.109 151.875 149.092C151.948 149.191 152.005 149.301 152.042 149.418C152.178 149.743 152.276 150.083 152.335 150.43C152.555 151.728 152.322 153.063 151.674 154.21C151.225 155.001 150.598 155.677 149.842 156.184C148.969 156.764 147.955 157.099 146.907 157.154C145.733 157.222 144.566 156.931 143.562 156.317C142.483 155.674 141.639 154.701 141.156 153.541C140.672 152.382 140.575 151.097 140.878 149.878C141.151 148.746 141.76 147.722 142.625 146.943C143.403 146.235 144.356 145.75 145.385 145.538C146.277 145.356 147.2 145.387 148.078 145.63C149.349 145.973 150.46 146.748 151.222 147.821C151.428 148.106 151.599 148.415 151.732 148.741C151.833 148.941 151.875 149.033 151.858 149.033Z" fill="#263238"/>
<path d="M155.588 154.36C155.588 154.36 155.78 154.059 156.048 153.432C156.448 152.495 156.637 151.482 156.6 150.463C156.521 148.806 155.844 147.234 154.693 146.04C153.931 145.333 153.089 144.718 152.184 144.208L149.132 142.285L112.62 119.22L58.4715 84.9834L42.8332 75.0736L34.7549 69.964C34.0775 69.5459 33.3918 69.0692 32.7144 68.6929C31.3089 67.9464 29.6802 67.7359 28.1311 68.1004C26.582 68.465 25.2181 69.3799 24.2931 70.6748C23.8332 71.3271 23.4067 72.0547 22.9635 72.7404L20.2958 76.9218L14.86 85.4768L3.83795 102.871C2.93196 104.302 2.61073 106.026 2.94074 107.687C3.27076 109.348 4.22674 110.819 5.61084 111.794L14.2579 117.255L31.1589 127.968L63.1045 148.231L117.178 182.518L122.806 186.097L125.515 187.82C126.348 188.424 127.296 188.851 128.3 189.074C129.259 189.275 130.25 189.264 131.204 189.04C132.158 188.816 133.051 188.385 133.82 187.778C134.546 187.181 135.155 186.455 135.617 185.637L137.098 183.304C140.986 177.199 144.34 171.939 147.074 167.632C149.809 163.325 151.95 160.014 153.397 157.739L155.069 155.172C155.437 154.595 155.638 154.335 155.638 154.335C155.638 154.335 155.462 154.636 155.103 155.222C154.743 155.807 154.191 156.677 153.489 157.814C152.05 160.097 149.951 163.442 147.233 167.749L137.282 183.488L135.81 185.829C135.334 186.675 134.704 187.423 133.953 188.037C133.157 188.674 132.23 189.127 131.238 189.364C130.247 189.601 129.215 189.616 128.216 189.409C127.182 189.173 126.204 188.736 125.34 188.121L122.63 186.406L116.985 182.835L62.8619 148.582L30.908 128.344L14.007 117.64L5.35996 112.137C3.88366 111.099 2.86378 109.532 2.51189 107.761C2.15999 105.991 2.50308 104.153 3.46999 102.629L14.5004 85.2343L19.8943 76.7211L22.5621 72.5397C23.0136 71.8373 23.3983 71.1432 23.9084 70.4491C24.4022 69.7559 25.0204 69.1604 25.7315 68.6929C27.1443 67.7463 28.8551 67.3506 30.5401 67.5806C31.3705 67.6969 32.1743 67.9572 32.9151 68.35C33.651 68.7514 34.2949 69.1863 34.9807 69.6295L43.059 74.7475L58.6889 84.6406L112.754 118.928L149.19 142.109C150.269 142.786 151.281 143.439 152.234 144.049C153.164 144.562 154.024 145.191 154.793 145.922C155.957 147.141 156.633 148.746 156.691 150.43C156.726 151.458 156.522 152.479 156.098 153.415C155.997 153.653 155.876 153.883 155.738 154.101L155.588 154.36Z" fill="#263238"/>
<path d="M99.5575 165.951C99.0636 165.592 98.6857 165.096 98.4705 164.524C98.2553 163.952 98.2122 163.33 98.3465 162.734C98.4807 162.139 98.7866 161.595 99.2262 161.171C99.6658 160.747 100.22 160.461 100.82 160.348L101.029 161.477C100.761 161.509 100.502 161.6 100.274 161.745C100.045 161.89 99.8516 162.084 99.708 162.313C99.5646 162.514 99.4636 162.742 99.4113 162.983C99.3589 163.224 99.3563 163.474 99.4036 163.716C99.4509 163.958 99.5471 164.188 99.6862 164.392C99.8254 164.596 100.005 164.769 100.213 164.901C100.422 165.033 100.655 165.121 100.898 165.16C101.142 165.199 101.391 165.188 101.63 165.127C101.87 165.067 102.094 164.958 102.29 164.808C102.485 164.658 102.648 164.469 102.769 164.254C102.917 164.024 103.011 163.765 103.044 163.494C103.078 163.223 103.049 162.948 102.961 162.69L104.065 162.389C104.227 162.979 104.212 163.604 104.02 164.186C103.829 164.768 103.47 165.28 102.989 165.658C102.508 166.037 101.925 166.265 101.315 166.314C100.704 166.363 100.093 166.231 99.5575 165.934V165.951Z" fill="#263238"/>
<path d="M102.702 161.042C102.159 160.74 101.72 160.283 101.44 159.728C101.16 159.174 101.054 158.548 101.134 157.932C101.213 157.316 101.476 156.738 101.888 156.274C102.3 155.809 102.842 155.478 103.444 155.325C104.045 155.171 104.679 155.202 105.263 155.413C105.848 155.624 106.355 156.005 106.72 156.507C107.085 157.009 107.291 157.61 107.311 158.231C107.331 158.851 107.165 159.464 106.833 159.989C106.638 160.336 106.374 160.641 106.058 160.884C105.742 161.126 105.38 161.302 104.993 161.401C104.607 161.499 104.205 161.518 103.811 161.457C103.417 161.395 103.04 161.254 102.702 161.042ZM105.303 156.928C105.004 156.748 104.658 156.661 104.31 156.676C103.961 156.692 103.625 156.81 103.343 157.016C103.061 157.222 102.847 157.507 102.726 157.834C102.605 158.162 102.584 158.517 102.665 158.857C102.745 159.196 102.924 159.505 103.179 159.743C103.434 159.981 103.753 160.139 104.098 160.196C104.442 160.254 104.795 160.208 105.114 160.066C105.432 159.923 105.702 159.69 105.888 159.395C106.021 159.197 106.112 158.974 106.155 158.74C106.198 158.506 106.192 158.265 106.137 158.033C106.082 157.801 105.979 157.583 105.836 157.393C105.692 157.203 105.511 157.044 105.303 156.928Z" fill="#263238"/>
<path d="M104.149 153.457L104.851 152.353L108.731 154.812L110.253 152.412L111.157 152.981L108.932 156.493L104.149 153.457Z" fill="#263238"/>
<path d="M108.915 151.224C108.373 150.922 107.934 150.463 107.655 149.908C107.376 149.353 107.271 148.727 107.352 148.111C107.433 147.495 107.696 146.918 108.109 146.454C108.522 145.99 109.064 145.66 109.667 145.508C110.269 145.355 110.903 145.387 111.487 145.599C112.07 145.811 112.577 146.194 112.941 146.697C113.305 147.2 113.51 147.801 113.529 148.422C113.548 149.043 113.38 149.655 113.047 150.179C112.853 150.529 112.591 150.835 112.274 151.079C111.958 151.323 111.595 151.5 111.208 151.598C110.82 151.696 110.417 151.713 110.023 151.649C109.628 151.585 109.252 151.44 108.915 151.224ZM111.525 147.118C111.225 146.939 110.88 146.851 110.531 146.867C110.183 146.883 109.847 147.001 109.565 147.207C109.283 147.413 109.069 147.697 108.948 148.025C108.827 148.352 108.806 148.708 108.886 149.047C108.967 149.387 109.146 149.695 109.401 149.933C109.656 150.172 109.975 150.329 110.319 150.387C110.664 150.444 111.017 150.399 111.336 150.256C111.654 150.114 111.923 149.88 112.11 149.585C112.243 149.388 112.334 149.165 112.377 148.93C112.42 148.696 112.413 148.455 112.358 148.223C112.303 147.992 112.201 147.774 112.057 147.583C111.914 147.393 111.732 147.235 111.525 147.118Z" fill="#263238"/>
<path d="M117.119 143.631L115.204 143.706V143.765L114.594 144.727L115.923 145.563L115.221 146.667L110.437 143.64L111.75 141.566C112.587 140.286 113.732 139.893 114.803 140.587C115.133 140.779 115.395 141.069 115.554 141.416C115.713 141.764 115.76 142.152 115.689 142.527L117.905 142.427L117.119 143.631ZM112.578 142.209L112.01 143.113L113.682 144.166L114.259 143.263C114.686 142.586 114.585 142.042 114.067 141.716C113.548 141.39 112.98 141.507 112.545 142.209H112.578Z" fill="#263238"/>
<path d="M109.593 160.649C109.003 162.104 108.283 163.504 107.444 164.831C106.731 166.224 105.891 167.548 104.935 168.786C106.241 165.937 107.806 163.213 109.609 160.649H109.593Z" fill="#263238"/>
</svg>
