<svg width="555" height="194" viewBox="0 0 555 194" fill="none" xmlns="http://www.w3.org/2000/svg">
<rect width="504" height="64" transform="translate(51 42)" fill="#1955A5"/>
<path d="M75.4831 67.6944C75.6483 67.7856 75.7844 67.9217 75.8756 68.0869L82.1818 79.5169C82.4486 80.0004 82.2728 80.6087 81.7893 80.8755C81.6413 80.9571 81.4751 80.9999 81.3062 80.9999H68.6938C68.1416 80.9999 67.6938 80.5522 67.6938 79.9999C67.6938 79.831 67.7367 79.6648 67.8183 79.5169L74.1244 68.0869C74.3912 67.6034 74.9995 67.4276 75.4831 67.6944ZM76 77.4999H74.092V79.3359H76V77.4999ZM76.204 70.9999H73.9L74.464 76.5319H75.616L76.204 70.9999Z" fill="#F7F7F7"/>
<path d="M90.696 80V75.552H94.008V80H96.632V69.328H94.008V73.424H90.696V69.328H88.056V80H90.696ZM102.28 80.128C104.328 80.128 105.64 79.136 106.168 77.632L104.104 77.36C103.816 78.144 103.304 78.544 102.504 78.544C101.528 78.544 100.792 77.92 100.76 76.496H106.248C106.264 76.32 106.264 76.192 106.264 76.016C106.2 73.552 104.744 71.92 102.264 71.92C100.056 71.92 98.1675 73.584 98.1675 76.144C98.1675 78.56 99.8955 80.128 102.28 80.128ZM100.792 75.2C100.856 74.112 101.496 73.472 102.296 73.472C103.224 73.472 103.688 74.128 103.768 75.2H100.792ZM110.159 80V69.328H107.663V80H110.159ZM114.597 80V69.328H112.101V80H114.597ZM120.09 80.128C122.57 80.128 124.234 78.368 124.234 76.048C124.234 73.584 122.602 71.92 120.138 71.92C117.786 71.92 116.058 73.632 116.058 76.096C116.058 78.416 117.722 80.128 120.09 80.128ZM120.17 78.528C119.178 78.528 118.698 77.744 118.698 76.016C118.698 74.336 119.21 73.568 120.154 73.568C121.13 73.568 121.578 74.352 121.578 76.016C121.578 77.76 121.082 78.528 120.17 78.528ZM128.207 74.56V72.064H125.615V74.56H128.207ZM128.207 80V77.504H125.615V80H128.207ZM136.513 80H137.841V70.464H140.865V80H142.113V74.608C142.769 73.664 143.553 73.008 144.657 73.008C145.457 73.008 145.937 73.456 145.937 74.416V80H147.185V74.32C147.185 73.024 146.609 71.968 145.009 71.968C143.537 71.968 142.577 72.848 142.065 73.664V69.312L133.457 69.328V70.464H136.513V80ZM150.887 70.72V69.312H149.527V70.72H150.887ZM150.839 80V72.112H149.591V80H150.839ZM155.759 80.128C157.679 80.128 158.927 79.152 158.927 77.696C158.927 76.128 157.551 75.68 155.935 75.36C154.671 75.088 153.727 74.928 153.727 74.064C153.727 73.344 154.447 72.912 155.503 72.912C156.575 72.912 157.295 73.392 157.599 74.224L158.703 73.984C158.303 72.752 157.279 71.968 155.503 71.968C153.743 71.968 152.575 72.848 152.575 74.144C152.575 75.696 153.935 76.112 155.551 76.416C156.719 76.672 157.775 76.864 157.775 77.808C157.775 78.64 157.007 79.2 155.759 79.2C154.399 79.2 153.519 78.576 153.263 77.648L152.143 77.872C152.527 79.312 153.759 80.128 155.759 80.128ZM167.926 80.112C169.718 80.112 171.014 78.752 171.014 76.032C171.014 73.392 169.91 71.968 168.022 71.968C166.886 71.968 165.878 72.752 165.478 73.616V69.328H164.294V80H164.982L165.382 78.688C165.894 79.584 166.742 80.112 167.926 80.112ZM167.686 79.216C166.422 79.216 165.494 78.272 165.494 76.624V74.72C165.926 73.808 166.582 72.96 167.734 72.96C169.062 72.96 169.734 74 169.734 76.064C169.734 78.272 169.03 79.216 167.686 79.216ZM174.713 80.096C176.185 80.096 177.113 79.536 177.737 78.672C177.721 79.072 177.785 79.728 177.881 80H179.065C178.937 79.504 178.889 78.96 178.889 78.464V74.88C178.889 72.896 178.025 71.968 175.785 71.968C173.913 71.968 172.681 72.736 172.393 74.176L173.545 74.304C173.801 73.296 174.473 72.944 175.753 72.944C177.081 72.944 177.593 73.408 177.689 74.272C177.721 74.464 177.721 74.736 177.721 75.008C177.097 75.024 176.569 75.024 175.929 75.104C173.769 75.36 172.201 76.208 172.201 77.92C172.201 79.36 173.321 80.096 174.713 80.096ZM175.081 79.184C174.025 79.184 173.497 78.704 173.497 77.792C173.497 76.8 174.377 76.112 176.089 75.888C176.585 75.824 177.161 75.824 177.721 75.824V77.456C177.385 78.272 176.585 79.184 175.081 79.184ZM182.511 80V74.592C183.167 73.648 183.999 73.008 185.007 73.008C185.903 73.008 186.319 73.456 186.319 74.4V80H187.567V74.416C187.567 72.8 186.847 71.968 185.375 71.968C183.967 71.968 182.991 72.896 182.447 73.68V72.112H181.263V80H182.511ZM191.182 80V74.592C191.838 73.648 192.67 73.008 193.678 73.008C194.574 73.008 194.99 73.456 194.99 74.4V80H196.238V74.416C196.238 72.8 195.518 71.968 194.046 71.968C192.638 71.968 191.662 72.896 191.118 73.68V72.112H189.934V80H191.182ZM201.63 80.128C203.198 80.128 204.414 79.312 204.958 77.792L203.87 77.632C203.422 78.8 202.606 79.184 201.742 79.184C200.206 79.184 199.31 78.176 199.278 76.192H205.102C205.086 76.016 205.102 75.84 205.086 75.664C204.926 73.472 203.726 71.968 201.662 71.968C199.63 71.968 198.014 73.52 198.014 76.192C198.014 78.544 199.47 80.128 201.63 80.128ZM199.326 75.344C199.422 73.856 200.398 72.912 201.662 72.912C202.926 72.912 203.71 73.824 203.838 75.344H199.326ZM208.073 80V74.848C208.729 73.744 209.657 73.104 210.585 73.104C210.681 73.104 210.841 73.104 210.937 73.12V71.984C210.809 71.968 210.713 71.968 210.569 71.968C209.449 71.968 208.521 72.88 208.009 73.808V72.112H206.825V80H208.073ZM218.656 80.128C220.224 80.128 221.392 79.216 221.664 77.44L220.576 77.328C220.336 78.64 219.728 79.2 218.688 79.2C217.504 79.2 216.576 78.224 216.576 76.048C216.576 74.08 217.344 72.96 218.608 72.96C219.696 72.96 220.32 73.664 220.512 74.96L221.68 74.816C221.328 72.88 220.272 71.968 218.592 71.968C216.592 71.968 215.264 73.728 215.264 76.016C215.264 78.656 216.72 80.128 218.656 80.128ZM226.253 80.128C228.205 80.128 229.821 78.512 229.821 76.032C229.821 73.6 228.413 71.968 226.253 71.968C224.317 71.968 222.717 73.552 222.717 76.016C222.717 78.512 224.221 80.128 226.253 80.128ZM226.237 79.2C224.909 79.2 224.029 78.016 224.029 76.032C224.029 74 224.989 72.944 226.237 72.944C227.549 72.944 228.509 73.968 228.509 76.016C228.509 78.144 227.533 79.2 226.237 79.2ZM232.838 80V74.592C233.558 73.584 234.214 72.992 235.126 72.992C235.894 72.992 236.294 73.52 236.294 74.464V80H237.51V74.608C238.006 73.824 238.822 73.024 239.798 73.024C240.566 73.024 240.998 73.456 240.998 74.48V80H242.23V74.4C242.23 73.76 242.07 73.248 241.83 72.88C241.51 72.288 240.966 71.984 240.15 71.984C238.902 71.984 237.974 72.88 237.43 73.744C237.334 72.624 236.598 71.968 235.446 71.968C234.31 71.968 233.27 72.912 232.806 73.696V72.112H231.606V80H232.838ZM248.271 80.112C249.855 80.112 251.279 78.72 251.279 76.048C251.279 73.2 250.063 71.968 248.303 71.968C247.039 71.968 246.239 72.736 245.759 73.504V72.112H244.575V82.672H245.807V78.96C246.287 79.536 247.119 80.112 248.271 80.112ZM247.935 79.2C246.799 79.2 246.223 78.496 245.807 77.904V74.576C246.367 73.472 247.103 72.992 248.015 72.992C249.375 72.992 249.983 73.968 249.983 76.08C249.983 78.352 249.183 79.2 247.935 79.2ZM256.019 80.128C257.971 80.128 259.587 78.512 259.587 76.032C259.587 73.6 258.179 71.968 256.019 71.968C254.083 71.968 252.483 73.552 252.483 76.016C252.483 78.512 253.987 80.128 256.019 80.128ZM256.003 79.2C254.675 79.2 253.795 78.016 253.795 76.032C253.795 74 254.755 72.944 256.003 72.944C257.315 72.944 258.275 73.968 258.275 76.016C258.275 78.144 257.299 79.2 256.003 79.2ZM262.62 80V74.592C263.276 73.648 264.108 73.008 265.116 73.008C266.012 73.008 266.428 73.456 266.428 74.4V80H267.676V74.416C267.676 72.8 266.956 71.968 265.484 71.968C264.076 71.968 263.1 72.896 262.556 73.68V72.112H261.372V80H262.62ZM273.068 80.128C274.636 80.128 275.852 79.312 276.396 77.792L275.308 77.632C274.86 78.8 274.044 79.184 273.18 79.184C271.644 79.184 270.748 78.176 270.716 76.192H276.54C276.524 76.016 276.54 75.84 276.524 75.664C276.364 73.472 275.164 71.968 273.1 71.968C271.068 71.968 269.452 73.52 269.452 76.192C269.452 78.544 270.908 80.128 273.068 80.128ZM270.764 75.344C270.86 73.856 271.836 72.912 273.1 72.912C274.364 72.912 275.148 73.824 275.276 75.344H270.764ZM279.511 80V74.592C280.167 73.648 280.999 73.008 282.007 73.008C282.903 73.008 283.319 73.456 283.319 74.4V80H284.567V74.416C284.567 72.8 283.847 71.968 282.375 71.968C280.967 71.968 279.991 72.896 279.447 73.68V72.112H278.263V80H279.511ZM289.142 80.112C289.574 80.112 290.054 80.064 290.486 79.984V79.008C290.198 79.056 289.734 79.104 289.366 79.104C288.694 79.088 288.262 78.72 288.262 77.888V73.104H290.038V72.112H288.262V70.048H287.126L287.062 72.112H285.766V73.104H287.046V77.824C287.046 79.456 287.814 80.112 289.142 80.112ZM296.872 70.72V69.312H295.512V70.72H296.872ZM296.824 80V72.112H295.576V80H296.824ZM301.743 80.128C303.663 80.128 304.911 79.152 304.911 77.696C304.911 76.128 303.535 75.68 301.919 75.36C300.655 75.088 299.711 74.928 299.711 74.064C299.711 73.344 300.431 72.912 301.487 72.912C302.559 72.912 303.279 73.392 303.583 74.224L304.687 73.984C304.287 72.752 303.263 71.968 301.487 71.968C299.727 71.968 298.559 72.848 298.559 74.144C298.559 75.696 299.919 76.112 301.535 76.416C302.703 76.672 303.759 76.864 303.759 77.808C303.759 78.64 302.991 79.2 301.743 79.2C300.383 79.2 299.503 78.576 299.247 77.648L298.127 77.872C298.511 79.312 299.743 80.128 301.743 80.128ZM312.678 80.128C313.734 80.128 314.694 79.664 315.318 78.656V80H316.47V72.112H315.238V77.712C314.71 78.672 313.942 79.184 313.062 79.184C311.958 79.184 311.494 78.688 311.494 77.44V72.112H310.246V77.408C310.246 79.392 311.254 80.128 312.678 80.128ZM321.352 80.128C323.272 80.128 324.52 79.152 324.52 77.696C324.52 76.128 323.144 75.68 321.528 75.36C320.264 75.088 319.32 74.928 319.32 74.064C319.32 73.344 320.04 72.912 321.096 72.912C322.168 72.912 322.888 73.392 323.192 74.224L324.296 73.984C323.896 72.752 322.872 71.968 321.096 71.968C319.336 71.968 318.168 72.848 318.168 74.144C318.168 75.696 319.528 76.112 321.144 76.416C322.312 76.672 323.368 76.864 323.368 77.808C323.368 78.64 322.6 79.2 321.352 79.2C319.992 79.2 319.112 78.576 318.856 77.648L317.736 77.872C318.12 79.312 319.352 80.128 321.352 80.128ZM329.224 80.128C330.792 80.128 332.008 79.312 332.552 77.792L331.464 77.632C331.016 78.8 330.2 79.184 329.336 79.184C327.8 79.184 326.904 78.176 326.872 76.192H332.696C332.68 76.016 332.696 75.84 332.68 75.664C332.52 73.472 331.32 71.968 329.256 71.968C327.224 71.968 325.608 73.52 325.608 76.192C325.608 78.544 327.064 80.128 329.224 80.128ZM326.92 75.344C327.016 73.856 327.992 72.912 329.256 72.912C330.52 72.912 331.304 73.824 331.432 75.344H326.92ZM336.835 80.128C337.987 80.128 338.787 79.664 339.411 78.8V80H340.579V69.328H339.379V73.184C339.011 72.656 338.259 71.968 337.059 71.968C335.043 71.968 333.827 73.744 333.827 76.08C333.827 78.656 334.931 80.128 336.835 80.128ZM337.171 79.184C335.859 79.184 335.123 78.272 335.123 76.08C335.123 74.064 335.827 72.944 337.251 72.944C338.419 72.944 338.963 73.616 339.363 74.368V77.584C339.027 78.464 338.355 79.184 337.171 79.184ZM348.06 80V73.056H349.98V72.112H348.06C348.06 72.064 348.06 71.728 348.06 71.36C348.06 70.48 348.444 70.032 349.404 70.032C349.612 70.032 350.108 70.064 350.444 70.112V69.12C350.14 69.072 349.612 69.024 349.308 69.024C347.66 69.024 346.828 69.776 346.828 71.328C346.828 71.44 346.828 72 346.828 72.112H345.436V73.056H346.828V80H348.06ZM354.034 80.128C355.986 80.128 357.602 78.512 357.602 76.032C357.602 73.6 356.194 71.968 354.034 71.968C352.098 71.968 350.498 73.552 350.498 76.016C350.498 78.512 352.002 80.128 354.034 80.128ZM354.018 79.2C352.69 79.2 351.81 78.016 351.81 76.032C351.81 74 352.77 72.944 354.018 72.944C355.33 72.944 356.29 73.968 356.29 76.016C356.29 78.144 355.314 79.2 354.018 79.2ZM360.636 80V74.848C361.292 73.744 362.22 73.104 363.148 73.104C363.244 73.104 363.404 73.104 363.5 73.12V71.984C363.372 71.968 363.276 71.968 363.132 71.968C362.012 71.968 361.084 72.88 360.572 73.808V72.112H359.388V80H360.636ZM369.666 80V74.592C370.386 73.584 371.042 72.992 371.954 72.992C372.722 72.992 373.122 73.52 373.122 74.464V80H374.338V74.608C374.834 73.824 375.65 73.024 376.626 73.024C377.394 73.024 377.826 73.456 377.826 74.48V80H379.058V74.4C379.058 73.76 378.898 73.248 378.658 72.88C378.338 72.288 377.794 71.984 376.978 71.984C375.73 71.984 374.802 72.88 374.258 73.744C374.162 72.624 373.426 71.968 372.274 71.968C371.138 71.968 370.098 72.912 369.634 73.696V72.112H368.434V80H369.666ZM384.427 80.128C385.995 80.128 387.211 79.312 387.755 77.792L386.667 77.632C386.219 78.8 385.403 79.184 384.539 79.184C383.003 79.184 382.107 78.176 382.075 76.192H387.899C387.883 76.016 387.899 75.84 387.883 75.664C387.723 73.472 386.523 71.968 384.459 71.968C382.427 71.968 380.811 73.52 380.811 76.192C380.811 78.544 382.267 80.128 384.427 80.128ZM382.123 75.344C382.219 73.856 383.195 72.912 384.459 72.912C385.723 72.912 386.507 73.824 386.635 75.344H382.123ZM392.118 80.128C394.038 80.128 395.286 79.152 395.286 77.696C395.286 76.128 393.91 75.68 392.294 75.36C391.03 75.088 390.086 74.928 390.086 74.064C390.086 73.344 390.806 72.912 391.862 72.912C392.934 72.912 393.654 73.392 393.958 74.224L395.062 73.984C394.662 72.752 393.638 71.968 391.862 71.968C390.102 71.968 388.934 72.848 388.934 74.144C388.934 75.696 390.294 76.112 391.91 76.416C393.078 76.672 394.134 76.864 394.134 77.808C394.134 78.64 393.366 79.2 392.118 79.2C390.758 79.2 389.878 78.576 389.622 77.648L388.502 77.872C388.886 79.312 390.118 80.128 392.118 80.128ZM399.462 80.128C401.382 80.128 402.63 79.152 402.63 77.696C402.63 76.128 401.254 75.68 399.638 75.36C398.374 75.088 397.43 74.928 397.43 74.064C397.43 73.344 398.15 72.912 399.206 72.912C400.278 72.912 400.998 73.392 401.302 74.224L402.406 73.984C402.006 72.752 400.982 71.968 399.206 71.968C397.446 71.968 396.278 72.848 396.278 74.144C396.278 75.696 397.638 76.112 399.254 76.416C400.422 76.672 401.478 76.864 401.478 77.808C401.478 78.64 400.71 79.2 399.462 79.2C398.102 79.2 397.222 78.576 396.966 77.648L395.846 77.872C396.23 79.312 397.462 80.128 399.462 80.128ZM406.197 80.096C407.669 80.096 408.597 79.536 409.221 78.672C409.205 79.072 409.269 79.728 409.365 80H410.549C410.421 79.504 410.373 78.96 410.373 78.464V74.88C410.373 72.896 409.509 71.968 407.269 71.968C405.397 71.968 404.165 72.736 403.877 74.176L405.029 74.304C405.285 73.296 405.957 72.944 407.237 72.944C408.565 72.944 409.077 73.408 409.173 74.272C409.205 74.464 409.205 74.736 409.205 75.008C408.581 75.024 408.053 75.024 407.413 75.104C405.253 75.36 403.685 76.208 403.685 77.92C403.685 79.36 404.805 80.096 406.197 80.096ZM406.565 79.184C405.509 79.184 404.981 78.704 404.981 77.792C404.981 76.8 405.861 76.112 407.573 75.888C408.069 75.824 408.645 75.824 409.205 75.824V77.456C408.869 78.272 408.069 79.184 406.565 79.184ZM415.675 82.976C418.235 82.976 419.531 82.016 419.531 80.64C419.531 79.344 418.635 78.816 416.123 78.768C414.523 78.72 413.531 78.72 413.531 78.016C413.531 77.536 413.979 77.232 414.395 77.232C414.523 77.264 415.035 77.376 415.547 77.376C417.339 77.376 418.427 76.24 418.427 74.672C418.427 73.856 418.123 73.232 417.707 72.864C417.835 72.288 418.171 71.952 418.971 71.968C419.067 71.968 419.147 71.984 419.243 72L419.227 70.96C419.179 70.96 419.083 70.96 419.035 70.96C417.691 70.944 417.259 71.488 417.067 72.352C416.587 72.096 416.011 71.968 415.419 71.968C413.835 71.968 412.475 73.056 412.475 74.672C412.475 75.632 412.859 76.448 413.627 76.848C412.923 77.04 412.379 77.52 412.379 78.192C412.379 78.8 412.699 79.248 413.499 79.472C412.539 79.712 411.963 80.304 411.963 81.088C411.963 82.304 413.243 82.976 415.675 82.976ZM415.483 76.544C414.411 76.544 413.707 75.904 413.707 74.672C413.707 73.68 414.315 72.864 415.483 72.864C416.667 72.864 417.259 73.728 417.259 74.688C417.259 75.872 416.603 76.544 415.483 76.544ZM415.579 82.144C413.819 82.144 413.099 81.696 413.099 80.944C413.099 80.24 413.579 79.92 414.203 79.744C417.755 79.824 418.347 80 418.347 80.8C418.347 81.6 417.339 82.144 415.579 82.144ZM421.934 70.72V69.312H420.574V70.72H421.934ZM421.886 80V72.112H420.638V80H421.886ZM425.557 80V74.592C426.213 73.648 427.045 73.008 428.053 73.008C428.949 73.008 429.365 73.456 429.365 74.4V80H430.613V74.416C430.613 72.8 429.893 71.968 428.421 71.968C427.013 71.968 426.037 72.896 425.493 73.68V72.112H424.309V80H425.557ZM435.831 82.976C438.391 82.976 439.687 82.016 439.687 80.64C439.687 79.344 438.791 78.816 436.279 78.768C434.679 78.72 433.687 78.72 433.687 78.016C433.687 77.536 434.135 77.232 434.551 77.232C434.679 77.264 435.191 77.376 435.703 77.376C437.495 77.376 438.583 76.24 438.583 74.672C438.583 73.856 438.279 73.232 437.863 72.864C437.991 72.288 438.327 71.952 439.127 71.968C439.223 71.968 439.303 71.984 439.399 72L439.383 70.96C439.335 70.96 439.239 70.96 439.191 70.96C437.847 70.944 437.415 71.488 437.223 72.352C436.743 72.096 436.167 71.968 435.575 71.968C433.991 71.968 432.631 73.056 432.631 74.672C432.631 75.632 433.015 76.448 433.783 76.848C433.079 77.04 432.535 77.52 432.535 78.192C432.535 78.8 432.855 79.248 433.655 79.472C432.695 79.712 432.119 80.304 432.119 81.088C432.119 82.304 433.399 82.976 435.831 82.976ZM435.639 76.544C434.567 76.544 433.863 75.904 433.863 74.672C433.863 73.68 434.471 72.864 435.639 72.864C436.823 72.864 437.415 73.728 437.415 74.688C437.415 75.872 436.759 76.544 435.639 76.544ZM435.735 82.144C433.975 82.144 433.255 81.696 433.255 80.944C433.255 80.24 433.735 79.92 434.359 79.744C437.911 79.824 438.503 80 438.503 80.8C438.503 81.6 437.495 82.144 435.735 82.144Z" fill="white"/>
<circle cx="523" cy="74" r="15.5" fill="white" stroke="#D5D5D5"/>
<path d="M523 72.586L527.293 68.293L528.707 69.707L524.414 74L528.707 78.293L527.293 79.707L523 75.414L518.707 79.707L517.293 78.293L521.586 74L517.293 69.707L518.707 68.293L523 72.586Z" fill="#111111"/>
<rect width="504" height="48" transform="translate(51 146)" fill="#1955A5"/>
<path d="M75.4831 163.694C75.6483 163.786 75.7844 163.922 75.8756 164.087L82.1818 175.517C82.4486 176 82.2728 176.609 81.7893 176.876C81.6413 176.957 81.4751 177 81.3062 177H68.6938C68.1416 177 67.6938 176.552 67.6938 176C67.6938 175.831 67.7367 175.665 67.8183 175.517L74.1244 164.087C74.3912 163.603 74.9995 163.428 75.4831 163.694ZM76 173.5H74.092V175.336H76V173.5ZM76.204 167H73.9L74.464 172.532H75.616L76.204 167Z" fill="white"/>
<path d="M90.696 176V171.552H94.008V176H96.632V165.328H94.008V169.424H90.696V165.328H88.056V176H90.696ZM102.28 176.128C104.328 176.128 105.64 175.136 106.168 173.632L104.104 173.36C103.816 174.144 103.304 174.544 102.504 174.544C101.528 174.544 100.792 173.92 100.76 172.496H106.248C106.264 172.32 106.264 172.192 106.264 172.016C106.2 169.552 104.744 167.92 102.264 167.92C100.056 167.92 98.1675 169.584 98.1675 172.144C98.1675 174.56 99.8955 176.128 102.28 176.128ZM100.792 171.2C100.856 170.112 101.496 169.472 102.296 169.472C103.224 169.472 103.688 170.128 103.768 171.2H100.792ZM110.159 176V165.328H107.663V176H110.159ZM114.597 176V165.328H112.101V176H114.597ZM120.09 176.128C122.57 176.128 124.234 174.368 124.234 172.048C124.234 169.584 122.602 167.92 120.138 167.92C117.786 167.92 116.058 169.632 116.058 172.096C116.058 174.416 117.722 176.128 120.09 176.128ZM120.17 174.528C119.178 174.528 118.698 173.744 118.698 172.016C118.698 170.336 119.21 169.568 120.154 169.568C121.13 169.568 121.578 170.352 121.578 172.016C121.578 173.76 121.082 174.528 120.17 174.528ZM128.207 170.56V168.064H125.615V170.56H128.207ZM128.207 176V173.504H125.615V176H128.207ZM136.513 176H137.841V166.464H140.865V176H142.113V170.608C142.769 169.664 143.553 169.008 144.657 169.008C145.457 169.008 145.937 169.456 145.937 170.416V176H147.185V170.32C147.185 169.024 146.609 167.968 145.009 167.968C143.537 167.968 142.577 168.848 142.065 169.664V165.312L133.457 165.328V166.464H136.513V176ZM150.887 166.72V165.312H149.527V166.72H150.887ZM150.839 176V168.112H149.591V176H150.839ZM155.759 176.128C157.679 176.128 158.927 175.152 158.927 173.696C158.927 172.128 157.551 171.68 155.935 171.36C154.671 171.088 153.727 170.928 153.727 170.064C153.727 169.344 154.447 168.912 155.503 168.912C156.575 168.912 157.295 169.392 157.599 170.224L158.703 169.984C158.303 168.752 157.279 167.968 155.503 167.968C153.743 167.968 152.575 168.848 152.575 170.144C152.575 171.696 153.935 172.112 155.551 172.416C156.719 172.672 157.775 172.864 157.775 173.808C157.775 174.64 157.007 175.2 155.759 175.2C154.399 175.2 153.519 174.576 153.263 173.648L152.143 173.872C152.527 175.312 153.759 176.128 155.759 176.128ZM167.926 176.112C169.718 176.112 171.014 174.752 171.014 172.032C171.014 169.392 169.91 167.968 168.022 167.968C166.886 167.968 165.878 168.752 165.478 169.616V165.328H164.294V176H164.982L165.382 174.688C165.894 175.584 166.742 176.112 167.926 176.112ZM167.686 175.216C166.422 175.216 165.494 174.272 165.494 172.624V170.72C165.926 169.808 166.582 168.96 167.734 168.96C169.062 168.96 169.734 170 169.734 172.064C169.734 174.272 169.03 175.216 167.686 175.216ZM174.713 176.096C176.185 176.096 177.113 175.536 177.737 174.672C177.721 175.072 177.785 175.728 177.881 176H179.065C178.937 175.504 178.889 174.96 178.889 174.464V170.88C178.889 168.896 178.025 167.968 175.785 167.968C173.913 167.968 172.681 168.736 172.393 170.176L173.545 170.304C173.801 169.296 174.473 168.944 175.753 168.944C177.081 168.944 177.593 169.408 177.689 170.272C177.721 170.464 177.721 170.736 177.721 171.008C177.097 171.024 176.569 171.024 175.929 171.104C173.769 171.36 172.201 172.208 172.201 173.92C172.201 175.36 173.321 176.096 174.713 176.096ZM175.081 175.184C174.025 175.184 173.497 174.704 173.497 173.792C173.497 172.8 174.377 172.112 176.089 171.888C176.585 171.824 177.161 171.824 177.721 171.824V173.456C177.385 174.272 176.585 175.184 175.081 175.184ZM182.511 176V170.592C183.167 169.648 183.999 169.008 185.007 169.008C185.903 169.008 186.319 169.456 186.319 170.4V176H187.567V170.416C187.567 168.8 186.847 167.968 185.375 167.968C183.967 167.968 182.991 168.896 182.447 169.68V168.112H181.263V176H182.511ZM191.182 176V170.592C191.838 169.648 192.67 169.008 193.678 169.008C194.574 169.008 194.99 169.456 194.99 170.4V176H196.238V170.416C196.238 168.8 195.518 167.968 194.046 167.968C192.638 167.968 191.662 168.896 191.118 169.68V168.112H189.934V176H191.182ZM201.63 176.128C203.198 176.128 204.414 175.312 204.958 173.792L203.87 173.632C203.422 174.8 202.606 175.184 201.742 175.184C200.206 175.184 199.31 174.176 199.278 172.192H205.102C205.086 172.016 205.102 171.84 205.086 171.664C204.926 169.472 203.726 167.968 201.662 167.968C199.63 167.968 198.014 169.52 198.014 172.192C198.014 174.544 199.47 176.128 201.63 176.128ZM199.326 171.344C199.422 169.856 200.398 168.912 201.662 168.912C202.926 168.912 203.71 169.824 203.838 171.344H199.326ZM208.073 176V170.848C208.729 169.744 209.657 169.104 210.585 169.104C210.681 169.104 210.841 169.104 210.937 169.12V167.984C210.809 167.968 210.713 167.968 210.569 167.968C209.449 167.968 208.521 168.88 208.009 169.808V168.112H206.825V176H208.073ZM218.656 176.128C220.224 176.128 221.392 175.216 221.664 173.44L220.576 173.328C220.336 174.64 219.728 175.2 218.688 175.2C217.504 175.2 216.576 174.224 216.576 172.048C216.576 170.08 217.344 168.96 218.608 168.96C219.696 168.96 220.32 169.664 220.512 170.96L221.68 170.816C221.328 168.88 220.272 167.968 218.592 167.968C216.592 167.968 215.264 169.728 215.264 172.016C215.264 174.656 216.72 176.128 218.656 176.128ZM226.253 176.128C228.205 176.128 229.821 174.512 229.821 172.032C229.821 169.6 228.413 167.968 226.253 167.968C224.317 167.968 222.717 169.552 222.717 172.016C222.717 174.512 224.221 176.128 226.253 176.128ZM226.237 175.2C224.909 175.2 224.029 174.016 224.029 172.032C224.029 170 224.989 168.944 226.237 168.944C227.549 168.944 228.509 169.968 228.509 172.016C228.509 174.144 227.533 175.2 226.237 175.2ZM232.838 176V170.592C233.558 169.584 234.214 168.992 235.126 168.992C235.894 168.992 236.294 169.52 236.294 170.464V176H237.51V170.608C238.006 169.824 238.822 169.024 239.798 169.024C240.566 169.024 240.998 169.456 240.998 170.48V176H242.23V170.4C242.23 169.76 242.07 169.248 241.83 168.88C241.51 168.288 240.966 167.984 240.15 167.984C238.902 167.984 237.974 168.88 237.43 169.744C237.334 168.624 236.598 167.968 235.446 167.968C234.31 167.968 233.27 168.912 232.806 169.696V168.112H231.606V176H232.838ZM248.271 176.112C249.855 176.112 251.279 174.72 251.279 172.048C251.279 169.2 250.063 167.968 248.303 167.968C247.039 167.968 246.239 168.736 245.759 169.504V168.112H244.575V178.672H245.807V174.96C246.287 175.536 247.119 176.112 248.271 176.112ZM247.935 175.2C246.799 175.2 246.223 174.496 245.807 173.904V170.576C246.367 169.472 247.103 168.992 248.015 168.992C249.375 168.992 249.983 169.968 249.983 172.08C249.983 174.352 249.183 175.2 247.935 175.2ZM256.019 176.128C257.971 176.128 259.587 174.512 259.587 172.032C259.587 169.6 258.179 167.968 256.019 167.968C254.083 167.968 252.483 169.552 252.483 172.016C252.483 174.512 253.987 176.128 256.019 176.128ZM256.003 175.2C254.675 175.2 253.795 174.016 253.795 172.032C253.795 170 254.755 168.944 256.003 168.944C257.315 168.944 258.275 169.968 258.275 172.016C258.275 174.144 257.299 175.2 256.003 175.2ZM262.62 176V170.592C263.276 169.648 264.108 169.008 265.116 169.008C266.012 169.008 266.428 169.456 266.428 170.4V176H267.676V170.416C267.676 168.8 266.956 167.968 265.484 167.968C264.076 167.968 263.1 168.896 262.556 169.68V168.112H261.372V176H262.62ZM273.068 176.128C274.636 176.128 275.852 175.312 276.396 173.792L275.308 173.632C274.86 174.8 274.044 175.184 273.18 175.184C271.644 175.184 270.748 174.176 270.716 172.192H276.54C276.524 172.016 276.54 171.84 276.524 171.664C276.364 169.472 275.164 167.968 273.1 167.968C271.068 167.968 269.452 169.52 269.452 172.192C269.452 174.544 270.908 176.128 273.068 176.128ZM270.764 171.344C270.86 169.856 271.836 168.912 273.1 168.912C274.364 168.912 275.148 169.824 275.276 171.344H270.764ZM279.511 176V170.592C280.167 169.648 280.999 169.008 282.007 169.008C282.903 169.008 283.319 169.456 283.319 170.4V176H284.567V170.416C284.567 168.8 283.847 167.968 282.375 167.968C280.967 167.968 279.991 168.896 279.447 169.68V168.112H278.263V176H279.511ZM289.142 176.112C289.574 176.112 290.054 176.064 290.486 175.984V175.008C290.198 175.056 289.734 175.104 289.366 175.104C288.694 175.088 288.262 174.72 288.262 173.888V169.104H290.038V168.112H288.262V166.048H287.126L287.062 168.112H285.766V169.104H287.046V173.824C287.046 175.456 287.814 176.112 289.142 176.112ZM296.872 166.72V165.312H295.512V166.72H296.872ZM296.824 176V168.112H295.576V176H296.824ZM301.743 176.128C303.663 176.128 304.911 175.152 304.911 173.696C304.911 172.128 303.535 171.68 301.919 171.36C300.655 171.088 299.711 170.928 299.711 170.064C299.711 169.344 300.431 168.912 301.487 168.912C302.559 168.912 303.279 169.392 303.583 170.224L304.687 169.984C304.287 168.752 303.263 167.968 301.487 167.968C299.727 167.968 298.559 168.848 298.559 170.144C298.559 171.696 299.919 172.112 301.535 172.416C302.703 172.672 303.759 172.864 303.759 173.808C303.759 174.64 302.991 175.2 301.743 175.2C300.383 175.2 299.503 174.576 299.247 173.648L298.127 173.872C298.511 175.312 299.743 176.128 301.743 176.128ZM312.678 176.128C313.734 176.128 314.694 175.664 315.318 174.656V176H316.47V168.112H315.238V173.712C314.71 174.672 313.942 175.184 313.062 175.184C311.958 175.184 311.494 174.688 311.494 173.44V168.112H310.246V173.408C310.246 175.392 311.254 176.128 312.678 176.128ZM321.352 176.128C323.272 176.128 324.52 175.152 324.52 173.696C324.52 172.128 323.144 171.68 321.528 171.36C320.264 171.088 319.32 170.928 319.32 170.064C319.32 169.344 320.04 168.912 321.096 168.912C322.168 168.912 322.888 169.392 323.192 170.224L324.296 169.984C323.896 168.752 322.872 167.968 321.096 167.968C319.336 167.968 318.168 168.848 318.168 170.144C318.168 171.696 319.528 172.112 321.144 172.416C322.312 172.672 323.368 172.864 323.368 173.808C323.368 174.64 322.6 175.2 321.352 175.2C319.992 175.2 319.112 174.576 318.856 173.648L317.736 173.872C318.12 175.312 319.352 176.128 321.352 176.128ZM329.224 176.128C330.792 176.128 332.008 175.312 332.552 173.792L331.464 173.632C331.016 174.8 330.2 175.184 329.336 175.184C327.8 175.184 326.904 174.176 326.872 172.192H332.696C332.68 172.016 332.696 171.84 332.68 171.664C332.52 169.472 331.32 167.968 329.256 167.968C327.224 167.968 325.608 169.52 325.608 172.192C325.608 174.544 327.064 176.128 329.224 176.128ZM326.92 171.344C327.016 169.856 327.992 168.912 329.256 168.912C330.52 168.912 331.304 169.824 331.432 171.344H326.92ZM336.835 176.128C337.987 176.128 338.787 175.664 339.411 174.8V176H340.579V165.328H339.379V169.184C339.011 168.656 338.259 167.968 337.059 167.968C335.043 167.968 333.827 169.744 333.827 172.08C333.827 174.656 334.931 176.128 336.835 176.128ZM337.171 175.184C335.859 175.184 335.123 174.272 335.123 172.08C335.123 170.064 335.827 168.944 337.251 168.944C338.419 168.944 338.963 169.616 339.363 170.368V173.584C339.027 174.464 338.355 175.184 337.171 175.184ZM348.06 176V169.056H349.98V168.112H348.06C348.06 168.064 348.06 167.728 348.06 167.36C348.06 166.48 348.444 166.032 349.404 166.032C349.612 166.032 350.108 166.064 350.444 166.112V165.12C350.14 165.072 349.612 165.024 349.308 165.024C347.66 165.024 346.828 165.776 346.828 167.328C346.828 167.44 346.828 168 346.828 168.112H345.436V169.056H346.828V176H348.06ZM354.034 176.128C355.986 176.128 357.602 174.512 357.602 172.032C357.602 169.6 356.194 167.968 354.034 167.968C352.098 167.968 350.498 169.552 350.498 172.016C350.498 174.512 352.002 176.128 354.034 176.128ZM354.018 175.2C352.69 175.2 351.81 174.016 351.81 172.032C351.81 170 352.77 168.944 354.018 168.944C355.33 168.944 356.29 169.968 356.29 172.016C356.29 174.144 355.314 175.2 354.018 175.2ZM360.636 176V170.848C361.292 169.744 362.22 169.104 363.148 169.104C363.244 169.104 363.404 169.104 363.5 169.12V167.984C363.372 167.968 363.276 167.968 363.132 167.968C362.012 167.968 361.084 168.88 360.572 169.808V168.112H359.388V176H360.636ZM369.666 176V170.592C370.386 169.584 371.042 168.992 371.954 168.992C372.722 168.992 373.122 169.52 373.122 170.464V176H374.338V170.608C374.834 169.824 375.65 169.024 376.626 169.024C377.394 169.024 377.826 169.456 377.826 170.48V176H379.058V170.4C379.058 169.76 378.898 169.248 378.658 168.88C378.338 168.288 377.794 167.984 376.978 167.984C375.73 167.984 374.802 168.88 374.258 169.744C374.162 168.624 373.426 167.968 372.274 167.968C371.138 167.968 370.098 168.912 369.634 169.696V168.112H368.434V176H369.666ZM384.427 176.128C385.995 176.128 387.211 175.312 387.755 173.792L386.667 173.632C386.219 174.8 385.403 175.184 384.539 175.184C383.003 175.184 382.107 174.176 382.075 172.192H387.899C387.883 172.016 387.899 171.84 387.883 171.664C387.723 169.472 386.523 167.968 384.459 167.968C382.427 167.968 380.811 169.52 380.811 172.192C380.811 174.544 382.267 176.128 384.427 176.128ZM382.123 171.344C382.219 169.856 383.195 168.912 384.459 168.912C385.723 168.912 386.507 169.824 386.635 171.344H382.123ZM392.118 176.128C394.038 176.128 395.286 175.152 395.286 173.696C395.286 172.128 393.91 171.68 392.294 171.36C391.03 171.088 390.086 170.928 390.086 170.064C390.086 169.344 390.806 168.912 391.862 168.912C392.934 168.912 393.654 169.392 393.958 170.224L395.062 169.984C394.662 168.752 393.638 167.968 391.862 167.968C390.102 167.968 388.934 168.848 388.934 170.144C388.934 171.696 390.294 172.112 391.91 172.416C393.078 172.672 394.134 172.864 394.134 173.808C394.134 174.64 393.366 175.2 392.118 175.2C390.758 175.2 389.878 174.576 389.622 173.648L388.502 173.872C388.886 175.312 390.118 176.128 392.118 176.128ZM399.462 176.128C401.382 176.128 402.63 175.152 402.63 173.696C402.63 172.128 401.254 171.68 399.638 171.36C398.374 171.088 397.43 170.928 397.43 170.064C397.43 169.344 398.15 168.912 399.206 168.912C400.278 168.912 400.998 169.392 401.302 170.224L402.406 169.984C402.006 168.752 400.982 167.968 399.206 167.968C397.446 167.968 396.278 168.848 396.278 170.144C396.278 171.696 397.638 172.112 399.254 172.416C400.422 172.672 401.478 172.864 401.478 173.808C401.478 174.64 400.71 175.2 399.462 175.2C398.102 175.2 397.222 174.576 396.966 173.648L395.846 173.872C396.23 175.312 397.462 176.128 399.462 176.128ZM406.197 176.096C407.669 176.096 408.597 175.536 409.221 174.672C409.205 175.072 409.269 175.728 409.365 176H410.549C410.421 175.504 410.373 174.96 410.373 174.464V170.88C410.373 168.896 409.509 167.968 407.269 167.968C405.397 167.968 404.165 168.736 403.877 170.176L405.029 170.304C405.285 169.296 405.957 168.944 407.237 168.944C408.565 168.944 409.077 169.408 409.173 170.272C409.205 170.464 409.205 170.736 409.205 171.008C408.581 171.024 408.053 171.024 407.413 171.104C405.253 171.36 403.685 172.208 403.685 173.92C403.685 175.36 404.805 176.096 406.197 176.096ZM406.565 175.184C405.509 175.184 404.981 174.704 404.981 173.792C404.981 172.8 405.861 172.112 407.573 171.888C408.069 171.824 408.645 171.824 409.205 171.824V173.456C408.869 174.272 408.069 175.184 406.565 175.184ZM415.675 178.976C418.235 178.976 419.531 178.016 419.531 176.64C419.531 175.344 418.635 174.816 416.123 174.768C414.523 174.72 413.531 174.72 413.531 174.016C413.531 173.536 413.979 173.232 414.395 173.232C414.523 173.264 415.035 173.376 415.547 173.376C417.339 173.376 418.427 172.24 418.427 170.672C418.427 169.856 418.123 169.232 417.707 168.864C417.835 168.288 418.171 167.952 418.971 167.968C419.067 167.968 419.147 167.984 419.243 168L419.227 166.96C419.179 166.96 419.083 166.96 419.035 166.96C417.691 166.944 417.259 167.488 417.067 168.352C416.587 168.096 416.011 167.968 415.419 167.968C413.835 167.968 412.475 169.056 412.475 170.672C412.475 171.632 412.859 172.448 413.627 172.848C412.923 173.04 412.379 173.52 412.379 174.192C412.379 174.8 412.699 175.248 413.499 175.472C412.539 175.712 411.963 176.304 411.963 177.088C411.963 178.304 413.243 178.976 415.675 178.976ZM415.483 172.544C414.411 172.544 413.707 171.904 413.707 170.672C413.707 169.68 414.315 168.864 415.483 168.864C416.667 168.864 417.259 169.728 417.259 170.688C417.259 171.872 416.603 172.544 415.483 172.544ZM415.579 178.144C413.819 178.144 413.099 177.696 413.099 176.944C413.099 176.24 413.579 175.92 414.203 175.744C417.755 175.824 418.347 176 418.347 176.8C418.347 177.6 417.339 178.144 415.579 178.144ZM421.934 166.72V165.312H420.574V166.72H421.934ZM421.886 176V168.112H420.638V176H421.886ZM425.557 176V170.592C426.213 169.648 427.045 169.008 428.053 169.008C428.949 169.008 429.365 169.456 429.365 170.4V176H430.613V170.416C430.613 168.8 429.893 167.968 428.421 167.968C427.013 167.968 426.037 168.896 425.493 169.68V168.112H424.309V176H425.557ZM435.831 178.976C438.391 178.976 439.687 178.016 439.687 176.64C439.687 175.344 438.791 174.816 436.279 174.768C434.679 174.72 433.687 174.72 433.687 174.016C433.687 173.536 434.135 173.232 434.551 173.232C434.679 173.264 435.191 173.376 435.703 173.376C437.495 173.376 438.583 172.24 438.583 170.672C438.583 169.856 438.279 169.232 437.863 168.864C437.991 168.288 438.327 167.952 439.127 167.968C439.223 167.968 439.303 167.984 439.399 168L439.383 166.96C439.335 166.96 439.239 166.96 439.191 166.96C437.847 166.944 437.415 167.488 437.223 168.352C436.743 168.096 436.167 167.968 435.575 167.968C433.991 167.968 432.631 169.056 432.631 170.672C432.631 171.632 433.015 172.448 433.783 172.848C433.079 173.04 432.535 173.52 432.535 174.192C432.535 174.8 432.855 175.248 433.655 175.472C432.695 175.712 432.119 176.304 432.119 177.088C432.119 178.304 433.399 178.976 435.831 178.976ZM435.639 172.544C434.567 172.544 433.863 171.904 433.863 170.672C433.863 169.68 434.471 168.864 435.639 168.864C436.823 168.864 437.415 169.728 437.415 170.688C437.415 171.872 436.759 172.544 435.639 172.544ZM435.735 178.144C433.975 178.144 433.255 177.696 433.255 176.944C433.255 176.24 433.735 175.92 434.359 175.744C437.911 175.824 438.503 176 438.503 176.8C438.503 177.6 437.495 178.144 435.735 178.144Z" fill="white"/>
<path d="M18.5 42V106" stroke="#1745E8"/>
<rect y="66.5" width="38" height="18" rx="3" fill="#1745E8"/>
<path d="M9.38068 79.5994C11 79.6065 12.1044 78.5447 12.1009 77.0639C12.1044 75.7003 11.1527 74.7166 9.86364 74.7166C9.06463 74.7166 8.35795 75.1001 8.03125 75.7429H7.98153C7.98864 74.326 8.4858 73.4453 9.43395 73.4453C9.99148 73.4453 10.3928 73.7507 10.5099 74.2585H12.0263C11.8807 73.0618 10.8864 72.1278 9.43395 72.1278C7.63707 72.1278 6.48295 73.5838 6.47585 76.027C6.4723 78.6903 7.88565 79.5923 9.38068 79.5994ZM9.37358 78.392C8.66335 78.392 8.13778 77.8203 8.13778 77.1101C8.14134 76.4034 8.67756 75.8281 9.38423 75.8281C10.0945 75.8281 10.6129 76.3857 10.6094 77.1065C10.6129 77.8345 10.0838 78.392 9.37358 78.392ZM13.081 78.2216H16.5717V79.5H18.0419V78.2216H18.9439V76.9893H18.0419V72.2273H16.1172L13.081 77.0107V78.2216ZM16.6001 76.9893H14.6293V76.9325L16.5433 73.9034H16.6001V76.9893ZM19.9826 81.5455H21.4954V78.6264H21.5415C21.7511 79.081 22.2092 79.5888 23.0898 79.5888C24.3327 79.5888 25.3022 78.6051 25.3022 76.7798C25.3022 74.9048 24.2901 73.9744 23.0934 73.9744C22.1808 73.9744 21.744 74.5178 21.5415 74.9616H21.4741V74.0455H19.9826V81.5455ZM21.4634 76.7727C21.4634 75.7997 21.8754 75.1783 22.6104 75.1783C23.3597 75.1783 23.7575 75.8281 23.7575 76.7727C23.7575 77.7244 23.3526 78.3849 22.6104 78.3849C21.8825 78.3849 21.4634 77.7457 21.4634 76.7727ZM27.3699 74.0455H25.8074L27.3699 76.7727L25.7505 79.5H27.313L28.3713 77.6143L29.4473 79.5H30.992L29.3691 76.7727L30.9494 74.0455H29.3975L28.3713 75.9524L27.3699 74.0455Z" fill="white"/>
<line x1="15" y1="42.5" x2="22" y2="42.5" stroke="#1745E8"/>
<line x1="15" y1="105.5" x2="22" y2="105.5" stroke="#1745E8"/>
<path d="M51 9.5H555" stroke="#1745E8"/>
<rect x="281" width="44" height="18" rx="3" fill="#1745E8"/>
<path d="M288.68 13H290.278L291.215 9.5696H291.283L292.22 13H293.822L295.303 7.54545H293.776L292.945 11.1889H292.898L292.004 7.54545H290.501L289.621 11.2102H289.571L288.726 7.54545H287.195L288.68 13ZM299.508 9.41335H296.191V10.6136H299.508V9.41335ZM303.947 5.72727H302.502L300.701 6.86719V8.23082L302.367 7.18679H302.409V13H303.947V5.72727ZM308.527 13.1598C310.356 13.1598 311.46 11.7678 311.464 9.37074C311.467 6.99148 310.349 5.62784 308.527 5.62784C306.702 5.62784 305.594 6.98793 305.59 9.37074C305.583 11.7607 306.695 13.1562 308.527 13.1598ZM308.527 11.8849C307.692 11.8849 307.153 11.0469 307.156 9.37074C307.16 7.71946 307.696 6.88849 308.527 6.88849C309.354 6.88849 309.894 7.71946 309.894 9.37074C309.898 11.0469 309.358 11.8849 308.527 11.8849ZM315.412 13.1598C317.241 13.1598 318.345 11.7678 318.349 9.37074C318.352 6.99148 317.233 5.62784 315.412 5.62784C313.586 5.62784 312.479 6.98793 312.475 9.37074C312.468 11.7607 313.579 13.1562 315.412 13.1598ZM315.412 11.8849C314.577 11.8849 314.037 11.0469 314.041 9.37074C314.045 7.71946 314.581 6.88849 315.412 6.88849C316.239 6.88849 316.779 7.71946 316.779 9.37074C316.782 11.0469 316.243 11.8849 315.412 11.8849Z" fill="white"/>
<line x1="51.5" y1="13" x2="51.5" y2="6" stroke="#1745E8"/>
<line x1="554.5" y1="13" x2="554.5" y2="6" stroke="#1745E8"/>
<path d="M18.5 146V194" stroke="#1745E8"/>
<rect y="162.5" width="38" height="18" rx="3" fill="#1745E8"/>
<path d="M6.4794 174.222H9.97017V175.5H11.4403V174.222H12.3423V172.989H11.4403V168.227H9.51562L6.4794 173.011V174.222ZM9.99858 172.989H8.0277V172.933L9.94176 169.903H9.99858V172.989ZM16.0799 175.599C17.7205 175.599 18.8995 174.722 18.9031 173.543C18.8995 172.634 18.1999 171.892 17.3263 171.746V171.697C18.0863 171.54 18.6296 170.884 18.6332 170.085C18.6296 168.959 17.5501 168.128 16.0799 168.128C14.6062 168.128 13.5266 168.959 13.5302 170.085C13.5266 170.88 14.0629 171.54 14.837 171.697V171.746C13.9492 171.892 13.2567 172.634 13.2603 173.543C13.2567 174.722 14.4393 175.599 16.0799 175.599ZM16.0799 174.47C15.3484 174.47 14.8583 174.037 14.8583 173.423C14.8583 172.794 15.3732 172.339 16.0799 172.339C16.783 172.339 17.3015 172.794 17.3015 173.423C17.3015 174.04 16.8079 174.47 16.0799 174.47ZM16.0799 171.221C15.4656 171.221 15.0288 170.82 15.0288 170.244C15.0288 169.676 15.4585 169.286 16.0799 169.286C16.6978 169.286 17.131 169.68 17.131 170.244C17.131 170.82 16.6907 171.221 16.0799 171.221ZM19.9924 177.545H21.5051V174.626H21.5513C21.7608 175.081 22.2189 175.589 23.0996 175.589C24.3425 175.589 25.312 174.605 25.312 172.78C25.312 170.905 24.2999 169.974 23.1032 169.974C22.1905 169.974 21.7537 170.518 21.5513 170.962H21.4838V170.045H19.9924V177.545ZM21.4732 172.773C21.4732 171.8 21.8851 171.178 22.6202 171.178C23.3695 171.178 23.7672 171.828 23.7672 172.773C23.7672 173.724 23.3624 174.385 22.6202 174.385C21.8922 174.385 21.4732 173.746 21.4732 172.773ZM27.3796 170.045H25.8171L27.3796 172.773L25.7603 175.5H27.3228L28.381 173.614L29.457 175.5H31.0018L29.3789 172.773L30.9592 170.045H29.4073L28.381 171.952L27.3796 170.045Z" fill="white"/>
<line x1="15" y1="146.5" x2="22" y2="146.5" stroke="#1745E8"/>
<line x1="15" y1="193.5" x2="22" y2="193.5" stroke="#1745E8"/>
</svg>
