<svg width="557" height="401" viewBox="0 0 557 401" fill="none" xmlns="http://www.w3.org/2000/svg">
<g clip-path="url(#clip0)">
<path d="M57 154C57 152.895 57.8954 152 59 152H555C556.105 152 557 152.895 557 154V399C557 400.105 556.105 401 555 401H59C57.8954 401 57 400.105 57 399V154Z" fill="white"/>
<path d="M67.992 172V168.544H69.936C71.472 168.544 72.432 167.656 72.432 166.276C72.432 164.86 71.568 163.996 69.828 163.996H66.996V172H67.992ZM67.992 164.848H69.912C70.824 164.848 71.424 165.412 71.424 166.312C71.424 167.2 70.824 167.728 69.84 167.728H67.992V164.848ZM74.5631 172V163.996H73.6271V172H74.5631ZM77.7965 172.072C78.9005 172.072 79.5965 171.652 80.0645 171.004C80.0525 171.304 80.1005 171.796 80.1725 172H81.0605C80.9645 171.628 80.9285 171.22 80.9285 170.848V168.16C80.9285 166.672 80.2805 165.976 78.6005 165.976C77.1965 165.976 76.2725 166.552 76.0565 167.632L76.9205 167.728C77.1125 166.972 77.6165 166.708 78.5765 166.708C79.5725 166.708 79.9565 167.056 80.0285 167.704C80.0525 167.848 80.0525 168.052 80.0525 168.256C79.5845 168.268 79.1885 168.268 78.7085 168.328C77.0885 168.52 75.9125 169.156 75.9125 170.44C75.9125 171.52 76.7525 172.072 77.7965 172.072ZM78.0725 171.388C77.2805 171.388 76.8845 171.028 76.8845 170.344C76.8845 169.6 77.5445 169.084 78.8285 168.916C79.2005 168.868 79.6325 168.868 80.0525 168.868V170.092C79.8005 170.704 79.2005 171.388 78.0725 171.388ZM84.7966 172.096C85.9726 172.096 86.8486 171.412 87.0526 170.08L86.2366 169.996C86.0566 170.98 85.6006 171.4 84.8206 171.4C83.9326 171.4 83.2366 170.668 83.2366 169.036C83.2366 167.56 83.8126 166.72 84.7606 166.72C85.5766 166.72 86.0446 167.248 86.1886 168.22L87.0646 168.112C86.8006 166.66 86.0086 165.976 84.7486 165.976C83.2486 165.976 82.2526 167.296 82.2526 169.012C82.2526 170.992 83.3446 172.096 84.7966 172.096ZM90.5664 172.096C91.7424 172.096 92.6544 171.484 93.0624 170.344L92.2464 170.224C91.9104 171.1 91.2984 171.388 90.6504 171.388C89.4984 171.388 88.8264 170.632 88.8024 169.144H93.1704C93.1584 169.012 93.1704 168.88 93.1584 168.748C93.0384 167.104 92.1384 165.976 90.5904 165.976C89.0664 165.976 87.8544 167.14 87.8544 169.144C87.8544 170.908 88.9464 172.096 90.5664 172.096ZM88.8384 168.508C88.9104 167.392 89.6424 166.684 90.5904 166.684C91.5384 166.684 92.1264 167.368 92.2224 168.508H88.8384ZM95.3985 172V167.956C95.8905 167.248 96.4785 166.756 97.3065 166.756C97.9065 166.756 98.2665 167.092 98.2665 167.812V172H99.2025V167.74C99.2025 166.768 98.7705 165.976 97.5705 165.976C96.4665 165.976 95.7465 166.636 95.3625 167.248V163.996H94.4625V172H95.3985ZM103.174 172.096C104.638 172.096 105.85 170.884 105.85 169.024C105.85 167.2 104.794 165.976 103.174 165.976C101.722 165.976 100.522 167.164 100.522 169.012C100.522 170.884 101.65 172.096 103.174 172.096ZM103.162 171.4C102.166 171.4 101.506 170.512 101.506 169.024C101.506 167.5 102.226 166.708 103.162 166.708C104.146 166.708 104.866 167.476 104.866 169.012C104.866 170.608 104.134 171.4 103.162 171.4ZM108.149 172V163.996H107.213V172H108.149ZM111.778 172.096C112.642 172.096 113.242 171.748 113.71 171.1V172H114.586V163.996H113.686V166.888C113.41 166.492 112.846 165.976 111.946 165.976C110.434 165.976 109.522 167.308 109.522 169.06C109.522 170.992 110.35 172.096 111.778 172.096ZM112.03 171.388C111.046 171.388 110.494 170.704 110.494 169.06C110.494 167.548 111.022 166.708 112.09 166.708C112.966 166.708 113.374 167.212 113.674 167.776V170.188C113.422 170.848 112.918 171.388 112.03 171.388ZM118.68 172.096C119.856 172.096 120.768 171.484 121.176 170.344L120.36 170.224C120.024 171.1 119.412 171.388 118.764 171.388C117.612 171.388 116.94 170.632 116.916 169.144H121.284C121.272 169.012 121.284 168.88 121.272 168.748C121.152 167.104 120.252 165.976 118.704 165.976C117.18 165.976 115.968 167.14 115.968 169.144C115.968 170.908 117.06 172.096 118.68 172.096ZM116.952 168.508C117.024 167.392 117.756 166.684 118.704 166.684C119.652 166.684 120.24 167.368 120.336 168.508H116.952ZM123.512 172V168.136C124.004 167.308 124.7 166.828 125.396 166.828C125.468 166.828 125.588 166.828 125.66 166.84V165.988C125.564 165.976 125.492 165.976 125.384 165.976C124.544 165.976 123.848 166.66 123.464 167.356V166.084H122.576V172H123.512ZM131.869 172V164.848H134.161V163.996H128.581V164.848H130.873V172H131.869ZM136.375 172.096C137.551 172.096 138.463 171.484 138.871 170.344L138.055 170.224C137.719 171.1 137.107 171.388 136.459 171.388C135.307 171.388 134.635 170.632 134.611 169.144H138.979C138.967 169.012 138.979 168.88 138.967 168.748C138.847 167.104 137.947 165.976 136.399 165.976C134.875 165.976 133.663 167.14 133.663 169.144C133.663 170.908 134.755 172.096 136.375 172.096ZM134.647 168.508C134.719 167.392 135.451 166.684 136.399 166.684C137.347 166.684 137.935 167.368 138.031 168.508H134.647ZM140.322 172L141.822 169.792L141.942 169.576L142.074 169.792L143.622 172H144.654L142.458 168.808L144.294 166.084H143.394L142.158 167.896L142.002 168.136L141.846 167.896L140.61 166.084H139.554L141.486 168.904L139.41 172H140.322ZM147.201 172.084C147.525 172.084 147.885 172.048 148.209 171.988V171.256C147.993 171.292 147.645 171.328 147.369 171.328C146.865 171.316 146.541 171.04 146.541 170.416V166.828H147.873V166.084H146.541V164.536H145.689L145.641 166.084H144.669V166.828H145.629V170.368C145.629 171.592 146.205 172.084 147.201 172.084Z" fill="#3D73D5"/>
<path d="M533 174.414L538.293 179.707L539.707 178.293L533.707 172.293C533.519 172.106 533.265 172 533 172C532.735 172 532.48 172.106 532.293 172.293L526.293 178.293L527.707 179.707L533 174.414Z" fill="#666666"/>
<rect x="57" y="199" width="500" height="1" fill="#E9E9E9"/>
<rect width="500" height="40" transform="translate(57 200)" fill="white"/>
<path d="M69.592 227.176C72.024 227.176 73.464 225.992 73.464 224.104C73.464 222.312 72.248 221.56 70.008 220.968C67.816 220.392 67.032 219.992 67.032 218.808C67.032 217.896 67.912 217.224 69.256 217.224C70.6 217.224 71.624 217.928 71.944 219.128L73.176 218.744C72.664 217.08 71.272 216.12 69.272 216.12C67.208 216.12 65.704 217.224 65.704 218.952C65.704 220.84 67.192 221.544 69.16 222.04C70.92 222.504 72.152 222.888 72.152 224.216C72.152 225.432 71.176 226.088 69.608 226.088C67.736 226.088 66.824 225.32 66.328 224.024L65.192 224.472C65.896 226.248 67.272 227.176 69.592 227.176ZM77.2286 227.096C78.7006 227.096 79.6286 226.536 80.2526 225.672C80.2366 226.072 80.3006 226.728 80.3966 227H81.5806C81.4526 226.504 81.4046 225.96 81.4046 225.464V221.88C81.4046 219.896 80.5406 218.968 78.3006 218.968C76.4286 218.968 75.1966 219.736 74.9086 221.176L76.0606 221.304C76.3166 220.296 76.9886 219.944 78.2686 219.944C79.5966 219.944 80.1086 220.408 80.2046 221.272C80.2366 221.464 80.2366 221.736 80.2366 222.008C79.6126 222.024 79.0846 222.024 78.4446 222.104C76.2846 222.36 74.7166 223.208 74.7166 224.92C74.7166 226.36 75.8366 227.096 77.2286 227.096ZM77.5966 226.184C76.5406 226.184 76.0126 225.704 76.0126 224.792C76.0126 223.8 76.8926 223.112 78.6046 222.888C79.1006 222.824 79.6766 222.824 80.2366 222.824V224.456C79.9006 225.272 79.1006 226.184 77.5966 226.184ZM85.0101 227V221.592C85.7301 220.584 86.3861 219.992 87.2981 219.992C88.0661 219.992 88.4661 220.52 88.4661 221.464V227H89.6821V221.608C90.1781 220.824 90.9941 220.024 91.9701 220.024C92.7381 220.024 93.1701 220.456 93.1701 221.48V227H94.4021V221.4C94.4021 220.76 94.2421 220.248 94.0021 219.88C93.6821 219.288 93.1381 218.984 92.3221 218.984C91.0741 218.984 90.1461 219.88 89.6021 220.744C89.5061 219.624 88.7701 218.968 87.6181 218.968C86.4821 218.968 85.4421 219.912 84.9781 220.696V219.112H83.7781V227H85.0101ZM100.443 227.112C102.027 227.112 103.451 225.72 103.451 223.048C103.451 220.2 102.235 218.968 100.475 218.968C99.2109 218.968 98.4109 219.736 97.9309 220.504V219.112H96.7469V229.672H97.9789V225.96C98.4589 226.536 99.2909 227.112 100.443 227.112ZM100.107 226.2C98.9709 226.2 98.3949 225.496 97.9789 224.904V221.576C98.5389 220.472 99.2749 219.992 100.187 219.992C101.547 219.992 102.155 220.968 102.155 223.08C102.155 225.352 101.355 226.2 100.107 226.2ZM106.543 227V216.328H105.295V227H106.543ZM111.99 227.128C113.558 227.128 114.774 226.312 115.318 224.792L114.23 224.632C113.782 225.8 112.966 226.184 112.102 226.184C110.566 226.184 109.67 225.176 109.638 223.192H115.462C115.446 223.016 115.462 222.84 115.446 222.664C115.286 220.472 114.086 218.968 112.022 218.968C109.99 218.968 108.374 220.52 108.374 223.192C108.374 225.544 109.83 227.128 111.99 227.128ZM109.686 222.344C109.782 220.856 110.758 219.912 112.022 219.912C113.286 219.912 114.07 220.824 114.198 222.344H109.686ZM124.712 227.208C127.272 227.208 129.096 224.952 129.096 221.672C129.096 218.2 127.304 216.12 124.712 216.12C122.184 216.12 120.344 218.216 120.344 221.672C120.344 225.128 122.12 227.208 124.712 227.208ZM124.712 226.12C123.064 226.12 121.736 224.648 121.736 221.672C121.736 218.984 122.744 217.24 124.712 217.24C126.712 217.24 127.704 218.904 127.704 221.672C127.704 224.424 126.568 226.12 124.712 226.12ZM134.662 227.112C136.246 227.112 137.67 225.72 137.67 223.048C137.67 220.2 136.454 218.968 134.694 218.968C133.43 218.968 132.63 219.736 132.15 220.504V219.112H130.966V229.672H132.198V225.96C132.678 226.536 133.51 227.112 134.662 227.112ZM134.326 226.2C133.19 226.2 132.614 225.496 132.198 224.904V221.576C132.758 220.472 133.494 219.992 134.406 219.992C135.766 219.992 136.374 220.968 136.374 223.08C136.374 225.352 135.574 226.2 134.326 226.2ZM141.689 227.112C142.121 227.112 142.601 227.064 143.033 226.984V226.008C142.745 226.056 142.281 226.104 141.913 226.104C141.241 226.088 140.809 225.72 140.809 224.888V220.104H142.585V219.112H140.809V217.048H139.673L139.609 219.112H138.313V220.104H139.593V224.824C139.593 226.456 140.361 227.112 141.689 227.112ZM145.731 217.72V216.312H144.371V217.72H145.731ZM145.683 227V219.112H144.435V227H145.683ZM151.034 227.128C152.986 227.128 154.602 225.512 154.602 223.032C154.602 220.6 153.194 218.968 151.034 218.968C149.098 218.968 147.498 220.552 147.498 223.016C147.498 225.512 149.002 227.128 151.034 227.128ZM151.018 226.2C149.69 226.2 148.81 225.016 148.81 223.032C148.81 221 149.77 219.944 151.018 219.944C152.33 219.944 153.29 220.968 153.29 223.016C153.29 225.144 152.314 226.2 151.018 226.2ZM157.636 227V221.592C158.292 220.648 159.124 220.008 160.132 220.008C161.028 220.008 161.444 220.456 161.444 221.4V227H162.692V221.416C162.692 219.8 161.972 218.968 160.5 218.968C159.092 218.968 158.116 219.896 157.572 220.68V219.112H156.388V227H157.636Z" fill="#666666"/>
<rect width="500" height="40" transform="translate(57 240)" fill="white"/>
<path d="M69.592 267.176C72.024 267.176 73.464 265.992 73.464 264.104C73.464 262.312 72.248 261.56 70.008 260.968C67.816 260.392 67.032 259.992 67.032 258.808C67.032 257.896 67.912 257.224 69.256 257.224C70.6 257.224 71.624 257.928 71.944 259.128L73.176 258.744C72.664 257.08 71.272 256.12 69.272 256.12C67.208 256.12 65.704 257.224 65.704 258.952C65.704 260.84 67.192 261.544 69.16 262.04C70.92 262.504 72.152 262.888 72.152 264.216C72.152 265.432 71.176 266.088 69.608 266.088C67.736 266.088 66.824 265.32 66.328 264.024L65.192 264.472C65.896 266.248 67.272 267.176 69.592 267.176ZM77.2286 267.096C78.7006 267.096 79.6286 266.536 80.2526 265.672C80.2366 266.072 80.3006 266.728 80.3966 267H81.5806C81.4526 266.504 81.4046 265.96 81.4046 265.464V261.88C81.4046 259.896 80.5406 258.968 78.3006 258.968C76.4286 258.968 75.1966 259.736 74.9086 261.176L76.0606 261.304C76.3166 260.296 76.9886 259.944 78.2686 259.944C79.5966 259.944 80.1086 260.408 80.2046 261.272C80.2366 261.464 80.2366 261.736 80.2366 262.008C79.6126 262.024 79.0846 262.024 78.4446 262.104C76.2846 262.36 74.7166 263.208 74.7166 264.92C74.7166 266.36 75.8366 267.096 77.2286 267.096ZM77.5966 266.184C76.5406 266.184 76.0126 265.704 76.0126 264.792C76.0126 263.8 76.8926 263.112 78.6046 262.888C79.1006 262.824 79.6766 262.824 80.2366 262.824V264.456C79.9006 265.272 79.1006 266.184 77.5966 266.184ZM85.0101 267V261.592C85.7301 260.584 86.3861 259.992 87.2981 259.992C88.0661 259.992 88.4661 260.52 88.4661 261.464V267H89.6821V261.608C90.1781 260.824 90.9941 260.024 91.9701 260.024C92.7381 260.024 93.1701 260.456 93.1701 261.48V267H94.4021V261.4C94.4021 260.76 94.2421 260.248 94.0021 259.88C93.6821 259.288 93.1381 258.984 92.3221 258.984C91.0741 258.984 90.1461 259.88 89.6021 260.744C89.5061 259.624 88.7701 258.968 87.6181 258.968C86.4821 258.968 85.4421 259.912 84.9781 260.696V259.112H83.7781V267H85.0101ZM100.443 267.112C102.027 267.112 103.451 265.72 103.451 263.048C103.451 260.2 102.235 258.968 100.475 258.968C99.2109 258.968 98.4109 259.736 97.9309 260.504V259.112H96.7469V269.672H97.9789V265.96C98.4589 266.536 99.2909 267.112 100.443 267.112ZM100.107 266.2C98.9709 266.2 98.3949 265.496 97.9789 264.904V261.576C98.5389 260.472 99.2749 259.992 100.187 259.992C101.547 259.992 102.155 260.968 102.155 263.08C102.155 265.352 101.355 266.2 100.107 266.2ZM106.543 267V256.328H105.295V267H106.543ZM111.99 267.128C113.558 267.128 114.774 266.312 115.318 264.792L114.23 264.632C113.782 265.8 112.966 266.184 112.102 266.184C110.566 266.184 109.67 265.176 109.638 263.192H115.462C115.446 263.016 115.462 262.84 115.446 262.664C115.286 260.472 114.086 258.968 112.022 258.968C109.99 258.968 108.374 260.52 108.374 263.192C108.374 265.544 109.83 267.128 111.99 267.128ZM109.686 262.344C109.782 260.856 110.758 259.912 112.022 259.912C113.286 259.912 114.07 260.824 114.198 262.344H109.686ZM124.712 267.208C127.272 267.208 129.096 264.952 129.096 261.672C129.096 258.2 127.304 256.12 124.712 256.12C122.184 256.12 120.344 258.216 120.344 261.672C120.344 265.128 122.12 267.208 124.712 267.208ZM124.712 266.12C123.064 266.12 121.736 264.648 121.736 261.672C121.736 258.984 122.744 257.24 124.712 257.24C126.712 257.24 127.704 258.904 127.704 261.672C127.704 264.424 126.568 266.12 124.712 266.12ZM134.662 267.112C136.246 267.112 137.67 265.72 137.67 263.048C137.67 260.2 136.454 258.968 134.694 258.968C133.43 258.968 132.63 259.736 132.15 260.504V259.112H130.966V269.672H132.198V265.96C132.678 266.536 133.51 267.112 134.662 267.112ZM134.326 266.2C133.19 266.2 132.614 265.496 132.198 264.904V261.576C132.758 260.472 133.494 259.992 134.406 259.992C135.766 259.992 136.374 260.968 136.374 263.08C136.374 265.352 135.574 266.2 134.326 266.2ZM141.689 267.112C142.121 267.112 142.601 267.064 143.033 266.984V266.008C142.745 266.056 142.281 266.104 141.913 266.104C141.241 266.088 140.809 265.72 140.809 264.888V260.104H142.585V259.112H140.809V257.048H139.673L139.609 259.112H138.313V260.104H139.593V264.824C139.593 266.456 140.361 267.112 141.689 267.112ZM145.731 257.72V256.312H144.371V257.72H145.731ZM145.683 267V259.112H144.435V267H145.683ZM151.034 267.128C152.986 267.128 154.602 265.512 154.602 263.032C154.602 260.6 153.194 258.968 151.034 258.968C149.098 258.968 147.498 260.552 147.498 263.016C147.498 265.512 149.002 267.128 151.034 267.128ZM151.018 266.2C149.69 266.2 148.81 265.016 148.81 263.032C148.81 261 149.77 259.944 151.018 259.944C152.33 259.944 153.29 260.968 153.29 263.016C153.29 265.144 152.314 266.2 151.018 266.2ZM157.636 267V261.592C158.292 260.648 159.124 260.008 160.132 260.008C161.028 260.008 161.444 260.456 161.444 261.4V267H162.692V261.416C162.692 259.8 161.972 258.968 160.5 258.968C159.092 258.968 158.116 259.896 157.572 260.68V259.112H156.388V267H157.636Z" fill="#666666"/>
<rect width="500" height="40" transform="translate(57 280)" fill="white"/>
<path d="M69.592 307.176C72.024 307.176 73.464 305.992 73.464 304.104C73.464 302.312 72.248 301.56 70.008 300.968C67.816 300.392 67.032 299.992 67.032 298.808C67.032 297.896 67.912 297.224 69.256 297.224C70.6 297.224 71.624 297.928 71.944 299.128L73.176 298.744C72.664 297.08 71.272 296.12 69.272 296.12C67.208 296.12 65.704 297.224 65.704 298.952C65.704 300.84 67.192 301.544 69.16 302.04C70.92 302.504 72.152 302.888 72.152 304.216C72.152 305.432 71.176 306.088 69.608 306.088C67.736 306.088 66.824 305.32 66.328 304.024L65.192 304.472C65.896 306.248 67.272 307.176 69.592 307.176ZM77.2286 307.096C78.7006 307.096 79.6286 306.536 80.2526 305.672C80.2366 306.072 80.3006 306.728 80.3966 307H81.5806C81.4526 306.504 81.4046 305.96 81.4046 305.464V301.88C81.4046 299.896 80.5406 298.968 78.3006 298.968C76.4286 298.968 75.1966 299.736 74.9086 301.176L76.0606 301.304C76.3166 300.296 76.9886 299.944 78.2686 299.944C79.5966 299.944 80.1086 300.408 80.2046 301.272C80.2366 301.464 80.2366 301.736 80.2366 302.008C79.6126 302.024 79.0846 302.024 78.4446 302.104C76.2846 302.36 74.7166 303.208 74.7166 304.92C74.7166 306.36 75.8366 307.096 77.2286 307.096ZM77.5966 306.184C76.5406 306.184 76.0126 305.704 76.0126 304.792C76.0126 303.8 76.8926 303.112 78.6046 302.888C79.1006 302.824 79.6766 302.824 80.2366 302.824V304.456C79.9006 305.272 79.1006 306.184 77.5966 306.184ZM85.0101 307V301.592C85.7301 300.584 86.3861 299.992 87.2981 299.992C88.0661 299.992 88.4661 300.52 88.4661 301.464V307H89.6821V301.608C90.1781 300.824 90.9941 300.024 91.9701 300.024C92.7381 300.024 93.1701 300.456 93.1701 301.48V307H94.4021V301.4C94.4021 300.76 94.2421 300.248 94.0021 299.88C93.6821 299.288 93.1381 298.984 92.3221 298.984C91.0741 298.984 90.1461 299.88 89.6021 300.744C89.5061 299.624 88.7701 298.968 87.6181 298.968C86.4821 298.968 85.4421 299.912 84.9781 300.696V299.112H83.7781V307H85.0101ZM100.443 307.112C102.027 307.112 103.451 305.72 103.451 303.048C103.451 300.2 102.235 298.968 100.475 298.968C99.2109 298.968 98.4109 299.736 97.9309 300.504V299.112H96.7469V309.672H97.9789V305.96C98.4589 306.536 99.2909 307.112 100.443 307.112ZM100.107 306.2C98.9709 306.2 98.3949 305.496 97.9789 304.904V301.576C98.5389 300.472 99.2749 299.992 100.187 299.992C101.547 299.992 102.155 300.968 102.155 303.08C102.155 305.352 101.355 306.2 100.107 306.2ZM106.543 307V296.328H105.295V307H106.543ZM111.99 307.128C113.558 307.128 114.774 306.312 115.318 304.792L114.23 304.632C113.782 305.8 112.966 306.184 112.102 306.184C110.566 306.184 109.67 305.176 109.638 303.192H115.462C115.446 303.016 115.462 302.84 115.446 302.664C115.286 300.472 114.086 298.968 112.022 298.968C109.99 298.968 108.374 300.52 108.374 303.192C108.374 305.544 109.83 307.128 111.99 307.128ZM109.686 302.344C109.782 300.856 110.758 299.912 112.022 299.912C113.286 299.912 114.07 300.824 114.198 302.344H109.686ZM124.712 307.208C127.272 307.208 129.096 304.952 129.096 301.672C129.096 298.2 127.304 296.12 124.712 296.12C122.184 296.12 120.344 298.216 120.344 301.672C120.344 305.128 122.12 307.208 124.712 307.208ZM124.712 306.12C123.064 306.12 121.736 304.648 121.736 301.672C121.736 298.984 122.744 297.24 124.712 297.24C126.712 297.24 127.704 298.904 127.704 301.672C127.704 304.424 126.568 306.12 124.712 306.12ZM134.662 307.112C136.246 307.112 137.67 305.72 137.67 303.048C137.67 300.2 136.454 298.968 134.694 298.968C133.43 298.968 132.63 299.736 132.15 300.504V299.112H130.966V309.672H132.198V305.96C132.678 306.536 133.51 307.112 134.662 307.112ZM134.326 306.2C133.19 306.2 132.614 305.496 132.198 304.904V301.576C132.758 300.472 133.494 299.992 134.406 299.992C135.766 299.992 136.374 300.968 136.374 303.08C136.374 305.352 135.574 306.2 134.326 306.2ZM141.689 307.112C142.121 307.112 142.601 307.064 143.033 306.984V306.008C142.745 306.056 142.281 306.104 141.913 306.104C141.241 306.088 140.809 305.72 140.809 304.888V300.104H142.585V299.112H140.809V297.048H139.673L139.609 299.112H138.313V300.104H139.593V304.824C139.593 306.456 140.361 307.112 141.689 307.112ZM145.731 297.72V296.312H144.371V297.72H145.731ZM145.683 307V299.112H144.435V307H145.683ZM151.034 307.128C152.986 307.128 154.602 305.512 154.602 303.032C154.602 300.6 153.194 298.968 151.034 298.968C149.098 298.968 147.498 300.552 147.498 303.016C147.498 305.512 149.002 307.128 151.034 307.128ZM151.018 306.2C149.69 306.2 148.81 305.016 148.81 303.032C148.81 301 149.77 299.944 151.018 299.944C152.33 299.944 153.29 300.968 153.29 303.016C153.29 305.144 152.314 306.2 151.018 306.2ZM157.636 307V301.592C158.292 300.648 159.124 300.008 160.132 300.008C161.028 300.008 161.444 300.456 161.444 301.4V307H162.692V301.416C162.692 299.8 161.972 298.968 160.5 298.968C159.092 298.968 158.116 299.896 157.572 300.68V299.112H156.388V307H157.636Z" fill="#666666"/>
<rect width="500" height="40" transform="translate(57 320)" fill="white"/>
<path d="M69.592 347.176C72.024 347.176 73.464 345.992 73.464 344.104C73.464 342.312 72.248 341.56 70.008 340.968C67.816 340.392 67.032 339.992 67.032 338.808C67.032 337.896 67.912 337.224 69.256 337.224C70.6 337.224 71.624 337.928 71.944 339.128L73.176 338.744C72.664 337.08 71.272 336.12 69.272 336.12C67.208 336.12 65.704 337.224 65.704 338.952C65.704 340.84 67.192 341.544 69.16 342.04C70.92 342.504 72.152 342.888 72.152 344.216C72.152 345.432 71.176 346.088 69.608 346.088C67.736 346.088 66.824 345.32 66.328 344.024L65.192 344.472C65.896 346.248 67.272 347.176 69.592 347.176ZM77.2286 347.096C78.7006 347.096 79.6286 346.536 80.2526 345.672C80.2366 346.072 80.3006 346.728 80.3966 347H81.5806C81.4526 346.504 81.4046 345.96 81.4046 345.464V341.88C81.4046 339.896 80.5406 338.968 78.3006 338.968C76.4286 338.968 75.1966 339.736 74.9086 341.176L76.0606 341.304C76.3166 340.296 76.9886 339.944 78.2686 339.944C79.5966 339.944 80.1086 340.408 80.2046 341.272C80.2366 341.464 80.2366 341.736 80.2366 342.008C79.6126 342.024 79.0846 342.024 78.4446 342.104C76.2846 342.36 74.7166 343.208 74.7166 344.92C74.7166 346.36 75.8366 347.096 77.2286 347.096ZM77.5966 346.184C76.5406 346.184 76.0126 345.704 76.0126 344.792C76.0126 343.8 76.8926 343.112 78.6046 342.888C79.1006 342.824 79.6766 342.824 80.2366 342.824V344.456C79.9006 345.272 79.1006 346.184 77.5966 346.184ZM85.0101 347V341.592C85.7301 340.584 86.3861 339.992 87.2981 339.992C88.0661 339.992 88.4661 340.52 88.4661 341.464V347H89.6821V341.608C90.1781 340.824 90.9941 340.024 91.9701 340.024C92.7381 340.024 93.1701 340.456 93.1701 341.48V347H94.4021V341.4C94.4021 340.76 94.2421 340.248 94.0021 339.88C93.6821 339.288 93.1381 338.984 92.3221 338.984C91.0741 338.984 90.1461 339.88 89.6021 340.744C89.5061 339.624 88.7701 338.968 87.6181 338.968C86.4821 338.968 85.4421 339.912 84.9781 340.696V339.112H83.7781V347H85.0101ZM100.443 347.112C102.027 347.112 103.451 345.72 103.451 343.048C103.451 340.2 102.235 338.968 100.475 338.968C99.2109 338.968 98.4109 339.736 97.9309 340.504V339.112H96.7469V349.672H97.9789V345.96C98.4589 346.536 99.2909 347.112 100.443 347.112ZM100.107 346.2C98.9709 346.2 98.3949 345.496 97.9789 344.904V341.576C98.5389 340.472 99.2749 339.992 100.187 339.992C101.547 339.992 102.155 340.968 102.155 343.08C102.155 345.352 101.355 346.2 100.107 346.2ZM106.543 347V336.328H105.295V347H106.543ZM111.99 347.128C113.558 347.128 114.774 346.312 115.318 344.792L114.23 344.632C113.782 345.8 112.966 346.184 112.102 346.184C110.566 346.184 109.67 345.176 109.638 343.192H115.462C115.446 343.016 115.462 342.84 115.446 342.664C115.286 340.472 114.086 338.968 112.022 338.968C109.99 338.968 108.374 340.52 108.374 343.192C108.374 345.544 109.83 347.128 111.99 347.128ZM109.686 342.344C109.782 340.856 110.758 339.912 112.022 339.912C113.286 339.912 114.07 340.824 114.198 342.344H109.686ZM124.712 347.208C127.272 347.208 129.096 344.952 129.096 341.672C129.096 338.2 127.304 336.12 124.712 336.12C122.184 336.12 120.344 338.216 120.344 341.672C120.344 345.128 122.12 347.208 124.712 347.208ZM124.712 346.12C123.064 346.12 121.736 344.648 121.736 341.672C121.736 338.984 122.744 337.24 124.712 337.24C126.712 337.24 127.704 338.904 127.704 341.672C127.704 344.424 126.568 346.12 124.712 346.12ZM134.662 347.112C136.246 347.112 137.67 345.72 137.67 343.048C137.67 340.2 136.454 338.968 134.694 338.968C133.43 338.968 132.63 339.736 132.15 340.504V339.112H130.966V349.672H132.198V345.96C132.678 346.536 133.51 347.112 134.662 347.112ZM134.326 346.2C133.19 346.2 132.614 345.496 132.198 344.904V341.576C132.758 340.472 133.494 339.992 134.406 339.992C135.766 339.992 136.374 340.968 136.374 343.08C136.374 345.352 135.574 346.2 134.326 346.2ZM141.689 347.112C142.121 347.112 142.601 347.064 143.033 346.984V346.008C142.745 346.056 142.281 346.104 141.913 346.104C141.241 346.088 140.809 345.72 140.809 344.888V340.104H142.585V339.112H140.809V337.048H139.673L139.609 339.112H138.313V340.104H139.593V344.824C139.593 346.456 140.361 347.112 141.689 347.112ZM145.731 337.72V336.312H144.371V337.72H145.731ZM145.683 347V339.112H144.435V347H145.683ZM151.034 347.128C152.986 347.128 154.602 345.512 154.602 343.032C154.602 340.6 153.194 338.968 151.034 338.968C149.098 338.968 147.498 340.552 147.498 343.016C147.498 345.512 149.002 347.128 151.034 347.128ZM151.018 346.2C149.69 346.2 148.81 345.016 148.81 343.032C148.81 341 149.77 339.944 151.018 339.944C152.33 339.944 153.29 340.968 153.29 343.016C153.29 345.144 152.314 346.2 151.018 346.2ZM157.636 347V341.592C158.292 340.648 159.124 340.008 160.132 340.008C161.028 340.008 161.444 340.456 161.444 341.4V347H162.692V341.416C162.692 339.8 161.972 338.968 160.5 338.968C159.092 338.968 158.116 339.896 157.572 340.68V339.112H156.388V347H157.636Z" fill="#666666"/>
<rect width="500" height="40" transform="translate(57 360)" fill="white"/>
<path d="M69.592 387.176C72.024 387.176 73.464 385.992 73.464 384.104C73.464 382.312 72.248 381.56 70.008 380.968C67.816 380.392 67.032 379.992 67.032 378.808C67.032 377.896 67.912 377.224 69.256 377.224C70.6 377.224 71.624 377.928 71.944 379.128L73.176 378.744C72.664 377.08 71.272 376.12 69.272 376.12C67.208 376.12 65.704 377.224 65.704 378.952C65.704 380.84 67.192 381.544 69.16 382.04C70.92 382.504 72.152 382.888 72.152 384.216C72.152 385.432 71.176 386.088 69.608 386.088C67.736 386.088 66.824 385.32 66.328 384.024L65.192 384.472C65.896 386.248 67.272 387.176 69.592 387.176ZM77.2286 387.096C78.7006 387.096 79.6286 386.536 80.2526 385.672C80.2366 386.072 80.3006 386.728 80.3966 387H81.5806C81.4526 386.504 81.4046 385.96 81.4046 385.464V381.88C81.4046 379.896 80.5406 378.968 78.3006 378.968C76.4286 378.968 75.1966 379.736 74.9086 381.176L76.0606 381.304C76.3166 380.296 76.9886 379.944 78.2686 379.944C79.5966 379.944 80.1086 380.408 80.2046 381.272C80.2366 381.464 80.2366 381.736 80.2366 382.008C79.6126 382.024 79.0846 382.024 78.4446 382.104C76.2846 382.36 74.7166 383.208 74.7166 384.92C74.7166 386.36 75.8366 387.096 77.2286 387.096ZM77.5966 386.184C76.5406 386.184 76.0126 385.704 76.0126 384.792C76.0126 383.8 76.8926 383.112 78.6046 382.888C79.1006 382.824 79.6766 382.824 80.2366 382.824V384.456C79.9006 385.272 79.1006 386.184 77.5966 386.184ZM85.0101 387V381.592C85.7301 380.584 86.3861 379.992 87.2981 379.992C88.0661 379.992 88.4661 380.52 88.4661 381.464V387H89.6821V381.608C90.1781 380.824 90.9941 380.024 91.9701 380.024C92.7381 380.024 93.1701 380.456 93.1701 381.48V387H94.4021V381.4C94.4021 380.76 94.2421 380.248 94.0021 379.88C93.6821 379.288 93.1381 378.984 92.3221 378.984C91.0741 378.984 90.1461 379.88 89.6021 380.744C89.5061 379.624 88.7701 378.968 87.6181 378.968C86.4821 378.968 85.4421 379.912 84.9781 380.696V379.112H83.7781V387H85.0101ZM100.443 387.112C102.027 387.112 103.451 385.72 103.451 383.048C103.451 380.2 102.235 378.968 100.475 378.968C99.2109 378.968 98.4109 379.736 97.9309 380.504V379.112H96.7469V389.672H97.9789V385.96C98.4589 386.536 99.2909 387.112 100.443 387.112ZM100.107 386.2C98.9709 386.2 98.3949 385.496 97.9789 384.904V381.576C98.5389 380.472 99.2749 379.992 100.187 379.992C101.547 379.992 102.155 380.968 102.155 383.08C102.155 385.352 101.355 386.2 100.107 386.2ZM106.543 387V376.328H105.295V387H106.543ZM111.99 387.128C113.558 387.128 114.774 386.312 115.318 384.792L114.23 384.632C113.782 385.8 112.966 386.184 112.102 386.184C110.566 386.184 109.67 385.176 109.638 383.192H115.462C115.446 383.016 115.462 382.84 115.446 382.664C115.286 380.472 114.086 378.968 112.022 378.968C109.99 378.968 108.374 380.52 108.374 383.192C108.374 385.544 109.83 387.128 111.99 387.128ZM109.686 382.344C109.782 380.856 110.758 379.912 112.022 379.912C113.286 379.912 114.07 380.824 114.198 382.344H109.686ZM124.712 387.208C127.272 387.208 129.096 384.952 129.096 381.672C129.096 378.2 127.304 376.12 124.712 376.12C122.184 376.12 120.344 378.216 120.344 381.672C120.344 385.128 122.12 387.208 124.712 387.208ZM124.712 386.12C123.064 386.12 121.736 384.648 121.736 381.672C121.736 378.984 122.744 377.24 124.712 377.24C126.712 377.24 127.704 378.904 127.704 381.672C127.704 384.424 126.568 386.12 124.712 386.12ZM134.662 387.112C136.246 387.112 137.67 385.72 137.67 383.048C137.67 380.2 136.454 378.968 134.694 378.968C133.43 378.968 132.63 379.736 132.15 380.504V379.112H130.966V389.672H132.198V385.96C132.678 386.536 133.51 387.112 134.662 387.112ZM134.326 386.2C133.19 386.2 132.614 385.496 132.198 384.904V381.576C132.758 380.472 133.494 379.992 134.406 379.992C135.766 379.992 136.374 380.968 136.374 383.08C136.374 385.352 135.574 386.2 134.326 386.2ZM141.689 387.112C142.121 387.112 142.601 387.064 143.033 386.984V386.008C142.745 386.056 142.281 386.104 141.913 386.104C141.241 386.088 140.809 385.72 140.809 384.888V380.104H142.585V379.112H140.809V377.048H139.673L139.609 379.112H138.313V380.104H139.593V384.824C139.593 386.456 140.361 387.112 141.689 387.112ZM145.731 377.72V376.312H144.371V377.72H145.731ZM145.683 387V379.112H144.435V387H145.683ZM151.034 387.128C152.986 387.128 154.602 385.512 154.602 383.032C154.602 380.6 153.194 378.968 151.034 378.968C149.098 378.968 147.498 380.552 147.498 383.016C147.498 385.512 149.002 387.128 151.034 387.128ZM151.018 386.2C149.69 386.2 148.81 385.016 148.81 383.032C148.81 381 149.77 379.944 151.018 379.944C152.33 379.944 153.29 380.968 153.29 383.016C153.29 385.144 152.314 386.2 151.018 386.2ZM157.636 387V381.592C158.292 380.648 159.124 380.008 160.132 380.008C161.028 380.008 161.444 380.456 161.444 381.4V387H162.692V381.416C162.692 379.8 161.972 378.968 160.5 378.968C159.092 378.968 158.116 379.896 157.572 380.68V379.112H156.388V387H157.636Z" fill="#666666"/>
<rect width="500" height="40" transform="translate(57 400)" fill="white"/>
</g>
<path d="M59 153H555V151H59V153ZM556 154V399H558V154H556ZM555 400H59V402H555V400ZM58 399V154H56V399H58ZM59 400C58.4477 400 58 399.552 58 399H56C56 400.657 57.3432 402 59 402V400ZM556 399C556 399.552 555.552 400 555 400V402C556.657 402 558 400.657 558 399H556ZM555 153C555.552 153 556 153.448 556 154H558C558 152.343 556.657 151 555 151V153ZM59 151C57.3431 151 56 152.343 56 154H58C58 153.448 58.4477 153 59 153V151Z" fill="#3D73D5"/>
<g clip-path="url(#clip1)">
<path d="M57 154C57 152.895 57.8954 152 59 152H555C556.105 152 557 152.895 557 154V399C557 400.105 556.105 401 555 401H59C57.8954 401 57 400.105 57 399V154Z" fill="white"/>
<path d="M67.992 172V168.544H69.936C71.472 168.544 72.432 167.656 72.432 166.276C72.432 164.86 71.568 163.996 69.828 163.996H66.996V172H67.992ZM67.992 164.848H69.912C70.824 164.848 71.424 165.412 71.424 166.312C71.424 167.2 70.824 167.728 69.84 167.728H67.992V164.848ZM74.5631 172V163.996H73.6271V172H74.5631ZM77.7965 172.072C78.9005 172.072 79.5965 171.652 80.0645 171.004C80.0525 171.304 80.1005 171.796 80.1725 172H81.0605C80.9645 171.628 80.9285 171.22 80.9285 170.848V168.16C80.9285 166.672 80.2805 165.976 78.6005 165.976C77.1965 165.976 76.2725 166.552 76.0565 167.632L76.9205 167.728C77.1125 166.972 77.6165 166.708 78.5765 166.708C79.5725 166.708 79.9565 167.056 80.0285 167.704C80.0525 167.848 80.0525 168.052 80.0525 168.256C79.5845 168.268 79.1885 168.268 78.7085 168.328C77.0885 168.52 75.9125 169.156 75.9125 170.44C75.9125 171.52 76.7525 172.072 77.7965 172.072ZM78.0725 171.388C77.2805 171.388 76.8845 171.028 76.8845 170.344C76.8845 169.6 77.5445 169.084 78.8285 168.916C79.2005 168.868 79.6325 168.868 80.0525 168.868V170.092C79.8005 170.704 79.2005 171.388 78.0725 171.388ZM84.7966 172.096C85.9726 172.096 86.8486 171.412 87.0526 170.08L86.2366 169.996C86.0566 170.98 85.6006 171.4 84.8206 171.4C83.9326 171.4 83.2366 170.668 83.2366 169.036C83.2366 167.56 83.8126 166.72 84.7606 166.72C85.5766 166.72 86.0446 167.248 86.1886 168.22L87.0646 168.112C86.8006 166.66 86.0086 165.976 84.7486 165.976C83.2486 165.976 82.2526 167.296 82.2526 169.012C82.2526 170.992 83.3446 172.096 84.7966 172.096ZM90.5664 172.096C91.7424 172.096 92.6544 171.484 93.0624 170.344L92.2464 170.224C91.9104 171.1 91.2984 171.388 90.6504 171.388C89.4984 171.388 88.8264 170.632 88.8024 169.144H93.1704C93.1584 169.012 93.1704 168.88 93.1584 168.748C93.0384 167.104 92.1384 165.976 90.5904 165.976C89.0664 165.976 87.8544 167.14 87.8544 169.144C87.8544 170.908 88.9464 172.096 90.5664 172.096ZM88.8384 168.508C88.9104 167.392 89.6424 166.684 90.5904 166.684C91.5384 166.684 92.1264 167.368 92.2224 168.508H88.8384ZM95.3985 172V167.956C95.8905 167.248 96.4785 166.756 97.3065 166.756C97.9065 166.756 98.2665 167.092 98.2665 167.812V172H99.2025V167.74C99.2025 166.768 98.7705 165.976 97.5705 165.976C96.4665 165.976 95.7465 166.636 95.3625 167.248V163.996H94.4625V172H95.3985ZM103.174 172.096C104.638 172.096 105.85 170.884 105.85 169.024C105.85 167.2 104.794 165.976 103.174 165.976C101.722 165.976 100.522 167.164 100.522 169.012C100.522 170.884 101.65 172.096 103.174 172.096ZM103.162 171.4C102.166 171.4 101.506 170.512 101.506 169.024C101.506 167.5 102.226 166.708 103.162 166.708C104.146 166.708 104.866 167.476 104.866 169.012C104.866 170.608 104.134 171.4 103.162 171.4ZM108.149 172V163.996H107.213V172H108.149ZM111.778 172.096C112.642 172.096 113.242 171.748 113.71 171.1V172H114.586V163.996H113.686V166.888C113.41 166.492 112.846 165.976 111.946 165.976C110.434 165.976 109.522 167.308 109.522 169.06C109.522 170.992 110.35 172.096 111.778 172.096ZM112.03 171.388C111.046 171.388 110.494 170.704 110.494 169.06C110.494 167.548 111.022 166.708 112.09 166.708C112.966 166.708 113.374 167.212 113.674 167.776V170.188C113.422 170.848 112.918 171.388 112.03 171.388ZM118.68 172.096C119.856 172.096 120.768 171.484 121.176 170.344L120.36 170.224C120.024 171.1 119.412 171.388 118.764 171.388C117.612 171.388 116.94 170.632 116.916 169.144H121.284C121.272 169.012 121.284 168.88 121.272 168.748C121.152 167.104 120.252 165.976 118.704 165.976C117.18 165.976 115.968 167.14 115.968 169.144C115.968 170.908 117.06 172.096 118.68 172.096ZM116.952 168.508C117.024 167.392 117.756 166.684 118.704 166.684C119.652 166.684 120.24 167.368 120.336 168.508H116.952ZM123.512 172V168.136C124.004 167.308 124.7 166.828 125.396 166.828C125.468 166.828 125.588 166.828 125.66 166.84V165.988C125.564 165.976 125.492 165.976 125.384 165.976C124.544 165.976 123.848 166.66 123.464 167.356V166.084H122.576V172H123.512ZM131.869 172V164.848H134.161V163.996H128.581V164.848H130.873V172H131.869ZM136.375 172.096C137.551 172.096 138.463 171.484 138.871 170.344L138.055 170.224C137.719 171.1 137.107 171.388 136.459 171.388C135.307 171.388 134.635 170.632 134.611 169.144H138.979C138.967 169.012 138.979 168.88 138.967 168.748C138.847 167.104 137.947 165.976 136.399 165.976C134.875 165.976 133.663 167.14 133.663 169.144C133.663 170.908 134.755 172.096 136.375 172.096ZM134.647 168.508C134.719 167.392 135.451 166.684 136.399 166.684C137.347 166.684 137.935 167.368 138.031 168.508H134.647ZM140.322 172L141.822 169.792L141.942 169.576L142.074 169.792L143.622 172H144.654L142.458 168.808L144.294 166.084H143.394L142.158 167.896L142.002 168.136L141.846 167.896L140.61 166.084H139.554L141.486 168.904L139.41 172H140.322ZM147.201 172.084C147.525 172.084 147.885 172.048 148.209 171.988V171.256C147.993 171.292 147.645 171.328 147.369 171.328C146.865 171.316 146.541 171.04 146.541 170.416V166.828H147.873V166.084H146.541V164.536H145.689L145.641 166.084H144.669V166.828H145.629V170.368C145.629 171.592 146.205 172.084 147.201 172.084Z" fill="#3D73D5"/>
<path d="M533 174.414L538.293 179.707L539.707 178.293L533.707 172.293C533.519 172.106 533.265 172 533 172C532.735 172 532.48 172.106 532.293 172.293L526.293 178.293L527.707 179.707L533 174.414Z" fill="#666666"/>
<rect x="57" y="199" width="500" height="1" fill="#E9E9E9"/>
<rect width="500" height="40" transform="translate(57 200)" fill="white"/>
<path d="M69.592 227.176C72.024 227.176 73.464 225.992 73.464 224.104C73.464 222.312 72.248 221.56 70.008 220.968C67.816 220.392 67.032 219.992 67.032 218.808C67.032 217.896 67.912 217.224 69.256 217.224C70.6 217.224 71.624 217.928 71.944 219.128L73.176 218.744C72.664 217.08 71.272 216.12 69.272 216.12C67.208 216.12 65.704 217.224 65.704 218.952C65.704 220.84 67.192 221.544 69.16 222.04C70.92 222.504 72.152 222.888 72.152 224.216C72.152 225.432 71.176 226.088 69.608 226.088C67.736 226.088 66.824 225.32 66.328 224.024L65.192 224.472C65.896 226.248 67.272 227.176 69.592 227.176ZM77.2286 227.096C78.7006 227.096 79.6286 226.536 80.2526 225.672C80.2366 226.072 80.3006 226.728 80.3966 227H81.5806C81.4526 226.504 81.4046 225.96 81.4046 225.464V221.88C81.4046 219.896 80.5406 218.968 78.3006 218.968C76.4286 218.968 75.1966 219.736 74.9086 221.176L76.0606 221.304C76.3166 220.296 76.9886 219.944 78.2686 219.944C79.5966 219.944 80.1086 220.408 80.2046 221.272C80.2366 221.464 80.2366 221.736 80.2366 222.008C79.6126 222.024 79.0846 222.024 78.4446 222.104C76.2846 222.36 74.7166 223.208 74.7166 224.92C74.7166 226.36 75.8366 227.096 77.2286 227.096ZM77.5966 226.184C76.5406 226.184 76.0126 225.704 76.0126 224.792C76.0126 223.8 76.8926 223.112 78.6046 222.888C79.1006 222.824 79.6766 222.824 80.2366 222.824V224.456C79.9006 225.272 79.1006 226.184 77.5966 226.184ZM85.0101 227V221.592C85.7301 220.584 86.3861 219.992 87.2981 219.992C88.0661 219.992 88.4661 220.52 88.4661 221.464V227H89.6821V221.608C90.1781 220.824 90.9941 220.024 91.9701 220.024C92.7381 220.024 93.1701 220.456 93.1701 221.48V227H94.4021V221.4C94.4021 220.76 94.2421 220.248 94.0021 219.88C93.6821 219.288 93.1381 218.984 92.3221 218.984C91.0741 218.984 90.1461 219.88 89.6021 220.744C89.5061 219.624 88.7701 218.968 87.6181 218.968C86.4821 218.968 85.4421 219.912 84.9781 220.696V219.112H83.7781V227H85.0101ZM100.443 227.112C102.027 227.112 103.451 225.72 103.451 223.048C103.451 220.2 102.235 218.968 100.475 218.968C99.2109 218.968 98.4109 219.736 97.9309 220.504V219.112H96.7469V229.672H97.9789V225.96C98.4589 226.536 99.2909 227.112 100.443 227.112ZM100.107 226.2C98.9709 226.2 98.3949 225.496 97.9789 224.904V221.576C98.5389 220.472 99.2749 219.992 100.187 219.992C101.547 219.992 102.155 220.968 102.155 223.08C102.155 225.352 101.355 226.2 100.107 226.2ZM106.543 227V216.328H105.295V227H106.543ZM111.99 227.128C113.558 227.128 114.774 226.312 115.318 224.792L114.23 224.632C113.782 225.8 112.966 226.184 112.102 226.184C110.566 226.184 109.67 225.176 109.638 223.192H115.462C115.446 223.016 115.462 222.84 115.446 222.664C115.286 220.472 114.086 218.968 112.022 218.968C109.99 218.968 108.374 220.52 108.374 223.192C108.374 225.544 109.83 227.128 111.99 227.128ZM109.686 222.344C109.782 220.856 110.758 219.912 112.022 219.912C113.286 219.912 114.07 220.824 114.198 222.344H109.686ZM124.712 227.208C127.272 227.208 129.096 224.952 129.096 221.672C129.096 218.2 127.304 216.12 124.712 216.12C122.184 216.12 120.344 218.216 120.344 221.672C120.344 225.128 122.12 227.208 124.712 227.208ZM124.712 226.12C123.064 226.12 121.736 224.648 121.736 221.672C121.736 218.984 122.744 217.24 124.712 217.24C126.712 217.24 127.704 218.904 127.704 221.672C127.704 224.424 126.568 226.12 124.712 226.12ZM134.662 227.112C136.246 227.112 137.67 225.72 137.67 223.048C137.67 220.2 136.454 218.968 134.694 218.968C133.43 218.968 132.63 219.736 132.15 220.504V219.112H130.966V229.672H132.198V225.96C132.678 226.536 133.51 227.112 134.662 227.112ZM134.326 226.2C133.19 226.2 132.614 225.496 132.198 224.904V221.576C132.758 220.472 133.494 219.992 134.406 219.992C135.766 219.992 136.374 220.968 136.374 223.08C136.374 225.352 135.574 226.2 134.326 226.2ZM141.689 227.112C142.121 227.112 142.601 227.064 143.033 226.984V226.008C142.745 226.056 142.281 226.104 141.913 226.104C141.241 226.088 140.809 225.72 140.809 224.888V220.104H142.585V219.112H140.809V217.048H139.673L139.609 219.112H138.313V220.104H139.593V224.824C139.593 226.456 140.361 227.112 141.689 227.112ZM145.731 217.72V216.312H144.371V217.72H145.731ZM145.683 227V219.112H144.435V227H145.683ZM151.034 227.128C152.986 227.128 154.602 225.512 154.602 223.032C154.602 220.6 153.194 218.968 151.034 218.968C149.098 218.968 147.498 220.552 147.498 223.016C147.498 225.512 149.002 227.128 151.034 227.128ZM151.018 226.2C149.69 226.2 148.81 225.016 148.81 223.032C148.81 221 149.77 219.944 151.018 219.944C152.33 219.944 153.29 220.968 153.29 223.016C153.29 225.144 152.314 226.2 151.018 226.2ZM157.636 227V221.592C158.292 220.648 159.124 220.008 160.132 220.008C161.028 220.008 161.444 220.456 161.444 221.4V227H162.692V221.416C162.692 219.8 161.972 218.968 160.5 218.968C159.092 218.968 158.116 219.896 157.572 220.68V219.112H156.388V227H157.636Z" fill="#666666"/>
<rect width="500" height="40" transform="translate(57 240)" fill="white"/>
<path d="M69.592 267.176C72.024 267.176 73.464 265.992 73.464 264.104C73.464 262.312 72.248 261.56 70.008 260.968C67.816 260.392 67.032 259.992 67.032 258.808C67.032 257.896 67.912 257.224 69.256 257.224C70.6 257.224 71.624 257.928 71.944 259.128L73.176 258.744C72.664 257.08 71.272 256.12 69.272 256.12C67.208 256.12 65.704 257.224 65.704 258.952C65.704 260.84 67.192 261.544 69.16 262.04C70.92 262.504 72.152 262.888 72.152 264.216C72.152 265.432 71.176 266.088 69.608 266.088C67.736 266.088 66.824 265.32 66.328 264.024L65.192 264.472C65.896 266.248 67.272 267.176 69.592 267.176ZM77.2286 267.096C78.7006 267.096 79.6286 266.536 80.2526 265.672C80.2366 266.072 80.3006 266.728 80.3966 267H81.5806C81.4526 266.504 81.4046 265.96 81.4046 265.464V261.88C81.4046 259.896 80.5406 258.968 78.3006 258.968C76.4286 258.968 75.1966 259.736 74.9086 261.176L76.0606 261.304C76.3166 260.296 76.9886 259.944 78.2686 259.944C79.5966 259.944 80.1086 260.408 80.2046 261.272C80.2366 261.464 80.2366 261.736 80.2366 262.008C79.6126 262.024 79.0846 262.024 78.4446 262.104C76.2846 262.36 74.7166 263.208 74.7166 264.92C74.7166 266.36 75.8366 267.096 77.2286 267.096ZM77.5966 266.184C76.5406 266.184 76.0126 265.704 76.0126 264.792C76.0126 263.8 76.8926 263.112 78.6046 262.888C79.1006 262.824 79.6766 262.824 80.2366 262.824V264.456C79.9006 265.272 79.1006 266.184 77.5966 266.184ZM85.0101 267V261.592C85.7301 260.584 86.3861 259.992 87.2981 259.992C88.0661 259.992 88.4661 260.52 88.4661 261.464V267H89.6821V261.608C90.1781 260.824 90.9941 260.024 91.9701 260.024C92.7381 260.024 93.1701 260.456 93.1701 261.48V267H94.4021V261.4C94.4021 260.76 94.2421 260.248 94.0021 259.88C93.6821 259.288 93.1381 258.984 92.3221 258.984C91.0741 258.984 90.1461 259.88 89.6021 260.744C89.5061 259.624 88.7701 258.968 87.6181 258.968C86.4821 258.968 85.4421 259.912 84.9781 260.696V259.112H83.7781V267H85.0101ZM100.443 267.112C102.027 267.112 103.451 265.72 103.451 263.048C103.451 260.2 102.235 258.968 100.475 258.968C99.2109 258.968 98.4109 259.736 97.9309 260.504V259.112H96.7469V269.672H97.9789V265.96C98.4589 266.536 99.2909 267.112 100.443 267.112ZM100.107 266.2C98.9709 266.2 98.3949 265.496 97.9789 264.904V261.576C98.5389 260.472 99.2749 259.992 100.187 259.992C101.547 259.992 102.155 260.968 102.155 263.08C102.155 265.352 101.355 266.2 100.107 266.2ZM106.543 267V256.328H105.295V267H106.543ZM111.99 267.128C113.558 267.128 114.774 266.312 115.318 264.792L114.23 264.632C113.782 265.8 112.966 266.184 112.102 266.184C110.566 266.184 109.67 265.176 109.638 263.192H115.462C115.446 263.016 115.462 262.84 115.446 262.664C115.286 260.472 114.086 258.968 112.022 258.968C109.99 258.968 108.374 260.52 108.374 263.192C108.374 265.544 109.83 267.128 111.99 267.128ZM109.686 262.344C109.782 260.856 110.758 259.912 112.022 259.912C113.286 259.912 114.07 260.824 114.198 262.344H109.686ZM124.712 267.208C127.272 267.208 129.096 264.952 129.096 261.672C129.096 258.2 127.304 256.12 124.712 256.12C122.184 256.12 120.344 258.216 120.344 261.672C120.344 265.128 122.12 267.208 124.712 267.208ZM124.712 266.12C123.064 266.12 121.736 264.648 121.736 261.672C121.736 258.984 122.744 257.24 124.712 257.24C126.712 257.24 127.704 258.904 127.704 261.672C127.704 264.424 126.568 266.12 124.712 266.12ZM134.662 267.112C136.246 267.112 137.67 265.72 137.67 263.048C137.67 260.2 136.454 258.968 134.694 258.968C133.43 258.968 132.63 259.736 132.15 260.504V259.112H130.966V269.672H132.198V265.96C132.678 266.536 133.51 267.112 134.662 267.112ZM134.326 266.2C133.19 266.2 132.614 265.496 132.198 264.904V261.576C132.758 260.472 133.494 259.992 134.406 259.992C135.766 259.992 136.374 260.968 136.374 263.08C136.374 265.352 135.574 266.2 134.326 266.2ZM141.689 267.112C142.121 267.112 142.601 267.064 143.033 266.984V266.008C142.745 266.056 142.281 266.104 141.913 266.104C141.241 266.088 140.809 265.72 140.809 264.888V260.104H142.585V259.112H140.809V257.048H139.673L139.609 259.112H138.313V260.104H139.593V264.824C139.593 266.456 140.361 267.112 141.689 267.112ZM145.731 257.72V256.312H144.371V257.72H145.731ZM145.683 267V259.112H144.435V267H145.683ZM151.034 267.128C152.986 267.128 154.602 265.512 154.602 263.032C154.602 260.6 153.194 258.968 151.034 258.968C149.098 258.968 147.498 260.552 147.498 263.016C147.498 265.512 149.002 267.128 151.034 267.128ZM151.018 266.2C149.69 266.2 148.81 265.016 148.81 263.032C148.81 261 149.77 259.944 151.018 259.944C152.33 259.944 153.29 260.968 153.29 263.016C153.29 265.144 152.314 266.2 151.018 266.2ZM157.636 267V261.592C158.292 260.648 159.124 260.008 160.132 260.008C161.028 260.008 161.444 260.456 161.444 261.4V267H162.692V261.416C162.692 259.8 161.972 258.968 160.5 258.968C159.092 258.968 158.116 259.896 157.572 260.68V259.112H156.388V267H157.636Z" fill="#666666"/>
<rect width="500" height="40" transform="translate(57 280)" fill="white"/>
<path d="M69.592 307.176C72.024 307.176 73.464 305.992 73.464 304.104C73.464 302.312 72.248 301.56 70.008 300.968C67.816 300.392 67.032 299.992 67.032 298.808C67.032 297.896 67.912 297.224 69.256 297.224C70.6 297.224 71.624 297.928 71.944 299.128L73.176 298.744C72.664 297.08 71.272 296.12 69.272 296.12C67.208 296.12 65.704 297.224 65.704 298.952C65.704 300.84 67.192 301.544 69.16 302.04C70.92 302.504 72.152 302.888 72.152 304.216C72.152 305.432 71.176 306.088 69.608 306.088C67.736 306.088 66.824 305.32 66.328 304.024L65.192 304.472C65.896 306.248 67.272 307.176 69.592 307.176ZM77.2286 307.096C78.7006 307.096 79.6286 306.536 80.2526 305.672C80.2366 306.072 80.3006 306.728 80.3966 307H81.5806C81.4526 306.504 81.4046 305.96 81.4046 305.464V301.88C81.4046 299.896 80.5406 298.968 78.3006 298.968C76.4286 298.968 75.1966 299.736 74.9086 301.176L76.0606 301.304C76.3166 300.296 76.9886 299.944 78.2686 299.944C79.5966 299.944 80.1086 300.408 80.2046 301.272C80.2366 301.464 80.2366 301.736 80.2366 302.008C79.6126 302.024 79.0846 302.024 78.4446 302.104C76.2846 302.36 74.7166 303.208 74.7166 304.92C74.7166 306.36 75.8366 307.096 77.2286 307.096ZM77.5966 306.184C76.5406 306.184 76.0126 305.704 76.0126 304.792C76.0126 303.8 76.8926 303.112 78.6046 302.888C79.1006 302.824 79.6766 302.824 80.2366 302.824V304.456C79.9006 305.272 79.1006 306.184 77.5966 306.184ZM85.0101 307V301.592C85.7301 300.584 86.3861 299.992 87.2981 299.992C88.0661 299.992 88.4661 300.52 88.4661 301.464V307H89.6821V301.608C90.1781 300.824 90.9941 300.024 91.9701 300.024C92.7381 300.024 93.1701 300.456 93.1701 301.48V307H94.4021V301.4C94.4021 300.76 94.2421 300.248 94.0021 299.88C93.6821 299.288 93.1381 298.984 92.3221 298.984C91.0741 298.984 90.1461 299.88 89.6021 300.744C89.5061 299.624 88.7701 298.968 87.6181 298.968C86.4821 298.968 85.4421 299.912 84.9781 300.696V299.112H83.7781V307H85.0101ZM100.443 307.112C102.027 307.112 103.451 305.72 103.451 303.048C103.451 300.2 102.235 298.968 100.475 298.968C99.2109 298.968 98.4109 299.736 97.9309 300.504V299.112H96.7469V309.672H97.9789V305.96C98.4589 306.536 99.2909 307.112 100.443 307.112ZM100.107 306.2C98.9709 306.2 98.3949 305.496 97.9789 304.904V301.576C98.5389 300.472 99.2749 299.992 100.187 299.992C101.547 299.992 102.155 300.968 102.155 303.08C102.155 305.352 101.355 306.2 100.107 306.2ZM106.543 307V296.328H105.295V307H106.543ZM111.99 307.128C113.558 307.128 114.774 306.312 115.318 304.792L114.23 304.632C113.782 305.8 112.966 306.184 112.102 306.184C110.566 306.184 109.67 305.176 109.638 303.192H115.462C115.446 303.016 115.462 302.84 115.446 302.664C115.286 300.472 114.086 298.968 112.022 298.968C109.99 298.968 108.374 300.52 108.374 303.192C108.374 305.544 109.83 307.128 111.99 307.128ZM109.686 302.344C109.782 300.856 110.758 299.912 112.022 299.912C113.286 299.912 114.07 300.824 114.198 302.344H109.686ZM124.712 307.208C127.272 307.208 129.096 304.952 129.096 301.672C129.096 298.2 127.304 296.12 124.712 296.12C122.184 296.12 120.344 298.216 120.344 301.672C120.344 305.128 122.12 307.208 124.712 307.208ZM124.712 306.12C123.064 306.12 121.736 304.648 121.736 301.672C121.736 298.984 122.744 297.24 124.712 297.24C126.712 297.24 127.704 298.904 127.704 301.672C127.704 304.424 126.568 306.12 124.712 306.12ZM134.662 307.112C136.246 307.112 137.67 305.72 137.67 303.048C137.67 300.2 136.454 298.968 134.694 298.968C133.43 298.968 132.63 299.736 132.15 300.504V299.112H130.966V309.672H132.198V305.96C132.678 306.536 133.51 307.112 134.662 307.112ZM134.326 306.2C133.19 306.2 132.614 305.496 132.198 304.904V301.576C132.758 300.472 133.494 299.992 134.406 299.992C135.766 299.992 136.374 300.968 136.374 303.08C136.374 305.352 135.574 306.2 134.326 306.2ZM141.689 307.112C142.121 307.112 142.601 307.064 143.033 306.984V306.008C142.745 306.056 142.281 306.104 141.913 306.104C141.241 306.088 140.809 305.72 140.809 304.888V300.104H142.585V299.112H140.809V297.048H139.673L139.609 299.112H138.313V300.104H139.593V304.824C139.593 306.456 140.361 307.112 141.689 307.112ZM145.731 297.72V296.312H144.371V297.72H145.731ZM145.683 307V299.112H144.435V307H145.683ZM151.034 307.128C152.986 307.128 154.602 305.512 154.602 303.032C154.602 300.6 153.194 298.968 151.034 298.968C149.098 298.968 147.498 300.552 147.498 303.016C147.498 305.512 149.002 307.128 151.034 307.128ZM151.018 306.2C149.69 306.2 148.81 305.016 148.81 303.032C148.81 301 149.77 299.944 151.018 299.944C152.33 299.944 153.29 300.968 153.29 303.016C153.29 305.144 152.314 306.2 151.018 306.2ZM157.636 307V301.592C158.292 300.648 159.124 300.008 160.132 300.008C161.028 300.008 161.444 300.456 161.444 301.4V307H162.692V301.416C162.692 299.8 161.972 298.968 160.5 298.968C159.092 298.968 158.116 299.896 157.572 300.68V299.112H156.388V307H157.636Z" fill="#666666"/>
<rect width="500" height="40" transform="translate(57 320)" fill="white"/>
<path d="M69.592 347.176C72.024 347.176 73.464 345.992 73.464 344.104C73.464 342.312 72.248 341.56 70.008 340.968C67.816 340.392 67.032 339.992 67.032 338.808C67.032 337.896 67.912 337.224 69.256 337.224C70.6 337.224 71.624 337.928 71.944 339.128L73.176 338.744C72.664 337.08 71.272 336.12 69.272 336.12C67.208 336.12 65.704 337.224 65.704 338.952C65.704 340.84 67.192 341.544 69.16 342.04C70.92 342.504 72.152 342.888 72.152 344.216C72.152 345.432 71.176 346.088 69.608 346.088C67.736 346.088 66.824 345.32 66.328 344.024L65.192 344.472C65.896 346.248 67.272 347.176 69.592 347.176ZM77.2286 347.096C78.7006 347.096 79.6286 346.536 80.2526 345.672C80.2366 346.072 80.3006 346.728 80.3966 347H81.5806C81.4526 346.504 81.4046 345.96 81.4046 345.464V341.88C81.4046 339.896 80.5406 338.968 78.3006 338.968C76.4286 338.968 75.1966 339.736 74.9086 341.176L76.0606 341.304C76.3166 340.296 76.9886 339.944 78.2686 339.944C79.5966 339.944 80.1086 340.408 80.2046 341.272C80.2366 341.464 80.2366 341.736 80.2366 342.008C79.6126 342.024 79.0846 342.024 78.4446 342.104C76.2846 342.36 74.7166 343.208 74.7166 344.92C74.7166 346.36 75.8366 347.096 77.2286 347.096ZM77.5966 346.184C76.5406 346.184 76.0126 345.704 76.0126 344.792C76.0126 343.8 76.8926 343.112 78.6046 342.888C79.1006 342.824 79.6766 342.824 80.2366 342.824V344.456C79.9006 345.272 79.1006 346.184 77.5966 346.184ZM85.0101 347V341.592C85.7301 340.584 86.3861 339.992 87.2981 339.992C88.0661 339.992 88.4661 340.52 88.4661 341.464V347H89.6821V341.608C90.1781 340.824 90.9941 340.024 91.9701 340.024C92.7381 340.024 93.1701 340.456 93.1701 341.48V347H94.4021V341.4C94.4021 340.76 94.2421 340.248 94.0021 339.88C93.6821 339.288 93.1381 338.984 92.3221 338.984C91.0741 338.984 90.1461 339.88 89.6021 340.744C89.5061 339.624 88.7701 338.968 87.6181 338.968C86.4821 338.968 85.4421 339.912 84.9781 340.696V339.112H83.7781V347H85.0101ZM100.443 347.112C102.027 347.112 103.451 345.72 103.451 343.048C103.451 340.2 102.235 338.968 100.475 338.968C99.2109 338.968 98.4109 339.736 97.9309 340.504V339.112H96.7469V349.672H97.9789V345.96C98.4589 346.536 99.2909 347.112 100.443 347.112ZM100.107 346.2C98.9709 346.2 98.3949 345.496 97.9789 344.904V341.576C98.5389 340.472 99.2749 339.992 100.187 339.992C101.547 339.992 102.155 340.968 102.155 343.08C102.155 345.352 101.355 346.2 100.107 346.2ZM106.543 347V336.328H105.295V347H106.543ZM111.99 347.128C113.558 347.128 114.774 346.312 115.318 344.792L114.23 344.632C113.782 345.8 112.966 346.184 112.102 346.184C110.566 346.184 109.67 345.176 109.638 343.192H115.462C115.446 343.016 115.462 342.84 115.446 342.664C115.286 340.472 114.086 338.968 112.022 338.968C109.99 338.968 108.374 340.52 108.374 343.192C108.374 345.544 109.83 347.128 111.99 347.128ZM109.686 342.344C109.782 340.856 110.758 339.912 112.022 339.912C113.286 339.912 114.07 340.824 114.198 342.344H109.686ZM124.712 347.208C127.272 347.208 129.096 344.952 129.096 341.672C129.096 338.2 127.304 336.12 124.712 336.12C122.184 336.12 120.344 338.216 120.344 341.672C120.344 345.128 122.12 347.208 124.712 347.208ZM124.712 346.12C123.064 346.12 121.736 344.648 121.736 341.672C121.736 338.984 122.744 337.24 124.712 337.24C126.712 337.24 127.704 338.904 127.704 341.672C127.704 344.424 126.568 346.12 124.712 346.12ZM134.662 347.112C136.246 347.112 137.67 345.72 137.67 343.048C137.67 340.2 136.454 338.968 134.694 338.968C133.43 338.968 132.63 339.736 132.15 340.504V339.112H130.966V349.672H132.198V345.96C132.678 346.536 133.51 347.112 134.662 347.112ZM134.326 346.2C133.19 346.2 132.614 345.496 132.198 344.904V341.576C132.758 340.472 133.494 339.992 134.406 339.992C135.766 339.992 136.374 340.968 136.374 343.08C136.374 345.352 135.574 346.2 134.326 346.2ZM141.689 347.112C142.121 347.112 142.601 347.064 143.033 346.984V346.008C142.745 346.056 142.281 346.104 141.913 346.104C141.241 346.088 140.809 345.72 140.809 344.888V340.104H142.585V339.112H140.809V337.048H139.673L139.609 339.112H138.313V340.104H139.593V344.824C139.593 346.456 140.361 347.112 141.689 347.112ZM145.731 337.72V336.312H144.371V337.72H145.731ZM145.683 347V339.112H144.435V347H145.683ZM151.034 347.128C152.986 347.128 154.602 345.512 154.602 343.032C154.602 340.6 153.194 338.968 151.034 338.968C149.098 338.968 147.498 340.552 147.498 343.016C147.498 345.512 149.002 347.128 151.034 347.128ZM151.018 346.2C149.69 346.2 148.81 345.016 148.81 343.032C148.81 341 149.77 339.944 151.018 339.944C152.33 339.944 153.29 340.968 153.29 343.016C153.29 345.144 152.314 346.2 151.018 346.2ZM157.636 347V341.592C158.292 340.648 159.124 340.008 160.132 340.008C161.028 340.008 161.444 340.456 161.444 341.4V347H162.692V341.416C162.692 339.8 161.972 338.968 160.5 338.968C159.092 338.968 158.116 339.896 157.572 340.68V339.112H156.388V347H157.636Z" fill="#666666"/>
<rect width="500" height="40" transform="translate(57 360)" fill="white"/>
<path d="M69.592 387.176C72.024 387.176 73.464 385.992 73.464 384.104C73.464 382.312 72.248 381.56 70.008 380.968C67.816 380.392 67.032 379.992 67.032 378.808C67.032 377.896 67.912 377.224 69.256 377.224C70.6 377.224 71.624 377.928 71.944 379.128L73.176 378.744C72.664 377.08 71.272 376.12 69.272 376.12C67.208 376.12 65.704 377.224 65.704 378.952C65.704 380.84 67.192 381.544 69.16 382.04C70.92 382.504 72.152 382.888 72.152 384.216C72.152 385.432 71.176 386.088 69.608 386.088C67.736 386.088 66.824 385.32 66.328 384.024L65.192 384.472C65.896 386.248 67.272 387.176 69.592 387.176ZM77.2286 387.096C78.7006 387.096 79.6286 386.536 80.2526 385.672C80.2366 386.072 80.3006 386.728 80.3966 387H81.5806C81.4526 386.504 81.4046 385.96 81.4046 385.464V381.88C81.4046 379.896 80.5406 378.968 78.3006 378.968C76.4286 378.968 75.1966 379.736 74.9086 381.176L76.0606 381.304C76.3166 380.296 76.9886 379.944 78.2686 379.944C79.5966 379.944 80.1086 380.408 80.2046 381.272C80.2366 381.464 80.2366 381.736 80.2366 382.008C79.6126 382.024 79.0846 382.024 78.4446 382.104C76.2846 382.36 74.7166 383.208 74.7166 384.92C74.7166 386.36 75.8366 387.096 77.2286 387.096ZM77.5966 386.184C76.5406 386.184 76.0126 385.704 76.0126 384.792C76.0126 383.8 76.8926 383.112 78.6046 382.888C79.1006 382.824 79.6766 382.824 80.2366 382.824V384.456C79.9006 385.272 79.1006 386.184 77.5966 386.184ZM85.0101 387V381.592C85.7301 380.584 86.3861 379.992 87.2981 379.992C88.0661 379.992 88.4661 380.52 88.4661 381.464V387H89.6821V381.608C90.1781 380.824 90.9941 380.024 91.9701 380.024C92.7381 380.024 93.1701 380.456 93.1701 381.48V387H94.4021V381.4C94.4021 380.76 94.2421 380.248 94.0021 379.88C93.6821 379.288 93.1381 378.984 92.3221 378.984C91.0741 378.984 90.1461 379.88 89.6021 380.744C89.5061 379.624 88.7701 378.968 87.6181 378.968C86.4821 378.968 85.4421 379.912 84.9781 380.696V379.112H83.7781V387H85.0101ZM100.443 387.112C102.027 387.112 103.451 385.72 103.451 383.048C103.451 380.2 102.235 378.968 100.475 378.968C99.2109 378.968 98.4109 379.736 97.9309 380.504V379.112H96.7469V389.672H97.9789V385.96C98.4589 386.536 99.2909 387.112 100.443 387.112ZM100.107 386.2C98.9709 386.2 98.3949 385.496 97.9789 384.904V381.576C98.5389 380.472 99.2749 379.992 100.187 379.992C101.547 379.992 102.155 380.968 102.155 383.08C102.155 385.352 101.355 386.2 100.107 386.2ZM106.543 387V376.328H105.295V387H106.543ZM111.99 387.128C113.558 387.128 114.774 386.312 115.318 384.792L114.23 384.632C113.782 385.8 112.966 386.184 112.102 386.184C110.566 386.184 109.67 385.176 109.638 383.192H115.462C115.446 383.016 115.462 382.84 115.446 382.664C115.286 380.472 114.086 378.968 112.022 378.968C109.99 378.968 108.374 380.52 108.374 383.192C108.374 385.544 109.83 387.128 111.99 387.128ZM109.686 382.344C109.782 380.856 110.758 379.912 112.022 379.912C113.286 379.912 114.07 380.824 114.198 382.344H109.686ZM124.712 387.208C127.272 387.208 129.096 384.952 129.096 381.672C129.096 378.2 127.304 376.12 124.712 376.12C122.184 376.12 120.344 378.216 120.344 381.672C120.344 385.128 122.12 387.208 124.712 387.208ZM124.712 386.12C123.064 386.12 121.736 384.648 121.736 381.672C121.736 378.984 122.744 377.24 124.712 377.24C126.712 377.24 127.704 378.904 127.704 381.672C127.704 384.424 126.568 386.12 124.712 386.12ZM134.662 387.112C136.246 387.112 137.67 385.72 137.67 383.048C137.67 380.2 136.454 378.968 134.694 378.968C133.43 378.968 132.63 379.736 132.15 380.504V379.112H130.966V389.672H132.198V385.96C132.678 386.536 133.51 387.112 134.662 387.112ZM134.326 386.2C133.19 386.2 132.614 385.496 132.198 384.904V381.576C132.758 380.472 133.494 379.992 134.406 379.992C135.766 379.992 136.374 380.968 136.374 383.08C136.374 385.352 135.574 386.2 134.326 386.2ZM141.689 387.112C142.121 387.112 142.601 387.064 143.033 386.984V386.008C142.745 386.056 142.281 386.104 141.913 386.104C141.241 386.088 140.809 385.72 140.809 384.888V380.104H142.585V379.112H140.809V377.048H139.673L139.609 379.112H138.313V380.104H139.593V384.824C139.593 386.456 140.361 387.112 141.689 387.112ZM145.731 377.72V376.312H144.371V377.72H145.731ZM145.683 387V379.112H144.435V387H145.683ZM151.034 387.128C152.986 387.128 154.602 385.512 154.602 383.032C154.602 380.6 153.194 378.968 151.034 378.968C149.098 378.968 147.498 380.552 147.498 383.016C147.498 385.512 149.002 387.128 151.034 387.128ZM151.018 386.2C149.69 386.2 148.81 385.016 148.81 383.032C148.81 381 149.77 379.944 151.018 379.944C152.33 379.944 153.29 380.968 153.29 383.016C153.29 385.144 152.314 386.2 151.018 386.2ZM157.636 387V381.592C158.292 380.648 159.124 380.008 160.132 380.008C161.028 380.008 161.444 380.456 161.444 381.4V387H162.692V381.416C162.692 379.8 161.972 378.968 160.5 378.968C159.092 378.968 158.116 379.896 157.572 380.68V379.112H156.388V387H157.636Z" fill="#666666"/>
<rect width="500" height="40" transform="translate(57 400)" fill="white"/>
</g>
<path d="M59 153H555V151H59V153ZM556 154V399H558V154H556ZM555 400H59V402H555V400ZM58 399V154H56V399H58ZM59 400C58.4477 400 58 399.552 58 399H56C56 400.657 57.3432 402 59 402V400ZM556 399C556 399.552 555.552 400 555 400V402C556.657 402 558 400.657 558 399H556ZM555 153C555.552 153 556 153.448 556 154H558C558 152.343 556.657 151 555 151V153ZM59 151C57.3431 151 56 152.343 56 154H58C58 153.448 58.4477 153 59 153V151Z" fill="#3D73D5"/>
<rect x="57.5" y="52.5" width="499" height="47" rx="1.5" fill="white" stroke="#EA0017"/>
<path d="M70.592 90.176C73.024 90.176 74.464 88.992 74.464 87.104C74.464 85.312 73.248 84.56 71.008 83.968C68.816 83.392 68.032 82.992 68.032 81.808C68.032 80.896 68.912 80.224 70.256 80.224C71.6 80.224 72.624 80.928 72.944 82.128L74.176 81.744C73.664 80.08 72.272 79.12 70.272 79.12C68.208 79.12 66.704 80.224 66.704 81.952C66.704 83.84 68.192 84.544 70.16 85.04C71.92 85.504 73.152 85.888 73.152 87.216C73.152 88.432 72.176 89.088 70.608 89.088C68.736 89.088 67.824 88.32 67.328 87.024L66.192 87.472C66.896 89.248 68.272 90.176 70.592 90.176ZM79.3802 90.128C80.9483 90.128 82.1643 89.312 82.7083 87.792L81.6203 87.632C81.1723 88.8 80.3563 89.184 79.4923 89.184C77.9563 89.184 77.0603 88.176 77.0283 86.192H82.8523C82.8363 86.016 82.8523 85.84 82.8363 85.664C82.6763 83.472 81.4763 81.968 79.4123 81.968C77.3803 81.968 75.7643 83.52 75.7643 86.192C75.7643 88.544 77.2203 90.128 79.3802 90.128ZM77.0763 85.344C77.1723 83.856 78.1483 82.912 79.4123 82.912C80.6763 82.912 81.4603 83.824 81.5883 85.344H77.0763ZM85.855 90V79.328H84.607V90H85.855ZM91.3021 90.128C92.8701 90.128 94.0861 89.312 94.6301 87.792L93.5421 87.632C93.0941 88.8 92.2781 89.184 91.4141 89.184C89.8781 89.184 88.9821 88.176 88.9501 86.192H94.7741C94.7581 86.016 94.7741 85.84 94.7581 85.664C94.5981 83.472 93.3981 81.968 91.3341 81.968C89.3021 81.968 87.6861 83.52 87.6861 86.192C87.6861 88.544 89.1421 90.128 91.3021 90.128ZM88.9981 85.344C89.0941 83.856 90.0701 82.912 91.3341 82.912C92.5981 82.912 93.3821 83.824 93.5101 85.344H88.9981ZM99.2809 90.128C100.849 90.128 102.017 89.216 102.289 87.44L101.201 87.328C100.961 88.64 100.353 89.2 99.3129 89.2C98.1289 89.2 97.2009 88.224 97.2009 86.048C97.2009 84.08 97.9689 82.96 99.2329 82.96C100.321 82.96 100.945 83.664 101.137 84.96L102.305 84.816C101.953 82.88 100.897 81.968 99.2169 81.968C97.2169 81.968 95.8889 83.728 95.8889 86.016C95.8889 88.656 97.3449 90.128 99.2809 90.128ZM106.158 90.112C106.59 90.112 107.07 90.064 107.502 89.984V89.008C107.214 89.056 106.75 89.104 106.382 89.104C105.71 89.088 105.278 88.72 105.278 87.888V83.104H107.054V82.112H105.278V80.048H104.142L104.078 82.112H102.782V83.104H104.062V87.824C104.062 89.456 104.83 90.112 106.158 90.112ZM111.896 90.128C113.464 90.128 114.68 89.312 115.224 87.792L114.136 87.632C113.688 88.8 112.872 89.184 112.008 89.184C110.472 89.184 109.576 88.176 109.544 86.192H115.368C115.352 86.016 115.368 85.84 115.352 85.664C115.192 83.472 113.992 81.968 111.928 81.968C109.896 81.968 108.28 83.52 108.28 86.192C108.28 88.544 109.736 90.128 111.896 90.128ZM109.592 85.344C109.688 83.856 110.664 82.912 111.928 82.912C113.192 82.912 113.976 83.824 114.104 85.344H109.592ZM119.507 90.128C120.659 90.128 121.459 89.664 122.083 88.8V90H123.251V79.328H122.051V83.184C121.683 82.656 120.931 81.968 119.731 81.968C117.715 81.968 116.499 83.744 116.499 86.08C116.499 88.656 117.603 90.128 119.507 90.128ZM119.843 89.184C118.531 89.184 117.795 88.272 117.795 86.08C117.795 84.064 118.499 82.944 119.923 82.944C121.091 82.944 121.635 83.616 122.035 84.368V87.584C121.699 88.464 121.027 89.184 119.843 89.184ZM132.716 90V80.464H135.772V79.328H128.332V80.464H131.388V90H132.716ZM138.724 90.128C140.292 90.128 141.508 89.312 142.052 87.792L140.964 87.632C140.516 88.8 139.7 89.184 138.836 89.184C137.3 89.184 136.404 88.176 136.372 86.192H142.196C142.18 86.016 142.196 85.84 142.18 85.664C142.02 83.472 140.82 81.968 138.756 81.968C136.724 81.968 135.108 83.52 135.108 86.192C135.108 88.544 136.564 90.128 138.724 90.128ZM136.42 85.344C136.516 83.856 137.492 82.912 138.756 82.912C140.02 82.912 140.804 83.824 140.932 85.344H136.42ZM143.987 90L145.987 87.056L146.147 86.768L146.323 87.056L148.387 90H149.763L146.835 85.744L149.283 82.112H148.083L146.435 84.528L146.227 84.848L146.019 84.528L144.371 82.112H142.963L145.539 85.872L142.771 90H143.987ZM153.158 90.112C153.59 90.112 154.07 90.064 154.502 89.984V89.008C154.214 89.056 153.75 89.104 153.382 89.104C152.71 89.088 152.278 88.72 152.278 87.888V83.104H154.054V82.112H152.278V80.048H151.142L151.078 82.112H149.782V83.104H151.062V87.824C151.062 89.456 151.83 90.112 153.158 90.112Z" fill="#EA0017"/>
<path d="M71.7 72V71.136H67.992V63.996H66.996V72H71.7ZM74.1871 72.072C75.2911 72.072 75.9871 71.652 76.4551 71.004C76.4431 71.304 76.4911 71.796 76.5631 72H77.4511C77.3551 71.628 77.3191 71.22 77.3191 70.848V68.16C77.3191 66.672 76.6711 65.976 74.9911 65.976C73.5871 65.976 72.6631 66.552 72.4471 67.632L73.3111 67.728C73.5031 66.972 74.0071 66.708 74.9671 66.708C75.9631 66.708 76.3471 67.056 76.4191 67.704C76.4431 67.848 76.4431 68.052 76.4431 68.256C75.9751 68.268 75.5791 68.268 75.0991 68.328C73.4791 68.52 72.3031 69.156 72.3031 70.44C72.3031 71.52 73.1431 72.072 74.1871 72.072ZM74.4631 71.388C73.6711 71.388 73.2751 71.028 73.2751 70.344C73.2751 69.6 73.9351 69.084 75.2191 68.916C75.5911 68.868 76.0231 68.868 76.4431 68.868V70.092C76.1911 70.704 75.5911 71.388 74.4631 71.388ZM81.8232 72.084C83.1672 72.084 84.1392 71.064 84.1392 69.024C84.1392 67.044 83.3112 65.976 81.8952 65.976C81.0432 65.976 80.2872 66.564 79.9872 67.212V63.996H79.0992V72H79.6152L79.9152 71.016C80.2992 71.688 80.9352 72.084 81.8232 72.084ZM81.6432 71.412C80.6952 71.412 79.9992 70.704 79.9992 69.468V68.04C80.3232 67.356 80.8152 66.72 81.6792 66.72C82.6752 66.72 83.1792 67.5 83.1792 69.048C83.1792 70.704 82.6512 71.412 81.6432 71.412ZM87.7657 72.096C88.9417 72.096 89.8537 71.484 90.2617 70.344L89.4457 70.224C89.1097 71.1 88.4977 71.388 87.8497 71.388C86.6977 71.388 86.0257 70.632 86.0017 69.144H90.3697C90.3577 69.012 90.3697 68.88 90.3577 68.748C90.2377 67.104 89.3377 65.976 87.7897 65.976C86.2657 65.976 85.0537 67.14 85.0537 69.144C85.0537 70.908 86.1457 72.096 87.7657 72.096ZM86.0377 68.508C86.1097 67.392 86.8417 66.684 87.7897 66.684C88.7377 66.684 89.3257 67.368 89.4217 68.508H86.0377ZM92.6217 72V63.996H91.6857V72H92.6217ZM99.7127 72V64.848H102.005V63.996H96.4247V64.848H98.7167V72H99.7127ZM104.219 72.096C105.395 72.096 106.307 71.484 106.715 70.344L105.899 70.224C105.563 71.1 104.951 71.388 104.303 71.388C103.151 71.388 102.479 70.632 102.455 69.144H106.823C106.811 69.012 106.823 68.88 106.811 68.748C106.691 67.104 105.791 65.976 104.243 65.976C102.719 65.976 101.507 67.14 101.507 69.144C101.507 70.908 102.599 72.096 104.219 72.096ZM102.491 68.508C102.563 67.392 103.295 66.684 104.243 66.684C105.191 66.684 105.779 67.368 105.875 68.508H102.491ZM108.166 72L109.666 69.792L109.786 69.576L109.918 69.792L111.466 72H112.498L110.302 68.808L112.138 66.084H111.238L110.002 67.896L109.846 68.136L109.69 67.896L108.454 66.084H107.398L109.33 68.904L107.254 72H108.166ZM115.044 72.084C115.368 72.084 115.728 72.048 116.052 71.988V71.256C115.836 71.292 115.488 71.328 115.212 71.328C114.708 71.316 114.384 71.04 114.384 70.416V66.828H115.716V66.084H114.384V64.536H113.532L113.484 66.084H112.512V66.828H113.472V70.368C113.472 71.592 114.048 72.084 115.044 72.084Z" fill="#666666"/>
<path d="M533 77.293L538.293 72L539.707 73.414L533.707 79.414C533.519 79.6015 533.265 79.7068 533 79.7068C532.735 79.7068 532.48 79.6015 532.293 79.414L526.293 73.414L527.707 72L533 77.293Z" fill="#666666"/>
<path d="M63.168 116V115.172H58.992V112.244H62.028V111.428H58.992V108.86H63.06V107.996H57.996V116H63.168ZM65.1758 116V112.136C65.6678 111.308 66.3638 110.828 67.0598 110.828C67.1318 110.828 67.2518 110.828 67.3238 110.84V109.988C67.2278 109.976 67.1558 109.976 67.0478 109.976C66.2078 109.976 65.5118 110.66 65.1278 111.356V110.084H64.2398V116H65.1758ZM69.1954 116V112.136C69.6874 111.308 70.3834 110.828 71.0794 110.828C71.1514 110.828 71.2714 110.828 71.3434 110.84V109.988C71.2474 109.976 71.1754 109.976 71.0674 109.976C70.2274 109.976 69.5314 110.66 69.1474 111.356V110.084H68.2594V116H69.1954ZM74.4749 116.096C75.9389 116.096 77.1509 114.884 77.1509 113.024C77.1509 111.2 76.0949 109.976 74.4749 109.976C73.0229 109.976 71.8229 111.164 71.8229 113.012C71.8229 114.884 72.9509 116.096 74.4749 116.096ZM74.4629 115.4C73.4669 115.4 72.8069 114.512 72.8069 113.024C72.8069 111.5 73.5269 110.708 74.4629 110.708C75.4469 110.708 76.1669 111.476 76.1669 113.012C76.1669 114.608 75.4349 115.4 74.4629 115.4ZM79.4258 116V112.136C79.9178 111.308 80.6138 110.828 81.3098 110.828C81.3818 110.828 81.5018 110.828 81.5738 110.84V109.988C81.4778 109.976 81.4058 109.976 81.2978 109.976C80.4578 109.976 79.7618 110.66 79.3778 111.356V110.084H78.4898V116H79.4258ZM86.199 116V111.944C86.739 111.188 87.231 110.744 87.915 110.744C88.491 110.744 88.791 111.14 88.791 111.848V116H89.703V111.956C90.075 111.368 90.687 110.768 91.419 110.768C91.995 110.768 92.319 111.092 92.319 111.86V116H93.243V111.8C93.243 111.32 93.123 110.936 92.943 110.66C92.703 110.216 92.295 109.988 91.683 109.988C90.747 109.988 90.051 110.66 89.643 111.308C89.571 110.468 89.019 109.976 88.155 109.976C87.303 109.976 86.523 110.684 86.175 111.272V110.084H85.275V116H86.199ZM97.2696 116.096C98.4456 116.096 99.3576 115.484 99.7656 114.344L98.9496 114.224C98.6136 115.1 98.0016 115.388 97.3536 115.388C96.2016 115.388 95.5296 114.632 95.5056 113.144H99.8736C99.8616 113.012 99.8736 112.88 99.8616 112.748C99.7416 111.104 98.8416 109.976 97.2936 109.976C95.7696 109.976 94.5576 111.14 94.5576 113.144C94.5576 114.908 95.6496 116.096 97.2696 116.096ZM95.5416 112.508C95.6136 111.392 96.3456 110.684 97.2936 110.684C98.2416 110.684 98.8296 111.368 98.9256 112.508H95.5416ZM103.038 116.096C104.478 116.096 105.414 115.364 105.414 114.272C105.414 113.096 104.382 112.76 103.17 112.52C102.222 112.316 101.514 112.196 101.514 111.548C101.514 111.008 102.054 110.684 102.846 110.684C103.65 110.684 104.19 111.044 104.418 111.668L105.246 111.488C104.946 110.564 104.178 109.976 102.846 109.976C101.526 109.976 100.65 110.636 100.65 111.608C100.65 112.772 101.67 113.084 102.882 113.312C103.758 113.504 104.55 113.648 104.55 114.356C104.55 114.98 103.974 115.4 103.038 115.4C102.018 115.4 101.358 114.932 101.166 114.236L100.326 114.404C100.614 115.484 101.538 116.096 103.038 116.096ZM108.545 116.096C109.985 116.096 110.921 115.364 110.921 114.272C110.921 113.096 109.889 112.76 108.677 112.52C107.729 112.316 107.021 112.196 107.021 111.548C107.021 111.008 107.561 110.684 108.353 110.684C109.157 110.684 109.697 111.044 109.925 111.668L110.753 111.488C110.453 110.564 109.685 109.976 108.353 109.976C107.033 109.976 106.157 110.636 106.157 111.608C106.157 112.772 107.177 113.084 108.389 113.312C109.265 113.504 110.057 113.648 110.057 114.356C110.057 114.98 109.481 115.4 108.545 115.4C107.525 115.4 106.865 114.932 106.673 114.236L105.833 114.404C106.121 115.484 107.045 116.096 108.545 116.096ZM113.597 116.072C114.701 116.072 115.397 115.652 115.865 115.004C115.853 115.304 115.901 115.796 115.973 116H116.861C116.765 115.628 116.729 115.22 116.729 114.848V112.16C116.729 110.672 116.081 109.976 114.401 109.976C112.997 109.976 112.073 110.552 111.857 111.632L112.721 111.728C112.913 110.972 113.417 110.708 114.377 110.708C115.373 110.708 115.757 111.056 115.829 111.704C115.853 111.848 115.853 112.052 115.853 112.256C115.385 112.268 114.989 112.268 114.509 112.328C112.889 112.52 111.713 113.156 111.713 114.44C111.713 115.52 112.553 116.072 113.597 116.072ZM113.873 115.388C113.081 115.388 112.685 115.028 112.685 114.344C112.685 113.6 113.345 113.084 114.629 112.916C115.001 112.868 115.433 112.868 115.853 112.868V114.092C115.601 114.704 115.001 115.388 113.873 115.388ZM120.705 118.232C122.625 118.232 123.597 117.512 123.597 116.48C123.597 115.508 122.925 115.112 121.041 115.076C119.841 115.04 119.097 115.04 119.097 114.512C119.097 114.152 119.433 113.924 119.745 113.924C119.841 113.948 120.225 114.032 120.609 114.032C121.953 114.032 122.769 113.18 122.769 112.004C122.769 111.392 122.541 110.924 122.229 110.648C122.325 110.216 122.577 109.964 123.177 109.976C123.249 109.976 123.309 109.988 123.381 110L123.369 109.22C123.333 109.22 123.261 109.22 123.225 109.22C122.217 109.208 121.893 109.616 121.749 110.264C121.389 110.072 120.957 109.976 120.513 109.976C119.325 109.976 118.305 110.792 118.305 112.004C118.305 112.724 118.593 113.336 119.169 113.636C118.641 113.78 118.233 114.14 118.233 114.644C118.233 115.1 118.473 115.436 119.073 115.604C118.353 115.784 117.921 116.228 117.921 116.816C117.921 117.728 118.881 118.232 120.705 118.232ZM120.561 113.408C119.757 113.408 119.229 112.928 119.229 112.004C119.229 111.26 119.685 110.648 120.561 110.648C121.449 110.648 121.893 111.296 121.893 112.016C121.893 112.904 121.401 113.408 120.561 113.408ZM120.633 117.608C119.313 117.608 118.773 117.272 118.773 116.708C118.773 116.18 119.133 115.94 119.601 115.808C122.265 115.868 122.709 116 122.709 116.6C122.709 117.2 121.953 117.608 120.633 117.608ZM126.672 116.096C127.848 116.096 128.76 115.484 129.168 114.344L128.352 114.224C128.016 115.1 127.404 115.388 126.756 115.388C125.604 115.388 124.932 114.632 124.908 113.144H129.276C129.264 113.012 129.276 112.88 129.264 112.748C129.144 111.104 128.244 109.976 126.696 109.976C125.172 109.976 123.96 111.14 123.96 113.144C123.96 114.908 125.052 116.096 126.672 116.096ZM124.944 112.508C125.016 111.392 125.748 110.684 126.696 110.684C127.644 110.684 128.232 111.368 128.328 112.508H124.944ZM135.146 116.096C136.01 116.096 136.61 115.748 137.078 115.1V116H137.954V107.996H137.054V110.888C136.778 110.492 136.214 109.976 135.314 109.976C133.802 109.976 132.89 111.308 132.89 113.06C132.89 114.992 133.718 116.096 135.146 116.096ZM135.398 115.388C134.414 115.388 133.862 114.704 133.862 113.06C133.862 111.548 134.39 110.708 135.458 110.708C136.334 110.708 136.742 111.212 137.042 111.776V114.188C136.79 114.848 136.286 115.388 135.398 115.388ZM140.775 109.04V107.984H139.755V109.04H140.775ZM140.739 116V110.084H139.803V116H140.739ZM144.428 116.096C145.868 116.096 146.804 115.364 146.804 114.272C146.804 113.096 145.772 112.76 144.56 112.52C143.612 112.316 142.904 112.196 142.904 111.548C142.904 111.008 143.444 110.684 144.236 110.684C145.04 110.684 145.58 111.044 145.808 111.668L146.636 111.488C146.336 110.564 145.568 109.976 144.236 109.976C142.916 109.976 142.04 110.636 142.04 111.608C142.04 112.772 143.06 113.084 144.272 113.312C145.148 113.504 145.94 113.648 145.94 114.356C145.94 114.98 145.364 115.4 144.428 115.4C143.408 115.4 142.748 114.932 142.556 114.236L141.716 114.404C142.004 115.484 142.928 116.096 144.428 116.096ZM150.836 116.084C152.024 116.084 153.092 115.04 153.092 113.036C153.092 110.9 152.18 109.976 150.86 109.976C149.912 109.976 149.312 110.552 148.952 111.128V110.084H148.064V118.004H148.988V115.22C149.348 115.652 149.972 116.084 150.836 116.084ZM150.584 115.4C149.732 115.4 149.3 114.872 148.988 114.428V111.932C149.408 111.104 149.96 110.744 150.644 110.744C151.664 110.744 152.12 111.476 152.12 113.06C152.12 114.764 151.52 115.4 150.584 115.4ZM155.411 116V107.996H154.475V116H155.411ZM158.644 116.072C159.748 116.072 160.444 115.652 160.912 115.004C160.9 115.304 160.948 115.796 161.02 116H161.908C161.812 115.628 161.776 115.22 161.776 114.848V112.16C161.776 110.672 161.128 109.976 159.448 109.976C158.044 109.976 157.12 110.552 156.904 111.632L157.768 111.728C157.96 110.972 158.464 110.708 159.424 110.708C160.42 110.708 160.804 111.056 160.876 111.704C160.9 111.848 160.9 112.052 160.9 112.256C160.432 112.268 160.036 112.268 159.556 112.328C157.936 112.52 156.76 113.156 156.76 114.44C156.76 115.52 157.6 116.072 158.644 116.072ZM158.92 115.388C158.128 115.388 157.732 115.028 157.732 114.344C157.732 113.6 158.392 113.084 159.676 112.916C160.048 112.868 160.48 112.868 160.9 112.868V114.092C160.648 114.704 160.048 115.388 158.92 115.388ZM163.018 118.076C164.47 118.076 165.154 117.464 165.514 116.42L167.77 110.084H166.942L165.574 113.948L165.334 114.704L165.094 113.948L163.63 110.084H162.622L164.566 115.136C165.07 116.456 164.314 117.32 162.994 117.32L163.018 118.076ZM170.526 116.096C171.966 116.096 172.902 115.364 172.902 114.272C172.902 113.096 171.87 112.76 170.658 112.52C169.71 112.316 169.002 112.196 169.002 111.548C169.002 111.008 169.542 110.684 170.334 110.684C171.138 110.684 171.678 111.044 171.906 111.668L172.734 111.488C172.434 110.564 171.666 109.976 170.334 109.976C169.014 109.976 168.138 110.636 168.138 111.608C168.138 112.772 169.158 113.084 170.37 113.312C171.246 113.504 172.038 113.648 172.038 114.356C172.038 114.98 171.462 115.4 170.526 115.4C169.506 115.4 168.846 114.932 168.654 114.236L167.814 114.404C168.102 115.484 169.026 116.096 170.526 116.096ZM177.863 116V111.956C178.355 111.248 178.943 110.756 179.771 110.756C180.371 110.756 180.731 111.092 180.731 111.812V116H181.667V111.74C181.667 110.768 181.235 109.976 180.035 109.976C178.931 109.976 178.211 110.636 177.827 111.248V107.996H176.927V116H177.863ZM185.711 116.096C186.887 116.096 187.799 115.484 188.207 114.344L187.391 114.224C187.055 115.1 186.443 115.388 185.795 115.388C184.643 115.388 183.971 114.632 183.947 113.144H188.315C188.303 113.012 188.315 112.88 188.303 112.748C188.183 111.104 187.283 109.976 185.735 109.976C184.211 109.976 182.999 111.14 182.999 113.144C182.999 114.908 184.091 116.096 185.711 116.096ZM183.983 112.508C184.055 111.392 184.787 110.684 185.735 110.684C186.683 110.684 187.271 111.368 187.367 112.508H183.983ZM190.543 116V112.136C191.035 111.308 191.731 110.828 192.427 110.828C192.499 110.828 192.619 110.828 192.691 110.84V109.988C192.595 109.976 192.523 109.976 192.415 109.976C191.575 109.976 190.879 110.66 190.495 111.356V110.084H189.607V116H190.543ZM195.777 116.096C196.953 116.096 197.865 115.484 198.273 114.344L197.457 114.224C197.121 115.1 196.509 115.388 195.861 115.388C194.709 115.388 194.037 114.632 194.013 113.144H198.381C198.369 113.012 198.381 112.88 198.369 112.748C198.249 111.104 197.349 109.976 195.801 109.976C194.277 109.976 193.065 111.14 193.065 113.144C193.065 114.908 194.157 116.096 195.777 116.096ZM194.049 112.508C194.121 111.392 194.853 110.684 195.801 110.684C196.749 110.684 197.337 111.368 197.433 112.508H194.049Z" fill="#EA0017"/>
<rect x="73" width="29" height="28" rx="14" fill="#94538C"/>
<path d="M91.374 20.5V18.304H88.836V8.296H86.73C85.992 9.214 84.894 10.204 83.688 10.6V12.904C84.696 12.49 85.542 11.968 86.064 11.59V18.304H83.418V20.5H91.374Z" fill="white"/>
<line x1="88" y1="28" x2="88" y2="52" stroke="#94538C"/>
<rect x="518" y="14" width="29" height="28" rx="14" fill="#94538C"/>
<path d="M536.684 34.5V32.286H531.122C534.488 29.982 536.558 28.47 536.558 26.058C536.558 23.736 534.884 22.278 532.364 22.278C529.952 22.278 528.062 23.502 527.612 26.31L530.096 26.76C530.258 25.266 530.96 24.528 532.058 24.528C533.12 24.528 533.696 25.212 533.696 26.166C533.696 27.894 532.4 29.01 527.63 32.592V34.5H536.684Z" fill="white"/>
<line x1="533" y1="42" x2="533" y2="66" stroke="#94538C"/>
<rect x="12" y="52" width="29" height="28" rx="14" fill="#94538C"/>
<path d="M26.364 72.716C29.424 72.716 31.134 71.276 31.134 69.098C31.134 67.604 30.306 66.596 28.776 66.218C30.018 65.858 30.738 64.868 30.738 63.482C30.738 61.7 29.118 60.278 26.454 60.278C24.186 60.278 22.278 61.286 21.702 63.482L23.988 63.95C24.24 62.924 25.068 62.42 26.184 62.42C27.39 62.42 27.984 62.978 27.984 63.842C27.984 64.76 27.318 65.282 26.004 65.282H24.726V67.37H26.04C27.444 67.37 28.29 67.856 28.29 68.99C28.29 69.926 27.642 70.574 26.202 70.574C24.942 70.574 24.132 70.016 23.88 68.792L21.342 69.314C21.738 71.546 23.646 72.716 26.364 72.716Z" fill="white"/>
<line x1="41" y1="65.5" x2="65" y2="65.5" stroke="#94538C"/>
<rect y="98" width="29" height="28" rx="14" fill="#94538C"/>
<path d="M17.316 118.5V116.016H19.08V113.874H17.316V106.296H14.778L9.378 113.928V116.016H14.652V118.5H17.316ZM14.67 109.482V113.874H11.538L14.67 109.482Z" fill="white"/>
<line x1="29" y1="111.5" x2="53" y2="111.5" stroke="#94538C"/>
<rect x="4" y="245" width="29" height="28" rx="14" fill="#94538C"/>
<path d="M18.598 265.734C21.352 265.734 23.17 263.826 23.17 261.486C23.17 259.326 21.748 257.76 19.426 257.76C18.184 257.76 16.978 258.3 16.366 259.326C16.366 259.146 16.384 258.984 16.384 258.84C16.474 256.482 17.23 255.366 18.598 255.366C19.642 255.366 20.146 256.05 20.362 256.95L22.864 256.518C22.36 254.394 20.974 253.26 18.652 253.26C15.502 253.26 13.576 255.906 13.576 259.614V259.92C13.576 263.826 15.808 265.734 18.598 265.734ZM18.634 263.718C17.482 263.718 16.6 263.034 16.474 261.288C16.51 261.234 16.528 261.18 16.582 261.126C16.942 260.442 17.68 259.848 18.616 259.848C19.678 259.848 20.452 260.604 20.452 261.738V261.81C20.452 263.034 19.642 263.718 18.634 263.718Z" fill="white"/>
<line x1="33" y1="258.5" x2="57" y2="258.5" stroke="#94538C"/>
<rect x="4" y="186" width="29" height="28" rx="14" fill="#94538C"/>
<path d="M18.328 206.716C21.01 206.716 22.936 204.934 22.936 202.414C22.936 199.912 21.208 198.454 18.904 198.454C17.914 198.454 16.78 198.832 16.258 199.444L16.492 196.708H21.928L22.162 194.494H14.422L13.99 201.082L16.024 201.55C16.528 200.848 17.194 200.47 18.166 200.47C19.462 200.47 20.2 201.388 20.2 202.54C20.2 203.962 19.21 204.646 18.076 204.646C17.104 204.646 16.15 204.196 15.772 202.972L13.468 203.746C14.224 205.798 15.826 206.716 18.328 206.716Z" fill="white"/>
<line x1="33" y1="199.5" x2="57" y2="199.5" stroke="#94538C"/>
<defs>
<clipPath id="clip0">
<path d="M57 154C57 152.895 57.8954 152 59 152H555C556.105 152 557 152.895 557 154V399C557 400.105 556.105 401 555 401H59C57.8954 401 57 400.105 57 399V154Z" fill="white"/>
</clipPath>
<clipPath id="clip1">
<path d="M57 154C57 152.895 57.8954 152 59 152H555C556.105 152 557 152.895 557 154V399C557 400.105 556.105 401 555 401H59C57.8954 401 57 400.105 57 399V154Z" fill="white"/>
</clipPath>
</defs>
</svg>
