<svg width="500" height="71" viewBox="0 0 500 71" fill="none" xmlns="http://www.w3.org/2000/svg">
<rect x="0.5" y="4.5" width="499" height="47" rx="1.5" fill="white" stroke="#EA0017"/>
<path d="M13.592 42.176C16.024 42.176 17.464 40.992 17.464 39.104C17.464 37.312 16.248 36.56 14.008 35.968C11.816 35.392 11.032 34.992 11.032 33.808C11.032 32.896 11.912 32.224 13.256 32.224C14.6 32.224 15.624 32.928 15.944 34.128L17.176 33.744C16.664 32.08 15.272 31.12 13.272 31.12C11.208 31.12 9.704 32.224 9.704 33.952C9.704 35.84 11.192 36.544 13.16 37.04C14.92 37.504 16.152 37.888 16.152 39.216C16.152 40.432 15.176 41.088 13.608 41.088C11.736 41.088 10.824 40.32 10.328 39.024L9.192 39.472C9.896 41.248 11.272 42.176 13.592 42.176ZM22.3802 42.128C23.9483 42.128 25.1643 41.312 25.7083 39.792L24.6203 39.632C24.1723 40.8 23.3563 41.184 22.4923 41.184C20.9563 41.184 20.0603 40.176 20.0283 38.192H25.8523C25.8363 38.016 25.8523 37.84 25.8363 37.664C25.6763 35.472 24.4763 33.968 22.4123 33.968C20.3803 33.968 18.7643 35.52 18.7643 38.192C18.7643 40.544 20.2203 42.128 22.3802 42.128ZM20.0763 37.344C20.1723 35.856 21.1483 34.912 22.4123 34.912C23.6763 34.912 24.4603 35.824 24.5883 37.344H20.0763ZM28.855 42V31.328H27.607V42H28.855ZM34.3021 42.128C35.8701 42.128 37.0861 41.312 37.6301 39.792L36.5421 39.632C36.0941 40.8 35.2781 41.184 34.4141 41.184C32.8781 41.184 31.9821 40.176 31.9501 38.192H37.7741C37.7581 38.016 37.7741 37.84 37.7581 37.664C37.5981 35.472 36.3981 33.968 34.3341 33.968C32.3021 33.968 30.6861 35.52 30.6861 38.192C30.6861 40.544 32.1421 42.128 34.3021 42.128ZM31.9981 37.344C32.0941 35.856 33.0701 34.912 34.3341 34.912C35.5981 34.912 36.3821 35.824 36.5101 37.344H31.9981ZM42.2809 42.128C43.8489 42.128 45.0169 41.216 45.2889 39.44L44.2009 39.328C43.9609 40.64 43.3529 41.2 42.3129 41.2C41.1289 41.2 40.2009 40.224 40.2009 38.048C40.2009 36.08 40.9689 34.96 42.2329 34.96C43.3209 34.96 43.9449 35.664 44.1369 36.96L45.3049 36.816C44.9529 34.88 43.8969 33.968 42.2169 33.968C40.2169 33.968 38.8889 35.728 38.8889 38.016C38.8889 40.656 40.3449 42.128 42.2809 42.128ZM49.158 42.112C49.59 42.112 50.07 42.064 50.502 41.984V41.008C50.214 41.056 49.75 41.104 49.382 41.104C48.71 41.088 48.278 40.72 48.278 39.888V35.104H50.054V34.112H48.278V32.048H47.142L47.078 34.112H45.782V35.104H47.062V39.824C47.062 41.456 47.83 42.112 49.158 42.112ZM54.8959 42.128C56.4639 42.128 57.6799 41.312 58.2239 39.792L57.1359 39.632C56.6879 40.8 55.8719 41.184 55.0079 41.184C53.4719 41.184 52.5759 40.176 52.5439 38.192H58.3679C58.3519 38.016 58.3679 37.84 58.3519 37.664C58.1919 35.472 56.9919 33.968 54.9279 33.968C52.8959 33.968 51.2799 35.52 51.2799 38.192C51.2799 40.544 52.7359 42.128 54.8959 42.128ZM52.5919 37.344C52.6879 35.856 53.6639 34.912 54.9279 34.912C56.1919 34.912 56.9759 35.824 57.1039 37.344H52.5919ZM62.5066 42.128C63.6586 42.128 64.4586 41.664 65.0826 40.8V42H66.2506V31.328H65.0506V35.184C64.6826 34.656 63.9306 33.968 62.7306 33.968C60.7146 33.968 59.4986 35.744 59.4986 38.08C59.4986 40.656 60.6026 42.128 62.5066 42.128ZM62.8426 41.184C61.5306 41.184 60.7946 40.272 60.7946 38.08C60.7946 36.064 61.4986 34.944 62.9226 34.944C64.0906 34.944 64.6346 35.616 65.0346 36.368V39.584C64.6986 40.464 64.0266 41.184 62.8426 41.184ZM75.7159 42V32.464H78.7719V31.328H71.3319V32.464H74.3879V42H75.7159ZM81.724 42.128C83.292 42.128 84.508 41.312 85.052 39.792L83.964 39.632C83.516 40.8 82.7 41.184 81.836 41.184C80.3 41.184 79.404 40.176 79.372 38.192H85.196C85.18 38.016 85.196 37.84 85.18 37.664C85.02 35.472 83.82 33.968 81.756 33.968C79.724 33.968 78.108 35.52 78.108 38.192C78.108 40.544 79.564 42.128 81.724 42.128ZM79.42 37.344C79.516 35.856 80.492 34.912 81.756 34.912C83.02 34.912 83.804 35.824 83.932 37.344H79.42ZM86.9865 42L88.9865 39.056L89.1465 38.768L89.3225 39.056L91.3865 42H92.7625L89.8345 37.744L92.2825 34.112H91.0825L89.4345 36.528L89.2265 36.848L89.0185 36.528L87.3705 34.112H85.9625L88.5385 37.872L85.7705 42H86.9865ZM96.158 42.112C96.59 42.112 97.07 42.064 97.502 41.984V41.008C97.214 41.056 96.75 41.104 96.382 41.104C95.71 41.088 95.278 40.72 95.278 39.888V35.104H97.054V34.112H95.278V32.048H94.142L94.078 34.112H92.782V35.104H94.062V39.824C94.062 41.456 94.83 42.112 96.158 42.112Z" fill="#EA0017"/>
<path d="M14.7 24V23.136H10.992V15.996H9.996V24H14.7ZM17.1871 24.072C18.2911 24.072 18.9871 23.652 19.4551 23.004C19.4431 23.304 19.4911 23.796 19.5631 24H20.4511C20.3551 23.628 20.3191 23.22 20.3191 22.848V20.16C20.3191 18.672 19.6711 17.976 17.9911 17.976C16.5871 17.976 15.6631 18.552 15.4471 19.632L16.3111 19.728C16.5031 18.972 17.0071 18.708 17.9671 18.708C18.9631 18.708 19.3471 19.056 19.4191 19.704C19.4431 19.848 19.4431 20.052 19.4431 20.256C18.9751 20.268 18.5791 20.268 18.0991 20.328C16.4791 20.52 15.3031 21.156 15.3031 22.44C15.3031 23.52 16.1431 24.072 17.1871 24.072ZM17.4631 23.388C16.6711 23.388 16.2751 23.028 16.2751 22.344C16.2751 21.6 16.9351 21.084 18.2191 20.916C18.5911 20.868 19.0231 20.868 19.4431 20.868V22.092C19.1911 22.704 18.5911 23.388 17.4631 23.388ZM24.8232 24.084C26.1672 24.084 27.1392 23.064 27.1392 21.024C27.1392 19.044 26.3112 17.976 24.8952 17.976C24.0432 17.976 23.2872 18.564 22.9872 19.212V15.996H22.0992V24H22.6152L22.9152 23.016C23.2992 23.688 23.9352 24.084 24.8232 24.084ZM24.6432 23.412C23.6952 23.412 22.9992 22.704 22.9992 21.468V20.04C23.3232 19.356 23.8152 18.72 24.6792 18.72C25.6752 18.72 26.1792 19.5 26.1792 21.048C26.1792 22.704 25.6512 23.412 24.6432 23.412ZM30.7657 24.096C31.9417 24.096 32.8537 23.484 33.2617 22.344L32.4457 22.224C32.1097 23.1 31.4977 23.388 30.8497 23.388C29.6977 23.388 29.0257 22.632 29.0017 21.144H33.3697C33.3577 21.012 33.3697 20.88 33.3577 20.748C33.2377 19.104 32.3377 17.976 30.7897 17.976C29.2657 17.976 28.0537 19.14 28.0537 21.144C28.0537 22.908 29.1457 24.096 30.7657 24.096ZM29.0377 20.508C29.1097 19.392 29.8417 18.684 30.7897 18.684C31.7377 18.684 32.3257 19.368 32.4217 20.508H29.0377ZM35.6217 24V15.996H34.6857V24H35.6217ZM42.7127 24V16.848H45.0047V15.996H39.4247V16.848H41.7167V24H42.7127ZM47.2188 24.096C48.3948 24.096 49.3068 23.484 49.7148 22.344L48.8988 22.224C48.5628 23.1 47.9508 23.388 47.3028 23.388C46.1508 23.388 45.4788 22.632 45.4548 21.144H49.8228C49.8108 21.012 49.8228 20.88 49.8108 20.748C49.6908 19.104 48.7908 17.976 47.2428 17.976C45.7188 17.976 44.5068 19.14 44.5068 21.144C44.5068 22.908 45.5988 24.096 47.2188 24.096ZM45.4908 20.508C45.5628 19.392 46.2948 18.684 47.2428 18.684C48.1908 18.684 48.7788 19.368 48.8748 20.508H45.4908ZM51.1657 24L52.6657 21.792L52.7857 21.576L52.9177 21.792L54.4657 24H55.4977L53.3017 20.808L55.1377 18.084H54.2377L53.0017 19.896L52.8457 20.136L52.6897 19.896L51.4537 18.084H50.3977L52.3297 20.904L50.2537 24H51.1657ZM58.0443 24.084C58.3683 24.084 58.7283 24.048 59.0523 23.988V23.256C58.8363 23.292 58.4883 23.328 58.2123 23.328C57.7083 23.316 57.3843 23.04 57.3843 22.416V18.828H58.7163V18.084H57.3843V16.536H56.5323L56.4843 18.084H55.5123V18.828H56.4723V22.368C56.4723 23.592 57.0483 24.084 58.0443 24.084Z" fill="#666666"/>
<path d="M476 29.293L481.293 24L482.707 25.414L476.707 31.414C476.519 31.6015 476.265 31.7068 476 31.7068C475.735 31.7068 475.48 31.6015 475.293 31.414L469.293 25.414L470.707 24L476 29.293Z" fill="#666666"/>
<path d="M6.168 68V67.172H1.992V64.244H5.028V63.428H1.992V60.86H6.06V59.996H0.996V68H6.168ZM8.17584 68V64.136C8.66784 63.308 9.36384 62.828 10.0598 62.828C10.1318 62.828 10.2518 62.828 10.3238 62.84V61.988C10.2278 61.976 10.1558 61.976 10.0478 61.976C9.20784 61.976 8.51184 62.66 8.12784 63.356V62.084H7.23984V68H8.17584ZM12.1954 68V64.136C12.6874 63.308 13.3834 62.828 14.0794 62.828C14.1514 62.828 14.2714 62.828 14.3434 62.84V61.988C14.2474 61.976 14.1754 61.976 14.0674 61.976C13.2274 61.976 12.5314 62.66 12.1474 63.356V62.084H11.2594V68H12.1954ZM17.4749 68.096C18.9389 68.096 20.1509 66.884 20.1509 65.024C20.1509 63.2 19.0949 61.976 17.4749 61.976C16.0229 61.976 14.8229 63.164 14.8229 65.012C14.8229 66.884 15.9509 68.096 17.4749 68.096ZM17.4629 67.4C16.4669 67.4 15.8069 66.512 15.8069 65.024C15.8069 63.5 16.5269 62.708 17.4629 62.708C18.4469 62.708 19.1669 63.476 19.1669 65.012C19.1669 66.608 18.4349 67.4 17.4629 67.4ZM22.4258 68V64.136C22.9178 63.308 23.6138 62.828 24.3098 62.828C24.3818 62.828 24.5018 62.828 24.5738 62.84V61.988C24.4778 61.976 24.4058 61.976 24.2978 61.976C23.4578 61.976 22.7618 62.66 22.3778 63.356V62.084H21.4898V68H22.4258ZM29.199 68V63.944C29.739 63.188 30.231 62.744 30.915 62.744C31.491 62.744 31.791 63.14 31.791 63.848V68H32.703V63.956C33.075 63.368 33.687 62.768 34.419 62.768C34.995 62.768 35.319 63.092 35.319 63.86V68H36.243V63.8C36.243 63.32 36.123 62.936 35.943 62.66C35.703 62.216 35.295 61.988 34.683 61.988C33.747 61.988 33.051 62.66 32.643 63.308C32.571 62.468 32.019 61.976 31.155 61.976C30.303 61.976 29.523 62.684 29.175 63.272V62.084H28.275V68H29.199ZM40.2696 68.096C41.4456 68.096 42.3576 67.484 42.7656 66.344L41.9496 66.224C41.6136 67.1 41.0016 67.388 40.3536 67.388C39.2016 67.388 38.5296 66.632 38.5056 65.144H42.8736C42.8616 65.012 42.8736 64.88 42.8616 64.748C42.7416 63.104 41.8416 61.976 40.2936 61.976C38.7696 61.976 37.5576 63.14 37.5576 65.144C37.5576 66.908 38.6496 68.096 40.2696 68.096ZM38.5416 64.508C38.6136 63.392 39.3456 62.684 40.2936 62.684C41.2416 62.684 41.8296 63.368 41.9256 64.508H38.5416ZM46.0376 68.096C47.4776 68.096 48.4136 67.364 48.4136 66.272C48.4136 65.096 47.3816 64.76 46.1696 64.52C45.2216 64.316 44.5136 64.196 44.5136 63.548C44.5136 63.008 45.0536 62.684 45.8456 62.684C46.6496 62.684 47.1896 63.044 47.4176 63.668L48.2456 63.488C47.9456 62.564 47.1776 61.976 45.8456 61.976C44.5256 61.976 43.6496 62.636 43.6496 63.608C43.6496 64.772 44.6696 65.084 45.8816 65.312C46.7576 65.504 47.5496 65.648 47.5496 66.356C47.5496 66.98 46.9736 67.4 46.0376 67.4C45.0176 67.4 44.3576 66.932 44.1656 66.236L43.3256 66.404C43.6136 67.484 44.5376 68.096 46.0376 68.096ZM51.5454 68.096C52.9854 68.096 53.9214 67.364 53.9214 66.272C53.9214 65.096 52.8894 64.76 51.6774 64.52C50.7294 64.316 50.0214 64.196 50.0214 63.548C50.0214 63.008 50.5614 62.684 51.3534 62.684C52.1574 62.684 52.6974 63.044 52.9254 63.668L53.7534 63.488C53.4534 62.564 52.6854 61.976 51.3534 61.976C50.0334 61.976 49.1574 62.636 49.1574 63.608C49.1574 64.772 50.1774 65.084 51.3894 65.312C52.2654 65.504 53.0574 65.648 53.0574 66.356C53.0574 66.98 52.4814 67.4 51.5454 67.4C50.5254 67.4 49.8654 66.932 49.6734 66.236L48.8334 66.404C49.1214 67.484 50.0454 68.096 51.5454 68.096ZM56.5973 68.072C57.7013 68.072 58.3973 67.652 58.8653 67.004C58.8533 67.304 58.9013 67.796 58.9733 68H59.8613C59.7653 67.628 59.7293 67.22 59.7293 66.848V64.16C59.7293 62.672 59.0813 61.976 57.4013 61.976C55.9973 61.976 55.0732 62.552 54.8573 63.632L55.7213 63.728C55.9133 62.972 56.4173 62.708 57.3773 62.708C58.3733 62.708 58.7573 63.056 58.8293 63.704C58.8533 63.848 58.8533 64.052 58.8533 64.256C58.3853 64.268 57.9893 64.268 57.5093 64.328C55.8893 64.52 54.7133 65.156 54.7133 66.44C54.7133 67.52 55.5533 68.072 56.5973 68.072ZM56.8733 67.388C56.0813 67.388 55.6853 67.028 55.6853 66.344C55.6853 65.6 56.3453 65.084 57.6293 64.916C58.0013 64.868 58.4333 64.868 58.8533 64.868V66.092C58.6013 66.704 58.0013 67.388 56.8733 67.388ZM63.7054 70.232C65.6254 70.232 66.5974 69.512 66.5974 68.48C66.5974 67.508 65.9254 67.112 64.0414 67.076C62.8414 67.04 62.0974 67.04 62.0974 66.512C62.0974 66.152 62.4334 65.924 62.7454 65.924C62.8414 65.948 63.2254 66.032 63.6094 66.032C64.9534 66.032 65.7694 65.18 65.7694 64.004C65.7694 63.392 65.5414 62.924 65.2294 62.648C65.3254 62.216 65.5774 61.964 66.1774 61.976C66.2494 61.976 66.3094 61.988 66.3814 62L66.3694 61.22C66.3334 61.22 66.2614 61.22 66.2254 61.22C65.2174 61.208 64.8934 61.616 64.7494 62.264C64.3894 62.072 63.9574 61.976 63.5134 61.976C62.3254 61.976 61.3054 62.792 61.3054 64.004C61.3054 64.724 61.5934 65.336 62.1694 65.636C61.6414 65.78 61.2334 66.14 61.2334 66.644C61.2334 67.1 61.4734 67.436 62.0734 67.604C61.3534 67.784 60.9214 68.228 60.9214 68.816C60.9214 69.728 61.8814 70.232 63.7054 70.232ZM63.5614 65.408C62.7574 65.408 62.2294 64.928 62.2294 64.004C62.2294 63.26 62.6854 62.648 63.5614 62.648C64.4494 62.648 64.8934 63.296 64.8934 64.016C64.8934 64.904 64.4014 65.408 63.5614 65.408ZM63.6334 69.608C62.3134 69.608 61.7734 69.272 61.7734 68.708C61.7734 68.18 62.1334 67.94 62.6014 67.808C65.2654 67.868 65.7094 68 65.7094 68.6C65.7094 69.2 64.9534 69.608 63.6334 69.608ZM69.6719 68.096C70.8479 68.096 71.7599 67.484 72.1679 66.344L71.3519 66.224C71.0159 67.1 70.4039 67.388 69.7559 67.388C68.6039 67.388 67.9319 66.632 67.9079 65.144H72.2759C72.2639 65.012 72.2759 64.88 72.2639 64.748C72.1439 63.104 71.2439 61.976 69.6959 61.976C68.1719 61.976 66.9599 63.14 66.9599 65.144C66.9599 66.908 68.0519 68.096 69.6719 68.096ZM67.9439 64.508C68.0159 63.392 68.7479 62.684 69.6959 62.684C70.6439 62.684 71.2319 63.368 71.3279 64.508H67.9439ZM78.1456 68.096C79.0096 68.096 79.6096 67.748 80.0776 67.1V68H80.9536V59.996H80.0536V62.888C79.7776 62.492 79.2136 61.976 78.3136 61.976C76.8016 61.976 75.8896 63.308 75.8896 65.06C75.8896 66.992 76.7176 68.096 78.1456 68.096ZM78.3976 67.388C77.4136 67.388 76.8616 66.704 76.8616 65.06C76.8616 63.548 77.3896 62.708 78.4576 62.708C79.3336 62.708 79.7416 63.212 80.0416 63.776V66.188C79.7896 66.848 79.2856 67.388 78.3976 67.388ZM83.7749 61.04V59.984H82.7549V61.04H83.7749ZM83.7389 68V62.084H82.8029V68H83.7389ZM87.4283 68.096C88.8683 68.096 89.8043 67.364 89.8043 66.272C89.8043 65.096 88.7723 64.76 87.5603 64.52C86.6123 64.316 85.9043 64.196 85.9043 63.548C85.9043 63.008 86.4443 62.684 87.2363 62.684C88.0403 62.684 88.5803 63.044 88.8083 63.668L89.6363 63.488C89.3363 62.564 88.5683 61.976 87.2363 61.976C85.9163 61.976 85.0403 62.636 85.0403 63.608C85.0403 64.772 86.0603 65.084 87.2723 65.312C88.1483 65.504 88.9403 65.648 88.9403 66.356C88.9403 66.98 88.3643 67.4 87.4283 67.4C86.4083 67.4 85.7483 66.932 85.5563 66.236L84.7163 66.404C85.0043 67.484 85.9283 68.096 87.4283 68.096ZM93.8361 68.084C95.0241 68.084 96.0921 67.04 96.0921 65.036C96.0921 62.9 95.1801 61.976 93.8601 61.976C92.9121 61.976 92.3121 62.552 91.9521 63.128V62.084H91.0641V70.004H91.9881V67.22C92.3481 67.652 92.9721 68.084 93.8361 68.084ZM93.5841 67.4C92.7321 67.4 92.3001 66.872 91.9881 66.428V63.932C92.4081 63.104 92.9601 62.744 93.6441 62.744C94.6641 62.744 95.1201 63.476 95.1201 65.06C95.1201 66.764 94.5201 67.4 93.5841 67.4ZM98.4108 68V59.996H97.4748V68H98.4108ZM101.644 68.072C102.748 68.072 103.444 67.652 103.912 67.004C103.9 67.304 103.948 67.796 104.02 68H104.908C104.812 67.628 104.776 67.22 104.776 66.848V64.16C104.776 62.672 104.128 61.976 102.448 61.976C101.044 61.976 100.12 62.552 99.9041 63.632L100.768 63.728C100.96 62.972 101.464 62.708 102.424 62.708C103.42 62.708 103.804 63.056 103.876 63.704C103.9 63.848 103.9 64.052 103.9 64.256C103.432 64.268 103.036 64.268 102.556 64.328C100.936 64.52 99.7601 65.156 99.7601 66.44C99.7601 67.52 100.6 68.072 101.644 68.072ZM101.92 67.388C101.128 67.388 100.732 67.028 100.732 66.344C100.732 65.6 101.392 65.084 102.676 64.916C103.048 64.868 103.48 64.868 103.9 64.868V66.092C103.648 66.704 103.048 67.388 101.92 67.388ZM106.018 70.076C107.47 70.076 108.154 69.464 108.514 68.42L110.77 62.084H109.942L108.574 65.948L108.334 66.704L108.094 65.948L106.63 62.084H105.622L107.566 67.136C108.07 68.456 107.314 69.32 105.994 69.32L106.018 70.076ZM113.526 68.096C114.966 68.096 115.902 67.364 115.902 66.272C115.902 65.096 114.87 64.76 113.658 64.52C112.71 64.316 112.002 64.196 112.002 63.548C112.002 63.008 112.542 62.684 113.334 62.684C114.138 62.684 114.678 63.044 114.906 63.668L115.734 63.488C115.434 62.564 114.666 61.976 113.334 61.976C112.014 61.976 111.138 62.636 111.138 63.608C111.138 64.772 112.158 65.084 113.37 65.312C114.246 65.504 115.038 65.648 115.038 66.356C115.038 66.98 114.462 67.4 113.526 67.4C112.506 67.4 111.846 66.932 111.654 66.236L110.814 66.404C111.102 67.484 112.026 68.096 113.526 68.096ZM120.863 68V63.956C121.355 63.248 121.943 62.756 122.771 62.756C123.371 62.756 123.731 63.092 123.731 63.812V68H124.667V63.74C124.667 62.768 124.235 61.976 123.035 61.976C121.931 61.976 121.211 62.636 120.827 63.248V59.996H119.927V68H120.863ZM128.711 68.096C129.887 68.096 130.799 67.484 131.207 66.344L130.391 66.224C130.055 67.1 129.443 67.388 128.795 67.388C127.643 67.388 126.971 66.632 126.947 65.144H131.315C131.303 65.012 131.315 64.88 131.303 64.748C131.183 63.104 130.283 61.976 128.735 61.976C127.211 61.976 125.999 63.14 125.999 65.144C125.999 66.908 127.091 68.096 128.711 68.096ZM126.983 64.508C127.055 63.392 127.787 62.684 128.735 62.684C129.683 62.684 130.271 63.368 130.367 64.508H126.983ZM133.543 68V64.136C134.035 63.308 134.731 62.828 135.427 62.828C135.499 62.828 135.619 62.828 135.691 62.84V61.988C135.595 61.976 135.523 61.976 135.415 61.976C134.575 61.976 133.879 62.66 133.495 63.356V62.084H132.607V68H133.543ZM138.777 68.096C139.953 68.096 140.865 67.484 141.273 66.344L140.457 66.224C140.121 67.1 139.509 67.388 138.861 67.388C137.709 67.388 137.037 66.632 137.013 65.144H141.381C141.369 65.012 141.381 64.88 141.369 64.748C141.249 63.104 140.349 61.976 138.801 61.976C137.277 61.976 136.065 63.14 136.065 65.144C136.065 66.908 137.157 68.096 138.777 68.096ZM137.049 64.508C137.121 63.392 137.853 62.684 138.801 62.684C139.749 62.684 140.337 63.368 140.433 64.508H137.049Z" fill="#EA0017"/>
<rect width="490" height="8" transform="translate(9 4)" fill="#4CAEE5" fill-opacity="0.1"/>
<path d="M499 4L9 4" stroke="#4CAEE5" stroke-width="0.5"/>
<path d="M499 12L9 12" stroke="#4CAEE5" stroke-width="0.5"/>
<path d="M254.345 12L253.191 10L255.5 10L254.345 12Z" fill="#4CAEE5"/>
<path d="M254.345 4L253.191 6H255.5L254.345 4Z" fill="#4CAEE5"/>
<rect x="249" width="10" height="16" rx="1" fill="#4CAEE5"/>
<path d="M256.578 6.73633C256.578 6.34961 256.51 6.00977 256.373 5.7168C256.24 5.41992 256.055 5.16992 255.816 4.9668C255.574 4.76367 255.289 4.61133 254.961 4.50977C254.633 4.4043 254.275 4.35156 253.889 4.35156C253.502 4.35156 253.145 4.4043 252.816 4.50977C252.492 4.61133 252.213 4.76367 251.979 4.9668C251.74 5.16992 251.555 5.41992 251.422 5.7168C251.289 6.00977 251.223 6.34961 251.223 6.73633C251.223 6.94727 251.25 7.14844 251.305 7.33984C251.363 7.53125 251.445 7.70703 251.551 7.86719C251.648 8.01953 251.768 8.1582 251.908 8.2832C252.053 8.4082 252.213 8.51562 252.389 8.60547C252.182 8.70312 251.994 8.82227 251.826 8.96289C251.662 9.09961 251.521 9.25391 251.404 9.42578C251.287 9.60156 251.195 9.79492 251.129 10.0059C251.066 10.2129 251.035 10.4336 251.035 10.668C251.035 11.0703 251.107 11.4238 251.252 11.7285C251.4 12.0332 251.604 12.2871 251.861 12.4902C252.119 12.6973 252.422 12.8535 252.77 12.959C253.121 13.0645 253.5 13.1172 253.906 13.1172C254.309 13.1172 254.684 13.0645 255.031 12.959C255.379 12.8535 255.682 12.6973 255.939 12.4902C256.193 12.2871 256.393 12.0332 256.537 11.7285C256.686 11.4238 256.76 11.0703 256.76 10.668C256.76 10.3633 256.707 10.082 256.602 9.82422C256.496 9.56641 256.35 9.33984 256.162 9.14453C256.061 9.03516 255.945 8.9375 255.816 8.85156C255.688 8.76172 255.551 8.68164 255.406 8.61133C255.566 8.5293 255.711 8.43359 255.84 8.32422C255.973 8.21094 256.088 8.08984 256.186 7.96094C256.311 7.78906 256.406 7.60156 256.473 7.39844C256.543 7.19141 256.578 6.9707 256.578 6.73633ZM255.125 10.5566C255.125 10.752 255.094 10.9277 255.031 11.084C254.973 11.2363 254.891 11.3672 254.785 11.4766C254.676 11.5859 254.547 11.6699 254.398 11.7285C254.25 11.7832 254.086 11.8105 253.906 11.8105C253.723 11.8105 253.557 11.7852 253.408 11.7344C253.26 11.6797 253.133 11.6016 253.027 11.5C252.914 11.3945 252.826 11.2617 252.764 11.1016C252.701 10.9414 252.67 10.7598 252.67 10.5566C252.67 10.3613 252.699 10.1855 252.758 10.0293C252.816 9.87305 252.898 9.73828 253.004 9.625C253.109 9.51562 253.236 9.43164 253.385 9.37305C253.537 9.31445 253.707 9.28516 253.895 9.28516C254.082 9.28516 254.25 9.31445 254.398 9.37305C254.551 9.43164 254.682 9.51562 254.791 9.625C254.896 9.73828 254.979 9.87305 255.037 10.0293C255.096 10.1855 255.125 10.3613 255.125 10.5566ZM254.955 6.8125C254.955 6.98438 254.93 7.14258 254.879 7.28711C254.832 7.42773 254.764 7.54883 254.674 7.65039C254.584 7.75195 254.475 7.83203 254.346 7.89062C254.217 7.94531 254.07 7.97266 253.906 7.97266C253.742 7.97266 253.594 7.94531 253.461 7.89062C253.332 7.83203 253.223 7.75195 253.133 7.65039C253.039 7.54883 252.969 7.42773 252.922 7.28711C252.875 7.14258 252.852 6.98438 252.852 6.8125C252.852 6.63672 252.873 6.47852 252.916 6.33789C252.963 6.19336 253.031 6.07227 253.121 5.97461C253.207 5.87695 253.314 5.80273 253.443 5.75195C253.572 5.69727 253.721 5.66992 253.889 5.66992C254.053 5.66992 254.199 5.69727 254.328 5.75195C254.461 5.80664 254.574 5.88281 254.668 5.98047C254.758 6.08203 254.828 6.20312 254.879 6.34375C254.93 6.48438 254.955 6.64062 254.955 6.8125Z" fill="white"/>
<rect width="8" height="48" transform="translate(1 4)" fill="#4CAEE5" fill-opacity="0.1"/>
<path d="M1 4V52" stroke="#4CAEE5" stroke-width="0.5"/>
<path d="M9 4V52" stroke="#4CAEE5" stroke-width="0.5"/>
<path d="M9 27.6547L7 28.8094L7 26.5L9 27.6547Z" fill="#4CAEE5"/>
<path d="M1 27.6547L3 28.8094L3 26.5L1 27.6547Z" fill="#4CAEE5"/>
<rect y="20" width="10" height="16" rx="1" fill="#4CAEE5"/>
<path d="M7.57812 26.7363C7.57812 26.3496 7.50977 26.0098 7.37305 25.7168C7.24023 25.4199 7.05469 25.1699 6.81641 24.9668C6.57422 24.7637 6.28906 24.6113 5.96094 24.5098C5.63281 24.4043 5.27539 24.3516 4.88867 24.3516C4.50195 24.3516 4.14453 24.4043 3.81641 24.5098C3.49219 24.6113 3.21289 24.7637 2.97852 24.9668C2.74023 25.1699 2.55469 25.4199 2.42188 25.7168C2.28906 26.0098 2.22266 26.3496 2.22266 26.7363C2.22266 26.9473 2.25 27.1484 2.30469 27.3398C2.36328 27.5312 2.44531 27.707 2.55078 27.8672C2.64844 28.0195 2.76758 28.1582 2.9082 28.2832C3.05273 28.4082 3.21289 28.5156 3.38867 28.6055C3.18164 28.7031 2.99414 28.8223 2.82617 28.9629C2.66211 29.0996 2.52148 29.2539 2.4043 29.4258C2.28711 29.6016 2.19531 29.7949 2.12891 30.0059C2.06641 30.2129 2.03516 30.4336 2.03516 30.668C2.03516 31.0703 2.10742 31.4238 2.25195 31.7285C2.40039 32.0332 2.60352 32.2871 2.86133 32.4902C3.11914 32.6973 3.42188 32.8535 3.76953 32.959C4.12109 33.0645 4.5 33.1172 4.90625 33.1172C5.30859 33.1172 5.68359 33.0645 6.03125 32.959C6.37891 32.8535 6.68164 32.6973 6.93945 32.4902C7.19336 32.2871 7.39258 32.0332 7.53711 31.7285C7.68555 31.4238 7.75977 31.0703 7.75977 30.668C7.75977 30.3633 7.70703 30.082 7.60156 29.8242C7.49609 29.5664 7.34961 29.3398 7.16211 29.1445C7.06055 29.0352 6.94531 28.9375 6.81641 28.8516C6.6875 28.7617 6.55078 28.6816 6.40625 28.6113C6.56641 28.5293 6.71094 28.4336 6.83984 28.3242C6.97266 28.2109 7.08789 28.0898 7.18555 27.9609C7.31055 27.7891 7.40625 27.6016 7.47266 27.3984C7.54297 27.1914 7.57812 26.9707 7.57812 26.7363ZM6.125 30.5566C6.125 30.752 6.09375 30.9277 6.03125 31.084C5.97266 31.2363 5.89062 31.3672 5.78516 31.4766C5.67578 31.5859 5.54688 31.6699 5.39844 31.7285C5.25 31.7832 5.08594 31.8105 4.90625 31.8105C4.72266 31.8105 4.55664 31.7852 4.4082 31.7344C4.25977 31.6797 4.13281 31.6016 4.02734 31.5C3.91406 31.3945 3.82617 31.2617 3.76367 31.1016C3.70117 30.9414 3.66992 30.7598 3.66992 30.5566C3.66992 30.3613 3.69922 30.1855 3.75781 30.0293C3.81641 29.873 3.89844 29.7383 4.00391 29.625C4.10938 29.5156 4.23633 29.4316 4.38477 29.373C4.53711 29.3145 4.70703 29.2852 4.89453 29.2852C5.08203 29.2852 5.25 29.3145 5.39844 29.373C5.55078 29.4316 5.68164 29.5156 5.79102 29.625C5.89648 29.7383 5.97852 29.873 6.03711 30.0293C6.0957 30.1855 6.125 30.3613 6.125 30.5566ZM5.95508 26.8125C5.95508 26.9844 5.92969 27.1426 5.87891 27.2871C5.83203 27.4277 5.76367 27.5488 5.67383 27.6504C5.58398 27.752 5.47461 27.832 5.3457 27.8906C5.2168 27.9453 5.07031 27.9727 4.90625 27.9727C4.74219 27.9727 4.59375 27.9453 4.46094 27.8906C4.33203 27.832 4.22266 27.752 4.13281 27.6504C4.03906 27.5488 3.96875 27.4277 3.92188 27.2871C3.875 27.1426 3.85156 26.9844 3.85156 26.8125C3.85156 26.6367 3.87305 26.4785 3.91602 26.3379C3.96289 26.1934 4.03125 26.0723 4.12109 25.9746C4.20703 25.877 4.31445 25.8027 4.44336 25.752C4.57227 25.6973 4.7207 25.6699 4.88867 25.6699C5.05273 25.6699 5.19922 25.6973 5.32812 25.752C5.46094 25.8066 5.57422 25.8828 5.66797 25.9805C5.75781 26.082 5.82812 26.2031 5.87891 26.3438C5.92969 26.4844 5.95508 26.6406 5.95508 26.8125Z" fill="white"/>
<rect width="16" height="32" transform="translate(483 12)" fill="#4CAEE5" fill-opacity="0.1"/>
<path d="M483 12V44" stroke="#4CAEE5" stroke-width="0.5"/>
<path d="M499 12V44" stroke="#4CAEE5" stroke-width="0.5"/>
<path d="M499 27.6547L497 28.8094L497 26.5L499 27.6547Z" fill="#4CAEE5"/>
<path d="M483 27.6547L485 28.8094L485 26.5L483 27.6547Z" fill="#4CAEE5"/>
<rect x="482.5" y="20" width="17" height="16" rx="1" fill="#4CAEE5"/>
<path d="M488.609 33V24.4688H488.521L484.807 25.8105V27.2285L486.963 26.4551V33H488.609ZM496.15 24.3984H495.934C495.227 24.3984 494.604 24.5176 494.064 24.7559C493.525 24.9902 493.074 25.3164 492.711 25.7344C492.348 26.1562 492.074 26.6562 491.891 27.2344C491.707 27.8086 491.615 28.4336 491.615 29.1094V29.7363C491.615 30.2246 491.684 30.6758 491.82 31.0898C491.961 31.5 492.16 31.8555 492.418 32.1562C492.672 32.457 492.982 32.6934 493.35 32.8652C493.717 33.0332 494.129 33.1172 494.586 33.1172C495.023 33.1172 495.418 33.043 495.77 32.8945C496.121 32.7422 496.42 32.5352 496.666 32.2734C496.912 32.0117 497.102 31.7031 497.234 31.3477C497.367 30.9922 497.434 30.6074 497.434 30.1934C497.434 29.8066 497.383 29.4395 497.281 29.0918C497.184 28.7402 497.033 28.4316 496.83 28.166C496.627 27.9043 496.373 27.6973 496.068 27.5449C495.768 27.3887 495.414 27.3105 495.008 27.3105C494.809 27.3105 494.623 27.334 494.451 27.3809C494.279 27.4277 494.121 27.4883 493.977 27.5625C493.828 27.6406 493.695 27.7285 493.578 27.8262C493.461 27.9199 493.357 28.0156 493.268 28.1133C493.303 27.7578 493.387 27.4355 493.52 27.1465C493.656 26.8574 493.842 26.6094 494.076 26.4023C494.307 26.1953 494.586 26.0352 494.914 25.9219C495.246 25.8086 495.627 25.752 496.057 25.752H496.15V24.3984ZM494.533 28.6172C494.736 28.6172 494.916 28.6582 495.072 28.7402C495.232 28.8184 495.367 28.9277 495.477 29.0684C495.586 29.2129 495.67 29.3828 495.729 29.5781C495.787 29.7734 495.816 29.9863 495.816 30.2168C495.816 30.4473 495.787 30.6602 495.729 30.8555C495.67 31.0469 495.586 31.2129 495.477 31.3535C495.367 31.4941 495.234 31.6055 495.078 31.6875C494.922 31.7656 494.748 31.8047 494.557 31.8047C494.369 31.8047 494.195 31.7656 494.035 31.6875C493.875 31.6094 493.736 31.4922 493.619 31.3359C493.502 31.1836 493.41 30.9902 493.344 30.7559C493.281 30.5215 493.25 30.248 493.25 29.9355V29.4551C493.305 29.3379 493.371 29.2305 493.449 29.1328C493.531 29.0352 493.621 28.9492 493.719 28.875C493.832 28.793 493.957 28.7305 494.094 28.6875C494.23 28.6406 494.377 28.6172 494.533 28.6172Z" fill="white"/>
<rect width="482" height="4" transform="translate(1 52)" fill="#4CAEE5" fill-opacity="0.1"/>
<path d="M483 52L1 52" stroke="#4CAEE5" stroke-width="0.5"/>
<path d="M483 56L1 56" stroke="#4CAEE5" stroke-width="0.5"/>
<rect width="490" height="8" transform="translate(9 44)" fill="#4CAEE5" fill-opacity="0.1"/>
<path d="M499 44L9 44" stroke="#4CAEE5" stroke-width="0.5"/>
<path d="M499 52L9 52" stroke="#4CAEE5" stroke-width="0.5"/>
<path d="M254.345 52L253.191 50L255.5 50L254.345 52Z" fill="#4CAEE5"/>
<path d="M254.345 44L253.191 46H255.5L254.345 44Z" fill="#4CAEE5"/>
<rect x="249" y="40" width="10" height="16" rx="1" fill="#4CAEE5"/>
<path d="M256.578 46.7363C256.578 46.3496 256.51 46.0098 256.373 45.7168C256.24 45.4199 256.055 45.1699 255.816 44.9668C255.574 44.7637 255.289 44.6113 254.961 44.5098C254.633 44.4043 254.275 44.3516 253.889 44.3516C253.502 44.3516 253.145 44.4043 252.816 44.5098C252.492 44.6113 252.213 44.7637 251.979 44.9668C251.74 45.1699 251.555 45.4199 251.422 45.7168C251.289 46.0098 251.223 46.3496 251.223 46.7363C251.223 46.9473 251.25 47.1484 251.305 47.3398C251.363 47.5312 251.445 47.707 251.551 47.8672C251.648 48.0195 251.768 48.1582 251.908 48.2832C252.053 48.4082 252.213 48.5156 252.389 48.6055C252.182 48.7031 251.994 48.8223 251.826 48.9629C251.662 49.0996 251.521 49.2539 251.404 49.4258C251.287 49.6016 251.195 49.7949 251.129 50.0059C251.066 50.2129 251.035 50.4336 251.035 50.668C251.035 51.0703 251.107 51.4238 251.252 51.7285C251.4 52.0332 251.604 52.2871 251.861 52.4902C252.119 52.6973 252.422 52.8535 252.77 52.959C253.121 53.0645 253.5 53.1172 253.906 53.1172C254.309 53.1172 254.684 53.0645 255.031 52.959C255.379 52.8535 255.682 52.6973 255.939 52.4902C256.193 52.2871 256.393 52.0332 256.537 51.7285C256.686 51.4238 256.76 51.0703 256.76 50.668C256.76 50.3633 256.707 50.082 256.602 49.8242C256.496 49.5664 256.35 49.3398 256.162 49.1445C256.061 49.0352 255.945 48.9375 255.816 48.8516C255.688 48.7617 255.551 48.6816 255.406 48.6113C255.566 48.5293 255.711 48.4336 255.84 48.3242C255.973 48.2109 256.088 48.0898 256.186 47.9609C256.311 47.7891 256.406 47.6016 256.473 47.3984C256.543 47.1914 256.578 46.9707 256.578 46.7363ZM255.125 50.5566C255.125 50.752 255.094 50.9277 255.031 51.084C254.973 51.2363 254.891 51.3672 254.785 51.4766C254.676 51.5859 254.547 51.6699 254.398 51.7285C254.25 51.7832 254.086 51.8105 253.906 51.8105C253.723 51.8105 253.557 51.7852 253.408 51.7344C253.26 51.6797 253.133 51.6016 253.027 51.5C252.914 51.3945 252.826 51.2617 252.764 51.1016C252.701 50.9414 252.67 50.7598 252.67 50.5566C252.67 50.3613 252.699 50.1855 252.758 50.0293C252.816 49.873 252.898 49.7383 253.004 49.625C253.109 49.5156 253.236 49.4316 253.385 49.373C253.537 49.3145 253.707 49.2852 253.895 49.2852C254.082 49.2852 254.25 49.3145 254.398 49.373C254.551 49.4316 254.682 49.5156 254.791 49.625C254.896 49.7383 254.979 49.873 255.037 50.0293C255.096 50.1855 255.125 50.3613 255.125 50.5566ZM254.955 46.8125C254.955 46.9844 254.93 47.1426 254.879 47.2871C254.832 47.4277 254.764 47.5488 254.674 47.6504C254.584 47.752 254.475 47.832 254.346 47.8906C254.217 47.9453 254.07 47.9727 253.906 47.9727C253.742 47.9727 253.594 47.9453 253.461 47.8906C253.332 47.832 253.223 47.752 253.133 47.6504C253.039 47.5488 252.969 47.4277 252.922 47.2871C252.875 47.1426 252.852 46.9844 252.852 46.8125C252.852 46.6367 252.873 46.4785 252.916 46.3379C252.963 46.1934 253.031 46.0723 253.121 45.9746C253.207 45.877 253.314 45.8027 253.443 45.752C253.572 45.6973 253.721 45.6699 253.889 45.6699C254.053 45.6699 254.199 45.6973 254.328 45.752C254.461 45.8066 254.574 45.8828 254.668 45.9805C254.758 46.082 254.828 46.2031 254.879 46.3438C254.93 46.4844 254.955 46.6406 254.955 46.8125Z" fill="white"/>
<rect x="229" y="45" width="10" height="16" rx="1" fill="#4CAEE5"/>
<path d="M235.98 54.8301V49.4688H234.328L230.742 55.1289L230.807 56.1484H234.352V58H235.98V56.1484H236.971V54.8301H235.98ZM232.342 54.8301L234.193 51.9414L234.352 51.6602V54.8301H232.342Z" fill="white"/>
</svg>
