<svg width="606" height="432" viewBox="0 0 606 432" fill="none" xmlns="http://www.w3.org/2000/svg">
<path d="M21.5 142V391" stroke="#1745E8"/>
<rect y="259" width="42" height="18" rx="3" fill="#1745E8"/>
<path d="M8.11648 268.847C8.12003 268.143 8.54972 267.732 9.16761 267.732C9.78196 267.732 10.1442 268.126 10.1406 268.797V272H11.6534V268.527C11.657 267.249 10.9041 266.474 9.76776 266.474C8.94034 266.474 8.38636 266.865 8.13778 267.508H8.07386V264.727H6.60369V272H8.11648V268.847ZM16.2424 268.413H12.9256V269.614H16.2424V268.413ZM20.6813 264.727H19.236L17.4355 265.867V267.231L19.101 266.187H19.1436V272H20.6813V264.727ZM25.2614 272.16C27.0902 272.16 28.1946 270.768 28.1982 268.371C28.2017 265.991 27.0831 264.628 25.2614 264.628C23.4361 264.628 22.3281 265.988 22.3246 268.371C22.3175 270.761 23.429 272.156 25.2614 272.16ZM25.2614 270.885C24.4268 270.885 23.8871 270.047 23.8906 268.371C23.8942 266.719 24.4304 265.888 25.2614 265.888C26.0888 265.888 26.6286 266.719 26.6286 268.371C26.6321 270.047 26.0923 270.885 25.2614 270.885ZM32.1461 272.16C33.975 272.16 35.0794 270.768 35.0829 268.371C35.0865 265.991 33.9679 264.628 32.1461 264.628C30.3208 264.628 29.2129 265.988 29.2093 268.371C29.2022 270.761 30.3137 272.156 32.1461 272.16ZM32.1461 270.885C31.3116 270.885 30.7718 270.047 30.7754 268.371C30.7789 266.719 31.3152 265.888 32.1461 265.888C32.9735 265.888 33.5133 266.719 33.5133 268.371C33.5169 270.047 32.9771 270.885 32.1461 270.885Z" fill="white"/>
<line x1="18" y1="142.5" x2="25" y2="142.5" stroke="#1745E8"/>
<line x1="18" y1="390.5" x2="25" y2="390.5" stroke="#1745E8"/>
<path d="M54 423.5H554" stroke="#1745E8"/>
<rect x="281.5" y="414" width="44" height="18" rx="3" fill="#1745E8"/>
<path d="M289.18 427H290.778L291.715 423.57H291.783L292.72 427H294.322L295.803 421.545H294.276L293.445 425.189H293.398L292.504 421.545H291.001L290.121 425.21H290.071L289.226 421.545H287.695L289.18 427ZM300.008 423.413H296.691V424.614H300.008V423.413ZM304.447 419.727H303.002L301.201 420.867V422.231L302.867 421.187H302.909V427H304.447V419.727ZM309.027 427.16C310.856 427.16 311.96 425.768 311.964 423.371C311.967 420.991 310.849 419.628 309.027 419.628C307.202 419.628 306.094 420.988 306.09 423.371C306.083 425.761 307.195 427.156 309.027 427.16ZM309.027 425.885C308.192 425.885 307.653 425.047 307.656 423.371C307.66 421.719 308.196 420.888 309.027 420.888C309.854 420.888 310.394 421.719 310.394 423.371C310.398 425.047 309.858 425.885 309.027 425.885ZM315.912 427.16C317.741 427.16 318.845 425.768 318.849 423.371C318.852 420.991 317.733 419.628 315.912 419.628C314.086 419.628 312.979 420.988 312.975 423.371C312.968 425.761 314.079 427.156 315.912 427.16ZM315.912 425.885C315.077 425.885 314.537 425.047 314.541 423.371C314.545 421.719 315.081 420.888 315.912 420.888C316.739 420.888 317.279 421.719 317.279 423.371C317.282 425.047 316.743 425.885 315.912 425.885Z" fill="white"/>
<line x1="54.5" y1="427" x2="54.5" y2="420" stroke="#1745E8"/>
<line x1="553.5" y1="427" x2="553.5" y2="420" stroke="#1745E8"/>
<path d="M54 9.5H554" stroke="#1745E8"/>
<rect x="281.5" width="44" height="18" rx="3" fill="#1745E8"/>
<path d="M289.18 13H290.778L291.715 9.5696H291.783L292.72 13H294.322L295.803 7.54545H294.276L293.445 11.1889H293.398L292.504 7.54545H291.001L290.121 11.2102H290.071L289.226 7.54545H287.695L289.18 13ZM300.008 9.41335H296.691V10.6136H300.008V9.41335ZM304.447 5.72727H303.002L301.201 6.86719V8.23082L302.867 7.18679H302.909V13H304.447V5.72727ZM309.027 13.1598C310.856 13.1598 311.96 11.7678 311.964 9.37074C311.967 6.99148 310.849 5.62784 309.027 5.62784C307.202 5.62784 306.094 6.98793 306.09 9.37074C306.083 11.7607 307.195 13.1562 309.027 13.1598ZM309.027 11.8849C308.192 11.8849 307.653 11.0469 307.656 9.37074C307.66 7.71946 308.196 6.88849 309.027 6.88849C309.854 6.88849 310.394 7.71946 310.394 9.37074C310.398 11.0469 309.858 11.8849 309.027 11.8849ZM315.912 13.1598C317.741 13.1598 318.845 11.7678 318.849 9.37074C318.852 6.99148 317.733 5.62784 315.912 5.62784C314.086 5.62784 312.979 6.98793 312.975 9.37074C312.968 11.7607 314.079 13.1562 315.912 13.1598ZM315.912 11.8849C315.077 11.8849 314.537 11.0469 314.541 9.37074C314.545 7.71946 315.081 6.88849 315.912 6.88849C316.739 6.88849 317.279 7.71946 317.279 9.37074C317.282 11.0469 316.743 11.8849 315.912 11.8849Z" fill="white"/>
<line x1="54.5" y1="13" x2="54.5" y2="6" stroke="#1745E8"/>
<line x1="553.5" y1="13" x2="553.5" y2="6" stroke="#1745E8"/>
<path d="M21.5 42V90" stroke="#1745E8"/>
<rect x="3" y="58.5" width="38" height="18" rx="3" fill="#1745E8"/>
<path d="M9.4794 70.2216H12.9702V71.5H14.4403V70.2216H15.3423V68.9893H14.4403V64.2273H12.5156L9.4794 69.0107V70.2216ZM12.9986 68.9893H11.0277V68.9325L12.9418 65.9034H12.9986V68.9893ZM19.0799 71.5994C20.7205 71.5994 21.8995 70.7223 21.9031 69.5433C21.8995 68.6342 21.1999 67.892 20.3263 67.7464V67.6967C21.0863 67.5405 21.6296 66.8835 21.6332 66.0845C21.6296 64.9588 20.5501 64.1278 19.0799 64.1278C17.6062 64.1278 16.5266 64.9588 16.5302 66.0845C16.5266 66.88 17.0629 67.5405 17.837 67.6967V67.7464C16.9492 67.892 16.2567 68.6342 16.2603 69.5433C16.2567 70.7223 17.4393 71.5994 19.0799 71.5994ZM19.0799 70.4702C18.3484 70.4702 17.8583 70.0369 17.8583 69.4226C17.8583 68.794 18.3732 68.3395 19.0799 68.3395C19.783 68.3395 20.3015 68.794 20.3015 69.4226C20.3015 70.0405 19.8079 70.4702 19.0799 70.4702ZM19.0799 67.2209C18.4656 67.2209 18.0288 66.8196 18.0288 66.2443C18.0288 65.6761 18.4585 65.2855 19.0799 65.2855C19.6978 65.2855 20.131 65.6797 20.131 66.2443C20.131 66.8196 19.6907 67.2209 19.0799 67.2209ZM22.9924 73.5455H24.5051V70.6264H24.5513C24.7608 71.081 25.2189 71.5888 26.0996 71.5888C27.3425 71.5888 28.312 70.6051 28.312 68.7798C28.312 66.9048 27.2999 65.9744 26.1032 65.9744C25.1905 65.9744 24.7537 66.5178 24.5513 66.9616H24.4838V66.0455H22.9924V73.5455ZM24.4732 68.7727C24.4732 67.7997 24.8851 67.1783 25.6202 67.1783C26.3695 67.1783 26.7672 67.8281 26.7672 68.7727C26.7672 69.7244 26.3624 70.3849 25.6202 70.3849C24.8922 70.3849 24.4732 69.7457 24.4732 68.7727ZM30.3796 66.0455H28.8171L30.3796 68.7727L28.7603 71.5H30.3228L31.381 69.6143L32.457 71.5H34.0018L32.3789 68.7727L33.9592 66.0455H32.4073L31.381 67.9524L30.3796 66.0455Z" fill="white"/>
<line x1="18" y1="42.5" x2="25" y2="42.5" stroke="#1745E8"/>
<line x1="18" y1="89.5" x2="25" y2="89.5" stroke="#1745E8"/>
<g clip-path="url(#clip0)">
<path d="M54 144C54 142.895 54.8954 142 56 142H552C553.105 142 554 142.895 554 144V389C554 390.105 553.105 391 552 391H56C54.8954 391 54 390.105 54 389V144Z" fill="white"/>
<path d="M64.992 162V158.544H66.936C68.472 158.544 69.432 157.656 69.432 156.276C69.432 154.86 68.568 153.996 66.828 153.996H63.996V162H64.992ZM64.992 154.848H66.912C67.824 154.848 68.424 155.412 68.424 156.312C68.424 157.2 67.824 157.728 66.84 157.728H64.992V154.848ZM71.5631 162V153.996H70.6271V162H71.5631ZM74.7965 162.072C75.9005 162.072 76.5965 161.652 77.0645 161.004C77.0525 161.304 77.1005 161.796 77.1725 162H78.0605C77.9645 161.628 77.9285 161.22 77.9285 160.848V158.16C77.9285 156.672 77.2805 155.976 75.6005 155.976C74.1965 155.976 73.2725 156.552 73.0565 157.632L73.9205 157.728C74.1125 156.972 74.6165 156.708 75.5765 156.708C76.5725 156.708 76.9565 157.056 77.0285 157.704C77.0525 157.848 77.0525 158.052 77.0525 158.256C76.5845 158.268 76.1885 158.268 75.7085 158.328C74.0885 158.52 72.9125 159.156 72.9125 160.44C72.9125 161.52 73.7525 162.072 74.7965 162.072ZM75.0725 161.388C74.2805 161.388 73.8845 161.028 73.8845 160.344C73.8845 159.6 74.5445 159.084 75.8285 158.916C76.2005 158.868 76.6325 158.868 77.0525 158.868V160.092C76.8005 160.704 76.2005 161.388 75.0725 161.388ZM81.7966 162.096C82.9726 162.096 83.8486 161.412 84.0526 160.08L83.2366 159.996C83.0566 160.98 82.6006 161.4 81.8206 161.4C80.9326 161.4 80.2366 160.668 80.2366 159.036C80.2366 157.56 80.8126 156.72 81.7606 156.72C82.5766 156.72 83.0446 157.248 83.1886 158.22L84.0646 158.112C83.8006 156.66 83.0086 155.976 81.7486 155.976C80.2486 155.976 79.2526 157.296 79.2526 159.012C79.2526 160.992 80.3446 162.096 81.7966 162.096ZM87.5664 162.096C88.7424 162.096 89.6544 161.484 90.0624 160.344L89.2464 160.224C88.9104 161.1 88.2984 161.388 87.6504 161.388C86.4984 161.388 85.8264 160.632 85.8024 159.144H90.1704C90.1584 159.012 90.1704 158.88 90.1584 158.748C90.0384 157.104 89.1384 155.976 87.5904 155.976C86.0664 155.976 84.8544 157.14 84.8544 159.144C84.8544 160.908 85.9464 162.096 87.5664 162.096ZM85.8384 158.508C85.9104 157.392 86.6424 156.684 87.5904 156.684C88.5384 156.684 89.1264 157.368 89.2224 158.508H85.8384ZM92.3985 162V157.956C92.8905 157.248 93.4785 156.756 94.3065 156.756C94.9065 156.756 95.2665 157.092 95.2665 157.812V162H96.2025V157.74C96.2025 156.768 95.7705 155.976 94.5705 155.976C93.4665 155.976 92.7465 156.636 92.3625 157.248V153.996H91.4625V162H92.3985ZM100.174 162.096C101.638 162.096 102.85 160.884 102.85 159.024C102.85 157.2 101.794 155.976 100.174 155.976C98.7221 155.976 97.5221 157.164 97.5221 159.012C97.5221 160.884 98.6501 162.096 100.174 162.096ZM100.162 161.4C99.1661 161.4 98.5061 160.512 98.5061 159.024C98.5061 157.5 99.2261 156.708 100.162 156.708C101.146 156.708 101.866 157.476 101.866 159.012C101.866 160.608 101.134 161.4 100.162 161.4ZM105.149 162V153.996H104.213V162H105.149ZM108.778 162.096C109.642 162.096 110.242 161.748 110.71 161.1V162H111.586V153.996H110.686V156.888C110.41 156.492 109.846 155.976 108.946 155.976C107.434 155.976 106.522 157.308 106.522 159.06C106.522 160.992 107.35 162.096 108.778 162.096ZM109.03 161.388C108.046 161.388 107.494 160.704 107.494 159.06C107.494 157.548 108.022 156.708 109.09 156.708C109.966 156.708 110.374 157.212 110.674 157.776V160.188C110.422 160.848 109.918 161.388 109.03 161.388ZM115.68 162.096C116.856 162.096 117.768 161.484 118.176 160.344L117.36 160.224C117.024 161.1 116.412 161.388 115.764 161.388C114.612 161.388 113.94 160.632 113.916 159.144H118.284C118.272 159.012 118.284 158.88 118.272 158.748C118.152 157.104 117.252 155.976 115.704 155.976C114.18 155.976 112.968 157.14 112.968 159.144C112.968 160.908 114.06 162.096 115.68 162.096ZM113.952 158.508C114.024 157.392 114.756 156.684 115.704 156.684C116.652 156.684 117.24 157.368 117.336 158.508H113.952ZM120.512 162V158.136C121.004 157.308 121.7 156.828 122.396 156.828C122.468 156.828 122.588 156.828 122.66 156.84V155.988C122.564 155.976 122.492 155.976 122.384 155.976C121.544 155.976 120.848 156.66 120.464 157.356V156.084H119.576V162H120.512ZM128.869 162V154.848H131.161V153.996H125.581V154.848H127.873V162H128.869ZM133.375 162.096C134.551 162.096 135.463 161.484 135.871 160.344L135.055 160.224C134.719 161.1 134.107 161.388 133.459 161.388C132.307 161.388 131.635 160.632 131.611 159.144H135.979C135.967 159.012 135.979 158.88 135.967 158.748C135.847 157.104 134.947 155.976 133.399 155.976C131.875 155.976 130.663 157.14 130.663 159.144C130.663 160.908 131.755 162.096 133.375 162.096ZM131.647 158.508C131.719 157.392 132.451 156.684 133.399 156.684C134.347 156.684 134.935 157.368 135.031 158.508H131.647ZM137.322 162L138.822 159.792L138.942 159.576L139.074 159.792L140.622 162H141.654L139.458 158.808L141.294 156.084H140.394L139.158 157.896L139.002 158.136L138.846 157.896L137.61 156.084H136.554L138.486 158.904L136.41 162H137.322ZM144.201 162.084C144.525 162.084 144.885 162.048 145.209 161.988V161.256C144.993 161.292 144.645 161.328 144.369 161.328C143.865 161.316 143.541 161.04 143.541 160.416V156.828H144.873V156.084H143.541V154.536H142.689L142.641 156.084H141.669V156.828H142.629V160.368C142.629 161.592 143.205 162.084 144.201 162.084Z" fill="#3D73D5"/>
<path d="M530 164.414L535.293 169.707L536.707 168.293L530.707 162.293C530.519 162.106 530.265 162 530 162C529.735 162 529.48 162.106 529.293 162.293L523.293 168.293L524.707 169.707L530 164.414Z" fill="#666666"/>
<rect x="54" y="189" width="500" height="1" fill="#E9E9E9"/>
<rect width="500" height="40" transform="translate(54 190)" fill="white"/>
<path d="M66.592 217.176C69.024 217.176 70.464 215.992 70.464 214.104C70.464 212.312 69.248 211.56 67.008 210.968C64.816 210.392 64.032 209.992 64.032 208.808C64.032 207.896 64.912 207.224 66.256 207.224C67.6 207.224 68.624 207.928 68.944 209.128L70.176 208.744C69.664 207.08 68.272 206.12 66.272 206.12C64.208 206.12 62.704 207.224 62.704 208.952C62.704 210.84 64.192 211.544 66.16 212.04C67.92 212.504 69.152 212.888 69.152 214.216C69.152 215.432 68.176 216.088 66.608 216.088C64.736 216.088 63.824 215.32 63.328 214.024L62.192 214.472C62.896 216.248 64.272 217.176 66.592 217.176ZM74.2286 217.096C75.7006 217.096 76.6286 216.536 77.2526 215.672C77.2366 216.072 77.3006 216.728 77.3966 217H78.5806C78.4526 216.504 78.4046 215.96 78.4046 215.464V211.88C78.4046 209.896 77.5406 208.968 75.3006 208.968C73.4286 208.968 72.1966 209.736 71.9086 211.176L73.0606 211.304C73.3166 210.296 73.9886 209.944 75.2686 209.944C76.5966 209.944 77.1086 210.408 77.2046 211.272C77.2366 211.464 77.2366 211.736 77.2366 212.008C76.6126 212.024 76.0846 212.024 75.4446 212.104C73.2846 212.36 71.7166 213.208 71.7166 214.92C71.7166 216.36 72.8366 217.096 74.2286 217.096ZM74.5966 216.184C73.5406 216.184 73.0126 215.704 73.0126 214.792C73.0126 213.8 73.8926 213.112 75.6046 212.888C76.1006 212.824 76.6766 212.824 77.2366 212.824V214.456C76.9006 215.272 76.1006 216.184 74.5966 216.184ZM82.0101 217V211.592C82.7301 210.584 83.3861 209.992 84.2981 209.992C85.0661 209.992 85.4661 210.52 85.4661 211.464V217H86.6821V211.608C87.1781 210.824 87.9941 210.024 88.9701 210.024C89.7381 210.024 90.1701 210.456 90.1701 211.48V217H91.4021V211.4C91.4021 210.76 91.2421 210.248 91.0021 209.88C90.6821 209.288 90.1381 208.984 89.3221 208.984C88.0741 208.984 87.1461 209.88 86.6021 210.744C86.5061 209.624 85.7701 208.968 84.6181 208.968C83.4821 208.968 82.4421 209.912 81.9781 210.696V209.112H80.7781V217H82.0101ZM97.4429 217.112C99.0269 217.112 100.451 215.72 100.451 213.048C100.451 210.2 99.2349 208.968 97.4749 208.968C96.2109 208.968 95.4109 209.736 94.9309 210.504V209.112H93.7469V219.672H94.9789V215.96C95.4589 216.536 96.2909 217.112 97.4429 217.112ZM97.1069 216.2C95.9709 216.2 95.3949 215.496 94.9789 214.904V211.576C95.5389 210.472 96.2749 209.992 97.1869 209.992C98.5469 209.992 99.1549 210.968 99.1549 213.08C99.1549 215.352 98.3549 216.2 97.1069 216.2ZM103.543 217V206.328H102.295V217H103.543ZM108.99 217.128C110.558 217.128 111.774 216.312 112.318 214.792L111.23 214.632C110.782 215.8 109.966 216.184 109.102 216.184C107.566 216.184 106.67 215.176 106.638 213.192H112.462C112.446 213.016 112.462 212.84 112.446 212.664C112.286 210.472 111.086 208.968 109.022 208.968C106.99 208.968 105.374 210.52 105.374 213.192C105.374 215.544 106.83 217.128 108.99 217.128ZM106.686 212.344C106.782 210.856 107.758 209.912 109.022 209.912C110.286 209.912 111.07 210.824 111.198 212.344H106.686ZM121.712 217.208C124.272 217.208 126.096 214.952 126.096 211.672C126.096 208.2 124.304 206.12 121.712 206.12C119.184 206.12 117.344 208.216 117.344 211.672C117.344 215.128 119.12 217.208 121.712 217.208ZM121.712 216.12C120.064 216.12 118.736 214.648 118.736 211.672C118.736 208.984 119.744 207.24 121.712 207.24C123.712 207.24 124.704 208.904 124.704 211.672C124.704 214.424 123.568 216.12 121.712 216.12ZM131.662 217.112C133.246 217.112 134.67 215.72 134.67 213.048C134.67 210.2 133.454 208.968 131.694 208.968C130.43 208.968 129.63 209.736 129.15 210.504V209.112H127.966V219.672H129.198V215.96C129.678 216.536 130.51 217.112 131.662 217.112ZM131.326 216.2C130.19 216.2 129.614 215.496 129.198 214.904V211.576C129.758 210.472 130.494 209.992 131.406 209.992C132.766 209.992 133.374 210.968 133.374 213.08C133.374 215.352 132.574 216.2 131.326 216.2ZM138.689 217.112C139.121 217.112 139.601 217.064 140.033 216.984V216.008C139.745 216.056 139.281 216.104 138.913 216.104C138.241 216.088 137.809 215.72 137.809 214.888V210.104H139.585V209.112H137.809V207.048H136.673L136.609 209.112H135.313V210.104H136.593V214.824C136.593 216.456 137.361 217.112 138.689 217.112ZM142.731 207.72V206.312H141.371V207.72H142.731ZM142.683 217V209.112H141.435V217H142.683ZM148.034 217.128C149.986 217.128 151.602 215.512 151.602 213.032C151.602 210.6 150.194 208.968 148.034 208.968C146.098 208.968 144.498 210.552 144.498 213.016C144.498 215.512 146.002 217.128 148.034 217.128ZM148.018 216.2C146.69 216.2 145.81 215.016 145.81 213.032C145.81 211 146.77 209.944 148.018 209.944C149.33 209.944 150.29 210.968 150.29 213.016C150.29 215.144 149.314 216.2 148.018 216.2ZM154.636 217V211.592C155.292 210.648 156.124 210.008 157.132 210.008C158.028 210.008 158.444 210.456 158.444 211.4V217H159.692V211.416C159.692 209.8 158.972 208.968 157.5 208.968C156.092 208.968 155.116 209.896 154.572 210.68V209.112H153.388V217H154.636Z" fill="#666666"/>
<rect width="500" height="40" transform="translate(54 230)" fill="white"/>
<path d="M66.592 257.176C69.024 257.176 70.464 255.992 70.464 254.104C70.464 252.312 69.248 251.56 67.008 250.968C64.816 250.392 64.032 249.992 64.032 248.808C64.032 247.896 64.912 247.224 66.256 247.224C67.6 247.224 68.624 247.928 68.944 249.128L70.176 248.744C69.664 247.08 68.272 246.12 66.272 246.12C64.208 246.12 62.704 247.224 62.704 248.952C62.704 250.84 64.192 251.544 66.16 252.04C67.92 252.504 69.152 252.888 69.152 254.216C69.152 255.432 68.176 256.088 66.608 256.088C64.736 256.088 63.824 255.32 63.328 254.024L62.192 254.472C62.896 256.248 64.272 257.176 66.592 257.176ZM74.2286 257.096C75.7006 257.096 76.6286 256.536 77.2526 255.672C77.2366 256.072 77.3006 256.728 77.3966 257H78.5806C78.4526 256.504 78.4046 255.96 78.4046 255.464V251.88C78.4046 249.896 77.5406 248.968 75.3006 248.968C73.4286 248.968 72.1966 249.736 71.9086 251.176L73.0606 251.304C73.3166 250.296 73.9886 249.944 75.2686 249.944C76.5966 249.944 77.1086 250.408 77.2046 251.272C77.2366 251.464 77.2366 251.736 77.2366 252.008C76.6126 252.024 76.0846 252.024 75.4446 252.104C73.2846 252.36 71.7166 253.208 71.7166 254.92C71.7166 256.36 72.8366 257.096 74.2286 257.096ZM74.5966 256.184C73.5406 256.184 73.0126 255.704 73.0126 254.792C73.0126 253.8 73.8926 253.112 75.6046 252.888C76.1006 252.824 76.6766 252.824 77.2366 252.824V254.456C76.9006 255.272 76.1006 256.184 74.5966 256.184ZM82.0101 257V251.592C82.7301 250.584 83.3861 249.992 84.2981 249.992C85.0661 249.992 85.4661 250.52 85.4661 251.464V257H86.6821V251.608C87.1781 250.824 87.9941 250.024 88.9701 250.024C89.7381 250.024 90.1701 250.456 90.1701 251.48V257H91.4021V251.4C91.4021 250.76 91.2421 250.248 91.0021 249.88C90.6821 249.288 90.1381 248.984 89.3221 248.984C88.0741 248.984 87.1461 249.88 86.6021 250.744C86.5061 249.624 85.7701 248.968 84.6181 248.968C83.4821 248.968 82.4421 249.912 81.9781 250.696V249.112H80.7781V257H82.0101ZM97.4429 257.112C99.0269 257.112 100.451 255.72 100.451 253.048C100.451 250.2 99.2349 248.968 97.4749 248.968C96.2109 248.968 95.4109 249.736 94.9309 250.504V249.112H93.7469V259.672H94.9789V255.96C95.4589 256.536 96.2909 257.112 97.4429 257.112ZM97.1069 256.2C95.9709 256.2 95.3949 255.496 94.9789 254.904V251.576C95.5389 250.472 96.2749 249.992 97.1869 249.992C98.5469 249.992 99.1549 250.968 99.1549 253.08C99.1549 255.352 98.3549 256.2 97.1069 256.2ZM103.543 257V246.328H102.295V257H103.543ZM108.99 257.128C110.558 257.128 111.774 256.312 112.318 254.792L111.23 254.632C110.782 255.8 109.966 256.184 109.102 256.184C107.566 256.184 106.67 255.176 106.638 253.192H112.462C112.446 253.016 112.462 252.84 112.446 252.664C112.286 250.472 111.086 248.968 109.022 248.968C106.99 248.968 105.374 250.52 105.374 253.192C105.374 255.544 106.83 257.128 108.99 257.128ZM106.686 252.344C106.782 250.856 107.758 249.912 109.022 249.912C110.286 249.912 111.07 250.824 111.198 252.344H106.686ZM121.712 257.208C124.272 257.208 126.096 254.952 126.096 251.672C126.096 248.2 124.304 246.12 121.712 246.12C119.184 246.12 117.344 248.216 117.344 251.672C117.344 255.128 119.12 257.208 121.712 257.208ZM121.712 256.12C120.064 256.12 118.736 254.648 118.736 251.672C118.736 248.984 119.744 247.24 121.712 247.24C123.712 247.24 124.704 248.904 124.704 251.672C124.704 254.424 123.568 256.12 121.712 256.12ZM131.662 257.112C133.246 257.112 134.67 255.72 134.67 253.048C134.67 250.2 133.454 248.968 131.694 248.968C130.43 248.968 129.63 249.736 129.15 250.504V249.112H127.966V259.672H129.198V255.96C129.678 256.536 130.51 257.112 131.662 257.112ZM131.326 256.2C130.19 256.2 129.614 255.496 129.198 254.904V251.576C129.758 250.472 130.494 249.992 131.406 249.992C132.766 249.992 133.374 250.968 133.374 253.08C133.374 255.352 132.574 256.2 131.326 256.2ZM138.689 257.112C139.121 257.112 139.601 257.064 140.033 256.984V256.008C139.745 256.056 139.281 256.104 138.913 256.104C138.241 256.088 137.809 255.72 137.809 254.888V250.104H139.585V249.112H137.809V247.048H136.673L136.609 249.112H135.313V250.104H136.593V254.824C136.593 256.456 137.361 257.112 138.689 257.112ZM142.731 247.72V246.312H141.371V247.72H142.731ZM142.683 257V249.112H141.435V257H142.683ZM148.034 257.128C149.986 257.128 151.602 255.512 151.602 253.032C151.602 250.6 150.194 248.968 148.034 248.968C146.098 248.968 144.498 250.552 144.498 253.016C144.498 255.512 146.002 257.128 148.034 257.128ZM148.018 256.2C146.69 256.2 145.81 255.016 145.81 253.032C145.81 251 146.77 249.944 148.018 249.944C149.33 249.944 150.29 250.968 150.29 253.016C150.29 255.144 149.314 256.2 148.018 256.2ZM154.636 257V251.592C155.292 250.648 156.124 250.008 157.132 250.008C158.028 250.008 158.444 250.456 158.444 251.4V257H159.692V251.416C159.692 249.8 158.972 248.968 157.5 248.968C156.092 248.968 155.116 249.896 154.572 250.68V249.112H153.388V257H154.636Z" fill="#666666"/>
<rect width="500" height="40" transform="translate(54 270)" fill="white"/>
<path d="M66.592 297.176C69.024 297.176 70.464 295.992 70.464 294.104C70.464 292.312 69.248 291.56 67.008 290.968C64.816 290.392 64.032 289.992 64.032 288.808C64.032 287.896 64.912 287.224 66.256 287.224C67.6 287.224 68.624 287.928 68.944 289.128L70.176 288.744C69.664 287.08 68.272 286.12 66.272 286.12C64.208 286.12 62.704 287.224 62.704 288.952C62.704 290.84 64.192 291.544 66.16 292.04C67.92 292.504 69.152 292.888 69.152 294.216C69.152 295.432 68.176 296.088 66.608 296.088C64.736 296.088 63.824 295.32 63.328 294.024L62.192 294.472C62.896 296.248 64.272 297.176 66.592 297.176ZM74.2286 297.096C75.7006 297.096 76.6286 296.536 77.2526 295.672C77.2366 296.072 77.3006 296.728 77.3966 297H78.5806C78.4526 296.504 78.4046 295.96 78.4046 295.464V291.88C78.4046 289.896 77.5406 288.968 75.3006 288.968C73.4286 288.968 72.1966 289.736 71.9086 291.176L73.0606 291.304C73.3166 290.296 73.9886 289.944 75.2686 289.944C76.5966 289.944 77.1086 290.408 77.2046 291.272C77.2366 291.464 77.2366 291.736 77.2366 292.008C76.6126 292.024 76.0846 292.024 75.4446 292.104C73.2846 292.36 71.7166 293.208 71.7166 294.92C71.7166 296.36 72.8366 297.096 74.2286 297.096ZM74.5966 296.184C73.5406 296.184 73.0126 295.704 73.0126 294.792C73.0126 293.8 73.8926 293.112 75.6046 292.888C76.1006 292.824 76.6766 292.824 77.2366 292.824V294.456C76.9006 295.272 76.1006 296.184 74.5966 296.184ZM82.0101 297V291.592C82.7301 290.584 83.3861 289.992 84.2981 289.992C85.0661 289.992 85.4661 290.52 85.4661 291.464V297H86.6821V291.608C87.1781 290.824 87.9941 290.024 88.9701 290.024C89.7381 290.024 90.1701 290.456 90.1701 291.48V297H91.4021V291.4C91.4021 290.76 91.2421 290.248 91.0021 289.88C90.6821 289.288 90.1381 288.984 89.3221 288.984C88.0741 288.984 87.1461 289.88 86.6021 290.744C86.5061 289.624 85.7701 288.968 84.6181 288.968C83.4821 288.968 82.4421 289.912 81.9781 290.696V289.112H80.7781V297H82.0101ZM97.4429 297.112C99.0269 297.112 100.451 295.72 100.451 293.048C100.451 290.2 99.2349 288.968 97.4749 288.968C96.2109 288.968 95.4109 289.736 94.9309 290.504V289.112H93.7469V299.672H94.9789V295.96C95.4589 296.536 96.2909 297.112 97.4429 297.112ZM97.1069 296.2C95.9709 296.2 95.3949 295.496 94.9789 294.904V291.576C95.5389 290.472 96.2749 289.992 97.1869 289.992C98.5469 289.992 99.1549 290.968 99.1549 293.08C99.1549 295.352 98.3549 296.2 97.1069 296.2ZM103.543 297V286.328H102.295V297H103.543ZM108.99 297.128C110.558 297.128 111.774 296.312 112.318 294.792L111.23 294.632C110.782 295.8 109.966 296.184 109.102 296.184C107.566 296.184 106.67 295.176 106.638 293.192H112.462C112.446 293.016 112.462 292.84 112.446 292.664C112.286 290.472 111.086 288.968 109.022 288.968C106.99 288.968 105.374 290.52 105.374 293.192C105.374 295.544 106.83 297.128 108.99 297.128ZM106.686 292.344C106.782 290.856 107.758 289.912 109.022 289.912C110.286 289.912 111.07 290.824 111.198 292.344H106.686ZM121.712 297.208C124.272 297.208 126.096 294.952 126.096 291.672C126.096 288.2 124.304 286.12 121.712 286.12C119.184 286.12 117.344 288.216 117.344 291.672C117.344 295.128 119.12 297.208 121.712 297.208ZM121.712 296.12C120.064 296.12 118.736 294.648 118.736 291.672C118.736 288.984 119.744 287.24 121.712 287.24C123.712 287.24 124.704 288.904 124.704 291.672C124.704 294.424 123.568 296.12 121.712 296.12ZM131.662 297.112C133.246 297.112 134.67 295.72 134.67 293.048C134.67 290.2 133.454 288.968 131.694 288.968C130.43 288.968 129.63 289.736 129.15 290.504V289.112H127.966V299.672H129.198V295.96C129.678 296.536 130.51 297.112 131.662 297.112ZM131.326 296.2C130.19 296.2 129.614 295.496 129.198 294.904V291.576C129.758 290.472 130.494 289.992 131.406 289.992C132.766 289.992 133.374 290.968 133.374 293.08C133.374 295.352 132.574 296.2 131.326 296.2ZM138.689 297.112C139.121 297.112 139.601 297.064 140.033 296.984V296.008C139.745 296.056 139.281 296.104 138.913 296.104C138.241 296.088 137.809 295.72 137.809 294.888V290.104H139.585V289.112H137.809V287.048H136.673L136.609 289.112H135.313V290.104H136.593V294.824C136.593 296.456 137.361 297.112 138.689 297.112ZM142.731 287.72V286.312H141.371V287.72H142.731ZM142.683 297V289.112H141.435V297H142.683ZM148.034 297.128C149.986 297.128 151.602 295.512 151.602 293.032C151.602 290.6 150.194 288.968 148.034 288.968C146.098 288.968 144.498 290.552 144.498 293.016C144.498 295.512 146.002 297.128 148.034 297.128ZM148.018 296.2C146.69 296.2 145.81 295.016 145.81 293.032C145.81 291 146.77 289.944 148.018 289.944C149.33 289.944 150.29 290.968 150.29 293.016C150.29 295.144 149.314 296.2 148.018 296.2ZM154.636 297V291.592C155.292 290.648 156.124 290.008 157.132 290.008C158.028 290.008 158.444 290.456 158.444 291.4V297H159.692V291.416C159.692 289.8 158.972 288.968 157.5 288.968C156.092 288.968 155.116 289.896 154.572 290.68V289.112H153.388V297H154.636Z" fill="#666666"/>
<rect width="500" height="40" transform="translate(54 310)" fill="white"/>
<path d="M66.592 337.176C69.024 337.176 70.464 335.992 70.464 334.104C70.464 332.312 69.248 331.56 67.008 330.968C64.816 330.392 64.032 329.992 64.032 328.808C64.032 327.896 64.912 327.224 66.256 327.224C67.6 327.224 68.624 327.928 68.944 329.128L70.176 328.744C69.664 327.08 68.272 326.12 66.272 326.12C64.208 326.12 62.704 327.224 62.704 328.952C62.704 330.84 64.192 331.544 66.16 332.04C67.92 332.504 69.152 332.888 69.152 334.216C69.152 335.432 68.176 336.088 66.608 336.088C64.736 336.088 63.824 335.32 63.328 334.024L62.192 334.472C62.896 336.248 64.272 337.176 66.592 337.176ZM74.2286 337.096C75.7006 337.096 76.6286 336.536 77.2526 335.672C77.2366 336.072 77.3006 336.728 77.3966 337H78.5806C78.4526 336.504 78.4046 335.96 78.4046 335.464V331.88C78.4046 329.896 77.5406 328.968 75.3006 328.968C73.4286 328.968 72.1966 329.736 71.9086 331.176L73.0606 331.304C73.3166 330.296 73.9886 329.944 75.2686 329.944C76.5966 329.944 77.1086 330.408 77.2046 331.272C77.2366 331.464 77.2366 331.736 77.2366 332.008C76.6126 332.024 76.0846 332.024 75.4446 332.104C73.2846 332.36 71.7166 333.208 71.7166 334.92C71.7166 336.36 72.8366 337.096 74.2286 337.096ZM74.5966 336.184C73.5406 336.184 73.0126 335.704 73.0126 334.792C73.0126 333.8 73.8926 333.112 75.6046 332.888C76.1006 332.824 76.6766 332.824 77.2366 332.824V334.456C76.9006 335.272 76.1006 336.184 74.5966 336.184ZM82.0101 337V331.592C82.7301 330.584 83.3861 329.992 84.2981 329.992C85.0661 329.992 85.4661 330.52 85.4661 331.464V337H86.6821V331.608C87.1781 330.824 87.9941 330.024 88.9701 330.024C89.7381 330.024 90.1701 330.456 90.1701 331.48V337H91.4021V331.4C91.4021 330.76 91.2421 330.248 91.0021 329.88C90.6821 329.288 90.1381 328.984 89.3221 328.984C88.0741 328.984 87.1461 329.88 86.6021 330.744C86.5061 329.624 85.7701 328.968 84.6181 328.968C83.4821 328.968 82.4421 329.912 81.9781 330.696V329.112H80.7781V337H82.0101ZM97.4429 337.112C99.0269 337.112 100.451 335.72 100.451 333.048C100.451 330.2 99.2349 328.968 97.4749 328.968C96.2109 328.968 95.4109 329.736 94.9309 330.504V329.112H93.7469V339.672H94.9789V335.96C95.4589 336.536 96.2909 337.112 97.4429 337.112ZM97.1069 336.2C95.9709 336.2 95.3949 335.496 94.9789 334.904V331.576C95.5389 330.472 96.2749 329.992 97.1869 329.992C98.5469 329.992 99.1549 330.968 99.1549 333.08C99.1549 335.352 98.3549 336.2 97.1069 336.2ZM103.543 337V326.328H102.295V337H103.543ZM108.99 337.128C110.558 337.128 111.774 336.312 112.318 334.792L111.23 334.632C110.782 335.8 109.966 336.184 109.102 336.184C107.566 336.184 106.67 335.176 106.638 333.192H112.462C112.446 333.016 112.462 332.84 112.446 332.664C112.286 330.472 111.086 328.968 109.022 328.968C106.99 328.968 105.374 330.52 105.374 333.192C105.374 335.544 106.83 337.128 108.99 337.128ZM106.686 332.344C106.782 330.856 107.758 329.912 109.022 329.912C110.286 329.912 111.07 330.824 111.198 332.344H106.686ZM121.712 337.208C124.272 337.208 126.096 334.952 126.096 331.672C126.096 328.2 124.304 326.12 121.712 326.12C119.184 326.12 117.344 328.216 117.344 331.672C117.344 335.128 119.12 337.208 121.712 337.208ZM121.712 336.12C120.064 336.12 118.736 334.648 118.736 331.672C118.736 328.984 119.744 327.24 121.712 327.24C123.712 327.24 124.704 328.904 124.704 331.672C124.704 334.424 123.568 336.12 121.712 336.12ZM131.662 337.112C133.246 337.112 134.67 335.72 134.67 333.048C134.67 330.2 133.454 328.968 131.694 328.968C130.43 328.968 129.63 329.736 129.15 330.504V329.112H127.966V339.672H129.198V335.96C129.678 336.536 130.51 337.112 131.662 337.112ZM131.326 336.2C130.19 336.2 129.614 335.496 129.198 334.904V331.576C129.758 330.472 130.494 329.992 131.406 329.992C132.766 329.992 133.374 330.968 133.374 333.08C133.374 335.352 132.574 336.2 131.326 336.2ZM138.689 337.112C139.121 337.112 139.601 337.064 140.033 336.984V336.008C139.745 336.056 139.281 336.104 138.913 336.104C138.241 336.088 137.809 335.72 137.809 334.888V330.104H139.585V329.112H137.809V327.048H136.673L136.609 329.112H135.313V330.104H136.593V334.824C136.593 336.456 137.361 337.112 138.689 337.112ZM142.731 327.72V326.312H141.371V327.72H142.731ZM142.683 337V329.112H141.435V337H142.683ZM148.034 337.128C149.986 337.128 151.602 335.512 151.602 333.032C151.602 330.6 150.194 328.968 148.034 328.968C146.098 328.968 144.498 330.552 144.498 333.016C144.498 335.512 146.002 337.128 148.034 337.128ZM148.018 336.2C146.69 336.2 145.81 335.016 145.81 333.032C145.81 331 146.77 329.944 148.018 329.944C149.33 329.944 150.29 330.968 150.29 333.016C150.29 335.144 149.314 336.2 148.018 336.2ZM154.636 337V331.592C155.292 330.648 156.124 330.008 157.132 330.008C158.028 330.008 158.444 330.456 158.444 331.4V337H159.692V331.416C159.692 329.8 158.972 328.968 157.5 328.968C156.092 328.968 155.116 329.896 154.572 330.68V329.112H153.388V337H154.636Z" fill="#666666"/>
<rect width="500" height="40" transform="translate(54 350)" fill="white"/>
<path d="M66.592 377.176C69.024 377.176 70.464 375.992 70.464 374.104C70.464 372.312 69.248 371.56 67.008 370.968C64.816 370.392 64.032 369.992 64.032 368.808C64.032 367.896 64.912 367.224 66.256 367.224C67.6 367.224 68.624 367.928 68.944 369.128L70.176 368.744C69.664 367.08 68.272 366.12 66.272 366.12C64.208 366.12 62.704 367.224 62.704 368.952C62.704 370.84 64.192 371.544 66.16 372.04C67.92 372.504 69.152 372.888 69.152 374.216C69.152 375.432 68.176 376.088 66.608 376.088C64.736 376.088 63.824 375.32 63.328 374.024L62.192 374.472C62.896 376.248 64.272 377.176 66.592 377.176ZM74.2286 377.096C75.7006 377.096 76.6286 376.536 77.2526 375.672C77.2366 376.072 77.3006 376.728 77.3966 377H78.5806C78.4526 376.504 78.4046 375.96 78.4046 375.464V371.88C78.4046 369.896 77.5406 368.968 75.3006 368.968C73.4286 368.968 72.1966 369.736 71.9086 371.176L73.0606 371.304C73.3166 370.296 73.9886 369.944 75.2686 369.944C76.5966 369.944 77.1086 370.408 77.2046 371.272C77.2366 371.464 77.2366 371.736 77.2366 372.008C76.6126 372.024 76.0846 372.024 75.4446 372.104C73.2846 372.36 71.7166 373.208 71.7166 374.92C71.7166 376.36 72.8366 377.096 74.2286 377.096ZM74.5966 376.184C73.5406 376.184 73.0126 375.704 73.0126 374.792C73.0126 373.8 73.8926 373.112 75.6046 372.888C76.1006 372.824 76.6766 372.824 77.2366 372.824V374.456C76.9006 375.272 76.1006 376.184 74.5966 376.184ZM82.0101 377V371.592C82.7301 370.584 83.3861 369.992 84.2981 369.992C85.0661 369.992 85.4661 370.52 85.4661 371.464V377H86.6821V371.608C87.1781 370.824 87.9941 370.024 88.9701 370.024C89.7381 370.024 90.1701 370.456 90.1701 371.48V377H91.4021V371.4C91.4021 370.76 91.2421 370.248 91.0021 369.88C90.6821 369.288 90.1381 368.984 89.3221 368.984C88.0741 368.984 87.1461 369.88 86.6021 370.744C86.5061 369.624 85.7701 368.968 84.6181 368.968C83.4821 368.968 82.4421 369.912 81.9781 370.696V369.112H80.7781V377H82.0101ZM97.4429 377.112C99.0269 377.112 100.451 375.72 100.451 373.048C100.451 370.2 99.2349 368.968 97.4749 368.968C96.2109 368.968 95.4109 369.736 94.9309 370.504V369.112H93.7469V379.672H94.9789V375.96C95.4589 376.536 96.2909 377.112 97.4429 377.112ZM97.1069 376.2C95.9709 376.2 95.3949 375.496 94.9789 374.904V371.576C95.5389 370.472 96.2749 369.992 97.1869 369.992C98.5469 369.992 99.1549 370.968 99.1549 373.08C99.1549 375.352 98.3549 376.2 97.1069 376.2ZM103.543 377V366.328H102.295V377H103.543ZM108.99 377.128C110.558 377.128 111.774 376.312 112.318 374.792L111.23 374.632C110.782 375.8 109.966 376.184 109.102 376.184C107.566 376.184 106.67 375.176 106.638 373.192H112.462C112.446 373.016 112.462 372.84 112.446 372.664C112.286 370.472 111.086 368.968 109.022 368.968C106.99 368.968 105.374 370.52 105.374 373.192C105.374 375.544 106.83 377.128 108.99 377.128ZM106.686 372.344C106.782 370.856 107.758 369.912 109.022 369.912C110.286 369.912 111.07 370.824 111.198 372.344H106.686ZM121.712 377.208C124.272 377.208 126.096 374.952 126.096 371.672C126.096 368.2 124.304 366.12 121.712 366.12C119.184 366.12 117.344 368.216 117.344 371.672C117.344 375.128 119.12 377.208 121.712 377.208ZM121.712 376.12C120.064 376.12 118.736 374.648 118.736 371.672C118.736 368.984 119.744 367.24 121.712 367.24C123.712 367.24 124.704 368.904 124.704 371.672C124.704 374.424 123.568 376.12 121.712 376.12ZM131.662 377.112C133.246 377.112 134.67 375.72 134.67 373.048C134.67 370.2 133.454 368.968 131.694 368.968C130.43 368.968 129.63 369.736 129.15 370.504V369.112H127.966V379.672H129.198V375.96C129.678 376.536 130.51 377.112 131.662 377.112ZM131.326 376.2C130.19 376.2 129.614 375.496 129.198 374.904V371.576C129.758 370.472 130.494 369.992 131.406 369.992C132.766 369.992 133.374 370.968 133.374 373.08C133.374 375.352 132.574 376.2 131.326 376.2ZM138.689 377.112C139.121 377.112 139.601 377.064 140.033 376.984V376.008C139.745 376.056 139.281 376.104 138.913 376.104C138.241 376.088 137.809 375.72 137.809 374.888V370.104H139.585V369.112H137.809V367.048H136.673L136.609 369.112H135.313V370.104H136.593V374.824C136.593 376.456 137.361 377.112 138.689 377.112ZM142.731 367.72V366.312H141.371V367.72H142.731ZM142.683 377V369.112H141.435V377H142.683ZM148.034 377.128C149.986 377.128 151.602 375.512 151.602 373.032C151.602 370.6 150.194 368.968 148.034 368.968C146.098 368.968 144.498 370.552 144.498 373.016C144.498 375.512 146.002 377.128 148.034 377.128ZM148.018 376.2C146.69 376.2 145.81 375.016 145.81 373.032C145.81 371 146.77 369.944 148.018 369.944C149.33 369.944 150.29 370.968 150.29 373.016C150.29 375.144 149.314 376.2 148.018 376.2ZM154.636 377V371.592C155.292 370.648 156.124 370.008 157.132 370.008C158.028 370.008 158.444 370.456 158.444 371.4V377H159.692V371.416C159.692 369.8 158.972 368.968 157.5 368.968C156.092 368.968 155.116 369.896 154.572 370.68V369.112H153.388V377H154.636Z" fill="#666666"/>
<rect width="500" height="40" transform="translate(54 390)" fill="white"/>
</g>
<path d="M56 143H552V141H56V143ZM553 144V389H555V144H553ZM552 390H56V392H552V390ZM55 389V144H53V389H55ZM56 390C55.4477 390 55 389.552 55 389H53C53 390.657 54.3432 392 56 392V390ZM553 389C553 389.552 552.552 390 552 390V392C553.657 392 555 390.657 555 389H553ZM552 143C552.552 143 553 143.448 553 144H555C555 142.343 553.657 141 552 141V143ZM56 141C54.3431 141 53 142.343 53 144H55C55 143.448 55.4477 143 56 143V141Z" fill="#3D73D5"/>
<rect x="54.5" y="42.5" width="499" height="47" rx="1.5" fill="white" stroke="#EA0017"/>
<path d="M67.592 80.176C70.024 80.176 71.464 78.992 71.464 77.104C71.464 75.312 70.248 74.56 68.008 73.968C65.816 73.392 65.032 72.992 65.032 71.808C65.032 70.896 65.912 70.224 67.256 70.224C68.6 70.224 69.624 70.928 69.944 72.128L71.176 71.744C70.664 70.08 69.272 69.12 67.272 69.12C65.208 69.12 63.704 70.224 63.704 71.952C63.704 73.84 65.192 74.544 67.16 75.04C68.92 75.504 70.152 75.888 70.152 77.216C70.152 78.432 69.176 79.088 67.608 79.088C65.736 79.088 64.824 78.32 64.328 77.024L63.192 77.472C63.896 79.248 65.272 80.176 67.592 80.176ZM76.3802 80.128C77.9483 80.128 79.1643 79.312 79.7083 77.792L78.6203 77.632C78.1723 78.8 77.3563 79.184 76.4923 79.184C74.9563 79.184 74.0603 78.176 74.0283 76.192H79.8523C79.8363 76.016 79.8523 75.84 79.8363 75.664C79.6763 73.472 78.4763 71.968 76.4123 71.968C74.3803 71.968 72.7643 73.52 72.7643 76.192C72.7643 78.544 74.2203 80.128 76.3802 80.128ZM74.0763 75.344C74.1723 73.856 75.1483 72.912 76.4123 72.912C77.6763 72.912 78.4603 73.824 78.5883 75.344H74.0763ZM82.855 80V69.328H81.607V80H82.855ZM88.3021 80.128C89.8701 80.128 91.0861 79.312 91.6301 77.792L90.5421 77.632C90.0941 78.8 89.2781 79.184 88.4141 79.184C86.8781 79.184 85.9821 78.176 85.9501 76.192H91.7741C91.7581 76.016 91.7741 75.84 91.7581 75.664C91.5981 73.472 90.3981 71.968 88.3341 71.968C86.3021 71.968 84.6861 73.52 84.6861 76.192C84.6861 78.544 86.1421 80.128 88.3021 80.128ZM85.9981 75.344C86.0941 73.856 87.0701 72.912 88.3341 72.912C89.5981 72.912 90.3821 73.824 90.5101 75.344H85.9981ZM96.2809 80.128C97.8489 80.128 99.0169 79.216 99.2889 77.44L98.2009 77.328C97.9609 78.64 97.3529 79.2 96.3129 79.2C95.1289 79.2 94.2009 78.224 94.2009 76.048C94.2009 74.08 94.9689 72.96 96.2329 72.96C97.3209 72.96 97.9449 73.664 98.1369 74.96L99.3049 74.816C98.9529 72.88 97.8969 71.968 96.2169 71.968C94.2169 71.968 92.8889 73.728 92.8889 76.016C92.8889 78.656 94.3449 80.128 96.2809 80.128ZM103.158 80.112C103.59 80.112 104.07 80.064 104.502 79.984V79.008C104.214 79.056 103.75 79.104 103.382 79.104C102.71 79.088 102.278 78.72 102.278 77.888V73.104H104.054V72.112H102.278V70.048H101.142L101.078 72.112H99.782V73.104H101.062V77.824C101.062 79.456 101.83 80.112 103.158 80.112ZM108.896 80.128C110.464 80.128 111.68 79.312 112.224 77.792L111.136 77.632C110.688 78.8 109.872 79.184 109.008 79.184C107.472 79.184 106.576 78.176 106.544 76.192H112.368C112.352 76.016 112.368 75.84 112.352 75.664C112.192 73.472 110.992 71.968 108.928 71.968C106.896 71.968 105.28 73.52 105.28 76.192C105.28 78.544 106.736 80.128 108.896 80.128ZM106.592 75.344C106.688 73.856 107.664 72.912 108.928 72.912C110.192 72.912 110.976 73.824 111.104 75.344H106.592ZM116.507 80.128C117.659 80.128 118.459 79.664 119.083 78.8V80H120.251V69.328H119.051V73.184C118.683 72.656 117.931 71.968 116.731 71.968C114.715 71.968 113.499 73.744 113.499 76.08C113.499 78.656 114.603 80.128 116.507 80.128ZM116.843 79.184C115.531 79.184 114.795 78.272 114.795 76.08C114.795 74.064 115.499 72.944 116.923 72.944C118.091 72.944 118.635 73.616 119.035 74.368V77.584C118.699 78.464 118.027 79.184 116.843 79.184ZM129.716 80V70.464H132.772V69.328H125.332V70.464H128.388V80H129.716ZM135.724 80.128C137.292 80.128 138.508 79.312 139.052 77.792L137.964 77.632C137.516 78.8 136.7 79.184 135.836 79.184C134.3 79.184 133.404 78.176 133.372 76.192H139.196C139.18 76.016 139.196 75.84 139.18 75.664C139.02 73.472 137.82 71.968 135.756 71.968C133.724 71.968 132.108 73.52 132.108 76.192C132.108 78.544 133.564 80.128 135.724 80.128ZM133.42 75.344C133.516 73.856 134.492 72.912 135.756 72.912C137.02 72.912 137.804 73.824 137.932 75.344H133.42ZM140.987 80L142.987 77.056L143.147 76.768L143.323 77.056L145.387 80H146.763L143.835 75.744L146.283 72.112H145.083L143.435 74.528L143.227 74.848L143.019 74.528L141.371 72.112H139.963L142.539 75.872L139.771 80H140.987ZM150.158 80.112C150.59 80.112 151.07 80.064 151.502 79.984V79.008C151.214 79.056 150.75 79.104 150.382 79.104C149.71 79.088 149.278 78.72 149.278 77.888V73.104H151.054V72.112H149.278V70.048H148.142L148.078 72.112H146.782V73.104H148.062V77.824C148.062 79.456 148.83 80.112 150.158 80.112Z" fill="#EA0017"/>
<path d="M68.7 62V61.136H64.992V53.996H63.996V62H68.7ZM71.1871 62.072C72.2911 62.072 72.9871 61.652 73.4551 61.004C73.4431 61.304 73.4911 61.796 73.5631 62H74.4511C74.3551 61.628 74.3191 61.22 74.3191 60.848V58.16C74.3191 56.672 73.6711 55.976 71.9911 55.976C70.5871 55.976 69.6631 56.552 69.4471 57.632L70.3111 57.728C70.5031 56.972 71.0071 56.708 71.9671 56.708C72.9631 56.708 73.3471 57.056 73.4191 57.704C73.4431 57.848 73.4431 58.052 73.4431 58.256C72.9751 58.268 72.5791 58.268 72.0991 58.328C70.4791 58.52 69.3031 59.156 69.3031 60.44C69.3031 61.52 70.1431 62.072 71.1871 62.072ZM71.4631 61.388C70.6711 61.388 70.2751 61.028 70.2751 60.344C70.2751 59.6 70.9351 59.084 72.2191 58.916C72.5911 58.868 73.0231 58.868 73.4431 58.868V60.092C73.1911 60.704 72.5911 61.388 71.4631 61.388ZM78.8232 62.084C80.1672 62.084 81.1392 61.064 81.1392 59.024C81.1392 57.044 80.3112 55.976 78.8952 55.976C78.0432 55.976 77.2872 56.564 76.9872 57.212V53.996H76.0992V62H76.6152L76.9152 61.016C77.2992 61.688 77.9352 62.084 78.8232 62.084ZM78.6432 61.412C77.6952 61.412 76.9992 60.704 76.9992 59.468V58.04C77.3232 57.356 77.8152 56.72 78.6792 56.72C79.6752 56.72 80.1792 57.5 80.1792 59.048C80.1792 60.704 79.6512 61.412 78.6432 61.412ZM84.7657 62.096C85.9417 62.096 86.8537 61.484 87.2617 60.344L86.4457 60.224C86.1097 61.1 85.4977 61.388 84.8497 61.388C83.6977 61.388 83.0257 60.632 83.0017 59.144H87.3697C87.3577 59.012 87.3697 58.88 87.3577 58.748C87.2377 57.104 86.3377 55.976 84.7897 55.976C83.2657 55.976 82.0537 57.14 82.0537 59.144C82.0537 60.908 83.1457 62.096 84.7657 62.096ZM83.0377 58.508C83.1097 57.392 83.8417 56.684 84.7897 56.684C85.7377 56.684 86.3257 57.368 86.4217 58.508H83.0377ZM89.6217 62V53.996H88.6857V62H89.6217ZM96.7127 62V54.848H99.0047V53.996H93.4247V54.848H95.7167V62H96.7127ZM101.219 62.096C102.395 62.096 103.307 61.484 103.715 60.344L102.899 60.224C102.563 61.1 101.951 61.388 101.303 61.388C100.151 61.388 99.4788 60.632 99.4548 59.144H103.823C103.811 59.012 103.823 58.88 103.811 58.748C103.691 57.104 102.791 55.976 101.243 55.976C99.7188 55.976 98.5068 57.14 98.5068 59.144C98.5068 60.908 99.5988 62.096 101.219 62.096ZM99.4908 58.508C99.5628 57.392 100.295 56.684 101.243 56.684C102.191 56.684 102.779 57.368 102.875 58.508H99.4908ZM105.166 62L106.666 59.792L106.786 59.576L106.918 59.792L108.466 62H109.498L107.302 58.808L109.138 56.084H108.238L107.002 57.896L106.846 58.136L106.69 57.896L105.454 56.084H104.398L106.33 58.904L104.254 62H105.166ZM112.044 62.084C112.368 62.084 112.728 62.048 113.052 61.988V61.256C112.836 61.292 112.488 61.328 112.212 61.328C111.708 61.316 111.384 61.04 111.384 60.416V56.828H112.716V56.084H111.384V54.536H110.532L110.484 56.084H109.512V56.828H110.472V60.368C110.472 61.592 111.048 62.084 112.044 62.084Z" fill="#666666"/>
<path d="M530 67.293L535.293 62L536.707 63.414L530.707 69.414C530.519 69.6015 530.265 69.7068 530 69.7068C529.735 69.7068 529.48 69.6015 529.293 69.414L523.293 63.414L524.707 62L530 67.293Z" fill="#666666"/>
<path d="M60.168 106V105.172H55.992V102.244H59.028V101.428H55.992V98.86H60.06V97.996H54.996V106H60.168ZM62.1758 106V102.136C62.6678 101.308 63.3638 100.828 64.0598 100.828C64.1318 100.828 64.2518 100.828 64.3238 100.84V99.988C64.2278 99.976 64.1558 99.976 64.0478 99.976C63.2078 99.976 62.5118 100.66 62.1278 101.356V100.084H61.2398V106H62.1758ZM66.1954 106V102.136C66.6874 101.308 67.3834 100.828 68.0794 100.828C68.1514 100.828 68.2714 100.828 68.3434 100.84V99.988C68.2474 99.976 68.1754 99.976 68.0674 99.976C67.2274 99.976 66.5314 100.66 66.1474 101.356V100.084H65.2594V106H66.1954ZM71.4749 106.096C72.9389 106.096 74.1509 104.884 74.1509 103.024C74.1509 101.2 73.0949 99.976 71.4749 99.976C70.0229 99.976 68.8229 101.164 68.8229 103.012C68.8229 104.884 69.9509 106.096 71.4749 106.096ZM71.4629 105.4C70.4669 105.4 69.8069 104.512 69.8069 103.024C69.8069 101.5 70.5269 100.708 71.4629 100.708C72.4469 100.708 73.1669 101.476 73.1669 103.012C73.1669 104.608 72.4349 105.4 71.4629 105.4ZM76.4258 106V102.136C76.9178 101.308 77.6138 100.828 78.3098 100.828C78.3818 100.828 78.5018 100.828 78.5738 100.84V99.988C78.4778 99.976 78.4058 99.976 78.2978 99.976C77.4578 99.976 76.7618 100.66 76.3778 101.356V100.084H75.4898V106H76.4258ZM83.199 106V101.944C83.739 101.188 84.231 100.744 84.915 100.744C85.491 100.744 85.791 101.14 85.791 101.848V106H86.703V101.956C87.075 101.368 87.687 100.768 88.419 100.768C88.995 100.768 89.319 101.092 89.319 101.86V106H90.243V101.8C90.243 101.32 90.123 100.936 89.943 100.66C89.703 100.216 89.295 99.988 88.683 99.988C87.747 99.988 87.051 100.66 86.643 101.308C86.571 100.468 86.019 99.976 85.155 99.976C84.303 99.976 83.523 100.684 83.175 101.272V100.084H82.275V106H83.199ZM94.2696 106.096C95.4456 106.096 96.3576 105.484 96.7656 104.344L95.9496 104.224C95.6136 105.1 95.0016 105.388 94.3536 105.388C93.2016 105.388 92.5296 104.632 92.5056 103.144H96.8736C96.8616 103.012 96.8736 102.88 96.8616 102.748C96.7416 101.104 95.8416 99.976 94.2936 99.976C92.7696 99.976 91.5576 101.14 91.5576 103.144C91.5576 104.908 92.6496 106.096 94.2696 106.096ZM92.5416 102.508C92.6136 101.392 93.3456 100.684 94.2936 100.684C95.2416 100.684 95.8296 101.368 95.9256 102.508H92.5416ZM100.038 106.096C101.478 106.096 102.414 105.364 102.414 104.272C102.414 103.096 101.382 102.76 100.17 102.52C99.2216 102.316 98.5136 102.196 98.5136 101.548C98.5136 101.008 99.0536 100.684 99.8456 100.684C100.65 100.684 101.19 101.044 101.418 101.668L102.246 101.488C101.946 100.564 101.178 99.976 99.8456 99.976C98.5256 99.976 97.6496 100.636 97.6496 101.608C97.6496 102.772 98.6696 103.084 99.8816 103.312C100.758 103.504 101.55 103.648 101.55 104.356C101.55 104.98 100.974 105.4 100.038 105.4C99.0176 105.4 98.3576 104.932 98.1656 104.236L97.3256 104.404C97.6136 105.484 98.5376 106.096 100.038 106.096ZM105.545 106.096C106.985 106.096 107.921 105.364 107.921 104.272C107.921 103.096 106.889 102.76 105.677 102.52C104.729 102.316 104.021 102.196 104.021 101.548C104.021 101.008 104.561 100.684 105.353 100.684C106.157 100.684 106.697 101.044 106.925 101.668L107.753 101.488C107.453 100.564 106.685 99.976 105.353 99.976C104.033 99.976 103.157 100.636 103.157 101.608C103.157 102.772 104.177 103.084 105.389 103.312C106.265 103.504 107.057 103.648 107.057 104.356C107.057 104.98 106.481 105.4 105.545 105.4C104.525 105.4 103.865 104.932 103.673 104.236L102.833 104.404C103.121 105.484 104.045 106.096 105.545 106.096ZM110.597 106.072C111.701 106.072 112.397 105.652 112.865 105.004C112.853 105.304 112.901 105.796 112.973 106H113.861C113.765 105.628 113.729 105.22 113.729 104.848V102.16C113.729 100.672 113.081 99.976 111.401 99.976C109.997 99.976 109.073 100.552 108.857 101.632L109.721 101.728C109.913 100.972 110.417 100.708 111.377 100.708C112.373 100.708 112.757 101.056 112.829 101.704C112.853 101.848 112.853 102.052 112.853 102.256C112.385 102.268 111.989 102.268 111.509 102.328C109.889 102.52 108.713 103.156 108.713 104.44C108.713 105.52 109.553 106.072 110.597 106.072ZM110.873 105.388C110.081 105.388 109.685 105.028 109.685 104.344C109.685 103.6 110.345 103.084 111.629 102.916C112.001 102.868 112.433 102.868 112.853 102.868V104.092C112.601 104.704 112.001 105.388 110.873 105.388ZM117.705 108.232C119.625 108.232 120.597 107.512 120.597 106.48C120.597 105.508 119.925 105.112 118.041 105.076C116.841 105.04 116.097 105.04 116.097 104.512C116.097 104.152 116.433 103.924 116.745 103.924C116.841 103.948 117.225 104.032 117.609 104.032C118.953 104.032 119.769 103.18 119.769 102.004C119.769 101.392 119.541 100.924 119.229 100.648C119.325 100.216 119.577 99.964 120.177 99.976C120.249 99.976 120.309 99.988 120.381 100L120.369 99.22C120.333 99.22 120.261 99.22 120.225 99.22C119.217 99.208 118.893 99.616 118.749 100.264C118.389 100.072 117.957 99.976 117.513 99.976C116.325 99.976 115.305 100.792 115.305 102.004C115.305 102.724 115.593 103.336 116.169 103.636C115.641 103.78 115.233 104.14 115.233 104.644C115.233 105.1 115.473 105.436 116.073 105.604C115.353 105.784 114.921 106.228 114.921 106.816C114.921 107.728 115.881 108.232 117.705 108.232ZM117.561 103.408C116.757 103.408 116.229 102.928 116.229 102.004C116.229 101.26 116.685 100.648 117.561 100.648C118.449 100.648 118.893 101.296 118.893 102.016C118.893 102.904 118.401 103.408 117.561 103.408ZM117.633 107.608C116.313 107.608 115.773 107.272 115.773 106.708C115.773 106.18 116.133 105.94 116.601 105.808C119.265 105.868 119.709 106 119.709 106.6C119.709 107.2 118.953 107.608 117.633 107.608ZM123.672 106.096C124.848 106.096 125.76 105.484 126.168 104.344L125.352 104.224C125.016 105.1 124.404 105.388 123.756 105.388C122.604 105.388 121.932 104.632 121.908 103.144H126.276C126.264 103.012 126.276 102.88 126.264 102.748C126.144 101.104 125.244 99.976 123.696 99.976C122.172 99.976 120.96 101.14 120.96 103.144C120.96 104.908 122.052 106.096 123.672 106.096ZM121.944 102.508C122.016 101.392 122.748 100.684 123.696 100.684C124.644 100.684 125.232 101.368 125.328 102.508H121.944ZM132.146 106.096C133.01 106.096 133.61 105.748 134.078 105.1V106H134.954V97.996H134.054V100.888C133.778 100.492 133.214 99.976 132.314 99.976C130.802 99.976 129.89 101.308 129.89 103.06C129.89 104.992 130.718 106.096 132.146 106.096ZM132.398 105.388C131.414 105.388 130.862 104.704 130.862 103.06C130.862 101.548 131.39 100.708 132.458 100.708C133.334 100.708 133.742 101.212 134.042 101.776V104.188C133.79 104.848 133.286 105.388 132.398 105.388ZM137.775 99.04V97.984H136.755V99.04H137.775ZM137.739 106V100.084H136.803V106H137.739ZM141.428 106.096C142.868 106.096 143.804 105.364 143.804 104.272C143.804 103.096 142.772 102.76 141.56 102.52C140.612 102.316 139.904 102.196 139.904 101.548C139.904 101.008 140.444 100.684 141.236 100.684C142.04 100.684 142.58 101.044 142.808 101.668L143.636 101.488C143.336 100.564 142.568 99.976 141.236 99.976C139.916 99.976 139.04 100.636 139.04 101.608C139.04 102.772 140.06 103.084 141.272 103.312C142.148 103.504 142.94 103.648 142.94 104.356C142.94 104.98 142.364 105.4 141.428 105.4C140.408 105.4 139.748 104.932 139.556 104.236L138.716 104.404C139.004 105.484 139.928 106.096 141.428 106.096ZM147.836 106.084C149.024 106.084 150.092 105.04 150.092 103.036C150.092 100.9 149.18 99.976 147.86 99.976C146.912 99.976 146.312 100.552 145.952 101.128V100.084H145.064V108.004H145.988V105.22C146.348 105.652 146.972 106.084 147.836 106.084ZM147.584 105.4C146.732 105.4 146.3 104.872 145.988 104.428V101.932C146.408 101.104 146.96 100.744 147.644 100.744C148.664 100.744 149.12 101.476 149.12 103.06C149.12 104.764 148.52 105.4 147.584 105.4ZM152.411 106V97.996H151.475V106H152.411ZM155.644 106.072C156.748 106.072 157.444 105.652 157.912 105.004C157.9 105.304 157.948 105.796 158.02 106H158.908C158.812 105.628 158.776 105.22 158.776 104.848V102.16C158.776 100.672 158.128 99.976 156.448 99.976C155.044 99.976 154.12 100.552 153.904 101.632L154.768 101.728C154.96 100.972 155.464 100.708 156.424 100.708C157.42 100.708 157.804 101.056 157.876 101.704C157.9 101.848 157.9 102.052 157.9 102.256C157.432 102.268 157.036 102.268 156.556 102.328C154.936 102.52 153.76 103.156 153.76 104.44C153.76 105.52 154.6 106.072 155.644 106.072ZM155.92 105.388C155.128 105.388 154.732 105.028 154.732 104.344C154.732 103.6 155.392 103.084 156.676 102.916C157.048 102.868 157.48 102.868 157.9 102.868V104.092C157.648 104.704 157.048 105.388 155.92 105.388ZM160.018 108.076C161.47 108.076 162.154 107.464 162.514 106.42L164.77 100.084H163.942L162.574 103.948L162.334 104.704L162.094 103.948L160.63 100.084H159.622L161.566 105.136C162.07 106.456 161.314 107.32 159.994 107.32L160.018 108.076ZM167.526 106.096C168.966 106.096 169.902 105.364 169.902 104.272C169.902 103.096 168.87 102.76 167.658 102.52C166.71 102.316 166.002 102.196 166.002 101.548C166.002 101.008 166.542 100.684 167.334 100.684C168.138 100.684 168.678 101.044 168.906 101.668L169.734 101.488C169.434 100.564 168.666 99.976 167.334 99.976C166.014 99.976 165.138 100.636 165.138 101.608C165.138 102.772 166.158 103.084 167.37 103.312C168.246 103.504 169.038 103.648 169.038 104.356C169.038 104.98 168.462 105.4 167.526 105.4C166.506 105.4 165.846 104.932 165.654 104.236L164.814 104.404C165.102 105.484 166.026 106.096 167.526 106.096ZM174.863 106V101.956C175.355 101.248 175.943 100.756 176.771 100.756C177.371 100.756 177.731 101.092 177.731 101.812V106H178.667V101.74C178.667 100.768 178.235 99.976 177.035 99.976C175.931 99.976 175.211 100.636 174.827 101.248V97.996H173.927V106H174.863ZM182.711 106.096C183.887 106.096 184.799 105.484 185.207 104.344L184.391 104.224C184.055 105.1 183.443 105.388 182.795 105.388C181.643 105.388 180.971 104.632 180.947 103.144H185.315C185.303 103.012 185.315 102.88 185.303 102.748C185.183 101.104 184.283 99.976 182.735 99.976C181.211 99.976 179.999 101.14 179.999 103.144C179.999 104.908 181.091 106.096 182.711 106.096ZM180.983 102.508C181.055 101.392 181.787 100.684 182.735 100.684C183.683 100.684 184.271 101.368 184.367 102.508H180.983ZM187.543 106V102.136C188.035 101.308 188.731 100.828 189.427 100.828C189.499 100.828 189.619 100.828 189.691 100.84V99.988C189.595 99.976 189.523 99.976 189.415 99.976C188.575 99.976 187.879 100.66 187.495 101.356V100.084H186.607V106H187.543ZM192.777 106.096C193.953 106.096 194.865 105.484 195.273 104.344L194.457 104.224C194.121 105.1 193.509 105.388 192.861 105.388C191.709 105.388 191.037 104.632 191.013 103.144H195.381C195.369 103.012 195.381 102.88 195.369 102.748C195.249 101.104 194.349 99.976 192.801 99.976C191.277 99.976 190.065 101.14 190.065 103.144C190.065 104.908 191.157 106.096 192.777 106.096ZM191.049 102.508C191.121 101.392 191.853 100.684 192.801 100.684C193.749 100.684 194.337 101.368 194.433 102.508H191.049Z" fill="#EA0017"/>
<path d="M586.5 230V270" stroke="#1745E8"/>
<rect x="568" y="242.5" width="38" height="18" rx="3" fill="#1745E8"/>
<path d="M574.479 254.222H577.97V255.5H579.44V254.222H580.342V252.989H579.44V248.227H577.516L574.479 253.011V254.222ZM577.999 252.989H576.028V252.933L577.942 249.903H577.999V252.989ZM584.218 255.66C586.047 255.66 587.152 254.268 587.155 251.871C587.159 249.491 586.04 248.128 584.218 248.128C582.393 248.128 581.285 249.488 581.282 251.871C581.275 254.261 582.386 255.656 584.218 255.66ZM584.218 254.385C583.384 254.385 582.844 253.547 582.848 251.871C582.851 250.219 583.387 249.388 584.218 249.388C585.046 249.388 585.586 250.219 585.586 251.871C585.589 253.547 585.049 254.385 584.218 254.385ZM588.266 257.545H589.779V254.626H589.825C590.034 255.081 590.492 255.589 591.373 255.589C592.616 255.589 593.585 254.605 593.585 252.78C593.585 250.905 592.573 249.974 591.377 249.974C590.464 249.974 590.027 250.518 589.825 250.962H589.757V250.045H588.266V257.545ZM589.747 252.773C589.747 251.8 590.159 251.178 590.894 251.178C591.643 251.178 592.041 251.828 592.041 252.773C592.041 253.724 591.636 254.385 590.894 254.385C590.166 254.385 589.747 253.746 589.747 252.773ZM595.653 250.045H594.091L595.653 252.773L594.034 255.5H595.596L596.654 253.614L597.73 255.5H599.275L597.652 252.773L599.233 250.045H597.681L596.654 251.952L595.653 250.045Z" fill="white"/>
<line x1="583" y1="230.5" x2="590" y2="230.5" stroke="#1745E8"/>
<line x1="583" y1="269.5" x2="590" y2="269.5" stroke="#1745E8"/>
<defs>
<clipPath id="clip0">
<path d="M54 144C54 142.895 54.8954 142 56 142H552C553.105 142 554 142.895 554 144V389C554 390.105 553.105 391 552 391H56C54.8954 391 54 390.105 54 389V144Z" fill="white"/>
</clipPath>
</defs>
</svg>
