<svg width="403" height="45" viewBox="0 0 403 45" fill="none" xmlns="http://www.w3.org/2000/svg">
<path d="M1 20C1 8.9543 9.95431 0 21 0H152C163.046 0 172 8.95431 172 20V22C172 33.0457 163.046 42 152 42H21C9.9543 42 1 33.0457 1 22V20Z" fill="white"/>
<path d="M28.5962 27V18.808L31.1082 27H32.7882L35.2682 18.808V27H37.7322V16.328H34.1962L32.1802 22.92L30.0842 16.328H26.5642V27H28.5962ZM42.2454 18.216V16.12H39.7174V18.216H42.2454ZM42.2294 27V19.064H39.7334V27H42.2294ZM46.6349 27V21.56C46.9549 21.08 47.3869 20.632 48.0429 20.632C48.6509 20.632 48.9069 21 48.9069 21.496V27H51.3869V21.416C51.3869 19.896 50.7309 18.92 49.0989 18.92C47.7549 18.92 47.0029 19.72 46.5389 20.376V19.064H44.1549V27H46.6349ZM56.4487 23.64V21.608H52.6247V23.64H56.4487ZM61.9921 27L63.5121 21.032L63.6721 20.36L63.8481 21.032L65.4321 27H67.7041L70.4561 16.328H68.3761L66.9041 22.584L66.7121 23.272L66.5521 22.584L64.8721 16.328H62.7921L61.2561 22.568L61.0641 23.272L60.8881 22.536L59.3521 16.328H56.8401L59.6401 27H61.9921ZM73.9017 18.216V16.12H71.3737V18.216H73.9017ZM73.8857 27V19.064H71.3897V27H73.8857ZM78.1952 27.144C79.3792 27.144 80.0512 26.712 80.6912 25.864V27H83.0592V16.328H80.5952V19.88C80.1312 19.336 79.4592 18.92 78.5152 18.92C76.6272 18.92 75.3632 20.472 75.3632 23C75.3632 25.8 76.4832 27.144 78.1952 27.144ZM79.2352 25.496C78.4352 25.496 77.9392 24.936 77.9392 23.016C77.9392 21.144 78.3552 20.504 79.2512 20.504C79.9552 20.504 80.3232 20.936 80.5952 21.336V24.536C80.3392 25.048 79.9392 25.496 79.2352 25.496ZM88.1358 27.112C88.6318 27.112 89.1918 27.064 89.5758 27.016V25.24C89.2398 25.272 88.9358 25.272 88.6318 25.24C88.0398 25.16 87.7838 24.808 87.7838 24.184V20.744H89.4158V19.064H87.7838V16.632H85.5438L85.3838 19.064H84.1038V20.744H85.3678V24.584C85.3678 26.264 86.3278 27.112 88.1358 27.112ZM93.2294 27V21.624C93.5494 21.176 93.9974 20.664 94.6534 20.664C95.1974 20.664 95.5014 20.984 95.5014 21.592V27H98.0134V21.304C98.0134 19.992 97.3094 18.92 95.7734 18.92C94.5254 18.92 93.8054 19.48 93.2134 20.184V16.328H90.7334V27H93.2294ZM102.418 21.56V19.064H99.8257V21.56H102.418ZM102.418 27V24.504H99.8257V27H102.418ZM111.193 27V25.048H108.937V16.152H107.065C106.409 16.968 105.433 17.848 104.361 18.2V20.248C105.257 19.88 106.009 19.416 106.473 19.08V25.048H104.121V27H111.193ZM120.288 27V25.032H115.344C118.336 22.984 120.176 21.64 120.176 19.496C120.176 17.432 118.688 16.136 116.448 16.136C114.304 16.136 112.624 17.224 112.224 19.72L114.432 20.12C114.576 18.792 115.2 18.136 116.176 18.136C117.12 18.136 117.632 18.744 117.632 19.592C117.632 21.128 116.48 22.12 112.24 25.304V27H120.288ZM125.57 27.192C128.098 27.192 129.73 25.096 129.73 21.736C129.73 18.296 128.162 16.136 125.586 16.136C123.042 16.136 121.426 18.168 121.426 21.72C121.426 25.08 123.09 27.192 125.57 27.192ZM125.618 25.336C124.45 25.336 123.97 24.12 123.97 21.704C123.97 19.224 124.418 17.992 125.602 17.992C126.722 17.992 127.218 19.24 127.218 21.704C127.218 24.104 126.69 25.336 125.618 25.336ZM135.873 27.112C137.601 27.112 138.897 25.656 138.897 23.016C138.897 20.168 137.793 18.92 136.081 18.92C134.737 18.92 134.081 19.688 133.585 20.392V19.064H131.233V29.56H133.713V26.2C134.257 26.68 134.833 27.112 135.873 27.112ZM135.041 25.608C134.337 25.608 133.985 25.144 133.697 24.808V21.656C134.001 21.032 134.433 20.648 135.057 20.648C135.937 20.648 136.321 21.24 136.321 23.128C136.321 25.096 135.873 25.608 135.041 25.608ZM141.514 27L142.858 25L143.146 24.584L143.402 25L144.73 27H147.466L144.618 22.648L147.066 19.064H144.89L143.818 20.696L143.578 21.064L143.354 20.696L142.266 19.064H139.53L142.106 23L139.338 27H141.514Z" fill="#111111"/>
<path d="M21 1H152V-1H21V1ZM171 20V22H173V20H171ZM152 41H21V43H152V41ZM2 22V20H0V22H2ZM21 41C10.5066 41 2 32.4934 2 22H0C0 33.598 9.40202 43 21 43V41ZM171 22C171 32.4934 162.493 41 152 41V43C163.598 43 173 33.598 173 22H171ZM152 1C162.493 1 171 9.50659 171 20H173C173 8.40202 163.598 -1 152 -1V1ZM21 -1C9.40202 -1 0 8.40202 0 20H2C2 9.50659 10.5066 1 21 1V-1Z" fill="#D5D5D5"/>
<path d="M231 21C231 12.1634 238.163 5 247 5H386C394.837 5 402 12.1634 402 21V21C402 29.8366 394.837 37 386 37H247C238.163 37 231 29.8366 231 21V21Z" fill="white"/>
<path d="M258.596 27V18.808L261.108 27H262.788L265.268 18.808V27H267.732V16.328H264.196L262.18 22.92L260.084 16.328H256.564V27H258.596ZM272.245 18.216V16.12H269.717V18.216H272.245ZM272.229 27V19.064H269.733V27H272.229ZM276.635 27V21.56C276.955 21.08 277.387 20.632 278.043 20.632C278.651 20.632 278.907 21 278.907 21.496V27H281.387V21.416C281.387 19.896 280.731 18.92 279.099 18.92C277.755 18.92 277.003 19.72 276.539 20.376V19.064H274.155V27H276.635ZM286.449 23.64V21.608H282.625V23.64H286.449ZM291.992 27L293.512 21.032L293.672 20.36L293.848 21.032L295.432 27H297.704L300.456 16.328H298.376L296.904 22.584L296.712 23.272L296.552 22.584L294.872 16.328H292.792L291.256 22.568L291.064 23.272L290.888 22.536L289.352 16.328H286.84L289.64 27H291.992ZM303.902 18.216V16.12H301.374V18.216H303.902ZM303.886 27V19.064H301.39V27H303.886ZM308.195 27.144C309.379 27.144 310.051 26.712 310.691 25.864V27H313.059V16.328H310.595V19.88C310.131 19.336 309.459 18.92 308.515 18.92C306.627 18.92 305.363 20.472 305.363 23C305.363 25.8 306.483 27.144 308.195 27.144ZM309.235 25.496C308.435 25.496 307.939 24.936 307.939 23.016C307.939 21.144 308.355 20.504 309.251 20.504C309.955 20.504 310.323 20.936 310.595 21.336V24.536C310.339 25.048 309.939 25.496 309.235 25.496ZM318.136 27.112C318.632 27.112 319.192 27.064 319.576 27.016V25.24C319.24 25.272 318.936 25.272 318.632 25.24C318.04 25.16 317.784 24.808 317.784 24.184V20.744H319.416V19.064H317.784V16.632H315.544L315.384 19.064H314.104V20.744H315.368V24.584C315.368 26.264 316.328 27.112 318.136 27.112ZM323.229 27V21.624C323.549 21.176 323.997 20.664 324.653 20.664C325.197 20.664 325.501 20.984 325.501 21.592V27H328.013V21.304C328.013 19.992 327.309 18.92 325.773 18.92C324.525 18.92 323.805 19.48 323.213 20.184V16.328H320.733V27H323.229ZM332.418 21.56V19.064H329.826V21.56H332.418ZM332.418 27V24.504H329.826V27H332.418ZM341.193 27V25.048H338.937V16.152H337.065C336.409 16.968 335.433 17.848 334.361 18.2V20.248C335.257 19.88 336.009 19.416 336.473 19.08V25.048H334.121V27H341.193ZM350.288 27V25.032H345.344C348.336 22.984 350.176 21.64 350.176 19.496C350.176 17.432 348.688 16.136 346.448 16.136C344.304 16.136 342.624 17.224 342.224 19.72L344.432 20.12C344.576 18.792 345.2 18.136 346.176 18.136C347.12 18.136 347.632 18.744 347.632 19.592C347.632 21.128 346.48 22.12 342.24 25.304V27H350.288ZM355.57 27.192C358.098 27.192 359.73 25.096 359.73 21.736C359.73 18.296 358.162 16.136 355.586 16.136C353.042 16.136 351.426 18.168 351.426 21.72C351.426 25.08 353.09 27.192 355.57 27.192ZM355.618 25.336C354.45 25.336 353.97 24.12 353.97 21.704C353.97 19.224 354.418 17.992 355.602 17.992C356.722 17.992 357.218 19.24 357.218 21.704C357.218 24.104 356.69 25.336 355.618 25.336ZM365.873 27.112C367.601 27.112 368.897 25.656 368.897 23.016C368.897 20.168 367.793 18.92 366.081 18.92C364.737 18.92 364.081 19.688 363.585 20.392V19.064H361.233V29.56H363.713V26.2C364.257 26.68 364.833 27.112 365.873 27.112ZM365.041 25.608C364.337 25.608 363.985 25.144 363.697 24.808V21.656C364.001 21.032 364.433 20.648 365.057 20.648C365.937 20.648 366.321 21.24 366.321 23.128C366.321 25.096 365.873 25.608 365.041 25.608ZM371.514 27L372.858 25L373.146 24.584L373.402 25L374.73 27H377.466L374.618 22.648L377.066 19.064H374.89L373.818 20.696L373.578 21.064L373.354 20.696L372.266 19.064H369.53L372.106 23L369.338 27H371.514Z" fill="#111111"/>
<path d="M247 6H386V4H247V6ZM386 36H247V38H386V36ZM247 36C238.716 36 232 29.2843 232 21H230C230 30.3888 237.611 38 247 38V36ZM401 21C401 29.2843 394.284 36 386 36V38C395.389 38 403 30.3888 403 21H401ZM386 6C394.284 6 401 12.7157 401 21H403C403 11.6112 395.389 4 386 4V6ZM247 4C237.611 4 230 11.6112 230 21H232C232 12.7157 238.716 6 247 6V4Z" fill="#D5D5D5"/>
<rect width="24" height="45" transform="translate(1)" fill="#4CAEE5" fill-opacity="0.1"/>
<path d="M1 0V45" stroke="#4CAEE5" stroke-width="0.5"/>
<path d="M25 0V45" stroke="#4CAEE5" stroke-width="0.5"/>
<path d="M25 22.6547L23 23.8094L23 21.5L25 22.6547Z" fill="#4CAEE5"/>
<path d="M1 22.6547L3 23.8094L3 21.5L1 22.6547Z" fill="#4CAEE5"/>
<rect x="8" y="19" width="10" height="8" rx="1" fill="#4CAEE5"/>
<path d="M12.5986 25V24.3467H10.7266L11.5293 23.4971C11.668 23.3545 11.7939 23.2188 11.9072 23.0898C12.0205 22.959 12.1182 22.8311 12.2002 22.7061C12.2803 22.5811 12.3418 22.4551 12.3848 22.3281C12.4297 22.1992 12.4521 22.0645 12.4521 21.9238C12.4521 21.7383 12.4229 21.5693 12.3643 21.417C12.3057 21.2627 12.2207 21.1309 12.1094 21.0215C11.9961 20.9121 11.8555 20.8271 11.6875 20.7666C11.5215 20.7061 11.3301 20.6758 11.1133 20.6758C10.8867 20.6758 10.6797 20.7129 10.4922 20.7871C10.3066 20.8594 10.1484 20.959 10.0176 21.0859C9.88477 21.2129 9.78223 21.3613 9.70996 21.5312C9.6377 21.6992 9.60156 21.8779 9.60156 22.0674H10.4189C10.4189 21.9521 10.4336 21.8496 10.4629 21.7598C10.4922 21.6699 10.5352 21.5947 10.5918 21.5342C10.6465 21.4756 10.7148 21.4316 10.7969 21.4023C10.8809 21.3711 10.9775 21.3555 11.0869 21.3555C11.1709 21.3555 11.2471 21.3691 11.3154 21.3965C11.3857 21.4238 11.4463 21.4629 11.4971 21.5137C11.5459 21.5664 11.584 21.6299 11.6113 21.7041C11.6387 21.7783 11.6523 21.8633 11.6523 21.959C11.6523 22.0234 11.6416 22.0898 11.6201 22.1582C11.6006 22.2266 11.5684 22.2998 11.5234 22.3779C11.4766 22.458 11.416 22.5459 11.3418 22.6416C11.2676 22.7373 11.1768 22.8438 11.0693 22.9609L9.68945 24.4434V25H12.5986ZM15.792 23.415V20.7344H14.9658L13.1729 23.5645L13.2051 24.0742H14.9775V25H15.792V24.0742H16.2871V23.415H15.792ZM13.9727 23.415L14.8984 21.9707L14.9775 21.8301V23.415H13.9727Z" fill="white"/>
<rect width="24" height="32" transform="translate(231 5)" fill="#4CAEE5" fill-opacity="0.1"/>
<path d="M231 5V37" stroke="#4CAEE5" stroke-width="0.5"/>
<path d="M255 5V37" stroke="#4CAEE5" stroke-width="0.5"/>
<path d="M255 20.6547L253 21.8094L253 19.5L255 20.6547Z" fill="#4CAEE5"/>
<path d="M231 20.6547L233 21.8094L233 19.5L231 20.6547Z" fill="#4CAEE5"/>
<rect x="238" y="17" width="10" height="8" rx="1" fill="#4CAEE5"/>
<path d="M242.599 23V22.3467H240.727L241.529 21.4971C241.668 21.3545 241.794 21.2188 241.907 21.0898C242.021 20.959 242.118 20.8311 242.2 20.7061C242.28 20.5811 242.342 20.4551 242.385 20.3281C242.43 20.1992 242.452 20.0645 242.452 19.9238C242.452 19.7383 242.423 19.5693 242.364 19.417C242.306 19.2627 242.221 19.1309 242.109 19.0215C241.996 18.9121 241.855 18.8271 241.688 18.7666C241.521 18.7061 241.33 18.6758 241.113 18.6758C240.887 18.6758 240.68 18.7129 240.492 18.7871C240.307 18.8594 240.148 18.959 240.018 19.0859C239.885 19.2129 239.782 19.3613 239.71 19.5312C239.638 19.6992 239.602 19.8779 239.602 20.0674H240.419C240.419 19.9521 240.434 19.8496 240.463 19.7598C240.492 19.6699 240.535 19.5947 240.592 19.5342C240.646 19.4756 240.715 19.4316 240.797 19.4023C240.881 19.3711 240.978 19.3555 241.087 19.3555C241.171 19.3555 241.247 19.3691 241.315 19.3965C241.386 19.4238 241.446 19.4629 241.497 19.5137C241.546 19.5664 241.584 19.6299 241.611 19.7041C241.639 19.7783 241.652 19.8633 241.652 19.959C241.652 20.0234 241.642 20.0898 241.62 20.1582C241.601 20.2266 241.568 20.2998 241.523 20.3779C241.477 20.458 241.416 20.5459 241.342 20.6416C241.268 20.7373 241.177 20.8438 241.069 20.9609L239.689 22.4434V23H242.599ZM245.792 21.415V18.7344H244.966L243.173 21.5645L243.205 22.0742H244.978V23H245.792V22.0742H246.287V21.415H245.792ZM243.973 21.415L244.898 19.9707L244.978 19.8301V21.415H243.973Z" fill="white"/>
<rect width="24" height="45" transform="translate(148)" fill="#4CAEE5" fill-opacity="0.1"/>
<path d="M148 0V45" stroke="#4CAEE5" stroke-width="0.5"/>
<path d="M172 0V45" stroke="#4CAEE5" stroke-width="0.5"/>
<path d="M172 22.6547L170 23.8094L170 21.5L172 22.6547Z" fill="#4CAEE5"/>
<path d="M148 22.6547L150 23.8094L150 21.5L148 22.6547Z" fill="#4CAEE5"/>
<rect x="155" y="19" width="10" height="8" rx="1" fill="#4CAEE5"/>
<path d="M159.599 25V24.3467H157.727L158.529 23.4971C158.668 23.3545 158.794 23.2188 158.907 23.0898C159.021 22.959 159.118 22.8311 159.2 22.7061C159.28 22.5811 159.342 22.4551 159.385 22.3281C159.43 22.1992 159.452 22.0645 159.452 21.9238C159.452 21.7383 159.423 21.5693 159.364 21.417C159.306 21.2627 159.221 21.1309 159.109 21.0215C158.996 20.9121 158.855 20.8271 158.688 20.7666C158.521 20.7061 158.33 20.6758 158.113 20.6758C157.887 20.6758 157.68 20.7129 157.492 20.7871C157.307 20.8594 157.148 20.959 157.018 21.0859C156.885 21.2129 156.782 21.3613 156.71 21.5312C156.638 21.6992 156.602 21.8779 156.602 22.0674H157.419C157.419 21.9521 157.434 21.8496 157.463 21.7598C157.492 21.6699 157.535 21.5947 157.592 21.5342C157.646 21.4756 157.715 21.4316 157.797 21.4023C157.881 21.3711 157.978 21.3555 158.087 21.3555C158.171 21.3555 158.247 21.3691 158.315 21.3965C158.386 21.4238 158.446 21.4629 158.497 21.5137C158.546 21.5664 158.584 21.6299 158.611 21.7041C158.639 21.7783 158.652 21.8633 158.652 21.959C158.652 22.0234 158.642 22.0898 158.62 22.1582C158.601 22.2266 158.568 22.2998 158.523 22.3779C158.477 22.458 158.416 22.5459 158.342 22.6416C158.268 22.7373 158.177 22.8438 158.069 22.9609L156.689 24.4434V25H159.599ZM162.792 23.415V20.7344H161.966L160.173 23.5645L160.205 24.0742H161.978V25H162.792V24.0742H163.287V23.415H162.792ZM160.973 23.415L161.898 21.9707L161.978 21.8301V23.415H160.973Z" fill="white"/>
<rect width="24" height="32" transform="translate(378 5)" fill="#4CAEE5" fill-opacity="0.1"/>
<path d="M378 5V37" stroke="#4CAEE5" stroke-width="0.5"/>
<path d="M402 5V37" stroke="#4CAEE5" stroke-width="0.5"/>
<path d="M402 20.6547L400 21.8094L400 19.5L402 20.6547Z" fill="#4CAEE5"/>
<path d="M378 20.6547L380 21.8094L380 19.5L378 20.6547Z" fill="#4CAEE5"/>
<rect x="385" y="17" width="10" height="8" rx="1" fill="#4CAEE5"/>
<path d="M389.599 23V22.3467H387.727L388.529 21.4971C388.668 21.3545 388.794 21.2188 388.907 21.0898C389.021 20.959 389.118 20.8311 389.2 20.7061C389.28 20.5811 389.342 20.4551 389.385 20.3281C389.43 20.1992 389.452 20.0645 389.452 19.9238C389.452 19.7383 389.423 19.5693 389.364 19.417C389.306 19.2627 389.221 19.1309 389.109 19.0215C388.996 18.9121 388.855 18.8271 388.688 18.7666C388.521 18.7061 388.33 18.6758 388.113 18.6758C387.887 18.6758 387.68 18.7129 387.492 18.7871C387.307 18.8594 387.148 18.959 387.018 19.0859C386.885 19.2129 386.782 19.3613 386.71 19.5312C386.638 19.6992 386.602 19.8779 386.602 20.0674H387.419C387.419 19.9521 387.434 19.8496 387.463 19.7598C387.492 19.6699 387.535 19.5947 387.592 19.5342C387.646 19.4756 387.715 19.4316 387.797 19.4023C387.881 19.3711 387.978 19.3555 388.087 19.3555C388.171 19.3555 388.247 19.3691 388.315 19.3965C388.386 19.4238 388.446 19.4629 388.497 19.5137C388.546 19.5664 388.584 19.6299 388.611 19.7041C388.639 19.7783 388.652 19.8633 388.652 19.959C388.652 20.0234 388.642 20.0898 388.62 20.1582C388.601 20.2266 388.568 20.2998 388.523 20.3779C388.477 20.458 388.416 20.5459 388.342 20.6416C388.268 20.7373 388.177 20.8438 388.069 20.9609L386.689 22.4434V23H389.599ZM392.792 21.415V18.7344H391.966L390.173 21.5645L390.205 22.0742H391.978V23H392.792V22.0742H393.287V21.415H392.792ZM390.973 21.415L391.898 19.9707L391.978 19.8301V21.415H390.973Z" fill="white"/>
</svg>
