<svg width="206" height="60" viewBox="0 0 206 60" fill="none" xmlns="http://www.w3.org/2000/svg">
<path d="M25 34C25 25.1634 32.1634 18 41 18H180C188.837 18 196 25.1634 196 34V34C196 42.8366 188.837 50 180 50H41C32.1634 50 25 42.8366 25 34V34Z" fill="white"/>
<path d="M52.5962 40V31.808L55.1082 40H56.7882L59.2682 31.808V40H61.7322V29.328H58.1962L56.1802 35.92L54.0842 29.328H50.5642V40H52.5962ZM66.2454 31.216V29.12H63.7174V31.216H66.2454ZM66.2294 40V32.064H63.7334V40H66.2294ZM70.6349 40V34.56C70.9549 34.08 71.3869 33.632 72.0429 33.632C72.6509 33.632 72.9069 34 72.9069 34.496V40H75.3869V34.416C75.3869 32.896 74.7309 31.92 73.0989 31.92C71.7549 31.92 71.0029 32.72 70.5389 33.376V32.064H68.1549V40H70.6349ZM80.4487 36.64V34.608H76.6247V36.64H80.4487ZM85.9921 40L87.5121 34.032L87.6721 33.36L87.8481 34.032L89.4321 40H91.7041L94.4561 29.328H92.3761L90.9041 35.584L90.7121 36.272L90.5521 35.584L88.8721 29.328H86.7921L85.2561 35.568L85.0641 36.272L84.8881 35.536L83.3521 29.328H80.8401L83.6401 40H85.9921ZM97.9017 31.216V29.12H95.3737V31.216H97.9017ZM97.8857 40V32.064H95.3897V40H97.8857ZM102.195 40.144C103.379 40.144 104.051 39.712 104.691 38.864V40H107.059V29.328H104.595V32.88C104.131 32.336 103.459 31.92 102.515 31.92C100.627 31.92 99.3632 33.472 99.3632 36C99.3632 38.8 100.483 40.144 102.195 40.144ZM103.235 38.496C102.435 38.496 101.939 37.936 101.939 36.016C101.939 34.144 102.355 33.504 103.251 33.504C103.955 33.504 104.323 33.936 104.595 34.336V37.536C104.339 38.048 103.939 38.496 103.235 38.496ZM112.136 40.112C112.632 40.112 113.192 40.064 113.576 40.016V38.24C113.24 38.272 112.936 38.272 112.632 38.24C112.04 38.16 111.784 37.808 111.784 37.184V33.744H113.416V32.064H111.784V29.632H109.544L109.384 32.064H108.104V33.744H109.368V37.584C109.368 39.264 110.328 40.112 112.136 40.112ZM117.229 40V34.624C117.549 34.176 117.997 33.664 118.653 33.664C119.197 33.664 119.501 33.984 119.501 34.592V40H122.013V34.304C122.013 32.992 121.309 31.92 119.773 31.92C118.525 31.92 117.805 32.48 117.213 33.184V29.328H114.733V40H117.229ZM126.418 34.56V32.064H123.826V34.56H126.418ZM126.418 40V37.504H123.826V40H126.418ZM135.193 40V38.048H132.937V29.152H131.065C130.409 29.968 129.433 30.848 128.361 31.2V33.248C129.257 32.88 130.009 32.416 130.473 32.08V38.048H128.121V40H135.193ZM144.288 40V38.032H139.344C142.336 35.984 144.176 34.64 144.176 32.496C144.176 30.432 142.688 29.136 140.448 29.136C138.304 29.136 136.624 30.224 136.224 32.72L138.432 33.12C138.576 31.792 139.2 31.136 140.176 31.136C141.12 31.136 141.632 31.744 141.632 32.592C141.632 34.128 140.48 35.12 136.24 38.304V40H144.288ZM149.57 40.192C152.098 40.192 153.73 38.096 153.73 34.736C153.73 31.296 152.162 29.136 149.586 29.136C147.042 29.136 145.426 31.168 145.426 34.72C145.426 38.08 147.09 40.192 149.57 40.192ZM149.618 38.336C148.45 38.336 147.97 37.12 147.97 34.704C147.97 32.224 148.418 30.992 149.602 30.992C150.722 30.992 151.218 32.24 151.218 34.704C151.218 37.104 150.69 38.336 149.618 38.336ZM159.873 40.112C161.601 40.112 162.897 38.656 162.897 36.016C162.897 33.168 161.793 31.92 160.081 31.92C158.737 31.92 158.081 32.688 157.585 33.392V32.064H155.233V42.56H157.713V39.2C158.257 39.68 158.833 40.112 159.873 40.112ZM159.041 38.608C158.337 38.608 157.985 38.144 157.697 37.808V34.656C158.001 34.032 158.433 33.648 159.057 33.648C159.937 33.648 160.321 34.24 160.321 36.128C160.321 38.096 159.873 38.608 159.041 38.608ZM165.514 40L166.858 38L167.146 37.584L167.402 38L168.73 40H171.466L168.618 35.648L171.066 32.064H168.89L167.818 33.696L167.578 34.064L167.354 33.696L166.266 32.064H163.53L166.106 36L163.338 40H165.514Z" fill="#111111"/>
<path d="M41 19H180V17H41V19ZM180 49H41V51H180V49ZM41 49C32.7157 49 26 42.2843 26 34H24C24 43.3888 31.6112 51 41 51V49ZM195 34C195 42.2843 188.284 49 180 49V51C189.389 51 197 43.3888 197 34H195ZM180 19C188.284 19 195 25.7157 195 34H197C197 24.6112 189.389 17 180 17V19ZM41 17C31.6112 17 24 24.6112 24 34H26C26 25.7157 32.7157 19 41 19V17Z" fill="#D5D5D5"/>
<path d="M25 0V8" stroke="#D50032" stroke-width="0.5"/>
<path d="M196 0V8" stroke="#D50032" stroke-width="0.5"/>
<path d="M196 4L194 5.25L194 2.75L196 4Z" fill="#D50032"/>
<path d="M25 4L27 5.25L27 2.75L25 4Z" fill="#D50032"/>
<path d="M27 4L194 4" stroke="#D50032" stroke-width="0.5"/>
<rect x="82.5" width="57" height="8" rx="1" fill="#D50032"/>
<path d="M85.3682 1.73438H84.3457V6H85.1016V4.7373L85.0664 2.82129L85.5674 4.59375H85.9746L86.5342 2.74219L86.499 4.7373V6H87.2549V1.73438H86.2324L85.7725 3.33691L85.3682 1.73438ZM88.207 2.83008V3.49512H89.1094V5.33789H88.207V6H90.791V5.33789H89.9326V2.83008H88.207ZM89.0508 2.01855C89.0508 2.08105 89.0615 2.13965 89.083 2.19434C89.1064 2.24707 89.1387 2.29199 89.1797 2.3291C89.2207 2.36816 89.2695 2.39844 89.3262 2.41992C89.3848 2.44141 89.4492 2.45215 89.5195 2.45215C89.6641 2.45215 89.7783 2.41211 89.8623 2.33203C89.9482 2.25 89.9912 2.14551 89.9912 2.01855C89.9912 1.8916 89.9482 1.78809 89.8623 1.70801C89.7783 1.62598 89.6641 1.58496 89.5195 1.58496C89.4492 1.58496 89.3848 1.5957 89.3262 1.61719C89.2695 1.63867 89.2207 1.66797 89.1797 1.70508C89.1387 1.74414 89.1064 1.79102 89.083 1.8457C89.0615 1.89844 89.0508 1.95605 89.0508 2.01855ZM91.5938 6H92.4111V3.74707C92.4385 3.7041 92.4688 3.66504 92.502 3.62988C92.5352 3.59473 92.5723 3.56445 92.6133 3.53906C92.6641 3.50391 92.7217 3.47754 92.7861 3.45996C92.8525 3.44238 92.9248 3.43359 93.0029 3.43359C93.0967 3.43359 93.1807 3.44336 93.2549 3.46289C93.3291 3.48047 93.3926 3.5127 93.4453 3.55957C93.498 3.60645 93.5381 3.6709 93.5654 3.75293C93.5947 3.83301 93.6094 3.93555 93.6094 4.06055V6H94.4238V4.04883C94.4238 3.81836 94.3965 3.62305 94.3418 3.46289C94.2891 3.30078 94.2148 3.16797 94.1191 3.06445C94.0215 2.96289 93.9062 2.88867 93.7734 2.8418C93.6406 2.79492 93.4941 2.77148 93.334 2.77148C93.209 2.77148 93.0908 2.78906 92.9795 2.82422C92.8682 2.85938 92.7656 2.91016 92.6719 2.97656C92.6172 3.01562 92.5654 3.05957 92.5166 3.1084C92.4678 3.15723 92.4229 3.21094 92.3818 3.26953L92.332 2.83008H91.5938V6ZM98.0508 4.44727V3.78809H95.6104V4.44727H98.0508ZM99.0352 6H99.75L100.087 4.30664L100.151 3.98438L100.219 4.30664L100.567 6H101.282L101.851 2.83008H101.104L100.869 4.69922L100.828 5.00684L100.772 4.70508L100.43 2.83008H99.8848L99.542 4.71387L99.4863 5.01562L99.4482 4.71387L99.2109 2.83008H98.4668L99.0352 6ZM102.621 2.83008V3.49512H103.523V5.33789H102.621V6H105.205V5.33789H104.347V2.83008H102.621ZM103.465 2.01855C103.465 2.08105 103.476 2.13965 103.497 2.19434C103.521 2.24707 103.553 2.29199 103.594 2.3291C103.635 2.36816 103.684 2.39844 103.74 2.41992C103.799 2.44141 103.863 2.45215 103.934 2.45215C104.078 2.45215 104.192 2.41211 104.276 2.33203C104.362 2.25 104.405 2.14551 104.405 2.01855C104.405 1.8916 104.362 1.78809 104.276 1.70801C104.192 1.62598 104.078 1.58496 103.934 1.58496C103.863 1.58496 103.799 1.5957 103.74 1.61719C103.684 1.63867 103.635 1.66797 103.594 1.70508C103.553 1.74414 103.521 1.79102 103.497 1.8457C103.476 1.89844 103.465 1.95605 103.465 2.01855ZM105.923 4.3916V4.45312C105.923 4.68359 105.951 4.89746 106.008 5.09473C106.064 5.29004 106.146 5.45898 106.254 5.60156C106.359 5.74414 106.488 5.85645 106.641 5.93848C106.795 6.01855 106.969 6.05859 107.162 6.05859C107.34 6.05859 107.496 6.02441 107.631 5.95605C107.766 5.8877 107.883 5.79199 107.982 5.66895L108.023 6H108.759V1.5H107.941V3.11426C107.844 3.00488 107.731 2.9209 107.604 2.8623C107.479 2.80176 107.334 2.77148 107.168 2.77148C106.971 2.77148 106.795 2.81055 106.641 2.88867C106.488 2.9668 106.358 3.07715 106.251 3.21973C106.144 3.3623 106.062 3.5332 106.005 3.73242C105.95 3.93164 105.923 4.15137 105.923 4.3916ZM106.737 4.45312V4.3916C106.737 4.25879 106.749 4.13477 106.772 4.01953C106.796 3.90234 106.833 3.7998 106.884 3.71191C106.935 3.62598 107 3.55859 107.08 3.50977C107.162 3.45898 107.261 3.43359 107.376 3.43359C107.515 3.43359 107.63 3.46387 107.722 3.52441C107.813 3.58301 107.887 3.66602 107.941 3.77344V5.05664C107.887 5.16211 107.812 5.24512 107.719 5.30566C107.627 5.36621 107.511 5.39648 107.37 5.39648C107.255 5.39648 107.157 5.37207 107.077 5.32324C106.997 5.27441 106.932 5.20703 106.881 5.12109C106.83 5.03711 106.793 4.93848 106.77 4.8252C106.748 4.70996 106.737 4.58594 106.737 4.45312ZM111.105 2.05371H110.291V2.83008H109.567V3.43066H110.291V4.87207C110.291 5.08105 110.318 5.26074 110.373 5.41113C110.428 5.55957 110.506 5.68164 110.607 5.77734C110.707 5.875 110.827 5.94727 110.968 5.99414C111.11 6.03906 111.269 6.06152 111.442 6.06152C111.532 6.06152 111.623 6.05664 111.715 6.04688C111.809 6.03906 111.898 6.02734 111.984 6.01172C112.07 5.99609 112.151 5.97656 112.228 5.95312C112.304 5.92773 112.37 5.89844 112.427 5.86523L112.348 5.30566C112.311 5.31543 112.266 5.3252 112.213 5.33496C112.162 5.34473 112.107 5.35352 112.049 5.36133C111.988 5.37109 111.925 5.37891 111.858 5.38477C111.794 5.39062 111.73 5.39355 111.668 5.39355C111.582 5.39355 111.504 5.38379 111.434 5.36426C111.365 5.34473 111.307 5.31152 111.258 5.26465C111.209 5.21973 111.171 5.15918 111.144 5.08301C111.118 5.00488 111.105 4.9082 111.105 4.79297V3.43066H112.289V2.83008H111.105V2.05371ZM114.029 3.2666V1.5H113.215V6H114.029V3.71191C114.061 3.6709 114.095 3.63379 114.132 3.60059C114.171 3.56738 114.214 3.53906 114.261 3.51562C114.312 3.48828 114.368 3.46777 114.431 3.4541C114.493 3.44043 114.561 3.43359 114.633 3.43359C114.727 3.43359 114.811 3.44629 114.885 3.47168C114.959 3.49512 115.022 3.53223 115.075 3.58301C115.128 3.63379 115.168 3.7002 115.195 3.78223C115.225 3.86426 115.239 3.96191 115.239 4.0752V6H116.054V4.08105C116.054 3.84863 116.025 3.65039 115.969 3.48633C115.914 3.32031 115.837 3.18457 115.737 3.0791C115.638 2.97363 115.519 2.89648 115.38 2.84766C115.241 2.79688 115.089 2.77148 114.923 2.77148C114.81 2.77148 114.702 2.78809 114.601 2.82129C114.499 2.85449 114.406 2.90137 114.322 2.96191C114.268 3.00098 114.215 3.04688 114.164 3.09961C114.115 3.15039 114.07 3.20605 114.029 3.2666ZM117.683 5.52832C117.683 5.67871 117.733 5.80469 117.835 5.90625C117.937 6.00781 118.074 6.05859 118.248 6.05859C118.42 6.05859 118.557 6.00879 118.658 5.90918C118.762 5.80762 118.813 5.68066 118.813 5.52832C118.813 5.37598 118.763 5.24805 118.661 5.14453C118.562 5.04102 118.424 4.98926 118.248 4.98926C118.07 4.98926 117.932 5.04199 117.832 5.14746C117.732 5.25098 117.683 5.37793 117.683 5.52832ZM117.683 3.1084C117.683 3.25879 117.733 3.38477 117.835 3.48633C117.937 3.58789 118.074 3.63867 118.248 3.63867C118.42 3.63867 118.557 3.58887 118.658 3.48926C118.762 3.3877 118.813 3.26074 118.813 3.1084C118.813 2.95605 118.763 2.82812 118.661 2.72461C118.562 2.62109 118.424 2.56934 118.248 2.56934C118.07 2.56934 117.932 2.62207 117.832 2.72754C117.732 2.83105 117.683 2.95801 117.683 3.1084ZM122.417 6V1.73438H122.373L120.516 2.40527V3.11426L121.594 2.72754V6H122.417ZM126.814 6V5.34668H124.942L125.745 4.49707C125.884 4.35449 126.01 4.21875 126.123 4.08984C126.236 3.95898 126.334 3.83105 126.416 3.70605C126.496 3.58105 126.558 3.45508 126.601 3.32812C126.646 3.19922 126.668 3.06445 126.668 2.92383C126.668 2.73828 126.639 2.56934 126.58 2.41699C126.521 2.2627 126.437 2.13086 126.325 2.02148C126.212 1.91211 126.071 1.82715 125.903 1.7666C125.737 1.70605 125.546 1.67578 125.329 1.67578C125.103 1.67578 124.896 1.71289 124.708 1.78711C124.522 1.85938 124.364 1.95898 124.233 2.08594C124.101 2.21289 123.998 2.36133 123.926 2.53125C123.854 2.69922 123.817 2.87793 123.817 3.06738H124.635C124.635 2.95215 124.649 2.84961 124.679 2.75977C124.708 2.66992 124.751 2.59473 124.808 2.53418C124.862 2.47559 124.931 2.43164 125.013 2.40234C125.097 2.37109 125.193 2.35547 125.303 2.35547C125.387 2.35547 125.463 2.36914 125.531 2.39648C125.602 2.42383 125.662 2.46289 125.713 2.51367C125.762 2.56641 125.8 2.62988 125.827 2.7041C125.854 2.77832 125.868 2.86328 125.868 2.95898C125.868 3.02344 125.857 3.08984 125.836 3.1582C125.816 3.22656 125.784 3.2998 125.739 3.37793C125.692 3.45801 125.632 3.5459 125.558 3.6416C125.483 3.7373 125.393 3.84375 125.285 3.96094L123.905 5.44336V6H126.814ZM130.406 4.37695V3.35742C130.406 3.08203 130.374 2.83984 130.31 2.63086C130.245 2.41992 130.153 2.24316 130.034 2.10059C129.913 1.95996 129.767 1.85352 129.595 1.78125C129.423 1.70898 129.229 1.67285 129.015 1.67285C128.802 1.67285 128.609 1.70898 128.438 1.78125C128.268 1.85352 128.123 1.95996 128.004 2.10059C127.883 2.24316 127.79 2.41992 127.726 2.63086C127.661 2.83984 127.629 3.08203 127.629 3.35742V4.37695C127.629 4.65234 127.661 4.89551 127.726 5.10645C127.792 5.31543 127.886 5.49023 128.007 5.63086C128.126 5.77344 128.271 5.88086 128.443 5.95312C128.615 6.02539 128.808 6.06152 129.021 6.06152C129.235 6.06152 129.429 6.02539 129.601 5.95312C129.772 5.88086 129.918 5.77344 130.037 5.63086C130.156 5.49023 130.247 5.31543 130.31 5.10645C130.374 4.89551 130.406 4.65234 130.406 4.37695ZM128.449 4.02539C128.449 3.96484 128.449 3.91895 128.449 3.8877C128.449 3.85645 128.449 3.79395 128.449 3.7002V3.22852C128.449 3.07031 128.461 2.93359 128.484 2.81836C128.51 2.70312 128.548 2.60938 128.599 2.53711C128.646 2.46875 128.703 2.41797 128.771 2.38477C128.842 2.34961 128.923 2.33203 129.015 2.33203C129.097 2.33203 129.17 2.3457 129.234 2.37305C129.301 2.39844 129.356 2.43848 129.401 2.49316C129.46 2.56152 129.504 2.65332 129.533 2.76855C129.564 2.88184 129.582 3.01855 129.586 3.17871L128.449 4.02539ZM129.586 4.5C129.586 4.6582 129.573 4.7959 129.548 4.91309C129.524 5.02832 129.488 5.12305 129.439 5.19727C129.393 5.26758 129.334 5.32031 129.264 5.35547C129.193 5.38867 129.112 5.40527 129.021 5.40527C128.921 5.40527 128.835 5.38574 128.763 5.34668C128.69 5.30762 128.631 5.24805 128.584 5.16797C128.543 5.10156 128.511 5.01855 128.487 4.91895C128.466 4.81934 128.453 4.70508 128.449 4.57617L129.586 3.73242C129.586 3.78906 129.586 3.83301 129.586 3.86426C129.586 3.89355 129.586 3.94043 129.586 4.00488V4.5ZM131.244 7.21875H132.059V5.72461C132.096 5.76562 132.135 5.80273 132.176 5.83594C132.217 5.86914 132.26 5.89941 132.305 5.92676C132.381 5.96973 132.463 6.00195 132.551 6.02344C132.641 6.04688 132.738 6.05859 132.844 6.05859C133.043 6.05859 133.22 6.01758 133.374 5.93555C133.528 5.85352 133.658 5.74023 133.764 5.5957C133.867 5.45312 133.945 5.2832 133.998 5.08594C134.053 4.88867 134.08 4.6748 134.08 4.44434V4.38281C134.08 4.14258 134.053 3.92383 133.998 3.72656C133.945 3.52734 133.866 3.35645 133.761 3.21387C133.655 3.07324 133.525 2.96484 133.371 2.88867C133.217 2.81055 133.039 2.77148 132.838 2.77148C132.74 2.77148 132.648 2.78223 132.562 2.80371C132.479 2.82324 132.401 2.85156 132.331 2.88867C132.272 2.91992 132.218 2.95703 132.167 3C132.116 3.04102 132.069 3.08789 132.026 3.14062L131.997 2.83008H131.244V7.21875ZM133.266 4.38281V4.44434C133.266 4.5752 133.254 4.69922 133.23 4.81641C133.207 4.93164 133.17 5.0332 133.119 5.12109C133.068 5.20898 133.002 5.27832 132.92 5.3291C132.84 5.37988 132.742 5.40527 132.627 5.40527C132.555 5.40527 132.489 5.39844 132.431 5.38477C132.372 5.36914 132.32 5.34766 132.275 5.32031C132.229 5.29102 132.187 5.25586 132.149 5.21484C132.114 5.17383 132.084 5.12793 132.059 5.07715V3.75293C132.086 3.69824 132.118 3.65039 132.155 3.60938C132.194 3.56836 132.239 3.53418 132.29 3.50684C132.335 3.4834 132.385 3.46582 132.439 3.4541C132.494 3.44043 132.555 3.43359 132.621 3.43359C132.736 3.43359 132.834 3.45801 132.914 3.50684C132.996 3.55566 133.063 3.62207 133.116 3.70605C133.167 3.79199 133.204 3.89355 133.228 4.01074C133.253 4.12598 133.266 4.25 133.266 4.38281ZM136.286 3.82031L135.601 2.83008H134.725L135.785 4.38574L134.684 6H135.565L136.289 4.96289L137.019 6H137.897L136.796 4.38574L137.859 2.83008H136.983L136.286 3.82031Z" fill="white"/>
<path d="M9 18L1 18" stroke="#D50032" stroke-width="0.5"/>
<path d="M9 50L1 50" stroke="#D50032" stroke-width="0.5"/>
<path d="M5 50L3.75 48L6.25 48L5 50Z" fill="#D50032"/>
<path d="M5 18L3.75 20L6.25 20L5 18Z" fill="#D50032"/>
<path d="M5 20L5 48" stroke="#D50032" stroke-width="0.5"/>
<rect y="30" width="10" height="8" rx="1" fill="#D50032"/>
<path d="M2.62988 33.5098V34.1426H3.07227C3.18359 34.1426 3.2832 34.1553 3.37109 34.1807C3.46094 34.2061 3.53809 34.2451 3.60254 34.2979C3.66504 34.3506 3.71289 34.418 3.74609 34.5C3.7793 34.582 3.7959 34.6807 3.7959 34.7959C3.7959 34.8877 3.78125 34.9707 3.75195 35.0449C3.72461 35.1191 3.68359 35.1816 3.62891 35.2324C3.57227 35.2891 3.50195 35.332 3.41797 35.3613C3.33398 35.3906 3.23926 35.4053 3.13379 35.4053C3.04004 35.4053 2.9541 35.3916 2.87598 35.3643C2.79785 35.335 2.73047 35.2949 2.67383 35.2441C2.61523 35.1953 2.57031 35.1367 2.53906 35.0684C2.50781 34.998 2.49219 34.9219 2.49219 34.8398H1.67773C1.67773 35.0469 1.71777 35.2266 1.79785 35.3789C1.87988 35.5312 1.98828 35.6572 2.12305 35.7568C2.25781 35.8584 2.41113 35.9346 2.58301 35.9854C2.75684 36.0342 2.93457 36.0586 3.11621 36.0586C3.32715 36.0586 3.52344 36.0312 3.70508 35.9766C3.88867 35.9199 4.04688 35.8379 4.17969 35.7305C4.3125 35.625 4.41699 35.4941 4.49316 35.3379C4.56934 35.1816 4.60742 35.0039 4.60742 34.8047C4.60742 34.6914 4.59375 34.584 4.56641 34.4824C4.53906 34.3809 4.49707 34.2871 4.44043 34.2012C4.38379 34.1172 4.31152 34.042 4.22363 33.9756C4.1377 33.9092 4.03516 33.8545 3.91602 33.8115C4.01758 33.7627 4.10742 33.7051 4.18555 33.6387C4.26367 33.5703 4.3291 33.4961 4.38184 33.416C4.43457 33.3359 4.47461 33.252 4.50195 33.1641C4.5293 33.0742 4.54297 32.9834 4.54297 32.8916C4.54297 32.6924 4.50781 32.5176 4.4375 32.3672C4.36914 32.2148 4.27246 32.0869 4.14746 31.9834C4.02246 31.8818 3.87207 31.8057 3.69629 31.7549C3.52051 31.7021 3.32715 31.6758 3.11621 31.6758C2.9209 31.6758 2.73828 31.7041 2.56836 31.7607C2.40039 31.8174 2.25391 31.8965 2.12891 31.998C2.00391 32.1016 1.90527 32.2246 1.83301 32.3672C1.7627 32.5098 1.72754 32.668 1.72754 32.8418H2.54199C2.54199 32.7637 2.55762 32.6934 2.58887 32.6309C2.62012 32.5684 2.66309 32.5146 2.71777 32.4697C2.77051 32.4268 2.83203 32.3936 2.90234 32.3701C2.97461 32.3467 3.05176 32.335 3.13379 32.335C3.2334 32.335 3.32031 32.3486 3.39453 32.376C3.4707 32.4033 3.5332 32.4414 3.58203 32.4902C3.63086 32.541 3.66699 32.6016 3.69043 32.6719C3.71582 32.7402 3.72852 32.8164 3.72852 32.9004C3.72852 32.9863 3.71582 33.0664 3.69043 33.1406C3.66699 33.2129 3.63086 33.2744 3.58203 33.3252C3.5293 33.3838 3.45996 33.4297 3.37402 33.4629C3.29004 33.4941 3.18945 33.5098 3.07227 33.5098H2.62988ZM8.20215 36V35.3467H6.33008L7.13281 34.4971C7.27148 34.3545 7.39746 34.2188 7.51074 34.0898C7.62402 33.959 7.72168 33.8311 7.80371 33.7061C7.88379 33.5811 7.94531 33.4551 7.98828 33.3281C8.0332 33.1992 8.05566 33.0645 8.05566 32.9238C8.05566 32.7383 8.02637 32.5693 7.96777 32.417C7.90918 32.2627 7.82422 32.1309 7.71289 32.0215C7.59961 31.9121 7.45898 31.8271 7.29102 31.7666C7.125 31.7061 6.93359 31.6758 6.7168 31.6758C6.49023 31.6758 6.2832 31.7129 6.0957 31.7871C5.91016 31.8594 5.75195 31.959 5.62109 32.0859C5.48828 32.2129 5.38574 32.3613 5.31348 32.5312C5.24121 32.6992 5.20508 32.8779 5.20508 33.0674H6.02246C6.02246 32.9521 6.03711 32.8496 6.06641 32.7598C6.0957 32.6699 6.13867 32.5947 6.19531 32.5342C6.25 32.4756 6.31836 32.4316 6.40039 32.4023C6.48438 32.3711 6.58105 32.3555 6.69043 32.3555C6.77441 32.3555 6.85059 32.3691 6.91895 32.3965C6.98926 32.4238 7.0498 32.4629 7.10059 32.5137C7.14941 32.5664 7.1875 32.6299 7.21484 32.7041C7.24219 32.7783 7.25586 32.8633 7.25586 32.959C7.25586 33.0234 7.24512 33.0898 7.22363 33.1582C7.2041 33.2266 7.17188 33.2998 7.12695 33.3779C7.08008 33.458 7.01953 33.5459 6.94531 33.6416C6.87109 33.7373 6.78027 33.8438 6.67285 33.9609L5.29297 35.4434V36H8.20215Z" fill="white"/>
<path d="M16 34L23 34" stroke="#4CAEE5" stroke-width="0.5"/>
<path d="M41 9L41 16" stroke="#4CAEE5" stroke-width="0.5"/>
<path d="M40 34L42 34" stroke="#4CAEE5" stroke-width="0.5"/>
<line x1="41" y1="35" x2="41" y2="33" stroke="#4CAEE5" stroke-width="0.5"/>
<path d="M16.9878 33.7741L18.504 31.9675L16.0283 31.6196L16.9878 33.7741Z" fill="#4CAEE5"/>
<path d="M40.7486 10.0709L38.6859 8.92725L38.8168 11.4238L40.7486 10.0709Z" fill="#4CAEE5"/>
<mask id="mask0" mask-type="alpha" maskUnits="userSpaceOnUse" x="16" y="8" width="25" height="26">
<rect x="16" y="33" width="24" height="24" transform="rotate(-90 16 33)" fill="#C4C4C4"/>
<path d="M16.9878 33.7736L18.504 31.967L16.0283 31.6191L16.9878 33.7736Z" fill="#4CAEE5"/>
<path d="M40.7486 10.0704L38.6859 8.92677L38.8168 11.4233L40.7486 10.0704Z" fill="#4CAEE5"/>
</mask>
<g mask="url(#mask0)">
<path d="M41 10C44.1517 10 47.2726 10.6208 50.1844 11.8269C53.0962 13.033 55.742 14.8008 57.9706 17.0294C60.1992 19.258 61.967 21.9038 63.1731 24.8156C64.3792 27.7274 65 30.8483 65 34C65 37.1517 64.3792 40.2726 63.1731 43.1844C61.967 46.0962 60.1992 48.742 57.9706 50.9706C55.742 53.1992 53.0962 54.967 50.1844 56.1731C47.2726 57.3792 44.1517 58 41 58C37.8483 58 34.7274 57.3792 31.8156 56.1731C28.9038 54.967 26.258 53.1992 24.0294 50.9706C21.8008 48.742 20.033 46.0962 18.8269 43.1844C17.6208 40.2726 17 37.1517 17 34C17 30.8483 17.6208 27.7274 18.8269 24.8156C20.033 21.9038 21.8008 19.258 24.0294 17.0294C26.258 14.8008 28.9038 13.033 31.8156 11.8269C34.7274 10.6208 37.8483 10 41 10L41 10Z" stroke="#4CAEE5" stroke-width="0.5"/>
</g>
<rect x="16" y="11" width="10" height="8" rx="1" fill="#D50032"/>
<path d="M19.8047 17V12.7344H19.7607L17.9033 13.4053V14.1143L18.9814 13.7275V17H19.8047ZM23.5752 12.6992H23.4668C23.1133 12.6992 22.8018 12.7588 22.5322 12.8779C22.2627 12.9951 22.0371 13.1582 21.8555 13.3672C21.6738 13.5781 21.5371 13.8281 21.4453 14.1172C21.3535 14.4043 21.3076 14.7168 21.3076 15.0547V15.3682C21.3076 15.6123 21.3418 15.8379 21.4102 16.0449C21.4805 16.25 21.5801 16.4277 21.709 16.5781C21.8359 16.7285 21.9912 16.8467 22.1748 16.9326C22.3584 17.0166 22.5645 17.0586 22.793 17.0586C23.0117 17.0586 23.209 17.0215 23.3848 16.9473C23.5605 16.8711 23.71 16.7676 23.833 16.6367C23.9561 16.5059 24.0508 16.3516 24.1172 16.1738C24.1836 15.9961 24.2168 15.8037 24.2168 15.5967C24.2168 15.4033 24.1914 15.2197 24.1406 15.0459C24.0918 14.8701 24.0166 14.7158 23.915 14.583C23.8135 14.4521 23.6865 14.3486 23.5342 14.2725C23.3838 14.1943 23.207 14.1553 23.0039 14.1553C22.9043 14.1553 22.8115 14.167 22.7256 14.1904C22.6396 14.2139 22.5605 14.2441 22.4883 14.2812C22.4141 14.3203 22.3477 14.3643 22.2891 14.4131C22.2305 14.46 22.1787 14.5078 22.1338 14.5566C22.1514 14.3789 22.1934 14.2178 22.2598 14.0732C22.3281 13.9287 22.4209 13.8047 22.5381 13.7012C22.6533 13.5977 22.793 13.5176 22.957 13.4609C23.123 13.4043 23.3135 13.376 23.5283 13.376H23.5752V12.6992ZM22.7666 14.8086C22.8682 14.8086 22.958 14.8291 23.0361 14.8701C23.1162 14.9092 23.1836 14.9639 23.2383 15.0342C23.293 15.1064 23.335 15.1914 23.3643 15.2891C23.3936 15.3867 23.4082 15.4932 23.4082 15.6084C23.4082 15.7236 23.3936 15.8301 23.3643 15.9277C23.335 16.0234 23.293 16.1064 23.2383 16.1768C23.1836 16.2471 23.1172 16.3027 23.0391 16.3438C22.9609 16.3828 22.874 16.4023 22.7783 16.4023C22.6846 16.4023 22.5977 16.3828 22.5176 16.3438C22.4375 16.3047 22.3682 16.2461 22.3096 16.168C22.251 16.0918 22.2051 15.9951 22.1719 15.8779C22.1406 15.7607 22.125 15.624 22.125 15.4678V15.2275C22.1523 15.1689 22.1855 15.1152 22.2246 15.0664C22.2656 15.0176 22.3105 14.9746 22.3594 14.9375C22.416 14.8965 22.4785 14.8652 22.5469 14.8438C22.6152 14.8203 22.6885 14.8086 22.7666 14.8086Z" fill="white"/>
<path d="M41 59L41 52" stroke="#4CAEE5" stroke-width="0.5"/>
<path d="M16 34L23 34" stroke="#4CAEE5" stroke-width="0.5"/>
<path d="M41 35L41 33" stroke="#4CAEE5" stroke-width="0.5"/>
<line x1="42" y1="34" x2="40" y2="34" stroke="#4CAEE5" stroke-width="0.5"/>
<path d="M40.7739 58.0122L38.9674 56.496L38.6194 58.9717L40.7739 58.0122Z" fill="#4CAEE5"/>
<path d="M17.0706 34.2513L15.927 36.3139L18.4236 36.1831L17.0706 34.2513Z" fill="#4CAEE5"/>
<mask id="mask1" mask-type="alpha" maskUnits="userSpaceOnUse" x="15" y="34" width="26" height="25">
<rect x="40" y="59" width="24" height="24" transform="rotate(180 40 59)" fill="#C4C4C4"/>
<path d="M40.7741 58.0122L38.9675 56.496L38.6196 58.9717L40.7741 58.0122Z" fill="#4CAEE5"/>
<path d="M17.0707 34.2513L15.9271 36.3139L18.4237 36.1831L17.0707 34.2513Z" fill="#4CAEE5"/>
</mask>
<g mask="url(#mask1)">
<path d="M17.0001 34C17.0001 30.8483 17.6208 27.7274 18.8269 24.8156C20.0331 21.9038 21.8009 19.258 24.0295 17.0294C26.2581 14.8008 28.9038 13.033 31.8157 11.8269C34.7275 10.6208 37.8483 10 41.0001 10C44.1518 10 47.2726 10.6208 50.1845 11.8269C53.0963 13.033 55.742 14.8008 57.9706 17.0294C60.1992 19.258 61.9671 21.9038 63.1732 24.8156C64.3793 27.7274 65.0001 30.8483 65.0001 34C65.0001 37.1517 64.3793 40.2726 63.1732 43.1844C61.9671 46.0962 60.1992 48.742 57.9706 50.9706C55.742 53.1992 53.0963 54.967 50.1845 56.1731C47.2726 57.3792 44.1518 58 41.0001 58C37.8483 58 34.7275 57.3792 31.8157 56.1731C28.9038 54.967 26.2581 53.1992 24.0295 50.9706C21.8009 48.742 20.0331 46.0962 18.8269 43.1844C17.6208 40.2726 17.0001 37.1517 17.0001 34L17.0001 34Z" stroke="#4CAEE5" stroke-width="0.5"/>
</g>
<rect x="16" y="48" width="10" height="8" rx="1" fill="#D50032"/>
<path d="M19.8047 54V49.7344H19.7607L17.9033 50.4053V51.1143L18.9814 50.7275V54H19.8047ZM23.5752 49.6992H23.4668C23.1133 49.6992 22.8018 49.7588 22.5322 49.8779C22.2627 49.9951 22.0371 50.1582 21.8555 50.3672C21.6738 50.5781 21.5371 50.8281 21.4453 51.1172C21.3535 51.4043 21.3076 51.7168 21.3076 52.0547V52.3682C21.3076 52.6123 21.3418 52.8379 21.4102 53.0449C21.4805 53.25 21.5801 53.4277 21.709 53.5781C21.8359 53.7285 21.9912 53.8467 22.1748 53.9326C22.3584 54.0166 22.5645 54.0586 22.793 54.0586C23.0117 54.0586 23.209 54.0215 23.3848 53.9473C23.5605 53.8711 23.71 53.7676 23.833 53.6367C23.9561 53.5059 24.0508 53.3516 24.1172 53.1738C24.1836 52.9961 24.2168 52.8037 24.2168 52.5967C24.2168 52.4033 24.1914 52.2197 24.1406 52.0459C24.0918 51.8701 24.0166 51.7158 23.915 51.583C23.8135 51.4521 23.6865 51.3486 23.5342 51.2725C23.3838 51.1943 23.207 51.1553 23.0039 51.1553C22.9043 51.1553 22.8115 51.167 22.7256 51.1904C22.6396 51.2139 22.5605 51.2441 22.4883 51.2812C22.4141 51.3203 22.3477 51.3643 22.2891 51.4131C22.2305 51.46 22.1787 51.5078 22.1338 51.5566C22.1514 51.3789 22.1934 51.2178 22.2598 51.0732C22.3281 50.9287 22.4209 50.8047 22.5381 50.7012C22.6533 50.5977 22.793 50.5176 22.957 50.4609C23.123 50.4043 23.3135 50.376 23.5283 50.376H23.5752V49.6992ZM22.7666 51.8086C22.8682 51.8086 22.958 51.8291 23.0361 51.8701C23.1162 51.9092 23.1836 51.9639 23.2383 52.0342C23.293 52.1064 23.335 52.1914 23.3643 52.2891C23.3936 52.3867 23.4082 52.4932 23.4082 52.6084C23.4082 52.7236 23.3936 52.8301 23.3643 52.9277C23.335 53.0234 23.293 53.1064 23.2383 53.1768C23.1836 53.2471 23.1172 53.3027 23.0391 53.3438C22.9609 53.3828 22.874 53.4023 22.7783 53.4023C22.6846 53.4023 22.5977 53.3828 22.5176 53.3438C22.4375 53.3047 22.3682 53.2461 22.3096 53.168C22.251 53.0918 22.2051 52.9951 22.1719 52.8779C22.1406 52.7607 22.125 52.624 22.125 52.4678V52.2275C22.1523 52.1689 22.1855 52.1152 22.2246 52.0664C22.2656 52.0176 22.3105 51.9746 22.3594 51.9375C22.416 51.8965 22.4785 51.8652 22.5469 51.8438C22.6152 51.8203 22.6885 51.8086 22.7666 51.8086Z" fill="white"/>
<path d="M180 9L180 16" stroke="#4CAEE5" stroke-width="0.5"/>
<path d="M205 34H198" stroke="#4CAEE5" stroke-width="0.5"/>
<path d="M180 33L180 35" stroke="#4CAEE5" stroke-width="0.5"/>
<line x1="179" y1="34" x2="181" y2="34" stroke="#4CAEE5" stroke-width="0.5"/>
<path d="M180.226 9.98784L182.033 11.504L182.381 9.02835L180.226 9.98784Z" fill="#4CAEE5"/>
<path d="M203.929 33.7487L205.073 31.6861L202.576 31.8169L203.929 33.7487Z" fill="#4CAEE5"/>
<mask id="mask2" mask-type="alpha" maskUnits="userSpaceOnUse" x="180" y="9" width="26" height="25">
<rect x="181" y="9" width="24" height="24" fill="#C4C4C4"/>
<path d="M180.226 9.98784L182.033 11.504L182.381 9.02835L180.226 9.98784Z" fill="#4CAEE5"/>
<path d="M203.929 33.7487L205.073 31.6861L202.576 31.8169L203.929 33.7487Z" fill="#4CAEE5"/>
</mask>
<g mask="url(#mask2)">
<path d="M204 34C204 37.1517 203.379 40.2726 202.173 43.1844C200.967 46.0962 199.199 48.742 196.971 50.9706C194.742 53.1992 192.096 54.967 189.184 56.1731C186.273 57.3792 183.152 58 180 58C176.848 58 173.727 57.3792 170.816 56.1731C167.904 54.967 165.258 53.1992 163.029 50.9706C160.801 48.742 159.033 46.0962 157.827 43.1844C156.621 40.2726 156 37.1517 156 34C156 30.8483 156.621 27.7274 157.827 24.8156C159.033 21.9038 160.801 19.258 163.029 17.0294C165.258 14.8008 167.904 13.033 170.816 11.8269C173.727 10.6208 176.848 10 180 10C183.152 10 186.273 10.6208 189.184 11.8269C192.096 13.033 194.742 14.8008 196.971 17.0294C199.199 19.258 200.967 21.9038 202.173 24.8156C203.379 27.7274 204 30.8483 204 34L204 34Z" stroke="#4CAEE5" stroke-width="0.5"/>
</g>
<rect x="194" y="11" width="10" height="8" rx="1" fill="#D50032"/>
<path d="M197.805 17V12.7344H197.761L195.903 13.4053V14.1143L196.981 13.7275V17H197.805ZM201.575 12.6992H201.467C201.113 12.6992 200.802 12.7588 200.532 12.8779C200.263 12.9951 200.037 13.1582 199.855 13.3672C199.674 13.5781 199.537 13.8281 199.445 14.1172C199.354 14.4043 199.308 14.7168 199.308 15.0547V15.3682C199.308 15.6123 199.342 15.8379 199.41 16.0449C199.48 16.25 199.58 16.4277 199.709 16.5781C199.836 16.7285 199.991 16.8467 200.175 16.9326C200.358 17.0166 200.564 17.0586 200.793 17.0586C201.012 17.0586 201.209 17.0215 201.385 16.9473C201.561 16.8711 201.71 16.7676 201.833 16.6367C201.956 16.5059 202.051 16.3516 202.117 16.1738C202.184 15.9961 202.217 15.8037 202.217 15.5967C202.217 15.4033 202.191 15.2197 202.141 15.0459C202.092 14.8701 202.017 14.7158 201.915 14.583C201.813 14.4521 201.687 14.3486 201.534 14.2725C201.384 14.1943 201.207 14.1553 201.004 14.1553C200.904 14.1553 200.812 14.167 200.726 14.1904C200.64 14.2139 200.561 14.2441 200.488 14.2812C200.414 14.3203 200.348 14.3643 200.289 14.4131C200.23 14.46 200.179 14.5078 200.134 14.5566C200.151 14.3789 200.193 14.2178 200.26 14.0732C200.328 13.9287 200.421 13.8047 200.538 13.7012C200.653 13.5977 200.793 13.5176 200.957 13.4609C201.123 13.4043 201.313 13.376 201.528 13.376H201.575V12.6992ZM200.767 14.8086C200.868 14.8086 200.958 14.8291 201.036 14.8701C201.116 14.9092 201.184 14.9639 201.238 15.0342C201.293 15.1064 201.335 15.1914 201.364 15.2891C201.394 15.3867 201.408 15.4932 201.408 15.6084C201.408 15.7236 201.394 15.8301 201.364 15.9277C201.335 16.0234 201.293 16.1064 201.238 16.1768C201.184 16.2471 201.117 16.3027 201.039 16.3438C200.961 16.3828 200.874 16.4023 200.778 16.4023C200.685 16.4023 200.598 16.3828 200.518 16.3438C200.438 16.3047 200.368 16.2461 200.31 16.168C200.251 16.0918 200.205 15.9951 200.172 15.8779C200.141 15.7607 200.125 15.624 200.125 15.4678V15.2275C200.152 15.1689 200.186 15.1152 200.225 15.0664C200.266 15.0176 200.311 14.9746 200.359 14.9375C200.416 14.8965 200.479 14.8652 200.547 14.8438C200.615 14.8203 200.688 14.8086 200.767 14.8086Z" fill="white"/>
<path d="M205 34L198 34" stroke="#4CAEE5" stroke-width="0.5"/>
<path d="M180 59L180 52" stroke="#4CAEE5" stroke-width="0.5"/>
<path d="M181 34L179 34" stroke="#4CAEE5" stroke-width="0.5"/>
<line x1="180" y1="33" x2="180" y2="35" stroke="#4CAEE5" stroke-width="0.5"/>
<path d="M204.012 34.2259L202.496 36.0325L204.972 36.3804L204.012 34.2259Z" fill="#4CAEE5"/>
<path d="M180.251 57.9291L182.314 59.0727L182.183 56.5762L180.251 57.9291Z" fill="#4CAEE5"/>
<mask id="mask3" mask-type="alpha" maskUnits="userSpaceOnUse" x="180" y="34" width="25" height="26">
<rect x="205" y="35" width="24" height="24" transform="rotate(90 205 35)" fill="#C4C4C4"/>
<path d="M204.012 34.2264L202.496 36.033L204.972 36.3809L204.012 34.2264Z" fill="#4CAEE5"/>
<path d="M180.251 57.9296L182.314 59.0732L182.183 56.5767L180.251 57.9296Z" fill="#4CAEE5"/>
</mask>
<g mask="url(#mask3)">
<path d="M180 58C176.848 58 173.727 57.3792 170.816 56.1731C167.904 54.967 165.258 53.1992 163.029 50.9706C160.801 48.742 159.033 46.0962 157.827 43.1844C156.621 40.2726 156 37.1517 156 34C156 30.8483 156.621 27.7274 157.827 24.8156C159.033 21.9038 160.801 19.258 163.029 17.0294C165.258 14.8008 167.904 13.033 170.816 11.8269C173.727 10.6208 176.848 10 180 10C183.152 10 186.273 10.6208 189.184 11.8269C192.096 13.033 194.742 14.8008 196.971 17.0294C199.199 19.258 200.967 21.9038 202.173 24.8156C203.379 27.7274 204 30.8483 204 34C204 37.1517 203.379 40.2726 202.173 43.1844C200.967 46.0962 199.199 48.742 196.971 50.9706C194.742 53.1992 192.096 54.967 189.184 56.1731C186.273 57.3792 183.152 58 180 58L180 58Z" stroke="#4CAEE5" stroke-width="0.5"/>
</g>
<rect x="194" y="48" width="10" height="8" rx="1" fill="#D50032"/>
<path d="M197.805 54V49.7344H197.761L195.903 50.4053V51.1143L196.981 50.7275V54H197.805ZM201.575 49.6992H201.467C201.113 49.6992 200.802 49.7588 200.532 49.8779C200.263 49.9951 200.037 50.1582 199.855 50.3672C199.674 50.5781 199.537 50.8281 199.445 51.1172C199.354 51.4043 199.308 51.7168 199.308 52.0547V52.3682C199.308 52.6123 199.342 52.8379 199.41 53.0449C199.48 53.25 199.58 53.4277 199.709 53.5781C199.836 53.7285 199.991 53.8467 200.175 53.9326C200.358 54.0166 200.564 54.0586 200.793 54.0586C201.012 54.0586 201.209 54.0215 201.385 53.9473C201.561 53.8711 201.71 53.7676 201.833 53.6367C201.956 53.5059 202.051 53.3516 202.117 53.1738C202.184 52.9961 202.217 52.8037 202.217 52.5967C202.217 52.4033 202.191 52.2197 202.141 52.0459C202.092 51.8701 202.017 51.7158 201.915 51.583C201.813 51.4521 201.687 51.3486 201.534 51.2725C201.384 51.1943 201.207 51.1553 201.004 51.1553C200.904 51.1553 200.812 51.167 200.726 51.1904C200.64 51.2139 200.561 51.2441 200.488 51.2812C200.414 51.3203 200.348 51.3643 200.289 51.4131C200.23 51.46 200.179 51.5078 200.134 51.5566C200.151 51.3789 200.193 51.2178 200.26 51.0732C200.328 50.9287 200.421 50.8047 200.538 50.7012C200.653 50.5977 200.793 50.5176 200.957 50.4609C201.123 50.4043 201.313 50.376 201.528 50.376H201.575V49.6992ZM200.767 51.8086C200.868 51.8086 200.958 51.8291 201.036 51.8701C201.116 51.9092 201.184 51.9639 201.238 52.0342C201.293 52.1064 201.335 52.1914 201.364 52.2891C201.394 52.3867 201.408 52.4932 201.408 52.6084C201.408 52.7236 201.394 52.8301 201.364 52.9277C201.335 53.0234 201.293 53.1064 201.238 53.1768C201.184 53.2471 201.117 53.3027 201.039 53.3438C200.961 53.3828 200.874 53.4023 200.778 53.4023C200.685 53.4023 200.598 53.3828 200.518 53.3438C200.438 53.3047 200.368 53.2461 200.31 53.168C200.251 53.0918 200.205 52.9951 200.172 52.8779C200.141 52.7607 200.125 52.624 200.125 52.4678V52.2275C200.152 52.1689 200.186 52.1152 200.225 52.0664C200.266 52.0176 200.311 51.9746 200.359 51.9375C200.416 51.8965 200.479 51.8652 200.547 51.8438C200.615 51.8203 200.688 51.8086 200.767 51.8086Z" fill="white"/>
</svg>
