<svg width="210" height="70" viewBox="0 0 210 70" fill="none" xmlns="http://www.w3.org/2000/svg">
<path d="M29 38C29 26.9543 37.9543 18 49 18H180C191.046 18 200 26.9543 200 38V40C200 51.0457 191.046 60 180 60H49C37.9543 60 29 51.0457 29 40V38Z" fill="white"/>
<path d="M56.5962 45V36.808L59.1082 45H60.7882L63.2682 36.808V45H65.7322V34.328H62.1962L60.1802 40.92L58.0842 34.328H54.5642V45H56.5962ZM70.2454 36.216V34.12H67.7174V36.216H70.2454ZM70.2294 45V37.064H67.7334V45H70.2294ZM74.6349 45V39.56C74.9549 39.08 75.3869 38.632 76.0429 38.632C76.6509 38.632 76.9069 39 76.9069 39.496V45H79.3869V39.416C79.3869 37.896 78.7309 36.92 77.0989 36.92C75.7549 36.92 75.0029 37.72 74.5389 38.376V37.064H72.1549V45H74.6349ZM84.4487 41.64V39.608H80.6247V41.64H84.4487ZM89.9921 45L91.5121 39.032L91.6721 38.36L91.8481 39.032L93.4321 45H95.7041L98.4561 34.328H96.3761L94.9041 40.584L94.7121 41.272L94.5521 40.584L92.8721 34.328H90.7921L89.2561 40.568L89.0641 41.272L88.8881 40.536L87.3521 34.328H84.8401L87.6401 45H89.9921ZM101.902 36.216V34.12H99.3737V36.216H101.902ZM101.886 45V37.064H99.3897V45H101.886ZM106.195 45.144C107.379 45.144 108.051 44.712 108.691 43.864V45H111.059V34.328H108.595V37.88C108.131 37.336 107.459 36.92 106.515 36.92C104.627 36.92 103.363 38.472 103.363 41C103.363 43.8 104.483 45.144 106.195 45.144ZM107.235 43.496C106.435 43.496 105.939 42.936 105.939 41.016C105.939 39.144 106.355 38.504 107.251 38.504C107.955 38.504 108.323 38.936 108.595 39.336V42.536C108.339 43.048 107.939 43.496 107.235 43.496ZM116.136 45.112C116.632 45.112 117.192 45.064 117.576 45.016V43.24C117.24 43.272 116.936 43.272 116.632 43.24C116.04 43.16 115.784 42.808 115.784 42.184V38.744H117.416V37.064H115.784V34.632H113.544L113.384 37.064H112.104V38.744H113.368V42.584C113.368 44.264 114.328 45.112 116.136 45.112ZM121.229 45V39.624C121.549 39.176 121.997 38.664 122.653 38.664C123.197 38.664 123.501 38.984 123.501 39.592V45H126.013V39.304C126.013 37.992 125.309 36.92 123.773 36.92C122.525 36.92 121.805 37.48 121.213 38.184V34.328H118.733V45H121.229ZM130.418 39.56V37.064H127.826V39.56H130.418ZM130.418 45V42.504H127.826V45H130.418ZM139.193 45V43.048H136.937V34.152H135.065C134.409 34.968 133.433 35.848 132.361 36.2V38.248C133.257 37.88 134.009 37.416 134.473 37.08V43.048H132.121V45H139.193ZM148.288 45V43.032H143.344C146.336 40.984 148.176 39.64 148.176 37.496C148.176 35.432 146.688 34.136 144.448 34.136C142.304 34.136 140.624 35.224 140.224 37.72L142.432 38.12C142.576 36.792 143.2 36.136 144.176 36.136C145.12 36.136 145.632 36.744 145.632 37.592C145.632 39.128 144.48 40.12 140.24 43.304V45H148.288ZM153.57 45.192C156.098 45.192 157.73 43.096 157.73 39.736C157.73 36.296 156.162 34.136 153.586 34.136C151.042 34.136 149.426 36.168 149.426 39.72C149.426 43.08 151.09 45.192 153.57 45.192ZM153.618 43.336C152.45 43.336 151.97 42.12 151.97 39.704C151.97 37.224 152.418 35.992 153.602 35.992C154.722 35.992 155.218 37.24 155.218 39.704C155.218 42.104 154.69 43.336 153.618 43.336ZM163.873 45.112C165.601 45.112 166.897 43.656 166.897 41.016C166.897 38.168 165.793 36.92 164.081 36.92C162.737 36.92 162.081 37.688 161.585 38.392V37.064H159.233V47.56H161.713V44.2C162.257 44.68 162.833 45.112 163.873 45.112ZM163.041 43.608C162.337 43.608 161.985 43.144 161.697 42.808V39.656C162.001 39.032 162.433 38.648 163.057 38.648C163.937 38.648 164.321 39.24 164.321 41.128C164.321 43.096 163.873 43.608 163.041 43.608ZM169.514 45L170.858 43L171.146 42.584L171.402 43L172.73 45H175.466L172.618 40.648L175.066 37.064H172.89L171.818 38.696L171.578 39.064L171.354 38.696L170.266 37.064H167.53L170.106 41L167.338 45H169.514Z" fill="#111111"/>
<path d="M49 19H180V17H49V19ZM199 38V40H201V38H199ZM180 59H49V61H180V59ZM30 40V38H28V40H30ZM49 59C38.5066 59 30 50.4934 30 40H28C28 51.598 37.402 61 49 61V59ZM199 40C199 50.4934 190.493 59 180 59V61C191.598 61 201 51.598 201 40H199ZM180 19C190.493 19 199 27.5066 199 38H201C201 26.402 191.598 17 180 17V19ZM49 17C37.402 17 28 26.402 28 38H30C30 27.5066 38.5066 19 49 19V17Z" fill="#D5D5D5"/>
<path d="M29 0V8" stroke="#D50032" stroke-width="0.5"/>
<path d="M200 0V8" stroke="#D50032" stroke-width="0.5"/>
<path d="M200 4L198 5.25L198 2.75L200 4Z" fill="#D50032"/>
<path d="M29 4L31 5.25L31 2.75L29 4Z" fill="#D50032"/>
<path d="M31 4L198 4" stroke="#D50032" stroke-width="0.5"/>
<rect x="86.5" width="57" height="8" rx="1" fill="#D50032"/>
<path d="M89.3682 1.73438H88.3457V6H89.1016V4.7373L89.0664 2.82129L89.5674 4.59375H89.9746L90.5342 2.74219L90.499 4.7373V6H91.2549V1.73438H90.2324L89.7725 3.33691L89.3682 1.73438ZM92.207 2.83008V3.49512H93.1094V5.33789H92.207V6H94.791V5.33789H93.9326V2.83008H92.207ZM93.0508 2.01855C93.0508 2.08105 93.0615 2.13965 93.083 2.19434C93.1064 2.24707 93.1387 2.29199 93.1797 2.3291C93.2207 2.36816 93.2695 2.39844 93.3262 2.41992C93.3848 2.44141 93.4492 2.45215 93.5195 2.45215C93.6641 2.45215 93.7783 2.41211 93.8623 2.33203C93.9482 2.25 93.9912 2.14551 93.9912 2.01855C93.9912 1.8916 93.9482 1.78809 93.8623 1.70801C93.7783 1.62598 93.6641 1.58496 93.5195 1.58496C93.4492 1.58496 93.3848 1.5957 93.3262 1.61719C93.2695 1.63867 93.2207 1.66797 93.1797 1.70508C93.1387 1.74414 93.1064 1.79102 93.083 1.8457C93.0615 1.89844 93.0508 1.95605 93.0508 2.01855ZM95.5938 6H96.4111V3.74707C96.4385 3.7041 96.4688 3.66504 96.502 3.62988C96.5352 3.59473 96.5723 3.56445 96.6133 3.53906C96.6641 3.50391 96.7217 3.47754 96.7861 3.45996C96.8525 3.44238 96.9248 3.43359 97.0029 3.43359C97.0967 3.43359 97.1807 3.44336 97.2549 3.46289C97.3291 3.48047 97.3926 3.5127 97.4453 3.55957C97.498 3.60645 97.5381 3.6709 97.5654 3.75293C97.5947 3.83301 97.6094 3.93555 97.6094 4.06055V6H98.4238V4.04883C98.4238 3.81836 98.3965 3.62305 98.3418 3.46289C98.2891 3.30078 98.2148 3.16797 98.1191 3.06445C98.0215 2.96289 97.9062 2.88867 97.7734 2.8418C97.6406 2.79492 97.4941 2.77148 97.334 2.77148C97.209 2.77148 97.0908 2.78906 96.9795 2.82422C96.8682 2.85938 96.7656 2.91016 96.6719 2.97656C96.6172 3.01562 96.5654 3.05957 96.5166 3.1084C96.4678 3.15723 96.4229 3.21094 96.3818 3.26953L96.332 2.83008H95.5938V6ZM102.051 4.44727V3.78809H99.6104V4.44727H102.051ZM103.035 6H103.75L104.087 4.30664L104.151 3.98438L104.219 4.30664L104.567 6H105.282L105.851 2.83008H105.104L104.869 4.69922L104.828 5.00684L104.772 4.70508L104.43 2.83008H103.885L103.542 4.71387L103.486 5.01562L103.448 4.71387L103.211 2.83008H102.467L103.035 6ZM106.621 2.83008V3.49512H107.523V5.33789H106.621V6H109.205V5.33789H108.347V2.83008H106.621ZM107.465 2.01855C107.465 2.08105 107.476 2.13965 107.497 2.19434C107.521 2.24707 107.553 2.29199 107.594 2.3291C107.635 2.36816 107.684 2.39844 107.74 2.41992C107.799 2.44141 107.863 2.45215 107.934 2.45215C108.078 2.45215 108.192 2.41211 108.276 2.33203C108.362 2.25 108.405 2.14551 108.405 2.01855C108.405 1.8916 108.362 1.78809 108.276 1.70801C108.192 1.62598 108.078 1.58496 107.934 1.58496C107.863 1.58496 107.799 1.5957 107.74 1.61719C107.684 1.63867 107.635 1.66797 107.594 1.70508C107.553 1.74414 107.521 1.79102 107.497 1.8457C107.476 1.89844 107.465 1.95605 107.465 2.01855ZM109.923 4.3916V4.45312C109.923 4.68359 109.951 4.89746 110.008 5.09473C110.064 5.29004 110.146 5.45898 110.254 5.60156C110.359 5.74414 110.488 5.85645 110.641 5.93848C110.795 6.01855 110.969 6.05859 111.162 6.05859C111.34 6.05859 111.496 6.02441 111.631 5.95605C111.766 5.8877 111.883 5.79199 111.982 5.66895L112.023 6H112.759V1.5H111.941V3.11426C111.844 3.00488 111.731 2.9209 111.604 2.8623C111.479 2.80176 111.334 2.77148 111.168 2.77148C110.971 2.77148 110.795 2.81055 110.641 2.88867C110.488 2.9668 110.358 3.07715 110.251 3.21973C110.144 3.3623 110.062 3.5332 110.005 3.73242C109.95 3.93164 109.923 4.15137 109.923 4.3916ZM110.737 4.45312V4.3916C110.737 4.25879 110.749 4.13477 110.772 4.01953C110.796 3.90234 110.833 3.7998 110.884 3.71191C110.935 3.62598 111 3.55859 111.08 3.50977C111.162 3.45898 111.261 3.43359 111.376 3.43359C111.515 3.43359 111.63 3.46387 111.722 3.52441C111.813 3.58301 111.887 3.66602 111.941 3.77344V5.05664C111.887 5.16211 111.812 5.24512 111.719 5.30566C111.627 5.36621 111.511 5.39648 111.37 5.39648C111.255 5.39648 111.157 5.37207 111.077 5.32324C110.997 5.27441 110.932 5.20703 110.881 5.12109C110.83 5.03711 110.793 4.93848 110.77 4.8252C110.748 4.70996 110.737 4.58594 110.737 4.45312ZM115.105 2.05371H114.291V2.83008H113.567V3.43066H114.291V4.87207C114.291 5.08105 114.318 5.26074 114.373 5.41113C114.428 5.55957 114.506 5.68164 114.607 5.77734C114.707 5.875 114.827 5.94727 114.968 5.99414C115.11 6.03906 115.269 6.06152 115.442 6.06152C115.532 6.06152 115.623 6.05664 115.715 6.04688C115.809 6.03906 115.898 6.02734 115.984 6.01172C116.07 5.99609 116.151 5.97656 116.228 5.95312C116.304 5.92773 116.37 5.89844 116.427 5.86523L116.348 5.30566C116.311 5.31543 116.266 5.3252 116.213 5.33496C116.162 5.34473 116.107 5.35352 116.049 5.36133C115.988 5.37109 115.925 5.37891 115.858 5.38477C115.794 5.39062 115.73 5.39355 115.668 5.39355C115.582 5.39355 115.504 5.38379 115.434 5.36426C115.365 5.34473 115.307 5.31152 115.258 5.26465C115.209 5.21973 115.171 5.15918 115.144 5.08301C115.118 5.00488 115.105 4.9082 115.105 4.79297V3.43066H116.289V2.83008H115.105V2.05371ZM118.029 3.2666V1.5H117.215V6H118.029V3.71191C118.061 3.6709 118.095 3.63379 118.132 3.60059C118.171 3.56738 118.214 3.53906 118.261 3.51562C118.312 3.48828 118.368 3.46777 118.431 3.4541C118.493 3.44043 118.561 3.43359 118.633 3.43359C118.727 3.43359 118.811 3.44629 118.885 3.47168C118.959 3.49512 119.022 3.53223 119.075 3.58301C119.128 3.63379 119.168 3.7002 119.195 3.78223C119.225 3.86426 119.239 3.96191 119.239 4.0752V6H120.054V4.08105C120.054 3.84863 120.025 3.65039 119.969 3.48633C119.914 3.32031 119.837 3.18457 119.737 3.0791C119.638 2.97363 119.519 2.89648 119.38 2.84766C119.241 2.79688 119.089 2.77148 118.923 2.77148C118.81 2.77148 118.702 2.78809 118.601 2.82129C118.499 2.85449 118.406 2.90137 118.322 2.96191C118.268 3.00098 118.215 3.04688 118.164 3.09961C118.115 3.15039 118.07 3.20605 118.029 3.2666ZM121.683 5.52832C121.683 5.67871 121.733 5.80469 121.835 5.90625C121.937 6.00781 122.074 6.05859 122.248 6.05859C122.42 6.05859 122.557 6.00879 122.658 5.90918C122.762 5.80762 122.813 5.68066 122.813 5.52832C122.813 5.37598 122.763 5.24805 122.661 5.14453C122.562 5.04102 122.424 4.98926 122.248 4.98926C122.07 4.98926 121.932 5.04199 121.832 5.14746C121.732 5.25098 121.683 5.37793 121.683 5.52832ZM121.683 3.1084C121.683 3.25879 121.733 3.38477 121.835 3.48633C121.937 3.58789 122.074 3.63867 122.248 3.63867C122.42 3.63867 122.557 3.58887 122.658 3.48926C122.762 3.3877 122.813 3.26074 122.813 3.1084C122.813 2.95605 122.763 2.82812 122.661 2.72461C122.562 2.62109 122.424 2.56934 122.248 2.56934C122.07 2.56934 121.932 2.62207 121.832 2.72754C121.732 2.83105 121.683 2.95801 121.683 3.1084ZM126.417 6V1.73438H126.373L124.516 2.40527V3.11426L125.594 2.72754V6H126.417ZM130.814 6V5.34668H128.942L129.745 4.49707C129.884 4.35449 130.01 4.21875 130.123 4.08984C130.236 3.95898 130.334 3.83105 130.416 3.70605C130.496 3.58105 130.558 3.45508 130.601 3.32812C130.646 3.19922 130.668 3.06445 130.668 2.92383C130.668 2.73828 130.639 2.56934 130.58 2.41699C130.521 2.2627 130.437 2.13086 130.325 2.02148C130.212 1.91211 130.071 1.82715 129.903 1.7666C129.737 1.70605 129.546 1.67578 129.329 1.67578C129.103 1.67578 128.896 1.71289 128.708 1.78711C128.522 1.85938 128.364 1.95898 128.233 2.08594C128.101 2.21289 127.998 2.36133 127.926 2.53125C127.854 2.69922 127.817 2.87793 127.817 3.06738H128.635C128.635 2.95215 128.649 2.84961 128.679 2.75977C128.708 2.66992 128.751 2.59473 128.808 2.53418C128.862 2.47559 128.931 2.43164 129.013 2.40234C129.097 2.37109 129.193 2.35547 129.303 2.35547C129.387 2.35547 129.463 2.36914 129.531 2.39648C129.602 2.42383 129.662 2.46289 129.713 2.51367C129.762 2.56641 129.8 2.62988 129.827 2.7041C129.854 2.77832 129.868 2.86328 129.868 2.95898C129.868 3.02344 129.857 3.08984 129.836 3.1582C129.816 3.22656 129.784 3.2998 129.739 3.37793C129.692 3.45801 129.632 3.5459 129.558 3.6416C129.483 3.7373 129.393 3.84375 129.285 3.96094L127.905 5.44336V6H130.814ZM134.406 4.37695V3.35742C134.406 3.08203 134.374 2.83984 134.31 2.63086C134.245 2.41992 134.153 2.24316 134.034 2.10059C133.913 1.95996 133.767 1.85352 133.595 1.78125C133.423 1.70898 133.229 1.67285 133.015 1.67285C132.802 1.67285 132.609 1.70898 132.438 1.78125C132.268 1.85352 132.123 1.95996 132.004 2.10059C131.883 2.24316 131.79 2.41992 131.726 2.63086C131.661 2.83984 131.629 3.08203 131.629 3.35742V4.37695C131.629 4.65234 131.661 4.89551 131.726 5.10645C131.792 5.31543 131.886 5.49023 132.007 5.63086C132.126 5.77344 132.271 5.88086 132.443 5.95312C132.615 6.02539 132.808 6.06152 133.021 6.06152C133.235 6.06152 133.429 6.02539 133.601 5.95312C133.772 5.88086 133.918 5.77344 134.037 5.63086C134.156 5.49023 134.247 5.31543 134.31 5.10645C134.374 4.89551 134.406 4.65234 134.406 4.37695ZM132.449 4.02539C132.449 3.96484 132.449 3.91895 132.449 3.8877C132.449 3.85645 132.449 3.79395 132.449 3.7002V3.22852C132.449 3.07031 132.461 2.93359 132.484 2.81836C132.51 2.70312 132.548 2.60938 132.599 2.53711C132.646 2.46875 132.703 2.41797 132.771 2.38477C132.842 2.34961 132.923 2.33203 133.015 2.33203C133.097 2.33203 133.17 2.3457 133.234 2.37305C133.301 2.39844 133.356 2.43848 133.401 2.49316C133.46 2.56152 133.504 2.65332 133.533 2.76855C133.564 2.88184 133.582 3.01855 133.586 3.17871L132.449 4.02539ZM133.586 4.5C133.586 4.6582 133.573 4.7959 133.548 4.91309C133.524 5.02832 133.488 5.12305 133.439 5.19727C133.393 5.26758 133.334 5.32031 133.264 5.35547C133.193 5.38867 133.112 5.40527 133.021 5.40527C132.921 5.40527 132.835 5.38574 132.763 5.34668C132.69 5.30762 132.631 5.24805 132.584 5.16797C132.543 5.10156 132.511 5.01855 132.487 4.91895C132.466 4.81934 132.453 4.70508 132.449 4.57617L133.586 3.73242C133.586 3.78906 133.586 3.83301 133.586 3.86426C133.586 3.89355 133.586 3.94043 133.586 4.00488V4.5ZM135.244 7.21875H136.059V5.72461C136.096 5.76562 136.135 5.80273 136.176 5.83594C136.217 5.86914 136.26 5.89941 136.305 5.92676C136.381 5.96973 136.463 6.00195 136.551 6.02344C136.641 6.04688 136.738 6.05859 136.844 6.05859C137.043 6.05859 137.22 6.01758 137.374 5.93555C137.528 5.85352 137.658 5.74023 137.764 5.5957C137.867 5.45312 137.945 5.2832 137.998 5.08594C138.053 4.88867 138.08 4.6748 138.08 4.44434V4.38281C138.08 4.14258 138.053 3.92383 137.998 3.72656C137.945 3.52734 137.866 3.35645 137.761 3.21387C137.655 3.07324 137.525 2.96484 137.371 2.88867C137.217 2.81055 137.039 2.77148 136.838 2.77148C136.74 2.77148 136.648 2.78223 136.562 2.80371C136.479 2.82324 136.401 2.85156 136.331 2.88867C136.272 2.91992 136.218 2.95703 136.167 3C136.116 3.04102 136.069 3.08789 136.026 3.14062L135.997 2.83008H135.244V7.21875ZM137.266 4.38281V4.44434C137.266 4.5752 137.254 4.69922 137.23 4.81641C137.207 4.93164 137.17 5.0332 137.119 5.12109C137.068 5.20898 137.002 5.27832 136.92 5.3291C136.84 5.37988 136.742 5.40527 136.627 5.40527C136.555 5.40527 136.489 5.39844 136.431 5.38477C136.372 5.36914 136.32 5.34766 136.275 5.32031C136.229 5.29102 136.187 5.25586 136.149 5.21484C136.114 5.17383 136.084 5.12793 136.059 5.07715V3.75293C136.086 3.69824 136.118 3.65039 136.155 3.60938C136.194 3.56836 136.239 3.53418 136.29 3.50684C136.335 3.4834 136.385 3.46582 136.439 3.4541C136.494 3.44043 136.555 3.43359 136.621 3.43359C136.736 3.43359 136.834 3.45801 136.914 3.50684C136.996 3.55566 137.063 3.62207 137.116 3.70605C137.167 3.79199 137.204 3.89355 137.228 4.01074C137.253 4.12598 137.266 4.25 137.266 4.38281ZM140.286 3.82031L139.601 2.83008H138.725L139.785 4.38574L138.684 6H139.565L140.289 4.96289L141.019 6H141.897L140.796 4.38574L141.859 2.83008H140.983L140.286 3.82031Z" fill="white"/>
<path d="M9 18L1 18" stroke="#D50032" stroke-width="0.5"/>
<path d="M9 60L1 60" stroke="#D50032" stroke-width="0.5"/>
<path d="M5 60L3.75 58L6.25 58L5 60Z" fill="#D50032"/>
<path d="M5 18L3.75 20L6.25 20L5 18Z" fill="#D50032"/>
<path d="M5 20L5 58" stroke="#D50032" stroke-width="0.5"/>
<rect y="35" width="10" height="8" rx="1" fill="#D50032"/>
<path d="M4.18848 39.415V36.7344H3.3623L1.56934 39.5645L1.60156 40.0742H3.37402V41H4.18848V40.0742H4.68359V39.415H4.18848ZM2.36914 39.415L3.29492 37.9707L3.37402 37.8301V39.415H2.36914ZM8.20215 41V40.3467H6.33008L7.13281 39.4971C7.27148 39.3545 7.39746 39.2188 7.51074 39.0898C7.62402 38.959 7.72168 38.8311 7.80371 38.7061C7.88379 38.5811 7.94531 38.4551 7.98828 38.3281C8.0332 38.1992 8.05566 38.0645 8.05566 37.9238C8.05566 37.7383 8.02637 37.5693 7.96777 37.417C7.90918 37.2627 7.82422 37.1309 7.71289 37.0215C7.59961 36.9121 7.45898 36.8271 7.29102 36.7666C7.125 36.7061 6.93359 36.6758 6.7168 36.6758C6.49023 36.6758 6.2832 36.7129 6.0957 36.7871C5.91016 36.8594 5.75195 36.959 5.62109 37.0859C5.48828 37.2129 5.38574 37.3613 5.31348 37.5312C5.24121 37.6992 5.20508 37.8779 5.20508 38.0674H6.02246C6.02246 37.9521 6.03711 37.8496 6.06641 37.7598C6.0957 37.6699 6.13867 37.5947 6.19531 37.5342C6.25 37.4756 6.31836 37.4316 6.40039 37.4023C6.48438 37.3711 6.58105 37.3555 6.69043 37.3555C6.77441 37.3555 6.85059 37.3691 6.91895 37.3965C6.98926 37.4238 7.0498 37.4629 7.10059 37.5137C7.14941 37.5664 7.1875 37.6299 7.21484 37.7041C7.24219 37.7783 7.25586 37.8633 7.25586 37.959C7.25586 38.0234 7.24512 38.0898 7.22363 38.1582C7.2041 38.2266 7.17188 38.2998 7.12695 38.3779C7.08008 38.458 7.01953 38.5459 6.94531 38.6416C6.87109 38.7373 6.78027 38.8438 6.67285 38.9609L5.29297 40.4434V41H8.20215Z" fill="white"/>
<path d="M180 9L180 16" stroke="#4CAEE5" stroke-width="0.5"/>
<path d="M209 38H202" stroke="#4CAEE5" stroke-width="0.5"/>
<path d="M180 37L180 39" stroke="#4CAEE5" stroke-width="0.5"/>
<line x1="179" y1="38" x2="181" y2="38" stroke="#4CAEE5" stroke-width="0.5"/>
<path d="M180.226 9.98784L182.033 11.504L182.381 9.02835L180.226 9.98784Z" fill="#4CAEE5"/>
<path d="M207.929 37.7487L209.073 35.6861L206.576 35.8169L207.929 37.7487Z" fill="#4CAEE5"/>
<mask id="mask0" mask-type="alpha" maskUnits="userSpaceOnUse" x="180" y="8" width="30" height="30">
<rect x="181" y="9" width="28" height="28" fill="#C4C4C4"/>
<path d="M180.226 9.98784L182.033 11.504L182.38 9.02835L180.226 9.98784Z" fill="#4CAEE5"/>
<path d="M207.929 37.7487L209.073 35.6861L206.576 35.8169L207.929 37.7487Z" fill="#4CAEE5"/>
</mask>
<g mask="url(#mask0)">
<path d="M208 38C208 41.677 207.276 45.318 205.869 48.7151C204.461 52.1123 202.399 55.1989 199.799 57.799C197.199 60.399 194.112 62.4615 190.715 63.8686C187.318 65.2758 183.677 66 180 66C176.323 66 172.682 65.2758 169.285 63.8686C165.888 62.4615 162.801 60.399 160.201 57.799C157.601 55.1989 155.539 52.1123 154.131 48.7151C152.724 45.318 152 41.677 152 38C152 34.323 152.724 30.682 154.131 27.2849C155.539 23.8877 157.601 20.801 160.201 18.201C162.801 15.601 165.888 13.5385 169.285 12.1314C172.682 10.7242 176.323 10 180 10C183.677 10 187.318 10.7242 190.715 12.1314C194.112 13.5385 197.199 15.601 199.799 18.201C202.399 20.8011 204.461 23.8878 205.869 27.2849C207.276 30.682 208 34.323 208 38L208 38Z" stroke="#4CAEE5" stroke-width="0.5"/>
</g>
<rect x="196" y="12" width="10" height="8" rx="1" fill="#D50032"/>
<path d="M200.599 18V17.3467H198.727L199.529 16.4971C199.668 16.3545 199.794 16.2188 199.907 16.0898C200.021 15.959 200.118 15.8311 200.2 15.7061C200.28 15.5811 200.342 15.4551 200.385 15.3281C200.43 15.1992 200.452 15.0645 200.452 14.9238C200.452 14.7383 200.423 14.5693 200.364 14.417C200.306 14.2627 200.221 14.1309 200.109 14.0215C199.996 13.9121 199.855 13.8271 199.688 13.7666C199.521 13.7061 199.33 13.6758 199.113 13.6758C198.887 13.6758 198.68 13.7129 198.492 13.7871C198.307 13.8594 198.148 13.959 198.018 14.0859C197.885 14.2129 197.782 14.3613 197.71 14.5312C197.638 14.6992 197.602 14.8779 197.602 15.0674H198.419C198.419 14.9521 198.434 14.8496 198.463 14.7598C198.492 14.6699 198.535 14.5947 198.592 14.5342C198.646 14.4756 198.715 14.4316 198.797 14.4023C198.881 14.3711 198.978 14.3555 199.087 14.3555C199.171 14.3555 199.247 14.3691 199.315 14.3965C199.386 14.4238 199.446 14.4629 199.497 14.5137C199.546 14.5664 199.584 14.6299 199.611 14.7041C199.639 14.7783 199.652 14.8633 199.652 14.959C199.652 15.0234 199.642 15.0898 199.62 15.1582C199.601 15.2266 199.568 15.2998 199.523 15.3779C199.477 15.458 199.416 15.5459 199.342 15.6416C199.268 15.7373 199.177 15.8438 199.069 15.9609L197.689 17.4434V18H200.599ZM204.19 16.377V15.3574C204.19 15.082 204.158 14.8398 204.094 14.6309C204.029 14.4199 203.938 14.2432 203.818 14.1006C203.697 13.96 203.551 13.8535 203.379 13.7812C203.207 13.709 203.014 13.6729 202.799 13.6729C202.586 13.6729 202.394 13.709 202.222 13.7812C202.052 13.8535 201.907 13.96 201.788 14.1006C201.667 14.2432 201.574 14.4199 201.51 14.6309C201.445 14.8398 201.413 15.082 201.413 15.3574V16.377C201.413 16.6523 201.445 16.8955 201.51 17.1064C201.576 17.3154 201.67 17.4902 201.791 17.6309C201.91 17.7734 202.056 17.8809 202.228 17.9531C202.399 18.0254 202.592 18.0615 202.805 18.0615C203.02 18.0615 203.213 18.0254 203.385 17.9531C203.557 17.8809 203.702 17.7734 203.821 17.6309C203.94 17.4902 204.031 17.3154 204.094 17.1064C204.158 16.8955 204.19 16.6523 204.19 16.377ZM202.233 16.0254C202.233 15.9648 202.233 15.9189 202.233 15.8877C202.233 15.8564 202.233 15.7939 202.233 15.7002V15.2285C202.233 15.0703 202.245 14.9336 202.269 14.8184C202.294 14.7031 202.332 14.6094 202.383 14.5371C202.43 14.4688 202.487 14.418 202.556 14.3848C202.626 14.3496 202.707 14.332 202.799 14.332C202.881 14.332 202.954 14.3457 203.019 14.373C203.085 14.3984 203.141 14.4385 203.186 14.4932C203.244 14.5615 203.288 14.6533 203.317 14.7686C203.349 14.8818 203.366 15.0186 203.37 15.1787L202.233 16.0254ZM203.37 16.5C203.37 16.6582 203.357 16.7959 203.332 16.9131C203.309 17.0283 203.272 17.123 203.224 17.1973C203.177 17.2676 203.118 17.3203 203.048 17.3555C202.978 17.3887 202.896 17.4053 202.805 17.4053C202.705 17.4053 202.619 17.3857 202.547 17.3467C202.475 17.3076 202.415 17.248 202.368 17.168C202.327 17.1016 202.295 17.0186 202.271 16.9189C202.25 16.8193 202.237 16.7051 202.233 16.5762L203.37 15.7324C203.37 15.7891 203.37 15.833 203.37 15.8643C203.37 15.8936 203.37 15.9404 203.37 16.0049V16.5Z" fill="white"/>
<path d="M209 40L202 40" stroke="#4CAEE5" stroke-width="0.5"/>
<path d="M180 69L180 62" stroke="#4CAEE5" stroke-width="0.5"/>
<path d="M181 40L179 40" stroke="#4CAEE5" stroke-width="0.5"/>
<line x1="180" y1="39" x2="180" y2="41" stroke="#4CAEE5" stroke-width="0.5"/>
<path d="M208.012 40.2259L206.496 42.0325L208.972 42.3804L208.012 40.2259Z" fill="#4CAEE5"/>
<path d="M180.251 67.9291L182.314 69.0727L182.183 66.5762L180.251 67.9291Z" fill="#4CAEE5"/>
<mask id="mask1" mask-type="alpha" maskUnits="userSpaceOnUse" x="180" y="40" width="30" height="30">
<rect x="209" y="41" width="28" height="28" transform="rotate(90 209 41)" fill="#C4C4C4"/>
<path d="M208.012 40.2264L206.496 42.033L208.972 42.3809L208.012 40.2264Z" fill="#4CAEE5"/>
<path d="M180.251 67.9296L182.314 69.0732L182.183 66.5767L180.251 67.9296Z" fill="#4CAEE5"/>
</mask>
<g mask="url(#mask1)">
<path d="M180 68C176.323 68 172.682 67.2758 169.285 65.8686C165.888 64.4615 162.801 62.399 160.201 59.799C157.601 57.1989 155.539 54.1123 154.131 50.7151C152.724 47.318 152 43.677 152 40C152 36.323 152.724 32.682 154.131 29.2849C155.539 25.8877 157.601 22.801 160.201 20.201C162.801 17.601 165.888 15.5385 169.285 14.1314C172.682 12.7242 176.323 12 180 12C183.677 12 187.318 12.7242 190.715 14.1314C194.112 15.5385 197.199 17.601 199.799 20.201C202.399 22.8011 204.461 25.8878 205.869 29.2849C207.276 32.682 208 36.323 208 40C208 43.677 207.276 47.318 205.869 50.7151C204.461 54.1123 202.399 57.199 199.799 59.799C197.199 62.399 194.112 64.4615 190.715 65.8686C187.318 67.2758 183.677 68 180 68L180 68Z" stroke="#4CAEE5" stroke-width="0.5"/>
</g>
<rect x="196" y="56" width="10" height="8" rx="1" fill="#D50032"/>
<path d="M200.599 62V61.3467H198.727L199.529 60.4971C199.668 60.3545 199.794 60.2188 199.907 60.0898C200.021 59.959 200.118 59.8311 200.2 59.7061C200.28 59.5811 200.342 59.4551 200.385 59.3281C200.43 59.1992 200.452 59.0645 200.452 58.9238C200.452 58.7383 200.423 58.5693 200.364 58.417C200.306 58.2627 200.221 58.1309 200.109 58.0215C199.996 57.9121 199.855 57.8271 199.688 57.7666C199.521 57.7061 199.33 57.6758 199.113 57.6758C198.887 57.6758 198.68 57.7129 198.492 57.7871C198.307 57.8594 198.148 57.959 198.018 58.0859C197.885 58.2129 197.782 58.3613 197.71 58.5312C197.638 58.6992 197.602 58.8779 197.602 59.0674H198.419C198.419 58.9521 198.434 58.8496 198.463 58.7598C198.492 58.6699 198.535 58.5947 198.592 58.5342C198.646 58.4756 198.715 58.4316 198.797 58.4023C198.881 58.3711 198.978 58.3555 199.087 58.3555C199.171 58.3555 199.247 58.3691 199.315 58.3965C199.386 58.4238 199.446 58.4629 199.497 58.5137C199.546 58.5664 199.584 58.6299 199.611 58.7041C199.639 58.7783 199.652 58.8633 199.652 58.959C199.652 59.0234 199.642 59.0898 199.62 59.1582C199.601 59.2266 199.568 59.2998 199.523 59.3779C199.477 59.458 199.416 59.5459 199.342 59.6416C199.268 59.7373 199.177 59.8438 199.069 59.9609L197.689 61.4434V62H200.599ZM204.19 60.377V59.3574C204.19 59.082 204.158 58.8398 204.094 58.6309C204.029 58.4199 203.938 58.2432 203.818 58.1006C203.697 57.96 203.551 57.8535 203.379 57.7812C203.207 57.709 203.014 57.6729 202.799 57.6729C202.586 57.6729 202.394 57.709 202.222 57.7812C202.052 57.8535 201.907 57.96 201.788 58.1006C201.667 58.2432 201.574 58.4199 201.51 58.6309C201.445 58.8398 201.413 59.082 201.413 59.3574V60.377C201.413 60.6523 201.445 60.8955 201.51 61.1064C201.576 61.3154 201.67 61.4902 201.791 61.6309C201.91 61.7734 202.056 61.8809 202.228 61.9531C202.399 62.0254 202.592 62.0615 202.805 62.0615C203.02 62.0615 203.213 62.0254 203.385 61.9531C203.557 61.8809 203.702 61.7734 203.821 61.6309C203.94 61.4902 204.031 61.3154 204.094 61.1064C204.158 60.8955 204.19 60.6523 204.19 60.377ZM202.233 60.0254C202.233 59.9648 202.233 59.9189 202.233 59.8877C202.233 59.8564 202.233 59.7939 202.233 59.7002V59.2285C202.233 59.0703 202.245 58.9336 202.269 58.8184C202.294 58.7031 202.332 58.6094 202.383 58.5371C202.43 58.4688 202.487 58.418 202.556 58.3848C202.626 58.3496 202.707 58.332 202.799 58.332C202.881 58.332 202.954 58.3457 203.019 58.373C203.085 58.3984 203.141 58.4385 203.186 58.4932C203.244 58.5615 203.288 58.6533 203.317 58.7686C203.349 58.8818 203.366 59.0186 203.37 59.1787L202.233 60.0254ZM203.37 60.5C203.37 60.6582 203.357 60.7959 203.332 60.9131C203.309 61.0283 203.272 61.123 203.224 61.1973C203.177 61.2676 203.118 61.3203 203.048 61.3555C202.978 61.3887 202.896 61.4053 202.805 61.4053C202.705 61.4053 202.619 61.3857 202.547 61.3467C202.475 61.3076 202.415 61.248 202.368 61.168C202.327 61.1016 202.295 61.0186 202.271 60.9189C202.25 60.8193 202.237 60.7051 202.233 60.5762L203.37 59.7324C203.37 59.7891 203.37 59.833 203.37 59.8643C203.37 59.8936 203.37 59.9404 203.37 60.0049V60.5Z" fill="white"/>
<path d="M20 38L27 38" stroke="#4CAEE5" stroke-width="0.5"/>
<path d="M49 9L49 16" stroke="#4CAEE5" stroke-width="0.5"/>
<path d="M48 38L50 38" stroke="#4CAEE5" stroke-width="0.5"/>
<line x1="49" y1="39" x2="49" y2="37" stroke="#4CAEE5" stroke-width="0.5"/>
<path d="M20.9878 37.7741L22.504 35.9675L20.0283 35.6196L20.9878 37.7741Z" fill="#4CAEE5"/>
<path d="M48.7486 10.0709L46.6859 8.92725L46.8168 11.4238L48.7486 10.0709Z" fill="#4CAEE5"/>
<mask id="mask2" mask-type="alpha" maskUnits="userSpaceOnUse" x="19" y="8" width="30" height="30">
<rect x="20" y="37" width="28" height="28" transform="rotate(-90 20 37)" fill="#C4C4C4"/>
<path d="M20.9878 37.7736L22.504 35.967L20.0283 35.6191L20.9878 37.7736Z" fill="#4CAEE5"/>
<path d="M48.7486 10.0704L46.6859 8.92677L46.8168 11.4233L48.7486 10.0704Z" fill="#4CAEE5"/>
</mask>
<g mask="url(#mask2)">
<path d="M49 10C52.677 10 56.318 10.7242 59.7151 12.1314C63.1122 13.5385 66.1989 15.601 68.799 18.201C71.399 20.801 73.4615 23.8877 74.8686 27.2849C76.2758 30.682 77 34.323 77 38C77 41.677 76.2758 45.318 74.8686 48.7151C73.4615 52.1123 71.399 55.1989 68.799 57.799C66.1989 60.399 63.1122 62.4615 59.7151 63.8686C56.318 65.2758 52.677 66 49 66C45.323 66 41.682 65.2758 38.2849 63.8686C34.8877 62.4615 31.801 60.399 29.201 57.799C26.601 55.1989 24.5385 52.1122 23.1314 48.7151C21.7242 45.318 21 41.677 21 38C21 34.323 21.7242 30.682 23.1314 27.2849C24.5385 23.8877 26.601 20.801 29.201 18.201C31.8011 15.601 34.8877 13.5385 38.2849 12.1314C41.682 10.7242 45.323 10 49 10L49 10Z" stroke="#4CAEE5" stroke-width="0.5"/>
</g>
<rect x="21" y="12" width="10" height="8" rx="1" fill="#D50032"/>
<path d="M25.5986 18V17.3467H23.7266L24.5293 16.4971C24.668 16.3545 24.7939 16.2188 24.9072 16.0898C25.0205 15.959 25.1182 15.8311 25.2002 15.7061C25.2803 15.5811 25.3418 15.4551 25.3848 15.3281C25.4297 15.1992 25.4521 15.0645 25.4521 14.9238C25.4521 14.7383 25.4229 14.5693 25.3643 14.417C25.3057 14.2627 25.2207 14.1309 25.1094 14.0215C24.9961 13.9121 24.8555 13.8271 24.6875 13.7666C24.5215 13.7061 24.3301 13.6758 24.1133 13.6758C23.8867 13.6758 23.6797 13.7129 23.4922 13.7871C23.3066 13.8594 23.1484 13.959 23.0176 14.0859C22.8848 14.2129 22.7822 14.3613 22.71 14.5312C22.6377 14.6992 22.6016 14.8779 22.6016 15.0674H23.4189C23.4189 14.9521 23.4336 14.8496 23.4629 14.7598C23.4922 14.6699 23.5352 14.5947 23.5918 14.5342C23.6465 14.4756 23.7148 14.4316 23.7969 14.4023C23.8809 14.3711 23.9775 14.3555 24.0869 14.3555C24.1709 14.3555 24.2471 14.3691 24.3154 14.3965C24.3857 14.4238 24.4463 14.4629 24.4971 14.5137C24.5459 14.5664 24.584 14.6299 24.6113 14.7041C24.6387 14.7783 24.6523 14.8633 24.6523 14.959C24.6523 15.0234 24.6416 15.0898 24.6201 15.1582C24.6006 15.2266 24.5684 15.2998 24.5234 15.3779C24.4766 15.458 24.416 15.5459 24.3418 15.6416C24.2676 15.7373 24.1768 15.8438 24.0693 15.9609L22.6895 17.4434V18H25.5986ZM29.1904 16.377V15.3574C29.1904 15.082 29.1582 14.8398 29.0938 14.6309C29.0293 14.4199 28.9375 14.2432 28.8184 14.1006C28.6973 13.96 28.5508 13.8535 28.3789 13.7812C28.207 13.709 28.0137 13.6729 27.7988 13.6729C27.5859 13.6729 27.3936 13.709 27.2217 13.7812C27.0518 13.8535 26.9072 13.96 26.7881 14.1006C26.667 14.2432 26.5742 14.4199 26.5098 14.6309C26.4453 14.8398 26.4131 15.082 26.4131 15.3574V16.377C26.4131 16.6523 26.4453 16.8955 26.5098 17.1064C26.5762 17.3154 26.6699 17.4902 26.791 17.6309C26.9102 17.7734 27.0557 17.8809 27.2275 17.9531C27.3994 18.0254 27.5918 18.0615 27.8047 18.0615C28.0195 18.0615 28.2129 18.0254 28.3848 17.9531C28.5566 17.8809 28.7021 17.7734 28.8213 17.6309C28.9404 17.4902 29.0312 17.3154 29.0938 17.1064C29.1582 16.8955 29.1904 16.6523 29.1904 16.377ZM27.2334 16.0254C27.2334 15.9648 27.2334 15.9189 27.2334 15.8877C27.2334 15.8564 27.2334 15.7939 27.2334 15.7002V15.2285C27.2334 15.0703 27.2451 14.9336 27.2686 14.8184C27.2939 14.7031 27.332 14.6094 27.3828 14.5371C27.4297 14.4688 27.4873 14.418 27.5557 14.3848C27.626 14.3496 27.707 14.332 27.7988 14.332C27.8809 14.332 27.9541 14.3457 28.0186 14.373C28.085 14.3984 28.1406 14.4385 28.1855 14.4932C28.2441 14.5615 28.2881 14.6533 28.3174 14.7686C28.3486 14.8818 28.3662 15.0186 28.3701 15.1787L27.2334 16.0254ZM28.3701 16.5C28.3701 16.6582 28.3574 16.7959 28.332 16.9131C28.3086 17.0283 28.2725 17.123 28.2236 17.1973C28.1768 17.2676 28.1182 17.3203 28.0479 17.3555C27.9775 17.3887 27.8965 17.4053 27.8047 17.4053C27.7051 17.4053 27.6191 17.3857 27.5469 17.3467C27.4746 17.3076 27.415 17.248 27.3682 17.168C27.3271 17.1016 27.2949 17.0186 27.2715 16.9189C27.25 16.8193 27.2373 16.7051 27.2334 16.5762L28.3701 15.7324C28.3701 15.7891 28.3701 15.833 28.3701 15.8643C28.3701 15.8936 28.3701 15.9404 28.3701 16.0049V16.5Z" fill="white"/>
<path d="M49 69L49 62" stroke="#4CAEE5" stroke-width="0.5"/>
<path d="M20 40L27 40" stroke="#4CAEE5" stroke-width="0.5"/>
<path d="M49 41L49 39" stroke="#4CAEE5" stroke-width="0.5"/>
<line x1="50" y1="40" x2="48" y2="40" stroke="#4CAEE5" stroke-width="0.5"/>
<path d="M48.7739 68.0122L46.9674 66.496L46.6194 68.9717L48.7739 68.0122Z" fill="#4CAEE5"/>
<path d="M21.0706 40.2513L19.927 42.3139L22.4236 42.1831L21.0706 40.2513Z" fill="#4CAEE5"/>
<mask id="mask3" mask-type="alpha" maskUnits="userSpaceOnUse" x="19" y="40" width="30" height="30">
<rect x="48" y="69" width="28" height="28" transform="rotate(180 48 69)" fill="#C4C4C4"/>
<path d="M48.7741 68.0122L46.9675 66.496L46.6196 68.9717L48.7741 68.0122Z" fill="#4CAEE5"/>
<path d="M21.0707 40.2513L19.9271 42.3139L22.4237 42.1831L21.0707 40.2513Z" fill="#4CAEE5"/>
</mask>
<g mask="url(#mask3)">
<path d="M21 40C21 36.323 21.7242 32.682 23.1314 29.2849C24.5385 25.8878 26.601 22.8011 29.201 20.201C31.801 17.601 34.8877 15.5385 38.2849 14.1314C41.682 12.7242 45.323 12 49 12C52.677 12 56.318 12.7242 59.7151 14.1314C63.1122 15.5385 66.1989 17.601 68.799 20.201C71.399 22.8011 73.4615 25.8878 74.8686 29.2849C76.2758 32.682 77 36.323 77 40C77 43.677 76.2758 47.318 74.8686 50.7151C73.4615 54.1123 71.399 57.199 68.799 59.799C66.1989 62.399 63.1122 64.4615 59.7151 65.8686C56.318 67.2758 52.677 68 49 68C45.323 68 41.682 67.2758 38.2849 65.8686C34.8877 64.4615 31.801 62.399 29.201 59.799C26.601 57.199 24.5385 54.1123 23.1314 50.7151C21.7242 47.318 21 43.677 21 40L21 40Z" stroke="#4CAEE5" stroke-width="0.5"/>
</g>
<rect x="21" y="56" width="10" height="8" rx="1" fill="#D50032"/>
<path d="M25.5986 62V61.3467H23.7266L24.5293 60.4971C24.668 60.3545 24.7939 60.2188 24.9072 60.0898C25.0205 59.959 25.1182 59.8311 25.2002 59.7061C25.2803 59.5811 25.3418 59.4551 25.3848 59.3281C25.4297 59.1992 25.4521 59.0645 25.4521 58.9238C25.4521 58.7383 25.4229 58.5693 25.3643 58.417C25.3057 58.2627 25.2207 58.1309 25.1094 58.0215C24.9961 57.9121 24.8555 57.8271 24.6875 57.7666C24.5215 57.7061 24.3301 57.6758 24.1133 57.6758C23.8867 57.6758 23.6797 57.7129 23.4922 57.7871C23.3066 57.8594 23.1484 57.959 23.0176 58.0859C22.8848 58.2129 22.7822 58.3613 22.71 58.5312C22.6377 58.6992 22.6016 58.8779 22.6016 59.0674H23.4189C23.4189 58.9521 23.4336 58.8496 23.4629 58.7598C23.4922 58.6699 23.5352 58.5947 23.5918 58.5342C23.6465 58.4756 23.7148 58.4316 23.7969 58.4023C23.8809 58.3711 23.9775 58.3555 24.0869 58.3555C24.1709 58.3555 24.2471 58.3691 24.3154 58.3965C24.3857 58.4238 24.4463 58.4629 24.4971 58.5137C24.5459 58.5664 24.584 58.6299 24.6113 58.7041C24.6387 58.7783 24.6523 58.8633 24.6523 58.959C24.6523 59.0234 24.6416 59.0898 24.6201 59.1582C24.6006 59.2266 24.5684 59.2998 24.5234 59.3779C24.4766 59.458 24.416 59.5459 24.3418 59.6416C24.2676 59.7373 24.1768 59.8438 24.0693 59.9609L22.6895 61.4434V62H25.5986ZM29.1904 60.377V59.3574C29.1904 59.082 29.1582 58.8398 29.0938 58.6309C29.0293 58.4199 28.9375 58.2432 28.8184 58.1006C28.6973 57.96 28.5508 57.8535 28.3789 57.7812C28.207 57.709 28.0137 57.6729 27.7988 57.6729C27.5859 57.6729 27.3936 57.709 27.2217 57.7812C27.0518 57.8535 26.9072 57.96 26.7881 58.1006C26.667 58.2432 26.5742 58.4199 26.5098 58.6309C26.4453 58.8398 26.4131 59.082 26.4131 59.3574V60.377C26.4131 60.6523 26.4453 60.8955 26.5098 61.1064C26.5762 61.3154 26.6699 61.4902 26.791 61.6309C26.9102 61.7734 27.0557 61.8809 27.2275 61.9531C27.3994 62.0254 27.5918 62.0615 27.8047 62.0615C28.0195 62.0615 28.2129 62.0254 28.3848 61.9531C28.5566 61.8809 28.7021 61.7734 28.8213 61.6309C28.9404 61.4902 29.0312 61.3154 29.0938 61.1064C29.1582 60.8955 29.1904 60.6523 29.1904 60.377ZM27.2334 60.0254C27.2334 59.9648 27.2334 59.9189 27.2334 59.8877C27.2334 59.8564 27.2334 59.7939 27.2334 59.7002V59.2285C27.2334 59.0703 27.2451 58.9336 27.2686 58.8184C27.2939 58.7031 27.332 58.6094 27.3828 58.5371C27.4297 58.4688 27.4873 58.418 27.5557 58.3848C27.626 58.3496 27.707 58.332 27.7988 58.332C27.8809 58.332 27.9541 58.3457 28.0186 58.373C28.085 58.3984 28.1406 58.4385 28.1855 58.4932C28.2441 58.5615 28.2881 58.6533 28.3174 58.7686C28.3486 58.8818 28.3662 59.0186 28.3701 59.1787L27.2334 60.0254ZM28.3701 60.5C28.3701 60.6582 28.3574 60.7959 28.332 60.9131C28.3086 61.0283 28.2725 61.123 28.2236 61.1973C28.1768 61.2676 28.1182 61.3203 28.0479 61.3555C27.9775 61.3887 27.8965 61.4053 27.8047 61.4053C27.7051 61.4053 27.6191 61.3857 27.5469 61.3467C27.4746 61.3076 27.415 61.248 27.3682 61.168C27.3271 61.1016 27.2949 61.0186 27.2715 60.9189C27.25 60.8193 27.2373 60.7051 27.2334 60.5762L28.3701 59.7324C28.3701 59.7891 28.3701 59.833 28.3701 59.8643C28.3701 59.8936 28.3701 59.9404 28.3701 60.0049V60.5Z" fill="white"/>
</svg>
