<svg width="139" height="41" viewBox="0 0 139 41" fill="none" xmlns="http://www.w3.org/2000/svg">
<path d="M13 9.56006H4V22.4401L5.56 21.4401L9 19.0701L12.44 21.3901L14 22.3901V9.56006H13Z" fill="#111111"/>
<path d="M130 11.1201H112V36.8801L115.12 34.8801L122 30.1401L128.88 34.7801L132 36.7801V11.1201H130Z" fill="#111111"/>
<path d="M62 10.3401H48.5V29.6601L50.84 28.1601L56 24.6051L61.16 28.0851L63.5 29.5851V10.3401H62Z" fill="#111111"/>
<path d="M106 8L98 8" stroke="#D50032" stroke-width="0.5"/>
<path d="M106 40L98 40" stroke="#D50032" stroke-width="0.5"/>
<path d="M102 40L100.75 38L103.25 38L102 40Z" fill="#D50032"/>
<path d="M102 8L100.75 10L103.25 10L102 8Z" fill="#D50032"/>
<path d="M102 10L102 38" stroke="#D50032" stroke-width="0.5"/>
<rect x="97" y="20" width="10" height="8" rx="1" fill="#D50032"/>
<path d="M99.6299 23.5098V24.1426H100.072C100.184 24.1426 100.283 24.1553 100.371 24.1807C100.461 24.2061 100.538 24.2451 100.603 24.2979C100.665 24.3506 100.713 24.418 100.746 24.5C100.779 24.582 100.796 24.6807 100.796 24.7959C100.796 24.8877 100.781 24.9707 100.752 25.0449C100.725 25.1191 100.684 25.1816 100.629 25.2324C100.572 25.2891 100.502 25.332 100.418 25.3613C100.334 25.3906 100.239 25.4053 100.134 25.4053C100.04 25.4053 99.9541 25.3916 99.876 25.3643C99.7979 25.335 99.7305 25.2949 99.6738 25.2441C99.6152 25.1953 99.5703 25.1367 99.5391 25.0684C99.5078 24.998 99.4922 24.9219 99.4922 24.8398H98.6777C98.6777 25.0469 98.7178 25.2266 98.7979 25.3789C98.8799 25.5312 98.9883 25.6572 99.123 25.7568C99.2578 25.8584 99.4111 25.9346 99.583 25.9854C99.7568 26.0342 99.9346 26.0586 100.116 26.0586C100.327 26.0586 100.523 26.0312 100.705 25.9766C100.889 25.9199 101.047 25.8379 101.18 25.7305C101.312 25.625 101.417 25.4941 101.493 25.3379C101.569 25.1816 101.607 25.0039 101.607 24.8047C101.607 24.6914 101.594 24.584 101.566 24.4824C101.539 24.3809 101.497 24.2871 101.44 24.2012C101.384 24.1172 101.312 24.042 101.224 23.9756C101.138 23.9092 101.035 23.8545 100.916 23.8115C101.018 23.7627 101.107 23.7051 101.186 23.6387C101.264 23.5703 101.329 23.4961 101.382 23.416C101.435 23.3359 101.475 23.252 101.502 23.1641C101.529 23.0742 101.543 22.9834 101.543 22.8916C101.543 22.6924 101.508 22.5176 101.438 22.3672C101.369 22.2148 101.272 22.0869 101.147 21.9834C101.022 21.8818 100.872 21.8057 100.696 21.7549C100.521 21.7021 100.327 21.6758 100.116 21.6758C99.9209 21.6758 99.7383 21.7041 99.5684 21.7607C99.4004 21.8174 99.2539 21.8965 99.1289 21.998C99.0039 22.1016 98.9053 22.2246 98.833 22.3672C98.7627 22.5098 98.7275 22.668 98.7275 22.8418H99.542C99.542 22.7637 99.5576 22.6934 99.5889 22.6309C99.6201 22.5684 99.6631 22.5146 99.7178 22.4697C99.7705 22.4268 99.832 22.3936 99.9023 22.3701C99.9746 22.3467 100.052 22.335 100.134 22.335C100.233 22.335 100.32 22.3486 100.395 22.376C100.471 22.4033 100.533 22.4414 100.582 22.4902C100.631 22.541 100.667 22.6016 100.69 22.6719C100.716 22.7402 100.729 22.8164 100.729 22.9004C100.729 22.9863 100.716 23.0664 100.69 23.1406C100.667 23.2129 100.631 23.2744 100.582 23.3252C100.529 23.3838 100.46 23.4297 100.374 23.4629C100.29 23.4941 100.189 23.5098 100.072 23.5098H99.6299ZM105.202 26V25.3467H103.33L104.133 24.4971C104.271 24.3545 104.397 24.2188 104.511 24.0898C104.624 23.959 104.722 23.8311 104.804 23.7061C104.884 23.5811 104.945 23.4551 104.988 23.3281C105.033 23.1992 105.056 23.0645 105.056 22.9238C105.056 22.7383 105.026 22.5693 104.968 22.417C104.909 22.2627 104.824 22.1309 104.713 22.0215C104.6 21.9121 104.459 21.8271 104.291 21.7666C104.125 21.7061 103.934 21.6758 103.717 21.6758C103.49 21.6758 103.283 21.7129 103.096 21.7871C102.91 21.8594 102.752 21.959 102.621 22.0859C102.488 22.2129 102.386 22.3613 102.313 22.5312C102.241 22.6992 102.205 22.8779 102.205 23.0674H103.022C103.022 22.9521 103.037 22.8496 103.066 22.7598C103.096 22.6699 103.139 22.5947 103.195 22.5342C103.25 22.4756 103.318 22.4316 103.4 22.4023C103.484 22.3711 103.581 22.3555 103.69 22.3555C103.774 22.3555 103.851 22.3691 103.919 22.3965C103.989 22.4238 104.05 22.4629 104.101 22.5137C104.149 22.5664 104.188 22.6299 104.215 22.7041C104.242 22.7783 104.256 22.8633 104.256 22.959C104.256 23.0234 104.245 23.0898 104.224 23.1582C104.204 23.2266 104.172 23.2998 104.127 23.3779C104.08 23.458 104.02 23.5459 103.945 23.6416C103.871 23.7373 103.78 23.8438 103.673 23.9609L102.293 25.4434V26H105.202Z" fill="white"/>
<path d="M106 0V8" stroke="#D50032" stroke-width="0.5"/>
<path d="M138 0V8" stroke="#D50032" stroke-width="0.5"/>
<path d="M138 4L136 5.25L136 2.75L138 4Z" fill="#D50032"/>
<path d="M106 4L108 5.25L108 2.75L106 4Z" fill="#D50032"/>
<path d="M108 4L136 4" stroke="#D50032" stroke-width="0.5"/>
<rect x="117" width="10" height="8" rx="1" fill="#D50032"/>
<path d="M119.63 3.50977V4.14258H120.072C120.184 4.14258 120.283 4.15527 120.371 4.18066C120.461 4.20605 120.538 4.24512 120.603 4.29785C120.665 4.35059 120.713 4.41797 120.746 4.5C120.779 4.58203 120.796 4.68066 120.796 4.7959C120.796 4.8877 120.781 4.9707 120.752 5.04492C120.725 5.11914 120.684 5.18164 120.629 5.23242C120.572 5.28906 120.502 5.33203 120.418 5.36133C120.334 5.39062 120.239 5.40527 120.134 5.40527C120.04 5.40527 119.954 5.3916 119.876 5.36426C119.798 5.33496 119.73 5.29492 119.674 5.24414C119.615 5.19531 119.57 5.13672 119.539 5.06836C119.508 4.99805 119.492 4.92188 119.492 4.83984H118.678C118.678 5.04688 118.718 5.22656 118.798 5.37891C118.88 5.53125 118.988 5.65723 119.123 5.75684C119.258 5.8584 119.411 5.93457 119.583 5.98535C119.757 6.03418 119.935 6.05859 120.116 6.05859C120.327 6.05859 120.523 6.03125 120.705 5.97656C120.889 5.91992 121.047 5.83789 121.18 5.73047C121.312 5.625 121.417 5.49414 121.493 5.33789C121.569 5.18164 121.607 5.00391 121.607 4.80469C121.607 4.69141 121.594 4.58398 121.566 4.48242C121.539 4.38086 121.497 4.28711 121.44 4.20117C121.384 4.11719 121.312 4.04199 121.224 3.97559C121.138 3.90918 121.035 3.85449 120.916 3.81152C121.018 3.7627 121.107 3.70508 121.186 3.63867C121.264 3.57031 121.329 3.49609 121.382 3.41602C121.435 3.33594 121.475 3.25195 121.502 3.16406C121.529 3.07422 121.543 2.9834 121.543 2.8916C121.543 2.69238 121.508 2.51758 121.438 2.36719C121.369 2.21484 121.272 2.08691 121.147 1.9834C121.022 1.88184 120.872 1.80566 120.696 1.75488C120.521 1.70215 120.327 1.67578 120.116 1.67578C119.921 1.67578 119.738 1.7041 119.568 1.76074C119.4 1.81738 119.254 1.89648 119.129 1.99805C119.004 2.10156 118.905 2.22461 118.833 2.36719C118.763 2.50977 118.728 2.66797 118.728 2.8418H119.542C119.542 2.76367 119.558 2.69336 119.589 2.63086C119.62 2.56836 119.663 2.51465 119.718 2.46973C119.771 2.42676 119.832 2.39355 119.902 2.37012C119.975 2.34668 120.052 2.33496 120.134 2.33496C120.233 2.33496 120.32 2.34863 120.395 2.37598C120.471 2.40332 120.533 2.44141 120.582 2.49023C120.631 2.54102 120.667 2.60156 120.69 2.67188C120.716 2.74023 120.729 2.81641 120.729 2.90039C120.729 2.98633 120.716 3.06641 120.69 3.14062C120.667 3.21289 120.631 3.27441 120.582 3.3252C120.529 3.38379 120.46 3.42969 120.374 3.46289C120.29 3.49414 120.189 3.50977 120.072 3.50977H119.63ZM125.202 6V5.34668H123.33L124.133 4.49707C124.271 4.35449 124.397 4.21875 124.511 4.08984C124.624 3.95898 124.722 3.83105 124.804 3.70605C124.884 3.58105 124.945 3.45508 124.988 3.32812C125.033 3.19922 125.056 3.06445 125.056 2.92383C125.056 2.73828 125.026 2.56934 124.968 2.41699C124.909 2.2627 124.824 2.13086 124.713 2.02148C124.6 1.91211 124.459 1.82715 124.291 1.7666C124.125 1.70605 123.934 1.67578 123.717 1.67578C123.49 1.67578 123.283 1.71289 123.096 1.78711C122.91 1.85938 122.752 1.95898 122.621 2.08594C122.488 2.21289 122.386 2.36133 122.313 2.53125C122.241 2.69922 122.205 2.87793 122.205 3.06738H123.022C123.022 2.95215 123.037 2.84961 123.066 2.75977C123.096 2.66992 123.139 2.59473 123.195 2.53418C123.25 2.47559 123.318 2.43164 123.4 2.40234C123.484 2.37109 123.581 2.35547 123.69 2.35547C123.774 2.35547 123.851 2.36914 123.919 2.39648C123.989 2.42383 124.05 2.46289 124.101 2.51367C124.149 2.56641 124.188 2.62988 124.215 2.7041C124.242 2.77832 124.256 2.86328 124.256 2.95898C124.256 3.02344 124.245 3.08984 124.224 3.1582C124.204 3.22656 124.172 3.2998 124.127 3.37793C124.08 3.45801 124.02 3.5459 123.945 3.6416C123.871 3.7373 123.78 3.84375 123.673 3.96094L122.293 5.44336V6H125.202Z" fill="white"/>
<path d="M44 0V8" stroke="#D50032" stroke-width="0.5"/>
<path d="M68 0V8" stroke="#D50032" stroke-width="0.5"/>
<path d="M68 4L66 5.25L66 2.75L68 4Z" fill="#D50032"/>
<path d="M44 4L46 5.25L46 2.75L44 4Z" fill="#D50032"/>
<path d="M46 4L66 4" stroke="#D50032" stroke-width="0.5"/>
<rect x="51" width="10" height="8" rx="1" fill="#D50032"/>
<path d="M55.5986 6V5.34668H53.7266L54.5293 4.49707C54.668 4.35449 54.7939 4.21875 54.9072 4.08984C55.0205 3.95898 55.1182 3.83105 55.2002 3.70605C55.2803 3.58105 55.3418 3.45508 55.3848 3.32812C55.4297 3.19922 55.4521 3.06445 55.4521 2.92383C55.4521 2.73828 55.4229 2.56934 55.3643 2.41699C55.3057 2.2627 55.2207 2.13086 55.1094 2.02148C54.9961 1.91211 54.8555 1.82715 54.6875 1.7666C54.5215 1.70605 54.3301 1.67578 54.1133 1.67578C53.8867 1.67578 53.6797 1.71289 53.4922 1.78711C53.3066 1.85938 53.1484 1.95898 53.0176 2.08594C52.8848 2.21289 52.7822 2.36133 52.71 2.53125C52.6377 2.69922 52.6016 2.87793 52.6016 3.06738H53.4189C53.4189 2.95215 53.4336 2.84961 53.4629 2.75977C53.4922 2.66992 53.5352 2.59473 53.5918 2.53418C53.6465 2.47559 53.7148 2.43164 53.7969 2.40234C53.8809 2.37109 53.9775 2.35547 54.0869 2.35547C54.1709 2.35547 54.2471 2.36914 54.3154 2.39648C54.3857 2.42383 54.4463 2.46289 54.4971 2.51367C54.5459 2.56641 54.584 2.62988 54.6113 2.7041C54.6387 2.77832 54.6523 2.86328 54.6523 2.95898C54.6523 3.02344 54.6416 3.08984 54.6201 3.1582C54.6006 3.22656 54.5684 3.2998 54.5234 3.37793C54.4766 3.45801 54.416 3.5459 54.3418 3.6416C54.2676 3.7373 54.1768 3.84375 54.0693 3.96094L52.6895 5.44336V6H55.5986ZM58.792 4.41504V1.73438H57.9658L56.1729 4.56445L56.2051 5.07422H57.9775V6H58.792V5.07422H59.2871V4.41504H58.792ZM56.9727 4.41504L57.8984 2.9707L57.9775 2.83008V4.41504H56.9727Z" fill="white"/>
<path d="M76 8L68 8" stroke="#D50032" stroke-width="0.5"/>
<path d="M76 32L68 32" stroke="#D50032" stroke-width="0.5"/>
<path d="M72 32L70.75 30L73.25 30L72 32Z" fill="#D50032"/>
<path d="M72 8L70.75 10L73.25 10L72 8Z" fill="#D50032"/>
<path d="M72 10L72 30" stroke="#D50032" stroke-width="0.5"/>
<rect x="67" y="16" width="10" height="8" rx="1" fill="#D50032"/>
<path d="M71.5986 22V21.3467H69.7266L70.5293 20.4971C70.668 20.3545 70.7939 20.2188 70.9072 20.0898C71.0205 19.959 71.1182 19.8311 71.2002 19.7061C71.2803 19.5811 71.3418 19.4551 71.3848 19.3281C71.4297 19.1992 71.4521 19.0645 71.4521 18.9238C71.4521 18.7383 71.4229 18.5693 71.3643 18.417C71.3057 18.2627 71.2207 18.1309 71.1094 18.0215C70.9961 17.9121 70.8555 17.8271 70.6875 17.7666C70.5215 17.7061 70.3301 17.6758 70.1133 17.6758C69.8867 17.6758 69.6797 17.7129 69.4922 17.7871C69.3066 17.8594 69.1484 17.959 69.0176 18.0859C68.8848 18.2129 68.7822 18.3613 68.71 18.5312C68.6377 18.6992 68.6016 18.8779 68.6016 19.0674H69.4189C69.4189 18.9521 69.4336 18.8496 69.4629 18.7598C69.4922 18.6699 69.5352 18.5947 69.5918 18.5342C69.6465 18.4756 69.7148 18.4316 69.7969 18.4023C69.8809 18.3711 69.9775 18.3555 70.0869 18.3555C70.1709 18.3555 70.2471 18.3691 70.3154 18.3965C70.3857 18.4238 70.4463 18.4629 70.4971 18.5137C70.5459 18.5664 70.584 18.6299 70.6113 18.7041C70.6387 18.7783 70.6523 18.8633 70.6523 18.959C70.6523 19.0234 70.6416 19.0898 70.6201 19.1582C70.6006 19.2266 70.5684 19.2998 70.5234 19.3779C70.4766 19.458 70.416 19.5459 70.3418 19.6416C70.2676 19.7373 70.1768 19.8438 70.0693 19.9609L68.6895 21.4434V22H71.5986ZM74.792 20.415V17.7344H73.9658L72.1729 20.5645L72.2051 21.0742H73.9775V22H74.792V21.0742H75.2871V20.415H74.792ZM72.9727 20.415L73.8984 18.9707L73.9775 18.8301V20.415H72.9727Z" fill="white"/>
<path d="M25 8L17 8" stroke="#D50032" stroke-width="0.5"/>
<path d="M25 24L17 24" stroke="#D50032" stroke-width="0.5"/>
<path d="M21 24L19.75 22L22.25 22L21 24Z" fill="#D50032"/>
<path d="M21 8L19.75 10L22.25 10L21 8Z" fill="#D50032"/>
<path d="M21 10L21 22" stroke="#D50032" stroke-width="0.5"/>
<rect x="16" y="12" width="10" height="8" rx="1" fill="#D50032"/>
<path d="M19.8047 18V13.7344H19.7607L17.9033 14.4053V15.1143L18.9814 14.7275V18H19.8047ZM23.5752 13.6992H23.4668C23.1133 13.6992 22.8018 13.7588 22.5322 13.8779C22.2627 13.9951 22.0371 14.1582 21.8555 14.3672C21.6738 14.5781 21.5371 14.8281 21.4453 15.1172C21.3535 15.4043 21.3076 15.7168 21.3076 16.0547V16.3682C21.3076 16.6123 21.3418 16.8379 21.4102 17.0449C21.4805 17.25 21.5801 17.4277 21.709 17.5781C21.8359 17.7285 21.9912 17.8467 22.1748 17.9326C22.3584 18.0166 22.5645 18.0586 22.793 18.0586C23.0117 18.0586 23.209 18.0215 23.3848 17.9473C23.5605 17.8711 23.71 17.7676 23.833 17.6367C23.9561 17.5059 24.0508 17.3516 24.1172 17.1738C24.1836 16.9961 24.2168 16.8037 24.2168 16.5967C24.2168 16.4033 24.1914 16.2197 24.1406 16.0459C24.0918 15.8701 24.0166 15.7158 23.915 15.583C23.8135 15.4521 23.6865 15.3486 23.5342 15.2725C23.3838 15.1943 23.207 15.1553 23.0039 15.1553C22.9043 15.1553 22.8115 15.167 22.7256 15.1904C22.6396 15.2139 22.5605 15.2441 22.4883 15.2812C22.4141 15.3203 22.3477 15.3643 22.2891 15.4131C22.2305 15.46 22.1787 15.5078 22.1338 15.5566C22.1514 15.3789 22.1934 15.2178 22.2598 15.0732C22.3281 14.9287 22.4209 14.8047 22.5381 14.7012C22.6533 14.5977 22.793 14.5176 22.957 14.4609C23.123 14.4043 23.3135 14.376 23.5283 14.376H23.5752V13.6992ZM22.7666 15.8086C22.8682 15.8086 22.958 15.8291 23.0361 15.8701C23.1162 15.9092 23.1836 15.9639 23.2383 16.0342C23.293 16.1064 23.335 16.1914 23.3643 16.2891C23.3936 16.3867 23.4082 16.4932 23.4082 16.6084C23.4082 16.7236 23.3936 16.8301 23.3643 16.9277C23.335 17.0234 23.293 17.1064 23.2383 17.1768C23.1836 17.2471 23.1172 17.3027 23.0391 17.3438C22.9609 17.3828 22.874 17.4023 22.7783 17.4023C22.6846 17.4023 22.5977 17.3828 22.5176 17.3438C22.4375 17.3047 22.3682 17.2461 22.3096 17.168C22.251 17.0918 22.2051 16.9951 22.1719 16.8779C22.1406 16.7607 22.125 16.624 22.125 16.4678V16.2275C22.1523 16.1689 22.1855 16.1152 22.2246 16.0664C22.2656 16.0176 22.3105 15.9746 22.3594 15.9375C22.416 15.8965 22.4785 15.8652 22.5469 15.8438C22.6152 15.8203 22.6885 15.8086 22.7666 15.8086Z" fill="white"/>
<path d="M1 0V8" stroke="#D50032" stroke-width="0.5"/>
<path d="M17 0V8" stroke="#D50032" stroke-width="0.5"/>
<path d="M17 4L15 5.25L15 2.75L17 4Z" fill="#D50032"/>
<path d="M1 4L3 5.25L3 2.75L1 4Z" fill="#D50032"/>
<path d="M3 4L15 4" stroke="#D50032" stroke-width="0.5"/>
<rect x="4" width="10" height="8" rx="1" fill="#D50032"/>
<path d="M7.80469 6V1.73438H7.76074L5.90332 2.40527V3.11426L6.98145 2.72754V6H7.80469ZM11.5752 1.69922H11.4668C11.1133 1.69922 10.8018 1.75879 10.5322 1.87793C10.2627 1.99512 10.0371 2.1582 9.85547 2.36719C9.67383 2.57812 9.53711 2.82812 9.44531 3.11719C9.35352 3.4043 9.30762 3.7168 9.30762 4.05469V4.36816C9.30762 4.6123 9.3418 4.83789 9.41016 5.04492C9.48047 5.25 9.58008 5.42773 9.70898 5.57812C9.83594 5.72852 9.99121 5.84668 10.1748 5.93262C10.3584 6.0166 10.5645 6.05859 10.793 6.05859C11.0117 6.05859 11.209 6.02148 11.3848 5.94727C11.5605 5.87109 11.71 5.76758 11.833 5.63672C11.9561 5.50586 12.0508 5.35156 12.1172 5.17383C12.1836 4.99609 12.2168 4.80371 12.2168 4.59668C12.2168 4.40332 12.1914 4.21973 12.1406 4.0459C12.0918 3.87012 12.0166 3.71582 11.915 3.58301C11.8135 3.45215 11.6865 3.34863 11.5342 3.27246C11.3838 3.19434 11.207 3.15527 11.0039 3.15527C10.9043 3.15527 10.8115 3.16699 10.7256 3.19043C10.6396 3.21387 10.5605 3.24414 10.4883 3.28125C10.4141 3.32031 10.3477 3.36426 10.2891 3.41309C10.2305 3.45996 10.1787 3.50781 10.1338 3.55664C10.1514 3.37891 10.1934 3.21777 10.2598 3.07324C10.3281 2.92871 10.4209 2.80469 10.5381 2.70117C10.6533 2.59766 10.793 2.51758 10.957 2.46094C11.123 2.4043 11.3135 2.37598 11.5283 2.37598H11.5752V1.69922ZM10.7666 3.80859C10.8682 3.80859 10.958 3.8291 11.0361 3.87012C11.1162 3.90918 11.1836 3.96387 11.2383 4.03418C11.293 4.10645 11.335 4.19141 11.3643 4.28906C11.3936 4.38672 11.4082 4.49316 11.4082 4.6084C11.4082 4.72363 11.3936 4.83008 11.3643 4.92773C11.335 5.02344 11.293 5.10645 11.2383 5.17676C11.1836 5.24707 11.1172 5.30273 11.0391 5.34375C10.9609 5.38281 10.874 5.40234 10.7783 5.40234C10.6846 5.40234 10.5977 5.38281 10.5176 5.34375C10.4375 5.30469 10.3682 5.24609 10.3096 5.16797C10.251 5.0918 10.2051 4.99512 10.1719 4.87793C10.1406 4.76074 10.125 4.62402 10.125 4.46777V4.22754C10.1523 4.16895 10.1855 4.11523 10.2246 4.06641C10.2656 4.01758 10.3105 3.97461 10.3594 3.9375C10.416 3.89648 10.4785 3.86523 10.5469 3.84375C10.6152 3.82031 10.6885 3.80859 10.7666 3.80859Z" fill="white"/>
</svg>
