<svg width="173" height="190" viewBox="0 0 173 190" fill="none" xmlns="http://www.w3.org/2000/svg">
<path d="M0 20C0 8.9543 8.9543 0 20 0H153C164.046 0 173 8.95431 173 20V22C173 33.0457 164.046 42 153 42H20C8.95431 42 0 33.0457 0 22V20Z" fill="#111111"/>
<path d="M29.0203 27.16C31.8843 27.16 33.2763 25.8 33.2763 23.912C33.2763 21.688 31.6123 21.032 29.8363 20.616C28.3643 20.264 27.3243 20.088 27.3243 19.144C27.3243 18.52 27.9163 18.152 28.7963 18.152C29.7723 18.152 30.4763 18.552 30.7803 19.432L33.0043 18.76C32.3963 17.128 31.0843 16.136 28.8283 16.136C26.2523 16.136 24.7003 17.416 24.7003 19.224C24.7003 21.576 26.5883 22.136 28.2363 22.536C29.5323 22.856 30.7003 23.08 30.7003 24.056C30.7003 24.76 30.0283 25.192 28.9723 25.192C27.5163 25.192 26.8283 24.568 26.3963 23.528L24.3163 24.328C24.9403 25.944 26.1883 27.16 29.0203 27.16ZM36.9355 27.128C38.0715 27.128 38.9355 26.712 39.4795 25.864L39.4635 27H41.8635V19.064H39.3675V24.584C39.1115 25.112 38.6795 25.512 38.0875 25.512C37.4315 25.512 37.1115 25.224 37.1115 24.472V19.064H34.6155V24.6C34.6155 26.36 35.5755 27.128 36.9355 27.128ZM48.2525 27.112C50.1405 27.112 51.4525 25.736 51.4525 23.016C51.4525 20.312 50.4605 18.92 48.6365 18.92C47.4045 18.92 46.6685 19.592 46.2205 20.28V16.328H43.7725V27H45.2765L45.6285 25.832C46.2365 26.632 46.9565 27.112 48.2525 27.112ZM47.5645 25.592C46.7325 25.592 46.2365 25.032 46.2365 23.88V21.656C46.4925 21.096 46.8925 20.616 47.6125 20.616C48.5405 20.616 48.8925 21.416 48.8925 23.096C48.8925 24.888 48.5405 25.592 47.5645 25.592ZM56.0331 27.128C58.3371 27.128 59.7131 26.056 59.7131 24.504C59.7131 22.84 58.5931 22.264 56.3691 21.992C55.1531 21.816 54.6091 21.72 54.6091 21.192C54.6091 20.68 55.1051 20.456 55.9051 20.456C56.7371 20.456 57.2811 20.744 57.4731 21.352L59.4091 20.968C59.0411 19.672 57.7451 18.92 55.8891 18.92C53.7931 18.92 52.4491 19.928 52.4491 21.496C52.4491 23.16 53.6011 23.608 55.9851 23.896C56.9451 24.024 57.5851 24.136 57.5851 24.728C57.5851 25.272 56.9611 25.544 56.0811 25.544C54.8971 25.544 54.2571 25.176 54.0811 24.456L52.0811 24.824C52.4811 26.376 53.8411 27.128 56.0331 27.128ZM65.3372 27H70.3613C72.9533 27 73.9613 25.784 73.9613 24.008C73.9613 22.584 73.0173 21.624 71.7213 21.432C73.0333 21.112 73.6413 20.2 73.6413 18.936C73.6413 17.464 72.5853 16.328 70.4573 16.328H65.3372V27ZM67.8973 18.264H69.6733C70.6013 18.264 71.0333 18.68 71.0333 19.416C71.0333 20.216 70.5693 20.584 69.6413 20.584H67.8973V18.264ZM67.8973 22.456H69.7213C70.8093 22.456 71.2893 22.984 71.2893 23.752C71.2893 24.52 70.8893 25.048 69.8493 25.048H67.8973V22.456ZM77.8935 27V16.328H75.3975V27H77.8935ZM82.123 27.128C83.259 27.128 84.123 26.712 84.667 25.864L84.651 27H87.051V19.064H84.555V24.584C84.299 25.112 83.867 25.512 83.275 25.512C82.619 25.512 82.299 25.224 82.299 24.472V19.064H79.803V24.6C79.803 26.36 80.763 27.128 82.123 27.128ZM92.592 27.128C94.64 27.128 95.952 26.136 96.48 24.632L94.416 24.36C94.128 25.144 93.616 25.544 92.816 25.544C91.84 25.544 91.104 24.92 91.072 23.496H96.56C96.576 23.32 96.576 23.192 96.576 23.016C96.512 20.552 95.056 18.92 92.576 18.92C90.368 18.92 88.48 20.584 88.48 23.144C88.48 25.56 90.208 27.128 92.592 27.128ZM91.104 22.2C91.168 21.112 91.808 20.472 92.608 20.472C93.536 20.472 94 21.128 94.08 22.2H91.104ZM104.035 27H106.563V18.344H109.139V27H111.651V21.592C111.955 21.128 112.403 20.664 113.059 20.664C113.635 20.664 113.923 20.984 113.923 21.576V27H116.419V21.304C116.419 19.944 115.747 18.92 114.179 18.92C112.931 18.92 112.179 19.544 111.635 20.2V16.328H101.267V18.344H104.035V27ZM121.936 27.128C123.984 27.128 125.296 26.136 125.824 24.632L123.76 24.36C123.472 25.144 122.96 25.544 122.16 25.544C121.184 25.544 120.448 24.92 120.416 23.496H125.904C125.92 23.32 125.92 23.192 125.92 23.016C125.856 20.552 124.4 18.92 121.92 18.92C119.712 18.92 117.824 20.584 117.824 23.144C117.824 25.56 119.552 27.128 121.936 27.128ZM120.448 22.2C120.512 21.112 121.152 20.472 121.952 20.472C122.88 20.472 123.344 21.128 123.424 22.2H120.448ZM129.799 27V21.592C130.135 21.048 130.487 20.648 131.095 20.648C131.655 20.648 131.863 21.032 131.863 21.768V27H134.359V21.592C134.615 21.16 135.015 20.648 135.639 20.648C136.215 20.648 136.423 21.016 136.423 21.768V27H138.903V21.4C138.903 20.92 138.855 20.472 138.711 20.12C138.423 19.336 137.783 18.92 136.711 18.92C135.415 18.92 134.695 19.752 134.215 20.44C133.943 19.4 133.223 18.92 132.151 18.92C130.887 18.92 130.151 19.72 129.703 20.392V19.064H127.319V27H129.799ZM144.42 27.128C146.468 27.128 147.78 26.136 148.308 24.632L146.244 24.36C145.956 25.144 145.444 25.544 144.644 25.544C143.668 25.544 142.932 24.92 142.9 23.496H148.388C148.404 23.32 148.404 23.192 148.404 23.016C148.34 20.552 146.884 18.92 144.404 18.92C142.196 18.92 140.308 20.584 140.308 23.144C140.308 25.56 142.036 27.128 144.42 27.128ZM142.932 22.2C142.996 21.112 143.636 20.472 144.436 20.472C145.364 20.472 145.828 21.128 145.908 22.2H142.932Z" fill="white"/>
<path d="M0 94C0 82.9543 8.95431 74 20 74H147C158.046 74 167 82.9543 167 94V96C167 107.046 158.046 116 147 116H20C8.9543 116 0 107.046 0 96V94Z" fill="#166DFC"/>
<path d="M29.7439 101.16C32.5439 101.16 34.5439 98.888 34.5439 95.624C34.5439 92.184 32.6239 90.12 29.6799 90.12C26.7999 90.12 24.8639 92.296 24.8639 95.64C24.8639 98.952 26.7999 101.16 29.7439 101.16ZM29.7279 99.16C28.4319 99.16 27.6799 98.088 27.6799 95.672C27.6799 93.416 28.2719 92.12 29.7119 92.12C31.1999 92.12 31.7279 93.4 31.7279 95.64C31.7279 97.976 31.0559 99.16 29.7279 99.16ZM44.0601 94.76H45.9481V93.064H44.0601C44.0601 92.936 44.0601 92.728 44.0601 92.504C44.0601 91.832 44.3161 91.544 45.1321 91.544C45.4201 91.544 45.8041 91.544 46.1241 91.592V89.96C45.5161 89.848 45.0361 89.816 44.3961 89.816C42.2681 89.816 41.5161 90.68 41.5001 92.248C41.5001 92.392 41.5001 93.032 41.5001 93.064H39.0201C39.0201 92.936 39.0201 92.728 39.0201 92.504C39.0201 91.832 39.2921 91.544 40.0921 91.544C40.3961 91.544 40.7801 91.544 41.1001 91.592V89.96C40.4921 89.848 39.9961 89.816 39.3721 89.816C37.2281 89.816 36.4921 90.68 36.4761 92.248C36.4761 92.392 36.4761 93.032 36.4761 93.064H35.2121V94.76H36.4761V101H39.0361V94.76H41.5001V101H44.0601V94.76ZM50.9857 101H56.0097C58.6017 101 59.6097 99.784 59.6097 98.008C59.6097 96.584 58.6657 95.624 57.3697 95.432C58.6817 95.112 59.2897 94.2 59.2897 92.936C59.2897 91.464 58.2337 90.328 56.1057 90.328H50.9857V101ZM53.5457 92.264H55.3217C56.2497 92.264 56.6817 92.68 56.6817 93.416C56.6817 94.216 56.2177 94.584 55.2897 94.584H53.5457V92.264ZM53.5457 96.456H55.3697C56.4577 96.456 56.9377 96.984 56.9377 97.752C56.9377 98.52 56.5377 99.048 55.4977 99.048H53.5457V96.456ZM63.5419 101V90.328H61.0459V101H63.5419ZM67.3874 101.096C68.7954 101.096 69.6274 100.68 70.3154 99.976C70.3154 100.424 70.3474 100.84 70.4434 101H72.8114C72.6674 100.696 72.6354 99.912 72.6354 99.448V95.784C72.6354 94.072 71.8674 92.92 69.1954 92.92C66.8594 92.92 65.5314 93.736 65.1474 95.32L67.4194 95.528C67.5794 94.856 68.0274 94.536 68.9554 94.536C69.8194 94.536 70.1874 94.92 70.2354 95.544C70.2354 95.608 70.2514 95.848 70.2514 95.928C69.9154 95.944 69.5954 95.976 69.2914 96.008C66.5234 96.28 64.9394 97.16 64.9394 98.92C64.9394 100.264 65.9154 101.096 67.3874 101.096ZM68.5074 99.56C67.8834 99.56 67.4994 99.288 67.4994 98.696C67.4994 97.944 68.1874 97.48 69.4034 97.272C69.6594 97.224 69.9474 97.192 70.2514 97.176V98.568C69.9154 99.08 69.3234 99.56 68.5074 99.56ZM77.9383 101.144C80.0023 101.144 81.2663 100.136 81.5063 98.328L79.3623 98.136C79.2183 99.032 78.8663 99.56 78.0823 99.56C77.2183 99.56 76.6903 98.792 76.6903 97.032C76.6903 95.416 77.1543 94.568 78.0503 94.568C78.8343 94.568 79.1703 95.192 79.2823 96.104L81.4903 95.896C81.1703 93.944 79.8903 92.92 77.9703 92.92C75.5703 92.92 74.0503 94.76 74.0503 97.016C74.0503 99.624 75.6503 101.144 77.9383 101.144ZM85.2756 101V98.744L86.3956 97.512L88.0756 101H90.7156L88.0596 95.768L90.4436 93.064H88.1716L85.6916 95.912L85.2436 96.472L85.2756 95.752V90.328H82.8116V101H85.2756ZM97.8551 101H100.383V92.344H102.959V101H105.471V95.592C105.775 95.128 106.223 94.664 106.879 94.664C107.455 94.664 107.743 94.984 107.743 95.576V101H110.239V95.304C110.239 93.944 109.567 92.92 107.999 92.92C106.751 92.92 105.999 93.544 105.455 94.2V90.328H95.0871V92.344H97.8551V101ZM115.756 101.128C117.804 101.128 119.116 100.136 119.644 98.632L117.58 98.36C117.292 99.144 116.78 99.544 115.98 99.544C115.004 99.544 114.268 98.92 114.236 97.496H119.724C119.74 97.32 119.74 97.192 119.74 97.016C119.676 94.552 118.22 92.92 115.74 92.92C113.532 92.92 111.644 94.584 111.644 97.144C111.644 99.56 113.372 101.128 115.756 101.128ZM114.268 96.2C114.332 95.112 114.972 94.472 115.772 94.472C116.7 94.472 117.164 95.128 117.244 96.2H114.268ZM123.62 101V95.592C123.956 95.048 124.308 94.648 124.916 94.648C125.476 94.648 125.684 95.032 125.684 95.768V101H128.18V95.592C128.436 95.16 128.836 94.648 129.46 94.648C130.036 94.648 130.244 95.016 130.244 95.768V101H132.724V95.4C132.724 94.92 132.676 94.472 132.532 94.12C132.244 93.336 131.604 92.92 130.532 92.92C129.236 92.92 128.516 93.752 128.036 94.44C127.764 93.4 127.044 92.92 125.972 92.92C124.708 92.92 123.972 93.72 123.524 94.392V93.064H121.14V101H123.62ZM138.24 101.128C140.288 101.128 141.6 100.136 142.128 98.632L140.064 98.36C139.776 99.144 139.264 99.544 138.464 99.544C137.488 99.544 136.752 98.92 136.72 97.496H142.208C142.224 97.32 142.224 97.192 142.224 97.016C142.16 94.552 140.704 92.92 138.224 92.92C136.016 92.92 134.128 94.584 134.128 97.144C134.128 99.56 135.856 101.128 138.24 101.128ZM136.752 96.2C136.816 95.112 137.456 94.472 138.256 94.472C139.184 94.472 139.648 95.128 139.728 96.2H136.752Z" fill="white"/>
<path d="M0 168C0 156.954 8.9543 148 20 148H123C134.046 148 143 156.954 143 168V170C143 181.046 134.046 190 123 190H20C8.95431 190 0 181.046 0 170V168Z" fill="white"/>
<path d="M29.7655 175L31.2855 169.032L31.4455 168.36L31.6215 169.032L33.2055 175H35.4775L38.2295 164.328H36.1495L34.6775 170.584L34.4855 171.272L34.3255 170.584L32.6455 164.328H30.5655L29.0295 170.568L28.8375 171.272L28.6615 170.536L27.1255 164.328H24.6135L27.4135 175H29.7655ZM41.8154 175V169.624C42.1354 169.176 42.5834 168.664 43.2394 168.664C43.7834 168.664 44.0874 168.984 44.0874 169.592V175H46.5994V169.304C46.5994 167.992 45.8954 166.92 44.3594 166.92C43.1114 166.92 42.3914 167.48 41.7994 168.184V164.328H39.3194V175H41.8154ZM50.9876 166.216V164.12H48.4596V166.216H50.9876ZM50.9716 175V167.064H48.4756V175H50.9716ZM56.0811 175.112C56.5771 175.112 57.1371 175.064 57.5211 175.016V173.24C57.1851 173.272 56.8811 173.272 56.5771 173.24C55.9851 173.16 55.7291 172.808 55.7291 172.184V168.744H57.3611V167.064H55.7291V164.632H53.4891L53.3291 167.064H52.0491V168.744H53.3131V172.584C53.3131 174.264 54.2731 175.112 56.0811 175.112ZM62.3108 175.128C64.3588 175.128 65.6708 174.136 66.1988 172.632L64.1348 172.36C63.8468 173.144 63.3348 173.544 62.5348 173.544C61.5588 173.544 60.8228 172.92 60.7908 171.496H66.2788C66.2948 171.32 66.2948 171.192 66.2948 171.016C66.2308 168.552 64.7748 166.92 62.2948 166.92C60.0868 166.92 58.1988 168.584 58.1988 171.144C58.1988 173.56 59.9268 175.128 62.3108 175.128ZM60.8228 170.2C60.8868 169.112 61.5268 168.472 62.3268 168.472C63.2548 168.472 63.7188 169.128 63.7988 170.2H60.8228ZM73.7535 175H76.2815V166.344H78.8575V175H81.3695V169.592C81.6735 169.128 82.1215 168.664 82.7775 168.664C83.3535 168.664 83.6415 168.984 83.6415 169.576V175H86.1375V169.304C86.1375 167.944 85.4655 166.92 83.8975 166.92C82.6495 166.92 81.8975 167.544 81.3535 168.2V164.328H70.9855V166.344H73.7535V175ZM91.6545 175.128C93.7025 175.128 95.0145 174.136 95.5425 172.632L93.4785 172.36C93.1905 173.144 92.6785 173.544 91.8785 173.544C90.9025 173.544 90.1665 172.92 90.1345 171.496H95.6225C95.6385 171.32 95.6385 171.192 95.6385 171.016C95.5745 168.552 94.1185 166.92 91.6385 166.92C89.4305 166.92 87.5425 168.584 87.5425 171.144C87.5425 173.56 89.2705 175.128 91.6545 175.128ZM90.1665 170.2C90.2305 169.112 90.8705 168.472 91.6705 168.472C92.5985 168.472 93.0625 169.128 93.1425 170.2H90.1665ZM99.5181 175V169.592C99.8541 169.048 100.206 168.648 100.814 168.648C101.374 168.648 101.582 169.032 101.582 169.768V175H104.078V169.592C104.334 169.16 104.734 168.648 105.358 168.648C105.934 168.648 106.142 169.016 106.142 169.768V175H108.622V169.4C108.622 168.92 108.574 168.472 108.43 168.12C108.142 167.336 107.502 166.92 106.43 166.92C105.134 166.92 104.414 167.752 103.934 168.44C103.662 167.4 102.942 166.92 101.87 166.92C100.606 166.92 99.8701 167.72 99.4221 168.392V167.064H97.0381V175H99.5181ZM114.139 175.128C116.187 175.128 117.499 174.136 118.027 172.632L115.963 172.36C115.675 173.144 115.163 173.544 114.363 173.544C113.387 173.544 112.651 172.92 112.619 171.496H118.107C118.123 171.32 118.123 171.192 118.123 171.016C118.059 168.552 116.603 166.92 114.123 166.92C111.915 166.92 110.027 168.584 110.027 171.144C110.027 173.56 111.755 175.128 114.139 175.128ZM112.651 170.2C112.715 169.112 113.355 168.472 114.155 168.472C115.083 168.472 115.547 169.128 115.627 170.2H112.651Z" fill="#111111"/>
<path d="M20 149H123V147H20V149ZM142 168V170H144V168H142ZM123 189H20V191H123V189ZM1 170V168H-1V170H1ZM20 189C9.50659 189 1 180.493 1 170H-1C-1 181.598 8.40202 191 20 191V189ZM142 170C142 180.493 133.493 189 123 189V191C134.598 191 144 181.598 144 170H142ZM123 149C133.493 149 142 157.507 142 168H144C144 156.402 134.598 147 123 147V149ZM20 147C8.40202 147 -1 156.402 -1 168H1C1 157.507 9.50659 149 20 149V147Z" fill="#D5D5D5"/>
</svg>
