<svg width="427" height="216" viewBox="0 0 427 216" fill="none" xmlns="http://www.w3.org/2000/svg">
<path d="M4.162 14H7.452C9.888 14 11.47 11.97 11.47 9.31C11.47 7.798 11.008 6.454 10.084 5.628C9.384 4.984 8.418 4.662 7.298 4.662H4.162V14ZM5.324 5.656H7.228C9.062 5.656 10.294 7.07 10.294 9.338C10.294 11.676 9.02 13.048 7.228 13.048H5.324V5.656ZM15.7605 14.112C17.1325 14.112 18.1965 13.398 18.6725 12.068L17.7205 11.928C17.3285 12.95 16.6145 13.286 15.8585 13.286C14.5145 13.286 13.7305 12.404 13.7025 10.668H18.7985C18.7845 10.514 18.7985 10.36 18.7845 10.206C18.6445 8.288 17.5945 6.972 15.7885 6.972C14.0105 6.972 12.5965 8.33 12.5965 10.668C12.5965 12.726 13.8705 14.112 15.7605 14.112ZM13.7445 9.926C13.8285 8.624 14.6825 7.798 15.7885 7.798C16.8945 7.798 17.5805 8.596 17.6925 9.926H13.7445ZM21.4959 14V7.924H23.1759V7.098H21.4959C21.4959 7.056 21.4959 6.762 21.4959 6.44C21.4959 5.67 21.8319 5.278 22.6719 5.278C22.8539 5.278 23.2879 5.306 23.5819 5.348V4.48C23.3159 4.438 22.8539 4.396 22.5879 4.396C21.1459 4.396 20.4179 5.054 20.4179 6.412C20.4179 6.51 20.4179 7 20.4179 7.098H19.1999V7.924H20.4179V14H21.4959ZM25.8133 14.084C27.1013 14.084 27.9133 13.594 28.4593 12.838C28.4453 13.188 28.5013 13.762 28.5853 14H29.6213C29.5093 13.566 29.4673 13.09 29.4673 12.656V9.52C29.4673 7.784 28.7113 6.972 26.7513 6.972C25.1133 6.972 24.0353 7.644 23.7833 8.904L24.7913 9.016C25.0153 8.134 25.6033 7.826 26.7233 7.826C27.8853 7.826 28.3333 8.232 28.4173 8.988C28.4453 9.156 28.4453 9.394 28.4453 9.632C27.8993 9.646 27.4373 9.646 26.8773 9.716C24.9873 9.94 23.6153 10.682 23.6153 12.18C23.6153 13.44 24.5953 14.084 25.8133 14.084ZM26.1353 13.286C25.2113 13.286 24.7493 12.866 24.7493 12.068C24.7493 11.2 25.5193 10.598 27.0173 10.402C27.4513 10.346 27.9553 10.346 28.4453 10.346V11.774C28.1513 12.488 27.4513 13.286 26.1353 13.286ZM33.6441 14.112C34.5681 14.112 35.4081 13.706 35.9541 12.824V14H36.9621V7.098H35.8841V11.998C35.4221 12.838 34.7501 13.286 33.9801 13.286C33.0141 13.286 32.6081 12.852 32.6081 11.76V7.098H31.5161V11.732C31.5161 13.468 32.3981 14.112 33.6441 14.112ZM40.17 14V4.662H39.078V14H40.17ZM44.2222 14.098C44.6002 14.098 45.0202 14.056 45.3982 13.986V13.132C45.1462 13.174 44.7402 13.216 44.4182 13.216C43.8302 13.202 43.4522 12.88 43.4522 12.152V7.966H45.0062V7.098H43.4522V5.292H42.4582L42.4022 7.098H41.2682V7.966H42.3882V12.096C42.3882 13.524 43.0602 14.098 44.2222 14.098ZM52.7914 14.154C54.9194 14.154 56.1794 13.118 56.1794 11.466C56.1794 9.898 55.1154 9.24 53.1554 8.722C51.2374 8.218 50.5514 7.868 50.5514 6.832C50.5514 6.034 51.3214 5.446 52.4974 5.446C53.6734 5.446 54.5694 6.062 54.8494 7.112L55.9274 6.776C55.4794 5.32 54.2614 4.48 52.5114 4.48C50.7054 4.48 49.3894 5.446 49.3894 6.958C49.3894 8.61 50.6914 9.226 52.4134 9.66C53.9534 10.066 55.0314 10.402 55.0314 11.564C55.0314 12.628 54.1774 13.202 52.8054 13.202C51.1674 13.202 50.3694 12.53 49.9354 11.396L48.9414 11.788C49.5574 13.342 50.7614 14.154 52.7914 14.154ZM59.6988 14.098C60.0768 14.098 60.4968 14.056 60.8748 13.986V13.132C60.6228 13.174 60.2168 13.216 59.8948 13.216C59.3068 13.202 58.9288 12.88 58.9288 12.152V7.966H60.4828V7.098H58.9288V5.292H57.9348L57.8788 7.098H56.7448V7.966H57.8648V12.096C57.8648 13.524 58.5368 14.098 59.6988 14.098ZM63.7254 14.084C65.0134 14.084 65.8254 13.594 66.3714 12.838C66.3574 13.188 66.4134 13.762 66.4974 14H67.5334C67.4214 13.566 67.3794 13.09 67.3794 12.656V9.52C67.3794 7.784 66.6234 6.972 64.6634 6.972C63.0254 6.972 61.9474 7.644 61.6954 8.904L62.7034 9.016C62.9274 8.134 63.5154 7.826 64.6354 7.826C65.7974 7.826 66.2454 8.232 66.3294 8.988C66.3574 9.156 66.3574 9.394 66.3574 9.632C65.8114 9.646 65.3494 9.646 64.7894 9.716C62.8994 9.94 61.5274 10.682 61.5274 12.18C61.5274 13.44 62.5074 14.084 63.7254 14.084ZM64.0474 13.286C63.1234 13.286 62.6614 12.866 62.6614 12.068C62.6614 11.2 63.4314 10.598 64.9294 10.402C65.3634 10.346 65.8674 10.346 66.3574 10.346V11.774C66.0634 12.488 65.3634 13.286 64.0474 13.286ZM71.3883 14.098C71.7663 14.098 72.1863 14.056 72.5643 13.986V13.132C72.3123 13.174 71.9062 13.216 71.5843 13.216C70.9963 13.202 70.6183 12.88 70.6183 12.152V7.966H72.1723V7.098H70.6183V5.292H69.6243L69.5683 7.098H68.4343V7.966H69.5543V12.096C69.5543 13.524 70.2263 14.098 71.3883 14.098ZM76.4089 14.112C77.7809 14.112 78.8449 13.398 79.3209 12.068L78.3689 11.928C77.9769 12.95 77.2629 13.286 76.5069 13.286C75.1629 13.286 74.3789 12.404 74.3509 10.668H79.4469C79.4329 10.514 79.4469 10.36 79.4329 10.206C79.2929 8.288 78.2429 6.972 76.4369 6.972C74.6589 6.972 73.2449 8.33 73.2449 10.668C73.2449 12.726 74.5189 14.112 76.4089 14.112ZM74.3929 9.926C74.4769 8.624 75.3309 7.798 76.4369 7.798C77.5429 7.798 78.2289 8.596 78.3409 9.926H74.3929Z" fill="black"/>
<path d="M256.324 14V9.562H260.664V14H261.826V4.662H260.664V8.526H256.324V4.662H255.162V14H256.324ZM266.594 14.112C268.302 14.112 269.716 12.698 269.716 10.528C269.716 8.4 268.484 6.972 266.594 6.972C264.9 6.972 263.5 8.358 263.5 10.514C263.5 12.698 264.816 14.112 266.594 14.112ZM266.58 13.3C265.418 13.3 264.648 12.264 264.648 10.528C264.648 8.75 265.488 7.826 266.58 7.826C267.728 7.826 268.568 8.722 268.568 10.514C268.568 12.376 267.714 13.3 266.58 13.3ZM273.841 14L276.361 7.098H275.409L273.799 11.564C273.631 11.97 273.435 12.642 273.365 12.824C273.323 12.628 273.113 11.984 272.959 11.55L271.405 7.098H270.257L272.735 14H273.841ZM280.063 14.112C281.435 14.112 282.499 13.398 282.975 12.068L282.023 11.928C281.631 12.95 280.917 13.286 280.161 13.286C278.817 13.286 278.033 12.404 278.005 10.668H283.101C283.087 10.514 283.101 10.36 283.087 10.206C282.947 8.288 281.897 6.972 280.091 6.972C278.313 6.972 276.899 8.33 276.899 10.668C276.899 12.726 278.173 14.112 280.063 14.112ZM278.047 9.926C278.131 8.624 278.985 7.798 280.091 7.798C281.197 7.798 281.883 8.596 281.995 9.926H278.047ZM285.701 14V9.492C286.275 8.526 287.087 7.966 287.899 7.966C287.983 7.966 288.123 7.966 288.207 7.98V6.986C288.095 6.972 288.011 6.972 287.885 6.972C286.905 6.972 286.093 7.77 285.645 8.582V7.098H284.609V14H285.701ZM295.493 14.154C297.621 14.154 298.881 13.118 298.881 11.466C298.881 9.898 297.817 9.24 295.857 8.722C293.939 8.218 293.253 7.868 293.253 6.832C293.253 6.034 294.023 5.446 295.199 5.446C296.375 5.446 297.271 6.062 297.551 7.112L298.629 6.776C298.181 5.32 296.963 4.48 295.213 4.48C293.407 4.48 292.091 5.446 292.091 6.958C292.091 8.61 293.393 9.226 295.115 9.66C296.655 10.066 297.733 10.402 297.733 11.564C297.733 12.628 296.879 13.202 295.507 13.202C293.869 13.202 293.071 12.53 292.637 11.396L291.643 11.788C292.259 13.342 293.463 14.154 295.493 14.154ZM302.4 14.098C302.778 14.098 303.198 14.056 303.576 13.986V13.132C303.324 13.174 302.918 13.216 302.596 13.216C302.008 13.202 301.63 12.88 301.63 12.152V7.966H303.184V7.098H301.63V5.292H300.636L300.58 7.098H299.446V7.966H300.566V12.096C300.566 13.524 301.238 14.098 302.4 14.098ZM306.427 14.084C307.715 14.084 308.527 13.594 309.073 12.838C309.059 13.188 309.115 13.762 309.199 14H310.235C310.123 13.566 310.081 13.09 310.081 12.656V9.52C310.081 7.784 309.325 6.972 307.365 6.972C305.727 6.972 304.649 7.644 304.397 8.904L305.405 9.016C305.629 8.134 306.217 7.826 307.337 7.826C308.499 7.826 308.947 8.232 309.031 8.988C309.059 9.156 309.059 9.394 309.059 9.632C308.513 9.646 308.051 9.646 307.491 9.716C305.601 9.94 304.229 10.682 304.229 12.18C304.229 13.44 305.209 14.084 306.427 14.084ZM306.749 13.286C305.825 13.286 305.363 12.866 305.363 12.068C305.363 11.2 306.133 10.598 307.631 10.402C308.065 10.346 308.569 10.346 309.059 10.346V11.774C308.765 12.488 308.065 13.286 306.749 13.286ZM314.089 14.098C314.467 14.098 314.887 14.056 315.265 13.986V13.132C315.013 13.174 314.607 13.216 314.285 13.216C313.697 13.202 313.319 12.88 313.319 12.152V7.966H314.873V7.098H313.319V5.292H312.325L312.269 7.098H311.135V7.966H312.255V12.096C312.255 13.524 312.927 14.098 314.089 14.098ZM319.11 14.112C320.482 14.112 321.546 13.398 322.022 12.068L321.07 11.928C320.678 12.95 319.964 13.286 319.208 13.286C317.864 13.286 317.08 12.404 317.052 10.668H322.148C322.134 10.514 322.148 10.36 322.134 10.206C321.994 8.288 320.944 6.972 319.138 6.972C317.36 6.972 315.946 8.33 315.946 10.668C315.946 12.726 317.22 14.112 319.11 14.112ZM317.094 9.926C317.178 8.624 318.032 7.798 319.138 7.798C320.244 7.798 320.93 8.596 321.042 9.926H317.094Z" fill="black"/>
<path d="M0 46C0 34.9543 8.9543 26 20 26H153C164.046 26 173 34.9543 173 46V48C173 59.0457 164.046 68 153 68H20C8.95431 68 0 59.0457 0 48V46Z" fill="#166DFC"/>
<path d="M29.0203 53.16C31.8843 53.16 33.2763 51.8 33.2763 49.912C33.2763 47.688 31.6123 47.032 29.8363 46.616C28.3643 46.264 27.3243 46.088 27.3243 45.144C27.3243 44.52 27.9163 44.152 28.7963 44.152C29.7723 44.152 30.4763 44.552 30.7803 45.432L33.0043 44.76C32.3963 43.128 31.0843 42.136 28.8283 42.136C26.2523 42.136 24.7003 43.416 24.7003 45.224C24.7003 47.576 26.5883 48.136 28.2363 48.536C29.5323 48.856 30.7003 49.08 30.7003 50.056C30.7003 50.76 30.0283 51.192 28.9723 51.192C27.5163 51.192 26.8283 50.568 26.3963 49.528L24.3163 50.328C24.9403 51.944 26.1883 53.16 29.0203 53.16ZM36.9355 53.128C38.0715 53.128 38.9355 52.712 39.4795 51.864L39.4635 53H41.8635V45.064H39.3675V50.584C39.1115 51.112 38.6795 51.512 38.0875 51.512C37.4315 51.512 37.1115 51.224 37.1115 50.472V45.064H34.6155V50.6C34.6155 52.36 35.5755 53.128 36.9355 53.128ZM48.2525 53.112C50.1405 53.112 51.4525 51.736 51.4525 49.016C51.4525 46.312 50.4605 44.92 48.6365 44.92C47.4045 44.92 46.6685 45.592 46.2205 46.28V42.328H43.7725V53H45.2765L45.6285 51.832C46.2365 52.632 46.9565 53.112 48.2525 53.112ZM47.5645 51.592C46.7325 51.592 46.2365 51.032 46.2365 49.88V47.656C46.4925 47.096 46.8925 46.616 47.6125 46.616C48.5405 46.616 48.8925 47.416 48.8925 49.096C48.8925 50.888 48.5405 51.592 47.5645 51.592ZM56.0331 53.128C58.3371 53.128 59.7131 52.056 59.7131 50.504C59.7131 48.84 58.5931 48.264 56.3691 47.992C55.1531 47.816 54.6091 47.72 54.6091 47.192C54.6091 46.68 55.1051 46.456 55.9051 46.456C56.7371 46.456 57.2811 46.744 57.4731 47.352L59.4091 46.968C59.0411 45.672 57.7451 44.92 55.8891 44.92C53.7931 44.92 52.4491 45.928 52.4491 47.496C52.4491 49.16 53.6011 49.608 55.9851 49.896C56.9451 50.024 57.5851 50.136 57.5851 50.728C57.5851 51.272 56.9611 51.544 56.0811 51.544C54.8971 51.544 54.2571 51.176 54.0811 50.456L52.0811 50.824C52.4811 52.376 53.8411 53.128 56.0331 53.128ZM65.3372 53H70.3613C72.9533 53 73.9613 51.784 73.9613 50.008C73.9613 48.584 73.0173 47.624 71.7213 47.432C73.0333 47.112 73.6413 46.2 73.6413 44.936C73.6413 43.464 72.5853 42.328 70.4573 42.328H65.3372V53ZM67.8973 44.264H69.6733C70.6013 44.264 71.0333 44.68 71.0333 45.416C71.0333 46.216 70.5693 46.584 69.6413 46.584H67.8973V44.264ZM67.8973 48.456H69.7213C70.8093 48.456 71.2893 48.984 71.2893 49.752C71.2893 50.52 70.8893 51.048 69.8493 51.048H67.8973V48.456ZM77.8935 53V42.328H75.3975V53H77.8935ZM82.123 53.128C83.259 53.128 84.123 52.712 84.667 51.864L84.651 53H87.051V45.064H84.555V50.584C84.299 51.112 83.867 51.512 83.275 51.512C82.619 51.512 82.299 51.224 82.299 50.472V45.064H79.803V50.6C79.803 52.36 80.763 53.128 82.123 53.128ZM92.592 53.128C94.64 53.128 95.952 52.136 96.48 50.632L94.416 50.36C94.128 51.144 93.616 51.544 92.816 51.544C91.84 51.544 91.104 50.92 91.072 49.496H96.56C96.576 49.32 96.576 49.192 96.576 49.016C96.512 46.552 95.056 44.92 92.576 44.92C90.368 44.92 88.48 46.584 88.48 49.144C88.48 51.56 90.208 53.128 92.592 53.128ZM91.104 48.2C91.168 47.112 91.808 46.472 92.608 46.472C93.536 46.472 94 47.128 94.08 48.2H91.104ZM104.035 53H106.563V44.344H109.139V53H111.651V47.592C111.955 47.128 112.403 46.664 113.059 46.664C113.635 46.664 113.923 46.984 113.923 47.576V53H116.419V47.304C116.419 45.944 115.747 44.92 114.179 44.92C112.931 44.92 112.179 45.544 111.635 46.2V42.328H101.267V44.344H104.035V53ZM121.936 53.128C123.984 53.128 125.296 52.136 125.824 50.632L123.76 50.36C123.472 51.144 122.96 51.544 122.16 51.544C121.184 51.544 120.448 50.92 120.416 49.496H125.904C125.92 49.32 125.92 49.192 125.92 49.016C125.856 46.552 124.4 44.92 121.92 44.92C119.712 44.92 117.824 46.584 117.824 49.144C117.824 51.56 119.552 53.128 121.936 53.128ZM120.448 48.2C120.512 47.112 121.152 46.472 121.952 46.472C122.88 46.472 123.344 47.128 123.424 48.2H120.448ZM129.799 53V47.592C130.135 47.048 130.487 46.648 131.095 46.648C131.655 46.648 131.863 47.032 131.863 47.768V53H134.359V47.592C134.615 47.16 135.015 46.648 135.639 46.648C136.215 46.648 136.423 47.016 136.423 47.768V53H138.903V47.4C138.903 46.92 138.855 46.472 138.711 46.12C138.423 45.336 137.783 44.92 136.711 44.92C135.415 44.92 134.695 45.752 134.215 46.44C133.943 45.4 133.223 44.92 132.151 44.92C130.887 44.92 130.151 45.72 129.703 46.392V45.064H127.319V53H129.799ZM144.42 53.128C146.468 53.128 147.78 52.136 148.308 50.632L146.244 50.36C145.956 51.144 145.444 51.544 144.644 51.544C143.668 51.544 142.932 50.92 142.9 49.496H148.388C148.404 49.32 148.404 49.192 148.404 49.016C148.34 46.552 146.884 44.92 144.404 44.92C142.196 44.92 140.308 46.584 140.308 49.144C140.308 51.56 142.036 53.128 144.42 53.128ZM142.932 48.2C142.996 47.112 143.636 46.472 144.436 46.472C145.364 46.472 145.828 47.128 145.908 48.2H142.932Z" fill="white"/>
<path d="M254 46C254 34.9543 262.954 26 274 26H407C418.046 26 427 34.9543 427 46V48C427 59.0457 418.046 68 407 68H274C262.954 68 254 59.0457 254 48V46Z" fill="#003399"/>
<path d="M283.02 53.16C285.884 53.16 287.276 51.8 287.276 49.912C287.276 47.688 285.612 47.032 283.836 46.616C282.364 46.264 281.324 46.088 281.324 45.144C281.324 44.52 281.916 44.152 282.796 44.152C283.772 44.152 284.476 44.552 284.78 45.432L287.004 44.76C286.396 43.128 285.084 42.136 282.828 42.136C280.252 42.136 278.7 43.416 278.7 45.224C278.7 47.576 280.588 48.136 282.236 48.536C283.532 48.856 284.7 49.08 284.7 50.056C284.7 50.76 284.028 51.192 282.972 51.192C281.516 51.192 280.828 50.568 280.396 49.528L278.316 50.328C278.94 51.944 280.188 53.16 283.02 53.16ZM290.936 53.128C292.072 53.128 292.936 52.712 293.48 51.864L293.464 53H295.864V45.064H293.368V50.584C293.112 51.112 292.68 51.512 292.088 51.512C291.432 51.512 291.112 51.224 291.112 50.472V45.064H288.616V50.6C288.616 52.36 289.576 53.128 290.936 53.128ZM302.253 53.112C304.141 53.112 305.453 51.736 305.453 49.016C305.453 46.312 304.461 44.92 302.637 44.92C301.405 44.92 300.669 45.592 300.221 46.28V42.328H297.773V53H299.277L299.629 51.832C300.237 52.632 300.957 53.112 302.253 53.112ZM301.565 51.592C300.733 51.592 300.237 51.032 300.237 49.88V47.656C300.493 47.096 300.893 46.616 301.613 46.616C302.541 46.616 302.893 47.416 302.893 49.096C302.893 50.888 302.541 51.592 301.565 51.592ZM310.033 53.128C312.337 53.128 313.713 52.056 313.713 50.504C313.713 48.84 312.593 48.264 310.369 47.992C309.153 47.816 308.609 47.72 308.609 47.192C308.609 46.68 309.105 46.456 309.905 46.456C310.737 46.456 311.281 46.744 311.473 47.352L313.409 46.968C313.041 45.672 311.745 44.92 309.889 44.92C307.793 44.92 306.449 45.928 306.449 47.496C306.449 49.16 307.601 49.608 309.985 49.896C310.945 50.024 311.585 50.136 311.585 50.728C311.585 51.272 310.961 51.544 310.081 51.544C308.897 51.544 308.257 51.176 308.081 50.456L306.081 50.824C306.481 52.376 307.841 53.128 310.033 53.128ZM319.337 53H324.361C326.953 53 327.961 51.784 327.961 50.008C327.961 48.584 327.017 47.624 325.721 47.432C327.033 47.112 327.641 46.2 327.641 44.936C327.641 43.464 326.585 42.328 324.457 42.328H319.337V53ZM321.897 44.264H323.673C324.601 44.264 325.033 44.68 325.033 45.416C325.033 46.216 324.569 46.584 323.641 46.584H321.897V44.264ZM321.897 48.456H323.721C324.809 48.456 325.289 48.984 325.289 49.752C325.289 50.52 324.889 51.048 323.849 51.048H321.897V48.456ZM331.894 53V42.328H329.398V53H331.894ZM336.123 53.128C337.259 53.128 338.123 52.712 338.667 51.864L338.651 53H341.051V45.064H338.555V50.584C338.299 51.112 337.867 51.512 337.275 51.512C336.619 51.512 336.299 51.224 336.299 50.472V45.064H333.803V50.6C333.803 52.36 334.763 53.128 336.123 53.128ZM346.592 53.128C348.64 53.128 349.952 52.136 350.48 50.632L348.416 50.36C348.128 51.144 347.616 51.544 346.816 51.544C345.84 51.544 345.104 50.92 345.072 49.496H350.56C350.576 49.32 350.576 49.192 350.576 49.016C350.512 46.552 349.056 44.92 346.576 44.92C344.368 44.92 342.48 46.584 342.48 49.144C342.48 51.56 344.208 53.128 346.592 53.128ZM345.104 48.2C345.168 47.112 345.808 46.472 346.608 46.472C347.536 46.472 348 47.128 348.08 48.2H345.104ZM358.035 53H360.563V44.344H363.139V53H365.651V47.592C365.955 47.128 366.403 46.664 367.059 46.664C367.635 46.664 367.923 46.984 367.923 47.576V53H370.419V47.304C370.419 45.944 369.747 44.92 368.179 44.92C366.931 44.92 366.179 45.544 365.635 46.2V42.328H355.267V44.344H358.035V53ZM375.936 53.128C377.984 53.128 379.296 52.136 379.824 50.632L377.76 50.36C377.472 51.144 376.96 51.544 376.16 51.544C375.184 51.544 374.448 50.92 374.416 49.496H379.904C379.92 49.32 379.92 49.192 379.92 49.016C379.856 46.552 378.4 44.92 375.92 44.92C373.712 44.92 371.824 46.584 371.824 49.144C371.824 51.56 373.552 53.128 375.936 53.128ZM374.448 48.2C374.512 47.112 375.152 46.472 375.952 46.472C376.88 46.472 377.344 47.128 377.424 48.2H374.448ZM383.799 53V47.592C384.135 47.048 384.487 46.648 385.095 46.648C385.655 46.648 385.863 47.032 385.863 47.768V53H388.359V47.592C388.615 47.16 389.015 46.648 389.639 46.648C390.215 46.648 390.423 47.016 390.423 47.768V53H392.903V47.4C392.903 46.92 392.855 46.472 392.711 46.12C392.423 45.336 391.783 44.92 390.711 44.92C389.415 44.92 388.695 45.752 388.215 46.44C387.943 45.4 387.223 44.92 386.151 44.92C384.887 44.92 384.151 45.72 383.703 46.392V45.064H381.319V53H383.799ZM398.42 53.128C400.468 53.128 401.78 52.136 402.308 50.632L400.244 50.36C399.956 51.144 399.444 51.544 398.644 51.544C397.668 51.544 396.932 50.92 396.9 49.496H402.388C402.404 49.32 402.404 49.192 402.404 49.016C402.34 46.552 400.884 44.92 398.404 44.92C396.196 44.92 394.308 46.584 394.308 49.144C394.308 51.56 396.036 53.128 398.42 53.128ZM396.932 48.2C396.996 47.112 397.636 46.472 398.436 46.472C399.364 46.472 399.828 47.128 399.908 48.2H396.932Z" fill="white"/>
<path d="M0 120C0 108.954 8.95431 100 20 100H147C158.046 100 167 108.954 167 120V122C167 133.046 158.046 142 147 142H20C8.9543 142 0 133.046 0 122V120Z" fill="#111111"/>
<path d="M29.7439 127.16C32.5439 127.16 34.5439 124.888 34.5439 121.624C34.5439 118.184 32.6239 116.12 29.6799 116.12C26.7999 116.12 24.8639 118.296 24.8639 121.64C24.8639 124.952 26.7999 127.16 29.7439 127.16ZM29.7279 125.16C28.4319 125.16 27.6799 124.088 27.6799 121.672C27.6799 119.416 28.2719 118.12 29.7119 118.12C31.1999 118.12 31.7279 119.4 31.7279 121.64C31.7279 123.976 31.0559 125.16 29.7279 125.16ZM44.0601 120.76H45.9481V119.064H44.0601C44.0601 118.936 44.0601 118.728 44.0601 118.504C44.0601 117.832 44.3161 117.544 45.1321 117.544C45.4201 117.544 45.8041 117.544 46.1241 117.592V115.96C45.5161 115.848 45.0361 115.816 44.3961 115.816C42.2681 115.816 41.5161 116.68 41.5001 118.248C41.5001 118.392 41.5001 119.032 41.5001 119.064H39.0201C39.0201 118.936 39.0201 118.728 39.0201 118.504C39.0201 117.832 39.2921 117.544 40.0921 117.544C40.3961 117.544 40.7801 117.544 41.1001 117.592V115.96C40.4921 115.848 39.9961 115.816 39.3721 115.816C37.2281 115.816 36.4921 116.68 36.4761 118.248C36.4761 118.392 36.4761 119.032 36.4761 119.064H35.2121V120.76H36.4761V127H39.0361V120.76H41.5001V127H44.0601V120.76ZM50.9857 127H56.0097C58.6017 127 59.6097 125.784 59.6097 124.008C59.6097 122.584 58.6657 121.624 57.3697 121.432C58.6817 121.112 59.2897 120.2 59.2897 118.936C59.2897 117.464 58.2337 116.328 56.1057 116.328H50.9857V127ZM53.5457 118.264H55.3217C56.2497 118.264 56.6817 118.68 56.6817 119.416C56.6817 120.216 56.2177 120.584 55.2897 120.584H53.5457V118.264ZM53.5457 122.456H55.3697C56.4577 122.456 56.9377 122.984 56.9377 123.752C56.9377 124.52 56.5377 125.048 55.4977 125.048H53.5457V122.456ZM63.5419 127V116.328H61.0459V127H63.5419ZM67.3874 127.096C68.7954 127.096 69.6274 126.68 70.3154 125.976C70.3154 126.424 70.3474 126.84 70.4434 127H72.8114C72.6674 126.696 72.6354 125.912 72.6354 125.448V121.784C72.6354 120.072 71.8674 118.92 69.1954 118.92C66.8594 118.92 65.5314 119.736 65.1474 121.32L67.4194 121.528C67.5794 120.856 68.0274 120.536 68.9554 120.536C69.8194 120.536 70.1874 120.92 70.2354 121.544C70.2354 121.608 70.2514 121.848 70.2514 121.928C69.9154 121.944 69.5954 121.976 69.2914 122.008C66.5234 122.28 64.9394 123.16 64.9394 124.92C64.9394 126.264 65.9154 127.096 67.3874 127.096ZM68.5074 125.56C67.8834 125.56 67.4994 125.288 67.4994 124.696C67.4994 123.944 68.1874 123.48 69.4034 123.272C69.6594 123.224 69.9474 123.192 70.2514 123.176V124.568C69.9154 125.08 69.3234 125.56 68.5074 125.56ZM77.9383 127.144C80.0023 127.144 81.2663 126.136 81.5063 124.328L79.3623 124.136C79.2183 125.032 78.8663 125.56 78.0823 125.56C77.2183 125.56 76.6903 124.792 76.6903 123.032C76.6903 121.416 77.1543 120.568 78.0503 120.568C78.8343 120.568 79.1703 121.192 79.2823 122.104L81.4903 121.896C81.1703 119.944 79.8903 118.92 77.9703 118.92C75.5703 118.92 74.0503 120.76 74.0503 123.016C74.0503 125.624 75.6503 127.144 77.9383 127.144ZM85.2756 127V124.744L86.3956 123.512L88.0756 127H90.7156L88.0596 121.768L90.4436 119.064H88.1716L85.6916 121.912L85.2436 122.472L85.2756 121.752V116.328H82.8116V127H85.2756ZM97.8551 127H100.383V118.344H102.959V127H105.471V121.592C105.775 121.128 106.223 120.664 106.879 120.664C107.455 120.664 107.743 120.984 107.743 121.576V127H110.239V121.304C110.239 119.944 109.567 118.92 107.999 118.92C106.751 118.92 105.999 119.544 105.455 120.2V116.328H95.0871V118.344H97.8551V127ZM115.756 127.128C117.804 127.128 119.116 126.136 119.644 124.632L117.58 124.36C117.292 125.144 116.78 125.544 115.98 125.544C115.004 125.544 114.268 124.92 114.236 123.496H119.724C119.74 123.32 119.74 123.192 119.74 123.016C119.676 120.552 118.22 118.92 115.74 118.92C113.532 118.92 111.644 120.584 111.644 123.144C111.644 125.56 113.372 127.128 115.756 127.128ZM114.268 122.2C114.332 121.112 114.972 120.472 115.772 120.472C116.7 120.472 117.164 121.128 117.244 122.2H114.268ZM123.62 127V121.592C123.956 121.048 124.308 120.648 124.916 120.648C125.476 120.648 125.684 121.032 125.684 121.768V127H128.18V121.592C128.436 121.16 128.836 120.648 129.46 120.648C130.036 120.648 130.244 121.016 130.244 121.768V127H132.724V121.4C132.724 120.92 132.676 120.472 132.532 120.12C132.244 119.336 131.604 118.92 130.532 118.92C129.236 118.92 128.516 119.752 128.036 120.44C127.764 119.4 127.044 118.92 125.972 118.92C124.708 118.92 123.972 119.72 123.524 120.392V119.064H121.14V127H123.62ZM138.24 127.128C140.288 127.128 141.6 126.136 142.128 124.632L140.064 124.36C139.776 125.144 139.264 125.544 138.464 125.544C137.488 125.544 136.752 124.92 136.72 123.496H142.208C142.224 123.32 142.224 123.192 142.224 123.016C142.16 120.552 140.704 118.92 138.224 118.92C136.016 118.92 134.128 120.584 134.128 123.144C134.128 125.56 135.856 127.128 138.24 127.128ZM136.752 122.2C136.816 121.112 137.456 120.472 138.256 120.472C139.184 120.472 139.648 121.128 139.728 122.2H136.752Z" fill="white"/>
<path d="M254 120C254 108.954 262.954 100 274 100H401C412.046 100 421 108.954 421 120V122C421 133.046 412.046 142 401 142H274C262.954 142 254 133.046 254 122V120Z" fill="#2A2A2A"/>
<path d="M283.744 127.16C286.544 127.16 288.544 124.888 288.544 121.624C288.544 118.184 286.624 116.12 283.68 116.12C280.8 116.12 278.864 118.296 278.864 121.64C278.864 124.952 280.8 127.16 283.744 127.16ZM283.728 125.16C282.432 125.16 281.68 124.088 281.68 121.672C281.68 119.416 282.272 118.12 283.712 118.12C285.2 118.12 285.728 119.4 285.728 121.64C285.728 123.976 285.056 125.16 283.728 125.16ZM298.06 120.76H299.948V119.064H298.06C298.06 118.936 298.06 118.728 298.06 118.504C298.06 117.832 298.316 117.544 299.132 117.544C299.42 117.544 299.804 117.544 300.124 117.592V115.96C299.516 115.848 299.036 115.816 298.396 115.816C296.268 115.816 295.516 116.68 295.5 118.248C295.5 118.392 295.5 119.032 295.5 119.064H293.02C293.02 118.936 293.02 118.728 293.02 118.504C293.02 117.832 293.292 117.544 294.092 117.544C294.396 117.544 294.78 117.544 295.1 117.592V115.96C294.492 115.848 293.996 115.816 293.372 115.816C291.228 115.816 290.492 116.68 290.476 118.248C290.476 118.392 290.476 119.032 290.476 119.064H289.212V120.76H290.476V127H293.036V120.76H295.5V127H298.06V120.76ZM304.986 127H310.01C312.602 127 313.61 125.784 313.61 124.008C313.61 122.584 312.666 121.624 311.37 121.432C312.682 121.112 313.29 120.2 313.29 118.936C313.29 117.464 312.234 116.328 310.106 116.328H304.986V127ZM307.546 118.264H309.322C310.25 118.264 310.682 118.68 310.682 119.416C310.682 120.216 310.218 120.584 309.29 120.584H307.546V118.264ZM307.546 122.456H309.37C310.458 122.456 310.938 122.984 310.938 123.752C310.938 124.52 310.538 125.048 309.498 125.048H307.546V122.456ZM317.542 127V116.328H315.046V127H317.542ZM321.387 127.096C322.795 127.096 323.627 126.68 324.315 125.976C324.315 126.424 324.347 126.84 324.443 127H326.811C326.667 126.696 326.635 125.912 326.635 125.448V121.784C326.635 120.072 325.867 118.92 323.195 118.92C320.859 118.92 319.531 119.736 319.147 121.32L321.419 121.528C321.579 120.856 322.027 120.536 322.955 120.536C323.819 120.536 324.187 120.92 324.235 121.544C324.235 121.608 324.251 121.848 324.251 121.928C323.915 121.944 323.595 121.976 323.291 122.008C320.523 122.28 318.939 123.16 318.939 124.92C318.939 126.264 319.915 127.096 321.387 127.096ZM322.507 125.56C321.883 125.56 321.499 125.288 321.499 124.696C321.499 123.944 322.187 123.48 323.403 123.272C323.659 123.224 323.947 123.192 324.251 123.176V124.568C323.915 125.08 323.323 125.56 322.507 125.56ZM331.938 127.144C334.002 127.144 335.266 126.136 335.506 124.328L333.362 124.136C333.218 125.032 332.866 125.56 332.082 125.56C331.218 125.56 330.69 124.792 330.69 123.032C330.69 121.416 331.154 120.568 332.05 120.568C332.834 120.568 333.17 121.192 333.282 122.104L335.49 121.896C335.17 119.944 333.89 118.92 331.97 118.92C329.57 118.92 328.05 120.76 328.05 123.016C328.05 125.624 329.65 127.144 331.938 127.144ZM339.276 127V124.744L340.396 123.512L342.076 127H344.716L342.06 121.768L344.444 119.064H342.172L339.692 121.912L339.244 122.472L339.276 121.752V116.328H336.812V127H339.276ZM351.855 127H354.383V118.344H356.959V127H359.471V121.592C359.775 121.128 360.223 120.664 360.879 120.664C361.455 120.664 361.743 120.984 361.743 121.576V127H364.239V121.304C364.239 119.944 363.567 118.92 361.999 118.92C360.751 118.92 359.999 119.544 359.455 120.2V116.328H349.087V118.344H351.855V127ZM369.756 127.128C371.804 127.128 373.116 126.136 373.644 124.632L371.58 124.36C371.292 125.144 370.78 125.544 369.98 125.544C369.004 125.544 368.268 124.92 368.236 123.496H373.724C373.74 123.32 373.74 123.192 373.74 123.016C373.676 120.552 372.22 118.92 369.74 118.92C367.532 118.92 365.644 120.584 365.644 123.144C365.644 125.56 367.372 127.128 369.756 127.128ZM368.268 122.2C368.332 121.112 368.972 120.472 369.772 120.472C370.7 120.472 371.164 121.128 371.244 122.2H368.268ZM377.62 127V121.592C377.956 121.048 378.308 120.648 378.916 120.648C379.476 120.648 379.684 121.032 379.684 121.768V127H382.18V121.592C382.436 121.16 382.836 120.648 383.46 120.648C384.036 120.648 384.244 121.016 384.244 121.768V127H386.724V121.4C386.724 120.92 386.676 120.472 386.532 120.12C386.244 119.336 385.604 118.92 384.532 118.92C383.236 118.92 382.516 119.752 382.036 120.44C381.764 119.4 381.044 118.92 379.972 118.92C378.708 118.92 377.972 119.72 377.524 120.392V119.064H375.14V127H377.62ZM392.24 127.128C394.288 127.128 395.6 126.136 396.128 124.632L394.064 124.36C393.776 125.144 393.264 125.544 392.464 125.544C391.488 125.544 390.752 124.92 390.72 123.496H396.208C396.224 123.32 396.224 123.192 396.224 123.016C396.16 120.552 394.704 118.92 392.224 118.92C390.016 118.92 388.128 120.584 388.128 123.144C388.128 125.56 389.856 127.128 392.24 127.128ZM390.752 122.2C390.816 121.112 391.456 120.472 392.256 120.472C393.184 120.472 393.648 121.128 393.728 122.2H390.752Z" fill="white"/>
<path d="M0 194C0 182.954 8.95431 174 20 174H123C134.046 174 143 182.954 143 194V196C143 207.046 134.046 216 123 216H20C8.95431 216 0 207.046 0 196V194Z" fill="white"/>
<path d="M29.7655 201L31.2855 195.032L31.4455 194.36L31.6215 195.032L33.2055 201H35.4775L38.2295 190.328H36.1495L34.6775 196.584L34.4855 197.272L34.3255 196.584L32.6455 190.328H30.5655L29.0295 196.568L28.8375 197.272L28.6615 196.536L27.1255 190.328H24.6135L27.4135 201H29.7655ZM41.8154 201V195.624C42.1354 195.176 42.5834 194.664 43.2394 194.664C43.7834 194.664 44.0874 194.984 44.0874 195.592V201H46.5994V195.304C46.5994 193.992 45.8954 192.92 44.3594 192.92C43.1114 192.92 42.3914 193.48 41.7994 194.184V190.328H39.3194V201H41.8154ZM50.9876 192.216V190.12H48.4596V192.216H50.9876ZM50.9716 201V193.064H48.4756V201H50.9716ZM56.0811 201.112C56.5771 201.112 57.1371 201.064 57.5211 201.016V199.24C57.1851 199.272 56.8811 199.272 56.5771 199.24C55.9851 199.16 55.7291 198.808 55.7291 198.184V194.744H57.3611V193.064H55.7291V190.632H53.4891L53.3291 193.064H52.0491V194.744H53.3131V198.584C53.3131 200.264 54.2731 201.112 56.0811 201.112ZM62.3108 201.128C64.3588 201.128 65.6708 200.136 66.1988 198.632L64.1348 198.36C63.8468 199.144 63.3348 199.544 62.5348 199.544C61.5588 199.544 60.8228 198.92 60.7908 197.496H66.2788C66.2948 197.32 66.2948 197.192 66.2948 197.016C66.2308 194.552 64.7748 192.92 62.2948 192.92C60.0868 192.92 58.1988 194.584 58.1988 197.144C58.1988 199.56 59.9268 201.128 62.3108 201.128ZM60.8228 196.2C60.8868 195.112 61.5268 194.472 62.3268 194.472C63.2548 194.472 63.7188 195.128 63.7988 196.2H60.8228ZM73.7535 201H76.2815V192.344H78.8575V201H81.3695V195.592C81.6735 195.128 82.1215 194.664 82.7775 194.664C83.3535 194.664 83.6415 194.984 83.6415 195.576V201H86.1375V195.304C86.1375 193.944 85.4655 192.92 83.8975 192.92C82.6495 192.92 81.8975 193.544 81.3535 194.2V190.328H70.9855V192.344H73.7535V201ZM91.6545 201.128C93.7025 201.128 95.0145 200.136 95.5425 198.632L93.4785 198.36C93.1905 199.144 92.6785 199.544 91.8785 199.544C90.9025 199.544 90.1665 198.92 90.1345 197.496H95.6225C95.6385 197.32 95.6385 197.192 95.6385 197.016C95.5745 194.552 94.1185 192.92 91.6385 192.92C89.4305 192.92 87.5425 194.584 87.5425 197.144C87.5425 199.56 89.2705 201.128 91.6545 201.128ZM90.1665 196.2C90.2305 195.112 90.8705 194.472 91.6705 194.472C92.5985 194.472 93.0625 195.128 93.1425 196.2H90.1665ZM99.5181 201V195.592C99.8541 195.048 100.206 194.648 100.814 194.648C101.374 194.648 101.582 195.032 101.582 195.768V201H104.078V195.592C104.334 195.16 104.734 194.648 105.358 194.648C105.934 194.648 106.142 195.016 106.142 195.768V201H108.622V195.4C108.622 194.92 108.574 194.472 108.43 194.12C108.142 193.336 107.502 192.92 106.43 192.92C105.134 192.92 104.414 193.752 103.934 194.44C103.662 193.4 102.942 192.92 101.87 192.92C100.606 192.92 99.8701 193.72 99.4221 194.392V193.064H97.0381V201H99.5181ZM114.139 201.128C116.187 201.128 117.499 200.136 118.027 198.632L115.963 198.36C115.675 199.144 115.163 199.544 114.363 199.544C113.387 199.544 112.651 198.92 112.619 197.496H118.107C118.123 197.32 118.123 197.192 118.123 197.016C118.059 194.552 116.603 192.92 114.123 192.92C111.915 192.92 110.027 194.584 110.027 197.144C110.027 199.56 111.755 201.128 114.139 201.128ZM112.651 196.2C112.715 195.112 113.355 194.472 114.155 194.472C115.083 194.472 115.547 195.128 115.627 196.2H112.651Z" fill="#111111"/>
<path d="M20 175H123V173H20V175ZM142 194V196H144V194H142ZM123 215H20V217H123V215ZM1 196V194H-1V196H1ZM20 215C9.50659 215 1 206.493 1 196H-1C-1 207.598 8.40202 217 20 217V215ZM142 196C142 206.493 133.493 215 123 215V217C134.598 217 144 207.598 144 196H142ZM123 175C133.493 175 142 183.507 142 194H144C144 182.402 134.598 173 123 173V175ZM20 173C8.40202 173 -1 182.402 -1 194H1C1 183.507 9.50659 175 20 175V173Z" fill="#D5D5D5"/>
<path d="M254 194C254 182.954 262.954 174 274 174H377C388.046 174 397 182.954 397 194V196C397 207.046 388.046 216 377 216H274C262.954 216 254 207.046 254 196V194Z" fill="#F0F0F0"/>
<path d="M283.766 201L285.286 195.032L285.446 194.36L285.622 195.032L287.206 201H289.478L292.23 190.328H290.15L288.678 196.584L288.486 197.272L288.326 196.584L286.646 190.328H284.566L283.03 196.568L282.838 197.272L282.661 196.536L281.126 190.328H278.614L281.414 201H283.766ZM295.815 201V195.624C296.135 195.176 296.583 194.664 297.239 194.664C297.783 194.664 298.087 194.984 298.087 195.592V201H300.599V195.304C300.599 193.992 299.895 192.92 298.359 192.92C297.111 192.92 296.391 193.48 295.799 194.184V190.328H293.319V201H295.815ZM304.988 192.216V190.12H302.46V192.216H304.988ZM304.972 201V193.064H302.476V201H304.972ZM310.081 201.112C310.577 201.112 311.137 201.064 311.521 201.016V199.24C311.185 199.272 310.881 199.272 310.577 199.24C309.985 199.16 309.729 198.808 309.729 198.184V194.744H311.361V193.064H309.729V190.632H307.489L307.329 193.064H306.049V194.744H307.313V198.584C307.313 200.264 308.273 201.112 310.081 201.112ZM316.311 201.128C318.359 201.128 319.671 200.136 320.199 198.632L318.135 198.36C317.847 199.144 317.335 199.544 316.535 199.544C315.559 199.544 314.823 198.92 314.791 197.496H320.279C320.295 197.32 320.295 197.192 320.295 197.016C320.231 194.552 318.775 192.92 316.295 192.92C314.087 192.92 312.199 194.584 312.199 197.144C312.199 199.56 313.927 201.128 316.311 201.128ZM314.823 196.2C314.887 195.112 315.527 194.472 316.327 194.472C317.255 194.472 317.719 195.128 317.799 196.2H314.823ZM327.754 201H330.282V192.344H332.858V201H335.37V195.592C335.674 195.128 336.122 194.664 336.778 194.664C337.354 194.664 337.642 194.984 337.642 195.576V201H340.138V195.304C340.138 193.944 339.466 192.92 337.898 192.92C336.65 192.92 335.898 193.544 335.354 194.2V190.328H324.986V192.344H327.754V201ZM345.655 201.128C347.703 201.128 349.015 200.136 349.543 198.632L347.479 198.36C347.191 199.144 346.679 199.544 345.879 199.544C344.903 199.544 344.167 198.92 344.135 197.496H349.623C349.639 197.32 349.639 197.192 349.639 197.016C349.575 194.552 348.119 192.92 345.639 192.92C343.431 192.92 341.543 194.584 341.543 197.144C341.543 199.56 343.271 201.128 345.655 201.128ZM344.167 196.2C344.231 195.112 344.871 194.472 345.671 194.472C346.599 194.472 347.063 195.128 347.143 196.2H344.167ZM353.518 201V195.592C353.854 195.048 354.206 194.648 354.814 194.648C355.374 194.648 355.582 195.032 355.582 195.768V201H358.078V195.592C358.334 195.16 358.734 194.648 359.358 194.648C359.934 194.648 360.142 195.016 360.142 195.768V201H362.622V195.4C362.622 194.92 362.574 194.472 362.43 194.12C362.142 193.336 361.502 192.92 360.43 192.92C359.134 192.92 358.414 193.752 357.934 194.44C357.662 193.4 356.942 192.92 355.87 192.92C354.606 192.92 353.87 193.72 353.422 194.392V193.064H351.038V201H353.518ZM368.139 201.128C370.187 201.128 371.499 200.136 372.027 198.632L369.963 198.36C369.675 199.144 369.163 199.544 368.363 199.544C367.387 199.544 366.651 198.92 366.619 197.496H372.107C372.123 197.32 372.123 197.192 372.123 197.016C372.059 194.552 370.603 192.92 368.123 192.92C365.915 192.92 364.027 194.584 364.027 197.144C364.027 199.56 365.755 201.128 368.139 201.128ZM366.651 196.2C366.715 195.112 367.355 194.472 368.155 194.472C369.083 194.472 369.547 195.128 369.627 196.2H366.651Z" fill="#111111"/>
<path d="M274 175H377V173H274V175ZM396 194V196H398V194H396ZM377 215H274V217H377V215ZM255 196V194H253V196H255ZM274 215C263.507 215 255 206.493 255 196H253C253 207.598 262.402 217 274 217V215ZM396 196C396 206.493 387.493 215 377 215V217C388.598 217 398 207.598 398 196H396ZM377 175C387.493 175 396 183.507 396 194H398C398 182.402 388.598 173 377 173V175ZM274 173C262.402 173 253 182.402 253 194H255C255 183.507 263.507 175 274 175V173Z" fill="#D5D5D5"/>
</svg>
