<svg width="405" height="112" viewBox="0 0 405 112" fill="none" xmlns="http://www.w3.org/2000/svg">
<path d="M285 24C285 12.9543 293.954 4 305 4H385C396.046 4 405 12.9543 405 24V26C405 37.0457 396.046 46 385 46H305C293.954 46 285 37.0457 285 26V24Z" fill="#111111"/>
<path d="M322.802 31.16C325.666 31.16 327.058 29.8 327.058 27.912C327.058 25.688 325.394 25.032 323.618 24.616C322.146 24.264 321.106 24.088 321.106 23.144C321.106 22.52 321.698 22.152 322.578 22.152C323.554 22.152 324.258 22.552 324.562 23.432L326.786 22.76C326.178 21.128 324.866 20.136 322.61 20.136C320.034 20.136 318.482 21.416 318.482 23.224C318.482 25.576 320.37 26.136 322.018 26.536C323.314 26.856 324.482 27.08 324.482 28.056C324.482 28.76 323.81 29.192 322.754 29.192C321.298 29.192 320.61 28.568 320.178 27.528L318.098 28.328C318.722 29.944 319.97 31.16 322.802 31.16ZM330.863 22.216V20.12H328.335V22.216H330.863ZM330.847 31V23.064H328.351V31H330.847ZM336.196 33.816C339.268 33.816 340.532 32.856 340.532 31.24C340.532 29.736 339.652 29.064 336.9 28.968C335.3 28.92 334.628 28.92 334.628 28.456C334.628 28.104 334.948 27.928 335.204 27.944C335.332 27.96 335.844 28.024 336.132 28.024C338.436 28.024 339.652 27.112 339.652 25.512C339.652 24.776 339.332 24.168 338.964 23.896C339.108 23.608 339.38 23.48 339.748 23.48C339.988 23.48 340.228 23.528 340.404 23.64V21.88C340.356 21.864 340.148 21.832 340.036 21.832C338.98 21.832 338.132 22.152 337.924 23.272C337.428 23.016 336.484 22.904 336.02 22.904C334.116 22.904 332.58 23.832 332.58 25.48C332.58 26.424 332.948 27.192 334.068 27.576C332.916 27.816 332.388 28.408 332.388 29.096C332.388 29.704 332.772 30.216 333.748 30.456C332.74 30.664 331.972 31.096 331.972 32.04C331.972 33.368 333.62 33.816 336.196 33.816ZM336.148 26.744C335.412 26.744 334.932 26.312 334.932 25.48C334.932 24.76 335.396 24.28 336.148 24.28C336.916 24.28 337.364 24.776 337.364 25.48C337.364 26.28 336.948 26.744 336.148 26.744ZM335.908 32.44C334.644 32.44 333.908 32.216 333.908 31.624C333.908 31.16 334.228 30.888 334.676 30.776C337.732 30.904 338.356 30.968 338.356 31.592C338.356 32.216 337.476 32.44 335.908 32.44ZM343.94 31V25.56C344.26 25.08 344.692 24.632 345.348 24.632C345.956 24.632 346.212 25 346.212 25.496V31H348.692V25.416C348.692 23.896 348.036 22.92 346.404 22.92C345.06 22.92 344.308 23.72 343.844 24.376V23.064H341.46V31H343.94ZM357.061 31.128C358.197 31.128 359.061 30.712 359.605 29.864L359.589 31H361.989V23.064H359.493V28.584C359.237 29.112 358.805 29.512 358.213 29.512C357.557 29.512 357.237 29.224 357.237 28.472V23.064H354.741V28.6C354.741 30.36 355.701 31.128 357.061 31.128ZM368.538 31.112C370.266 31.112 371.562 29.656 371.562 27.016C371.562 24.168 370.458 22.92 368.746 22.92C367.402 22.92 366.746 23.688 366.25 24.392V23.064H363.898V33.56H366.378V30.2C366.922 30.68 367.498 31.112 368.538 31.112ZM367.706 29.608C367.002 29.608 366.65 29.144 366.362 28.808V25.656C366.666 25.032 367.098 24.648 367.722 24.648C368.602 24.648 368.986 25.24 368.986 27.128C368.986 29.096 368.538 29.608 367.706 29.608Z" fill="white"/>
<rect x="0.5" y="0.5" width="278" height="47" rx="1.5" fill="white"/>
<path d="M15.6 30V28.848H10.656V19.328H9.328V30H15.6ZM18.9161 30.096C20.3881 30.096 21.3161 29.536 21.9401 28.672C21.9241 29.072 21.9881 29.728 22.0841 30H23.2681C23.1401 29.504 23.0921 28.96 23.0921 28.464V24.88C23.0921 22.896 22.2281 21.968 19.9881 21.968C18.1161 21.968 16.8841 22.736 16.5961 24.176L17.7481 24.304C18.0041 23.296 18.6761 22.944 19.9561 22.944C21.2841 22.944 21.7961 23.408 21.8921 24.272C21.9241 24.464 21.9241 24.736 21.9241 25.008C21.3001 25.024 20.7721 25.024 20.1321 25.104C17.9721 25.36 16.4041 26.208 16.4041 27.92C16.4041 29.36 17.5241 30.096 18.9161 30.096ZM19.2841 29.184C18.2281 29.184 17.7001 28.704 17.7001 27.792C17.7001 26.8 18.5801 26.112 20.2921 25.888C20.7881 25.824 21.3641 25.824 21.9241 25.824V27.456C21.5881 28.272 20.7881 29.184 19.2841 29.184ZM29.0976 30.112C30.8896 30.112 32.1856 28.752 32.1856 26.032C32.1856 23.392 31.0816 21.968 29.1936 21.968C28.0576 21.968 27.0496 22.752 26.6496 23.616V19.328H25.4656V30H26.1536L26.5536 28.688C27.0656 29.584 27.9136 30.112 29.0976 30.112ZM28.8576 29.216C27.5936 29.216 26.6656 28.272 26.6656 26.624V24.72C27.0976 23.808 27.7536 22.96 28.9056 22.96C30.2336 22.96 30.9056 24 30.9056 26.064C30.9056 28.272 30.2016 29.216 28.8576 29.216ZM37.0209 30.128C38.5889 30.128 39.8049 29.312 40.3489 27.792L39.2609 27.632C38.8129 28.8 37.9969 29.184 37.1329 29.184C35.5969 29.184 34.7009 28.176 34.6689 26.192H40.4929C40.4769 26.016 40.4929 25.84 40.4769 25.664C40.3169 23.472 39.1169 21.968 37.0529 21.968C35.0209 21.968 33.4049 23.52 33.4049 26.192C33.4049 28.544 34.8609 30.128 37.0209 30.128ZM34.7169 25.344C34.8129 23.856 35.7889 22.912 37.0529 22.912C38.3169 22.912 39.1009 23.824 39.2289 25.344H34.7169ZM43.4956 30V19.328H42.2476V30H43.4956ZM52.9503 30V20.464H56.0063V19.328H48.5663V20.464H51.6223V30H52.9503ZM58.9584 30.128C60.5264 30.128 61.7424 29.312 62.2864 27.792L61.1984 27.632C60.7504 28.8 59.9344 29.184 59.0704 29.184C57.5344 29.184 56.6384 28.176 56.6064 26.192H62.4304C62.4144 26.016 62.4304 25.84 62.4144 25.664C62.2544 23.472 61.0544 21.968 58.9904 21.968C56.9584 21.968 55.3424 23.52 55.3424 26.192C55.3424 28.544 56.7984 30.128 58.9584 30.128ZM56.6544 25.344C56.7504 23.856 57.7264 22.912 58.9904 22.912C60.2544 22.912 61.0384 23.824 61.1664 25.344H56.6544ZM64.2209 30L66.2209 27.056L66.3809 26.768L66.5569 27.056L68.6209 30H69.9969L67.0689 25.744L69.5169 22.112H68.3169L66.6689 24.528L66.4609 24.848L66.2529 24.528L64.6049 22.112H63.1969L65.7729 25.872L63.0049 30H64.2209ZM73.3924 30.112C73.8244 30.112 74.3044 30.064 74.7364 29.984V29.008C74.4484 29.056 73.9844 29.104 73.6164 29.104C72.9444 29.088 72.5124 28.72 72.5124 27.888V23.104H74.2884V22.112H72.5124V20.048H71.3764L71.3124 22.112H70.0164V23.104H71.2964V27.824C71.2964 29.456 72.0644 30.112 73.3924 30.112Z" fill="#666666"/>
<rect x="0.5" y="0.5" width="278" height="47" rx="1.5" stroke="#E9E9E9"/>
<path d="M285 96C285 87.1634 292.163 80 301 80H389C397.837 80 405 87.1634 405 96V96C405 104.837 397.837 112 389 112H301C292.163 112 285 104.837 285 96V96Z" fill="#111111"/>
<path d="M322.802 102.16C325.666 102.16 327.058 100.8 327.058 98.912C327.058 96.688 325.394 96.032 323.618 95.616C322.146 95.264 321.106 95.088 321.106 94.144C321.106 93.52 321.698 93.152 322.578 93.152C323.554 93.152 324.258 93.552 324.562 94.432L326.786 93.76C326.178 92.128 324.866 91.136 322.61 91.136C320.034 91.136 318.482 92.416 318.482 94.224C318.482 96.576 320.37 97.136 322.018 97.536C323.314 97.856 324.482 98.08 324.482 99.056C324.482 99.76 323.81 100.192 322.754 100.192C321.298 100.192 320.61 99.568 320.178 98.528L318.098 99.328C318.722 100.944 319.97 102.16 322.802 102.16ZM330.863 93.216V91.12H328.335V93.216H330.863ZM330.847 102V94.064H328.351V102H330.847ZM336.196 104.816C339.268 104.816 340.532 103.856 340.532 102.24C340.532 100.736 339.652 100.064 336.9 99.968C335.3 99.92 334.628 99.92 334.628 99.456C334.628 99.104 334.948 98.928 335.204 98.944C335.332 98.96 335.844 99.024 336.132 99.024C338.436 99.024 339.652 98.112 339.652 96.512C339.652 95.776 339.332 95.168 338.964 94.896C339.108 94.608 339.38 94.48 339.748 94.48C339.988 94.48 340.228 94.528 340.404 94.64V92.88C340.356 92.864 340.148 92.832 340.036 92.832C338.98 92.832 338.132 93.152 337.924 94.272C337.428 94.016 336.484 93.904 336.02 93.904C334.116 93.904 332.58 94.832 332.58 96.48C332.58 97.424 332.948 98.192 334.068 98.576C332.916 98.816 332.388 99.408 332.388 100.096C332.388 100.704 332.772 101.216 333.748 101.456C332.74 101.664 331.972 102.096 331.972 103.04C331.972 104.368 333.62 104.816 336.196 104.816ZM336.148 97.744C335.412 97.744 334.932 97.312 334.932 96.48C334.932 95.76 335.396 95.28 336.148 95.28C336.916 95.28 337.364 95.776 337.364 96.48C337.364 97.28 336.948 97.744 336.148 97.744ZM335.908 103.44C334.644 103.44 333.908 103.216 333.908 102.624C333.908 102.16 334.228 101.888 334.676 101.776C337.732 101.904 338.356 101.968 338.356 102.592C338.356 103.216 337.476 103.44 335.908 103.44ZM343.94 102V96.56C344.26 96.08 344.692 95.632 345.348 95.632C345.956 95.632 346.212 96 346.212 96.496V102H348.692V96.416C348.692 94.896 348.036 93.92 346.404 93.92C345.06 93.92 344.308 94.72 343.844 95.376V94.064H341.46V102H343.94ZM357.061 102.128C358.197 102.128 359.061 101.712 359.605 100.864L359.589 102H361.989V94.064H359.493V99.584C359.237 100.112 358.805 100.512 358.213 100.512C357.557 100.512 357.237 100.224 357.237 99.472V94.064H354.741V99.6C354.741 101.36 355.701 102.128 357.061 102.128ZM368.538 102.112C370.266 102.112 371.562 100.656 371.562 98.016C371.562 95.168 370.458 93.92 368.746 93.92C367.402 93.92 366.746 94.688 366.25 95.392V94.064H363.898V104.56H366.378V101.2C366.922 101.68 367.498 102.112 368.538 102.112ZM367.706 100.608C367.002 100.608 366.65 100.144 366.362 99.808V96.656C366.666 96.032 367.098 95.648 367.722 95.648C368.602 95.648 368.986 96.24 368.986 98.128C368.986 100.096 368.538 100.608 367.706 100.608Z" fill="white"/>
<rect x="0.5" y="80.5" width="278" height="31" rx="1.5" fill="white"/>
<path d="M15.6 102V100.848H10.656V91.328H9.328V102H15.6ZM18.9161 102.096C20.3881 102.096 21.3161 101.536 21.9401 100.672C21.9241 101.072 21.9881 101.728 22.0841 102H23.2681C23.1401 101.504 23.0921 100.96 23.0921 100.464V96.88C23.0921 94.896 22.2281 93.968 19.9881 93.968C18.1161 93.968 16.8841 94.736 16.5961 96.176L17.7481 96.304C18.0041 95.296 18.6761 94.944 19.9561 94.944C21.2841 94.944 21.7961 95.408 21.8921 96.272C21.9241 96.464 21.9241 96.736 21.9241 97.008C21.3001 97.024 20.7721 97.024 20.1321 97.104C17.9721 97.36 16.4041 98.208 16.4041 99.92C16.4041 101.36 17.5241 102.096 18.9161 102.096ZM19.2841 101.184C18.2281 101.184 17.7001 100.704 17.7001 99.792C17.7001 98.8 18.5801 98.112 20.2921 97.888C20.7881 97.824 21.3641 97.824 21.9241 97.824V99.456C21.5881 100.272 20.7881 101.184 19.2841 101.184ZM29.0976 102.112C30.8896 102.112 32.1856 100.752 32.1856 98.032C32.1856 95.392 31.0816 93.968 29.1936 93.968C28.0576 93.968 27.0496 94.752 26.6496 95.616V91.328H25.4656V102H26.1536L26.5536 100.688C27.0656 101.584 27.9136 102.112 29.0976 102.112ZM28.8576 101.216C27.5936 101.216 26.6656 100.272 26.6656 98.624V96.72C27.0976 95.808 27.7536 94.96 28.9056 94.96C30.2336 94.96 30.9056 96 30.9056 98.064C30.9056 100.272 30.2016 101.216 28.8576 101.216ZM37.0209 102.128C38.5889 102.128 39.8049 101.312 40.3489 99.792L39.2609 99.632C38.8129 100.8 37.9969 101.184 37.1329 101.184C35.5969 101.184 34.7009 100.176 34.6689 98.192H40.4929C40.4769 98.016 40.4929 97.84 40.4769 97.664C40.3169 95.472 39.1169 93.968 37.0529 93.968C35.0209 93.968 33.4049 95.52 33.4049 98.192C33.4049 100.544 34.8609 102.128 37.0209 102.128ZM34.7169 97.344C34.8129 95.856 35.7889 94.912 37.0529 94.912C38.3169 94.912 39.1009 95.824 39.2289 97.344H34.7169ZM43.4956 102V91.328H42.2476V102H43.4956ZM52.9503 102V92.464H56.0063V91.328H48.5663V92.464H51.6223V102H52.9503ZM58.9584 102.128C60.5264 102.128 61.7424 101.312 62.2864 99.792L61.1984 99.632C60.7504 100.8 59.9344 101.184 59.0704 101.184C57.5344 101.184 56.6384 100.176 56.6064 98.192H62.4304C62.4144 98.016 62.4304 97.84 62.4144 97.664C62.2544 95.472 61.0544 93.968 58.9904 93.968C56.9584 93.968 55.3424 95.52 55.3424 98.192C55.3424 100.544 56.7984 102.128 58.9584 102.128ZM56.6544 97.344C56.7504 95.856 57.7264 94.912 58.9904 94.912C60.2544 94.912 61.0384 95.824 61.1664 97.344H56.6544ZM64.2209 102L66.2209 99.056L66.3809 98.768L66.5569 99.056L68.6209 102H69.9969L67.0689 97.744L69.5169 94.112H68.3169L66.6689 96.528L66.4609 96.848L66.2529 96.528L64.6049 94.112H63.1969L65.7729 97.872L63.0049 102H64.2209ZM73.3924 102.112C73.8244 102.112 74.3044 102.064 74.7364 101.984V101.008C74.4484 101.056 73.9844 101.104 73.6164 101.104C72.9444 101.088 72.5124 100.72 72.5124 99.888V95.104H74.2884V94.112H72.5124V92.048H71.3764L71.3124 94.112H70.0164V95.104H71.2964V99.824C71.2964 101.456 72.0644 102.112 73.3924 102.112Z" fill="#666666"/>
<rect x="0.5" y="80.5" width="278" height="31" rx="1.5" stroke="#E9E9E9"/>
</svg>
