<svg width="53" height="112" viewBox="0 0 53 112" fill="none" xmlns="http://www.w3.org/2000/svg">
<circle cx="15" cy="56" r="4" fill="#2A2A2A"/>
<circle cx="26" cy="56" r="3" fill="#AAAAAA"/>
<circle cx="36" cy="56" r="3" fill="#AAAAAA"/>
<circle cx="45" cy="56" r="2" fill="#AAAAAA"/>
<circle cx="52" cy="56" r="1" fill="#AAAAAA"/>
<rect width="29" height="28" rx="14" fill="#94538C"/>
<path d="M18.374 20.5V18.304H15.836V8.296H13.73C12.992 9.214 11.894 10.204 10.688 10.6V12.904C11.696 12.49 12.542 11.968 13.064 11.59V18.304H10.418V20.5H18.374Z" fill="white"/>
<line x1="15" y1="28" x2="15" y2="52" stroke="#94538C"/>
<line x1="26" y1="60" x2="26" y2="84" stroke="#94538C"/>
<rect x="11" y="84" width="29" height="28" rx="14" fill="#94538C"/>
<path d="M29.684 104.5V102.286H24.122C27.488 99.982 29.558 98.47 29.558 96.058C29.558 93.736 27.884 92.278 25.364 92.278C22.952 92.278 21.062 93.502 20.612 96.31L23.096 96.76C23.258 95.266 23.96 94.528 25.058 94.528C26.12 94.528 26.696 95.212 26.696 96.166C26.696 97.894 25.4 99.01 20.63 102.592V104.5H29.684Z" fill="white"/>
</svg>
