<svg width="138" height="88" viewBox="0 0 138 88" fill="none" xmlns="http://www.w3.org/2000/svg">
<g clip-path="url(#clip0)">
<circle cx="51.5" cy="45" r="4" fill="#2A2A2A"/>
<circle cx="62.5" cy="45" r="3" fill="#AAAAAA"/>
<circle cx="72.5" cy="45" r="3" fill="#AAAAAA"/>
<circle cx="81.5" cy="45" r="2" fill="#AAAAAA"/>
<circle cx="88.5" cy="45" r="1" fill="#AAAAAA"/>
</g>
<path d="M15 41V49" stroke="#1745E8"/>
<line x1="11.5" y1="41.5" x2="46.5" y2="41.5" stroke="#1745E8"/>
<line x1="11.5" y1="48.5" x2="46.5" y2="48.5" stroke="#1745E8"/>
<rect y="37.5" width="31" height="18" rx="3" fill="#1745E8"/>
<path d="M9.30256 50.5994C10.9432 50.5994 12.1222 49.7223 12.1257 48.5433C12.1222 47.6342 11.4226 46.892 10.549 46.7464V46.6967C11.3089 46.5405 11.8523 45.8835 11.8558 45.0845C11.8523 43.9588 10.7727 43.1278 9.30256 43.1278C7.82884 43.1278 6.74929 43.9588 6.75284 45.0845C6.74929 45.88 7.28551 46.5405 8.05966 46.6967V46.7464C7.17188 46.892 6.4794 47.6342 6.48295 48.5433C6.4794 49.7223 7.66193 50.5994 9.30256 50.5994ZM9.30256 49.4702C8.57102 49.4702 8.08097 49.0369 8.08097 48.4226C8.08097 47.794 8.59588 47.3395 9.30256 47.3395C10.0057 47.3395 10.5241 47.794 10.5241 48.4226C10.5241 49.0405 10.0305 49.4702 9.30256 49.4702ZM9.30256 46.2209C8.68821 46.2209 8.25142 45.8196 8.25142 45.2443C8.25142 44.6761 8.68111 44.2855 9.30256 44.2855C9.92045 44.2855 10.3537 44.6797 10.3537 45.2443C10.3537 45.8196 9.91335 46.2209 9.30256 46.2209ZM13.215 52.5455H14.7278V49.6264H14.774C14.9835 50.081 15.4416 50.5888 16.3223 50.5888C17.5652 50.5888 18.5346 49.6051 18.5346 47.7798C18.5346 45.9048 17.5225 44.9744 16.3258 44.9744C15.4132 44.9744 14.9764 45.5178 14.774 45.9616H14.7065V45.0455H13.215V52.5455ZM14.6958 47.7727C14.6958 46.7997 15.1078 46.1783 15.8429 46.1783C16.5922 46.1783 16.9899 46.8281 16.9899 47.7727C16.9899 48.7244 16.585 49.3849 15.8429 49.3849C15.1149 49.3849 14.6958 48.7457 14.6958 47.7727ZM20.6023 45.0455H19.0398L20.6023 47.7727L18.983 50.5H20.5455L21.6037 48.6143L22.6797 50.5H24.2244L22.6016 47.7727L24.1818 45.0455H22.63L21.6037 46.9524L20.6023 45.0455Z" fill="white"/>
<line x1="65.5" y1="41" x2="65.5" y2="16" stroke="#1745E8"/>
<path d="M60 27H66" stroke="#1745E8"/>
<rect x="47" y="10" width="31" height="18" rx="3" fill="#1745E8"/>
<path d="M56.3807 23.0994C58 23.1065 59.1044 22.0447 59.1009 20.5639C59.1044 19.2003 58.1527 18.2166 56.8636 18.2166C56.0646 18.2166 55.358 18.6001 55.0312 19.2429H54.9815C54.9886 17.826 55.4858 16.9453 56.4339 16.9453C56.9915 16.9453 57.3928 17.2507 57.5099 17.7585H59.0263C58.8807 16.5618 57.8864 15.6278 56.4339 15.6278C54.6371 15.6278 53.483 17.0838 53.4759 19.527C53.4723 22.1903 54.8857 23.0923 56.3807 23.0994ZM56.3736 21.892C55.6634 21.892 55.1378 21.3203 55.1378 20.6101C55.1413 19.9034 55.6776 19.3281 56.3842 19.3281C57.0945 19.3281 57.6129 19.8857 57.6094 20.6065C57.6129 21.3345 57.0838 21.892 56.3736 21.892ZM60.2053 25.0455H61.718V22.1264H61.7642C61.9737 22.581 62.4318 23.0888 63.3125 23.0888C64.5554 23.0888 65.5249 22.1051 65.5249 20.2798C65.5249 18.4048 64.5128 17.4744 63.3161 17.4744C62.4034 17.4744 61.9666 18.0178 61.7642 18.4616H61.6967V17.5455H60.2053V25.0455ZM61.6861 20.2727C61.6861 19.2997 62.098 18.6783 62.8331 18.6783C63.5824 18.6783 63.9801 19.3281 63.9801 20.2727C63.9801 21.2244 63.5753 21.8849 62.8331 21.8849C62.1051 21.8849 61.6861 21.2457 61.6861 20.2727ZM67.5925 17.5455H66.03L67.5925 20.2727L65.9732 23H67.5357L68.5939 21.1143L69.6699 23H71.2147L69.5918 20.2727L71.1721 17.5455H69.6202L68.5939 19.4524L67.5925 17.5455Z" fill="white"/>
<line x1="59.5" y1="41" x2="59.5" y2="16" stroke="#1745E8"/>
<rect x="66" y="59" width="31" height="18" rx="3" fill="#1745E8"/>
<path d="M72.4794 70.7216H75.9702V72H77.4403V70.7216H78.3423V69.4893H77.4403V64.7273H75.5156L72.4794 69.5107V70.7216ZM75.9986 69.4893H74.0277V69.4325L75.9418 66.4034H75.9986V69.4893ZM79.381 74.0455H80.8938V71.1264H80.94C81.1495 71.581 81.6076 72.0888 82.4883 72.0888C83.7312 72.0888 84.7006 71.1051 84.7006 69.2798C84.7006 67.4048 83.6886 66.4744 82.4918 66.4744C81.5792 66.4744 81.1424 67.0178 80.94 67.4616H80.8725V66.5455H79.381V74.0455ZM80.8619 69.2727C80.8619 68.2997 81.2738 67.6783 82.0089 67.6783C82.7582 67.6783 83.1559 68.3281 83.1559 69.2727C83.1559 70.2244 82.7511 70.8849 82.0089 70.8849C81.2809 70.8849 80.8619 70.2457 80.8619 69.2727ZM86.7683 66.5455H85.2058L86.7683 69.2727L85.149 72H86.7115L87.7697 70.1143L88.8457 72H90.3904L88.7676 69.2727L90.3478 66.5455H88.796L87.7697 68.4524L86.7683 66.5455Z" fill="white"/>
<line x1="79.5" y1="63" x2="79.5" y2="48" stroke="#1745E8"/>
<line x1="83.5" y1="63" x2="83.5" y2="48" stroke="#1745E8"/>
<path d="M122 44V46" stroke="#1745E8"/>
<rect x="102" y="35" width="31" height="18" rx="3" fill="#1745E8"/>
<path d="M108.589 48H113.774V46.7429H110.72V46.6932L111.782 45.6527C113.277 44.2891 113.678 43.6072 113.678 42.7798C113.678 41.5192 112.648 40.6278 111.089 40.6278C109.562 40.6278 108.515 41.5405 108.518 42.968H109.978C109.974 42.272 110.415 41.8459 111.079 41.8459C111.718 41.8459 112.194 42.2436 112.194 42.8828C112.194 43.4616 111.839 43.8594 111.178 44.495L108.589 46.892V48ZM114.903 50.0455H116.415V47.1264H116.461C116.671 47.581 117.129 48.0888 118.01 48.0888C119.253 48.0888 120.222 47.1051 120.222 45.2798C120.222 43.4048 119.21 42.4744 118.013 42.4744C117.101 42.4744 116.664 43.0178 116.461 43.4616H116.394V42.5455H114.903V50.0455ZM116.383 45.2727C116.383 44.2997 116.795 43.6783 117.53 43.6783C118.28 43.6783 118.677 44.3281 118.677 45.2727C118.677 46.2244 118.273 46.8849 117.53 46.8849C116.802 46.8849 116.383 46.2457 116.383 45.2727ZM122.29 42.5455H120.727L122.29 45.2727L120.67 48H122.233L123.291 46.1143L124.367 48H125.912L124.289 45.2727L125.869 42.5455H124.317L123.291 44.4524L122.29 42.5455Z" fill="white"/>
<line x1="92" y1="43.5" x2="104" y2="43.5" stroke="#1745E8"/>
<line x1="92" y1="46.5" x2="104" y2="46.5" stroke="#1745E8"/>
<defs>
<clipPath id="clip0">
<rect width="42" height="8" fill="white" transform="translate(47.5 41)"/>
</clipPath>
</defs>
</svg>
