<svg width="133" height="92" viewBox="0 0 133 92" fill="none" xmlns="http://www.w3.org/2000/svg">
<circle cx="70" cy="72" r="19.5" fill="white" stroke="#D5D5D5"/>
<path d="M76 62.34H62.5V81.66L64.84 80.16L70 76.605L75.16 80.085L77.5 81.585V62.34H76Z" fill="#111111"/>
<rect x="55" width="29" height="28" rx="14" fill="#94538C"/>
<path d="M73.684 20.5V18.286H68.122C71.488 15.982 73.558 14.47 73.558 12.058C73.558 9.736 71.884 8.278 69.364 8.278C66.952 8.278 65.062 9.502 64.612 12.31L67.096 12.76C67.258 11.266 67.96 10.528 69.058 10.528C70.12 10.528 70.696 11.212 70.696 12.166C70.696 13.894 69.4 15.01 64.63 18.592V20.5H73.684Z" fill="white"/>
<line x1="70" y1="28" x2="70" y2="52" stroke="#94538C"/>
<rect y="58" width="29" height="28" rx="14" fill="#94538C"/>
<path d="M18.374 78.5V76.304H15.836V66.296H13.73C12.992 67.214 11.894 68.204 10.688 68.6V70.904C11.696 70.49 12.542 69.968 13.064 69.59V76.304H10.418V78.5H18.374Z" fill="white"/>
<line x1="29" y1="71.5" x2="53" y2="71.5" stroke="#94538C"/>
<line x1="80" y1="71.5" x2="104" y2="71.5" stroke="#94538C"/>
<rect x="104" y="58" width="29" height="28" rx="14" fill="#94538C"/>
<path d="M118.364 78.716C121.424 78.716 123.134 77.276 123.134 75.098C123.134 73.604 122.306 72.596 120.776 72.218C122.018 71.858 122.738 70.868 122.738 69.482C122.738 67.7 121.118 66.278 118.454 66.278C116.186 66.278 114.278 67.286 113.702 69.482L115.988 69.95C116.24 68.924 117.068 68.42 118.184 68.42C119.39 68.42 119.984 68.978 119.984 69.842C119.984 70.76 119.318 71.282 118.004 71.282H116.726V73.37H118.04C119.444 73.37 120.29 73.856 120.29 74.99C120.29 75.926 119.642 76.574 118.202 76.574C116.942 76.574 116.132 76.016 115.88 74.792L113.342 75.314C113.738 77.546 115.646 78.716 118.364 78.716Z" fill="white"/>
</svg>
