<svg width="200" height="66" viewBox="0 0 200 66" fill="none" xmlns="http://www.w3.org/2000/svg">
<path d="M180.5 0V40" stroke="#1745E8"/>
<circle cx="16" cy="16" r="15.5" fill="white" stroke="#D5D5D5"/>
<path d="M20 9.56H11V22.44L12.56 21.44L16 19.07L19.44 21.39L21 22.39V9.56H20Z" fill="#111111"/>
<circle cx="128" cy="20" r="19.5" fill="white" stroke="#D5D5D5"/>
<path d="M134 10.34H120.5V29.66L122.84 28.16L128 24.605L133.16 28.085L135.5 29.585V10.34H134Z" fill="#111111"/>
<rect x="162" y="12.5" width="38" height="18" rx="3" fill="#1745E8"/>
<path d="M168.479 24.2216H171.97V25.5H173.44V24.2216H174.342V22.9893H173.44V18.2273H171.516L168.479 23.0107V24.2216ZM171.999 22.9893H170.028V22.9325L171.942 19.9034H171.999V22.9893ZM178.218 25.6598C180.047 25.6598 181.152 24.2678 181.155 21.8707C181.159 19.4915 180.04 18.1278 178.218 18.1278C176.393 18.1278 175.285 19.4879 175.282 21.8707C175.275 24.2607 176.386 25.6562 178.218 25.6598ZM178.218 24.3849C177.384 24.3849 176.844 23.5469 176.848 21.8707C176.851 20.2195 177.387 19.3885 178.218 19.3885C179.046 19.3885 179.586 20.2195 179.586 21.8707C179.589 23.5469 179.049 24.3849 178.218 24.3849ZM182.266 27.5455H183.779V24.6264H183.825C184.034 25.081 184.492 25.5888 185.373 25.5888C186.616 25.5888 187.585 24.6051 187.585 22.7798C187.585 20.9048 186.573 19.9744 185.377 19.9744C184.464 19.9744 184.027 20.5178 183.825 20.9616H183.757V20.0455H182.266V27.5455ZM183.747 22.7727C183.747 21.7997 184.159 21.1783 184.894 21.1783C185.643 21.1783 186.041 21.8281 186.041 22.7727C186.041 23.7244 185.636 24.3849 184.894 24.3849C184.166 24.3849 183.747 23.7457 183.747 22.7727ZM189.653 20.0455H188.091L189.653 22.7727L188.034 25.5H189.596L190.654 23.6143L191.73 25.5H193.275L191.652 22.7727L193.233 20.0455H191.681L190.654 21.9524L189.653 20.0455Z" fill="white"/>
<line x1="177" y1="0.5" x2="184" y2="0.5" stroke="#1745E8"/>
<line x1="177" y1="39.5" x2="184" y2="39.5" stroke="#1745E8"/>
<path d="M108 57.5H148" stroke="#1745E8"/>
<rect x="110" y="48" width="36" height="18" rx="3" fill="#1745E8"/>
<path d="M116.479 59.7216H119.97V61H121.44V59.7216H122.342V58.4893H121.44V53.7273H119.516L116.479 58.5107V59.7216ZM119.999 58.4893H118.028V58.4325L119.942 55.4034H119.999V58.4893ZM126.218 61.1598C128.047 61.1598 129.152 59.7678 129.155 57.3707C129.159 54.9915 128.04 53.6278 126.218 53.6278C124.393 53.6278 123.285 54.9879 123.282 57.3707C123.275 59.7607 124.386 61.1562 126.218 61.1598ZM126.218 59.8849C125.384 59.8849 124.844 59.0469 124.848 57.3707C124.851 55.7195 125.387 54.8885 126.218 54.8885C127.046 54.8885 127.586 55.7195 127.586 57.3707C127.589 59.0469 127.049 59.8849 126.218 59.8849ZM130.266 63.0455H131.779V60.1264H131.825C132.034 60.581 132.492 61.0888 133.373 61.0888C134.616 61.0888 135.585 60.1051 135.585 58.2798C135.585 56.4048 134.573 55.4744 133.377 55.4744C132.464 55.4744 132.027 56.0178 131.825 56.4616H131.757V55.5455H130.266V63.0455ZM131.747 58.2727C131.747 57.2997 132.159 56.6783 132.894 56.6783C133.643 56.6783 134.041 57.3281 134.041 58.2727C134.041 59.2244 133.636 59.8849 132.894 59.8849C132.166 59.8849 131.747 59.2457 131.747 58.2727ZM137.653 55.5455H136.091L137.653 58.2727L136.034 61H137.596L138.654 59.1143L139.73 61H141.275L139.652 58.2727L141.233 55.5455H139.681L138.654 57.4524L137.653 55.5455Z" fill="white"/>
<line x1="108.5" y1="61" x2="108.5" y2="54" stroke="#1745E8"/>
<line x1="147.5" y1="61" x2="147.5" y2="54" stroke="#1745E8"/>
<path d="M64.5 0V32" stroke="#1745E8"/>
<rect x="46.5" y="8.5" width="37" height="18" rx="3" fill="#1745E8"/>
<path d="M55.7777 21.5994C57.4112 21.5994 58.5795 20.701 58.576 19.4581C58.5795 18.5526 58.0043 17.9062 56.9354 17.7713V17.7145C57.7486 17.5689 58.3097 16.9936 58.3061 16.1768C58.3097 15.0298 57.3047 14.1278 55.799 14.1278C54.3075 14.1278 53.1854 15.0014 53.1641 16.2585H54.6378C54.6555 15.7045 55.1634 15.3459 55.7919 15.3459C56.4134 15.3459 56.8288 15.7223 56.8253 16.2692C56.8288 16.8409 56.3423 17.228 55.6428 17.228H54.9645V18.3572H55.6428C56.4666 18.3572 56.9815 18.7692 56.978 19.3551C56.9815 19.9339 56.4844 20.3317 55.7812 20.3317C55.103 20.3317 54.5952 19.9766 54.5668 19.4439H53.0185C53.0433 20.7152 54.1797 21.5994 55.7777 21.5994ZM59.6813 21.5H64.8659V20.2429H61.812V20.1932L62.8738 19.1527C64.3688 17.7891 64.7701 17.1072 64.7701 16.2798C64.7701 15.0192 63.7402 14.1278 62.1813 14.1278C60.6543 14.1278 59.6067 15.0405 59.6103 16.468H61.0698C61.0662 15.772 61.5066 15.3459 62.1706 15.3459C62.8098 15.3459 63.2857 15.7436 63.2857 16.3828C63.2857 16.9616 62.9306 17.3594 62.2701 17.995L59.6813 20.392V21.5ZM65.9943 23.5455H67.5071V20.6264H67.5533C67.7628 21.081 68.2209 21.5888 69.1016 21.5888C70.3445 21.5888 71.3139 20.6051 71.3139 18.7798C71.3139 16.9048 70.3018 15.9744 69.1051 15.9744C68.1925 15.9744 67.7557 16.5178 67.5533 16.9616H67.4858V16.0455H65.9943V23.5455ZM67.4751 18.7727C67.4751 17.7997 67.8871 17.1783 68.6222 17.1783C69.3714 17.1783 69.7692 17.8281 69.7692 18.7727C69.7692 19.7244 69.3643 20.3849 68.6222 20.3849C67.8942 20.3849 67.4751 19.7457 67.4751 18.7727ZM73.3816 16.0455H71.8191L73.3816 18.7727L71.7623 21.5H73.3248L74.383 19.6143L75.459 21.5H77.0037L75.3809 18.7727L76.9611 16.0455H75.4093L74.383 17.9524L73.3816 16.0455Z" fill="white"/>
<line x1="61" y1="0.5" x2="68" y2="0.5" stroke="#1745E8"/>
<line x1="61" y1="31.5" x2="68" y2="31.5" stroke="#1745E8"/>
<path d="M0 49.5H32" stroke="#1745E8"/>
<rect x="2" y="40" width="28" height="18" rx="3" fill="#1745E8"/>
<path d="M6.7777 53.0994C8.41122 53.0994 9.57955 52.201 9.57599 50.9581C9.57955 50.0526 9.00426 49.4062 7.93537 49.2713V49.2145C8.74858 49.0689 9.30966 48.4936 9.30611 47.6768C9.30966 46.5298 8.30469 45.6278 6.79901 45.6278C5.30753 45.6278 4.18537 46.5014 4.16406 47.7585H5.63778C5.65554 47.2045 6.16335 46.8459 6.7919 46.8459C7.41335 46.8459 7.82884 47.2223 7.82528 47.7692C7.82884 48.3409 7.34233 48.728 6.64276 48.728H5.96449V49.8572H6.64276C7.46662 49.8572 7.98153 50.2692 7.97798 50.8551C7.98153 51.4339 7.48438 51.8317 6.78125 51.8317C6.10298 51.8317 5.59517 51.4766 5.56676 50.9439H4.01847C4.04332 52.2152 5.17969 53.0994 6.7777 53.0994ZM10.6813 53H15.8659V51.7429H12.812V51.6932L13.8738 50.6527C15.3688 49.2891 15.7701 48.6072 15.7701 47.7798C15.7701 46.5192 14.7402 45.6278 13.1813 45.6278C11.6543 45.6278 10.6067 46.5405 10.6103 47.968H12.0698C12.0662 47.272 12.5066 46.8459 13.1706 46.8459C13.8098 46.8459 14.2857 47.2436 14.2857 47.8828C14.2857 48.4616 13.9306 48.8594 13.2701 49.495L10.6813 51.892V53ZM16.9943 55.0455H18.5071V52.1264H18.5533C18.7628 52.581 19.2209 53.0888 20.1016 53.0888C21.3445 53.0888 22.3139 52.1051 22.3139 50.2798C22.3139 48.4048 21.3018 47.4744 20.1051 47.4744C19.1925 47.4744 18.7557 48.0178 18.5533 48.4616H18.4858V47.5455H16.9943V55.0455ZM18.4751 50.2727C18.4751 49.2997 18.8871 48.6783 19.6222 48.6783C20.3714 48.6783 20.7692 49.3281 20.7692 50.2727C20.7692 51.2244 20.3643 51.8849 19.6222 51.8849C18.8942 51.8849 18.4751 51.2457 18.4751 50.2727ZM24.3816 47.5455H22.8191L24.3816 50.2727L22.7623 53H24.3248L25.383 51.1143L26.459 53H28.0037L26.3809 50.2727L27.9611 47.5455H26.4093L25.383 49.4524L24.3816 47.5455Z" fill="white"/>
<line x1="0.5" y1="53" x2="0.5" y2="46" stroke="#1745E8"/>
<line x1="31.5" y1="53" x2="31.5" y2="46" stroke="#1745E8"/>
</svg>
