<svg width="790" height="114" viewBox="0 0 790 114" fill="none" xmlns="http://www.w3.org/2000/svg">
<rect width="684" height="64" transform="translate(69 50)" fill="#1955A5"/>
<path d="M93.4831 75.6944C93.6483 75.7856 93.7844 75.9217 93.8756 76.0869L100.182 87.5169C100.449 88.0004 100.273 88.6087 99.7892 88.8755C99.6413 88.9571 99.4751 88.9999 99.3062 88.9999H86.6938C86.1415 88.9999 85.6938 88.5522 85.6938 87.9999C85.6938 87.831 85.7366 87.6648 85.8182 87.5169L92.1244 76.0869C92.3912 75.6034 92.9995 75.4276 93.4831 75.6944ZM94 85.4999H92.092V87.3359H94V85.4999ZM94.204 78.9999H91.9L92.464 84.5319H93.616L94.204 78.9999Z" fill="#F7F7F7"/>
<path d="M108.696 88V83.552H112.008V88H114.632V77.328H112.008V81.424H108.696V77.328H106.056V88H108.696ZM120.28 88.128C122.328 88.128 123.64 87.136 124.168 85.632L122.104 85.36C121.816 86.144 121.304 86.544 120.504 86.544C119.528 86.544 118.792 85.92 118.76 84.496H124.248C124.264 84.32 124.264 84.192 124.264 84.016C124.2 81.552 122.744 79.92 120.264 79.92C118.056 79.92 116.168 81.584 116.168 84.144C116.168 86.56 117.896 88.128 120.28 88.128ZM118.792 83.2C118.856 82.112 119.496 81.472 120.296 81.472C121.224 81.472 121.688 82.128 121.768 83.2H118.792ZM128.159 88V77.328H125.663V88H128.159ZM132.597 88V77.328H130.101V88H132.597ZM138.09 88.128C140.57 88.128 142.234 86.368 142.234 84.048C142.234 81.584 140.602 79.92 138.138 79.92C135.786 79.92 134.058 81.632 134.058 84.096C134.058 86.416 135.722 88.128 138.09 88.128ZM138.17 86.528C137.178 86.528 136.698 85.744 136.698 84.016C136.698 82.336 137.21 81.568 138.154 81.568C139.13 81.568 139.578 82.352 139.578 84.016C139.578 85.76 139.082 86.528 138.17 86.528ZM146.207 82.56V80.064H143.615V82.56H146.207ZM146.207 88V85.504H143.615V88H146.207ZM154.513 88H155.841V78.464H158.865V88H160.113V82.608C160.769 81.664 161.553 81.008 162.657 81.008C163.457 81.008 163.937 81.456 163.937 82.416V88H165.185V82.32C165.185 81.024 164.609 79.968 163.009 79.968C161.537 79.968 160.577 80.848 160.065 81.664V77.312L151.457 77.328V78.464H154.513V88ZM168.887 78.72V77.312H167.527V78.72H168.887ZM168.839 88V80.112H167.591V88H168.839ZM173.759 88.128C175.679 88.128 176.927 87.152 176.927 85.696C176.927 84.128 175.551 83.68 173.935 83.36C172.671 83.088 171.727 82.928 171.727 82.064C171.727 81.344 172.447 80.912 173.503 80.912C174.575 80.912 175.295 81.392 175.599 82.224L176.703 81.984C176.303 80.752 175.279 79.968 173.503 79.968C171.743 79.968 170.575 80.848 170.575 82.144C170.575 83.696 171.935 84.112 173.551 84.416C174.719 84.672 175.775 84.864 175.775 85.808C175.775 86.64 175.007 87.2 173.759 87.2C172.399 87.2 171.519 86.576 171.263 85.648L170.143 85.872C170.527 87.312 171.759 88.128 173.759 88.128ZM185.926 88.112C187.718 88.112 189.014 86.752 189.014 84.032C189.014 81.392 187.91 79.968 186.022 79.968C184.886 79.968 183.878 80.752 183.478 81.616V77.328H182.294V88H182.982L183.382 86.688C183.894 87.584 184.742 88.112 185.926 88.112ZM185.686 87.216C184.422 87.216 183.494 86.272 183.494 84.624V82.72C183.926 81.808 184.582 80.96 185.734 80.96C187.062 80.96 187.734 82 187.734 84.064C187.734 86.272 187.03 87.216 185.686 87.216ZM192.713 88.096C194.185 88.096 195.113 87.536 195.737 86.672C195.721 87.072 195.785 87.728 195.881 88H197.065C196.937 87.504 196.889 86.96 196.889 86.464V82.88C196.889 80.896 196.025 79.968 193.785 79.968C191.913 79.968 190.681 80.736 190.393 82.176L191.545 82.304C191.801 81.296 192.473 80.944 193.753 80.944C195.081 80.944 195.593 81.408 195.689 82.272C195.721 82.464 195.721 82.736 195.721 83.008C195.097 83.024 194.569 83.024 193.929 83.104C191.769 83.36 190.201 84.208 190.201 85.92C190.201 87.36 191.321 88.096 192.713 88.096ZM193.081 87.184C192.025 87.184 191.497 86.704 191.497 85.792C191.497 84.8 192.377 84.112 194.089 83.888C194.585 83.824 195.161 83.824 195.721 83.824V85.456C195.385 86.272 194.585 87.184 193.081 87.184ZM200.511 88V82.592C201.167 81.648 201.999 81.008 203.007 81.008C203.903 81.008 204.319 81.456 204.319 82.4V88H205.567V82.416C205.567 80.8 204.847 79.968 203.375 79.968C201.967 79.968 200.991 80.896 200.447 81.68V80.112H199.263V88H200.511ZM209.182 88V82.592C209.838 81.648 210.67 81.008 211.678 81.008C212.574 81.008 212.99 81.456 212.99 82.4V88H214.238V82.416C214.238 80.8 213.518 79.968 212.046 79.968C210.638 79.968 209.662 80.896 209.118 81.68V80.112H207.934V88H209.182ZM219.63 88.128C221.198 88.128 222.414 87.312 222.958 85.792L221.87 85.632C221.422 86.8 220.606 87.184 219.742 87.184C218.206 87.184 217.31 86.176 217.278 84.192H223.102C223.086 84.016 223.102 83.84 223.086 83.664C222.926 81.472 221.726 79.968 219.662 79.968C217.63 79.968 216.014 81.52 216.014 84.192C216.014 86.544 217.47 88.128 219.63 88.128ZM217.326 83.344C217.422 81.856 218.398 80.912 219.662 80.912C220.926 80.912 221.71 81.824 221.838 83.344H217.326ZM226.073 88V82.848C226.729 81.744 227.657 81.104 228.585 81.104C228.681 81.104 228.841 81.104 228.937 81.12V79.984C228.809 79.968 228.713 79.968 228.569 79.968C227.449 79.968 226.521 80.88 226.009 81.808V80.112H224.825V88H226.073ZM236.656 88.128C238.224 88.128 239.392 87.216 239.664 85.44L238.576 85.328C238.336 86.64 237.728 87.2 236.688 87.2C235.504 87.2 234.576 86.224 234.576 84.048C234.576 82.08 235.344 80.96 236.608 80.96C237.696 80.96 238.32 81.664 238.512 82.96L239.68 82.816C239.328 80.88 238.272 79.968 236.592 79.968C234.592 79.968 233.264 81.728 233.264 84.016C233.264 86.656 234.72 88.128 236.656 88.128ZM244.253 88.128C246.205 88.128 247.821 86.512 247.821 84.032C247.821 81.6 246.413 79.968 244.253 79.968C242.317 79.968 240.717 81.552 240.717 84.016C240.717 86.512 242.221 88.128 244.253 88.128ZM244.237 87.2C242.909 87.2 242.029 86.016 242.029 84.032C242.029 82 242.989 80.944 244.237 80.944C245.549 80.944 246.509 81.968 246.509 84.016C246.509 86.144 245.533 87.2 244.237 87.2ZM250.838 88V82.592C251.558 81.584 252.214 80.992 253.126 80.992C253.894 80.992 254.294 81.52 254.294 82.464V88H255.51V82.608C256.006 81.824 256.822 81.024 257.798 81.024C258.566 81.024 258.998 81.456 258.998 82.48V88H260.23V82.4C260.23 81.76 260.07 81.248 259.83 80.88C259.51 80.288 258.966 79.984 258.15 79.984C256.902 79.984 255.974 80.88 255.43 81.744C255.334 80.624 254.598 79.968 253.446 79.968C252.31 79.968 251.27 80.912 250.806 81.696V80.112H249.606V88H250.838ZM266.271 88.112C267.855 88.112 269.279 86.72 269.279 84.048C269.279 81.2 268.063 79.968 266.303 79.968C265.039 79.968 264.239 80.736 263.759 81.504V80.112H262.575V90.672H263.807V86.96C264.287 87.536 265.119 88.112 266.271 88.112ZM265.935 87.2C264.799 87.2 264.223 86.496 263.807 85.904V82.576C264.367 81.472 265.103 80.992 266.015 80.992C267.375 80.992 267.983 81.968 267.983 84.08C267.983 86.352 267.183 87.2 265.935 87.2ZM274.019 88.128C275.971 88.128 277.587 86.512 277.587 84.032C277.587 81.6 276.179 79.968 274.019 79.968C272.083 79.968 270.483 81.552 270.483 84.016C270.483 86.512 271.987 88.128 274.019 88.128ZM274.003 87.2C272.675 87.2 271.795 86.016 271.795 84.032C271.795 82 272.755 80.944 274.003 80.944C275.315 80.944 276.275 81.968 276.275 84.016C276.275 86.144 275.299 87.2 274.003 87.2ZM280.62 88V82.592C281.276 81.648 282.108 81.008 283.116 81.008C284.012 81.008 284.428 81.456 284.428 82.4V88H285.676V82.416C285.676 80.8 284.956 79.968 283.484 79.968C282.076 79.968 281.1 80.896 280.556 81.68V80.112H279.372V88H280.62ZM291.068 88.128C292.636 88.128 293.852 87.312 294.396 85.792L293.308 85.632C292.86 86.8 292.044 87.184 291.18 87.184C289.644 87.184 288.748 86.176 288.716 84.192H294.54C294.524 84.016 294.54 83.84 294.524 83.664C294.364 81.472 293.164 79.968 291.1 79.968C289.068 79.968 287.452 81.52 287.452 84.192C287.452 86.544 288.908 88.128 291.068 88.128ZM288.764 83.344C288.86 81.856 289.836 80.912 291.1 80.912C292.364 80.912 293.148 81.824 293.276 83.344H288.764ZM297.511 88V82.592C298.167 81.648 298.999 81.008 300.007 81.008C300.903 81.008 301.319 81.456 301.319 82.4V88H302.567V82.416C302.567 80.8 301.847 79.968 300.375 79.968C298.967 79.968 297.991 80.896 297.447 81.68V80.112H296.263V88H297.511ZM307.142 88.112C307.574 88.112 308.054 88.064 308.486 87.984V87.008C308.198 87.056 307.734 87.104 307.366 87.104C306.694 87.088 306.262 86.72 306.262 85.888V81.104H308.038V80.112H306.262V78.048H305.126L305.062 80.112H303.766V81.104H305.046V85.824C305.046 87.456 305.814 88.112 307.142 88.112ZM314.872 78.72V77.312H313.512V78.72H314.872ZM314.824 88V80.112H313.576V88H314.824ZM319.743 88.128C321.663 88.128 322.911 87.152 322.911 85.696C322.911 84.128 321.535 83.68 319.919 83.36C318.655 83.088 317.711 82.928 317.711 82.064C317.711 81.344 318.431 80.912 319.487 80.912C320.559 80.912 321.279 81.392 321.583 82.224L322.687 81.984C322.287 80.752 321.263 79.968 319.487 79.968C317.727 79.968 316.559 80.848 316.559 82.144C316.559 83.696 317.919 84.112 319.535 84.416C320.703 84.672 321.759 84.864 321.759 85.808C321.759 86.64 320.991 87.2 319.743 87.2C318.383 87.2 317.503 86.576 317.247 85.648L316.127 85.872C316.511 87.312 317.743 88.128 319.743 88.128ZM330.678 88.128C331.734 88.128 332.694 87.664 333.318 86.656V88H334.47V80.112H333.238V85.712C332.71 86.672 331.942 87.184 331.062 87.184C329.958 87.184 329.494 86.688 329.494 85.44V80.112H328.246V85.408C328.246 87.392 329.254 88.128 330.678 88.128ZM339.352 88.128C341.272 88.128 342.52 87.152 342.52 85.696C342.52 84.128 341.144 83.68 339.528 83.36C338.264 83.088 337.32 82.928 337.32 82.064C337.32 81.344 338.04 80.912 339.096 80.912C340.168 80.912 340.888 81.392 341.192 82.224L342.296 81.984C341.896 80.752 340.872 79.968 339.096 79.968C337.336 79.968 336.168 80.848 336.168 82.144C336.168 83.696 337.528 84.112 339.144 84.416C340.312 84.672 341.368 84.864 341.368 85.808C341.368 86.64 340.6 87.2 339.352 87.2C337.992 87.2 337.112 86.576 336.856 85.648L335.736 85.872C336.12 87.312 337.352 88.128 339.352 88.128ZM347.224 88.128C348.792 88.128 350.008 87.312 350.552 85.792L349.464 85.632C349.016 86.8 348.2 87.184 347.336 87.184C345.8 87.184 344.904 86.176 344.872 84.192H350.696C350.68 84.016 350.696 83.84 350.68 83.664C350.52 81.472 349.32 79.968 347.256 79.968C345.224 79.968 343.608 81.52 343.608 84.192C343.608 86.544 345.064 88.128 347.224 88.128ZM344.92 83.344C345.016 81.856 345.992 80.912 347.256 80.912C348.52 80.912 349.304 81.824 349.432 83.344H344.92ZM354.835 88.128C355.987 88.128 356.787 87.664 357.411 86.8V88H358.579V77.328H357.379V81.184C357.011 80.656 356.259 79.968 355.059 79.968C353.043 79.968 351.827 81.744 351.827 84.08C351.827 86.656 352.931 88.128 354.835 88.128ZM355.171 87.184C353.859 87.184 353.123 86.272 353.123 84.08C353.123 82.064 353.827 80.944 355.251 80.944C356.419 80.944 356.963 81.616 357.363 82.368V85.584C357.027 86.464 356.355 87.184 355.171 87.184ZM366.06 88V81.056H367.98V80.112H366.06C366.06 80.064 366.06 79.728 366.06 79.36C366.06 78.48 366.444 78.032 367.404 78.032C367.612 78.032 368.108 78.064 368.444 78.112V77.12C368.14 77.072 367.612 77.024 367.308 77.024C365.66 77.024 364.828 77.776 364.828 79.328C364.828 79.44 364.828 80 364.828 80.112H363.436V81.056H364.828V88H366.06ZM372.034 88.128C373.986 88.128 375.602 86.512 375.602 84.032C375.602 81.6 374.194 79.968 372.034 79.968C370.098 79.968 368.498 81.552 368.498 84.016C368.498 86.512 370.002 88.128 372.034 88.128ZM372.018 87.2C370.69 87.2 369.81 86.016 369.81 84.032C369.81 82 370.77 80.944 372.018 80.944C373.33 80.944 374.29 81.968 374.29 84.016C374.29 86.144 373.314 87.2 372.018 87.2ZM378.636 88V82.848C379.292 81.744 380.22 81.104 381.148 81.104C381.244 81.104 381.404 81.104 381.5 81.12V79.984C381.372 79.968 381.276 79.968 381.132 79.968C380.012 79.968 379.084 80.88 378.572 81.808V80.112H377.388V88H378.636ZM387.666 88V82.592C388.386 81.584 389.042 80.992 389.954 80.992C390.722 80.992 391.122 81.52 391.122 82.464V88H392.338V82.608C392.834 81.824 393.65 81.024 394.626 81.024C395.394 81.024 395.826 81.456 395.826 82.48V88H397.058V82.4C397.058 81.76 396.898 81.248 396.658 80.88C396.338 80.288 395.794 79.984 394.978 79.984C393.73 79.984 392.802 80.88 392.258 81.744C392.162 80.624 391.426 79.968 390.274 79.968C389.138 79.968 388.098 80.912 387.634 81.696V80.112H386.434V88H387.666ZM402.427 88.128C403.995 88.128 405.211 87.312 405.755 85.792L404.667 85.632C404.219 86.8 403.403 87.184 402.539 87.184C401.003 87.184 400.107 86.176 400.075 84.192H405.899C405.883 84.016 405.899 83.84 405.883 83.664C405.723 81.472 404.523 79.968 402.459 79.968C400.427 79.968 398.811 81.52 398.811 84.192C398.811 86.544 400.267 88.128 402.427 88.128ZM400.123 83.344C400.219 81.856 401.195 80.912 402.459 80.912C403.723 80.912 404.507 81.824 404.635 83.344H400.123ZM410.118 88.128C412.038 88.128 413.286 87.152 413.286 85.696C413.286 84.128 411.91 83.68 410.294 83.36C409.03 83.088 408.086 82.928 408.086 82.064C408.086 81.344 408.806 80.912 409.862 80.912C410.934 80.912 411.654 81.392 411.958 82.224L413.062 81.984C412.662 80.752 411.638 79.968 409.862 79.968C408.102 79.968 406.934 80.848 406.934 82.144C406.934 83.696 408.294 84.112 409.91 84.416C411.078 84.672 412.134 84.864 412.134 85.808C412.134 86.64 411.366 87.2 410.118 87.2C408.758 87.2 407.878 86.576 407.622 85.648L406.502 85.872C406.886 87.312 408.118 88.128 410.118 88.128ZM417.462 88.128C419.382 88.128 420.63 87.152 420.63 85.696C420.63 84.128 419.254 83.68 417.638 83.36C416.374 83.088 415.43 82.928 415.43 82.064C415.43 81.344 416.15 80.912 417.206 80.912C418.278 80.912 418.998 81.392 419.302 82.224L420.406 81.984C420.006 80.752 418.982 79.968 417.206 79.968C415.446 79.968 414.278 80.848 414.278 82.144C414.278 83.696 415.638 84.112 417.254 84.416C418.422 84.672 419.478 84.864 419.478 85.808C419.478 86.64 418.71 87.2 417.462 87.2C416.102 87.2 415.222 86.576 414.966 85.648L413.846 85.872C414.23 87.312 415.462 88.128 417.462 88.128ZM424.197 88.096C425.669 88.096 426.597 87.536 427.221 86.672C427.205 87.072 427.269 87.728 427.365 88H428.549C428.421 87.504 428.373 86.96 428.373 86.464V82.88C428.373 80.896 427.509 79.968 425.269 79.968C423.397 79.968 422.165 80.736 421.877 82.176L423.029 82.304C423.285 81.296 423.957 80.944 425.237 80.944C426.565 80.944 427.077 81.408 427.173 82.272C427.205 82.464 427.205 82.736 427.205 83.008C426.581 83.024 426.053 83.024 425.413 83.104C423.253 83.36 421.685 84.208 421.685 85.92C421.685 87.36 422.805 88.096 424.197 88.096ZM424.565 87.184C423.509 87.184 422.981 86.704 422.981 85.792C422.981 84.8 423.861 84.112 425.573 83.888C426.069 83.824 426.645 83.824 427.205 83.824V85.456C426.869 86.272 426.069 87.184 424.565 87.184ZM433.675 90.976C436.235 90.976 437.531 90.016 437.531 88.64C437.531 87.344 436.635 86.816 434.123 86.768C432.523 86.72 431.531 86.72 431.531 86.016C431.531 85.536 431.979 85.232 432.395 85.232C432.523 85.264 433.035 85.376 433.547 85.376C435.339 85.376 436.427 84.24 436.427 82.672C436.427 81.856 436.123 81.232 435.707 80.864C435.835 80.288 436.171 79.952 436.971 79.968C437.067 79.968 437.147 79.984 437.243 80L437.227 78.96C437.179 78.96 437.083 78.96 437.035 78.96C435.691 78.944 435.259 79.488 435.067 80.352C434.587 80.096 434.011 79.968 433.419 79.968C431.835 79.968 430.475 81.056 430.475 82.672C430.475 83.632 430.859 84.448 431.627 84.848C430.923 85.04 430.379 85.52 430.379 86.192C430.379 86.8 430.699 87.248 431.499 87.472C430.539 87.712 429.963 88.304 429.963 89.088C429.963 90.304 431.243 90.976 433.675 90.976ZM433.483 84.544C432.411 84.544 431.707 83.904 431.707 82.672C431.707 81.68 432.315 80.864 433.483 80.864C434.667 80.864 435.259 81.728 435.259 82.688C435.259 83.872 434.603 84.544 433.483 84.544ZM433.579 90.144C431.819 90.144 431.099 89.696 431.099 88.944C431.099 88.24 431.579 87.92 432.203 87.744C435.755 87.824 436.347 88 436.347 88.8C436.347 89.6 435.339 90.144 433.579 90.144ZM439.934 78.72V77.312H438.574V78.72H439.934ZM439.886 88V80.112H438.638V88H439.886ZM443.557 88V82.592C444.213 81.648 445.045 81.008 446.053 81.008C446.949 81.008 447.365 81.456 447.365 82.4V88H448.613V82.416C448.613 80.8 447.893 79.968 446.421 79.968C445.013 79.968 444.037 80.896 443.493 81.68V80.112H442.309V88H443.557ZM453.831 90.976C456.391 90.976 457.687 90.016 457.687 88.64C457.687 87.344 456.791 86.816 454.279 86.768C452.679 86.72 451.687 86.72 451.687 86.016C451.687 85.536 452.135 85.232 452.551 85.232C452.679 85.264 453.191 85.376 453.703 85.376C455.495 85.376 456.583 84.24 456.583 82.672C456.583 81.856 456.279 81.232 455.863 80.864C455.991 80.288 456.327 79.952 457.127 79.968C457.223 79.968 457.303 79.984 457.399 80L457.383 78.96C457.335 78.96 457.239 78.96 457.191 78.96C455.847 78.944 455.415 79.488 455.223 80.352C454.743 80.096 454.167 79.968 453.575 79.968C451.991 79.968 450.631 81.056 450.631 82.672C450.631 83.632 451.015 84.448 451.783 84.848C451.079 85.04 450.535 85.52 450.535 86.192C450.535 86.8 450.855 87.248 451.655 87.472C450.695 87.712 450.119 88.304 450.119 89.088C450.119 90.304 451.399 90.976 453.831 90.976ZM453.639 84.544C452.567 84.544 451.863 83.904 451.863 82.672C451.863 81.68 452.471 80.864 453.639 80.864C454.823 80.864 455.415 81.728 455.415 82.688C455.415 83.872 454.759 84.544 453.639 84.544ZM453.735 90.144C451.975 90.144 451.255 89.696 451.255 88.944C451.255 88.24 451.735 87.92 452.359 87.744C455.911 87.824 456.503 88 456.503 88.8C456.503 89.6 455.495 90.144 453.735 90.144Z" fill="white"/>
<circle cx="721" cy="82" r="15.5" fill="white" stroke="#D5D5D5"/>
<path d="M721 80.586L725.293 76.293L726.707 77.707L722.414 82L726.707 86.293L725.293 87.707L721 83.414L716.707 87.707L715.293 86.293L719.586 82L715.293 77.707L716.707 76.293L721 80.586Z" fill="#111111"/>
<rect x="158" y="19" width="29" height="28" rx="14" fill="#94538C"/>
<path d="M172.364 39.716C175.424 39.716 177.134 38.276 177.134 36.098C177.134 34.604 176.306 33.596 174.776 33.218C176.018 32.858 176.738 31.868 176.738 30.482C176.738 28.7 175.118 27.278 172.454 27.278C170.186 27.278 168.278 28.286 167.702 30.482L169.988 30.95C170.24 29.924 171.068 29.42 172.184 29.42C173.39 29.42 173.984 29.978 173.984 30.842C173.984 31.76 173.318 32.282 172.004 32.282H170.726V34.37H172.04C173.444 34.37 174.29 34.856 174.29 35.99C174.29 36.926 173.642 37.574 172.202 37.574C170.942 37.574 170.132 37.016 169.88 35.792L167.342 36.314C167.738 38.546 169.646 39.716 172.364 39.716Z" fill="white"/>
<line x1="173" y1="47" x2="173" y2="70" stroke="#94538C"/>
<rect x="57" width="29" height="28" rx="14" fill="#94538C"/>
<path d="M75.374 20.5V18.304H72.836V8.296H70.73C69.992 9.214 68.894 10.204 67.688 10.6V12.904C68.696 12.49 69.542 11.968 70.064 11.59V18.304H67.418V20.5H75.374Z" fill="white"/>
<line x1="72" y1="28" x2="72" y2="51" stroke="#94538C"/>
<rect y="70" width="29" height="28" rx="14" fill="#94538C"/>
<path d="M18.684 90.5V88.286H13.122C16.488 85.982 18.558 84.47 18.558 82.058C18.558 79.736 16.884 78.278 14.364 78.278C11.952 78.278 10.062 79.502 9.612 82.31L12.096 82.76C12.258 81.266 12.96 80.528 14.058 80.528C15.12 80.528 15.696 81.212 15.696 82.166C15.696 83.894 14.4 85.01 9.63 88.592V90.5H18.684Z" fill="white"/>
<line x1="29" y1="83.5" x2="86" y2="83.5" stroke="#94538C"/>
<line x1="737" y1="83.5" x2="761" y2="83.5" stroke="#94538C"/>
<rect x="761" y="70" width="29" height="28" rx="14" fill="#94538C"/>
<path d="M778.316 90.5V88.016H780.08V85.874H778.316V78.296H775.778L770.378 85.928V88.016H775.652V90.5H778.316ZM775.67 81.482V85.874H772.538L775.67 81.482Z" fill="white"/>
</svg>
