<svg width="506" height="152" viewBox="0 0 506 152" fill="none" xmlns="http://www.w3.org/2000/svg">
<rect width="504" height="64" transform="translate(1 1)" fill="#DDE6F2"/>
<path d="M26.024 30.28C26.179 30.28 26.283 30.383 26.283 30.539V36.829H28.39C28.545 36.829 28.649 36.934 28.649 37.089V38.239C28.649 38.396 28.545 38.499 28.39 38.499H22.259C22.103 38.499 22 38.396 22 38.239V37.089C22 36.934 22.103 36.829 22.259 36.829H24.443V31.829H22.517C22.362 31.829 22.259 31.726 22.259 31.569V30.539C22.259 30.384 22.362 30.281 22.517 30.281L26.024 30.28ZM25.156 26.65C25.796 26.65 26.302 27.157 26.302 27.796C26.302 28.435 25.795 28.942 25.156 28.942C25.0052 28.9431 24.8557 28.9142 24.7162 28.857C24.5767 28.7997 24.4499 28.7154 24.3433 28.6087C24.2367 28.5021 24.1523 28.3754 24.0951 28.2358C24.0379 28.0963 24.0089 27.9468 24.01 27.796C24.01 27.157 24.517 26.65 25.156 26.65V26.65Z" fill="#172A52"/>
<path d="M40.696 39V34.552H44.008V39H46.632V28.328H44.008V32.424H40.696V28.328H38.056V39H40.696ZM52.2795 39.128C54.3275 39.128 55.6395 38.136 56.1675 36.632L54.1035 36.36C53.8155 37.144 53.3035 37.544 52.5035 37.544C51.5275 37.544 50.7915 36.92 50.7595 35.496H56.2475C56.2635 35.32 56.2635 35.192 56.2635 35.016C56.1995 32.552 54.7435 30.92 52.2635 30.92C50.0555 30.92 48.1675 32.584 48.1675 35.144C48.1675 37.56 49.8955 39.128 52.2795 39.128ZM50.7915 34.2C50.8555 33.112 51.4955 32.472 52.2955 32.472C53.2235 32.472 53.6875 33.128 53.7675 34.2H50.7915ZM60.1591 39V28.328H57.6631V39H60.1591ZM64.5966 39V28.328H62.1006V39H64.5966ZM70.0901 39.128C72.5701 39.128 74.2341 37.368 74.2341 35.048C74.2341 32.584 72.6021 30.92 70.1381 30.92C67.7861 30.92 66.0581 32.632 66.0581 35.096C66.0581 37.416 67.7221 39.128 70.0901 39.128ZM70.1701 37.528C69.1781 37.528 68.6981 36.744 68.6981 35.016C68.6981 33.336 69.2101 32.568 70.1541 32.568C71.1301 32.568 71.5781 33.352 71.5781 35.016C71.5781 36.76 71.0821 37.528 70.1701 37.528ZM78.2068 33.56V31.064H75.6148V33.56H78.2068ZM78.2068 39V36.504H75.6148V39H78.2068ZM86.5129 39H87.8409V29.464H90.8649V39H92.1129V33.608C92.7689 32.664 93.5529 32.008 94.6569 32.008C95.4569 32.008 95.9369 32.456 95.9369 33.416V39H97.1849V33.32C97.1849 32.024 96.6089 30.968 95.0089 30.968C93.5369 30.968 92.5769 31.848 92.0649 32.664V28.312L83.4569 28.328V29.464H86.5129V39ZM100.887 29.72V28.312H99.5274V29.72H100.887ZM100.839 39V31.112H99.5914V39H100.839ZM105.759 39.128C107.679 39.128 108.927 38.152 108.927 36.696C108.927 35.128 107.551 34.68 105.935 34.36C104.671 34.088 103.727 33.928 103.727 33.064C103.727 32.344 104.447 31.912 105.503 31.912C106.575 31.912 107.295 32.392 107.599 33.224L108.703 32.984C108.303 31.752 107.279 30.968 105.503 30.968C103.743 30.968 102.575 31.848 102.575 33.144C102.575 34.696 103.935 35.112 105.551 35.416C106.719 35.672 107.775 35.864 107.775 36.808C107.775 37.64 107.007 38.2 105.759 38.2C104.399 38.2 103.519 37.576 103.263 36.648L102.143 36.872C102.527 38.312 103.759 39.128 105.759 39.128ZM117.926 39.112C119.718 39.112 121.014 37.752 121.014 35.032C121.014 32.392 119.91 30.968 118.022 30.968C116.886 30.968 115.878 31.752 115.478 32.616V28.328H114.294V39H114.982L115.382 37.688C115.894 38.584 116.742 39.112 117.926 39.112ZM117.686 38.216C116.422 38.216 115.494 37.272 115.494 35.624V33.72C115.926 32.808 116.582 31.96 117.734 31.96C119.062 31.96 119.734 33 119.734 35.064C119.734 37.272 119.03 38.216 117.686 38.216ZM124.713 39.096C126.185 39.096 127.113 38.536 127.737 37.672C127.721 38.072 127.785 38.728 127.881 39H129.065C128.937 38.504 128.889 37.96 128.889 37.464V33.88C128.889 31.896 128.025 30.968 125.785 30.968C123.913 30.968 122.681 31.736 122.393 33.176L123.545 33.304C123.801 32.296 124.473 31.944 125.753 31.944C127.081 31.944 127.593 32.408 127.689 33.272C127.721 33.464 127.721 33.736 127.721 34.008C127.097 34.024 126.569 34.024 125.929 34.104C123.769 34.36 122.201 35.208 122.201 36.92C122.201 38.36 123.321 39.096 124.713 39.096ZM125.081 38.184C124.025 38.184 123.497 37.704 123.497 36.792C123.497 35.8 124.377 35.112 126.089 34.888C126.585 34.824 127.161 34.824 127.721 34.824V36.456C127.385 37.272 126.585 38.184 125.081 38.184ZM132.511 39V33.592C133.167 32.648 133.999 32.008 135.007 32.008C135.903 32.008 136.319 32.456 136.319 33.4V39H137.567V33.416C137.567 31.8 136.847 30.968 135.375 30.968C133.967 30.968 132.991 31.896 132.447 32.68V31.112H131.263V39H132.511ZM141.182 39V33.592C141.838 32.648 142.67 32.008 143.678 32.008C144.574 32.008 144.99 32.456 144.99 33.4V39H146.238V33.416C146.238 31.8 145.518 30.968 144.046 30.968C142.638 30.968 141.662 31.896 141.118 32.68V31.112H139.934V39H141.182ZM151.63 39.128C153.198 39.128 154.414 38.312 154.958 36.792L153.87 36.632C153.422 37.8 152.606 38.184 151.742 38.184C150.206 38.184 149.31 37.176 149.278 35.192H155.102C155.086 35.016 155.102 34.84 155.086 34.664C154.926 32.472 153.726 30.968 151.662 30.968C149.63 30.968 148.014 32.52 148.014 35.192C148.014 37.544 149.47 39.128 151.63 39.128ZM149.326 34.344C149.422 32.856 150.398 31.912 151.662 31.912C152.926 31.912 153.71 32.824 153.838 34.344H149.326ZM158.073 39V33.848C158.729 32.744 159.657 32.104 160.585 32.104C160.681 32.104 160.841 32.104 160.937 32.12V30.984C160.809 30.968 160.713 30.968 160.569 30.968C159.449 30.968 158.521 31.88 158.009 32.808V31.112H156.825V39H158.073ZM168.656 39.128C170.224 39.128 171.392 38.216 171.664 36.44L170.576 36.328C170.336 37.64 169.728 38.2 168.688 38.2C167.504 38.2 166.576 37.224 166.576 35.048C166.576 33.08 167.344 31.96 168.608 31.96C169.696 31.96 170.32 32.664 170.512 33.96L171.68 33.816C171.328 31.88 170.272 30.968 168.592 30.968C166.592 30.968 165.264 32.728 165.264 35.016C165.264 37.656 166.72 39.128 168.656 39.128ZM176.253 39.128C178.205 39.128 179.821 37.512 179.821 35.032C179.821 32.6 178.413 30.968 176.253 30.968C174.317 30.968 172.717 32.552 172.717 35.016C172.717 37.512 174.221 39.128 176.253 39.128ZM176.237 38.2C174.909 38.2 174.029 37.016 174.029 35.032C174.029 33 174.989 31.944 176.237 31.944C177.549 31.944 178.509 32.968 178.509 35.016C178.509 37.144 177.533 38.2 176.237 38.2ZM182.838 39V33.592C183.558 32.584 184.214 31.992 185.126 31.992C185.894 31.992 186.294 32.52 186.294 33.464V39H187.51V33.608C188.006 32.824 188.822 32.024 189.798 32.024C190.566 32.024 190.998 32.456 190.998 33.48V39H192.23V33.4C192.23 32.76 192.07 32.248 191.83 31.88C191.51 31.288 190.966 30.984 190.15 30.984C188.902 30.984 187.974 31.88 187.43 32.744C187.334 31.624 186.598 30.968 185.446 30.968C184.31 30.968 183.27 31.912 182.806 32.696V31.112H181.606V39H182.838ZM198.271 39.112C199.855 39.112 201.279 37.72 201.279 35.048C201.279 32.2 200.063 30.968 198.303 30.968C197.039 30.968 196.239 31.736 195.759 32.504V31.112H194.575V41.672H195.807V37.96C196.287 38.536 197.119 39.112 198.271 39.112ZM197.935 38.2C196.799 38.2 196.223 37.496 195.807 36.904V33.576C196.367 32.472 197.103 31.992 198.015 31.992C199.375 31.992 199.983 32.968 199.983 35.08C199.983 37.352 199.183 38.2 197.935 38.2ZM206.019 39.128C207.971 39.128 209.587 37.512 209.587 35.032C209.587 32.6 208.179 30.968 206.019 30.968C204.083 30.968 202.483 32.552 202.483 35.016C202.483 37.512 203.987 39.128 206.019 39.128ZM206.003 38.2C204.675 38.2 203.795 37.016 203.795 35.032C203.795 33 204.755 31.944 206.003 31.944C207.315 31.944 208.275 32.968 208.275 35.016C208.275 37.144 207.299 38.2 206.003 38.2ZM212.62 39V33.592C213.276 32.648 214.108 32.008 215.116 32.008C216.012 32.008 216.428 32.456 216.428 33.4V39H217.676V33.416C217.676 31.8 216.956 30.968 215.484 30.968C214.076 30.968 213.1 31.896 212.556 32.68V31.112H211.372V39H212.62ZM223.068 39.128C224.636 39.128 225.852 38.312 226.396 36.792L225.308 36.632C224.86 37.8 224.044 38.184 223.18 38.184C221.644 38.184 220.748 37.176 220.716 35.192H226.54C226.524 35.016 226.54 34.84 226.524 34.664C226.364 32.472 225.164 30.968 223.1 30.968C221.068 30.968 219.452 32.52 219.452 35.192C219.452 37.544 220.908 39.128 223.068 39.128ZM220.764 34.344C220.86 32.856 221.836 31.912 223.1 31.912C224.364 31.912 225.148 32.824 225.276 34.344H220.764ZM229.511 39V33.592C230.167 32.648 230.999 32.008 232.007 32.008C232.903 32.008 233.319 32.456 233.319 33.4V39H234.567V33.416C234.567 31.8 233.847 30.968 232.375 30.968C230.967 30.968 229.991 31.896 229.447 32.68V31.112H228.263V39H229.511ZM239.142 39.112C239.574 39.112 240.054 39.064 240.486 38.984V38.008C240.198 38.056 239.734 38.104 239.366 38.104C238.694 38.088 238.262 37.72 238.262 36.888V32.104H240.038V31.112H238.262V29.048H237.126L237.062 31.112H235.766V32.104H237.046V36.824C237.046 38.456 237.814 39.112 239.142 39.112ZM246.872 29.72V28.312H245.512V29.72H246.872ZM246.824 39V31.112H245.576V39H246.824ZM251.743 39.128C253.663 39.128 254.911 38.152 254.911 36.696C254.911 35.128 253.535 34.68 251.919 34.36C250.655 34.088 249.711 33.928 249.711 33.064C249.711 32.344 250.431 31.912 251.487 31.912C252.559 31.912 253.279 32.392 253.583 33.224L254.687 32.984C254.287 31.752 253.263 30.968 251.487 30.968C249.727 30.968 248.559 31.848 248.559 33.144C248.559 34.696 249.919 35.112 251.535 35.416C252.703 35.672 253.759 35.864 253.759 36.808C253.759 37.64 252.991 38.2 251.743 38.2C250.383 38.2 249.503 37.576 249.247 36.648L248.127 36.872C248.511 38.312 249.743 39.128 251.743 39.128ZM262.678 39.128C263.734 39.128 264.694 38.664 265.318 37.656V39H266.47V31.112H265.238V36.712C264.71 37.672 263.942 38.184 263.062 38.184C261.958 38.184 261.494 37.688 261.494 36.44V31.112H260.246V36.408C260.246 38.392 261.254 39.128 262.678 39.128ZM271.352 39.128C273.272 39.128 274.52 38.152 274.52 36.696C274.52 35.128 273.144 34.68 271.528 34.36C270.264 34.088 269.32 33.928 269.32 33.064C269.32 32.344 270.04 31.912 271.096 31.912C272.168 31.912 272.888 32.392 273.192 33.224L274.296 32.984C273.896 31.752 272.872 30.968 271.096 30.968C269.336 30.968 268.168 31.848 268.168 33.144C268.168 34.696 269.528 35.112 271.144 35.416C272.312 35.672 273.368 35.864 273.368 36.808C273.368 37.64 272.6 38.2 271.352 38.2C269.992 38.2 269.112 37.576 268.856 36.648L267.736 36.872C268.12 38.312 269.352 39.128 271.352 39.128ZM279.224 39.128C280.792 39.128 282.008 38.312 282.552 36.792L281.464 36.632C281.016 37.8 280.2 38.184 279.336 38.184C277.8 38.184 276.904 37.176 276.872 35.192H282.696C282.68 35.016 282.696 34.84 282.68 34.664C282.52 32.472 281.32 30.968 279.256 30.968C277.224 30.968 275.608 32.52 275.608 35.192C275.608 37.544 277.064 39.128 279.224 39.128ZM276.92 34.344C277.016 32.856 277.992 31.912 279.256 31.912C280.52 31.912 281.304 32.824 281.432 34.344H276.92ZM286.835 39.128C287.987 39.128 288.787 38.664 289.411 37.8V39H290.579V28.328H289.379V32.184C289.011 31.656 288.259 30.968 287.059 30.968C285.043 30.968 283.827 32.744 283.827 35.08C283.827 37.656 284.931 39.128 286.835 39.128ZM287.171 38.184C285.859 38.184 285.123 37.272 285.123 35.08C285.123 33.064 285.827 31.944 287.251 31.944C288.419 31.944 288.963 32.616 289.363 33.368V36.584C289.027 37.464 288.355 38.184 287.171 38.184ZM298.06 39V32.056H299.98V31.112H298.06C298.06 31.064 298.06 30.728 298.06 30.36C298.06 29.48 298.444 29.032 299.404 29.032C299.612 29.032 300.108 29.064 300.444 29.112V28.12C300.14 28.072 299.612 28.024 299.308 28.024C297.66 28.024 296.828 28.776 296.828 30.328C296.828 30.44 296.828 31 296.828 31.112H295.436V32.056H296.828V39H298.06ZM304.034 39.128C305.986 39.128 307.602 37.512 307.602 35.032C307.602 32.6 306.194 30.968 304.034 30.968C302.098 30.968 300.498 32.552 300.498 35.016C300.498 37.512 302.002 39.128 304.034 39.128ZM304.018 38.2C302.69 38.2 301.81 37.016 301.81 35.032C301.81 33 302.77 31.944 304.018 31.944C305.33 31.944 306.29 32.968 306.29 35.016C306.29 37.144 305.314 38.2 304.018 38.2ZM310.636 39V33.848C311.292 32.744 312.22 32.104 313.148 32.104C313.244 32.104 313.404 32.104 313.5 32.12V30.984C313.372 30.968 313.276 30.968 313.132 30.968C312.012 30.968 311.084 31.88 310.572 32.808V31.112H309.388V39H310.636ZM319.666 39V33.592C320.386 32.584 321.042 31.992 321.954 31.992C322.722 31.992 323.122 32.52 323.122 33.464V39H324.338V33.608C324.834 32.824 325.65 32.024 326.626 32.024C327.394 32.024 327.826 32.456 327.826 33.48V39H329.058V33.4C329.058 32.76 328.898 32.248 328.658 31.88C328.338 31.288 327.794 30.984 326.978 30.984C325.73 30.984 324.802 31.88 324.258 32.744C324.162 31.624 323.426 30.968 322.274 30.968C321.138 30.968 320.098 31.912 319.634 32.696V31.112H318.434V39H319.666ZM334.427 39.128C335.995 39.128 337.211 38.312 337.755 36.792L336.667 36.632C336.219 37.8 335.403 38.184 334.539 38.184C333.003 38.184 332.107 37.176 332.075 35.192H337.899C337.883 35.016 337.899 34.84 337.883 34.664C337.723 32.472 336.523 30.968 334.459 30.968C332.427 30.968 330.811 32.52 330.811 35.192C330.811 37.544 332.267 39.128 334.427 39.128ZM332.123 34.344C332.219 32.856 333.195 31.912 334.459 31.912C335.723 31.912 336.507 32.824 336.635 34.344H332.123ZM342.118 39.128C344.038 39.128 345.286 38.152 345.286 36.696C345.286 35.128 343.91 34.68 342.294 34.36C341.03 34.088 340.086 33.928 340.086 33.064C340.086 32.344 340.806 31.912 341.862 31.912C342.934 31.912 343.654 32.392 343.958 33.224L345.062 32.984C344.662 31.752 343.638 30.968 341.862 30.968C340.102 30.968 338.934 31.848 338.934 33.144C338.934 34.696 340.294 35.112 341.91 35.416C343.078 35.672 344.134 35.864 344.134 36.808C344.134 37.64 343.366 38.2 342.118 38.2C340.758 38.2 339.878 37.576 339.622 36.648L338.502 36.872C338.886 38.312 340.118 39.128 342.118 39.128ZM349.462 39.128C351.382 39.128 352.63 38.152 352.63 36.696C352.63 35.128 351.254 34.68 349.638 34.36C348.374 34.088 347.43 33.928 347.43 33.064C347.43 32.344 348.15 31.912 349.206 31.912C350.278 31.912 350.998 32.392 351.302 33.224L352.406 32.984C352.006 31.752 350.982 30.968 349.206 30.968C347.446 30.968 346.278 31.848 346.278 33.144C346.278 34.696 347.638 35.112 349.254 35.416C350.422 35.672 351.478 35.864 351.478 36.808C351.478 37.64 350.71 38.2 349.462 38.2C348.102 38.2 347.222 37.576 346.966 36.648L345.846 36.872C346.23 38.312 347.462 39.128 349.462 39.128ZM356.197 39.096C357.669 39.096 358.597 38.536 359.221 37.672C359.205 38.072 359.269 38.728 359.365 39H360.549C360.421 38.504 360.373 37.96 360.373 37.464V33.88C360.373 31.896 359.509 30.968 357.269 30.968C355.397 30.968 354.165 31.736 353.877 33.176L355.029 33.304C355.285 32.296 355.957 31.944 357.237 31.944C358.565 31.944 359.077 32.408 359.173 33.272C359.205 33.464 359.205 33.736 359.205 34.008C358.581 34.024 358.053 34.024 357.413 34.104C355.253 34.36 353.685 35.208 353.685 36.92C353.685 38.36 354.805 39.096 356.197 39.096ZM356.565 38.184C355.509 38.184 354.981 37.704 354.981 36.792C354.981 35.8 355.861 35.112 357.573 34.888C358.069 34.824 358.645 34.824 359.205 34.824V36.456C358.869 37.272 358.069 38.184 356.565 38.184ZM365.675 41.976C368.235 41.976 369.531 41.016 369.531 39.64C369.531 38.344 368.635 37.816 366.123 37.768C364.523 37.72 363.531 37.72 363.531 37.016C363.531 36.536 363.979 36.232 364.395 36.232C364.523 36.264 365.035 36.376 365.547 36.376C367.339 36.376 368.427 35.24 368.427 33.672C368.427 32.856 368.123 32.232 367.707 31.864C367.835 31.288 368.171 30.952 368.971 30.968C369.067 30.968 369.147 30.984 369.243 31L369.227 29.96C369.179 29.96 369.083 29.96 369.035 29.96C367.691 29.944 367.259 30.488 367.067 31.352C366.587 31.096 366.011 30.968 365.419 30.968C363.835 30.968 362.475 32.056 362.475 33.672C362.475 34.632 362.859 35.448 363.627 35.848C362.923 36.04 362.379 36.52 362.379 37.192C362.379 37.8 362.699 38.248 363.499 38.472C362.539 38.712 361.963 39.304 361.963 40.088C361.963 41.304 363.243 41.976 365.675 41.976ZM365.483 35.544C364.411 35.544 363.707 34.904 363.707 33.672C363.707 32.68 364.315 31.864 365.483 31.864C366.667 31.864 367.259 32.728 367.259 33.688C367.259 34.872 366.603 35.544 365.483 35.544ZM365.579 41.144C363.819 41.144 363.099 40.696 363.099 39.944C363.099 39.24 363.579 38.92 364.203 38.744C367.755 38.824 368.347 39 368.347 39.8C368.347 40.6 367.339 41.144 365.579 41.144ZM371.934 29.72V28.312H370.574V29.72H371.934ZM371.886 39V31.112H370.638V39H371.886ZM375.557 39V33.592C376.213 32.648 377.045 32.008 378.053 32.008C378.949 32.008 379.365 32.456 379.365 33.4V39H380.613V33.416C380.613 31.8 379.893 30.968 378.421 30.968C377.013 30.968 376.037 31.896 375.493 32.68V31.112H374.309V39H375.557ZM385.831 41.976C388.391 41.976 389.687 41.016 389.687 39.64C389.687 38.344 388.791 37.816 386.279 37.768C384.679 37.72 383.687 37.72 383.687 37.016C383.687 36.536 384.135 36.232 384.551 36.232C384.679 36.264 385.191 36.376 385.703 36.376C387.495 36.376 388.583 35.24 388.583 33.672C388.583 32.856 388.279 32.232 387.863 31.864C387.991 31.288 388.327 30.952 389.127 30.968C389.223 30.968 389.303 30.984 389.399 31L389.383 29.96C389.335 29.96 389.239 29.96 389.191 29.96C387.847 29.944 387.415 30.488 387.223 31.352C386.743 31.096 386.167 30.968 385.575 30.968C383.991 30.968 382.631 32.056 382.631 33.672C382.631 34.632 383.015 35.448 383.783 35.848C383.079 36.04 382.535 36.52 382.535 37.192C382.535 37.8 382.855 38.248 383.655 38.472C382.695 38.712 382.119 39.304 382.119 40.088C382.119 41.304 383.399 41.976 385.831 41.976ZM385.639 35.544C384.567 35.544 383.863 34.904 383.863 33.672C383.863 32.68 384.471 31.864 385.639 31.864C386.823 31.864 387.415 32.728 387.415 33.688C387.415 34.872 386.759 35.544 385.639 35.544ZM385.735 41.144C383.975 41.144 383.255 40.696 383.255 39.944C383.255 39.24 383.735 38.92 384.359 38.744C387.911 38.824 388.503 39 388.503 39.8C388.503 40.6 387.495 41.144 385.735 41.144Z" fill="#172A52"/>
<circle cx="473" cy="33" r="15.5" fill="white" stroke="#D5D5D5"/>
<path d="M473 31.586L477.293 27.293L478.707 28.707L474.414 33L478.707 37.293L477.293 38.707L473 34.414L468.707 38.707L467.293 37.293L471.586 33L467.293 28.707L468.707 27.293L473 31.586Z" fill="#111111"/>
<rect width="16" height="66" transform="translate(489 1)" fill="#4CAEE5" fill-opacity="0.1"/>
<path d="M489 1V67" stroke="#4CAEE5" stroke-width="0.5"/>
<path d="M505 1V67" stroke="#4CAEE5" stroke-width="0.5"/>
<path d="M505 33.6547L503 34.8094L503 32.5L505 33.6547Z" fill="#4CAEE5"/>
<path d="M489 33.6547L491 34.8094L491 32.5L489 33.6547Z" fill="#4CAEE5"/>
<rect x="488.5" y="26" width="17" height="16" rx="1" fill="#4CAEE5"/>
<path d="M494.609 39V30.4688H494.521L490.807 31.8105V33.2285L492.963 32.4551V39H494.609ZM502.15 30.3984H501.934C501.227 30.3984 500.604 30.5176 500.064 30.7559C499.525 30.9902 499.074 31.3164 498.711 31.7344C498.348 32.1562 498.074 32.6562 497.891 33.2344C497.707 33.8086 497.615 34.4336 497.615 35.1094V35.7363C497.615 36.2246 497.684 36.6758 497.82 37.0898C497.961 37.5 498.16 37.8555 498.418 38.1562C498.672 38.457 498.982 38.6934 499.35 38.8652C499.717 39.0332 500.129 39.1172 500.586 39.1172C501.023 39.1172 501.418 39.043 501.77 38.8945C502.121 38.7422 502.42 38.5352 502.666 38.2734C502.912 38.0117 503.102 37.7031 503.234 37.3477C503.367 36.9922 503.434 36.6074 503.434 36.1934C503.434 35.8066 503.383 35.4395 503.281 35.0918C503.184 34.7402 503.033 34.4316 502.83 34.166C502.627 33.9043 502.373 33.6973 502.068 33.5449C501.768 33.3887 501.414 33.3105 501.008 33.3105C500.809 33.3105 500.623 33.334 500.451 33.3809C500.279 33.4277 500.121 33.4883 499.977 33.5625C499.828 33.6406 499.695 33.7285 499.578 33.8262C499.461 33.9199 499.357 34.0156 499.268 34.1133C499.303 33.7578 499.387 33.4355 499.52 33.1465C499.656 32.8574 499.842 32.6094 500.076 32.4023C500.307 32.1953 500.586 32.0352 500.914 31.9219C501.246 31.8086 501.627 31.752 502.057 31.752H502.15V30.3984ZM500.533 34.6172C500.736 34.6172 500.916 34.6582 501.072 34.7402C501.232 34.8184 501.367 34.9277 501.477 35.0684C501.586 35.2129 501.67 35.3828 501.729 35.5781C501.787 35.7734 501.816 35.9863 501.816 36.2168C501.816 36.4473 501.787 36.6602 501.729 36.8555C501.67 37.0469 501.586 37.2129 501.477 37.3535C501.367 37.4941 501.234 37.6055 501.078 37.6875C500.922 37.7656 500.748 37.8047 500.557 37.8047C500.369 37.8047 500.195 37.7656 500.035 37.6875C499.875 37.6094 499.736 37.4922 499.619 37.3359C499.502 37.1836 499.41 36.9902 499.344 36.7559C499.281 36.5215 499.25 36.248 499.25 35.9355V35.4551C499.305 35.3379 499.371 35.2305 499.449 35.1328C499.531 35.0352 499.621 34.9492 499.719 34.875C499.832 34.793 499.957 34.7305 500.094 34.6875C500.23 34.6406 500.377 34.6172 500.533 34.6172Z" fill="white"/>
<rect width="16" height="66" transform="translate(1 1)" fill="#4CAEE5" fill-opacity="0.1"/>
<path d="M1 1V67" stroke="#4CAEE5" stroke-width="0.5"/>
<path d="M17 1V67" stroke="#4CAEE5" stroke-width="0.5"/>
<path d="M17 33.6547L15 34.8094L15 32.5L17 33.6547Z" fill="#4CAEE5"/>
<path d="M1 33.6547L3 34.8094L3 32.5L1 33.6547Z" fill="#4CAEE5"/>
<rect x="0.5" y="26" width="17" height="16" rx="1" fill="#4CAEE5"/>
<path d="M6.60938 39V30.4688H6.52148L2.80664 31.8105V33.2285L4.96289 32.4551V39H6.60938ZM14.1504 30.3984H13.9336C13.2266 30.3984 12.6035 30.5176 12.0645 30.7559C11.5254 30.9902 11.0742 31.3164 10.7109 31.7344C10.3477 32.1562 10.0742 32.6562 9.89062 33.2344C9.70703 33.8086 9.61523 34.4336 9.61523 35.1094V35.7363C9.61523 36.2246 9.68359 36.6758 9.82031 37.0898C9.96094 37.5 10.1602 37.8555 10.418 38.1562C10.6719 38.457 10.9824 38.6934 11.3496 38.8652C11.7168 39.0332 12.1289 39.1172 12.5859 39.1172C13.0234 39.1172 13.418 39.043 13.7695 38.8945C14.1211 38.7422 14.4199 38.5352 14.666 38.2734C14.9121 38.0117 15.1016 37.7031 15.2344 37.3477C15.3672 36.9922 15.4336 36.6074 15.4336 36.1934C15.4336 35.8066 15.3828 35.4395 15.2812 35.0918C15.1836 34.7402 15.0332 34.4316 14.8301 34.166C14.627 33.9043 14.373 33.6973 14.0684 33.5449C13.7676 33.3887 13.4141 33.3105 13.0078 33.3105C12.8086 33.3105 12.623 33.334 12.4512 33.3809C12.2793 33.4277 12.1211 33.4883 11.9766 33.5625C11.8281 33.6406 11.6953 33.7285 11.5781 33.8262C11.4609 33.9199 11.3574 34.0156 11.2676 34.1133C11.3027 33.7578 11.3867 33.4355 11.5195 33.1465C11.6562 32.8574 11.8418 32.6094 12.0762 32.4023C12.3066 32.1953 12.5859 32.0352 12.9141 31.9219C13.2461 31.8086 13.627 31.752 14.0566 31.752H14.1504V30.3984ZM12.5332 34.6172C12.7363 34.6172 12.916 34.6582 13.0723 34.7402C13.2324 34.8184 13.3672 34.9277 13.4766 35.0684C13.5859 35.2129 13.6699 35.3828 13.7285 35.5781C13.7871 35.7734 13.8164 35.9863 13.8164 36.2168C13.8164 36.4473 13.7871 36.6602 13.7285 36.8555C13.6699 37.0469 13.5859 37.2129 13.4766 37.3535C13.3672 37.4941 13.2344 37.6055 13.0781 37.6875C12.9219 37.7656 12.748 37.8047 12.5566 37.8047C12.3691 37.8047 12.1953 37.7656 12.0352 37.6875C11.875 37.6094 11.7363 37.4922 11.6191 37.3359C11.502 37.1836 11.4102 36.9902 11.3438 36.7559C11.2812 36.5215 11.25 36.248 11.25 35.9355V35.4551C11.3047 35.3379 11.3711 35.2305 11.4492 35.1328C11.5312 35.0352 11.6211 34.9492 11.7188 34.875C11.832 34.793 11.957 34.7305 12.0938 34.6875C12.2305 34.6406 12.377 34.6172 12.5332 34.6172Z" fill="white"/>
<rect width="504" height="48" transform="translate(1 103)" fill="#DDE6F2"/>
<path d="M26.024 124.28C26.179 124.28 26.283 124.383 26.283 124.539V130.829H28.39C28.545 130.829 28.649 130.934 28.649 131.089V132.239C28.649 132.396 28.545 132.499 28.39 132.499H22.259C22.103 132.499 22 132.396 22 132.239V131.089C22 130.934 22.103 130.829 22.259 130.829H24.443V125.829H22.517C22.362 125.829 22.259 125.726 22.259 125.569V124.539C22.259 124.384 22.362 124.281 22.517 124.281L26.024 124.28ZM25.156 120.65C25.796 120.65 26.302 121.157 26.302 121.796C26.302 122.435 25.795 122.942 25.156 122.942C25.0052 122.943 24.8557 122.914 24.7162 122.857C24.5767 122.8 24.4499 122.715 24.3433 122.609C24.2367 122.502 24.1523 122.375 24.0951 122.236C24.0379 122.096 24.0089 121.947 24.01 121.796C24.01 121.157 24.517 120.65 25.156 120.65V120.65Z" fill="#172A52"/>
<path d="M40.696 133V128.552H44.008V133H46.632V122.328H44.008V126.424H40.696V122.328H38.056V133H40.696ZM52.2795 133.128C54.3275 133.128 55.6395 132.136 56.1675 130.632L54.1035 130.36C53.8155 131.144 53.3035 131.544 52.5035 131.544C51.5275 131.544 50.7915 130.92 50.7595 129.496H56.2475C56.2635 129.32 56.2635 129.192 56.2635 129.016C56.1995 126.552 54.7435 124.92 52.2635 124.92C50.0555 124.92 48.1675 126.584 48.1675 129.144C48.1675 131.56 49.8955 133.128 52.2795 133.128ZM50.7915 128.2C50.8555 127.112 51.4955 126.472 52.2955 126.472C53.2235 126.472 53.6875 127.128 53.7675 128.2H50.7915ZM60.1591 133V122.328H57.6631V133H60.1591ZM64.5966 133V122.328H62.1006V133H64.5966ZM70.0901 133.128C72.5701 133.128 74.2341 131.368 74.2341 129.048C74.2341 126.584 72.6021 124.92 70.1381 124.92C67.7861 124.92 66.0581 126.632 66.0581 129.096C66.0581 131.416 67.7221 133.128 70.0901 133.128ZM70.1701 131.528C69.1781 131.528 68.6981 130.744 68.6981 129.016C68.6981 127.336 69.2101 126.568 70.1541 126.568C71.1301 126.568 71.5781 127.352 71.5781 129.016C71.5781 130.76 71.0821 131.528 70.1701 131.528ZM78.2068 127.56V125.064H75.6148V127.56H78.2068ZM78.2068 133V130.504H75.6148V133H78.2068ZM86.5129 133H87.8409V123.464H90.8649V133H92.1129V127.608C92.7689 126.664 93.5529 126.008 94.6569 126.008C95.4569 126.008 95.9369 126.456 95.9369 127.416V133H97.1849V127.32C97.1849 126.024 96.6089 124.968 95.0089 124.968C93.5369 124.968 92.5769 125.848 92.0649 126.664V122.312L83.4569 122.328V123.464H86.5129V133ZM100.887 123.72V122.312H99.5274V123.72H100.887ZM100.839 133V125.112H99.5914V133H100.839ZM105.759 133.128C107.679 133.128 108.927 132.152 108.927 130.696C108.927 129.128 107.551 128.68 105.935 128.36C104.671 128.088 103.727 127.928 103.727 127.064C103.727 126.344 104.447 125.912 105.503 125.912C106.575 125.912 107.295 126.392 107.599 127.224L108.703 126.984C108.303 125.752 107.279 124.968 105.503 124.968C103.743 124.968 102.575 125.848 102.575 127.144C102.575 128.696 103.935 129.112 105.551 129.416C106.719 129.672 107.775 129.864 107.775 130.808C107.775 131.64 107.007 132.2 105.759 132.2C104.399 132.2 103.519 131.576 103.263 130.648L102.143 130.872C102.527 132.312 103.759 133.128 105.759 133.128ZM117.926 133.112C119.718 133.112 121.014 131.752 121.014 129.032C121.014 126.392 119.91 124.968 118.022 124.968C116.886 124.968 115.878 125.752 115.478 126.616V122.328H114.294V133H114.982L115.382 131.688C115.894 132.584 116.742 133.112 117.926 133.112ZM117.686 132.216C116.422 132.216 115.494 131.272 115.494 129.624V127.72C115.926 126.808 116.582 125.96 117.734 125.96C119.062 125.96 119.734 127 119.734 129.064C119.734 131.272 119.03 132.216 117.686 132.216ZM124.713 133.096C126.185 133.096 127.113 132.536 127.737 131.672C127.721 132.072 127.785 132.728 127.881 133H129.065C128.937 132.504 128.889 131.96 128.889 131.464V127.88C128.889 125.896 128.025 124.968 125.785 124.968C123.913 124.968 122.681 125.736 122.393 127.176L123.545 127.304C123.801 126.296 124.473 125.944 125.753 125.944C127.081 125.944 127.593 126.408 127.689 127.272C127.721 127.464 127.721 127.736 127.721 128.008C127.097 128.024 126.569 128.024 125.929 128.104C123.769 128.36 122.201 129.208 122.201 130.92C122.201 132.36 123.321 133.096 124.713 133.096ZM125.081 132.184C124.025 132.184 123.497 131.704 123.497 130.792C123.497 129.8 124.377 129.112 126.089 128.888C126.585 128.824 127.161 128.824 127.721 128.824V130.456C127.385 131.272 126.585 132.184 125.081 132.184ZM132.511 133V127.592C133.167 126.648 133.999 126.008 135.007 126.008C135.903 126.008 136.319 126.456 136.319 127.4V133H137.567V127.416C137.567 125.8 136.847 124.968 135.375 124.968C133.967 124.968 132.991 125.896 132.447 126.68V125.112H131.263V133H132.511ZM141.182 133V127.592C141.838 126.648 142.67 126.008 143.678 126.008C144.574 126.008 144.99 126.456 144.99 127.4V133H146.238V127.416C146.238 125.8 145.518 124.968 144.046 124.968C142.638 124.968 141.662 125.896 141.118 126.68V125.112H139.934V133H141.182ZM151.63 133.128C153.198 133.128 154.414 132.312 154.958 130.792L153.87 130.632C153.422 131.8 152.606 132.184 151.742 132.184C150.206 132.184 149.31 131.176 149.278 129.192H155.102C155.086 129.016 155.102 128.84 155.086 128.664C154.926 126.472 153.726 124.968 151.662 124.968C149.63 124.968 148.014 126.52 148.014 129.192C148.014 131.544 149.47 133.128 151.63 133.128ZM149.326 128.344C149.422 126.856 150.398 125.912 151.662 125.912C152.926 125.912 153.71 126.824 153.838 128.344H149.326ZM158.073 133V127.848C158.729 126.744 159.657 126.104 160.585 126.104C160.681 126.104 160.841 126.104 160.937 126.12V124.984C160.809 124.968 160.713 124.968 160.569 124.968C159.449 124.968 158.521 125.88 158.009 126.808V125.112H156.825V133H158.073ZM168.656 133.128C170.224 133.128 171.392 132.216 171.664 130.44L170.576 130.328C170.336 131.64 169.728 132.2 168.688 132.2C167.504 132.2 166.576 131.224 166.576 129.048C166.576 127.08 167.344 125.96 168.608 125.96C169.696 125.96 170.32 126.664 170.512 127.96L171.68 127.816C171.328 125.88 170.272 124.968 168.592 124.968C166.592 124.968 165.264 126.728 165.264 129.016C165.264 131.656 166.72 133.128 168.656 133.128ZM176.253 133.128C178.205 133.128 179.821 131.512 179.821 129.032C179.821 126.6 178.413 124.968 176.253 124.968C174.317 124.968 172.717 126.552 172.717 129.016C172.717 131.512 174.221 133.128 176.253 133.128ZM176.237 132.2C174.909 132.2 174.029 131.016 174.029 129.032C174.029 127 174.989 125.944 176.237 125.944C177.549 125.944 178.509 126.968 178.509 129.016C178.509 131.144 177.533 132.2 176.237 132.2ZM182.838 133V127.592C183.558 126.584 184.214 125.992 185.126 125.992C185.894 125.992 186.294 126.52 186.294 127.464V133H187.51V127.608C188.006 126.824 188.822 126.024 189.798 126.024C190.566 126.024 190.998 126.456 190.998 127.48V133H192.23V127.4C192.23 126.76 192.07 126.248 191.83 125.88C191.51 125.288 190.966 124.984 190.15 124.984C188.902 124.984 187.974 125.88 187.43 126.744C187.334 125.624 186.598 124.968 185.446 124.968C184.31 124.968 183.27 125.912 182.806 126.696V125.112H181.606V133H182.838ZM198.271 133.112C199.855 133.112 201.279 131.72 201.279 129.048C201.279 126.2 200.063 124.968 198.303 124.968C197.039 124.968 196.239 125.736 195.759 126.504V125.112H194.575V135.672H195.807V131.96C196.287 132.536 197.119 133.112 198.271 133.112ZM197.935 132.2C196.799 132.2 196.223 131.496 195.807 130.904V127.576C196.367 126.472 197.103 125.992 198.015 125.992C199.375 125.992 199.983 126.968 199.983 129.08C199.983 131.352 199.183 132.2 197.935 132.2ZM206.019 133.128C207.971 133.128 209.587 131.512 209.587 129.032C209.587 126.6 208.179 124.968 206.019 124.968C204.083 124.968 202.483 126.552 202.483 129.016C202.483 131.512 203.987 133.128 206.019 133.128ZM206.003 132.2C204.675 132.2 203.795 131.016 203.795 129.032C203.795 127 204.755 125.944 206.003 125.944C207.315 125.944 208.275 126.968 208.275 129.016C208.275 131.144 207.299 132.2 206.003 132.2ZM212.62 133V127.592C213.276 126.648 214.108 126.008 215.116 126.008C216.012 126.008 216.428 126.456 216.428 127.4V133H217.676V127.416C217.676 125.8 216.956 124.968 215.484 124.968C214.076 124.968 213.1 125.896 212.556 126.68V125.112H211.372V133H212.62ZM223.068 133.128C224.636 133.128 225.852 132.312 226.396 130.792L225.308 130.632C224.86 131.8 224.044 132.184 223.18 132.184C221.644 132.184 220.748 131.176 220.716 129.192H226.54C226.524 129.016 226.54 128.84 226.524 128.664C226.364 126.472 225.164 124.968 223.1 124.968C221.068 124.968 219.452 126.52 219.452 129.192C219.452 131.544 220.908 133.128 223.068 133.128ZM220.764 128.344C220.86 126.856 221.836 125.912 223.1 125.912C224.364 125.912 225.148 126.824 225.276 128.344H220.764ZM229.511 133V127.592C230.167 126.648 230.999 126.008 232.007 126.008C232.903 126.008 233.319 126.456 233.319 127.4V133H234.567V127.416C234.567 125.8 233.847 124.968 232.375 124.968C230.967 124.968 229.991 125.896 229.447 126.68V125.112H228.263V133H229.511ZM239.142 133.112C239.574 133.112 240.054 133.064 240.486 132.984V132.008C240.198 132.056 239.734 132.104 239.366 132.104C238.694 132.088 238.262 131.72 238.262 130.888V126.104H240.038V125.112H238.262V123.048H237.126L237.062 125.112H235.766V126.104H237.046V130.824C237.046 132.456 237.814 133.112 239.142 133.112ZM246.872 123.72V122.312H245.512V123.72H246.872ZM246.824 133V125.112H245.576V133H246.824ZM251.743 133.128C253.663 133.128 254.911 132.152 254.911 130.696C254.911 129.128 253.535 128.68 251.919 128.36C250.655 128.088 249.711 127.928 249.711 127.064C249.711 126.344 250.431 125.912 251.487 125.912C252.559 125.912 253.279 126.392 253.583 127.224L254.687 126.984C254.287 125.752 253.263 124.968 251.487 124.968C249.727 124.968 248.559 125.848 248.559 127.144C248.559 128.696 249.919 129.112 251.535 129.416C252.703 129.672 253.759 129.864 253.759 130.808C253.759 131.64 252.991 132.2 251.743 132.2C250.383 132.2 249.503 131.576 249.247 130.648L248.127 130.872C248.511 132.312 249.743 133.128 251.743 133.128ZM262.678 133.128C263.734 133.128 264.694 132.664 265.318 131.656V133H266.47V125.112H265.238V130.712C264.71 131.672 263.942 132.184 263.062 132.184C261.958 132.184 261.494 131.688 261.494 130.44V125.112H260.246V130.408C260.246 132.392 261.254 133.128 262.678 133.128ZM271.352 133.128C273.272 133.128 274.52 132.152 274.52 130.696C274.52 129.128 273.144 128.68 271.528 128.36C270.264 128.088 269.32 127.928 269.32 127.064C269.32 126.344 270.04 125.912 271.096 125.912C272.168 125.912 272.888 126.392 273.192 127.224L274.296 126.984C273.896 125.752 272.872 124.968 271.096 124.968C269.336 124.968 268.168 125.848 268.168 127.144C268.168 128.696 269.528 129.112 271.144 129.416C272.312 129.672 273.368 129.864 273.368 130.808C273.368 131.64 272.6 132.2 271.352 132.2C269.992 132.2 269.112 131.576 268.856 130.648L267.736 130.872C268.12 132.312 269.352 133.128 271.352 133.128ZM279.224 133.128C280.792 133.128 282.008 132.312 282.552 130.792L281.464 130.632C281.016 131.8 280.2 132.184 279.336 132.184C277.8 132.184 276.904 131.176 276.872 129.192H282.696C282.68 129.016 282.696 128.84 282.68 128.664C282.52 126.472 281.32 124.968 279.256 124.968C277.224 124.968 275.608 126.52 275.608 129.192C275.608 131.544 277.064 133.128 279.224 133.128ZM276.92 128.344C277.016 126.856 277.992 125.912 279.256 125.912C280.52 125.912 281.304 126.824 281.432 128.344H276.92ZM286.835 133.128C287.987 133.128 288.787 132.664 289.411 131.8V133H290.579V122.328H289.379V126.184C289.011 125.656 288.259 124.968 287.059 124.968C285.043 124.968 283.827 126.744 283.827 129.08C283.827 131.656 284.931 133.128 286.835 133.128ZM287.171 132.184C285.859 132.184 285.123 131.272 285.123 129.08C285.123 127.064 285.827 125.944 287.251 125.944C288.419 125.944 288.963 126.616 289.363 127.368V130.584C289.027 131.464 288.355 132.184 287.171 132.184ZM298.06 133V126.056H299.98V125.112H298.06C298.06 125.064 298.06 124.728 298.06 124.36C298.06 123.48 298.444 123.032 299.404 123.032C299.612 123.032 300.108 123.064 300.444 123.112V122.12C300.14 122.072 299.612 122.024 299.308 122.024C297.66 122.024 296.828 122.776 296.828 124.328C296.828 124.44 296.828 125 296.828 125.112H295.436V126.056H296.828V133H298.06ZM304.034 133.128C305.986 133.128 307.602 131.512 307.602 129.032C307.602 126.6 306.194 124.968 304.034 124.968C302.098 124.968 300.498 126.552 300.498 129.016C300.498 131.512 302.002 133.128 304.034 133.128ZM304.018 132.2C302.69 132.2 301.81 131.016 301.81 129.032C301.81 127 302.77 125.944 304.018 125.944C305.33 125.944 306.29 126.968 306.29 129.016C306.29 131.144 305.314 132.2 304.018 132.2ZM310.636 133V127.848C311.292 126.744 312.22 126.104 313.148 126.104C313.244 126.104 313.404 126.104 313.5 126.12V124.984C313.372 124.968 313.276 124.968 313.132 124.968C312.012 124.968 311.084 125.88 310.572 126.808V125.112H309.388V133H310.636ZM319.666 133V127.592C320.386 126.584 321.042 125.992 321.954 125.992C322.722 125.992 323.122 126.52 323.122 127.464V133H324.338V127.608C324.834 126.824 325.65 126.024 326.626 126.024C327.394 126.024 327.826 126.456 327.826 127.48V133H329.058V127.4C329.058 126.76 328.898 126.248 328.658 125.88C328.338 125.288 327.794 124.984 326.978 124.984C325.73 124.984 324.802 125.88 324.258 126.744C324.162 125.624 323.426 124.968 322.274 124.968C321.138 124.968 320.098 125.912 319.634 126.696V125.112H318.434V133H319.666ZM334.427 133.128C335.995 133.128 337.211 132.312 337.755 130.792L336.667 130.632C336.219 131.8 335.403 132.184 334.539 132.184C333.003 132.184 332.107 131.176 332.075 129.192H337.899C337.883 129.016 337.899 128.84 337.883 128.664C337.723 126.472 336.523 124.968 334.459 124.968C332.427 124.968 330.811 126.52 330.811 129.192C330.811 131.544 332.267 133.128 334.427 133.128ZM332.123 128.344C332.219 126.856 333.195 125.912 334.459 125.912C335.723 125.912 336.507 126.824 336.635 128.344H332.123ZM342.118 133.128C344.038 133.128 345.286 132.152 345.286 130.696C345.286 129.128 343.91 128.68 342.294 128.36C341.03 128.088 340.086 127.928 340.086 127.064C340.086 126.344 340.806 125.912 341.862 125.912C342.934 125.912 343.654 126.392 343.958 127.224L345.062 126.984C344.662 125.752 343.638 124.968 341.862 124.968C340.102 124.968 338.934 125.848 338.934 127.144C338.934 128.696 340.294 129.112 341.91 129.416C343.078 129.672 344.134 129.864 344.134 130.808C344.134 131.64 343.366 132.2 342.118 132.2C340.758 132.2 339.878 131.576 339.622 130.648L338.502 130.872C338.886 132.312 340.118 133.128 342.118 133.128ZM349.462 133.128C351.382 133.128 352.63 132.152 352.63 130.696C352.63 129.128 351.254 128.68 349.638 128.36C348.374 128.088 347.43 127.928 347.43 127.064C347.43 126.344 348.15 125.912 349.206 125.912C350.278 125.912 350.998 126.392 351.302 127.224L352.406 126.984C352.006 125.752 350.982 124.968 349.206 124.968C347.446 124.968 346.278 125.848 346.278 127.144C346.278 128.696 347.638 129.112 349.254 129.416C350.422 129.672 351.478 129.864 351.478 130.808C351.478 131.64 350.71 132.2 349.462 132.2C348.102 132.2 347.222 131.576 346.966 130.648L345.846 130.872C346.23 132.312 347.462 133.128 349.462 133.128ZM356.197 133.096C357.669 133.096 358.597 132.536 359.221 131.672C359.205 132.072 359.269 132.728 359.365 133H360.549C360.421 132.504 360.373 131.96 360.373 131.464V127.88C360.373 125.896 359.509 124.968 357.269 124.968C355.397 124.968 354.165 125.736 353.877 127.176L355.029 127.304C355.285 126.296 355.957 125.944 357.237 125.944C358.565 125.944 359.077 126.408 359.173 127.272C359.205 127.464 359.205 127.736 359.205 128.008C358.581 128.024 358.053 128.024 357.413 128.104C355.253 128.36 353.685 129.208 353.685 130.92C353.685 132.36 354.805 133.096 356.197 133.096ZM356.565 132.184C355.509 132.184 354.981 131.704 354.981 130.792C354.981 129.8 355.861 129.112 357.573 128.888C358.069 128.824 358.645 128.824 359.205 128.824V130.456C358.869 131.272 358.069 132.184 356.565 132.184ZM365.675 135.976C368.235 135.976 369.531 135.016 369.531 133.64C369.531 132.344 368.635 131.816 366.123 131.768C364.523 131.72 363.531 131.72 363.531 131.016C363.531 130.536 363.979 130.232 364.395 130.232C364.523 130.264 365.035 130.376 365.547 130.376C367.339 130.376 368.427 129.24 368.427 127.672C368.427 126.856 368.123 126.232 367.707 125.864C367.835 125.288 368.171 124.952 368.971 124.968C369.067 124.968 369.147 124.984 369.243 125L369.227 123.96C369.179 123.96 369.083 123.96 369.035 123.96C367.691 123.944 367.259 124.488 367.067 125.352C366.587 125.096 366.011 124.968 365.419 124.968C363.835 124.968 362.475 126.056 362.475 127.672C362.475 128.632 362.859 129.448 363.627 129.848C362.923 130.04 362.379 130.52 362.379 131.192C362.379 131.8 362.699 132.248 363.499 132.472C362.539 132.712 361.963 133.304 361.963 134.088C361.963 135.304 363.243 135.976 365.675 135.976ZM365.483 129.544C364.411 129.544 363.707 128.904 363.707 127.672C363.707 126.68 364.315 125.864 365.483 125.864C366.667 125.864 367.259 126.728 367.259 127.688C367.259 128.872 366.603 129.544 365.483 129.544ZM365.579 135.144C363.819 135.144 363.099 134.696 363.099 133.944C363.099 133.24 363.579 132.92 364.203 132.744C367.755 132.824 368.347 133 368.347 133.8C368.347 134.6 367.339 135.144 365.579 135.144ZM371.934 123.72V122.312H370.574V123.72H371.934ZM371.886 133V125.112H370.638V133H371.886ZM375.557 133V127.592C376.213 126.648 377.045 126.008 378.053 126.008C378.949 126.008 379.365 126.456 379.365 127.4V133H380.613V127.416C380.613 125.8 379.893 124.968 378.421 124.968C377.013 124.968 376.037 125.896 375.493 126.68V125.112H374.309V133H375.557ZM385.831 135.976C388.391 135.976 389.687 135.016 389.687 133.64C389.687 132.344 388.791 131.816 386.279 131.768C384.679 131.72 383.687 131.72 383.687 131.016C383.687 130.536 384.135 130.232 384.551 130.232C384.679 130.264 385.191 130.376 385.703 130.376C387.495 130.376 388.583 129.24 388.583 127.672C388.583 126.856 388.279 126.232 387.863 125.864C387.991 125.288 388.327 124.952 389.127 124.968C389.223 124.968 389.303 124.984 389.399 125L389.383 123.96C389.335 123.96 389.239 123.96 389.191 123.96C387.847 123.944 387.415 124.488 387.223 125.352C386.743 125.096 386.167 124.968 385.575 124.968C383.991 124.968 382.631 126.056 382.631 127.672C382.631 128.632 383.015 129.448 383.783 129.848C383.079 130.04 382.535 130.52 382.535 131.192C382.535 131.8 382.855 132.248 383.655 132.472C382.695 132.712 382.119 133.304 382.119 134.088C382.119 135.304 383.399 135.976 385.831 135.976ZM385.639 129.544C384.567 129.544 383.863 128.904 383.863 127.672C383.863 126.68 384.471 125.864 385.639 125.864C386.823 125.864 387.415 126.728 387.415 127.688C387.415 128.872 386.759 129.544 385.639 129.544ZM385.735 135.144C383.975 135.144 383.255 134.696 383.255 133.944C383.255 133.24 383.735 132.92 384.359 132.744C387.911 132.824 388.503 133 388.503 133.8C388.503 134.6 387.495 135.144 385.735 135.144Z" fill="#172A52"/>
<rect width="16" height="48" transform="translate(489 103)" fill="#4CAEE5" fill-opacity="0.1"/>
<path d="M489 103V151" stroke="#4CAEE5" stroke-width="0.5"/>
<path d="M505 103V151" stroke="#4CAEE5" stroke-width="0.5"/>
<path d="M505 126.655L503 127.809L503 125.5L505 126.655Z" fill="#4CAEE5"/>
<path d="M489 126.655L491 127.809L491 125.5L489 126.655Z" fill="#4CAEE5"/>
<rect x="488.5" y="119" width="17" height="16" rx="1" fill="#4CAEE5"/>
<path d="M494.609 132V123.469H494.521L490.807 124.811V126.229L492.963 125.455V132H494.609ZM502.15 123.398H501.934C501.227 123.398 500.604 123.518 500.064 123.756C499.525 123.99 499.074 124.316 498.711 124.734C498.348 125.156 498.074 125.656 497.891 126.234C497.707 126.809 497.615 127.434 497.615 128.109V128.736C497.615 129.225 497.684 129.676 497.82 130.09C497.961 130.5 498.16 130.855 498.418 131.156C498.672 131.457 498.982 131.693 499.35 131.865C499.717 132.033 500.129 132.117 500.586 132.117C501.023 132.117 501.418 132.043 501.77 131.895C502.121 131.742 502.42 131.535 502.666 131.273C502.912 131.012 503.102 130.703 503.234 130.348C503.367 129.992 503.434 129.607 503.434 129.193C503.434 128.807 503.383 128.439 503.281 128.092C503.184 127.74 503.033 127.432 502.83 127.166C502.627 126.904 502.373 126.697 502.068 126.545C501.768 126.389 501.414 126.311 501.008 126.311C500.809 126.311 500.623 126.334 500.451 126.381C500.279 126.428 500.121 126.488 499.977 126.562C499.828 126.641 499.695 126.729 499.578 126.826C499.461 126.92 499.357 127.016 499.268 127.113C499.303 126.758 499.387 126.436 499.52 126.146C499.656 125.857 499.842 125.609 500.076 125.402C500.307 125.195 500.586 125.035 500.914 124.922C501.246 124.809 501.627 124.752 502.057 124.752H502.15V123.398ZM500.533 127.617C500.736 127.617 500.916 127.658 501.072 127.74C501.232 127.818 501.367 127.928 501.477 128.068C501.586 128.213 501.67 128.383 501.729 128.578C501.787 128.773 501.816 128.986 501.816 129.217C501.816 129.447 501.787 129.66 501.729 129.855C501.67 130.047 501.586 130.213 501.477 130.354C501.367 130.494 501.234 130.605 501.078 130.688C500.922 130.766 500.748 130.805 500.557 130.805C500.369 130.805 500.195 130.766 500.035 130.688C499.875 130.609 499.736 130.492 499.619 130.336C499.502 130.184 499.41 129.99 499.344 129.756C499.281 129.521 499.25 129.248 499.25 128.936V128.455C499.305 128.338 499.371 128.23 499.449 128.133C499.531 128.035 499.621 127.949 499.719 127.875C499.832 127.793 499.957 127.73 500.094 127.688C500.23 127.641 500.377 127.617 500.533 127.617Z" fill="white"/>
<rect width="16" height="48" transform="translate(1 103)" fill="#4CAEE5" fill-opacity="0.1"/>
<path d="M1 103V151" stroke="#4CAEE5" stroke-width="0.5"/>
<path d="M17 103V151" stroke="#4CAEE5" stroke-width="0.5"/>
<path d="M17 126.655L15 127.809L15 125.5L17 126.655Z" fill="#4CAEE5"/>
<path d="M1 126.655L3 127.809L3 125.5L1 126.655Z" fill="#4CAEE5"/>
<rect x="0.5" y="119" width="17" height="16" rx="1" fill="#4CAEE5"/>
<path d="M6.60938 132V123.469H6.52148L2.80664 124.811V126.229L4.96289 125.455V132H6.60938ZM14.1504 123.398H13.9336C13.2266 123.398 12.6035 123.518 12.0645 123.756C11.5254 123.99 11.0742 124.316 10.7109 124.734C10.3477 125.156 10.0742 125.656 9.89062 126.234C9.70703 126.809 9.61523 127.434 9.61523 128.109V128.736C9.61523 129.225 9.68359 129.676 9.82031 130.09C9.96094 130.5 10.1602 130.855 10.418 131.156C10.6719 131.457 10.9824 131.693 11.3496 131.865C11.7168 132.033 12.1289 132.117 12.5859 132.117C13.0234 132.117 13.418 132.043 13.7695 131.895C14.1211 131.742 14.4199 131.535 14.666 131.273C14.9121 131.012 15.1016 130.703 15.2344 130.348C15.3672 129.992 15.4336 129.607 15.4336 129.193C15.4336 128.807 15.3828 128.439 15.2812 128.092C15.1836 127.74 15.0332 127.432 14.8301 127.166C14.627 126.904 14.373 126.697 14.0684 126.545C13.7676 126.389 13.4141 126.311 13.0078 126.311C12.8086 126.311 12.623 126.334 12.4512 126.381C12.2793 126.428 12.1211 126.488 11.9766 126.562C11.8281 126.641 11.6953 126.729 11.5781 126.826C11.4609 126.92 11.3574 127.016 11.2676 127.113C11.3027 126.758 11.3867 126.436 11.5195 126.146C11.6562 125.857 11.8418 125.609 12.0762 125.402C12.3066 125.195 12.5859 125.035 12.9141 124.922C13.2461 124.809 13.627 124.752 14.0566 124.752H14.1504V123.398ZM12.5332 127.617C12.7363 127.617 12.916 127.658 13.0723 127.74C13.2324 127.818 13.3672 127.928 13.4766 128.068C13.5859 128.213 13.6699 128.383 13.7285 128.578C13.7871 128.773 13.8164 128.986 13.8164 129.217C13.8164 129.447 13.7871 129.66 13.7285 129.855C13.6699 130.047 13.5859 130.213 13.4766 130.354C13.3672 130.494 13.2344 130.605 13.0781 130.688C12.9219 130.766 12.748 130.805 12.5566 130.805C12.3691 130.805 12.1953 130.766 12.0352 130.688C11.875 130.609 11.7363 130.492 11.6191 130.336C11.502 130.184 11.4102 129.99 11.3438 129.756C11.2812 129.521 11.25 129.248 11.25 128.936V128.455C11.3047 128.338 11.3711 128.23 11.4492 128.133C11.5312 128.035 11.6211 127.949 11.7188 127.875C11.832 127.793 11.957 127.73 12.0938 127.688C12.2305 127.641 12.377 127.617 12.5332 127.617Z" fill="white"/>
<rect width="488" height="16" transform="translate(1 103)" fill="#4CAEE5" fill-opacity="0.1"/>
<path d="M489 103L1 103" stroke="#4CAEE5" stroke-width="0.5"/>
<path d="M489 119L1 119" stroke="#4CAEE5" stroke-width="0.5"/>
<path d="M245.345 119L244.191 117L246.5 117L245.345 119Z" fill="#4CAEE5"/>
<path d="M245.345 103L244.191 105H246.5L245.345 103Z" fill="#4CAEE5"/>
<rect x="236.5" y="103" width="17" height="16" rx="1" fill="#4CAEE5"/>
<path d="M242.609 116V107.469H242.521L238.807 108.811V110.229L240.963 109.455V116H242.609ZM250.15 107.398H249.934C249.227 107.398 248.604 107.518 248.064 107.756C247.525 107.99 247.074 108.316 246.711 108.734C246.348 109.156 246.074 109.656 245.891 110.234C245.707 110.809 245.615 111.434 245.615 112.109V112.736C245.615 113.225 245.684 113.676 245.82 114.09C245.961 114.5 246.16 114.855 246.418 115.156C246.672 115.457 246.982 115.693 247.35 115.865C247.717 116.033 248.129 116.117 248.586 116.117C249.023 116.117 249.418 116.043 249.77 115.895C250.121 115.742 250.42 115.535 250.666 115.273C250.912 115.012 251.102 114.703 251.234 114.348C251.367 113.992 251.434 113.607 251.434 113.193C251.434 112.807 251.383 112.439 251.281 112.092C251.184 111.74 251.033 111.432 250.83 111.166C250.627 110.904 250.373 110.697 250.068 110.545C249.768 110.389 249.414 110.311 249.008 110.311C248.809 110.311 248.623 110.334 248.451 110.381C248.279 110.428 248.121 110.488 247.977 110.562C247.828 110.641 247.695 110.729 247.578 110.826C247.461 110.92 247.357 111.016 247.268 111.113C247.303 110.758 247.387 110.436 247.52 110.146C247.656 109.857 247.842 109.609 248.076 109.402C248.307 109.195 248.586 109.035 248.914 108.922C249.246 108.809 249.627 108.752 250.057 108.752H250.15V107.398ZM248.533 111.617C248.736 111.617 248.916 111.658 249.072 111.74C249.232 111.818 249.367 111.928 249.477 112.068C249.586 112.213 249.67 112.383 249.729 112.578C249.787 112.773 249.816 112.986 249.816 113.217C249.816 113.447 249.787 113.66 249.729 113.855C249.67 114.047 249.586 114.213 249.477 114.354C249.367 114.494 249.234 114.605 249.078 114.688C248.922 114.766 248.748 114.805 248.557 114.805C248.369 114.805 248.195 114.766 248.035 114.688C247.875 114.609 247.736 114.492 247.619 114.336C247.502 114.184 247.41 113.99 247.344 113.756C247.281 113.521 247.25 113.248 247.25 112.936V112.455C247.305 112.338 247.371 112.23 247.449 112.133C247.531 112.035 247.621 111.949 247.719 111.875C247.832 111.793 247.957 111.73 248.094 111.688C248.23 111.641 248.377 111.617 248.533 111.617Z" fill="white"/>
<rect width="488" height="16" transform="translate(1 135)" fill="#4CAEE5" fill-opacity="0.1"/>
<path d="M489 135L1 135" stroke="#4CAEE5" stroke-width="0.5"/>
<path d="M489 151L1 151" stroke="#4CAEE5" stroke-width="0.5"/>
<path d="M245.345 151L244.191 149L246.5 149L245.345 151Z" fill="#4CAEE5"/>
<path d="M245.345 135L244.191 137H246.5L245.345 135Z" fill="#4CAEE5"/>
<rect x="236.5" y="135" width="17" height="16" rx="1" fill="#4CAEE5"/>
<path d="M242.609 148V139.469H242.521L238.807 140.811V142.229L240.963 141.455V148H242.609ZM250.15 139.398H249.934C249.227 139.398 248.604 139.518 248.064 139.756C247.525 139.99 247.074 140.316 246.711 140.734C246.348 141.156 246.074 141.656 245.891 142.234C245.707 142.809 245.615 143.434 245.615 144.109V144.736C245.615 145.225 245.684 145.676 245.82 146.09C245.961 146.5 246.16 146.855 246.418 147.156C246.672 147.457 246.982 147.693 247.35 147.865C247.717 148.033 248.129 148.117 248.586 148.117C249.023 148.117 249.418 148.043 249.77 147.895C250.121 147.742 250.42 147.535 250.666 147.273C250.912 147.012 251.102 146.703 251.234 146.348C251.367 145.992 251.434 145.607 251.434 145.193C251.434 144.807 251.383 144.439 251.281 144.092C251.184 143.74 251.033 143.432 250.83 143.166C250.627 142.904 250.373 142.697 250.068 142.545C249.768 142.389 249.414 142.311 249.008 142.311C248.809 142.311 248.623 142.334 248.451 142.381C248.279 142.428 248.121 142.488 247.977 142.562C247.828 142.641 247.695 142.729 247.578 142.826C247.461 142.92 247.357 143.016 247.268 143.113C247.303 142.758 247.387 142.436 247.52 142.146C247.656 141.857 247.842 141.609 248.076 141.402C248.307 141.195 248.586 141.035 248.914 140.922C249.246 140.809 249.627 140.752 250.057 140.752H250.15V139.398ZM248.533 143.617C248.736 143.617 248.916 143.658 249.072 143.74C249.232 143.818 249.367 143.928 249.477 144.068C249.586 144.213 249.67 144.383 249.729 144.578C249.787 144.773 249.816 144.986 249.816 145.217C249.816 145.447 249.787 145.66 249.729 145.855C249.67 146.047 249.586 146.213 249.477 146.354C249.367 146.494 249.234 146.605 249.078 146.688C248.922 146.766 248.748 146.805 248.557 146.805C248.369 146.805 248.195 146.766 248.035 146.688C247.875 146.609 247.736 146.492 247.619 146.336C247.502 146.184 247.41 145.99 247.344 145.756C247.281 145.521 247.25 145.248 247.25 144.936V144.455C247.305 144.338 247.371 144.23 247.449 144.133C247.531 144.035 247.621 143.949 247.719 143.875C247.832 143.793 247.957 143.73 248.094 143.688C248.23 143.641 248.377 143.617 248.533 143.617Z" fill="white"/>
<rect width="32" height="16" transform="translate(457 49)" fill="#4CAEE5" fill-opacity="0.1"/>
<path d="M489 49L457 49" stroke="#4CAEE5" stroke-width="0.5"/>
<path d="M489 65L457 65" stroke="#4CAEE5" stroke-width="0.5"/>
<path d="M473.345 65L472.191 63L474.5 63L473.345 65Z" fill="#4CAEE5"/>
<path d="M473.345 49L472.191 51H474.5L473.345 49Z" fill="#4CAEE5"/>
<rect x="468" y="53" width="10" height="8" rx="1" fill="#4CAEE5"/>
<path d="M471.805 59V54.7344H471.761L469.903 55.4053V56.1143L470.981 55.7275V59H471.805ZM475.575 54.6992H475.467C475.113 54.6992 474.802 54.7588 474.532 54.8779C474.263 54.9951 474.037 55.1582 473.855 55.3672C473.674 55.5781 473.537 55.8281 473.445 56.1172C473.354 56.4043 473.308 56.7168 473.308 57.0547V57.3682C473.308 57.6123 473.342 57.8379 473.41 58.0449C473.48 58.25 473.58 58.4277 473.709 58.5781C473.836 58.7285 473.991 58.8467 474.175 58.9326C474.358 59.0166 474.564 59.0586 474.793 59.0586C475.012 59.0586 475.209 59.0215 475.385 58.9473C475.561 58.8711 475.71 58.7676 475.833 58.6367C475.956 58.5059 476.051 58.3516 476.117 58.1738C476.184 57.9961 476.217 57.8037 476.217 57.5967C476.217 57.4033 476.191 57.2197 476.141 57.0459C476.092 56.8701 476.017 56.7158 475.915 56.583C475.813 56.4521 475.687 56.3486 475.534 56.2725C475.384 56.1943 475.207 56.1553 475.004 56.1553C474.904 56.1553 474.812 56.167 474.726 56.1904C474.64 56.2139 474.561 56.2441 474.488 56.2812C474.414 56.3203 474.348 56.3643 474.289 56.4131C474.23 56.46 474.179 56.5078 474.134 56.5566C474.151 56.3789 474.193 56.2178 474.26 56.0732C474.328 55.9287 474.421 55.8047 474.538 55.7012C474.653 55.5977 474.793 55.5176 474.957 55.4609C475.123 55.4043 475.313 55.376 475.528 55.376H475.575V54.6992ZM474.767 56.8086C474.868 56.8086 474.958 56.8291 475.036 56.8701C475.116 56.9092 475.184 56.9639 475.238 57.0342C475.293 57.1064 475.335 57.1914 475.364 57.2891C475.394 57.3867 475.408 57.4932 475.408 57.6084C475.408 57.7236 475.394 57.8301 475.364 57.9277C475.335 58.0234 475.293 58.1064 475.238 58.1768C475.184 58.2471 475.117 58.3027 475.039 58.3438C474.961 58.3828 474.874 58.4023 474.778 58.4023C474.685 58.4023 474.598 58.3828 474.518 58.3438C474.438 58.3047 474.368 58.2461 474.31 58.168C474.251 58.0918 474.205 57.9951 474.172 57.8779C474.141 57.7607 474.125 57.624 474.125 57.4678V57.2275C474.152 57.1689 474.186 57.1152 474.225 57.0664C474.266 57.0176 474.311 56.9746 474.359 56.9375C474.416 56.8965 474.479 56.8652 474.547 56.8438C474.615 56.8203 474.688 56.8086 474.767 56.8086Z" fill="white"/>
<rect width="32" height="16" transform="translate(457 1)" fill="#4CAEE5" fill-opacity="0.1"/>
<path d="M489 1L457 1" stroke="#4CAEE5" stroke-width="0.5"/>
<path d="M489 17L457 17" stroke="#4CAEE5" stroke-width="0.5"/>
<path d="M473.345 17L472.191 15L474.5 15L473.345 17Z" fill="#4CAEE5"/>
<path d="M473.345 1L472.191 3H474.5L473.345 1Z" fill="#4CAEE5"/>
<rect x="468" y="5" width="10" height="8" rx="1" fill="#4CAEE5"/>
<path d="M471.805 11V6.73438H471.761L469.903 7.40527V8.11426L470.981 7.72754V11H471.805ZM475.575 6.69922H475.467C475.113 6.69922 474.802 6.75879 474.532 6.87793C474.263 6.99512 474.037 7.1582 473.855 7.36719C473.674 7.57812 473.537 7.82812 473.445 8.11719C473.354 8.4043 473.308 8.7168 473.308 9.05469V9.36816C473.308 9.6123 473.342 9.83789 473.41 10.0449C473.48 10.25 473.58 10.4277 473.709 10.5781C473.836 10.7285 473.991 10.8467 474.175 10.9326C474.358 11.0166 474.564 11.0586 474.793 11.0586C475.012 11.0586 475.209 11.0215 475.385 10.9473C475.561 10.8711 475.71 10.7676 475.833 10.6367C475.956 10.5059 476.051 10.3516 476.117 10.1738C476.184 9.99609 476.217 9.80371 476.217 9.59668C476.217 9.40332 476.191 9.21973 476.141 9.0459C476.092 8.87012 476.017 8.71582 475.915 8.58301C475.813 8.45215 475.687 8.34863 475.534 8.27246C475.384 8.19434 475.207 8.15527 475.004 8.15527C474.904 8.15527 474.812 8.16699 474.726 8.19043C474.64 8.21387 474.561 8.24414 474.488 8.28125C474.414 8.32031 474.348 8.36426 474.289 8.41309C474.23 8.45996 474.179 8.50781 474.134 8.55664C474.151 8.37891 474.193 8.21777 474.26 8.07324C474.328 7.92871 474.421 7.80469 474.538 7.70117C474.653 7.59766 474.793 7.51758 474.957 7.46094C475.123 7.4043 475.313 7.37598 475.528 7.37598H475.575V6.69922ZM474.767 8.80859C474.868 8.80859 474.958 8.8291 475.036 8.87012C475.116 8.90918 475.184 8.96387 475.238 9.03418C475.293 9.10645 475.335 9.19141 475.364 9.28906C475.394 9.38672 475.408 9.49316 475.408 9.6084C475.408 9.72363 475.394 9.83008 475.364 9.92773C475.335 10.0234 475.293 10.1064 475.238 10.1768C475.184 10.2471 475.117 10.3027 475.039 10.3438C474.961 10.3828 474.874 10.4023 474.778 10.4023C474.685 10.4023 474.598 10.3828 474.518 10.3438C474.438 10.3047 474.368 10.2461 474.31 10.168C474.251 10.0918 474.205 9.99512 474.172 9.87793C474.141 9.76074 474.125 9.62402 474.125 9.46777V9.22754C474.152 9.16895 474.186 9.11523 474.225 9.06641C474.266 9.01758 474.311 8.97461 474.359 8.9375C474.416 8.89648 474.479 8.86523 474.547 8.84375C474.615 8.82031 474.688 8.80859 474.767 8.80859Z" fill="white"/>
</svg>
